<svg id="Componente_3_1" data-name="Componente 3 – 1" xmlns="http://www.w3.org/2000/svg" width="27" height="27" viewBox="0 0 27 27">
  <path id="Caminho_1308" data-name="Caminho 1308" d="M1148.9-12.019a1.055,1.055,0,0,1,0,1.492l-7.075,7.076a1.055,1.055,0,0,1-1.492,0l-3.368-3.368a1.054,1.054,0,0,1,0-1.491,1.054,1.054,0,0,1,1.491,0l2.622,2.623,6.33-6.33A1.055,1.055,0,0,1,1148.9-12.019Zm7.532,4.284a13.493,13.493,0,0,1-13.5,13.5,13.493,13.493,0,0,1-13.5-13.5,13.493,13.493,0,0,1,13.5-13.5A13.493,13.493,0,0,1,1156.436-7.735Zm-2.109,0a11.384,11.384,0,0,0-11.391-11.391,11.384,11.384,0,0,0-11.391,11.391,11.384,11.384,0,0,0,11.391,11.391A11.384,11.384,0,0,0,1154.327-7.735Z" transform="translate(-1129.436 21.235)" fill="#2d9545"/>
</svg>
