<svg id="Grupo_748" data-name="Grupo 748" xmlns="http://www.w3.org/2000/svg" width="27" height="27" viewBox="0 0 27 27">
  <path id="Caminho_1298" data-name="Caminho 1298" d="M24.159,7.1a1.125,1.125,0,0,0-.523,1.5A11.135,11.135,0,0,1,24.75,13.5,11.25,11.25,0,1,1,13.5,2.25a11.114,11.114,0,0,1,6.984,2.427,1.125,1.125,0,1,0,1.4-1.761A13.5,13.5,0,1,0,27,13.5a13.362,13.362,0,0,0-1.339-5.873A1.124,1.124,0,0,0,24.159,7.1Z" fill="#193b4e"/>
  <path id="Caminho_1299" data-name="Caminho 1299" d="M177.187,64A1.187,1.187,0,0,0,176,65.187V73.5a1.187,1.187,0,0,0,1.187,1.187h5.935a1.187,1.187,0,0,0,0-2.374h-4.748V65.187A1.187,1.187,0,0,0,177.187,64Z" transform="translate(-163.906 -59.649)" fill="#193b4e"/>
</svg>
