<svg id="Componente_2_1" data-name="Componente 2 – 1" xmlns="http://www.w3.org/2000/svg" width="33.688" height="30.447" viewBox="0 0 33.688 30.447">
  <path id="Caminho_1300" data-name="Caminho 1300" d="M185.924,163.072a3.088,3.088,0,1,0,3.085,3.092A3.088,3.088,0,0,0,185.924,163.072Zm0,4.675a1.583,1.583,0,1,1,1.584-1.584A1.583,1.583,0,0,1,185.924,167.747Z" transform="translate(-169.083 -152.453)" fill="#193b4e"/>
  <path id="Caminho_1301" data-name="Caminho 1301" d="M77.142,163.072a3.088,3.088,0,1,0,3.085,3.092A3.088,3.088,0,0,0,77.142,163.072Zm0,4.675a1.583,1.583,0,1,1,1.584-1.584A1.583,1.583,0,0,1,77.142,167.747Z" transform="translate(-68.481 -152.453)" fill="#193b4e"/>
  <path id="Caminho_1302" data-name="Caminho 1302" d="M294.7,163.072a3.088,3.088,0,1,0,3.085,3.092A3.088,3.088,0,0,0,294.7,163.072Zm0,4.675a1.583,1.583,0,1,1,1.584-1.584A1.583,1.583,0,0,1,294.7,167.747Z" transform="translate(-269.684 -152.453)" fill="#193b4e"/>
  <path id="Caminho_1303" data-name="Caminho 1303" d="M28.616,25.75a18.905,18.905,0,0,0-11.775-3.9,18.905,18.905,0,0,0-11.775,3.9A12.486,12.486,0,0,0,0,35.566a12.478,12.478,0,0,0,4.983,9.741l-.24,6.214a.755.755,0,0,0,.323.646.742.742,0,0,0,.428.135.815.815,0,0,0,.293-.06L13.456,49a21.233,21.233,0,0,0,3.392.278,18.9,18.9,0,0,0,11.775-3.9,12.486,12.486,0,0,0,5.066-9.816A12.5,12.5,0,0,0,28.616,25.75ZM27.685,44.2A17.409,17.409,0,0,1,16.84,47.761a19.15,19.15,0,0,1-3.355-.293.793.793,0,0,0-.42.045L6.281,50.381l.21-5.411a.745.745,0,0,0-.293-.623l-.015-.007L6,44.2a11.028,11.028,0,0,1-4.5-8.638A11.028,11.028,0,0,1,6,26.921,17.412,17.412,0,0,1,16.84,23.356a17.457,17.457,0,0,1,10.844,3.565,11.028,11.028,0,0,1,4.5,8.638A11.049,11.049,0,0,1,27.685,44.2Z" transform="translate(0 -21.855)" fill="#193b4e"/>
</svg>
