<svg xmlns="http://www.w3.org/2000/svg" xmlns:xlink="http://www.w3.org/1999/xlink" width="87" height="32" viewBox="0 0 87 32">
  <defs>
    <clipPath id="clip-path">
      <rect id="Rectangle_2769" data-name="Rectangle 2769" width="32" height="32" transform="translate(150 0)" fill="none"/>
    </clipPath>
  </defs>
  <g id="Group_3107" data-name="Group 3107" transform="translate(-1555.016 -1823)">
    <g id="Group_3065" data-name="Group 3065" transform="translate(1460.016 1823)" clip-path="url(#clip-path)">
      <g id="Group_3064" data-name="Group 3064">
        <path id="Path_4611" data-name="Path 4611" d="M178.791,13.6l-.015-.009L156.123.409a2.815,2.815,0,0,0-4.268,2.412V29.179a2.815,2.815,0,0,0,4.268,2.412l22.668-13.179a2.816,2.816,0,0,0,0-4.813Zm-7.634-2.271-3.328,3.343L155.354,2.133Zm-17.425,17.5V3.164L166.505,16Zm1.611,1.042,12.486-12.541,3.329,3.346ZM177.824,16.8l-4.988,2.9L169.153,16l3.681-3.7,4.989,2.9a.939.939,0,0,1,0,1.6Z" fill="#193b4e"/>
      </g>
    </g>
    <g id="Group_3106" data-name="Group 3106">
      <path id="Path_4612" data-name="Path 4612" d="M120.438,0H101.562A6.57,6.57,0,0,0,95,6.562V25.437A6.57,6.57,0,0,0,101.562,32h18.876A6.57,6.57,0,0,0,127,25.437V6.562A6.57,6.57,0,0,0,120.438,0Zm4.687,25.437a4.693,4.693,0,0,1-4.687,4.688H101.562a4.693,4.693,0,0,1-4.687-4.688V6.562a4.693,4.693,0,0,1,4.687-4.687h18.876a4.693,4.693,0,0,1,4.687,4.687Z" transform="translate(1460.016 1823)" fill="#193b4e"/>
      <path id="Path_4613" data-name="Path 4613" d="M114.1,7.721a1.563,1.563,0,0,0-2.863-.377L111,7.76l-.241-.416a1.564,1.564,0,0,0-2.134-.572h0a1.564,1.564,0,0,0-.572,2.134l1.143,1.979-4.216,7.3h-3.074a1.563,1.563,0,0,0,0,3.125h11.866l-1.8-3.125h-3.38l5.359-9.282A1.554,1.554,0,0,0,114.1,7.721Z" transform="translate(1460.016 1823)" fill="#193b4e"/>
      <path id="Path_4614" data-name="Path 4614" d="M120.094,18.187H117.02l-3.494-6.052-1.8,3.125,5.425,9.4a1.552,1.552,0,0,0,.949.728,1.562,1.562,0,0,0,1.757-2.29l-1.029-1.783h1.27a1.563,1.563,0,0,0,0-3.125Z" transform="translate(1460.016 1823)" fill="#193b4e"/>
      <path id="Path_4615" data-name="Path 4615" d="M102.454,22.562l-.307.533a1.563,1.563,0,0,0,.572,2.134,1.546,1.546,0,0,0,.778.209,1.562,1.562,0,0,0,1.356-.781l1.209-2.095Z" transform="translate(1460.016 1823)" fill="#193b4e"/>
    </g>
  </g>
</svg>
