<svg id="Group_766" data-name="Group 766" xmlns="http://www.w3.org/2000/svg" width="109.145" height="35.703" viewBox="0 0 109.145 35.703">
  <g id="Group_764" data-name="Group 764" transform="translate(0 0)">
    <path id="Path_1385" data-name="Path 1385" d="M205.786,966.7a4.825,4.825,0,0,1-4.824,4.825h-99.5a4.825,4.825,0,0,1-4.825-4.825V940.65a4.825,4.825,0,0,1,4.825-4.825h99.5a4.824,4.824,0,0,1,4.824,4.825Z" transform="translate(-96.641 -935.825)" fill="#808285"/>
    <g id="Group_760" data-name="Group 760" transform="translate(7.321 5.55)">
      <path id="Path_1386" data-name="Path 1386" d="M152.778,1002.175a17.681,17.681,0,0,1-1.6,2.984c-1.038,1.58-2.5,3.548-4.314,3.565-1.611.015-2.025-1.049-4.211-1.037s-2.642,1.055-4.254,1.04c-1.813-.017-3.2-1.794-4.237-3.374-2.9-4.419-3.206-9.6-1.416-12.361a6.423,6.423,0,0,1,5.166-3.106c1.921,0,3.129,1.054,4.718,1.054,1.541,0,2.48-1.055,4.7-1.055a6.269,6.269,0,0,1,4.726,2.5A5.408,5.408,0,0,0,152.778,1002.175Z" transform="translate(-131.637 -984.126)" fill="#fff"/>
      <g id="Group_759" data-name="Group 759" transform="translate(10.161)">
        <path id="Path_1387" data-name="Path 1387" d="M184.058,966.349a5.393,5.393,0,0,0,1.2-3.994,5.827,5.827,0,0,0-3.761,2.023,5.006,5.006,0,0,0-1.229,3.9A4.917,4.917,0,0,0,184.058,966.349Z" transform="translate(-180.207 -962.355)" fill="#fff"/>
      </g>
    </g>
    <g id="Group_763" data-name="Group 763" transform="translate(33.147 5.603)">
      <g id="Group_761" data-name="Group 761" transform="translate(0 8.553)">
        <path id="Path_1388" data-name="Path 1388" d="M259.24,1004.42l-4.158,12.239h1.9l1.241-3.758h4.026l1.277,3.758h1.957l-4.176-12.239Zm.987,2.012c.14.546.292,1.114.487,1.727l1.121,3.245h-3.189l1.105-3.267C259.918,1007.608,260.078,1007.036,260.227,1006.432Z" transform="translate(-255.082 -1004.225)" fill="#fff"/>
        <path id="Path_1389" data-name="Path 1389" d="M312.726,1019.586a3.465,3.465,0,0,0-2.944,1.412l-.074-1.217h-1.694l.01.156c.05.758.071,1.593.071,2.791v9.434h1.852v-4.4a3.252,3.252,0,0,0,2.531,1.088,3.818,3.818,0,0,0,2.806-1.193,5.059,5.059,0,0,0,1.239-3.562,4.926,4.926,0,0,0-1.076-3.252A3.523,3.523,0,0,0,312.726,1019.586Zm-.461,1.533c1.651,0,2.39,1.529,2.39,3.045,0,1.954-.943,3.168-2.46,3.168a2.245,2.245,0,0,1-2.182-1.719,2.362,2.362,0,0,1-.066-.6v-1.489a2.789,2.789,0,0,1,.059-.457c.009-.051.019-.1.027-.15A2.345,2.345,0,0,1,312.264,1021.119Z" transform="translate(-296.94 -1016.218)" fill="#fff"/>
        <path id="Path_1390" data-name="Path 1390" d="M358.307,1019.586a3.466,3.466,0,0,0-2.944,1.412l-.074-1.217H353.6l.009.156c.05.759.071,1.593.071,2.791v9.434h1.852v-4.4a3.25,3.25,0,0,0,2.531,1.088,3.823,3.823,0,0,0,2.807-1.193,5.065,5.065,0,0,0,1.238-3.562,4.926,4.926,0,0,0-1.077-3.252A3.522,3.522,0,0,0,358.307,1019.586Zm-.461,1.533c1.65,0,2.389,1.529,2.389,3.045,0,1.954-.943,3.168-2.46,3.168a2.245,2.245,0,0,1-2.182-1.719,2.364,2.364,0,0,1-.065-.6v-1.489a2.753,2.753,0,0,1,.059-.459c.009-.05.018-.1.027-.149A2.343,2.343,0,0,1,357.846,1021.119Z" transform="translate(-332.986 -1016.218)" fill="#fff"/>
        <path id="Path_1391" data-name="Path 1391" d="M416.554,1008.869c-1.728-.669-2.282-1.2-2.282-2.168,0-.819.651-1.645,2.1-1.645a4.208,4.208,0,0,1,2.174.546l.157.1.523-1.545-.1-.06a5.367,5.367,0,0,0-2.7-.605c-2.362,0-4.011,1.394-4.011,3.39,0,1.609,1.033,2.734,3.25,3.54,1.572.587,2.157,1.189,2.157,2.221,0,1.168-.9,1.892-2.354,1.892a5.068,5.068,0,0,1-2.669-.757l-.161-.1-.5,1.581.091.06a6.343,6.343,0,0,0,3.13.8c3.183,0,4.311-1.941,4.311-3.6C419.677,1010.8,418.772,1009.745,416.554,1008.869Z" transform="translate(-379.286 -1003.488)" fill="#fff"/>
        <path id="Path_1392" data-name="Path 1392" d="M452.191,1010.439l-1.816.57v1.539h-1.329v1.48h1.329v4.533a3.465,3.465,0,0,0,.641,2.349,2.374,2.374,0,0,0,1.792.7,4.362,4.362,0,0,0,1.431-.221l.1-.037-.089-1.483-.178.055a2.789,2.789,0,0,1-.861.1c-.718,0-1.024-.454-1.024-1.52v-4.48h2.234v-1.48h-2.234Z" transform="translate(-408.467 -1008.985)" fill="#fff"/>
        <path id="Path_1393" data-name="Path 1393" d="M480.062,1019.586a4.361,4.361,0,0,0-4.4,4.7,4.225,4.225,0,0,0,4.259,4.56h.017a4.366,4.366,0,0,0,4.4-4.719,4.679,4.679,0,0,0-1.18-3.275A4.121,4.121,0,0,0,480.062,1019.586Zm-.054,1.462c1.666,0,2.424,1.624,2.424,3.134,0,1.856-1.035,3.2-2.459,3.2h-.018c-1.4,0-2.424-1.325-2.424-3.15C477.532,1022.649,478.3,1021.048,480.009,1021.048Z" transform="translate(-429.515 -1016.218)" fill="#fff"/>
        <path id="Path_1394" data-name="Path 1394" d="M526.82,1019.672l-.111-.028a1.784,1.784,0,0,0-.46-.058,2.642,2.642,0,0,0-2.322,1.491l-.054-1.3h-1.662l.011.156c.049.733.07,1.556.07,2.667l-.017,6.049h1.852v-4.72a4.778,4.778,0,0,1,.051-.718,2.047,2.047,0,0,1,1.948-1.866,4.734,4.734,0,0,1,.5.031l.2.02Z" transform="translate(-466.326 -1016.218)" fill="#fff"/>
        <path id="Path_1395" data-name="Path 1395" d="M548.318,1019.5c-2.465,0-4.187,1.97-4.187,4.79a4.141,4.141,0,0,0,4.364,4.471,7.1,7.1,0,0,0,2.932-.562l.112-.05-.356-1.38-.154.062a5.737,5.737,0,0,1-2.32.415,2.574,2.574,0,0,1-2.774-2.685l5.977.018.024-.118a4.116,4.116,0,0,0,.056-.773C551.991,1021.758,551.029,1019.5,548.318,1019.5Zm-.123,1.409a1.827,1.827,0,0,1,1.359.519,2.636,2.636,0,0,1,.638,1.724h-4.223A2.364,2.364,0,0,1,548.195,1020.911Z" transform="translate(-483.66 -1016.152)" fill="#fff"/>
      </g>
      <g id="Group_762" data-name="Group 762">
        <path id="Path_1396" data-name="Path 1396" d="M255.082,964a13.5,13.5,0,0,1,1.776-.12,3.964,3.964,0,0,1,2.607.713,2.535,2.535,0,0,1,.917,2.088,2.932,2.932,0,0,1-.926,2.252,4.3,4.3,0,0,1-2.855.834,12.841,12.841,0,0,1-1.519-.069Zm.841,5.131a5.965,5.965,0,0,0,.84.034c1.776.008,2.741-.894,2.741-2.458.01-1.384-.85-2.235-2.607-2.235a5.277,5.277,0,0,0-.974.077Z" transform="translate(-255.082 -963.614)" fill="#fff"/>
        <path id="Path_1397" data-name="Path 1397" d="M286.28,975.789a2.088,2.088,0,0,1-2.216-2.14,2.146,2.146,0,0,1,2.292-2.209,2.071,2.071,0,0,1,2.225,2.131,2.154,2.154,0,0,1-2.291,2.217Zm.029-.567a1.48,1.48,0,0,0,1.4-1.624,1.413,1.413,0,1,0-1.414,1.624Z" transform="translate(-278.001 -969.592)" fill="#fff"/>
        <path id="Path_1398" data-name="Path 1398" d="M308.76,971.891l.621,2.106c.124.464.248.9.334,1.332h.029c.105-.421.258-.868.411-1.323l.754-2.115h.707l.716,2.08c.172.49.305.937.41,1.358h.029a11.5,11.5,0,0,1,.353-1.349l.659-2.089h.831l-1.49,4.16h-.764l-.706-1.985a13.63,13.63,0,0,1-.411-1.375h-.019a11.419,11.419,0,0,1-.421,1.384l-.745,1.977h-.764l-1.395-4.16Z" transform="translate(-296.85 -969.949)" fill="#fff"/>
        <path id="Path_1399" data-name="Path 1399" d="M343.866,972.66c0-.438-.01-.782-.038-1.126h.745l.047.679h.019a1.75,1.75,0,0,1,1.528-.774,1.582,1.582,0,0,1,1.633,1.77v2.484h-.84v-2.4c0-.671-.277-1.237-1.07-1.237a1.2,1.2,0,0,0-1.127.773,1.019,1.019,0,0,0-.058.352v2.509h-.84Z" transform="translate(-325.262 -969.592)" fill="#fff"/>
        <path id="Path_1400" data-name="Path 1400" d="M369.346,962.607h.84v6.1h-.84Z" transform="translate(-345.441 -962.607)" fill="#fff"/>
        <path id="Path_1401" data-name="Path 1401" d="M380.647,975.789a2.088,2.088,0,0,1-2.215-2.14,2.145,2.145,0,0,1,2.292-2.209,2.071,2.071,0,0,1,2.225,2.131,2.154,2.154,0,0,1-2.292,2.217Zm.028-.567a1.48,1.48,0,0,0,1.4-1.624,1.413,1.413,0,1,0-1.413,1.624Z" transform="translate(-352.626 -969.592)" fill="#fff"/>
        <path id="Path_1402" data-name="Path 1402" d="M406.976,974.7a6.269,6.269,0,0,0,.067,1h-.755l-.076-.524h-.028a1.777,1.777,0,0,1-1.413.619,1.26,1.26,0,0,1-1.413-1.195c0-1.005.993-1.556,2.779-1.547v-.086c0-.344-.1-.971-1.05-.963a2.412,2.412,0,0,0-1.213.309l-.191-.507a3.255,3.255,0,0,1,1.528-.361,1.546,1.546,0,0,1,1.766,1.7Zm-.821-1.126c-.917-.017-1.958.129-1.958.937a.7.7,0,0,0,.783.722,1.165,1.165,0,0,0,1.136-.7.694.694,0,0,0,.039-.241Z" transform="translate(-372.337 -969.592)" fill="#fff"/>
        <path id="Path_1403" data-name="Path 1403" d="M429.822,962.607v5.028c0,.369.01.791.038,1.074h-.754l-.038-.722h-.019a1.729,1.729,0,0,1-1.566.817,1.984,1.984,0,0,1-1.987-2.114,2.074,2.074,0,0,1,2.072-2.234,1.589,1.589,0,0,1,1.395.627h.019v-2.475Zm-.84,3.635a1.259,1.259,0,0,0-.038-.326,1.215,1.215,0,0,0-1.213-.868,1.423,1.423,0,0,0-1.385,1.6,1.38,1.38,0,0,0,1.366,1.547,1.251,1.251,0,0,0,1.232-.9,1.178,1.178,0,0,0,.038-.327Z" transform="translate(-389.844 -962.607)" fill="#fff"/>
        <path id="Path_1404" data-name="Path 1404" d="M463.136,975.789a2.088,2.088,0,0,1-2.216-2.14,2.146,2.146,0,0,1,2.292-2.209,2.071,2.071,0,0,1,2.225,2.131,2.154,2.154,0,0,1-2.291,2.217Zm.029-.567a1.48,1.48,0,0,0,1.4-1.624,1.413,1.413,0,1,0-1.413,1.624Z" transform="translate(-417.857 -969.592)" fill="#fff"/>
        <path id="Path_1405" data-name="Path 1405" d="M487.436,972.66c0-.438-.01-.782-.038-1.126h.745l.048.679h.019a1.75,1.75,0,0,1,1.528-.774,1.582,1.582,0,0,1,1.633,1.77v2.484h-.841v-2.4c0-.671-.277-1.237-1.07-1.237a1.2,1.2,0,0,0-1.127.773,1.023,1.023,0,0,0-.057.352v2.509h-.84Z" transform="translate(-438.796 -969.592)" fill="#fff"/>
        <path id="Path_1406" data-name="Path 1406" d="M521.622,967.127v1h1.2v.576h-1.2v2.243c0,.516.163.808.63.808a1.73,1.73,0,0,0,.487-.052l.038.576a2.525,2.525,0,0,1-.745.1,1.272,1.272,0,0,1-.907-.318,1.51,1.51,0,0,1-.325-1.092V968.7h-.716v-.576h.716v-.765Z" transform="translate(-464.644 -966.181)" fill="#fff"/>
        <path id="Path_1407" data-name="Path 1407" d="M537.705,962.607h.84v2.6h.019a1.427,1.427,0,0,1,.6-.533,1.774,1.774,0,0,1,.859-.215,1.581,1.581,0,0,1,1.614,1.779v2.475h-.84V966.32c0-.679-.277-1.237-1.07-1.237a1.208,1.208,0,0,0-1.127.756.833.833,0,0,0-.058.361v2.509h-.84Z" transform="translate(-478.578 -962.607)" fill="#fff"/>
        <path id="Path_1408" data-name="Path 1408" d="M562.255,973.71a1.409,1.409,0,0,0,1.576,1.444,3.5,3.5,0,0,0,1.28-.207l.153.533a4.132,4.132,0,0,1-1.547.267,2.05,2.05,0,0,1-2.273-2.1,2.118,2.118,0,0,1,2.177-2.252,1.821,1.821,0,0,1,1.9,1.96,1.743,1.743,0,0,1-.028.361Zm2.455-.541a1.116,1.116,0,0,0-1.156-1.229,1.308,1.308,0,0,0-1.289,1.229Z" transform="translate(-497.35 -969.559)" fill="#fff"/>
      </g>
    </g>
  </g>
</svg>
