<svg xmlns="http://www.w3.org/2000/svg" xmlns:xlink="http://www.w3.org/1999/xlink" width="1154.652" height="438.596" viewBox="0 0 1154.652 438.596">
  <defs>
    <clipPath id="clip-path">
      <rect id="Retângulo_2925" data-name="Retângulo 2925" width="1027.889" height="391.085" fill="none"/>
    </clipPath>
    <clipPath id="clip-path-2">
      <rect id="Retângulo_2926" data-name="Retângulo 2926" width="1027.889" height="328.516" fill="none"/>
    </clipPath>
    <clipPath id="clip-path-3">
      <path id="Caminho_4660" data-name="Caminho 4660" d="M234.409,820.171H1262.3V637.977c-61.339-7.564-381.774-46.892-423.749-48.417-.17-.006-.344-.009-.527-.009-49.986.01-603.612,230.62-603.612,230.62" transform="translate(-234.409 -589.551)" fill="#456c0c"/>
    </clipPath>
    <clipPath id="clip-path-4">
      <rect id="Retângulo_2930" data-name="Retângulo 2930" width="1154.652" height="438.594" fill="none"/>
    </clipPath>
    <clipPath id="clip-path-5">
      <path id="Caminho_4672" data-name="Caminho 4672" d="M234.409,558.793V797.628H1262.3v-4.666C1131.617,759.589,340.349,558.575,239.374,558.577a49.106,49.106,0,0,0-4.965.216" transform="translate(-234.409 -558.577)" fill="#2a4207"/>
    </clipPath>
    <clipPath id="clip-path-7">
      <path id="Caminho_4681" data-name="Caminho 4681" d="M234.409,1117.242H1262.3V997.717Z" transform="translate(-234.409 -997.717)" fill="#476f0e"/>
    </clipPath>
    <clipPath id="clip-path-8">
      <rect id="Retângulo_2957" data-name="Retângulo 2957" width="243.214" height="118.023" transform="translate(0 0)" fill="none"/>
    </clipPath>
  </defs>
  <g id="Grupo_3268" data-name="Grupo 3268" transform="translate(-395.146 -167.702)">
    <path id="Caminho_4647" data-name="Caminho 4647" d="M1262.3,468.158V731.092H234.409V625.964s891-173.457,1027.889-157.806" transform="translate(212.643 -172.305)" fill="#3d5d0e"/>
    <path id="Caminho_4648" data-name="Caminho 4648" d="M234.409,673.958s277.387-83.933,334.762-84.39S1262.3,700.658,1262.3,700.658V820.183H234.409Z" transform="translate(212.643 -261.396)" fill="#2a4207"/>
    <path id="Caminho_4650" data-name="Caminho 4650" d="M1262.3,637.976v182.2H234.409s557.7-232.309,604.139-230.612c41.975,1.526,362.41,40.853,423.749,48.417" transform="translate(212.643 -261.383)" fill="#364d15"/>
    <g id="Grupo_3237" data-name="Grupo 3237" transform="translate(447.052 167.702)" opacity="0.13">
      <g id="Grupo_3236" data-name="Grupo 3236">
        <g id="Grupo_3235" data-name="Grupo 3235" opacity="0.27" clip-path="url(#clip-path)">
          <path id="Caminho_4645" data-name="Caminho 4645" d="M1262.3,45.628V391.089H234.409V152.254C317.162,119.787,618.959,2.247,655.64.036c42.562-2.573,329.93,155.54,362.506,160.442,30.511,4.585,151.648-100.995,244.152-114.85" transform="translate(-234.409 -0.004)" fill="#193b4e"/>
        </g>
      </g>
    </g>
    <g id="Grupo_3240" data-name="Grupo 3240" transform="translate(447.052 230.271)" opacity="0.2">
      <g id="Grupo_3239" data-name="Grupo 3239" opacity="0.364">
        <g id="Grupo_3238" data-name="Grupo 3238" clip-path="url(#clip-path-2)">
          <path id="Caminho_4646" data-name="Caminho 4646" d="M1262.3,379.9V558.394H234.409v-285c38.575-17.43,87.026-38.416,106.868-43.218,35.248-8.53,352.717,170.208,401.088,167.5S951.8,278.508,1001.255,278.508c32.729,0,171.137,60.476,261.042,101.392" transform="translate(-234.409 -229.878)" fill="#193b4e"/>
        </g>
      </g>
    </g>
    <g id="Grupo_3243" data-name="Grupo 3243" transform="translate(447.052 328.167)" clip-path="url(#clip-path-3)">
      <path id="Caminho_4682" data-name="Caminho 4682" d="M.109,42.745,554.98.659l-.057.88L.052,43.625Z" transform="matrix(0.93, -0.367, 0.367, 0.93, 167.393, 193.999)" fill="#456c0c"/>
      <path id="Caminho_4652" data-name="Caminho 4652" d="M1423.373,807l-1.785-1.391,453.617-246.148,1.784,1.392Z" transform="translate(-1158.705 -567.653)" fill="#456c0c"/>
      <path id="Caminho_4653" data-name="Caminho 4653" d="M1784.961,813.62l-3.3-1.943,406.416-249.783,3.3,1.943Z" transform="translate(-1439.045 -569.422)" fill="#456c0c"/>
      <path id="Caminho_4654" data-name="Caminho 4654" d="M2146.549,820.237l-4.816-2.494,359.213-253.417,4.815,2.494Z" transform="translate(-1719.384 -571.191)" fill="#456c0c"/>
      <path id="Caminho_4655" data-name="Caminho 4655" d="M2508.137,826.853l-6.331-3.045,312.011-257.052,6.331,3.045Z" transform="translate(-1999.725 -572.96)" fill="#456c0c"/>
      <path id="Caminho_4656" data-name="Caminho 4656" d="M2869.724,833.47l-7.846-3.6,264.809-260.686,7.845,3.6Z" transform="translate(-2280.064 -574.729)" fill="#456c0c"/>
      <path id="Caminho_4657" data-name="Caminho 4657" d="M3231.313,840.086l-9.362-4.148,217.606-264.321,9.362,4.148Z" transform="translate(-2560.404 -576.499)" fill="#456c0c"/>
      <path id="Caminho_4658" data-name="Caminho 4658" d="M3592.9,846.7l-10.878-4.7,170.4-267.956,10.877,4.7Z" transform="translate(-2840.744 -578.267)" fill="#456c0c"/>
      <path id="Caminho_4659" data-name="Caminho 4659" d="M3954.488,853.319l-12.392-5.251,123.2-271.591,12.392,5.251Z" transform="translate(-3121.083 -580.036)" fill="#456c0c"/>
      <path id="Caminho_4683" data-name="Caminho 4683" d="M1.058,16.8,286.107.3l-1.024,15.035L.034,31.831Z" transform="translate(884.5 267.932) rotate(-71.252)" fill="#456c0c"/>
    </g>
    <g id="Grupo_3245" data-name="Grupo 3245" transform="translate(395.146 167.703)" clip-path="url(#clip-path-4)">
      <path id="Caminho_4661" data-name="Caminho 4661" d="M1262.3,792.961v4.667H234.409V558.793c22.538-2.332,110.614,14.377,226.683,39.89C736.212,659.154,1168.7,769.057,1262.3,792.961" transform="translate(-182.503 -406.543)" fill="#355507"/>
    </g>
    <g id="Grupo_3247" data-name="Grupo 3247" transform="translate(447.052 319.737)" clip-path="url(#clip-path-5)">
      <path id="Caminho_4662" data-name="Caminho 4662" d="M1196.9,850.7c-106.394-30.733-222.2-60.3-332.983-86.776s-216.548-49.879-302.857-68.285c-187.033-39.885-325.524-65.564-326.9-65.819l.109-.893c1.377.255,139.875,25.935,326.915,65.822,109.854,23.427,214.708,47.1,311.65,70.354,121.18,29.071,230.268,57.575,324.235,84.719Z" transform="translate(-234.217 -609.778)" fill="#2a4207"/>
      <path id="Caminho_4663" data-name="Caminho 4663" d="M208.583,640.355c.43.08,16.95,2.144,44.075,7.374,50.051,9.651,143.509,34.646,251.333,57.639,55.061,11.742,111.167,28.3,162.938,40.078,40.042,9.108,80.749,21.65,118.331,30.666C892.975,801.954,994.4,835.9,1077.772,860.805c-13.978-4.038-29.171-7.245-43.474-11.232-82.463-22.987-173.53-52.584-257.45-72.644-52.674-12.59-106.407-28.911-154.563-39.674-41.873-9.359-83.088-21.39-118.77-29-166.251-35.453-293.8-66.88-294.932-67.9" transform="translate(-214.302 -618.096)" fill="#2a4207"/>
      <path id="Caminho_4664" data-name="Caminho 4664" d="M182.51,651.783a348.872,348.872,0,0,1,39.727,5.544c43.795,8.445,129.827,38.541,224.173,58.661C494.588,726.262,546.446,746.1,591.746,756.4c35.037,7.969,72.668,22.833,105.552,30.721,94.251,22.611,188,61.993,260.958,83.788-12.231-3.533-26.687-5.432-39.2-8.92-72.155-20.114-156.233-54.5-229.663-72.056-46.09-11.017-95.733-30.376-137.87-39.794-36.639-8.189-74.717-22.612-105.94-29.27-145.47-31.022-262.085-68.2-263.071-69.088" transform="translate(-194.002 -626.414)" fill="#2a4207"/>
      <path id="Caminho_4665" data-name="Caminho 4665" d="M156.437,663.21a197.092,197.092,0,0,1,35.38,3.715c37.538,7.238,116.145,42.436,197.012,59.681,41.3,8.806,88.906,31.917,127.734,40.749,30.032,6.831,64.587,24.015,92.773,30.777,80.786,19.381,166.871,64.2,229.4,82.884-10.483-3.028-24.2-3.618-34.929-6.608-61.847-17.24-138.936-56.423-201.876-71.468-39.506-9.443-85.06-31.84-121.178-39.913-31.405-7.019-66.347-23.833-93.109-29.54C262.96,706.9,157.282,663.975,156.437,663.21" transform="translate(-173.703 -634.731)" fill="#2a4207"/>
      <path id="Caminho_4666" data-name="Caminho 4666" d="M130.364,673.913A122.674,122.674,0,0,1,161.4,675.8c31.282,6.032,102.462,46.332,169.852,60.7,34.413,7.339,77.776,33.724,110.132,41.083,25.026,5.692,56.505,25.2,79.994,30.833C588.7,824.567,667.113,874.827,719.223,890.4c-8.736-2.523-21.718-1.8-30.657-4.3-51.539-14.367-121.639-58.343-174.089-70.88-32.921-7.869-74.387-33.3-104.485-40.031-26.171-5.849-57.976-25.055-80.278-29.81-103.907-22.159-198.647-70.828-199.351-71.465" transform="translate(-153.403 -642.323)" fill="#2a4207"/>
      <path id="Caminho_4667" data-name="Caminho 4667" d="M104.291,683.089c.215.04,13.122-2.561,26.685.054,25.025,4.826,88.78,50.227,142.692,61.724,27.53,5.871,66.645,35.531,92.531,41.418,20.021,4.554,48.423,26.38,67.214,30.889,53.858,12.921,124.606,68.62,166.294,81.075-6.989-2.019-19.233.01-26.384-1.983-41.231-11.494-104.342-60.263-146.3-70.292-26.337-6.3-63.714-34.769-87.792-40.151-20.937-4.679-49.606-26.276-67.447-30.08-83.125-17.727-166.928-72.143-167.491-72.653" transform="translate(-133.104 -648.389)" fill="#2a4207"/>
      <path id="Caminho_4668" data-name="Caminho 4668" d="M78.219,691.232c.161.029,12.165-3.737,22.337-1.776,18.769,3.619,75.1,54.123,115.531,62.746,20.648,4.4,55.515,37.338,74.929,41.753,15.016,3.416,40.342,27.564,54.435,30.944,40.393,9.69,103.474,70.829,134.74,80.17-5.242-1.514-16.749,1.824-22.112.329-30.924-8.62-87.045-62.182-118.515-69.7-19.753-4.721-53.04-36.233-71.1-40.27-15.7-3.509-41.235-27.5-54.616-30.351-62.344-13.3-135.209-73.459-135.631-73.841" transform="translate(-112.805 -653.421)" fill="#2a4207"/>
      <path id="Caminho_4669" data-name="Caminho 4669" d="M52.146,698.69c.107.02,11.208-4.914,17.99-3.606,12.513,2.413,61.415,58.018,88.371,63.767,13.765,2.935,44.384,39.144,57.327,42.088,10.01,2.277,32.26,28.746,41.656,31,26.929,6.46,82.342,73.038,103.186,79.265-3.494-1.009-14.264,3.638-17.839,2.642-20.616-5.747-69.747-64.1-90.728-69.117-13.168-3.148-42.367-37.7-54.406-40.389-10.468-2.34-32.864-28.719-41.785-30.621-41.563-8.863-103.489-74.774-103.771-75.03" transform="translate(-92.505 -657.769)" fill="#2a4207"/>
      <path id="Caminho_4670" data-name="Caminho 4670" d="M26.073,705.683c.054.01,10.252-6.09,13.642-5.436,6.256,1.206,47.733,61.914,61.211,64.788,6.882,1.468,33.254,40.951,39.725,42.423,5.005,1.138,24.179,29.928,28.876,31.055,13.465,3.23,61.209,75.247,71.631,78.361-1.747-.5-11.779,5.452-13.567,4.954-10.308-2.873-52.451-66.021-62.94-68.529-6.584-1.574-31.694-39.162-37.713-40.508-5.234-1.17-24.494-29.94-28.954-30.891-20.781-4.432-71.77-76.09-71.911-76.218" transform="translate(-72.206 -661.652)" fill="#2a4207"/>
      <path id="Caminho_4671" data-name="Caminho 4671" d="M112.348,929.484,56.174,820.916,0,712.348l9.295-7.266L65.468,813.65l56.174,108.568Z" transform="translate(-51.906 -665.207)" fill="#2a4207"/>
    </g>
    <g id="Grupo_3249" data-name="Grupo 3249" transform="translate(395.146 167.703)" clip-path="url(#clip-path-4)">
      <path id="Caminho_4673" data-name="Caminho 4673" d="M3439.333,1033.57c-1.78-5.2-4.027-10.659-7.551-14.32-6.434-6.686-14.986-7.306-21.644-.213-13.5-11.13-24.842-6.246-31.882,9.971-11.891-4.556-27.553,6.121-28.613,24.393-.394,6.787,5.492,14.55,12.728,11.868a7.8,7.8,0,0,0,5.17.152c27.136-8.629,43.775-13.289,63.792-12.241,7.4.387,13.513-10.676,8-19.611" transform="translate(-2607.899 -737.298)" fill="#193b4e"/>
      <path id="Caminho_4674" data-name="Caminho 4674" d="M1424.125,1184.736c-1.928-5.632-4.363-11.551-8.181-15.518-6.972-7.244-16.239-7.917-23.455-.23-14.631-12.062-26.92-6.769-34.548,10.8-12.886-4.937-29.858,6.633-31.007,26.434-.426,7.354,5.952,15.767,13.793,12.861a8.456,8.456,0,0,0,5.6.165c29.407-9.351,47.437-14.4,69.127-13.265,8.02.42,14.644-11.569,8.669-21.251" transform="translate(-1033.088 -846.069)" fill="#2a4207"/>
      <path id="Caminho_4675" data-name="Caminho 4675" d="M234.409,1117.242,1262.3,997.716v119.526Z" transform="translate(-182.503 -726.158)" fill="#2a4207"/>
    </g>
    <g id="Grupo_3251" data-name="Grupo 3251" transform="translate(447 439.262)" clip-path="url(#clip-path-7)">
      <path id="Caminho_4676" data-name="Caminho 4676" d="M576.728,1192.117a2.08,2.08,0,0,1-1.868-2.1,2.221,2.221,0,0,1,1.705-2.5l1020.526-110.628a2.032,2.032,0,0,1,2.035,2.1,2.221,2.221,0,0,1-1.705,2.5L576.9,1192.109c-.056.006-.112.008-.167.008" transform="translate(-499.467 -1055.329)" fill="#476f0e"/>
      <path id="Caminho_4677" data-name="Caminho 4677" d="M1448.64,1216.714a2.507,2.507,0,0,1-2.237-2.071,3.241,3.241,0,0,1,1.389-3.8l827.029-101.1a2.287,2.287,0,0,1,3.087,1.708,3.182,3.182,0,0,1-1.389,3.8l-827.029,101.1a1.2,1.2,0,0,1-.85.363" transform="translate(-1177.922 -1079.118)" fill="#476f0e"/>
      <path id="Caminho_4678" data-name="Caminho 4678" d="M2320.106,1240.94a3,3,0,0,1-2.607-2.038,4.312,4.312,0,0,1,1.074-5.09l633.532-91.563a2.734,2.734,0,0,1,4.14,1.32,4.22,4.22,0,0,1-1.073,5.089l-633.532,91.563a2.065,2.065,0,0,1-1.534.718" transform="translate(-1855.932 -1102.537)" fill="#476f0e"/>
      <path id="Caminho_4679" data-name="Caminho 4679" d="M3191.318,1264.983a3.536,3.536,0,0,1-2.976-2,5.365,5.365,0,0,1,.759-6.384l440.034-82.03a3.282,3.282,0,0,1,5.194.932,5.28,5.28,0,0,1-.758,6.384l-440.034,82.031a2.94,2.94,0,0,1-2.218,1.072" transform="translate(-2533.687 -1125.772)" fill="#476f0e"/>
      <path id="Caminho_4680" data-name="Caminho 4680" d="M4062.4,1288.927a4.117,4.117,0,0,1-3.344-1.971,6.4,6.4,0,0,1,.443-7.678l246.538-72.5a3.883,3.883,0,0,1,6.247.544,6.344,6.344,0,0,1-.444,7.678L4065.3,1287.5a3.813,3.813,0,0,1-2.9,1.427" transform="translate(-3211.312 -1148.908)" fill="#476f0e"/>
    </g>
    <g id="Grupo_3258" data-name="Grupo 3258" transform="translate(1375 252.896) rotate(-90)">
      <path id="Caminho_4684" data-name="Caminho 4684" d="M0,0V29.848l25.835,20.3V20.3Z" transform="translate(0 0)" fill="none" stroke="#2a4207" stroke-width="0.5"/>
      <path id="Caminho_4685" data-name="Caminho 4685" d="M0,79.369l25.835,20.3V69.82L0,49.521Z" transform="translate(0 -16.515)" fill="none" stroke="#2a4207" stroke-width="0.5"/>
      <path id="Caminho_4686" data-name="Caminho 4686" d="M68.368,0,42.532,20.3v29.85l25.835-20.3Z" transform="translate(-14.185 0)" fill="none" stroke="#2a4207" stroke-width="0.5"/>
      <path id="Caminho_4687" data-name="Caminho 4687" d="M42.532,69.82V99.668l25.835-20.3V49.521Z" transform="translate(-14.185 -16.515)" fill="none" stroke="#2a4207" stroke-width="0.5"/>
    </g>
    <g id="Grupo_3266" data-name="Grupo 3266" transform="translate(1091.341 248.731)">
      <g id="Grupo_3265" data-name="Grupo 3265" transform="translate(0 -0.002)" clip-path="url(#clip-path-8)">
        <path id="Caminho_4689" data-name="Caminho 4689" d="M2595.762,204.4c.972-1.127,2.3-1.969,2.909-3.349,1.013-2.294-.372-4.853-1.574-7s-2.212-5.06-.661-7c1.108-1.384,3.136-1.645,4.175-3.088,1.631-2.263-.231-5.356-.362-8.172a6.453,6.453,0,0,1,4.253-6.3,5.707,5.707,0,0,1,6.625,2.939c1.795,3.621.156,9.107,3.3,11.463a18.2,18.2,0,0,0,2.736,1.333c3.5,1.807,4.706,7.243,2.354,10.628a10.974,10.974,0,0,0-1.482,2.234c-.636,1.677.218,3.553,1.329,4.882s2.514,2.423,3.292,4c1.624,3.29-.183,7.637-3.128,9.771-4.28,3.1-13.827,4.076-18.789,2.28-5.243-1.9-9.376-9.526-4.977-14.626" transform="translate(-2434.911 -158.897)" fill="#ecf5f7"/>
        <path id="Caminho_4690" data-name="Caminho 4690" d="M2800.949,554.1l-1.165-.059a148.06,148.06,0,0,0-.3-53.44l.346-.066a148.106,148.106,0,0,1,2.569,25.246c.147,9.459.2,18.985-1.454,28.319" transform="translate(-2627.892 -469.851)" fill="#19c6d8"/>
        <path id="Caminho_4691" data-name="Caminho 4691" d="M2822.353,539.5l-.294-.2a15.171,15.171,0,0,1,7.342-5.757l.12.335a14.811,14.811,0,0,0-7.167,5.622" transform="translate(-2649.08 -500.835)" fill="#19c6d8"/>
        <path id="Caminho_4692" data-name="Caminho 4692" d="M2842.088,805.611l-.294-.2a15.171,15.171,0,0,1,7.342-5.757l.12.335a14.81,14.81,0,0,0-7.167,5.622" transform="translate(-2667.605 -750.639)" fill="#19c6d8"/>
        <path id="Caminho_4693" data-name="Caminho 4693" d="M2731.562,690.495a9.37,9.37,0,0,0-6.8-4.668l.047-.352a9.728,9.728,0,0,1,7.063,4.844Z" transform="translate(-2557.744 -643.458)" fill="#19c6d8"/>
        <path id="Caminho_4694" data-name="Caminho 4694" d="M2845.673,44.274c1.226-1.421,2.9-2.482,3.667-4.222,1.277-2.892-.468-6.118-1.984-8.817s-2.788-6.379-.833-8.82c1.4-1.744,3.953-2.074,5.263-3.892,2.056-2.853-.291-6.751-.456-10.3a8.133,8.133,0,0,1,5.36-7.94,7.194,7.194,0,0,1,8.351,3.7c2.262,4.564.2,11.479,4.159,14.448a22.929,22.929,0,0,0,3.449,1.68c4.415,2.278,5.932,9.129,2.967,13.4a13.814,13.814,0,0,0-1.868,2.816c-.8,2.114.275,4.478,1.675,6.153s3.17,3.054,4.15,5.04c2.046,4.147-.23,9.626-3.943,12.316-5.4,3.909-17.428,5.137-23.682,2.874-6.609-2.391-11.818-12.008-6.274-18.436" transform="translate(-2669.05 0.002)" fill="#6ee1f4"/>
        <path id="Caminho_4695" data-name="Caminho 4695" d="M3104.3,485.048l-1.468-.075a186.639,186.639,0,0,0-.373-67.358l.437-.083a186.674,186.674,0,0,1,3.238,31.822c.185,11.922.252,23.93-1.833,35.694" transform="translate(-2912.292 -391.939)" fill="#19c6d8"/>
        <path id="Caminho_4696" data-name="Caminho 4696" d="M3131.828,467.29l-.294-.2a19.076,19.076,0,0,1,9.231-7.239l.12.335a18.716,18.716,0,0,0-9.057,7.1" transform="translate(-2939.585 -431.664)" fill="#19c6d8"/>
        <path id="Caminho_4697" data-name="Caminho 4697" d="M3156.7,802.715l-.294-.2a19.076,19.076,0,0,1,9.231-7.239l.12.335a18.716,18.716,0,0,0-9.057,7.1" transform="translate(-2962.933 -746.529)" fill="#19c6d8"/>
        <path id="Caminho_4698" data-name="Caminho 4698" d="M3016.976,657.652a11.857,11.857,0,0,0-8.607-5.906l.048-.352a12.215,12.215,0,0,1,8.869,6.082Z" transform="translate(-2823.969 -611.465)" fill="#19c6d8"/>
        <rect id="Retângulo_2951" data-name="Retângulo 2951" width="0.371" height="0.742" transform="matrix(0.007, -1, 1, 0.007, 25.284, 115.808)" fill="#fff"/>
        <path id="Caminho_4699" data-name="Caminho 4699" d="M659.653,1885.323l-1.476-.01,0-.371,1.476.01Zm-2.951-.02-1.476-.01,0-.371,1.476.01Zm-2.951-.02-1.475-.01,0-.371,1.476.01Zm-2.951-.02-1.476-.01,0-.37,1.476.01Zm-2.951-.02-1.475-.01,0-.371,1.475.01Zm-2.951-.02-1.476-.01,0-.37,1.476.01Zm-2.951-.02-1.476-.01,0-.371,1.476.01Zm-2.951-.02-1.475-.01,0-.371,1.475.01Zm-2.951-.02-1.476-.01,0-.371,1.476.01Zm-2.951-.02-1.475-.01,0-.371,1.475.01Zm-2.951-.02-1.476-.01,0-.371,1.476.01Zm-2.951-.02-1.476-.01,0-.371,1.476.01Zm-2.951-.02-1.475-.01,0-.371,1.475.01Zm-2.951-.02-1.476-.01,0-.37,1.476.01Zm-2.951-.02-1.475-.01,0-.371,1.475.01Zm-2.951-.02-1.476-.01,0-.371,1.476.01Zm-2.951-.02-1.476-.01,0-.371,1.476.01Zm-2.951-.02-1.475-.01,0-.371,1.475.01Zm-2.951-.02-1.476-.01,0-.371,1.476.01Zm-2.951-.02-1.475-.01,0-.37,1.475.01Zm-2.951-.02-1.476-.01,0-.371,1.476.01Zm-2.951-.02-1.476-.01,0-.371,1.476.01Zm-2.951-.02-1.475-.01,0-.37,1.475.01Zm-2.951-.02-1.475-.01,0-.371,1.476.01Zm-2.951-.02-1.475-.01,0-.371,1.475.01Zm-2.951-.02-1.476-.01,0-.371,1.476.01Zm-2.951-.02-1.476-.01,0-.371,1.476.01Zm-2.951-.02-1.475-.01,0-.371,1.475.01Zm-2.951-.02-1.476-.01,0-.371,1.476.01Zm-2.951-.02-1.475-.01,0-.371,1.475.01Zm-2.951-.02-1.476-.01,0-.371,1.476.01Zm-2.951-.02-1.476-.01,0-.371,1.476.01Zm-2.951-.02-1.475-.01,0-.371,1.475.01Zm-2.951-.02-1.476-.01,0-.371,1.476.01Zm-2.951-.02-1.475-.01,0-.371,1.475.01Zm-2.951-.02-1.476-.01,0-.371,1.476.01Zm-2.951-.02-1.476-.01,0-.371,1.476.01Zm-2.952-.02-1.475-.01,0-.371,1.475.01Zm-2.951-.02-1.476-.01,0-.37,1.476.01Zm-2.951-.02-1.475-.01,0-.371,1.475.01Zm-2.951-.02-1.475-.01,0-.371,1.476.01Zm-2.951-.02-1.475-.01,0-.371,1.475.01Zm-2.951-.02-1.476-.01,0-.371,1.476.01Zm-2.951-.02-1.476-.01,0-.371,1.476.01Zm-2.951-.02-1.476-.01,0-.371,1.476.01Zm-2.951-.02-1.476-.01,0-.371,1.476.01Zm-2.951-.02-1.476-.01,0-.37,1.476.01Zm-2.951-.02-1.476-.01,0-.371,1.476.01Zm-2.951-.02-1.476-.01,0-.371,1.476.01Zm-2.951-.02-1.476-.01,0-.371,1.476.01Zm-2.951-.02-1.476-.01,0-.371,1.476.01Zm-2.951-.02-1.475-.01,0-.37,1.475.01Zm-2.951-.02-1.475-.01,0-.371,1.475.01Zm-2.951-.02-1.475-.01,0-.371,1.475.01Zm-2.951-.02-1.475-.01,0-.371,1.475.01Zm-2.951-.02-1.475-.01,0-.371,1.475.01Zm-2.951-.02-1.476-.01,0-.371,1.476.01Zm-2.951-.02-1.476-.01,0-.371,1.476.01Zm-2.951-.02-1.476-.01,0-.371,1.476.01Zm-2.951-.02-1.476-.01,0-.371,1.476.01Zm-2.951-.02-1.475-.01,0-.37,1.475.01Zm-2.951-.02-1.475-.01,0-.371,1.475.01Zm-2.951-.02-1.475-.01,0-.371,1.475.01Zm-2.951-.02-1.475-.01,0-.371,1.475.01Zm-2.951-.02-1.475-.01,0-.371,1.475.01Zm-2.951-.02-1.476-.01,0-.371,1.476.01Zm-2.951-.02-1.476-.01,0-.371,1.476.01Zm-2.951-.02-1.476-.01,0-.371,1.476.01Zm-2.951-.02-1.475-.01,0-.37,1.475.01Zm-2.951-.02-1.475-.01,0-.37,1.475.01Zm-2.951-.02-1.475-.01,0-.371,1.475.01Zm-2.951-.02-1.475-.01,0-.371,1.475.01Z" transform="translate(-421.155 -1768.082)" fill="#fff"/>
        <rect id="Retângulo_2952" data-name="Retângulo 2952" width="0.371" height="0.741" transform="translate(239.973 117.251) rotate(-89.602)" fill="#fff"/>
        <rect id="Retângulo_2953" data-name="Retângulo 2953" width="0.288" height="0.742" transform="translate(18.071 110.851) rotate(-89.612)" fill="#fff"/>
        <path id="Caminho_4700" data-name="Caminho 4700" d="M541.984,1805.7l-1.476-.01,0-.288,1.476.01Zm-2.951-.02-1.476-.01,0-.288,1.476.01Zm-2.951-.02-1.475-.01,0-.288,1.476.01Zm-2.951-.02-1.476-.01,0-.288,1.476.01Zm-2.951-.02-1.475-.01,0-.288,1.475.01Zm-2.951-.02-1.476-.01,0-.288,1.476.01Zm-2.951-.02-1.476-.01,0-.288,1.476.01Zm-2.951-.02-1.475-.01,0-.288,1.475.01Zm-2.951-.02-1.476-.01,0-.288,1.476.01Zm-2.951-.02-1.475-.01,0-.288,1.475.01Zm-2.951-.02L511,1805.5l0-.288,1.476.01Zm-2.951-.02-1.476-.01,0-.288,1.476.01Zm-2.951-.02-1.475-.01,0-.288,1.475.01Zm-2.951-.02-1.476-.01,0-.288,1.476.01Zm-2.951-.02-1.475-.01,0-.288,1.475.01Zm-2.951-.02-1.476-.01,0-.288,1.475.01Zm-2.951-.02-1.476-.01,0-.288,1.476.01Zm-2.951-.02-1.475-.01,0-.288,1.475.01Zm-2.951-.02-1.476-.01,0-.288,1.476.01Zm-2.951-.02-1.475-.01,0-.288,1.475.01Zm-2.951-.02-1.476-.01,0-.288,1.476.01Zm-2.951-.02-1.476-.01,0-.288,1.476.01Zm-2.951-.02-1.475-.01,0-.288,1.475.01Zm-2.951-.02-1.475-.01,0-.288,1.476.01Zm-2.951-.02-1.475-.01,0-.288,1.475.01Zm-2.951-.02-1.476-.01,0-.288,1.476.01Zm-2.951-.02-1.476-.01,0-.288,1.476.01Zm-2.951-.02-1.475-.01,0-.288,1.475.01Zm-2.951-.02-1.475-.01,0-.288,1.476.01Zm-2.951-.02-1.475-.01,0-.288,1.475.01Zm-2.951-.02-1.476-.01,0-.288,1.476.01Zm-2.951-.02-1.475-.01,0-.288,1.476.01Zm-2.951-.02-1.475-.01,0-.288,1.475.01Zm-2.951-.02-1.476-.01,0-.288,1.476.01Zm-2.951-.02-1.475-.01,0-.288,1.475.01Zm-2.951-.02-1.476-.01,0-.288,1.476.01Zm-2.951-.02-1.476-.01,0-.288,1.476.01Zm-2.951-.02-1.475-.01,0-.288,1.475.01Zm-2.951-.02-1.476-.01,0-.288,1.476.01Zm-2.951-.02-1.475-.01,0-.288,1.475.01Zm-2.951-.02-1.475-.01,0-.288,1.476.01Zm-2.951-.02-1.475-.01,0-.288,1.475.01Zm-2.951-.02-1.476-.01,0-.288,1.476.01Zm-2.951-.02-1.476-.01,0-.288,1.476.01Zm-2.951-.02-1.476-.01,0-.288,1.476.01Zm-2.951-.02-1.476-.01,0-.288,1.476.01Zm-2.951-.02-1.476-.01,0-.288,1.475.01Zm-2.951-.02-1.476-.01,0-.288,1.476.01Zm-2.951-.02-1.476-.01,0-.288,1.476.01Zm-2.951-.02-1.476-.01,0-.288,1.476.01Zm-2.951-.02-1.476-.01,0-.288,1.476.01Zm-2.951-.02-1.475-.01,0-.288,1.476.01Zm-2.951-.02-1.475-.01,0-.288,1.475.01Zm-2.951-.02-1.476-.01,0-.288,1.475.01Zm-2.951-.02-1.475-.01,0-.288,1.475.01Zm-2.951-.02-1.475-.01,0-.288,1.475.01Zm-2.951-.02-1.476-.01,0-.288,1.476.01Zm-2.951-.02-1.476-.01,0-.288,1.476.01Zm-2.951-.02-1.476-.01,0-.288,1.476.01Zm-2.951-.02-1.476-.01,0-.288,1.476.01Zm-2.951-.02-1.475-.01,0-.288,1.475.01Zm-2.951-.02-1.475-.01,0-.288,1.475.01Zm-2.951-.02-1.475-.01,0-.288,1.476.01Zm-2.951-.02-1.475-.01,0-.288,1.476.01Zm-2.951-.02-1.475-.01,0-.288,1.475.01Zm-2.951-.02-1.476-.01,0-.288,1.476.01Zm-2.951-.02-1.476-.01,0-.288,1.476.01Zm-2.951-.02-1.476-.01,0-.288,1.476.01Zm-2.951-.02-1.475-.01,0-.288,1.475.01Zm-2.951-.02-1.475-.01,0-.288,1.475.01Zm-2.951-.02-1.476-.01,0-.288,1.475.01Zm-2.951-.02-1.475-.01,0-.288,1.475.01Z" transform="translate(-310.699 -1693.421)" fill="#fff"/>
        <rect id="Retângulo_2954" data-name="Retângulo 2954" width="0.288" height="0.741" transform="translate(232.761 112.293) rotate(-89.607)" fill="#fff"/>
        <rect id="Retângulo_2955" data-name="Retângulo 2955" width="0.206" height="0.741" transform="translate(10.858 105.893) rotate(-89.616)" fill="#fff"/>
        <path id="Caminho_4701" data-name="Caminho 4701" d="M424.314,1726.086l-1.476-.01,0-.206,1.476.01Zm-2.951-.02-1.476-.01,0-.206,1.476.01Zm-2.951-.02-1.476-.01,0-.206,1.476.01Zm-2.951-.02-1.476-.01,0-.206,1.476.01Zm-2.951-.02-1.475-.01,0-.206,1.475.01Zm-2.951-.02-1.476-.01,0-.206,1.476.01Zm-2.951-.02-1.476-.01,0-.206,1.476.01Zm-2.951-.02-1.475-.01,0-.206,1.475.01Zm-2.951-.02-1.476-.01,0-.206,1.476.01Zm-2.951-.02-1.475-.01,0-.206,1.475.01Zm-2.951-.02-1.476-.01,0-.206,1.476.01Zm-2.951-.02-1.476-.01,0-.206,1.476.01Zm-2.951-.02-1.475-.01v-.206l1.475.01Zm-2.951-.02-1.476-.01,0-.206,1.476.01Zm-2.951-.02-1.475-.01,0-.206,1.475.01Zm-2.951-.02-1.476-.01,0-.206,1.476.01Zm-2.951-.02-1.476-.01,0-.206,1.476.01Zm-2.951-.02-1.475-.01v-.206l1.475.01Zm-2.951-.02-1.476-.01,0-.206,1.476.01Zm-2.951-.02-1.475-.01,0-.206,1.475.01Zm-2.951-.02-1.476-.01,0-.206,1.476.01Zm-2.951-.02-1.476-.01,0-.206,1.476.01Zm-2.951-.02-1.476-.01,0-.206,1.475.01Zm-2.951-.02-1.475-.01v-.206l1.476.01Zm-2.951-.02-1.475-.01,0-.206,1.475.01Zm-2.951-.02-1.476-.01,0-.206,1.476.01Zm-2.951-.02-1.476-.01,0-.206,1.476.01Zm-2.951-.02-1.475-.01v-.206l1.475.01Zm-2.951-.02-1.476-.01,0-.206,1.476.01Zm-2.951-.02-1.475-.01,0-.206,1.475.01Zm-2.951-.02-1.476-.01,0-.206,1.476.01Zm-2.951-.02-1.476-.01,0-.206,1.475.01Zm-2.951-.02-1.475-.01,0-.206,1.475.01Zm-2.951-.02-1.476-.01,0-.206,1.476.01Zm-2.951-.02-1.475-.01,0-.206,1.475.01Zm-2.951-.02-1.476-.01,0-.206,1.476.01Zm-2.951-.02-1.476-.01,0-.206,1.476.01Zm-2.951-.02-1.475-.01,0-.206,1.475.01Zm-2.951-.02-1.476-.01,0-.206,1.476.01Zm-2.951-.02-1.475-.01,0-.206,1.475.01Zm-2.951-.02-1.476-.01v-.206l1.476.01Zm-2.951-.02-1.475-.01v-.206l1.475.01Zm-2.951-.02-1.475-.01v-.206l1.475.01Zm-2.951-.02-1.475-.01v-.206l1.475.01Zm-2.951-.02-1.476-.01V1725l1.475.01Zm-2.951-.02-1.475-.01v-.206l1.476.01Zm-2.951-.02-1.475-.01v-.206l1.475.01Zm-2.951-.02-1.476-.01v-.206l1.476.01Zm-2.951-.02-1.476-.01v-.206l1.476.01Zm-2.951-.02-1.476-.01v-.206l1.476.01Zm-2.951-.02-1.476-.01v-.206l1.476.01Zm-2.951-.02-1.475-.01v-.206l1.475.01Zm-2.951-.02-1.475-.01v-.206l1.475.01Zm-2.951-.02-1.475-.01v-.206l1.475.01Zm-2.951-.02-1.475-.01v-.206l1.475.01Zm-2.951-.02-1.475-.01v-.206l1.475.01Zm-2.951-.02-1.476-.01v-.206l1.476.01Zm-2.951-.02-1.476-.01v-.206l1.476.01Zm-2.951-.02-1.476-.01v-.206l1.476.01Zm-2.951-.02-1.476-.01v-.206l1.476.01Zm-2.951-.02-1.475-.01v-.206l1.475.01Zm-2.951-.02-1.475-.01v-.206l1.475.01Zm-2.951-.02-1.475-.01v-.206l1.475.01Zm-2.951-.02-1.475-.01v-.206l1.475.01Zm-2.951-.02-1.475-.01v-.206l1.475.01Zm-2.951-.02-1.476-.01v-.206l1.476.01Zm-2.951-.02-1.476-.01v-.206l1.476.01Zm-2.951-.02-1.476-.01v-.206l1.476.01Zm-2.951-.02-1.475-.01v-.206l1.475.01Zm-2.951-.02-1.475-.01v-.206l1.475.01Zm-2.951-.02-1.475-.01v-.206l1.475.01Zm-2.951-.02-1.475-.01v-.206l1.475.01Z" transform="translate(-200.242 -1618.76)" fill="#fff"/>
        <path id="Caminho_4702" data-name="Caminho 4702" d="M3680.425,1747.965l-.741-.005v-.206l.741,0Z" transform="translate(-3454.135 -1640.624)" fill="#fff"/>
        <rect id="Retângulo_2956" data-name="Retângulo 2956" width="0.123" height="0.741" transform="translate(3.646 100.935) rotate(-89.626)" fill="#fff"/>
        <path id="Caminho_4703" data-name="Caminho 4703" d="M306.645,1646.468l-1.476-.01v-.123l1.476.01Zm-2.951-.02-1.476-.01v-.124l1.476.01Zm-2.951-.02-1.476-.01v-.123l1.476.01Zm-2.951-.02-1.476-.01v-.124l1.476.01Zm-2.951-.02-1.475-.01v-.123l1.475.01Zm-2.951-.02-1.476-.01v-.123l1.476.01Zm-2.951-.02-1.476-.01v-.123l1.476.01Zm-2.951-.02-1.476-.01v-.123l1.475.01Zm-2.951-.02-1.476-.01v-.123l1.476.01Zm-2.951-.02-1.475-.01v-.124l1.475.01Zm-2.951-.02-1.476-.01v-.123l1.476.01Zm-2.951-.02-1.476-.01v-.124l1.475.01Zm-2.951-.02-1.475-.01v-.123l1.475.01Zm-2.951-.02-1.476-.01v-.124l1.476.01Zm-2.951-.02-1.475-.01v-.123l1.475.01Zm-2.951-.02-1.476-.01v-.123l1.476.01Zm-2.951-.02-1.476-.01v-.124l1.476.01Zm-2.951-.02-1.475-.01V1646l1.476.01Zm-2.951-.02-1.476-.01v-.123l1.476.01Zm-2.951-.02-1.475-.01v-.123l1.475.01Zm-2.951-.02-1.476-.01v-.123l1.476.01Zm-2.951-.02-1.476-.01v-.124l1.476.01Zm-2.951-.02-1.476-.01v-.123l1.475.01Zm-2.951-.02L237.3,1646v-.124l1.476.01Zm-2.951-.02-1.475-.01v-.124l1.475.01Zm-2.951-.02-1.476-.01v-.123l1.476.01Zm-2.951-.02-1.476-.01v-.124l1.476.01Zm-2.951-.02-1.475-.01v-.123l1.476.01Zm-2.951-.02-1.476-.01v-.123l1.476.01Zm-2.951-.02-1.475-.01v-.124l1.475.01Zm-2.951-.02-1.476-.01v-.123l1.476.01Zm-2.951-.02-1.476-.01v-.124l1.475.01Zm-2.951-.02-1.475-.01v-.123l1.475.01Zm-2.951-.02-1.476-.01v-.124l1.476.01Zm-2.951-.02-1.475-.01v-.123l1.475.01Zm-2.951-.02-1.476-.01v-.123l1.476.01Zm-2.951-.02-1.476-.01v-.123l1.476.01Zm-2.951-.02-1.475-.01v-.124l1.475.01Zm-2.951-.02-1.476-.01v-.123l1.476.01Zm-2.951-.02-1.475-.01v-.124l1.475.01Zm-2.951-.02-1.476-.01v-.123l1.476.01Zm-2.951-.02-1.476-.01v-.124l1.475.01Zm-2.951-.02-1.475-.01v-.123l1.475.01Zm-2.951-.02-1.476-.01v-.124l1.475.01Zm-2.951-.02-1.475-.01v-.123l1.475.01Zm-2.951-.02-1.475-.01v-.123l1.475.01Zm-2.951-.02-1.475-.01v-.123l1.475.01Zm-2.951-.02-1.476-.01v-.124l1.476.01Zm-2.951-.02-1.476-.01v-.123l1.476.01Zm-2.951-.02-1.476-.01v-.124l1.476.01Zm-2.951-.02-1.476-.01v-.123l1.476.01Zm-2.951-.02-1.475-.01v-.124l1.476.01Zm-2.951-.02-1.475-.01v-.123l1.475.01Zm-2.951-.02-1.475-.01v-.123l1.475.01Zm-2.951-.02-1.475-.01v-.124l1.475.01Zm-2.951-.02-1.475-.01v-.123l1.475.01Zm-2.951-.02-1.476-.01v-.123l1.476.01Zm-2.951-.02-1.476-.01v-.123l1.476.01Zm-2.951-.02-1.476-.01v-.123l1.476.01Zm-2.951-.02-1.476-.01v-.124l1.476.01Zm-2.951-.02-1.475-.01v-.123l1.475.01Zm-2.951-.02-1.475-.01v-.124l1.475.01Zm-2.951-.02-1.475-.01v-.124l1.475.01Zm-2.951-.02-1.475-.01v-.124l1.475.01Zm-2.951-.02-1.475-.01v-.124l1.475.01Zm-2.951-.02-1.476-.01v-.123l1.476.01Zm-2.951-.02-1.476-.01v-.123l1.476.01Zm-2.951-.02-1.476-.01v-.123l1.476.01Zm-2.951-.02-1.475-.01v-.123l1.475.01Zm-2.951-.02-1.475-.01v-.124l1.475.01Zm-2.951-.02-1.476-.01v-.123l1.476.01Zm-2.951-.02-1.475-.01v-.124l1.475.01Z" transform="translate(-89.785 -1544.1)" fill="#fff"/>
        <path id="Caminho_4704" data-name="Caminho 4704" d="M3562.755,1668.346l-.741-.005v-.124l.741.005Z" transform="translate(-3343.678 -1565.963)" fill="#fff"/>
        <path id="Caminho_4705" data-name="Caminho 4705" d="M1594.346,792.169a11.316,11.316,0,0,1,1.41,4.239c.34,1.881.037,2.176-.116,2.257a.859.859,0,0,1-.718-.106c-2.177-1.058-3.274-1.59-4.424-3.028a9.641,9.641,0,0,1-1.748-3.358,11.92,11.92,0,0,1-.316-4.286,2.361,2.361,0,0,1,.012.267,13.654,13.654,0,0,0,2.108.85c.542.168.916.265,1.023.295,1.265.35,2.395,2.244,2.768,2.869" transform="translate(-1491.006 -739.593)" fill="#b3dee5"/>
        <path id="Caminho_4706" data-name="Caminho 4706" d="M1590.67,793.874l.869,1.239.867,1.244,1.733,2.5,1.73,2.513.864,1.262.862,1.267-.879-1.252-.874-1.254-1.738-2.506-1.725-2.506-.858-1.253Z" transform="translate(-1493.169 -745.213)" fill="#b3dee5"/>
        <path id="Caminho_4707" data-name="Caminho 4707" d="M1591.532,795.12l.867,1.245,1.736,2.5,1.744,2.5,1.757,2.505-.082.054-1.721-2.529-1.724-2.516-1.722-2.507-.858-1.251c-.284-.411-.566-.83-.86-1.247.286.422.578.835.862,1.246m.9,1.226,1.745,2.492,1.736,2.509,1.729,2.525-.082.054-1.75-2.511-1.733-2.511-1.713-2.513-1.689-2.517Z" transform="translate(-1493.169 -745.213)" fill="#b3dee5"/>
        <path id="Caminho_4708" data-name="Caminho 4708" d="M1634.115,908.141q.276.019.553.049c.185.019.369.041.554.064s.37.049.555.076.371.058.557.092q-.276-.019-.553-.049c-.185-.019-.369-.041-.554-.064s-.37-.049-.555-.076-.37-.058-.556-.092" transform="translate(-1533.951 -852.476)" fill="#b3dee5"/>
        <path id="Caminho_4709" data-name="Caminho 4709" d="M1650,932.016q.276.019.553.049c.185.019.37.041.555.064s.37.049.556.077.371.058.557.092q-.276-.019-.554-.049c-.185-.019-.37-.041-.555-.064s-.37-.049-.556-.077-.371-.058-.557-.092" transform="translate(-1548.863 -874.887)" fill="#b3dee5"/>
        <path id="Caminho_4710" data-name="Caminho 4710" d="M1616.516,881.491q.276.019.552.048c.184.019.369.041.553.064s.37.048.554.076.37.057.556.092q-.276-.019-.552-.048c-.184-.019-.369-.041-.554-.064s-.369-.048-.554-.076-.37-.057-.555-.092" transform="translate(-1517.431 -827.459)" fill="#b3dee5"/>
        <path id="Caminho_4711" data-name="Caminho 4711" d="M1665.8,852.267q-.035.318-.079.632c-.028.21-.06.418-.092.627s-.066.416-.1.623-.074.413-.115.617q.036-.319.079-.633c.029-.21.06-.419.092-.627s.066-.416.1-.622.074-.412.115-.616" transform="translate(-1563.326 -800.027)" fill="#b3dee5"/>
        <path id="Caminho_4712" data-name="Caminho 4712" d="M1680.563,874.922q-.035.318-.079.633c-.029.21-.06.419-.092.628s-.066.417-.1.624-.074.413-.115.618q.035-.319.079-.634c.029-.21.06-.419.092-.628s.066-.416.1-.623.073-.413.115-.617" transform="translate(-1577.189 -821.293)" fill="#b3dee5"/>
        <path id="Caminho_4713" data-name="Caminho 4713" d="M1693.427,896.339q-.035.319-.079.634c-.029.21-.06.419-.091.629s-.066.417-.1.624-.073.414-.115.619q.035-.32.079-.635c.029-.211.06-.42.092-.629s.066-.417.1-.624.073-.413.114-.618" transform="translate(-1589.264 -841.397)" fill="#b3dee5"/>
        <path id="Caminho_4714" data-name="Caminho 4714" d="M1600.943,856.833q.277.032.554.074c.185.027.37.058.555.089s.37.065.555.1.37.075.556.117q-.277-.032-.554-.074c-.185-.027-.37-.058-.555-.089s-.37-.065-.555-.1-.37-.074-.556-.117" transform="translate(-1502.812 -804.313)" fill="#b3dee5"/>
        <path id="Caminho_4715" data-name="Caminho 4715" d="M1599.2,837.088q.165.02.331.046c.11.017.221.036.331.055s.221.04.331.063.221.046.332.072q-.165-.02-.331-.046c-.11-.017-.221-.036-.331-.055s-.221-.041-.331-.063-.221-.046-.332-.072" transform="translate(-1501.175 -785.778)" fill="#b3dee5"/>
        <path id="Caminho_4716" data-name="Caminho 4716" d="M1595.806,822.533q.124.015.247.035c.083.013.165.027.248.042s.165.031.248.048.165.035.248.055c-.083-.01-.165-.022-.247-.035s-.165-.027-.248-.042l-.248-.048q-.124-.025-.248-.055" transform="translate(-1497.99 -772.115)" fill="#b3dee5"/>
        <path id="Caminho_4717" data-name="Caminho 4717" d="M1622.45,808.1q0-.255.009-.508c.005-.169.013-.336.021-.5s.019-.334.032-.5.027-.332.044-.5q0,.255-.009.507c-.005.168-.013.336-.021.5s-.019.334-.032.5-.027.332-.044.5" transform="translate(-1523.001 -756.683)" fill="#b3dee5"/>
        <path id="Caminho_4718" data-name="Caminho 4718" d="M1638.838,824.206q0-.256.008-.509c.005-.169.013-.337.021-.5s.019-.335.031-.5.027-.332.044-.5q0,.255-.008.508c-.005.169-.013.336-.021.5s-.019.335-.031.5-.027.332-.044.5" transform="translate(-1538.385 -771.799)" fill="#b3dee5"/>
        <path id="Caminho_4719" data-name="Caminho 4719" d="M1652.738,831.761q.008-.337.028-.67c.012-.222.029-.443.046-.664s.037-.441.06-.66.048-.437.078-.654q-.007.336-.027.668c-.013.222-.029.443-.046.664s-.037.441-.06.66-.048.438-.078.656" transform="translate(-1551.432 -778.292)" fill="#b3dee5"/>
        <path id="Caminho_4720" data-name="Caminho 4720" d="M1545.491,991.384c2.909.46,5.318,1.768,5.376,2.923s-2.261,1.717-5.176,1.254a11.367,11.367,0,0,1-5.363-2.926,7.381,7.381,0,0,1,5.163-1.251" transform="translate(-1445.913 -930.543)" fill="#b3dee5"/>
        <path id="Caminho_4721" data-name="Caminho 4721" d="M1541.893,1013.345l1.258.184,1.259.188,2.52.383,2.523.393,1.263.2,1.264.2-1.263-.185-1.262-.189-2.523-.384-2.521-.392-1.259-.2Z" transform="translate(-1447.382 -951.232)" fill="#b3dee5"/>
        <path id="Caminho_4722" data-name="Caminho 4722" d="M1543.151,1013.539l1.26.189,2.521.38,2.524.378,2.528.37-.008.086-2.524-.407-2.522-.4-2.52-.4-1.259-.2c-.415-.064-.834-.133-1.258-.195.424.069.844.129,1.259.193m1.262.159,2.522.371,2.524.386,2.525.4-.008.086-2.527-.378-2.523-.39-2.519-.4-2.514-.423Z" transform="translate(-1447.382 -951.232)" fill="#b3dee5"/>
        <path id="Caminho_4723" data-name="Caminho 4723" d="M1638.382,1034.634q.157-.167.321-.329c.109-.108.22-.214.332-.32s.225-.21.34-.314.231-.205.351-.3q-.157.167-.321.329c-.109.108-.22.214-.332.32s-.225.21-.34.314-.232.205-.351.305" transform="translate(-1537.956 -970.025)" fill="#b3dee5"/>
        <path id="Caminho_4724" data-name="Caminho 4724" d="M1662.069,1038.7q.157-.167.321-.329c.109-.108.22-.214.332-.321s.225-.21.34-.314.231-.205.351-.3q-.157.167-.321.329c-.109.108-.22.214-.332.32s-.225.21-.34.314-.231.205-.351.305" transform="translate(-1560.191 -973.843)" fill="#b3dee5"/>
        <path id="Caminho_4725" data-name="Caminho 4725" d="M1611.983,1030.005q.157-.167.321-.329c.109-.108.22-.214.332-.32s.225-.21.34-.313.231-.205.351-.3q-.157.167-.321.329c-.109.108-.22.214-.332.32s-.225.21-.34.313-.232.205-.351.3" transform="translate(-1513.176 -965.681)" fill="#b3dee5"/>
        <path id="Caminho_4726" data-name="Caminho 4726" d="M1622.2,996.057q.186.214.365.432c.12.145.238.291.355.437s.233.293.347.441.227.3.337.446q-.187-.215-.365-.432c-.12-.145-.238-.291-.355-.437s-.233-.293-.346-.441-.226-.3-.336-.445" transform="translate(-1522.765 -935.003)" fill="#b3dee5"/>
        <path id="Caminho_4727" data-name="Caminho 4727" d="M1644.5,1000.156q.186.214.365.432c.12.145.238.291.355.437s.233.293.347.441.227.3.337.446q-.187-.215-.366-.433c-.12-.145-.238-.291-.355-.437s-.233-.293-.347-.441-.227-.3-.336-.445" transform="translate(-1543.701 -938.851)" fill="#b3dee5"/>
        <path id="Caminho_4728" data-name="Caminho 4728" d="M1665,1004.734q.187.214.366.432c.12.145.238.291.356.437s.233.293.348.441.227.3.337.446q-.187-.215-.366-.433c-.12-.145-.238-.291-.356-.437s-.233-.293-.347-.441-.227-.3-.337-.445" transform="translate(-1562.94 -943.148)" fill="#b3dee5"/>
        <path id="Caminho_4729" data-name="Caminho 4729" d="M1587.9,1026.14q.166-.16.339-.315c.115-.1.232-.2.349-.306s.237-.2.358-.3.243-.2.368-.29q-.166.16-.339.314c-.115.1-.232.2-.349.306s-.237.2-.358.3-.243.2-.368.29" transform="translate(-1490.571 -962.107)" fill="#b3dee5"/>
        <path id="Caminho_4730" data-name="Caminho 4730" d="M1574.258,1022.909q.1-.1.2-.187c.069-.061.14-.121.21-.181s.143-.119.215-.177.146-.115.222-.172q-.1.1-.2.186c-.069.061-.139.121-.21.181s-.142.119-.215.177-.146.116-.221.172" transform="translate(-1477.763 -959.537)" fill="#b3dee5"/>
        <path id="Caminho_4731" data-name="Caminho 4731" d="M1563.085,1019.126q.075-.071.153-.139c.052-.046.1-.09.158-.135s.107-.089.162-.132.11-.086.166-.128c-.05.047-.1.094-.153.139s-.1.09-.158.135-.107.089-.162.132-.11.086-.166.128" transform="translate(-1467.275 -956.157)" fill="#b3dee5"/>
        <path id="Caminho_4732" data-name="Caminho 4732" d="M1568.693,1000.283q-.165-.154-.323-.312c-.106-.1-.21-.211-.313-.318s-.205-.214-.306-.322-.2-.217-.3-.328q.164.154.322.311c.106.1.21.211.313.318s.205.214.306.322.2.217.3.328" transform="translate(-1471.377 -937.769)" fill="#b3dee5"/>
        <path id="Caminho_4733" data-name="Caminho 4733" d="M1587.692,999.391q-.165-.154-.323-.312c-.106-.105-.21-.211-.313-.318s-.205-.214-.306-.322-.2-.217-.3-.328q.164.154.323.311t.313.318c.1.107.205.214.306.322s.2.217.3.328" transform="translate(-1489.211 -936.932)" fill="#b3dee5"/>
        <path id="Caminho_4734" data-name="Caminho 4734" d="M1600.723,993.9q-.212-.208-.416-.421c-.136-.142-.27-.285-.4-.429s-.264-.289-.393-.436-.256-.294-.38-.445q.212.207.415.42c.136.142.27.285.4.429s.264.29.393.436.257.295.381.445" transform="translate(-1501.111 -931.352)" fill="#b3dee5"/>
        <path id="Caminho_4735" data-name="Caminho 4735" d="M1570.878,1080.085c3.369-.3,6.42.514,6.813,1.823s-2.026,2.621-5.4,2.922-6.807-1.83-6.807-1.83a8.379,8.379,0,0,1,5.4-2.915" transform="translate(-1469.523 -1013.821)" fill="#b3dee5"/>
        <path id="Caminho_4736" data-name="Caminho 4736" d="M1567.326,1111.712l1.454-.148,1.456-.144,2.916-.28,2.921-.27,1.462-.131,1.464-.127-1.457.149-1.458.144-2.918.28-2.919.27-1.46.131Z" transform="translate(-1471.256 -1042.537)" fill="#b3dee5"/>
        <path id="Caminho_4737" data-name="Caminho 4737" d="M1568.782,1110.8l1.457-.143,2.916-.284,2.917-.287,2.918-.3.015.1-2.924.253-2.921.263-2.919.266-1.459.131c-.481.045-.967.085-1.458.136.492-.042.977-.093,1.458-.139m1.452-.178,2.915-.294,2.919-.277,2.923-.262.016.1-2.919.288-2.92.273-2.921.256-2.922.232Z" transform="translate(-1471.255 -1041.766)" fill="#b3dee5"/>
        <path id="Caminho_4738" data-name="Caminho 4738" d="M1686.393,1119.553q.127-.238.264-.47c.091-.156.184-.31.278-.463s.191-.306.29-.458.2-.3.3-.451q-.127.237-.264.47c-.091.155-.184.309-.278.463s-.191.306-.29.458-.2.3-.3.452" transform="translate(-1583.024 -1049.2)" fill="#b3dee5"/>
        <path id="Caminho_4739" data-name="Caminho 4739" d="M1713.921,1117.456q.127-.238.264-.47c.09-.156.184-.31.278-.463s.191-.306.289-.458.2-.3.3-.451q-.127.237-.264.47c-.091.155-.184.309-.278.463s-.191.306-.29.458-.2.3-.3.452" transform="translate(-1608.865 -1047.231)" fill="#b3dee5"/>
        <path id="Caminho_4740" data-name="Caminho 4740" d="M1655.672,1121.778q.127-.237.265-.47c.091-.156.184-.31.279-.463s.191-.306.29-.458.2-.3.3-.451q-.127.237-.264.47c-.091.156-.184.309-.279.463s-.191.306-.29.458-.2.3-.3.451" transform="translate(-1554.187 -1051.289)" fill="#b3dee5"/>
        <path id="Caminho_4741" data-name="Caminho 4741" d="M1651.891,1085.714q.268.193.529.392t.519.4c.171.135.342.27.511.407s.337.276.5.416q-.269-.194-.53-.393c-.175-.132-.347-.267-.52-.4s-.342-.27-.511-.407-.336-.275-.5-.416" transform="translate(-1550.637 -1019.164)" fill="#b3dee5"/>
        <path id="Caminho_4742" data-name="Caminho 4742" d="M1677.886,1084.055q.268.193.53.392c.175.132.347.266.519.4s.343.271.512.408.337.276.5.416q-.269-.194-.53-.393c-.175-.132-.348-.266-.52-.4s-.343-.27-.511-.407-.336-.275-.5-.416" transform="translate(-1575.039 -1017.607)" fill="#b3dee5"/>
        <path id="Caminho_4743" data-name="Caminho 4743" d="M1702,1083.464q.268.193.53.392c.175.132.348.266.52.4s.343.27.512.408.337.276.5.416q-.269-.193-.531-.393c-.175-.132-.348-.266-.52-.4s-.343-.271-.512-.407-.337-.275-.5-.416" transform="translate(-1597.671 -1017.052)" fill="#b3dee5"/>
        <path id="Caminho_4744" data-name="Caminho 4744" d="M1627.493,1123.915q.14-.232.289-.459c.1-.152.2-.3.3-.452s.207-.3.314-.446.215-.294.327-.438q-.139.232-.288.458c-.1.152-.2.3-.3.452s-.207.3-.314.446-.215.294-.328.439" transform="translate(-1527.735 -1053.339)" fill="#b3dee5"/>
        <path id="Caminho_4745" data-name="Caminho 4745" d="M1609.229,1126.571q.084-.138.174-.273c.06-.09.121-.18.183-.269s.125-.177.19-.265.13-.175.2-.261q-.084.138-.174.273c-.06.09-.121.179-.183.269s-.125.177-.19.265-.13.175-.2.261" transform="translate(-1510.59 -1056.515)" fill="#b3dee5"/>
        <path id="Caminho_4746" data-name="Caminho 4746" d="M1594.911,1126.342q.063-.1.131-.2c.045-.067.091-.134.138-.2s.094-.133.143-.2.1-.131.149-.195q-.063.1-.131.2c-.045.067-.091.134-.137.2s-.094.132-.142.2-.1.131-.149.195" transform="translate(-1497.15 -1056.554)" fill="#b3dee5"/>
        <path id="Caminho_4747" data-name="Caminho 4747" d="M1593.49,1105.864q-.227-.13-.448-.266c-.148-.09-.294-.183-.439-.276s-.29-.187-.432-.283-.284-.193-.423-.292q.227.13.448.266c.148.09.293.183.439.276s.29.187.432.283.284.193.424.293" transform="translate(-1494.181 -1037.031)" fill="#b3dee5"/>
        <path id="Caminho_4748" data-name="Caminho 4748" d="M1614.408,1099.408q-.227-.13-.448-.266c-.148-.09-.294-.183-.44-.276s-.29-.187-.432-.283-.284-.193-.423-.292q.227.13.448.266c.148.09.293.183.439.276s.29.187.432.283.285.193.424.292" transform="translate(-1513.816 -1030.971)" fill="#b3dee5"/>
        <path id="Caminho_4749" data-name="Caminho 4749" d="M1627.363,1089.369q-.3-.178-.583-.365c-.192-.124-.382-.251-.571-.379s-.376-.257-.562-.389-.369-.265-.549-.4q.295.178.582.365c.192.124.382.251.571.378s.376.257.562.389.37.265.551.4" transform="translate(-1525.487 -1021.154)" fill="#b3dee5"/>
        <path id="Caminho_4750" data-name="Caminho 4750" d="M1745.889,883.489c-.884,1.95-2.274,3.307-3.1,3.027s-.78-2.087.106-4.035a7.262,7.262,0,0,1,3.1-3.017,5.808,5.808,0,0,1-.1,4.024" transform="translate(-1635.406 -825.558)" fill="#b3dee5"/>
        <path id="Caminho_4751" data-name="Caminho 4751" d="M1757.119,880.483l-.371.845-.374.845-.754,1.69-.762,1.691-.384.846-.387.845.373-.85.375-.848.755-1.693.76-1.688.382-.842Z" transform="translate(-1646.57 -826.513)" fill="#b3dee5"/>
        <path id="Caminho_4752" data-name="Caminho 4752" d="M1756.289,881.326l-.375.845-.752,1.692-.751,1.7-.747,1.7-.059-.029.772-1.688.766-1.688.762-1.687.382-.842c.125-.278.254-.557.379-.843-.13.283-.253.566-.377.844m-.354.855-.746,1.7-.757,1.693-.767,1.69-.059-.029.752-1.7.76-1.691.769-1.683.781-1.675Z" transform="translate(-1646.117 -826.513)" fill="#b3dee5"/>
        <path id="Caminho_4753" data-name="Caminho 4753" d="M1756.26,938.028q.088.158.171.319t.163.325c.053.109.106.218.156.329s.1.222.149.334q-.088-.158-.171-.32c-.056-.107-.109-.216-.163-.325s-.106-.218-.157-.329-.1-.221-.148-.334" transform="translate(-1648.609 -880.531)" fill="#b3dee5"/>
        <path id="Caminho_4754" data-name="Caminho 4754" d="M1748.845,953.772q.088.158.171.32c.056.107.109.216.163.325s.106.219.157.329.1.222.148.335q-.088-.158-.171-.32c-.056-.108-.109-.216-.163-.325s-.105-.219-.156-.329-.1-.222-.148-.334" transform="translate(-1641.649 -895.31)" fill="#b3dee5"/>
        <path id="Caminho_4755" data-name="Caminho 4755" d="M1764.594,920.511q.088.158.171.319c.056.107.109.216.163.324s.106.218.157.329.1.221.149.334q-.088-.158-.171-.319c-.055-.107-.109-.216-.163-.324s-.106-.218-.156-.328-.1-.221-.149-.333" transform="translate(-1656.432 -864.088)" fill="#b3dee5"/>
        <path id="Caminho_4756" data-name="Caminho 4756" d="M1777.264,942.469q-.188.074-.377.141c-.125.046-.252.089-.378.133s-.252.085-.379.126-.253.08-.38.117q.188-.074.376-.141c.126-.046.252-.089.378-.133s.252-.085.379-.126.253-.08.38-.117" transform="translate(-1666.904 -884.7)" fill="#b3dee5"/>
        <path id="Caminho_4757" data-name="Caminho 4757" d="M1770.071,957.258q-.188.074-.377.141c-.126.046-.252.089-.378.133s-.253.085-.379.126-.253.08-.38.117q.188-.074.376-.141c.126-.046.252-.089.378-.133s.253-.085.379-.126.253-.08.38-.117" transform="translate(-1660.153 -898.582)" fill="#b3dee5"/>
        <path id="Caminho_4758" data-name="Caminho 4758" d="M1762.885,970.624q-.188.074-.377.141c-.126.045-.252.089-.378.133s-.252.085-.379.126-.254.08-.381.117q.188-.074.377-.141c.126-.046.252-.089.378-.133s.253-.085.379-.126.253-.08.381-.117" transform="translate(-1653.406 -911.129)" fill="#b3dee5"/>
        <path id="Caminho_4759" data-name="Caminho 4759" d="M1772.567,904.678q.082.162.158.328c.051.11.1.221.149.333s.1.224.143.337.092.227.135.342q-.082-.162-.158-.328c-.051-.11-.1-.221-.15-.333s-.1-.224-.143-.337-.092-.226-.135-.341" transform="translate(-1663.917 -849.225)" fill="#b3dee5"/>
        <path id="Caminho_4760" data-name="Caminho 4760" d="M1782.8,897.915q.048.1.093.2c.03.066.059.132.088.2s.057.134.084.2.054.136.079.2q-.048-.1-.093-.2c-.03-.066-.059-.133-.088-.2s-.057-.134-.084-.2-.054-.136-.079-.2" transform="translate(-1673.521 -842.877)" fill="#b3dee5"/>
        <path id="Caminho_4761" data-name="Caminho 4761" d="M1789.593,891.759q.036.073.069.147c.022.049.044.1.066.149s.042.1.063.151.04.1.059.153q-.036-.073-.069-.147c-.022-.049-.044-.1-.066-.149s-.042-.1-.063-.151-.04-.1-.059-.153" transform="translate(-1679.899 -837.098)" fill="#b3dee5"/>
        <path id="Caminho_4762" data-name="Caminho 4762" d="M1790.158,903.143q.141-.075.283-.144c.095-.047.19-.092.285-.136s.191-.088.287-.13.193-.083.29-.121q-.141.075-.283.144c-.095.047-.19.092-.285.136s-.191.088-.287.13-.192.083-.289.121" transform="translate(-1680.429 -847.286)" fill="#b3dee5"/>
        <path id="Caminho_4763" data-name="Caminho 4763" d="M1787.148,916.933q.141-.075.283-.145c.095-.047.19-.092.285-.136s.191-.088.287-.13.193-.083.29-.121q-.141.075-.283.145c-.095.047-.19.092-.285.136s-.191.088-.287.13-.193.083-.29.121" transform="translate(-1677.604 -860.23)" fill="#b3dee5"/>
        <path id="Caminho_4764" data-name="Caminho 4764" d="M1782.6,927.738q.188-.094.378-.181c.127-.058.254-.114.382-.169s.256-.109.385-.16.258-.1.389-.149q-.188.094-.378.181c-.127.058-.254.114-.382.169s-.256.109-.385.16-.258.1-.389.149" transform="translate(-1673.339 -870.253)" fill="#b3dee5"/>
        <path id="Caminho_4765" data-name="Caminho 4765" d="M1784.427,943.083c-1.836,2.767-4.32,4.5-5.542,3.876s-.717-3.379,1.121-6.139a11.344,11.344,0,0,1,5.525-3.858,8.817,8.817,0,0,1-1.1,6.121" transform="translate(-1669.222 -879.53)" fill="#b3dee5"/>
        <path id="Caminho_4766" data-name="Caminho 4766" d="M1799.784,938.384l-.776,1.2-.781,1.2-1.571,2.4-1.584,2.4-.8,1.2-.8,1.2.781-1.209.785-1.205,1.574-2.4,1.581-2.394.793-1.194Z" transform="translate(-1683.542 -880.866)" fill="#b3dee5"/>
        <path id="Caminho_4767" data-name="Caminho 4767" d="M1798.347,939.58l-.782,1.2-1.569,2.4-1.569,2.408-1.563,2.419-.085-.059,1.6-2.392,1.59-2.394,1.583-2.392.792-1.193c.259-.394.526-.789.787-1.195-.269.4-.526.8-.785,1.2m-.752,1.22-1.56,2.408-1.578,2.4-1.593,2.4-.085-.059,1.571-2.414,1.581-2.4,1.593-2.385,1.609-2.367Z" transform="translate(-1682.89 -880.865)" fill="#b3dee5"/>
        <path id="Caminho_4768" data-name="Caminho 4768" d="M1809.352,1014.82q.1.262.19.529c.061.177.119.356.176.535s.113.359.166.54.1.363.152.547q-.1-.263-.19-.53c-.061-.178-.119-.357-.177-.536s-.112-.359-.165-.54-.1-.363-.151-.546" transform="translate(-1698.447 -952.616)" fill="#b3dee5"/>
        <path id="Caminho_4769" data-name="Caminho 4769" d="M1794.1,1037.072q.1.263.19.53c.061.178.119.357.176.536s.112.36.165.541.1.364.152.547q-.1-.263-.19-.531c-.061-.178-.119-.357-.176-.536s-.112-.36-.165-.541-.1-.363-.151-.547" transform="translate(-1684.13 -973.504)" fill="#b3dee5"/>
        <path id="Caminho_4770" data-name="Caminho 4770" d="M1826.447,990.087q.1.262.19.528c.061.177.119.356.177.535s.113.359.166.54.1.362.152.546q-.1-.262-.191-.529c-.061-.177-.119-.356-.177-.535s-.113-.359-.166-.539-.1-.362-.152-.545" transform="translate(-1714.494 -929.399)" fill="#b3dee5"/>
        <path id="Caminho_4771" data-name="Caminho 4771" d="M1839.08,1032.286q-.309.067-.619.125c-.206.039-.413.076-.619.111s-.413.069-.619.1-.412.061-.619.087q.31-.067.619-.125c.206-.039.413-.075.619-.111s.413-.069.619-.1.413-.061.619-.087" transform="translate(-1724.028 -969.011)" fill="#b3dee5"/>
        <path id="Caminho_4772" data-name="Caminho 4772" d="M1824.4,1053.15q-.31.067-.619.125c-.206.039-.413.075-.619.111s-.413.069-.619.1-.413.061-.619.087q.309-.067.619-.125c.206-.039.413-.075.619-.111s.413-.069.619-.1.413-.061.62-.087" transform="translate(-1710.243 -988.596)" fill="#b3dee5"/>
        <path id="Caminho_4773" data-name="Caminho 4773" d="M1810.057,1071.843q-.31.067-.619.125c-.207.039-.413.075-.62.111s-.413.069-.62.1-.413.061-.62.087q.31-.067.619-.125c.206-.039.413-.075.619-.111s.413-.069.62-.1.413-.061.62-.087" transform="translate(-1696.782 -1006.144)" fill="#b3dee5"/>
        <path id="Caminho_4774" data-name="Caminho 4774" d="M1842.578,967.845q.088.267.167.538c.053.18.1.362.154.544s.1.365.143.548.089.368.129.554q-.089-.268-.168-.539c-.053-.181-.1-.362-.154-.544s-.1-.365-.143-.548-.089-.368-.129-.553" transform="translate(-1729.636 -908.52)" fill="#b3dee5"/>
        <path id="Caminho_4775" data-name="Caminho 4775" d="M1860.077,959.99q.052.16.1.322c.031.108.061.216.09.325s.057.218.083.328.052.22.075.332q-.052-.16-.1-.322c-.031-.108-.061-.217-.09-.325s-.057-.218-.083-.328-.052-.22-.075-.331" transform="translate(-1746.062 -901.147)" fill="#b3dee5"/>
        <path id="Caminho_4776" data-name="Caminho 4776" d="M1872.088,952.234q.039.12.073.241c.023.081.045.162.067.243s.042.163.062.246.038.165.055.248q-.039-.12-.073-.241c-.023-.081-.045-.162-.067-.244s-.042-.163-.062-.246-.038-.165-.055-.248" transform="translate(-1757.337 -893.866)" fill="#b3dee5"/>
        <path id="Caminho_4777" data-name="Caminho 4777" d="M1868.362,973.966q.236-.081.474-.152c.158-.048.317-.094.476-.139s.318-.088.477-.129.319-.08.479-.115q-.236.081-.474.152c-.158.048-.317.094-.475.139s-.318.088-.477.129-.319.08-.479.115" transform="translate(-1753.84 -913.764)" fill="#b3dee5"/>
        <path id="Caminho_4778" data-name="Caminho 4778" d="M1860.427,994.3q.237-.081.474-.152c.158-.048.317-.094.476-.139s.318-.088.477-.129.319-.08.479-.115q-.236.081-.474.153c-.158.048-.317.094-.476.139s-.318.088-.477.129-.319.08-.479.115" transform="translate(-1746.391 -932.85)" fill="#b3dee5"/>
        <path id="Caminho_4779" data-name="Caminho 4779" d="M1850.35,1011.141q.314-.1.631-.185c.211-.058.422-.113.634-.166s.424-.1.636-.152.426-.093.64-.133q-.315.1-.631.185c-.211.058-.422.113-.634.166s-.424.1-.636.152-.426.093-.639.134" transform="translate(-1736.932 -948.565)" fill="#b3dee5"/>
        <path id="Caminho_4780" data-name="Caminho 4780" d="M1699.512,953.538a29.544,29.544,0,0,1,6.177,20.535c-.034.4.59.4.623,0a30.176,30.176,0,0,0-6.36-20.975c-.246-.316-.684.128-.441.441" transform="translate(-1595.273 -894.575)" fill="#b3dee5"/>
        <path id="Caminho_4781" data-name="Caminho 4781" d="M1755.14,1127.152a3.249,3.249,0,0,0-2.483-1.451Z" transform="translate(-1645.227 -1056.701)" fill="#b3dee5"/>
        <path id="Caminho_4782" data-name="Caminho 4782" d="M1710.8,1040.593a3.653,3.653,0,0,0-3.291-.818Z" transform="translate(-1602.844 -975.938)" fill="#b3dee5"/>
        <path id="Caminho_4783" data-name="Caminho 4783" d="M1745.319,987.765a2,2,0,0,0-.446,1.995Z" transform="translate(-1637.829 -927.219)" fill="#b3dee5"/>
        <path id="Caminho_4784" data-name="Caminho 4784" d="M1784.075,1087.092a2.444,2.444,0,0,0-.271,1.5Z" transform="translate(-1674.444 -1020.458)" fill="#b3dee5"/>
        <path id="Caminho_4785" data-name="Caminho 4785" d="M589,1184.9a11.6,11.6,0,0,0-5.094-3.826c-1.847-.772-3.166-.563-5.88-1.679a21.079,21.079,0,0,1-2.679-1.331,21.237,21.237,0,0,0,.371,5.6,16.716,16.716,0,0,0,2.516,6.457,10.649,10.649,0,0,0,4.674,4.26c.478.2,4.659,1.913,6.856-.089,2.243-2.045,1.091-6.754-.764-9.388" transform="translate(-540.034 -1105.853)" fill="#0f8c91"/>
        <path id="Caminho_4786" data-name="Caminho 4786" d="M605.533,1222.366c-3.264-5.516-10.673-7.273-13.013-13.469-.024-.064-.128-.036-.1.029,2.347,6.214,9.757,7.973,13.024,13.495a.054.054,0,0,0,.093-.054" transform="translate(-556.1 -1134.763)" fill="#fff"/>
        <path id="Caminho_4787" data-name="Caminho 4787" d="M771.964,1289.9a10.717,10.717,0,0,1-.322-7.052.054.054,0,0,0-.1-.029,10.805,10.805,0,0,0,.322,7.11c.025.064.129.036.1-.029" transform="translate(-723.822 -1204.149)" fill="#fff"/>
        <path id="Caminho_4788" data-name="Caminho 4788" d="M686.92,1394.135a8.522,8.522,0,0,0-6.276.985.054.054,0,0,0,.054.093,8.406,8.406,0,0,1,6.193-.974c.068.015.1-.089.029-.1" transform="translate(-638.899 -1308.479)" fill="#fff"/>
        <path id="Caminho_4789" data-name="Caminho 4789" d="M641.276,1344.7a6.871,6.871,0,0,0-5.526,1.475c-.054.044.023.12.076.076a6.755,6.755,0,0,1,5.421-1.447c.068.011.1-.093.029-.1" transform="translate(-596.764 -1262.19)" fill="#fff"/>
        <path id="Caminho_4790" data-name="Caminho 4790" d="M604.458,1303.726a4.43,4.43,0,0,0-4.673.64c-.054.044.023.12.076.076a4.322,4.322,0,0,1,4.542-.624c.063.028.118-.065.055-.093" transform="translate(-563.004 -1223.444)" fill="#fff"/>
        <path id="Caminho_4791" data-name="Caminho 4791" d="M712.811,1252.309a6.921,6.921,0,0,1-.333-6.135c.027-.064-.077-.092-.1-.029a7.016,7.016,0,0,0,.344,6.219c.034.061.127.006.093-.054" transform="translate(-668.177 -1169.728)" fill="#fff"/>
        <path id="Caminho_4792" data-name="Caminho 4792" d="M662.431,1232.544c-.629-1.6-1.219-3.266-.537-4.954.026-.064-.078-.092-.1-.029-.687,1.7-.1,3.39.537,5.011.025.064.129.036.1-.029" transform="translate(-620.936 -1152.284)" fill="#fff"/>
        <path id="Caminho_4793" data-name="Caminho 4793" d="M587.5,1253.495a2.9,2.9,0,0,0-2.422-.527c-.068.015-.039.119.029.1a2.791,2.791,0,0,1,2.339.516c.055.042.109-.052.054-.093" transform="translate(-549.18 -1176.097)" fill="#fff"/>
        <path id="Caminho_4794" data-name="Caminho 4794" d="M620.4,1217.757a2.911,2.911,0,0,1,.35-2.874c.041-.056-.052-.11-.093-.054a3.01,3.01,0,0,0-.361,2.957c.026.063.13.036.1-.029" transform="translate(-582.059 -1140.344)" fill="#fff"/>
        <path id="Caminho_4795" data-name="Caminho 4795" d="M2597.415,1208.874a51.592,51.592,0,0,1-5.651-7,53.45,53.45,0,0,1-3.972-7.657c-.021-.048-.092-.006-.071.041a44,44,0,0,0,9.636,14.67c.036.039.094-.019.058-.058" transform="translate(-2429.102 -1121)" fill="#fff"/>
        <path id="Caminho_4796" data-name="Caminho 4796" d="M2582.591,1199.615c-.578.1-.917.9-1.574.866-.772-.04-.733-1.135-.62-1.692s.1-1.684-.671-1.721c-.536-.026-.811.52-1.34.553-.769.047-.83-.984-.764-1.554s.006-1.6-.756-1.665c-.226-.019-.386.077-.6.074-.575-.007-.865-.561-1.01-1.062a5.768,5.768,0,0,0-.507-1.558c-.293-.45-.951-.816-1.434-.448-.586.447-.183,1.293.155,1.807s.7,1.351.146,1.874c-.272.255-.623.267-.893.512-.638.577-.094,1.556.537,1.952a20.394,20.394,0,0,1,2.088,1.072c-.016.6-.688.73-1.078,1.092a1.5,1.5,0,0,0,.279,2.171,4.278,4.278,0,0,0,2.361.682,1.166,1.166,0,0,1,.754.248.856.856,0,0,1-.021,1.1c-.236.319-.577.536-.8.871a1.491,1.491,0,0,0,.646,2.131,2.809,2.809,0,0,0,1.1.122c1.967-.035,5.133.571,5.054-2.356-.027-1.011.832-5.412-1.047-5.072" transform="translate(-2414.753 -1118.238)" fill="#19c6d8"/>
        <path id="Caminho_4797" data-name="Caminho 4797" d="M2592.116,1192.04a41.686,41.686,0,0,0,9.2,15c.036.038.094-.02.058-.058a41.579,41.579,0,0,1-9.181-14.96c-.017-.049-.1-.028-.079.022" transform="translate(-2433.229 -1118.926)" fill="#fff"/>
        <path id="Caminho_4798" data-name="Caminho 4798" d="M2725.04,1339.429q-.528,2.28-.97,4.578c-.01.052.069.073.079.022q.44-2.3.97-4.578c.012-.051-.067-.073-.079-.022" transform="translate(-2557.095 -1257.3)" fill="#fff"/>
        <path id="Caminho_4799" data-name="Caminho 4799" d="M2653.894,1410.772c-1.478.284-2.96.546-4.44.815-.052.009-.03.088.021.079,1.481-.269,2.963-.531,4.441-.815.052-.01.03-.089-.022-.079" transform="translate(-2487.026 -1324.297)" fill="#fff"/>
        <path id="Caminho_4800" data-name="Caminho 4800" d="M2677.727,1299.068a11.2,11.2,0,0,0-.708,3.35c0,.053.079.053.082,0a11.156,11.156,0,0,1,.705-3.329c.019-.049-.061-.071-.079-.022" transform="translate(-2512.93 -1219.414)" fill="#fff"/>
        <path id="Caminho_4801" data-name="Caminho 4801" d="M2610.344,1342.368c-1.478-.214-2.951-.463-4.424-.7-.052-.008-.074.07-.022.079,1.474.242,2.946.491,4.424.7.052.007.073-.071.022-.079" transform="translate(-2446.14 -1259.425)" fill="#fff"/>
        <path id="Caminho_4802" data-name="Caminho 4802" d="M2634.417,1253.125c-.183.6-.371,1.2-.535,1.805a.041.041,0,0,0,.079.022c.164-.606.352-1.2.534-1.805.015-.05-.063-.072-.079-.022" transform="translate(-2472.436 -1176.287)" fill="#fff"/>
        <path id="Caminho_4803" data-name="Caminho 4803" d="M2580.448,1269.631c-1.144-.251-2.264-.593-3.4-.894a.041.041,0,0,0-.022.079c1.132.3,2.252.643,3.4.894.051.011.073-.068.021-.079" transform="translate(-2419.043 -1190.968)" fill="#fff"/>
        <path id="Caminho_4804" data-name="Caminho 4804" d="M2589.247,1447.862a24.7,24.7,0,0,0-7.807,3.014.041.041,0,0,0,.041.071,24.749,24.749,0,0,1,7.788-3.006c.052-.01.03-.089-.022-.079" transform="translate(-2423.191 -1359.114)" fill="#fff"/>
        <path id="Caminho_4805" data-name="Caminho 4805" d="M2586.75,1422.459c-.2-.2-.106-.6-.369-.772-.31-.2-.6.236-.71.484s-.426.682-.737.481c-.215-.139-.17-.426-.366-.586-.285-.231-.594.151-.727.39s-.442.622-.755.436c-.093-.056-.128-.137-.214-.2a.581.581,0,0,0-.686.131,2.755,2.755,0,0,1-.629.463c-.238.093-.594.052-.679-.224-.1-.336.288-.552.561-.657s.647-.328.576-.685c-.035-.174-.167-.276-.2-.446-.087-.4.4-.629.749-.607a9.758,9.758,0,0,0,1.106.164c.16-.237-.064-.474-.115-.722-.08-.395.318-.744.71-.764a2.037,2.037,0,0,1,1.1.391.556.556,0,0,0,.361.113.408.408,0,0,0,.3-.433c0-.189-.075-.368-.069-.559a.711.711,0,0,1,.842-.647,1.348,1.348,0,0,1,.461.258c.752.559,2.147,1.2,1.3,2.314-.291.384-1.178,2.328-1.812,1.675" transform="translate(-2422.667 -1331.266)" fill="#19c6d8"/>
        <path id="Caminho_4806" data-name="Caminho 4806" d="M2582.6,1449.319a20.212,20.212,0,0,1,7.706-3.25c.052-.01.03-.089-.022-.079a20.227,20.227,0,0,0-7.725,3.258c-.043.03,0,.1.041.071" transform="translate(-2424.239 -1357.357)" fill="#fff"/>
        <path id="Caminho_4807" data-name="Caminho 4807" d="M2680.693,1451.678q.426-1.025.89-2.033c.022-.048-.049-.089-.071-.041q-.469,1.018-.9,2.053c-.02.048.059.07.079.022" transform="translate(-2516.301 -1360.73)" fill="#fff"/>
        <path id="Caminho_4808" data-name="Caminho 4808" d="M2670.636,1426.584c-.494-.52-1-1.032-1.495-1.547-.037-.038-.094.02-.058.058.5.515,1,1.027,1.495,1.547.036.038.094-.02.058-.058" transform="translate(-2505.469 -1337.677)" fill="#fff"/>
        <path id="Caminho_4809" data-name="Caminho 4809" d="M2649.627,1461.588a5.231,5.231,0,0,1,.648-1.48c.028-.044-.042-.086-.071-.041a5.3,5.3,0,0,0-.656,1.5.041.041,0,0,0,.079.022" transform="translate(-2487.141 -1370.553)" fill="#fff"/>
        <path id="Caminho_4810" data-name="Caminho 4810" d="M2631.3,1445.852c-.632-.327-1.272-.639-1.91-.954-.047-.023-.088.047-.041.071.638.315,1.278.627,1.909.954.047.024.088-.046.042-.071" transform="translate(-2468.163 -1356.328)" fill="#fff"/>
        <path id="Caminho_4811" data-name="Caminho 4811" d="M2619.077,1476.489c.1-.283.189-.568.294-.848.018-.05-.061-.071-.079-.022-.1.28-.2.564-.294.848-.017.05.062.072.079.022" transform="translate(-2458.463 -1385.144)" fill="#fff"/>
        <path id="Caminho_4812" data-name="Caminho 4812" d="M2599.593,1465.7c-.516-.222-1.048-.4-1.573-.6-.049-.019-.071.06-.022.079.519.2,1.044.373,1.554.592.048.021.09-.05.042-.071" transform="translate(-2438.726 -1375.29)" fill="#fff"/>
        <path id="Caminho_4813" data-name="Caminho 4813" d="M2709.645,1383.873a4,4,0,0,0,2.907.469c1.271-.146,1.289-.522,3.358-1a11.084,11.084,0,0,1,2.184-.321,10.8,10.8,0,0,1,2.162.183c2.2.36,3.364.87,3.421.741.09-.2-3.075-.882-5.46-3.39a11.028,11.028,0,0,1-1.724-2.43c-.264-.491-.483-.961-.688-1.388-.563-1.173-1.019-2.03-1.994-2.151a3.691,3.691,0,0,0-2.23.706c-1.232.821-1.122,1.755-2.177,2.194-1.189.494-2.494-.207-2.582.049-.058.171.549.392,1.219,1.229a2.8,2.8,0,0,1,.556.887c.289.872-.3,1.327-.231,2.234a2.981,2.981,0,0,0,1.281,1.988" transform="translate(-2540.901 -1290.317)" fill="#fff"/>
        <path id="Caminho_4814" data-name="Caminho 4814" d="M2834.026,1413.277c.317.165,1.1-.719,1.752-1.973v0c-.263-.491-.483-.961-.688-1.388-.156.24-.312.508-.462.8-.651,1.254-.921,2.4-.6,2.568" transform="translate(-2660.188 -1323.491)" fill="#b3dee5"/>
        <path id="Caminho_4815" data-name="Caminho 4815" d="M2742.817,1443.661c.224.1.822-.734,1.336-1.867s.749-2.133.525-2.235-.822.734-1.336,1.867-.749,2.133-.525,2.235" transform="translate(-2574.615 -1351.313)" fill="#b3dee5"/>
        <path id="Caminho_4816" data-name="Caminho 4816" d="M745.934,1112.462c-.795.667-2.317.115-3.11-.72a3.042,3.042,0,0,1-.775-1.641,2.8,2.8,0,0,1,1.429-3.032.235.235,0,0,1,.109-.163.188.188,0,0,1,.194.018,9.247,9.247,0,0,1,1.953,2.028c.272.617,1.182,2.683.2,3.509" transform="translate(-696.514 -1039.041)" fill="#edb170"/>
        <path id="Caminho_4817" data-name="Caminho 4817" d="M487.862,773.555c-2.226-1.861-6.031-3.984-10.267-8.05-3.42-3.283-7.808-11.187-7.323-13.19.841-3.469,3.943-5.917,5.557-4.072.7.8.745,3.96.746,4.78,0,2.362,3.545,7.12,13.6,17.969a.6.6,0,0,1-.083.887l-2.233,1.677" transform="translate(-441.411 -701.785)" fill="#edb170"/>
        <path id="Caminho_4818" data-name="Caminho 4818" d="M401.014,465.642l7.4-3.261c-.032-1.745-.446-19.557-4.643-21.512a4.409,4.409,0,0,0-2.845-.377c-1.7.482-2.531,2.3-2.891,3.114-1.3,2.938-.976,5.938.266,10.945.589,2.372,1.4,5.675,2.717,11.092" transform="translate(-372.853 -413.41)" fill="#0b7575"/>
        <path id="Caminho_4819" data-name="Caminho 4819" d="M162.2,863.04a28.984,28.984,0,0,0,1.095,3.366c1.743,4.9,3.291,7.388,4.223,9.615.553,1.323,2.442,7.114,2.384,10.158-.059,3.125,3.279,9.344,4.8,6.705.016-.027,1.331.827,1.332.795.06-3.125,1.972-10.112.881-14.535l-6.782-27.6c-1.175-.253-4.276-.747-6.409,1.027-3.222,2.681-1.929,8.623-1.527,10.472" transform="translate(-151.696 -799.101)" fill="#0f53b7"/>
        <path id="Caminho_4820" data-name="Caminho 4820" d="M302.2,1373.737c1.7.477,2.355.457,4.051.935-1.109-3.018-1.462-5.935-2.393-9.536-1.662-6.427-1.216-13.065-1.65-18.225-.635-2.6-1.29-3.182-1.775-3.229-.529-.051-1.376.492-2.85.84l-.013,0a1.838,1.838,0,0,0-1.133,2.407,45.146,45.146,0,0,0-.047,8.778,48.01,48.01,0,0,0,5.81,18.028" transform="translate(-278.033 -1261.316)" fill="#0f53b7"/>
        <path id="Caminho_4821" data-name="Caminho 4821" d="M425.06,1839.4a1.061,1.061,0,0,1-.406.71c-.894.807-2.131.657-4.424,1.184a8.925,8.925,0,0,0-1.741.5c-.921.416-1.164.8-1.847.826a2,2,0,0,1-1.42-.514,2.074,2.074,0,0,1-.576-1.68,2.576,2.576,0,0,1,.388-1.01,3.08,3.08,0,0,1,1.787-1.176c2.505-.724,3.653,1.217,5.921.464.531-.176,1.187-.541,1.742-.242a1.082,1.082,0,0,1,.576.934" transform="translate(-389.219 -1725.415)" fill="#19517f"/>
        <path id="Caminho_4822" data-name="Caminho 4822" d="M288.835,1537.428l7-1.652.592,4.576c.4,2.382.836,4.367,1.2,5.848a37.346,37.346,0,0,0,1.926,6.209,27.639,27.639,0,0,0,1.514,2.966l-4.047.995a67.332,67.332,0,0,1-3.8-5.988,35.864,35.864,0,0,1-2.835-5.815,27.88,27.88,0,0,1-1.545-7.138" transform="translate(-271.131 -1441.64)" fill="#19517f"/>
        <path id="Caminho_4823" data-name="Caminho 4823" d="M64.134,827.238c-1.061,1.841-1.652,4.052-1.347,10.937.3,6.823.582,6.475.827,10.469.088,1.431-.032,7.521-1.088,10.377-1.084,2.932.025,9.9,2.331,7.912.024-.021.985,1.218,1,1.189,1.084-2.932,5.187-8.9,5.611-13.437l2.671-28.3c-.122-.169-2.5-3.381-5.621-2.944-2.385.334-3.68,2.58-4.38,3.8" transform="translate(-58.301 -772.93)" fill="#1c68da"/>
        <path id="Caminho_4824" data-name="Caminho 4824" d="M13.547,1381.023c1.445,1.009,2.074,1.206,3.519,2.215-.056-3.215.571-6.085.875-9.793.544-6.616,3.147-12.738,4.434-17.755.254-2.66-.172-3.429-.615-3.633-.483-.222-1.461.012-2.968-.143h-.014a1.838,1.838,0,0,0-1.862,1.9,45.146,45.146,0,0,0-2.93,8.274,48.01,48.01,0,0,0-.44,18.936" transform="translate(-12.025 -1269.039)" fill="#1c68da"/>
        <path id="Caminho_4825" data-name="Caminho 4825" d="M37.338,1855.412a1.06,1.06,0,0,1-.617.537c-1.109.469-2.229-.08-4.568-.336a8.949,8.949,0,0,0-1.809-.1c-1.007.09-1.362.371-2.016.173a2,2,0,0,1-1.172-.952,2.074,2.074,0,0,1,.008-1.776,2.577,2.577,0,0,1,.7-.826,3.081,3.081,0,0,1,2.075-.522c2.6.14,3.05,2.35,5.439,2.385.56.008,1.3-.12,1.724.344a1.082,1.082,0,0,1,.237,1.071" transform="translate(-25.303 -1738.109)" fill="#19517f"/>
        <path id="Caminho_4826" data-name="Caminho 4826" d="M.89,1536.035l7.149.74-.945,4.516c-.407,2.381-.646,4.4-.793,5.916a37.337,37.337,0,0,0-.222,6.5,27.634,27.634,0,0,0,.454,3.3l-4.149-.392a67.34,67.34,0,0,1-1.617-6.9A35.857,35.857,0,0,1,0,1543.284a27.877,27.877,0,0,1,.888-7.249" transform="translate(0 -1441.883)" fill="#19517f"/>
        <path id="Caminho_4827" data-name="Caminho 4827" d="M132.355,382.722c-2.319,5.392-4.985,5.2-7.253,10.731-.851,2.078-1.97,4.029-2.706,6.158-.553,1.6-.667,2.254-1.408,2.776-1.989,1.4-5.573-.2-7.206-.932-1.755-.785-4.884-2.187-5.433-4.486-.191-.8.018-1.346.954-3.339.3-.63.574-1.212.835-1.752,1.293-2.675,2.175-4.334,2.817-5.811.978-2.253.8-2.722,1.711-5.49a35.1,35.1,0,0,1,4.4-9.541,10.019,10.019,0,0,1,5.664-4.193,6.842,6.842,0,0,1,3.642.081,8.628,8.628,0,0,1,4.249,3.215c3.231,4.464.416,11.005-.263,12.584" transform="translate(-101.647 -344.16)" fill="#0f8c91"/>
        <path id="Caminho_4828" data-name="Caminho 4828" d="M215.391,447.319c-.391,1.96-1.818,8.745-3.431,8.688-1.294-.046-2.165-4.47-2.555-6.863a31.783,31.783,0,0,1,.365-8.177c.018-.084.14-.666.292-1.46a29.486,29.486,0,0,0,.657-4.819c.018-.594,0-1,0-1.168-.029-1.53.56-4.182,3.187-9.108a4.572,4.572,0,0,1,3.533-.808,4.41,4.41,0,0,1,2.243,1.791c2.587,3.839-3.418,20.412-4.29,21.923" transform="translate(-196.49 -397.537)" fill="#0b7575"/>
        <path id="Caminho_4829" data-name="Caminho 4829" d="M424.632,299.2a1.284,1.284,0,0,1-1.767.511,5.116,5.116,0,0,1-1.821-1.741,5.175,5.175,0,0,1-.774-2.654,1.278,1.278,0,0,1,.668-1.141,20.992,20.992,0,0,0,3.654-2.535,21.315,21.315,0,0,0,2.168-2.166l.166.161,3.361,3.258a17.716,17.716,0,0,0-2.476,2.038,17.526,17.526,0,0,0-1.415,1.579,17.989,17.989,0,0,0-1.765,2.691" transform="translate(-394.509 -271.729)" fill="#edb170"/>
        <path id="Caminho_4830" data-name="Caminho 4830" d="M504.437,295.351a17.722,17.722,0,0,0-2.476,2.038,17.526,17.526,0,0,0-1.415,1.579,1.754,1.754,0,0,1-.519-.292c-1.339-1.09-.869-3.981.99-6.506.02-.026.038-.052.058-.078l3.361,3.258" transform="translate(-468.658 -274.189)" fill="#e59d55"/>
        <path id="Caminho_4831" data-name="Caminho 4831" d="M494.612,198.628c1.174-.008,2.157-.531,2.341-1.2.233-.848-.724-2.26-2.6-2.556a4.369,4.369,0,0,0-3.042-1.977,3.867,3.867,0,0,0-4.439,2.477l-2.184,4.439c.5.817,1.766.61,2.153,2.408.394,1.834,6.078-1.186,7.769-3.591" transform="translate(-454.981 -180.996)" fill="#1c68da"/>
        <path id="Caminho_4832" data-name="Caminho 4832" d="M515.7,240.707c-1.474,2.767-1.521,5.7-.037,6.58s3.9-.629,5.408-3.379,2-3.466.619-4.717c-1.8-1.633-3.8-2.593-5.989,1.517" transform="translate(-483.027 -223.214)" fill="#f7c589"/>
        <path id="Caminho_4833" data-name="Caminho 4833" d="M508.427,279.873c-.432.2-.527.841-.212,1.425a1.149,1.149,0,0,0,1.354.689c.432-.2.527-.841.212-1.425a1.149,1.149,0,0,0-1.354-.689" transform="translate(-476.889 -262.66)" fill="#f7c589"/>
        <path id="Caminho_4834" data-name="Caminho 4834" d="M328.356,1128.419c-.989.315-2.187-.773-2.6-1.847a3.04,3.04,0,0,1-.094-1.813,2.8,2.8,0,0,1,2.473-2.262.235.235,0,0,1,.163-.109.188.188,0,0,1,.173.091,9.245,9.245,0,0,1,1.037,2.618c.017.674.075,2.931-1.148,3.322" transform="translate(-305.608 -1053.591)" fill="#f7c589"/>
        <path id="Caminho_4835" data-name="Caminho 4835" d="M202.988,729.61c-1.352-2.567-4.067-5.976-6.441-11.346-1.917-4.336-2.975-13.315-1.765-14.982,2.1-2.89,5.895-3.977,6.687-1.657.343,1-.815,3.946-1.125,4.705-.894,2.186.576,7.933,5.761,21.788a.6.6,0,0,1-.413.789l-2.7.7" transform="translate(-182.359 -657.437)" fill="#f7c589"/>
        <path id="Caminho_4836" data-name="Caminho 4836" d="M181.567,412.139l8.08-.208c.633-1.626,7.014-18.261,3.874-21.664a4.408,4.408,0,0,0-2.489-1.429c-1.754-.2-3.214,1.165-3.857,1.783-2.316,2.225-3.158,5.123-3.91,10.226-.356,2.418-.858,5.782-1.7,11.293" transform="translate(-170.438 -364.985)" fill="#0f8c91"/>
        <path id="Caminho_4837" data-name="Caminho 4837" d="M1929,933.888a8.85,8.85,0,0,0,2.317-2.882l-1-2.889a.176.176,0,0,0-.287-.116,7.692,7.692,0,0,0-1.685,1.972c-.609,1.022-.046,4.486.659,3.915" transform="translate(-1809.901 -871.08)" fill="#edb170"/>
        <path id="Caminho_4838" data-name="Caminho 4838" d="M1938.869,609.582c1.945-1.833,5.328-3.993,9-7.964,2.966-3.206,6.569-10.714,6.013-12.529-.963-3.144-3.949-5.226-5.333-3.441-.6.772-.468,3.682-.424,4.436.126,2.172-2.871,6.741-11.526,17.266a.554.554,0,0,0,.125.811l2.145,1.42" transform="translate(-1817.778 -549.134)" fill="#edb170"/>
        <path id="Caminho_4839" data-name="Caminho 4839" d="M2117.518,337.917l-6.857-2.9c.005-1.608.139-18.019,3.978-19.878a4.06,4.06,0,0,1,2.615-.387c1.571.42,2.363,2.081,2.706,2.828,1.236,2.688.981,5.456-.093,10.084-.509,2.193-1.213,5.246-2.348,10.254" transform="translate(-1981.287 -295.393)" fill="#14bcc4"/>
        <path id="Caminho_4840" data-name="Caminho 4840" d="M2018.248,1246.359a6.659,6.659,0,0,1-3.185,2.4,61.948,61.948,0,0,0-5.124-28.091,4.107,4.107,0,0,1,2.256-3.789,3.482,3.482,0,0,1,4.829,2.042,40.3,40.3,0,0,1,2.464,8.573,41.509,41.509,0,0,1-1.239,18.864" transform="translate(-1886.739 -1141.973)" fill="#0f476d"/>
        <path id="Caminho_4841" data-name="Caminho 4841" d="M2031.563,774.842l-2.834,2.619c-4.731,4.371-4.4,4.422-7.75,7.338-3.686,3.209-6.135,4.765-6.1,7.108a3.371,3.371,0,0,1-.146,1.463,4.2,4.2,0,0,1-4.816,2.326,4.267,4.267,0,0,1-2.165-2.8c-1.874-5.619,15.239-25.992,20.434-32.059.693,1.213,3.024,4.257,5.277,5.273a11,11,0,0,0,3.567.915c.6-.071,1,.593-1.425,3.564a38.823,38.823,0,0,1-4.045,4.25" transform="translate(-1884.555 -714.204)" fill="#0f476d"/>
        <path id="Caminho_4842" data-name="Caminho 4842" d="M1988.6,1728.3a1.078,1.078,0,0,0,.606.569c1.109.518,2.267,0,4.651-.168a9.083,9.083,0,0,1,1.841-.031c1.019.13,1.369.428,2.041.253a2.03,2.03,0,0,0,1.227-.923,2.108,2.108,0,0,0,.06-1.8,2.621,2.621,0,0,0-.678-.865,3.129,3.129,0,0,0-2.087-.609c-2.65.043-3.187,2.271-5.615,2.215-.569-.013-1.315-.172-1.764.284a1.1,1.1,0,0,0-.282,1.079" transform="translate(-1866.658 -1619.005)" fill="#e89a0f"/>
        <path id="Caminho_4843" data-name="Caminho 4843" d="M2060.389,1404.972l-7.265.76q.483,2.294.965,4.588c.416,2.419.661,4.47.812,6.011a37.929,37.929,0,0,1,.233,6.6,28.064,28.064,0,0,1-.458,3.353l4.216-.4a68.451,68.451,0,0,0,1.636-7.017,36.464,36.464,0,0,0,.771-6.528,28.343,28.343,0,0,0-.91-7.366" transform="translate(-1927.277 -1318.853)" fill="#e89a0f"/>
        <path id="Caminho_4844" data-name="Caminho 4844" d="M2359.947,754.117q.071,1.928.142,3.856c.64,5.249.359,8.211.522,10.659.1,1.454,1.006,7.577,2.44,10.319,1.472,2.815,1.257,9.985-1.325,8.276-.027-.018-.835,1.356-.85,1.327-1.472-2.815-6.381-8.3-7.4-12.818l-6.356-28.178c1.372.265,5.2.477,7.438-.571a11,11,0,0,0,3.017-2.111c.335-.5,1.1-.37,1.777,3.4a38.812,38.812,0,0,1,.591,5.838" transform="translate(-2203.256 -699.022)" fill="#19517f"/>
        <path id="Caminho_4845" data-name="Caminho 4845" d="M2514.012,1284.195a6.661,6.661,0,0,1-2.679,2.954c-.36-3.248-1.363-6.06-2.15-9.757-1.4-6.6-4.821-12.432-6.768-17.322-.6-2.649-.271-3.479.149-3.742.458-.287,1.474-.177,2.973-.529l.013,0a1.868,1.868,0,0,1,2.123,1.675,40.307,40.307,0,0,1,4.025,7.961,41.513,41.513,0,0,1,2.314,18.763" transform="translate(-2348.72 -1178.784)" fill="#19517f"/>
        <path id="Caminho_4846" data-name="Caminho 4846" d="M2542.8,1759.284a1.078,1.078,0,0,0,.691.462c1.179.329,2.236-.37,4.561-.93a9.046,9.046,0,0,1,1.811-.333c1.026-.04,1.421.2,2.055-.087a2.032,2.032,0,0,0,1.059-1.112,2.109,2.109,0,0,0-.238-1.789,2.617,2.617,0,0,0-.811-.742,3.13,3.13,0,0,0-2.158-.258c-2.607.478-2.77,2.764-5.174,3.109-.563.081-1.325.047-1.694.571a1.1,1.1,0,0,0-.1,1.111" transform="translate(-2386.84 -1646.884)" fill="#f7bd3c"/>
        <path id="Caminho_4847" data-name="Caminho 4847" d="M2569.95,1429.5l-7.11,1.671,1.537,4.43c.719,2.347,1.221,4.35,1.565,5.86a37.988,37.988,0,0,1,1.066,6.52,28.14,28.14,0,0,1-.031,3.384l4.131-.932a68.4,68.4,0,0,0,.736-7.168,36.456,36.456,0,0,0-.06-6.574,28.343,28.343,0,0,0-1.834-7.192" transform="translate(-2405.75 -1341.877)" fill="#f7bd3c"/>
        <path id="Caminho_4848" data-name="Caminho 4848" d="M2166.45,277.324A18.35,18.35,0,0,0,2182,273.111c-1.2-6.175-2.565-11.306-3.728-15.188-.6-1.993-.918-3.048-1.5-4.549-.632-1.639-1.031-2.394-1.768-4.476-.623-1.76-.5-1.686-.812-2.346a7.56,7.56,0,0,0-3.248-3.88,7.27,7.27,0,0,0-4.511-.451,10.815,10.815,0,0,0-2.526.722,9.871,9.871,0,0,0-2.78,1.543,8.876,8.876,0,0,0-1.4,1.422,8.788,8.788,0,0,0-.464,3.255,10.388,10.388,0,0,0,1.438,4.458c1.782,3.465,2.53,4.207,3.38,5.888,1.12,2.214,1.386,4.386,1.92,8.729a62.745,62.745,0,0,1,.448,9.085" transform="translate(-2026.901 -227.224)" fill="#19c6d8"/>
        <path id="Caminho_4849" data-name="Caminho 4849" d="M2336.107,292.143c.385-.185-.069-1.44-1.853-10.926-.126-.668-.233-1.242-.314-1.684a23.057,23.057,0,0,0-2.65-5.289c-.284-.4-.515-.675-1.227-1.55-1.432-1.761-2.654-3.273-3.61-4.459a5.6,5.6,0,0,0-1.173,1.8c-1.163,2.939.682,6.135,2.616,9.383,7.465,12.534,7.976,12.834,8.21,12.721" transform="translate(-2182.411 -251.792)" fill="#14bcc4"/>
        <path id="Caminho_4850" data-name="Caminho 4850" d="M2258.906,608.922c1.056-.1.417-4.069,2.651-5.276a9.258,9.258,0,0,0,3.138-1.953c.09-.094.155-.168.2-.216a5.219,5.219,0,0,0,1.444-3.158c.073-1.52-.736-2.614-1.444-3.789a23.4,23.4,0,0,1-2.081-4.5,5.4,5.4,0,0,0-4.075-3.57l-.049-.009c-.31-.057-5.245-.835-7.5,2.334a5.582,5.582,0,0,0-.845,3.761,17.1,17.1,0,0,1,.86,2.375,21.776,21.776,0,0,1,.679,6.287c-.005.421-.034.419-.02.544.2,1.718,2.726,1.85,4.724,3.878,1.665,1.69,1.644,3.357,2.323,3.29" transform="translate(-2112.371 -550.389)" fill="#19517f"/>
        <path id="Caminho_4851" data-name="Caminho 4851" d="M2116.316,161.48a16.937,16.937,0,0,1,1.65,2.592,16.618,16.618,0,0,1,.728,1.617,17.276,17.276,0,0,1,.9,3.219,1.231,1.231,0,0,0,1.459.991,4.89,4.89,0,0,0,3.67-3.235,1.223,1.223,0,0,0-.271-1.238,20.131,20.131,0,0,1-2.576-3.4,20.5,20.5,0,0,1-1.332-2.617l-.439.214-3.792,1.853" transform="translate(-1986.595 -149.642)" fill="#edb170"/>
        <path id="Caminho_4852" data-name="Caminho 4852" d="M2116.316,164.755a16.938,16.938,0,0,1,1.65,2.592,16.619,16.619,0,0,1,.728,1.617,1.677,1.677,0,0,0,.375-.1c1.486-.6,1.9-3.217,1.038-5.961l-3.792,1.853" transform="translate(-1986.595 -152.917)" fill="#e5a25e"/>
        <path id="Caminho_4853" data-name="Caminho 4853" d="M2046.771,34.768a3.014,3.014,0,0,1-1.777-1.79,3.112,3.112,0,0,1,.588-2.848,3.554,3.554,0,0,1,2.349-1.057c1.339-.012,1.677.992,3.757,1.644,1.474.462,1.948.16,2.584.7.88.754.934,2.156.822,3.288a3.023,3.023,0,0,0-.117,2.466,2.659,2.659,0,0,0,.7.939,1.759,1.759,0,0,1-.822,1.057c-.461.233-.782.042-1.272.3a1.811,1.811,0,0,0-.8.875c-.9,1.554-5.186-2.887-6.012-5.58" transform="translate(-1919.511 -27.291)" fill="#032349"/>
        <path id="Caminho_4854" data-name="Caminho 4854" d="M2084.466,96.329c.521,2.96-.307,5.642-1.921,6.007s-3.371-1.733-3.924-4.686-.792-3.753.838-4.482c2.128-.952,4.233-1.234,5.007,3.162" transform="translate(-1950.821 -86.91)" fill="#f7c589"/>
        <path id="Caminho_4855" data-name="Caminho 4855" d="M2169.95,152.2c.334.314.23.923-.23,1.361a1.1,1.1,0,0,1-1.438.226c-.333-.314-.23-.923.23-1.361a1.1,1.1,0,0,1,1.438-.226" transform="translate(-2035.192 -142.703)" fill="#f7c589"/>
        <path id="Caminho_4856" data-name="Caminho 4856" d="M2266.805,268.338l1.825-.508-6.954-25.025a1.837,1.837,0,0,0-.954-.427,1.713,1.713,0,0,0-1.073.222l7.155,25.738" transform="translate(-2121.144 -227.509)" fill="#19517f"/>
        <path id="Caminho_4857" data-name="Caminho 4857" d="M2146.748,357.629l-1.769.681-8.454-21.854a3.923,3.923,0,0,1,1.354-1.985l8.869,23.158" transform="translate(-2005.565 -313.969)" fill="#19517f"/>
        <path id="Caminho_4858" data-name="Caminho 4858" d="M1347.967,498.31h0a1.633,1.633,0,0,0,1.7-.388l67.313-76.388a.692.692,0,0,0-.323-1.17,1.633,1.633,0,0,0-1.7.389l-67.313,76.388a.691.691,0,0,0,.323,1.17" transform="translate(-1264.841 -394.509)" fill="#104366"/>
        <path id="Caminho_4859" data-name="Caminho 4859" d="M1303.17,1618.742l3.5,1.206,5.259-6.436-3.5-1.206Z" transform="translate(-1223.292 -1513.478)" fill="#18bcc4"/>
        <path id="Caminho_4860" data-name="Caminho 4860" d="M2222.632,640.883c.336.895,1.807,1.14,2.821.828a2.8,2.8,0,0,0,1.364-.967,2.579,2.579,0,0,0,.224-3.079.216.216,0,0,0-.014-.18.173.173,0,0,0-.164-.073,8.515,8.515,0,0,0-2.485.745c-.5.372-2.162,1.619-1.746,2.726" transform="translate(-2086.332 -598.34)" fill="#f7c589"/>
        <path id="Caminho_4861" data-name="Caminho 4861" d="M2258.153,464.9c2.628-.488,6.642-.471,11.88-1.819,4.229-1.089,11.325-5.449,11.84-7.275.893-3.165-.489-6.532-2.619-5.781-.922.325-2.388,2.842-2.759,3.5-1.071,1.894-6.064,4.112-19.041,8.271a.554.554,0,0,0-.335.749l1.034,2.355" transform="translate(-2118.723 -422.34)" fill="#f7c589"/>
        <path id="Caminho_4862" data-name="Caminho 4862" d="M2343.439,256.955l-6.247,4.052c-1.328-.906-14.843-10.217-14.23-14.438a4.06,4.06,0,0,1,1.146-2.382c1.229-1.065,3.048-.79,3.858-.656,2.919.483,5.068,2.246,8.3,5.73,1.531,1.651,3.664,3.945,7.174,7.693" transform="translate(-2180.556 -228.478)" fill="#19c6d8"/>
        <path id="Caminho_4863" data-name="Caminho 4863" d="M1201.7,1696.618l-14.678-5.049,1.879-7.281,12.682,4.58q.059,3.875.117,7.75" transform="translate(-1114.267 -1581.048)" fill="#19c6d8"/>
        <path id="Caminho_4864" data-name="Caminho 4864" d="M3347.53,518.814a3.4,3.4,0,0,0,2.845.622c1.824-.655,1.438-3.57,2.891-10.686a34.569,34.569,0,0,0,.674-8.843,2.846,2.846,0,0,0-2.652-2.916l-.064,0a3.037,3.037,0,0,0-1.95.456c-2.23,1.558-.622,6.3-.715,12.918a40.4,40.4,0,0,1-1.03,8.454" transform="translate(-3142.342 -466.513)" fill="#f2b879"/>
        <path id="Caminho_4865" data-name="Caminho 4865" d="M3150.813,1037.182c.391-.1-.036-1.932.674-2.271.428-.2.8.362,1.194.169.678-.33.565-2.472-.282-4.092a5.588,5.588,0,0,0-.3-.506l-1.251-.271a.4.4,0,0,0-.468.277,9.818,9.818,0,0,0-.486,2.913c-.076,1.449-.233,1.688-.031,2.38.219.748.694,1.464.95,1.4" transform="translate(-2956.697 -967.056)" fill="#f2b879"/>
        <path id="Caminho_4866" data-name="Caminho 4866" d="M3173.616,808.747a2.317,2.317,0,0,0-1.988-.371c-1.35.323-1.959,1.572-2.977,3.139a29.861,29.861,0,0,1-3.575,4.544c-.675.681-3.161,3.083-5.083,4.6a3.184,3.184,0,0,0-1.178,1.609,2.858,2.858,0,0,0-.018,1.418l.014.014a.984.984,0,0,0,1.363.021c.832-.773,1.92-1.737,3.234-2.781,2.319-1.842,3.72-2.649,4.947-3.549a22.012,22.012,0,0,0,5.547-6.064,2.47,2.47,0,0,0-.287-2.575" transform="translate(-2965.101 -758.754)" fill="#f2b879"/>
        <path id="Caminho_4867" data-name="Caminho 4867" d="M3138.984,976.908a9.274,9.274,0,0,1-4.538-3.762,8.281,8.281,0,0,1-.995-3.818,1.889,1.889,0,0,1,.235-.987,2.384,2.384,0,0,0,.2-.308,1.2,1.2,0,0,0,.068-.5,1.9,1.9,0,0,1,.4-1.4c.1-.1.228-.18.26-.316a.935.935,0,0,0,0-.234,1.026,1.026,0,0,1,.108-.433,4.793,4.793,0,0,1,1.193-1.437,5,5,0,0,1,2.652-1.225Z" transform="translate(-2941.384 -903.497)" fill="#f7dfad"/>
        <path id="Caminho_4868" data-name="Caminho 4868" d="M3092.984,1015.363a1.024,1.024,0,0,1-.552-.159,1.505,1.505,0,0,1-.344-.318,1.376,1.376,0,0,0-.1-.109.756.756,0,0,0-.7-.088,3.206,3.206,0,0,0-.915.553l-.58-.762a3.979,3.979,0,0,1,1.211-.706,1.672,1.672,0,0,1,1.638.3,2.257,2.257,0,0,1,.174.187.844.844,0,0,0,.126.131c.049.03.2-.012.3-.125a1.851,1.851,0,0,0,.286-.743l.932.219a2.591,2.591,0,0,1-.489,1.145,1.344,1.344,0,0,1-.987.472" transform="translate(-2900.401 -951.401)" fill="#f7bd3c"/>
        <path id="Caminho_4869" data-name="Caminho 4869" d="M3142.89,957.727a7.67,7.67,0,0,1,4.27-1.225,11.082,11.082,0,0,1,5.663,1.071c1,.492,4.374,2.146,5.233,5.736a7.28,7.28,0,0,1-.2,4.044,7.861,7.861,0,0,1-4.382,4.459,9.169,9.169,0,0,1-6.053.2,9.607,9.607,0,0,1-3.993-1.859c-2.523-2.088-4.212-6.039-2.943-9.345a6.94,6.94,0,0,1,2.4-3.081" transform="translate(-2947.586 -897.846)" fill="#0f8c91"/>
        <path id="Caminho_4870" data-name="Caminho 4870" d="M3144.872,1056.539a12.2,12.2,0,0,0,2.536,4.387,10.039,10.039,0,0,0,4.109,2.7,10.587,10.587,0,0,0,2.422.545,14.47,14.47,0,0,0,2.518.068,14.776,14.776,0,0,0,4.961-1.164,10.742,10.742,0,0,1-4.894,1.908,12.471,12.471,0,0,1-2.673.091,10.913,10.913,0,0,1-2.649-.544,9.464,9.464,0,0,1-4.363-3.118,9.435,9.435,0,0,1-1.968-4.869" transform="translate(-2952.105 -991.778)" fill="#f7bd3c"/>
        <path id="Caminho_4871" data-name="Caminho 4871" d="M3170.423,978.967a13.932,13.932,0,0,0-3.32-3.892,13.558,13.558,0,0,0-2.122-1.368,12.819,12.819,0,0,0-2.329-.957,13.256,13.256,0,0,0-2.455-.574,10.171,10.171,0,0,0-7.253,1.709,8.426,8.426,0,0,1,4.645-2.5,9.682,9.682,0,0,1,2.711-.11,13.271,13.271,0,0,1,2.639.562,12.153,12.153,0,0,1,4.649,2.673,10.383,10.383,0,0,1,2.835,4.456" transform="translate(-2959.682 -911.696)" fill="#f7bd3c"/>
        <path id="Caminho_4872" data-name="Caminho 4872" d="M3155.325,1045.732c1.326.651,2.631,1.295,3.957,1.884s2.67,1.121,4.031,1.6,2.741.913,4.142,1.293,2.819.706,4.258,1.042a21.348,21.348,0,0,1-4.419-.312,25.856,25.856,0,0,1-8.347-2.962,20.979,20.979,0,0,1-3.622-2.549" transform="translate(-2961.918 -981.633)" fill="#f7bd3c"/>
        <path id="Caminho_4873" data-name="Caminho 4873" d="M3180.734,1031.217a28.806,28.806,0,0,0-3.608-2.347c-.629-.328-1.26-.648-1.912-.92s-1.312-.517-1.984-.727a21.964,21.964,0,0,0-4.14-.869,28.633,28.633,0,0,0-4.3-.121,13.487,13.487,0,0,1,4.347-.625,15.237,15.237,0,0,1,4.38.7,15.252,15.252,0,0,1,4,1.924,13.611,13.611,0,0,1,3.222,2.983" transform="translate(-2970.802 -962.742)" fill="#f7bd3c"/>
        <path id="Caminho_4874" data-name="Caminho 4874" d="M3196.346,297.813a4.833,4.833,0,0,1,2.979-.867,5.1,5.1,0,0,1,3.218.741,5.036,5.036,0,0,1,1.64,3.8,16.107,16.107,0,0,0,.468,4.235,23.2,23.2,0,0,0,1.366,2.645,10.664,10.664,0,0,1,1.079,4.59,8.24,8.24,0,0,1-2.389,6.328,6.006,6.006,0,0,1-6.387.971,5.723,5.723,0,0,1-3.214-5.559c.207-2.174,1.709-4.237,1.223-6.366-.268-1.172-1.107-2.137-1.467-3.285-.525-1.677.417-2.445.74-3.893.261-1.171-.466-2.34.746-3.343" transform="translate(-2998.884 -278.739)" fill="#104366"/>
        <path id="Caminho_4875" data-name="Caminho 4875" d="M3171.128,317.049c.621.32,3.182,1.216,3.791.444.181-.229.031-.408-.067-1.9-.071-1.077-.006-1.179-.084-1.924a6.746,6.746,0,0,0-.418-2.092c-.687-1.514-2.624-2.3-4.192-2.355a4.81,4.81,0,0,0-2.9.77,5.13,5.13,0,0,0-1.922,4.534,2.989,2.989,0,0,0,.4,1.505c1.045,1.6,1.051-.033,1.6-.241,1.163-.44,2.793.744,3.8,1.261" transform="translate(-2971.305 -290.262)" fill="#19517f"/>
        <path id="Caminho_4876" data-name="Caminho 4876" d="M3352.34,1725.106a.915.915,0,0,0,.214.823,4.317,4.317,0,0,0,.588.5c1.9,1.349,3.774.209,6.365.781.8.176,1.192.859,2.029.79a2.016,2.016,0,0,0,1.372-.69,2.108,2.108,0,0,0,.38-1.766,2.621,2.621,0,0,0-.514-.973,3.16,3.16,0,0,0-1.947-.972c-2.484-.444-4.169,1.96-6.439,1.311-.231-.066-.469-.413-.9-.422a1.618,1.618,0,0,0-1.148.614" transform="translate(-3146.836 -1617.902)" fill="#efad29"/>
        <path id="Caminho_4877" data-name="Caminho 4877" d="M3468.353,1218.831l3.268.289a65.546,65.546,0,0,1,2.145-13.36,56.386,56.386,0,0,0,1.732-8.243,45.306,45.306,0,0,0,.285-10.384,2.728,2.728,0,0,0-3.909-2.225q-.223.108-.45.235l-.055.031c-2.556,1.46-2.666,3.422-2.666,3.422.546,4.594.849,8.069.94,9.592.089,1.489.128,2.836.128,2.836.013.418.022.861.03,1.541.074,6.031.1,9.107-.439,12.073a38.619,38.619,0,0,1-1.007,4.192" transform="translate(-3255.759 -1112.018)" fill="#247cd3"/>
        <path id="Caminho_4878" data-name="Caminho 4878" d="M3464.568,1387.333l-7.627-1.837c.17,2.146.261,3.943.314,5.256a44.014,44.014,0,0,1-.1,8.258c-.12.832-.36,2.008-.841,4.361-.348,1.7-.657,3.109-.874,4.072l4.228.292a52.068,52.068,0,0,1,2.763-13.358c.926-2.641,1.826-4.512,2.135-7.044" transform="translate(-3243.639 -1300.571)" fill="#efad29"/>
        <path id="Caminho_4879" data-name="Caminho 4879" d="M3479.707,745.565c-2.412,1.932-4.7,2.756-5.7,1.969-.942-.744-.782-2.845-.1-4.72q1.328-3.65,2.856-7.42a216.37,216.37,0,0,1,9.23-19.793,5.353,5.353,0,0,1,5.4-1.955A5.543,5.543,0,0,1,3495,720.2a16.58,16.58,0,0,1-.466,2.476c-.883,3.291-2.477,5.12-4.912,8.258a132.2,132.2,0,0,0-7.8,11.056c-.939,1.51-1.66,2.771-2.111,3.577" transform="translate(-3260.447 -669.76)" fill="#247cd3"/>
        <path id="Caminho_4880" data-name="Caminho 4880" d="M3792.644,1723.459a.915.915,0,0,0,.5.689,4.306,4.306,0,0,0,.73.256c2.264.567,3.593-1.174,6.215-1.581.808-.125,1.422.368,2.177,0a2.016,2.016,0,0,0,1.028-1.141,2.11,2.11,0,0,0-.287-1.783,2.616,2.616,0,0,0-.832-.721,3.159,3.159,0,0,0-2.167-.2c-2.476.487-3.175,3.339-5.525,3.558-.239.022-.587-.215-.992-.067a1.619,1.619,0,0,0-.847.988" transform="translate(-3560.172 -1613.515)" fill="#f7bd3c"/>
        <path id="Caminho_4881" data-name="Caminho 4881" d="M3733.694,1228.684l3.149-.916A65.565,65.565,0,0,1,3734,1214.54a56.392,56.392,0,0,0-1.375-8.31,45.276,45.276,0,0,0-3.5-9.78,2.728,2.728,0,0,0-4.45-.655q-.168.182-.334.382l-.04.049c-1.853,2.288-1.243,4.156-1.243,4.156,2.175,4.083,3.718,7.212,4.355,8.6.624,1.355,1.148,2.6,1.148,2.6.164.385.333.795.587,1.426,2.256,5.594,3.4,8.451,3.97,11.41a38.672,38.672,0,0,1,.582,4.272" transform="translate(-3494.756 -1121.678)" fill="#2b84ef"/>
        <path id="Caminho_4882" data-name="Caminho 4882" d="M3787.141,1391.592l-7.774,1.054c.937,1.938,1.674,3.58,2.2,4.784a44.034,44.034,0,0,1,2.9,7.731c.19.818.393,2,.8,4.369.294,1.714.516,3.135.663,4.112l4.046-1.261a52.079,52.079,0,0,1-2.271-13.45c-.095-2.8.066-4.868-.565-7.339" transform="translate(-3547.708 -1306.293)" fill="#f7bd3c"/>
        <path id="Caminho_4883" data-name="Caminho 4883" d="M3717.1,714.067c-1.547,2.675-3.383,4.275-4.6,3.9-1.148-.352-1.761-2.367-1.806-4.362q-.086-3.883-.03-7.951a216.555,216.555,0,0,1,1.421-21.792,5.354,5.354,0,0,1,4.321-3.78,5.542,5.542,0,0,1,5.741,4.795,16.585,16.585,0,0,1,.464,2.476c.37,3.388-.452,5.67-1.583,9.477a132.356,132.356,0,0,0-3.263,13.135c-.327,1.748-.542,3.184-.669,4.1" transform="translate(-3483.198 -638.374)" fill="#2b84ef"/>
        <path id="Caminho_4884" data-name="Caminho 4884" d="M3377.632,430.366c-4.859-4.862-6.287-8.8-9.952-8.854-3.051-.042-6.379,2.568-6.584,2.732a6.951,6.951,0,0,0-1.82,2.077,4.49,4.49,0,0,0-.729,2.359c.057,1.234.895,1.81,3.218,4.421,1.96,2.2,1.729,2.355,2.2,2.7.515.38,4.96.859,6.573,1.557.892.386,5.453,5.259,6.25,7.841a15.984,15.984,0,0,0,1.844-.617,37.955,37.955,0,0,0,3.5-1.985,11.493,11.493,0,0,1,2.728-.859,10.048,10.048,0,0,0,1.254-.434c1.172-.556,1.588-2.305,1.743-3.422a43.085,43.085,0,0,1-10.218-7.518" transform="translate(-3152.68 -395.674)" fill="#1156a8"/>
        <path id="Caminho_4885" data-name="Caminho 4885" d="M3548.318,780.813c-.073-.161-.093-.21-.092-.211Z" transform="translate(-3330.736 -732.754)" fill="#ea942d"/>
        <path id="Caminho_4886" data-name="Caminho 4886" d="M3542.924,673.179a6.594,6.594,0,0,0,4.052-.491,6.686,6.686,0,0,0,3.283-3.52,31.186,31.186,0,0,1-9.381-5.754l-5.785,4.167a23.206,23.206,0,0,0,7.831,5.6" transform="translate(-3318.408 -622.75)" fill="#2b84ef"/>
        <path id="Caminho_4887" data-name="Caminho 4887" d="M3430.681,454.6l-1.284,1.276a29.119,29.119,0,0,1-12.225-15.173,1.893,1.893,0,0,1,1.984-.719,23.127,23.127,0,0,0,11.525,14.616" transform="translate(-3207.715 -412.964)" fill="#2b84ef"/>
        <path id="Caminho_4888" data-name="Caminho 4888" d="M3367.5,511.117l-1.284,1.276a29.168,29.168,0,0,1-7.574-6.727c-2.532-3.2-3.036-4.384-3.784-6.519.1-.141-.5-2.38-.05-2.564.532-.215.729.469.894.51.493,1.894,1.783,4.238,3.993,7.259a23.281,23.281,0,0,0,7.8,6.765" transform="translate(-3149.014 -466.105)" fill="#1c68da"/>
        <path id="Caminho_4889" data-name="Caminho 4889" d="M3267.96,418.314a3.72,3.72,0,0,0,1.9-1.2,3.5,3.5,0,0,0,.234-3.688,10.079,10.079,0,0,1-3.173-.04,10.4,10.4,0,0,1-5.084-2.48l-1.355,3.13a15.866,15.866,0,0,1,5.479,2.542,15.506,15.506,0,0,1,2,1.731" transform="translate(-3060.631 -385.723)" fill="#f2b879"/>
        <path id="Caminho_4890" data-name="Caminho 4890" d="M3193.8,380.161a5.751,5.751,0,0,0,1.467,2.6,6.333,6.333,0,0,0,1.851,1.926c.8.462,2.434,1.039,3.494.352,1.466-.95,1.292-3.964.118-5.852-1.058-1.7-3.5-3.411-5.3-2.487a3.567,3.567,0,0,0-1.631,3.463" transform="translate(-2998.01 -353.364)" fill="#f7c589"/>
        <path id="Caminho_4891" data-name="Caminho 4891" d="M3475.332,466.413a3.671,3.671,0,0,0,3.121.4c1.9-.88,1.2-3.978,2.084-11.774.588-5.208.048-6.843-.124-9.579a3.074,3.074,0,0,0-3.133-2.883l-.07,0a3.281,3.281,0,0,0-2.055.678c-2.249,1.89-.063,6.839.472,13.966a43.607,43.607,0,0,1-.3,9.194" transform="translate(-3261.208 -415.445)" fill="#f7c589"/>
        <path id="Caminho_4892" data-name="Caminho 4892" d="M3292.781,1044.657a1.792,1.792,0,0,0,1.294-.63c.189-.256.185-.447.277-1.141.234-1.759.481-2.213.164-2.86a1.953,1.953,0,0,0-.371-.516l-1.373-.171a2.708,2.708,0,0,0-.477.343,4.122,4.122,0,0,0-1.051,3.018c-.047.814-.064,1.235.244,1.569a1.63,1.63,0,0,0,1.292.388" transform="translate(-3089.482 -975.633)" fill="#f7c589"/>
        <path id="Caminho_4893" data-name="Caminho 4893" d="M3323.353,780.137a2.5,2.5,0,0,0-2.175-.208c-1.421.477-1.957,1.88-2.9,3.662a32.208,32.208,0,0,1-3.41,5.232c-.661.8-3.1,3.62-5.026,5.432a3.437,3.437,0,0,0-1.114,1.844,3.093,3.093,0,0,0,.117,1.528l.017.014a1.063,1.063,0,0,0,1.468-.108c.82-.912,1.9-2.053,3.212-3.3,2.317-2.2,3.748-3.207,4.981-4.293a23.762,23.762,0,0,0,5.386-7.056,2.667,2.667,0,0,0-.556-2.743" transform="translate(-3105.871 -731.971)" fill="#f7c589"/>
        <path id="Caminho_4894" data-name="Caminho 4894" d="M3161.537,356.188a2.167,2.167,0,0,0,1.811.091,1.159,1.159,0,0,0,.555-1.563,3.159,3.159,0,0,0-.421-.449,1.7,1.7,0,0,1-.015-2.4c.972-.787,2.723-.026,3.51-1a1.518,1.518,0,0,0-.105-1.836,3.29,3.29,0,0,0-1.683-1c-5.325-1.606-8.857,5.82-3.651,8.151" transform="translate(-2965.352 -326.493)" fill="#19517f"/>
        <path id="Caminho_4895" data-name="Caminho 4895" d="M3432.432,1500.013a1.833,1.833,0,0,1-.209-.834.758.758,0,0,1,.632-.727.983.983,0,0,1,.3.033,1.115,1.115,0,0,0,.127.024.716.716,0,0,0,.616-.332,2.516,2.516,0,0,0,.327-.8l.371.1a2.861,2.861,0,0,1-.386.92,1.088,1.088,0,0,1-.969.489,1.619,1.619,0,0,1-.17-.031.671.671,0,0,0-.185-.025c-.154.013-.269.2-.28.367a1.513,1.513,0,0,0,.178.655Z" transform="translate(-3221.841 -1405.595)" fill="#d88225"/>
        <path id="Caminho_4896" data-name="Caminho 4896" d="M3230.595,1463.845a5.778,5.778,0,0,1-2.02,2.667,8.347,8.347,0,0,1-3.9,1.913c-.828.157-3.605.683-5.745-1.092a5.483,5.483,0,0,1-1.709-2.525,5.923,5.923,0,0,1,.625-4.667,6.91,6.91,0,0,1,3.558-2.854,7.234,7.234,0,0,1,3.246-.684c2.464.118,5.267,1.736,6,4.3a5.23,5.23,0,0,1-.055,2.941" transform="translate(-3019.796 -1367.313)" fill="#f7dfad"/>
        <path id="Caminho_4897" data-name="Caminho 4897" d="M3230.143,1476.333a8.38,8.38,0,0,0-3.471-1.668,7.322,7.322,0,0,0-3.8.19,9.1,9.1,0,0,0-3.3,1.945,9.9,9.9,0,0,0-2.346,3.073,9.049,9.049,0,0,1,.917-1.735,9.214,9.214,0,0,1,1.287-1.495,9,9,0,0,1,3.362-2.049,7.343,7.343,0,0,1,3.931-.134,8,8,0,0,1,1.841.716,7.793,7.793,0,0,1,1.584,1.158" transform="translate(-3020.02 -1383.888)" fill="#f7bd3c"/>
        <path id="Caminho_4898" data-name="Caminho 4898" d="M3232.837,1541.956a9.433,9.433,0,0,0,3.747,1.02,9.725,9.725,0,0,0,3.819-.574,8.585,8.585,0,0,0,3.319-1.948,7.277,7.277,0,0,0,1.945-3.331,6.9,6.9,0,0,1-.634,1.868,6.993,6.993,0,0,1-1.161,1.613,8.518,8.518,0,0,1-3.378,2.059,9.572,9.572,0,0,1-3.924.525,8.435,8.435,0,0,1-3.733-1.23" transform="translate(-3034.678 -1442.902)" fill="#f7bd3c"/>
        <path id="Caminho_4899" data-name="Caminho 4899" d="M3235.1,1519.418c-1.1.114-2.189.266-3.266.48a28.743,28.743,0,0,0-3.19.814c-.525.158-1.044.338-1.559.527s-1.019.407-1.527.618c-1.008.438-1.994.928-2.964,1.456.454-.315.927-.6,1.4-.879s.973-.527,1.471-.769a23.108,23.108,0,0,1,6.326-1.974,21.274,21.274,0,0,1,3.3-.273" transform="translate(-3025.061 -1426.284)" fill="#f7bd3c"/>
        <path id="Caminho_4900" data-name="Caminho 4900" d="M3231.9,1533.864a15.971,15.971,0,0,0,1.63.06,13.736,13.736,0,0,0,1.621-.1c.536-.071,1.07-.154,1.6-.273a14.459,14.459,0,0,0,1.552-.458,13.9,13.9,0,0,0,2.909-1.41,13.488,13.488,0,0,0,1.323-.942,15.85,15.85,0,0,0,1.227-1.075,12.161,12.161,0,0,1-2.434,2.194,13,13,0,0,1-2.934,1.492,13.154,13.154,0,0,1-3.22.682,12.265,12.265,0,0,1-3.272-.168" transform="translate(-3033.797 -1435.901)" fill="#f7bd3c"/>
      </g>
    </g>
  </g>
</svg>
