<svg xmlns="http://www.w3.org/2000/svg" xmlns:xlink="http://www.w3.org/1999/xlink" width="108.336" height="35.438" viewBox="0 0 108.336 35.438">
  <defs>
    <clipPath id="clip-path">
      <path id="Path_1360" data-name="Path 1360" d="M150.358,338.451l-4.885-2.82-9.423-5.441c-.523-.3-1.044-.119-1.044.512v22.166c0,.473.373.677.827.415l9.64-5.566,4.885-2.82,4.7-2.711c.551-.318.5-.755.033-1.005S150.358,338.451,150.358,338.451Z" transform="translate(-135.006 -330.047)" fill="none"/>
    </clipPath>
    <linearGradient id="linear-gradient" x1="0.5" x2="0.5" y2="1" gradientUnits="objectBoundingBox">
      <stop offset="0" stop-color="#0067a2"/>
      <stop offset="0.403" stop-color="#3d91a8"/>
      <stop offset="0.805" stop-color="#74b7ae"/>
      <stop offset="1" stop-color="#8ac6b1"/>
    </linearGradient>
    <linearGradient id="linear-gradient-2" y1="0.5" x2="1" y2="0.5" gradientUnits="objectBoundingBox">
      <stop offset="0" stop-color="#50b09b"/>
      <stop offset="1" stop-color="#e9e486"/>
    </linearGradient>
    <linearGradient id="linear-gradient-3" x1="0.5" x2="0.5" y2="1" gradientUnits="objectBoundingBox">
      <stop offset="0" stop-color="#dc1b24"/>
      <stop offset="0.228" stop-color="#c1203b"/>
      <stop offset="0.748" stop-color="#8a2b6c"/>
      <stop offset="1" stop-color="#753080"/>
    </linearGradient>
    <linearGradient id="linear-gradient-4" x1="0.5" x2="0.5" y2="1" gradientUnits="objectBoundingBox">
      <stop offset="0" stop-color="#eb7165"/>
      <stop offset="0.003" stop-color="#eb7164"/>
      <stop offset="0.675" stop-color="#f9a85e"/>
      <stop offset="1" stop-color="#ffbe5c"/>
    </linearGradient>
  </defs>
  <g id="Group_765" data-name="Group 765" transform="translate(0)">
    <path id="Path_1326" data-name="Path 1326" d="M204.977,326.722a4.789,4.789,0,0,1-4.788,4.79H101.43a4.79,4.79,0,0,1-4.789-4.79V300.863a4.79,4.79,0,0,1,4.789-4.789h98.759a4.789,4.789,0,0,1,4.788,4.789Z" transform="translate(-96.641 -296.074)" fill="#808285"/>
    <g id="PLAY" transform="translate(8.126 7.196)">
      <g id="Group_753" data-name="Group 753" transform="translate(0 0)" clip-path="url(#clip-path)">
        <path id="Path_1356" data-name="Path 1356" d="M135.006,328.285v24l12.1-12Z" transform="translate(-135.006 -328.658)" fill="url(#linear-gradient)"/>
        <path id="Path_1357" data-name="Path 1357" d="M150.358,336.737l-4.885-2.82-10.467-6.043v.087l12.1,12Z" transform="translate(-135.006 -328.334)" fill="url(#linear-gradient-2)"/>
        <path id="Path_1358" data-name="Path 1358" d="M135.006,396.937v.087l10.467-6.044,4.885-2.82-3.25-3.223Z" transform="translate(-135.006 -373.311)" fill="url(#linear-gradient-3)"/>
        <path id="Path_1359" data-name="Path 1359" d="M195.39,369.721l-3.25,3.223,3.25,3.223,5.583-3.223Z" transform="translate(-180.038 -361.318)" fill="url(#linear-gradient-4)"/>
      </g>
    </g>
    <g id="Group_754" data-name="Group 754" transform="translate(81.065 13.477)">
      <path id="Path_1361" data-name="Path 1361" d="M482.615,380.166a3.018,3.018,0,0,1-1.245-.251,2.347,2.347,0,0,1-.946-.774h-.076a9.379,9.379,0,0,1,.076,1.159v2.872h-1.056V373.059h.86l.146.955h.051a2.457,2.457,0,0,1,.949-.828,2.883,2.883,0,0,1,1.241-.255,2.579,2.579,0,0,1,2.143.949,5.054,5.054,0,0,1-.012,5.334A2.586,2.586,0,0,1,482.615,380.166Zm-.153-6.336a1.873,1.873,0,0,0-1.547.592,3.049,3.049,0,0,0-.491,1.885v.236a3.492,3.492,0,0,0,.491,2.1,1.865,1.865,0,0,0,1.573.633,1.636,1.636,0,0,0,1.417-.732,3.475,3.475,0,0,0,.512-2.019,3.344,3.344,0,0,0-.512-2A1.687,1.687,0,0,0,482.462,373.83Z" transform="translate(-479.368 -370.13)" fill="#f9f9f9"/>
      <path id="Path_1362" data-name="Path 1362" d="M516,369.611h-1.057V359.7H516Z" transform="translate(-507.409 -359.703)" fill="#f9f9f9"/>
      <path id="Path_1363" data-name="Path 1363" d="M530.711,380.086l-.21-.993h-.051a2.928,2.928,0,0,1-1.041.888,3.163,3.163,0,0,1-1.3.233,2.332,2.332,0,0,1-1.627-.535,1.95,1.95,0,0,1-.589-1.522q0-2.114,3.381-2.216l1.185-.038v-.433a1.768,1.768,0,0,0-.354-1.213,1.452,1.452,0,0,0-1.13-.392,4.6,4.6,0,0,0-1.974.535l-.325-.809a4.965,4.965,0,0,1,1.131-.439,4.893,4.893,0,0,1,1.232-.159,2.659,2.659,0,0,1,1.85.554,2.314,2.314,0,0,1,.6,1.777v4.763Zm-2.388-.745a2.147,2.147,0,0,0,1.551-.541,2,2,0,0,0,.564-1.516v-.63l-1.058.044a3.846,3.846,0,0,0-1.818.392,1.181,1.181,0,0,0-.557,1.079,1.088,1.088,0,0,0,.347.872A1.439,1.439,0,0,0,528.323,379.341Z" transform="translate(-516.042 -370.177)" fill="#f9f9f9"/>
      <path id="Path_1364" data-name="Path 1364" d="M555.222,373.533h1.133l1.528,3.98a15.208,15.208,0,0,1,.624,1.968h.051q.083-.325.347-1.112t1.729-4.836h1.134l-3,7.947a3.965,3.965,0,0,1-1.041,1.672,2.214,2.214,0,0,1-1.461.493,4.276,4.276,0,0,1-.956-.108v-.847a3.694,3.694,0,0,0,.784.076,1.615,1.615,0,0,0,1.554-1.223l.388-.993Z" transform="translate(-539.155 -370.604)" fill="#f9f9f9"/>
    </g>
    <g id="Group_756" data-name="Group 756" transform="translate(32.876 12.697)">
      <path id="Path_1365" data-name="Path 1365" d="M381.988,374.639a2.378,2.378,0,0,1-.19,4.043,1.027,1.027,0,0,0-.409.716.8.8,0,0,0,.38.627l.526.408a2.542,2.542,0,0,1,1.226,2.045c0,1.372-1.328,2.759-3.839,2.759-2.117,0-3.138-1.007-3.138-2.088a2.1,2.1,0,0,1,1.124-1.781,6.292,6.292,0,0,1,2.788-.672,1.527,1.527,0,0,1-.438-.991,1.318,1.318,0,0,1,.146-.57c-.161.015-.322.029-.468.029a2.308,2.308,0,0,1-2.423-2.291,2.626,2.626,0,0,1,.934-1.956,3.981,3.981,0,0,1,2.614-.8h3.007l-.935.526Zm-1.037,6.482a2.263,2.263,0,0,0-.335-.015,5.84,5.84,0,0,0-1.533.235,1.64,1.64,0,0,0-1.256,1.5c0,1.036,1.008,1.782,2.57,1.782,1.4,0,2.146-.673,2.146-1.577C382.543,382.3,382.061,381.909,380.951,381.12Zm.424-2.774a1.477,1.477,0,0,0,.364-1.066c0-1.051-.627-2.686-1.839-2.686a1.363,1.363,0,0,0-1.022.482,1.686,1.686,0,0,0-.321,1.08c0,.978.569,2.6,1.825,2.6A1.5,1.5,0,0,0,381.375,378.347Z" transform="translate(-350.133 -370.281)" fill="#f9f9f9"/>
      <path id="Path_1366" data-name="Path 1366" d="M345.629,380.116a3.439,3.439,0,0,1-3.556-3.44,3.611,3.611,0,0,1,3.775-3.541,3.407,3.407,0,0,1,3.483,3.439A3.561,3.561,0,0,1,345.629,380.116Zm1.822-1.18a2.636,2.636,0,0,0,.438-1.618c0-1.283-.612-3.731-2.419-3.731a2.03,2.03,0,0,0-1.311.5,2.205,2.205,0,0,0-.671,1.779c0,1.442.714,3.817,2.478,3.817A1.861,1.861,0,0,0,347.45,378.936Z" transform="translate(-322.964 -369.51)" fill="#f9f9f9"/>
      <path id="Path_1367" data-name="Path 1367" d="M308.332,380.116a3.439,3.439,0,0,1-3.556-3.44,3.612,3.612,0,0,1,3.775-3.541,3.407,3.407,0,0,1,3.483,3.439A3.561,3.561,0,0,1,308.332,380.116Zm1.822-1.18a2.64,2.64,0,0,0,.437-1.618c0-1.283-.612-3.731-2.42-3.731a2.031,2.031,0,0,0-1.312.5,2.205,2.205,0,0,0-.67,1.779c0,1.442.714,3.817,2.478,3.817A1.863,1.863,0,0,0,310.154,378.936Z" transform="translate(-293.567 -369.51)" fill="#f9f9f9"/>
      <path id="Path_1368" data-name="Path 1368" d="M261.951,367.612l-2.1.484a15.533,15.533,0,0,1-2.417.248,5.206,5.206,0,0,1-5.583-5.3c0-2.842,2.183-5.479,5.92-5.479a8.434,8.434,0,0,1,2.241.308,5.712,5.712,0,0,1,1.934.908l-1.216,1.158-.513.116.366-.586a4.188,4.188,0,0,0-3.135-1.377,4.047,4.047,0,0,0-4.059,4.323,5.182,5.182,0,0,0,5.187,5.348,4.364,4.364,0,0,0,1.861-.366v-2.359l-2.212.117,1.172-.631h3.107l-.38.366a.342.342,0,0,0-.147.234c-.015.132-.029.557-.029.7Z" transform="translate(-251.856 -357.234)" fill="#f9f9f9"/>
      <path id="Path_1369" data-name="Path 1369" d="M412.533,365.975c-.484-.044-.585-.132-.585-.7v-8.293c0-.032.005-.064.008-.094.059-.513.205-.6.66-.865h-2.1l-1.1.528h1.12v9.047c0,.292-.058.337-.4.776h2.594l.542-.322C413.032,366.018,412.783,366,412.533,365.975Z" transform="translate(-376.047 -356.019)" fill="#f9f9f9"/>
      <path id="Path_1370" data-name="Path 1370" d="M432.5,379.617c-.159.087-.32.19-.479.262a3.389,3.389,0,0,1-1.413.277,3.11,3.11,0,0,1-1.936-.568,3.766,3.766,0,0,1-1.483-3.071,3.3,3.3,0,0,1,3.332-3.361,2.829,2.829,0,0,1,1.5.408,2.409,2.409,0,0,1,1.017,1.44l-3.419,1.383-1.121.087a3.232,3.232,0,0,0,3,2.924,3.76,3.76,0,0,0,1.775-.508Zm-1.367-4.337c.276-.1.422-.189.422-.393a1.444,1.444,0,0,0-1.441-1.251,1.792,1.792,0,0,0-1.673,2.023c0,.247.029.509.044.772Z" transform="translate(-390.053 -369.526)" fill="#f9f9f9"/>
      <g id="Group_755" data-name="Group 755" transform="translate(43.419 3.63)">
        <path id="Path_1371" data-name="Path 1371" d="M457.28,373.256v.96h-.116v-.96h-.318v-.1h.752v.1Z" transform="translate(-456.846 -373.156)" fill="#f9f9f9"/>
        <path id="Path_1372" data-name="Path 1372" d="M462.1,374.216v-.969h-.005l-.3.969h-.091l-.3-.969h0v.969H461.3v-1.06h.182l.27.857h0l.266-.857h.184v1.06Z" transform="translate(-460.355 -373.156)" fill="#f9f9f9"/>
      </g>
    </g>
    <g id="Group_757" data-name="Group 757" transform="translate(32.901 7.139)">
      <path id="Path_1373" data-name="Path 1373" d="M254.859,333.065h-.728a4.831,4.831,0,0,0-.207-.851h-1.051a4.4,4.4,0,0,0-.214.851h-.685q0-.089.531-1.456a11.451,11.451,0,0,0,.531-1.506h.86a12.576,12.576,0,0,0,.481,1.484A13,13,0,0,1,254.859,333.065Zm-1.051-1.285a12.872,12.872,0,0,1-.389-1.27h-.036q0,.089-.4,1.27Z" transform="translate(-251.974 -330.035)" fill="#fbfcfc"/>
      <path id="Path_1374" data-name="Path 1374" d="M270.362,333.065H269.8a5.539,5.539,0,0,0-.626-.985,5.427,5.427,0,0,1-.746-1.286h-.036a8.019,8.019,0,0,1,.057.9q0,.562.032,1.37h-.56q.034-.705.034-1.55t-.034-1.413h.676a4.281,4.281,0,0,0,.562.962,5.667,5.667,0,0,1,.687,1.213h.034a8.637,8.637,0,0,1-.054-.91q0-.616-.032-1.265h.569q-.032.564-.032,1.413T270.362,333.065Z" transform="translate(-264.543 -330.035)" fill="#fbfcfc"/>
      <path id="Path_1375" data-name="Path 1375" d="M285.7,331.43a1.678,1.678,0,0,1-.414,1.129,1.446,1.446,0,0,1-1.16.483q-.337,0-.928-.027.03-.687.03-1.55,0-.828-.03-1.413h.4q.1,0,.291-.007c.129,0,.213-.007.252-.007a1.534,1.534,0,0,1,1.191.41A1.416,1.416,0,0,1,285.7,331.43Zm-.621.1a1.1,1.1,0,0,0-.255-.736.966.966,0,0,0-.778-.3,2.414,2.414,0,0,0-.269.02q.023.455.023.951,0,.544.023,1.078a1.507,1.507,0,0,0,.3.03.86.86,0,0,0,.725-.3A1.172,1.172,0,0,0,285.082,331.528Z" transform="translate(-276.586 -329.983)" fill="#fbfcfc"/>
      <path id="Path_1376" data-name="Path 1376" d="M300.449,333.014h-.674a4.468,4.468,0,0,0-.4-.994.53.53,0,0,0-.455-.189l-.253,0q0,.585.021,1.181h-.632q.03-.687.029-1.55,0-.828-.029-1.413h.394q.068,0,.286-.007t.4-.007q1.044,0,1.044.714a.8.8,0,0,1-.6.79v.034a.711.711,0,0,1,.4.358A7.919,7.919,0,0,1,300.449,333.014Zm-.853-2.093q0-.453-.582-.453a1.983,1.983,0,0,0-.378.032q.025.353.025.919.125,0,.212,0Q299.6,331.424,299.6,330.921Z" transform="translate(-288.292 -329.983)" fill="#fbfcfc"/>
      <path id="Path_1377" data-name="Path 1377" d="M313.993,331.275a1.634,1.634,0,0,1-.428,1.158,1.388,1.388,0,0,1-1.058.46,1.337,1.337,0,0,1-1.006-.422,1.486,1.486,0,0,1-.4-1.073,1.633,1.633,0,0,1,.428-1.158,1.388,1.388,0,0,1,1.058-.46,1.338,1.338,0,0,1,1.006.421A1.485,1.485,0,0,1,313.993,331.275Zm-.628.066a1.174,1.174,0,0,0-.244-.771.75.75,0,0,0-.6-.3.694.694,0,0,0-.564.3,1.189,1.189,0,0,0-.232.753,1.172,1.172,0,0,0,.245.77.749.749,0,0,0,.6.3.693.693,0,0,0,.564-.3A1.19,1.19,0,0,0,313.365,331.341Z" transform="translate(-298.574 -329.78)" fill="#fbfcfc"/>
      <path id="Path_1378" data-name="Path 1378" d="M328.449,333.065H327.8q.03-.705.03-1.55t-.03-1.413h.644q-.03.573-.029,1.413Q328.419,332.374,328.449,333.065Z" transform="translate(-311.743 -330.035)" fill="#fbfcfc"/>
      <path id="Path_1379" data-name="Path 1379" d="M337.1,331.43a1.678,1.678,0,0,1-.414,1.129,1.446,1.446,0,0,1-1.16.483q-.337,0-.928-.027.03-.687.03-1.55,0-.828-.03-1.413h.4q.1,0,.291-.007t.252-.007a1.534,1.534,0,0,1,1.191.41A1.417,1.417,0,0,1,337.1,331.43Zm-.621.1a1.1,1.1,0,0,0-.255-.736.966.966,0,0,0-.778-.3,2.41,2.41,0,0,0-.269.02q.023.455.023.951,0,.544.023,1.078a1.506,1.506,0,0,0,.3.03.86.86,0,0,0,.725-.3A1.172,1.172,0,0,0,336.481,331.528Z" transform="translate(-317.098 -329.983)" fill="#fbfcfc"/>
      <path id="Path_1380" data-name="Path 1380" d="M356.335,333.065h-.728a4.8,4.8,0,0,0-.207-.851h-1.051a4.39,4.39,0,0,0-.214.851h-.685q0-.089.531-1.456a11.43,11.43,0,0,0,.531-1.506h.86a12.555,12.555,0,0,0,.481,1.484A13.054,13.054,0,0,1,356.335,333.065Zm-1.051-1.285a12.922,12.922,0,0,1-.389-1.27h-.036q0,.089-.4,1.27Z" transform="translate(-331.957 -330.035)" fill="#fbfcfc"/>
      <path id="Path_1381" data-name="Path 1381" d="M371.558,330.828a.887.887,0,0,1-.4.8,1.8,1.8,0,0,1-.991.259q-.107,0-.152,0,0,.428.025,1.129H369.4q.03-.657.03-1.55,0-.819-.03-1.413h.4q.084,0,.323-.007t.414-.007a1.3,1.3,0,0,1,.73.2A.662.662,0,0,1,371.558,330.828Zm-.587.125q0-.487-.646-.487a1.817,1.817,0,0,0-.341.034q.025.43.025.974c.038,0,.082,0,.132,0Q370.971,331.478,370.971,330.953Z" transform="translate(-344.525 -329.983)" fill="#fbfcfc"/>
      <path id="Path_1382" data-name="Path 1382" d="M384.442,330.828a.887.887,0,0,1-.4.8,1.8,1.8,0,0,1-.991.259c-.071,0-.122,0-.152,0q0,.428.025,1.129h-.639q.03-.657.03-1.55,0-.819-.03-1.413h.4q.084,0,.323-.007t.414-.007a1.3,1.3,0,0,1,.73.2A.662.662,0,0,1,384.442,330.828Zm-.587.125q0-.487-.646-.487a1.818,1.818,0,0,0-.341.034q.025.43.025.974c.038,0,.082,0,.132,0Q383.855,331.478,383.855,330.953Z" transform="translate(-354.68 -329.983)" fill="#fbfcfc"/>
      <path id="Path_1383" data-name="Path 1383" d="M402.771,331.275a1.633,1.633,0,0,1-.428,1.158,1.388,1.388,0,0,1-1.058.46,1.337,1.337,0,0,1-1.006-.422,1.487,1.487,0,0,1-.4-1.073,1.634,1.634,0,0,1,.428-1.158,1.388,1.388,0,0,1,1.058-.46,1.339,1.339,0,0,1,1.006.421A1.486,1.486,0,0,1,402.771,331.275Zm-.628.066a1.173,1.173,0,0,0-.244-.771.749.749,0,0,0-.6-.3.694.694,0,0,0-.564.3,1.189,1.189,0,0,0-.232.753,1.172,1.172,0,0,0,.245.77.749.749,0,0,0,.6.3.692.692,0,0,0,.564-.3A1.189,1.189,0,0,0,402.143,331.341Z" transform="translate(-368.548 -329.78)" fill="#fbfcfc"/>
      <path id="Path_1384" data-name="Path 1384" d="M419.025,333.065h-.562a5.541,5.541,0,0,0-.626-.985,5.43,5.43,0,0,1-.746-1.286h-.036a8.059,8.059,0,0,1,.057.9q0,.562.032,1.37h-.56q.034-.705.034-1.55t-.034-1.413h.676a4.287,4.287,0,0,0,.562.962,5.666,5.666,0,0,1,.687,1.213h.034a8.584,8.584,0,0,1-.055-.91q0-.616-.032-1.265h.569q-.032.564-.032,1.413T419.025,333.065Z" transform="translate(-381.718 -330.035)" fill="#fbfcfc"/>
    </g>
  </g>
</svg>
