<svg id="Group_812" data-name="Group 812" xmlns="http://www.w3.org/2000/svg" width="17" height="17" viewBox="0 0 17 17">
  <g id="Group_805" data-name="Group 805">
    <g id="Group_804" data-name="Group 804">
      <path id="Path_1327" data-name="Path 1327" d="M13.813,0H3.188A3.191,3.191,0,0,0,0,3.188v7.438a3.191,3.191,0,0,0,3.188,3.188H9.563v2.656a.531.531,0,0,0,.907.376L13.5,13.813h.311A3.191,3.191,0,0,0,17,10.625V3.188A3.191,3.191,0,0,0,13.813,0Zm2.125,10.625a2.127,2.127,0,0,1-2.125,2.125h-.531a.53.53,0,0,0-.376.156l-2.281,2.281V13.281a.531.531,0,0,0-.531-.531H3.188a2.127,2.127,0,0,1-2.125-2.125V3.188A2.127,2.127,0,0,1,3.188,1.063H13.813a2.127,2.127,0,0,1,2.125,2.125Z" fill="#fff"/>
    </g>
  </g>
  <g id="Group_807" data-name="Group 807" transform="translate(3.308 3.883)">
    <g id="Group_806" data-name="Group 806" transform="translate(0 0)">
      <rect id="Rectangle_389" data-name="Rectangle 389" width="11.035" height="1.226" fill="#fff"/>
    </g>
  </g>
  <g id="Group_809" data-name="Group 809" transform="translate(3.308 6.335)">
    <g id="Group_808" data-name="Group 808" transform="translate(0 0)">
      <rect id="Rectangle_390" data-name="Rectangle 390" width="11.035" height="1.226" fill="#fff"/>
    </g>
  </g>
  <g id="Group_811" data-name="Group 811" transform="translate(3.308 8.788)">
    <g id="Group_810" data-name="Group 810" transform="translate(0 0)">
      <rect id="Rectangle_391" data-name="Rectangle 391" width="4.904" height="1.226" fill="#fff"/>
    </g>
  </g>
</svg>
