<svg xmlns="http://www.w3.org/2000/svg" width="32.822" height="39.387" viewBox="0 0 32.822 39.387"><defs><style>.a{fill:#808285;}</style></defs><path class="a" d="M74.134,29.4a11,11,0,0,1-3.9-8.411V16.411A11.5,11.5,0,0,0,59.974,4.989V1.231a1.231,1.231,0,0,0-2.462,0V4.989A11.5,11.5,0,0,0,47.255,16.411v4.576a11,11,0,0,1-3.919,8.422A2.872,2.872,0,0,0,45.2,34.463h7.509a6.155,6.155,0,0,0,12.061,0h7.509A2.871,2.871,0,0,0,74.134,29.4Zm-15.39,7.528a3.7,3.7,0,0,1-3.481-2.462h6.962A3.7,3.7,0,0,1,58.743,36.925ZM72.283,32H45.2a.415.415,0,0,1-.41-.41.41.41,0,0,1,.148-.315,13.45,13.45,0,0,0,4.775-10.29V16.411a9.026,9.026,0,0,1,18.052,0v4.576A13.454,13.454,0,0,0,72.548,31.28a.4.4,0,0,1,.145.312A.415.415,0,0,1,72.283,32Z" transform="translate(-42.332)"/></svg>