<svg xmlns="http://www.w3.org/2000/svg" xmlns:xlink="http://www.w3.org/1999/xlink" width="701.897" height="214.766" viewBox="0 0 701.897 214.766">
  <defs>
    <linearGradient id="linear-gradient" x1="0.289" y1="0.5" x2="0.791" y2="0.5" gradientUnits="objectBoundingBox">
      <stop offset="0.1" stop-color="#ed2224"/>
      <stop offset="1"/>
    </linearGradient>
    <linearGradient id="linear-gradient-2" x1="0.173" y1="0.16" x2="0.545" y2="0.543" gradientUnits="objectBoundingBox">
      <stop offset="0" stop-color="#264b60"/>
      <stop offset="0.04" stop-color="#25495d"/>
      <stop offset="0.53" stop-color="#1c3943"/>
      <stop offset="0.7" stop-color="#18343b"/>
      <stop offset="1" stop-color="#132e33"/>
    </linearGradient>
    <linearGradient id="linear-gradient-3" x1="0.81" y1="0.508" x2="1.168" y2="0.346" gradientUnits="objectBoundingBox">
      <stop offset="0" stop-color="#1e4000"/>
      <stop offset="0.53" stop-color="#143700"/>
      <stop offset="1" stop-color="#062d00"/>
    </linearGradient>
    <linearGradient id="linear-gradient-4" x1="0.1" y1="0.887" x2="0.442" y2="0.533" gradientUnits="objectBoundingBox">
      <stop offset="0" stop-color="#948a86"/>
      <stop offset="0.11" stop-color="#897e7a"/>
      <stop offset="0.35" stop-color="#736863"/>
      <stop offset="0.5" stop-color="#6b605b"/>
      <stop offset="0.71" stop-color="#5a504b"/>
      <stop offset="1" stop-color="#3a332f"/>
    </linearGradient>
    <linearGradient id="linear-gradient-5" x1="0.496" y1="0.556" x2="0.572" y2="0.998" gradientUnits="objectBoundingBox">
      <stop offset="0" stop-color="#a3622c"/>
      <stop offset="0.3" stop-color="#a86a34"/>
      <stop offset="0.49" stop-color="#ac713c"/>
      <stop offset="1" stop-color="#bb8c58"/>
    </linearGradient>
    <linearGradient id="linear-gradient-6" x1="0.931" y1="0.995" x2="0.518" y2="0.53" gradientUnits="objectBoundingBox">
      <stop offset="0" stop-color="#ffcc4e"/>
      <stop offset="0.17" stop-color="#f9c441"/>
      <stop offset="0.54" stop-color="#edb327"/>
      <stop offset="0.76" stop-color="#e8ac1a"/>
      <stop offset="1" stop-color="#e5a812"/>
    </linearGradient>
    <radialGradient id="radial-gradient" cx="0.504" cy="0.5" r="0.494" gradientTransform="translate(0)" gradientUnits="objectBoundingBox">
      <stop offset="0.78" stop-color="#e6e6e5"/>
      <stop offset="0.87" stop-color="#e5e5e4"/>
      <stop offset="0.9" stop-color="#e0e0df" stop-opacity="0.98"/>
      <stop offset="0.93" stop-color="#d9d8d7" stop-opacity="0.949"/>
      <stop offset="0.95" stop-color="#cdcdcc" stop-opacity="0.898"/>
      <stop offset="0.96" stop-color="#bfbebd" stop-opacity="0.851"/>
      <stop offset="0.98" stop-color="#adabab" stop-opacity="0.78"/>
      <stop offset="0.99" stop-color="#989696" stop-opacity="0.698"/>
      <stop offset="1" stop-color="#817e7e" stop-opacity="0.6"/>
      <stop offset="1" stop-color="#807d7d" stop-opacity="0.6"/>
    </radialGradient>
    <radialGradient id="radial-gradient-2" cx="0.504" cy="0.5" r="0.494" gradientTransform="translate(0)" gradientUnits="objectBoundingBox">
      <stop offset="0" stop-color="#e6e6e5"/>
      <stop offset="1" stop-color="#807d7d" stop-opacity="0.6"/>
    </radialGradient>
    <radialGradient id="radial-gradient-3" cx="0.504" cy="0.5" r="0.494" gradientTransform="translate(0)" gradientUnits="objectBoundingBox">
      <stop offset="0.45" stop-color="#e6e6e5" stop-opacity="0.102"/>
      <stop offset="0.67" stop-color="#e6e6e5" stop-opacity="0.11"/>
      <stop offset="0.74" stop-color="#e7e7e6" stop-opacity="0.129"/>
      <stop offset="0.8" stop-color="#e8e8e8" stop-opacity="0.18"/>
      <stop offset="0.84" stop-color="#ebebea" stop-opacity="0.239"/>
      <stop offset="0.88" stop-color="#ededec" stop-opacity="0.329"/>
      <stop offset="0.91" stop-color="#f0f0f0" stop-opacity="0.439"/>
      <stop offset="0.94" stop-color="#f4f4f4" stop-opacity="0.561"/>
      <stop offset="0.97" stop-color="#f9f9f9" stop-opacity="0.71"/>
      <stop offset="1" stop-color="#fefefe" stop-opacity="0.871"/>
      <stop offset="1" stop-color="#fff" stop-opacity="0.898"/>
    </radialGradient>
  </defs>
  <g id="logo_juntos_branco" data-name="logo juntos branco" transform="translate(0 0)" style="isolation: isolate">
    <g id="Layer_2" data-name="Layer 2" transform="translate(0 0)">
      <g id="Layer_1" data-name="Layer 1">
        <path id="Caminho_918" data-name="Caminho 918" d="M539.1,173.021H523.539c-8.476,0-17.466-5.862-17.479-21.73,0-12.977,8.159-20.951,17.479-20.951H539.1v13.822H527.75c-2.033,0-6.812.792-6.812,7.393s4.779,7.591,6.812,7.591H539.1Z" transform="translate(162.028 41.732)" fill="#ec2127"/>
        <path id="Caminho_919" data-name="Caminho 919" d="M461.513,159.476c5.492,0,7.1-3.089,7.1-6.878s-1.611-6.865-7.1-6.865h-7.67v-3.7h17.162v-11.7H438.582v15.393h-8.806c-5.492,0-7.076,3.076-7.076,6.878s1.584,6.878,7.076,6.878H438.4v13.545h15.446V159.476Z" transform="translate(135.338 41.732)" fill="#ec2127"/>
        <path id="Caminho_920" data-name="Caminho 920" d="M497.084,173.021l6.786-30.747v30.747h13.6V130.34H503.025c-8.647,0-9.466,4.357-10.641,9.558l-2.852,13.862L486.694,139.9c-1.175-5.2-1.98-9.558-10.641-9.558H461.69v42.681H475.3V142.274l6.786,30.747Z" transform="translate(147.822 41.732)" fill="#ec2127"/>
        <path id="Caminho_921" data-name="Caminho 921" d="M140.94,10Z" transform="translate(45.125 3.202)" fill="#fff"/>
        <path id="Caminho_922" data-name="Caminho 922" d="M1.7,100.373H15.618v5.281c0,21.77,13.1,29.625,25.994,29.625,12.5,0,25.809-7.248,25.809-29.215v-89.6H32.741V4H81.31V105.957c0,30.628-20.357,42.127-39.909,42.127-19.354,0-39.711-11.7-39.711-42.127Z" transform="translate(0.541 1.281)" fill="#fff"/>
        <path id="Caminho_923" data-name="Caminho 923" d="M71.85,4H85.963V96.069c0,24.4,15.723,39.1,40.107,39.1s40.318-14.707,40.318-39.5V4H180.3V96.28c0,31.447-21.968,51.8-54.008,51.8-32.252,0-54.431-20.357-54.431-51.8Z" transform="translate(23.005 1.281)" fill="#fff"/>
        <path id="Caminho_924" data-name="Caminho 924" d="M163.51,4h13.505l72.359,102c4.845,7.05,11.7,19.143,11.7,19.143h.409s-1.215-11.684-1.215-19.143V4h13.9V145.655H260.675L188.3,43.671c-4.832-7.063-11.684-19.156-11.684-19.156h-.409s1.215,11.7,1.215,19.156V145.655H163.51Z" transform="translate(52.352 1.281)" fill="#fff"/>
        <path id="Caminho_925" data-name="Caminho 925" d="M306.359,16.462H255.4V4H371.047V16.5H320.3V145.655H306.359Z" transform="translate(81.773 1.281)" fill="#fff"/>
        <path id="Caminho_926" data-name="Caminho 926" d="M473.348,119.847s14.72,15.525,37.084,15.525c15.525,0,28.225-9.241,28.225-24.595,0-35.645-70.748-26.6-70.748-70.55,0-20.357,17.941-38.087,44.133-38.087,24.595,0,37.9,13.7,37.9,13.7l-6.852,11.7s-12.5-12.093-31.051-12.093c-18.139,0-29.823,11.882-29.823,24.384,0,33.664,70.748,23.988,70.748,70.55,0,21.123-16.331,38.285-42.932,38.285-29.044,0-44.886-18.152-44.886-18.152Z" transform="translate(148.929 0.685)" fill="#fff"/>
        <g id="Grupo_573" data-name="Grupo 573" transform="translate(451.341)" style="mix-blend-mode: screen;isolation: isolate">
          <path id="Caminho_927" data-name="Caminho 927" d="M419.123,4.449a72.925,72.925,0,1,1-.079,0m0-4.449a77.406,77.406,0,1,0,.079,0Z" transform="translate(-341.88)" fill="#fff"/>
        </g>
        <path id="Caminho_928" data-name="Caminho 928" d="M417.215,6a69.441,69.441,0,1,0,69.468,69.375A69.441,69.441,0,0,0,417.215,6Zm0,102.208a32.806,32.806,0,1,0,0-.053Z" transform="translate(111.357 1.921)" fill="url(#linear-gradient)"/>
        <path id="Caminho_929" data-name="Caminho 929" d="M364.042,76.29a18.311,18.311,0,0,0-.739,25.889h0a69.454,69.454,0,0,0,98.168,2.72l.568-.554L436.863,77.729l-.581.568a32.78,32.78,0,0,1-46.338-1.32h0a18.311,18.311,0,0,0-25.9-.686Z" transform="translate(114.719 22.815)" fill="url(#linear-gradient-2)"/>
        <path id="Caminho_930" data-name="Caminho 930" d="M388.346,111.567a18.337,18.337,0,0,0,19.235,17.321h0a69.428,69.428,0,0,0,65.732-72.953V55.13l-36.648,1.941a3.322,3.322,0,0,0,.066.805,32.793,32.793,0,0,1-31.024,34.443h0a18.324,18.324,0,0,0-17.36,19.248Z" transform="translate(124.331 17.651)" fill="url(#linear-gradient-3)"/>
        <path id="Caminho_931" data-name="Caminho 931" d="M420.715,119.053A18.337,18.337,0,0,0,446.6,118h0a69.441,69.441,0,0,0-4.066-98.115l-.594-.541L417.124,46.311l.607.528a32.793,32.793,0,0,1,1.914,46.312h0A18.324,18.324,0,0,0,420.715,119.053Z" transform="translate(132.808 6.192)" fill="url(#linear-gradient-4)"/>
        <path id="Caminho_932" data-name="Caminho 932" d="M451.682,93.712A18.337,18.337,0,0,0,470.046,75.4h0A69.428,69.428,0,0,0,400.579,6h-.819V42.622h.819a32.78,32.78,0,0,1,32.767,32.754h0a18.337,18.337,0,0,0,18.337,18.337Z" transform="translate(127.993 1.921)" fill="url(#linear-gradient-5)"/>
        <path id="Caminho_933" data-name="Caminho 933" d="M461.522,52.217a18.337,18.337,0,0,0,0-25.915h0a69.454,69.454,0,0,0-98.208,0l-.555.581L388.688,52.8c.185-.2.356-.4.554-.581a32.767,32.767,0,0,1,46.351,0h0a18.351,18.351,0,0,0,25.928,0Z" transform="translate(116.147 1.91)" fill="url(#linear-gradient-6)"/>
        <path id="Caminho_934" data-name="Caminho 934" d="M435.542,24.271A18.337,18.337,0,0,0,417.231,6h0A69.431,69.431,0,0,0,347.79,75.441v.792h36.661v-.805a32.78,32.78,0,0,1,32.78-32.78h0A18.337,18.337,0,0,0,435.542,24.271Z" transform="translate(111.354 1.921)" fill="#ed2224"/>
        <g id="Grupo_574" data-name="Grupo 574" transform="translate(458.061 7.103)" style="mix-blend-mode: multiply;isolation: isolate">
          <path id="Caminho_935" data-name="Caminho 935" d="M417.164,9.42A66.174,66.174,0,1,1,370.39,28.813,66.167,66.167,0,0,1,417.164,9.42m0-4.04a70.195,70.195,0,1,0,.013,0Z" transform="translate(-346.97 -5.38)" fill="url(#radial-gradient)"/>
        </g>
        <g id="Grupo_575" data-name="Grupo 575" transform="translate(461.018 10.073)" opacity="0.2" style="mix-blend-mode: soft-light;isolation: isolate">
          <path id="Caminho_936" data-name="Caminho 936" d="M416.447,42.047a13.581,13.581,0,1,0,0,.026m0-34.417a67.09,67.09,0,1,0,0-.026Z" transform="translate(-349.21 -7.63)" fill="url(#radial-gradient-2)"/>
        </g>
        <g id="Grupo_576" data-name="Grupo 576" transform="translate(460.49 9.584)" style="mix-blend-mode: soft-light;isolation: isolate">
          <path id="Caminho_937" data-name="Caminho 937" d="M416.575,20.62a54.408,54.408,0,1,1-.04,0m0-13.36a67.638,67.638,0,1,1-.009,0Z" transform="translate(-348.81 -7.26)" fill="url(#radial-gradient-3)"/>
        </g>
        <path id="Caminho_938" data-name="Caminho 938" d="M3.538,142.18v16.093H0V142.18Z" transform="translate(0 45.522)" fill="#fff"/>
        <path id="Caminho_939" data-name="Caminho 939" d="M9.912,142.18l6.72,10.8h0v-10.8H20v16.093H16.433L9.832,147.5h0v10.773H6.4V142.18Z" transform="translate(2.049 45.522)" fill="#fff"/>
        <path id="Caminho_940" data-name="Caminho 940" d="M20.431,147.026a7.8,7.8,0,0,1,1.558-2.64,7.1,7.1,0,0,1,2.482-1.8,8.753,8.753,0,0,1,6.667,0,7.049,7.049,0,0,1,2.469,1.8,7.8,7.8,0,0,1,1.558,2.64,9.875,9.875,0,0,1,.541,3.353,9.518,9.518,0,0,1-.541,3.274,7.617,7.617,0,0,1-1.558,2.64,7.154,7.154,0,0,1-2.469,1.769,9.083,9.083,0,0,1-6.667,0,7.208,7.208,0,0,1-2.482-1.769,7.617,7.617,0,0,1-1.558-2.64,9.519,9.519,0,0,1-.541-3.274,9.875,9.875,0,0,1,.541-3.353Zm3.234,5.281a5.505,5.505,0,0,0,.752,1.729,3.96,3.96,0,0,0,1.32,1.228,4.7,4.7,0,0,0,4.066,0,3.96,3.96,0,0,0,1.32-1.228,5.505,5.505,0,0,0,.752-1.729,8.106,8.106,0,0,0,.238-1.967,8.793,8.793,0,0,0-.238-2.059,5.6,5.6,0,0,0-.752-1.769,3.961,3.961,0,0,0-1.32-1.241,4.7,4.7,0,0,0-4.066,0,3.961,3.961,0,0,0-1.32,1.241,5.6,5.6,0,0,0-.753,1.769,8.792,8.792,0,0,0-.238,2.059,8.106,8.106,0,0,0,.238,2.007Z" transform="translate(6.368 45.443)" fill="#fff"/>
        <path id="Caminho_941" data-name="Caminho 941" d="M38.971,158.273l-5.2-16.093H37.4l3.578,11.314h0l3.657-11.314h3.657l-5.347,16.093Z" transform="translate(10.812 45.522)" fill="#fff"/>
        <path id="Caminho_942" data-name="Caminho 942" d="M54.852,142.18l5.967,16.093h-3.63L55.975,154.7h-6.02l-1.32,3.578H45.07l6.086-16.093Zm.2,9.875-2.033-5.9h0l-2.1,5.9Z" transform="translate(14.43 45.522)" fill="#fff"/>
        <path id="Caminho_943" data-name="Caminho 943" d="M69.96,146.564a3.6,3.6,0,0,0-.792-.885,3.525,3.525,0,0,0-1.069-.594,3.631,3.631,0,0,0-1.32-.224,4.158,4.158,0,0,0-2.02.462,3.855,3.855,0,0,0-1.32,1.241,5.6,5.6,0,0,0-.753,1.769,8.792,8.792,0,0,0-.238,2.059,8.106,8.106,0,0,0,.238,1.967,5.5,5.5,0,0,0,.753,1.729,3.961,3.961,0,0,0,1.32,1.228,4.158,4.158,0,0,0,2.02.462,3.274,3.274,0,0,0,2.535-.99,4.647,4.647,0,0,0,1.122-2.64h3.419a7.921,7.921,0,0,1-.7,2.64,6.324,6.324,0,0,1-1.479,2.059,6.745,6.745,0,0,1-2.139,1.32,8,8,0,0,1-2.64.475l-.581.819h0a1.98,1.98,0,0,1,.766-.119,3.682,3.682,0,0,1,.766.092,2.64,2.64,0,0,1,.66.277,1.571,1.571,0,0,1,.475.5,1.32,1.32,0,0,1,.172.713,2.323,2.323,0,0,1-.224,1.1,1.769,1.769,0,0,1-.594.686,2.125,2.125,0,0,1-.845.37,4.675,4.675,0,0,1-.964.092H65.6a4.437,4.437,0,0,1-.686-.106,3.959,3.959,0,0,1-.594-.158l-.594-.2.475-1.083a5.111,5.111,0,0,0,.832.277,3.789,3.789,0,0,0,1.056.132,1.122,1.122,0,0,0,.66-.185A.687.687,0,0,0,67,161.27a.607.607,0,0,0-.264-.581,1.32,1.32,0,0,0-.647-.145,2.416,2.416,0,0,0-.9.158l-.475-.541L65.8,158.6a7.459,7.459,0,0,1-2.931-.871,7.063,7.063,0,0,1-2.178-1.809,7.788,7.788,0,0,1-1.32-2.535,9.967,9.967,0,0,1-.462-3.05,10.2,10.2,0,0,1,.541-3.353,8.013,8.013,0,0,1,1.558-2.64,7.1,7.1,0,0,1,2.482-1.8,8.172,8.172,0,0,1,3.327-.66,8.33,8.33,0,0,1,2.522.383,6.758,6.758,0,0,1,2.112,1.122A6.046,6.046,0,0,1,73,145.2a6.443,6.443,0,0,1,.766,2.482H70.369A3.023,3.023,0,0,0,69.96,146.564Z" transform="translate(18.861 45.429)" fill="#fff"/>
        <path id="Caminho_944" data-name="Caminho 944" d="M81.919,143.349l6.02,16.093h-3.67l-1.215-3.578h-6.02l-1.32,3.578H72.15l6.086-16.093Zm.832-2.152a2.126,2.126,0,0,0,.726-.647,3.2,3.2,0,0,0,.462-.924,7,7,0,0,0,.277-1.1H82.777a1.426,1.426,0,0,1-.343.739.845.845,0,0,1-.62.224,2.1,2.1,0,0,1-.739-.145c-.251-.092-.5-.211-.779-.343a7.789,7.789,0,0,0-.832-.33,2.469,2.469,0,0,0-.871-.145,2.112,2.112,0,0,0-1.056.251,3.037,3.037,0,0,0-.792.686,3.089,3.089,0,0,0-.541.924,5.2,5.2,0,0,0-.251,1.043h1.413a2.165,2.165,0,0,1,.356-.805.805.805,0,0,1,.66-.3,2.06,2.06,0,0,1,.753.172c.251.119.5.238.766.383a5.477,5.477,0,0,0,.845.383,2.483,2.483,0,0,0,.951.172,2.232,2.232,0,0,0,1.056-.238Zm-.62,12.027-2.033-5.9h0l-2.1,5.9Z" transform="translate(23.101 44.354)" fill="#fff"/>
        <path id="Caminho_945" data-name="Caminho 945" d="M86.541,147.023a8.238,8.238,0,0,1,1.558-2.64,7.036,7.036,0,0,1,2.5-1.8,8.713,8.713,0,0,1,6.6,0,7.1,7.1,0,0,1,2.482,1.8,8.014,8.014,0,0,1,1.558,2.64,10.205,10.205,0,0,1,.541,3.353,9.848,9.848,0,0,1-.541,3.274,7.828,7.828,0,0,1-1.558,2.64A7.208,7.208,0,0,1,97.2,158.06a9.056,9.056,0,0,1-6.6,0,7.142,7.142,0,0,1-2.5-1.769,8.053,8.053,0,0,1-1.558-2.64A9.848,9.848,0,0,1,86,150.376a10.2,10.2,0,0,1,.541-3.353Zm3.234,5.281a5.28,5.28,0,0,0,.766,1.729,3.96,3.96,0,0,0,1.32,1.228,4.673,4.673,0,0,0,4.053,0,4.066,4.066,0,0,0,1.32-1.228,5.505,5.505,0,0,0,.752-1.729,8.106,8.106,0,0,0,.238-1.967,8.792,8.792,0,0,0-.238-2.059,5.6,5.6,0,0,0-.752-1.769,3.961,3.961,0,0,0-1.32-1.241,4.673,4.673,0,0,0-4.053,0,3.961,3.961,0,0,0-1.32,1.241,5.281,5.281,0,0,0-.766,1.769,8.792,8.792,0,0,0-.238,2.059,8.106,8.106,0,0,0,.238,2.007Z" transform="translate(27.535 45.445)" fill="#fff"/>
        <path id="Caminho_946" data-name="Caminho 946" d="M118.576,157.779a7.63,7.63,0,0,1-3.895.924,8.3,8.3,0,0,1-3.327-.634,7.143,7.143,0,0,1-2.5-1.769,8.053,8.053,0,0,1-1.558-2.64,9.848,9.848,0,0,1-.541-3.274,10.2,10.2,0,0,1,.541-3.353,8.238,8.238,0,0,1,1.558-2.64,7.037,7.037,0,0,1,2.5-1.8,8.713,8.713,0,0,1,6.6,0,7.1,7.1,0,0,1,2.482,1.8,8.239,8.239,0,0,1,1.558,2.64,10.205,10.205,0,0,1,.541,3.353,9.716,9.716,0,0,1-.541,3.261,8.4,8.4,0,0,1-1.558,2.64l2.007,1.822-1.65,1.716Zm-.515-3.71a4.91,4.91,0,0,0,.713-1.518,7.406,7.406,0,0,0,.277-2.178,8.794,8.794,0,0,0-.238-2.059,5.6,5.6,0,0,0-.752-1.769,4.092,4.092,0,0,0-1.32-1.241,4.673,4.673,0,0,0-4.053,0,4.093,4.093,0,0,0-1.32,1.241,5.466,5.466,0,0,0-.752,1.769,8.687,8.687,0,0,0-.238,2.046,8.106,8.106,0,0,0,.238,1.967,5.28,5.28,0,0,0,.752,1.716,3.961,3.961,0,0,0,1.32,1.228,4.172,4.172,0,0,0,2.033.462,6.593,6.593,0,0,0,.845,0,2.138,2.138,0,0,0,.568-.158l-1.5-1.386,1.637-1.756Z" transform="translate(34.182 45.448)" fill="#fff"/>
        <path id="Caminho_947" data-name="Caminho 947" d="M133.79,157.048a8.872,8.872,0,0,1-10.1,0,6.152,6.152,0,0,1-1.8-4.871V142.17h3.538v10.007a8.1,8.1,0,0,0,.106,1.32,2.514,2.514,0,0,0,1.479,1.914,4.185,4.185,0,0,0,1.729.3,3.366,3.366,0,0,0,2.64-.845,4.079,4.079,0,0,0,.726-2.64V142.223h3.538V152.23a6.112,6.112,0,0,1-1.861,4.819Z" transform="translate(39.021 45.519)" fill="#fff"/>
        <path id="Caminho_948" data-name="Caminho 948" d="M147.974,142.18v2.97h-8.489v3.459h7.789v2.746h-7.789v3.961h8.674v2.97H136V142.18Z" transform="translate(43.544 45.522)" fill="#fff"/>
        <path id="Caminho_949" data-name="Caminho 949" d="M158.015,142.18l6.72,10.8h0v-10.8h3.314v16.093H164.51L157.8,147.5h0v10.773H154.49V142.18Z" transform="translate(49.464 45.522)" fill="#fff"/>
        <path id="Caminho_950" data-name="Caminho 950" d="M168.521,147.023a8.014,8.014,0,0,1,1.558-2.64,7.036,7.036,0,0,1,2.5-1.8,8.713,8.713,0,0,1,6.6,0,7.1,7.1,0,0,1,2.482,1.8,8.238,8.238,0,0,1,1.558,2.64,10.206,10.206,0,0,1,.541,3.353,9.849,9.849,0,0,1-.541,3.274,8.053,8.053,0,0,1-1.558,2.64,7.208,7.208,0,0,1-2.482,1.769,9.043,9.043,0,0,1-6.6,0,7.142,7.142,0,0,1-2.5-1.769,7.829,7.829,0,0,1-1.558-2.64,9.849,9.849,0,0,1-.541-3.274,10.2,10.2,0,0,1,.541-3.353Zm3.234,5.281a5.506,5.506,0,0,0,.753,1.729,4.066,4.066,0,0,0,1.32,1.228,4.673,4.673,0,0,0,4.053,0,3.96,3.96,0,0,0,1.32-1.228,5.281,5.281,0,0,0,.766-1.729,8.105,8.105,0,0,0,.238-1.967,8.794,8.794,0,0,0-.238-2.059,5.281,5.281,0,0,0-.766-1.769,3.961,3.961,0,0,0-1.32-1.241,4.673,4.673,0,0,0-4.053,0,3.961,3.961,0,0,0-1.32,1.241,5.6,5.6,0,0,0-.753,1.769,8.792,8.792,0,0,0-.238,2.059,8.107,8.107,0,0,0,.238,2.007Z" transform="translate(53.783 45.445)" fill="#fff"/>
        <path id="Caminho_951" data-name="Caminho 951" d="M186.157,154.408a2.482,2.482,0,0,0,.779.911,3.591,3.591,0,0,0,1.135.515,5.7,5.7,0,0,0,1.32.172,7,7,0,0,0,1.017-.079,3.775,3.775,0,0,0,1.017-.3,2.3,2.3,0,0,0,.792-.621,1.624,1.624,0,0,0,.3-1,1.386,1.386,0,0,0-.409-1.056,3.314,3.314,0,0,0-1.1-.687,11.791,11.791,0,0,0-1.531-.462c-.568-.145-1.149-.29-1.729-.462a16.133,16.133,0,0,1-1.769-.541,6.351,6.351,0,0,1-1.531-.845,3.961,3.961,0,0,1-1.083-1.32,3.749,3.749,0,0,1-.423-1.875,4.159,4.159,0,0,1,.528-2.152,4.779,4.779,0,0,1,1.386-1.518,5.967,5.967,0,0,1,1.941-.911,8.066,8.066,0,0,1,2.165-.29,10.35,10.35,0,0,1,2.416.277,6.1,6.1,0,0,1,2.059.924,4.462,4.462,0,0,1,1.439,1.611,4.858,4.858,0,0,1,.528,2.376h-3.432a2.64,2.64,0,0,0-.3-1.2,1.954,1.954,0,0,0-.686-.739,2.8,2.8,0,0,0-.977-.383,5.7,5.7,0,0,0-1.2-.119,4.619,4.619,0,0,0-.858.092,2.548,2.548,0,0,0-.779.317,1.98,1.98,0,0,0-.581.568,1.531,1.531,0,0,0-.224.858,1.466,1.466,0,0,0,.185.766,1.716,1.716,0,0,0,.713.541,9.4,9.4,0,0,0,1.465.488l2.442.634c.3.066.713.172,1.254.33a6.166,6.166,0,0,1,1.584.753,4.7,4.7,0,0,1,1.32,1.32,3.961,3.961,0,0,1,.581,2.218,4.779,4.779,0,0,1-.436,2.046,4.33,4.33,0,0,1-1.32,1.637,6.045,6.045,0,0,1-2.1,1.069,9.585,9.585,0,0,1-2.891.383,10.561,10.561,0,0,1-2.64-.317,6.772,6.772,0,0,1-2.2-1.03,4.978,4.978,0,0,1-1.518-1.782,5.281,5.281,0,0,1-.541-2.64h3.617a2.984,2.984,0,0,0,.277,1.531Z" transform="translate(58.353 45.426)" fill="#fff"/>
        <path id="Caminho_952" data-name="Caminho 952" d="M212.2,146.554a3.829,3.829,0,0,0-.779-.885,3.445,3.445,0,0,0-1.083-.594,3.565,3.565,0,0,0-1.241-.224,4.172,4.172,0,0,0-2.033.462,3.961,3.961,0,0,0-1.32,1.241,5.281,5.281,0,0,0-.766,1.769,8.793,8.793,0,0,0-.224,2.059,8.1,8.1,0,0,0,.224,1.967,5.281,5.281,0,0,0,.766,1.729,3.96,3.96,0,0,0,1.32,1.228,4.171,4.171,0,0,0,2.033.462,3.274,3.274,0,0,0,2.535-.99,4.634,4.634,0,0,0,1.109-2.64h3.432a8.317,8.317,0,0,1-.7,2.72,6.337,6.337,0,0,1-3.657,3.38,7.789,7.789,0,0,1-2.72.449,8.3,8.3,0,0,1-3.327-.634,7.143,7.143,0,0,1-2.5-1.769,8.053,8.053,0,0,1-1.558-2.64,9.848,9.848,0,0,1-.541-3.274,10.2,10.2,0,0,1,.541-3.353,8.239,8.239,0,0,1,1.558-2.64,7.037,7.037,0,0,1,2.5-1.8,8.093,8.093,0,0,1,3.327-.66,8.238,8.238,0,0,1,2.508.383,6.6,6.6,0,0,1,2.112,1.122,5.69,5.69,0,0,1,1.545,1.809,6.218,6.218,0,0,1,.766,2.482h-3.419A3.022,3.022,0,0,0,212.2,146.554Z" transform="translate(64.413 45.439)" fill="#fff"/>
        <path id="Caminho_953" data-name="Caminho 953" d="M215.741,147.026a8.013,8.013,0,0,1,1.558-2.64,7.1,7.1,0,0,1,2.482-1.8,8.753,8.753,0,0,1,6.667,0,7.235,7.235,0,0,1,2.482,1.8,7.92,7.92,0,0,1,1.545,2.64,9.874,9.874,0,0,1,.541,3.353,9.518,9.518,0,0,1-.541,3.274,7.8,7.8,0,0,1-1.545,2.64,7.339,7.339,0,0,1-2.482,1.769,9.083,9.083,0,0,1-6.667,0,7.208,7.208,0,0,1-2.482-1.769,7.828,7.828,0,0,1-1.558-2.64,9.849,9.849,0,0,1-.541-3.274,10.205,10.205,0,0,1,.541-3.353Zm3.234,5.281a5.5,5.5,0,0,0,.752,1.729,3.961,3.961,0,0,0,1.32,1.228,4.673,4.673,0,0,0,4.053,0,3.96,3.96,0,0,0,1.32-1.228,5.531,5.531,0,0,0,.766-1.729,8.807,8.807,0,0,0,.224-1.967,9.558,9.558,0,0,0-.225-2.06,5.624,5.624,0,0,0-.766-1.769,3.96,3.96,0,0,0-1.32-1.241,4.673,4.673,0,0,0-4.053,0,3.855,3.855,0,0,0-1.32,1.241,5.6,5.6,0,0,0-.753,1.769,8.791,8.791,0,0,0-.238,2.059,8.106,8.106,0,0,0,.238,2.007Z" transform="translate(68.902 45.443)" fill="#fff"/>
        <path id="Caminho_954" data-name="Caminho 954" d="M233.826,142.18l6.72,10.8h0v-10.8h3.314v16.093h-3.432L233.734,147.5h0v10.773H230.42V142.18Z" transform="translate(73.775 45.522)" fill="#fff"/>
        <path id="Caminho_955" data-name="Caminho 955" d="M256.424,142.18v2.97h-8.5v3.459h7.829v2.746h-7.8v3.961h8.674v2.97H244.41V142.18Z" transform="translate(78.254 45.522)" fill="#fff"/>
        <path id="Caminho_956" data-name="Caminho 956" d="M267.33,146.551a3.6,3.6,0,0,0-.792-.885,3.526,3.526,0,0,0-1.069-.594,3.631,3.631,0,0,0-1.32-.224,4.158,4.158,0,0,0-2.02.462,3.96,3.96,0,0,0-1.32,1.241,5.6,5.6,0,0,0-.753,1.769,8.791,8.791,0,0,0-.238,2.059,8.106,8.106,0,0,0,.238,1.967,5.5,5.5,0,0,0,.753,1.729,4.066,4.066,0,0,0,1.32,1.228,4.158,4.158,0,0,0,2.02.462,3.274,3.274,0,0,0,2.535-.99,4.646,4.646,0,0,0,1.122-2.64h3.419a7.712,7.712,0,0,1-.7,2.72,6.428,6.428,0,0,1-1.479,2.073,6.6,6.6,0,0,1-2.165,1.32,7.921,7.921,0,0,1-2.733.449,8.4,8.4,0,0,1-3.327-.634,7.208,7.208,0,0,1-2.482-1.769,7.827,7.827,0,0,1-1.558-2.64,9.848,9.848,0,0,1-.541-3.274,10.206,10.206,0,0,1,.541-3.353,8.013,8.013,0,0,1,1.558-2.64,7.1,7.1,0,0,1,2.482-1.8,8.173,8.173,0,0,1,3.327-.66,8.329,8.329,0,0,1,2.521.383,6.759,6.759,0,0,1,2.112,1.122,6.046,6.046,0,0,1,1.663,1.756,6.444,6.444,0,0,1,.766,2.482H267.8A3.023,3.023,0,0,0,267.33,146.551Z" transform="translate(82.042 45.442)" fill="#fff"/>
        <path id="Caminho_957" data-name="Caminho 957" d="M269.88,145.15v-2.97h13.2v2.97H278.25v13.123h-3.538V145.15Z" transform="translate(86.409 45.522)" fill="#fff"/>
        <path id="Caminho_958" data-name="Caminho 958" d="M289.5,142.18l6.02,16.093h-3.683l-1.215-3.578H284.6l-1.254,3.578H279.78l6.086-16.093Zm.2,9.875-2.02-5.9h0l-2.1,5.9Z" transform="translate(89.579 45.522)" fill="#fff"/>
        <path id="Caminho_959" data-name="Caminho 959" d="M308.65,142.18l6.02,16.093H311l-1.228-3.578h-6.007l-1.32,3.578H299l6.086-16.093Zm.2,9.875-2.02-5.9h0l-2.086,5.9Z" transform="translate(95.732 45.522)" fill="#fff"/>
        <path id="Caminho_960" data-name="Caminho 960" d="M323.311,158.273l-5.2-16.093h3.617l3.591,11.314h0l3.63-11.314h3.657l-5.347,16.093Z" transform="translate(101.851 45.522)" fill="#fff"/>
        <path id="Caminho_961" data-name="Caminho 961" d="M331.531,147.023a8.236,8.236,0,0,1,1.558-2.64,7.036,7.036,0,0,1,2.5-1.8,8.713,8.713,0,0,1,6.6,0,7.1,7.1,0,0,1,2.482,1.8,8.014,8.014,0,0,1,1.558,2.64,10.205,10.205,0,0,1,.541,3.353,9.851,9.851,0,0,1-.541,3.274,7.829,7.829,0,0,1-1.558,2.64,7.208,7.208,0,0,1-2.482,1.769,9.043,9.043,0,0,1-6.6,0,7.142,7.142,0,0,1-2.5-1.769,8.053,8.053,0,0,1-1.558-2.64,9.85,9.85,0,0,1-.541-3.274,10.2,10.2,0,0,1,.541-3.353Zm3.234,5.281a5.281,5.281,0,0,0,.766,1.729,3.961,3.961,0,0,0,1.32,1.228,4.673,4.673,0,0,0,4.053,0,4.067,4.067,0,0,0,1.32-1.228,5.506,5.506,0,0,0,.753-1.729,8.107,8.107,0,0,0,.238-1.967,8.8,8.8,0,0,0-.238-2.059,5.6,5.6,0,0,0-.753-1.769,3.96,3.96,0,0,0-1.32-1.241,4.673,4.673,0,0,0-4.053,0,3.961,3.961,0,0,0-1.32,1.241,5.281,5.281,0,0,0-.766,1.769,8.79,8.79,0,0,0-.238,2.059,8.1,8.1,0,0,0,.238,2.007Z" transform="translate(105.975 45.445)" fill="#fff"/>
        <path id="Caminho_962" data-name="Caminho 962" d="M356.674,146.551a3.6,3.6,0,0,0-.792-.885,3.527,3.527,0,0,0-1.069-.594,3.631,3.631,0,0,0-1.254-.224,4.158,4.158,0,0,0-2.02.462,3.961,3.961,0,0,0-1.32,1.241,5.6,5.6,0,0,0-.753,1.769,8.79,8.79,0,0,0-.238,2.059,8.105,8.105,0,0,0,.238,1.967,5.508,5.508,0,0,0,.752,1.729,4.066,4.066,0,0,0,1.32,1.228,4.158,4.158,0,0,0,2.02.462,3.274,3.274,0,0,0,2.535-.99,4.568,4.568,0,0,0,1.122-2.64h3.419a8,8,0,0,1-.686,2.72,6.667,6.667,0,0,1-1.492,2.073,6.415,6.415,0,0,1-2.165,1.32,7.921,7.921,0,0,1-2.733.449,8.291,8.291,0,0,1-3.314-.634,7.142,7.142,0,0,1-2.5-1.769,7.828,7.828,0,0,1-1.558-2.64,9.846,9.846,0,0,1-.541-3.274,10.2,10.2,0,0,1,.541-3.353,8.014,8.014,0,0,1,1.558-2.64,7.037,7.037,0,0,1,2.5-1.8,8.066,8.066,0,0,1,3.314-.66,8.262,8.262,0,0,1,2.522.383,6.759,6.759,0,0,1,2.112,1.122,6.046,6.046,0,0,1,1.545,1.809,6.442,6.442,0,0,1,.766,2.482H357.07a3.024,3.024,0,0,0-.4-1.175Z" transform="translate(110.668 45.442)" fill="#fff"/>
        <path id="Caminho_963" data-name="Caminho 963" d="M372.217,143.307v2.97h-8.489v3.459h7.789v2.746h-7.789v3.961H372.4v2.97H360.19V143.307Zm-4.462-4.647,2.482,3.208H367.6l-1.4-1.822-1.439,1.822h-2.4l2.469-3.208Z" transform="translate(115.324 44.395)" fill="#fff"/>
      </g>
    </g>
  </g>
</svg>
