<svg xmlns="http://www.w3.org/2000/svg" xmlns:xlink="http://www.w3.org/1999/xlink" width="179.647" height="87.177" viewBox="0 0 179.647 87.177">
  <defs>
    <clipPath id="clip-path">
      <rect id="Retângulo_2957" data-name="Retângulo 2957" width="179.647" height="87.177" transform="translate(0 0)" fill="none"/>
    </clipPath>
  </defs>
  <g id="Grupo_3401" data-name="Grupo 3401" transform="translate(0 0.002)">
    <g id="Grupo_3265" data-name="Grupo 3265" transform="translate(0 -0.002)" clip-path="url(#clip-path)">
      <path id="Caminho_4689" data-name="Caminho 4689" d="M2595.277,195.22a11.081,11.081,0,0,0,2.149-2.474c.748-1.694-.275-3.585-1.163-5.167s-1.634-3.738-.488-5.169c.819-1.022,2.316-1.215,3.084-2.281,1.2-1.672-.17-3.956-.268-6.036a4.767,4.767,0,0,1,3.141-4.653,4.215,4.215,0,0,1,4.893,2.171c1.326,2.674.115,6.727,2.438,8.467a13.438,13.438,0,0,0,2.021.984c2.587,1.335,3.476,5.35,1.738,7.85a8.109,8.109,0,0,0-1.094,1.65,3.79,3.79,0,0,0,.982,3.606,16,16,0,0,1,2.432,2.954c1.2,2.43-.135,5.641-2.311,7.217-3.162,2.291-10.213,3.01-13.878,1.684-3.873-1.4-6.925-7.037-3.676-10.8" transform="translate(-2476.467 -161.609)" fill="#ecf5f7"/>
      <path id="Caminho_4690" data-name="Caminho 4690" d="M2800.567,540.1l-.86-.044a109.376,109.376,0,0,0-.218-39.473l.255-.049a109.37,109.37,0,0,1,1.9,18.648c.109,6.986.148,14.023-1.074,20.917" transform="translate(-2672.741 -477.869)" fill="#19c6d8"/>
      <path id="Caminho_4691" data-name="Caminho 4691" d="M2822.277,537.939l-.217-.148a11.2,11.2,0,0,1,5.423-4.253l.089.247a10.938,10.938,0,0,0-5.294,4.153" transform="translate(-2694.29 -509.383)" fill="#19c6d8"/>
      <path id="Caminho_4692" data-name="Caminho 4692" d="M2842.011,804.054l-.217-.148a11.2,11.2,0,0,1,5.423-4.252l.089.247a10.939,10.939,0,0,0-5.294,4.153" transform="translate(-2713.132 -763.45)" fill="#19c6d8"/>
      <path id="Caminho_4693" data-name="Caminho 4693" d="M2729.784,689.183a6.921,6.921,0,0,0-5.024-3.448l.035-.26a7.185,7.185,0,0,1,5.217,3.578Z" transform="translate(-2601.396 -654.44)" fill="#19c6d8"/>
      <path id="Caminho_4694" data-name="Caminho 4694" d="M2845.062,32.7c.905-1.049,2.141-1.833,2.708-3.118.944-2.136-.345-4.519-1.466-6.513s-2.059-4.711-.615-6.515c1.032-1.288,2.919-1.532,3.887-2.875,1.518-2.107-.215-4.987-.337-7.609A6.007,6.007,0,0,1,2853.2.208a5.314,5.314,0,0,1,6.168,2.736c1.671,3.371.145,8.479,3.072,10.672a16.937,16.937,0,0,0,2.547,1.241c3.261,1.683,4.382,6.743,2.192,9.9a10.213,10.213,0,0,0-1.38,2.08c-.593,1.561.2,3.308,1.237,4.545s2.341,2.256,3.065,3.723c1.511,3.063-.17,7.11-2.912,9.1-3.985,2.887-12.873,3.794-17.492,2.123-4.882-1.766-8.729-8.869-4.634-13.617" transform="translate(-2714.602 0.002)" fill="#6ee1f4"/>
      <path id="Caminho_4695" data-name="Caminho 4695" d="M3103.819,467.4l-1.084-.055a137.87,137.87,0,0,0-.276-49.753l.323-.061a137.858,137.858,0,0,1,2.391,23.5c.137,8.806.187,17.675-1.354,26.365" transform="translate(-2961.995 -398.628)" fill="#19c6d8"/>
      <path id="Caminho_4696" data-name="Caminho 4696" d="M3131.751,465.346l-.217-.148a14.091,14.091,0,0,1,6.819-5.347l.089.247a13.825,13.825,0,0,0-6.69,5.247" transform="translate(-2989.753 -439.031)" fill="#19c6d8"/>
      <path id="Caminho_4697" data-name="Caminho 4697" d="M3156.624,800.771l-.217-.148a14.09,14.09,0,0,1,6.818-5.347l.089.247a13.823,13.823,0,0,0-6.69,5.247" transform="translate(-3013.5 -759.27)" fill="#19c6d8"/>
      <path id="Caminho_4698" data-name="Caminho 4698" d="M3014.727,656.016a8.758,8.758,0,0,0-6.358-4.363l.035-.26a9.022,9.022,0,0,1,6.551,4.493Z" transform="translate(-2872.165 -621.901)" fill="#19c6d8"/>
      <rect id="Retângulo_2951" data-name="Retângulo 2951" width="0.274" height="0.548" transform="matrix(0.007, -1, 1, 0.007, 18.675, 85.54)" fill="#fff"/>
      <path id="Caminho_4699" data-name="Caminho 4699" d="M604.506,1884.855l-1.09-.007,0-.274,1.09.007Zm-2.18-.015-1.09-.007,0-.274,1.09.007Zm-2.18-.015-1.09-.007,0-.274,1.09.007Zm-2.18-.015-1.09-.007,0-.274,1.09.007Zm-2.18-.015-1.09-.007,0-.274,1.09.007Zm-2.18-.015-1.09-.008,0-.274,1.09.007Zm-2.18-.015-1.09-.007,0-.274,1.09.007Zm-2.18-.015-1.09-.007,0-.274,1.09.007Zm-2.18-.014-1.09-.007,0-.274,1.09.007Zm-2.18-.015-1.09-.007,0-.274,1.09.007Zm-2.18-.015-1.09-.007,0-.274,1.09.007Zm-2.18-.015-1.09-.007,0-.274,1.09.007Zm-2.18-.015-1.09-.007,0-.274,1.09.007Zm-2.18-.015-1.09-.007,0-.274,1.09.007Zm-2.18-.015-1.09-.007,0-.274,1.09.007Zm-2.18-.015-1.09-.007,0-.274,1.09.007Zm-2.18-.014-1.09-.007,0-.274,1.09.007Zm-2.18-.015-1.09-.007,0-.274,1.09.007Zm-2.179-.015-1.09-.007,0-.274,1.09.007Zm-2.18-.014-1.09-.007,0-.274,1.09.007Zm-2.18-.015-1.09-.007,0-.274,1.09.007Zm-2.18-.015-1.09-.007,0-.274,1.09.007Zm-2.18-.015-1.09-.007,0-.274,1.09.007Zm-2.18-.015-1.09-.007,0-.274,1.09.007Zm-2.18-.015-1.09-.007,0-.274,1.09.007Zm-2.18-.015-1.09-.007,0-.274,1.09.007Zm-2.18-.015-1.09-.007,0-.274,1.09.007Zm-2.18-.015-1.09-.007,0-.274,1.09.007Zm-2.18-.015-1.09-.007,0-.274,1.09.007Zm-2.18-.015-1.09-.007,0-.274,1.09.007Zm-2.18-.015-1.09-.007,0-.274,1.09.007Zm-2.18-.015-1.09-.007,0-.274,1.09.007Zm-2.18-.015-1.09-.007,0-.274,1.09.007Zm-2.18-.015-1.09-.007,0-.274,1.09.007Zm-2.18-.014-1.09-.007,0-.274,1.09.007Zm-2.18-.015-1.09-.007,0-.274,1.09.007Zm-2.179-.015-1.09-.007,0-.274,1.09.007Zm-2.18-.015-1.09-.007,0-.274,1.09.007Zm-2.18-.015-1.09-.007,0-.274,1.09.007Zm-2.18-.015-1.09-.007,0-.274,1.09.007Zm-2.18-.015-1.09-.007,0-.274,1.09.007Zm-2.18-.015-1.09-.007,0-.274,1.09.007Zm-2.18-.015-1.09-.007,0-.274,1.09.007Zm-2.18-.015-1.09-.007,0-.274,1.09.007Zm-2.18-.015-1.09-.007,0-.274,1.09.007Zm-2.18-.014-1.09-.007,0-.274,1.09.007Zm-2.18-.015-1.09-.007,0-.274,1.09.007Zm-2.18-.015-1.09-.007,0-.274,1.09.007Zm-2.18-.015-1.09-.007,0-.274,1.09.007Zm-2.18-.015-1.09-.007,0-.274,1.09.007Zm-2.18-.014-1.09-.007,0-.274,1.09.007Zm-2.18-.015-1.09-.007,0-.274,1.09.007Zm-2.18-.015-1.09-.007,0-.274,1.09.007Zm-2.18-.015-1.09-.007,0-.274,1.09.007Zm-2.18-.015-1.09-.007,0-.274,1.09.007Zm-2.18-.015-1.09-.007,0-.274,1.09.007Zm-2.18-.015-1.09-.007,0-.274,1.09.007Zm-2.18-.015-1.09-.007,0-.274,1.09.007Zm-2.18-.015-1.09-.007,0-.274,1.09.007Zm-2.18-.015-1.09-.008,0-.274,1.09.007Zm-2.18-.015-1.09-.007,0-.274,1.09.007Zm-2.18-.015-1.09-.007,0-.274,1.09.007Zm-2.18-.015-1.09-.007,0-.274,1.09.007Zm-2.18-.014-1.09-.007,0-.274,1.09.007Zm-2.18-.015-1.09-.007,0-.274,1.09.007Zm-2.18-.015-1.09-.007,0-.274,1.09.008Zm-2.18-.015-1.09-.007,0-.274,1.09.007Zm-2.18-.015-1.09-.007,0-.274,1.09.007Zm-2.18-.015-1.09-.007,0-.274,1.09.007Zm-2.18-.015-1.09-.007,0-.274,1.09.007Zm-2.18-.015-1.09-.007,0-.274,1.09.007Zm-2.18-.014-1.09-.007,0-.274,1.09.007Z" transform="translate(-428.343 -1798.257)" fill="#fff"/>
      <rect id="Retângulo_2952" data-name="Retângulo 2952" width="0.274" height="0.548" transform="translate(177.253 86.606) rotate(-89.602)" fill="#fff"/>
      <rect id="Retângulo_2953" data-name="Retângulo 2953" width="0.213" height="0.548" transform="translate(13.348 81.878) rotate(-89.612)" fill="#fff"/>
      <path id="Caminho_4700" data-name="Caminho 4700" d="M486.837,1805.258l-1.09-.007,0-.213,1.09.007Zm-2.18-.015-1.09-.007,0-.213,1.09.007Zm-2.18-.015-1.09-.007v-.213l1.09.007Zm-2.18-.015-1.09-.007,0-.213,1.09.007Zm-2.18-.015-1.09-.007,0-.213,1.09.007Zm-2.18-.015-1.09-.007,0-.213,1.09.007Zm-2.18-.015-1.09-.007,0-.213,1.09.008Zm-2.18-.015-1.09-.007,0-.213,1.09.007Zm-2.18-.015-1.09-.007,0-.213,1.09.007Zm-2.18-.015-1.09-.007,0-.213,1.09.007Zm-2.18-.015-1.09-.007v-.213l1.09.007Zm-2.18-.015-1.09-.007,0-.213,1.09.007Zm-2.18-.015-1.09-.007v-.213l1.09.007Zm-2.18-.015-1.09-.007,0-.213,1.09.007Zm-2.18-.015-1.09-.007,0-.213,1.09.007Zm-2.18-.015-1.09-.007,0-.213,1.09.007Zm-2.18-.015-1.09-.007,0-.213,1.09.007Zm-2.18-.015-1.09-.007,0-.213,1.09.007Zm-2.18-.015-1.09-.007,0-.213,1.09.007Zm-2.18-.015-1.09-.007,0-.213,1.09.007Zm-2.18-.015-1.09-.007,0-.213,1.09.007Zm-2.18-.015-1.09-.007,0-.213,1.09.007Zm-2.18-.015-1.09-.007,0-.213,1.09.007Zm-2.18-.015-1.09-.007v-.213l1.09.007Zm-2.18-.015-1.09-.007,0-.213,1.09.007Zm-2.18-.015-1.09-.007,0-.213,1.09.007Zm-2.18-.015-1.09-.007,0-.213,1.09.007Zm-2.18-.015-1.09-.007v-.213l1.09.007Zm-2.18-.015-1.09-.007v-.213l1.09.007Zm-2.18-.015-1.09-.007,0-.213,1.09.007Zm-2.18-.015-1.09-.007,0-.213,1.09.007Zm-2.18-.015-1.09-.007v-.213l1.09.007Zm-2.18-.015-1.09-.007,0-.213,1.09.007Zm-2.18-.015-1.09-.007,0-.213,1.09.007Zm-2.18-.015-1.09-.007,0-.213,1.09.007Zm-2.18-.015-1.09-.007,0-.213,1.09.007Zm-2.179-.015-1.09-.007,0-.213,1.09.007Zm-2.18-.015-1.09-.007v-.213l1.09.007Zm-2.18-.015-1.09-.007,0-.213,1.09.007Zm-2.18-.015-1.09-.007,0-.213,1.09.007Zm-2.18-.015-1.09-.007v-.213l1.09.007Zm-2.18-.015-1.09-.007,0-.213,1.09.007Zm-2.18-.015-1.09-.007v-.213l1.09.007Zm-2.18-.015-1.09-.007v-.213l1.09.007Zm-2.18-.015-1.09-.007v-.213l1.09.007Zm-2.18-.015-1.09-.007,0-.213,1.09.007Zm-2.18-.015-1.09-.007,0-.213,1.09.007Zm-2.18-.015-1.09-.007v-.213l1.09.007Zm-2.18-.015-1.09-.007v-.213l1.09.007Zm-2.18-.015-1.09-.007v-.213l1.09.007Zm-2.18-.015-1.09-.007v-.213l1.09.007Zm-2.18-.015-1.09-.007v-.213l1.09.007Zm-2.18-.015-1.09-.007v-.213l1.09.007Zm-2.18-.015-1.09-.007v-.213l1.09.007Zm-2.18-.015-1.09-.007v-.213l1.09.007Zm-2.18-.015-1.09-.007v-.213l1.09.007Zm-2.18-.015-1.09-.007v-.213l1.09.007Zm-2.18-.015-1.09-.007v-.213l1.09.007Zm-2.18-.015-1.09-.007v-.213l1.09.007Zm-2.18-.015-1.09-.007v-.213l1.09.007Zm-2.18-.015-1.09-.007v-.213l1.09.007Zm-2.18-.015-1.09-.007v-.213l1.09.007Zm-2.18-.015-1.09-.007v-.213l1.09.007Zm-2.18-.015-1.09-.007v-.213l1.09.007Zm-2.18-.015-1.09-.007v-.213l1.09.007Zm-2.18-.015-1.09-.007v-.213l1.09.007Zm-2.18-.015-1.09-.008v-.213l1.09.007Zm-2.18-.015-1.09-.007v-.213l1.09.007Zm-2.18-.015-1.09-.007v-.213l1.09.007Zm-2.18-.015-1.09-.007v-.213l1.09.007Zm-2.18-.015-1.09-.007v-.213l1.09.007Zm-2.18-.014-1.09-.007V1804l1.09.007Z" transform="translate(-316.001 -1722.322)" fill="#fff"/>
      <rect id="Retângulo_2954" data-name="Retângulo 2954" width="0.213" height="0.548" transform="translate(171.926 82.944) rotate(-89.607)" fill="#fff"/>
      <rect id="Retângulo_2955" data-name="Retângulo 2955" width="0.152" height="0.548" transform="translate(8.02 78.216) rotate(-89.616)" fill="#fff"/>
      <path id="Caminho_4701" data-name="Caminho 4701" d="M369.167,1725.661l-1.09-.007v-.152l1.09.007Zm-2.18-.015-1.09-.007v-.152l1.09.007Zm-2.18-.015-1.09-.007v-.152l1.09.007Zm-2.18-.015-1.09-.007v-.152l1.09.007Zm-2.18-.015-1.09-.007v-.152l1.09.007Zm-2.18-.015-1.09-.007v-.152l1.09.007Zm-2.18-.015-1.09-.007v-.152l1.09.007Zm-2.18-.015-1.09-.007v-.152l1.09.007Zm-2.18-.015-1.09-.007v-.152l1.09.007Zm-2.18-.015-1.09-.007v-.152l1.09.007Zm-2.18-.015-1.09-.007v-.152l1.09.007Zm-2.18-.015-1.09-.007v-.152l1.09.007Zm-2.18-.015-1.09-.007v-.152l1.09.007Zm-2.18-.015-1.09-.007v-.152l1.09.007Zm-2.18-.015-1.09-.007v-.152l1.09.007Zm-2.18-.015-1.09-.007v-.152l1.09.007Zm-2.18-.015-1.09-.007v-.152l1.09.007Zm-2.18-.015-1.09-.007v-.152l1.09.007Zm-2.18-.015-1.09-.007v-.152l1.09.007Zm-2.18-.015-1.09-.007v-.152l1.09.007Zm-2.18-.015-1.09-.007v-.152l1.09.007Zm-2.179-.015-1.09-.007v-.152l1.09.007Zm-2.18-.015-1.09-.007v-.152l1.09.007Zm-2.18-.015-1.09-.007v-.152l1.09.007Zm-2.18-.015-1.09-.007v-.152l1.09.007Zm-2.18-.015-1.09-.007v-.152l1.09.007Zm-2.18-.015-1.09-.007v-.152l1.09.007Zm-2.18-.015-1.09-.007v-.152l1.09.007Zm-2.18-.015-1.09-.007v-.152l1.09.007Zm-2.18-.015-1.09-.007v-.152l1.09.007Zm-2.18-.015-1.09-.007v-.152l1.09.007Zm-2.18-.015-1.09-.007v-.152l1.09.007Zm-2.18-.015-1.09-.007v-.152l1.09.007Zm-2.18-.015-1.09-.007v-.152l1.09.007Zm-2.18-.015-1.09-.007V1725l1.09.007Zm-2.18-.015-1.09-.007v-.152l1.09.007Zm-2.18-.015-1.09-.007v-.152l1.09.007Zm-2.18-.015-1.09-.007v-.152l1.09.007Zm-2.18-.015-1.09-.007v-.152l1.09.007Zm-2.18-.015-1.09-.007v-.152l1.09.007Zm-2.179-.015-1.09-.007v-.152l1.09.007Zm-2.18-.015-1.09-.007v-.152l1.09.007Zm-2.18-.015-1.09-.007v-.152l1.09.007Zm-2.18-.015-1.09-.007v-.152l1.09.007Zm-2.18-.015-1.09-.007v-.152l1.09.007Zm-2.18-.015-1.09-.007v-.152l1.09.007Zm-2.18-.015-1.09-.007v-.152l1.09.007Zm-2.18-.015-1.09-.007v-.152l1.09.007Zm-2.18-.015-1.09-.007v-.152l1.09.007Zm-2.18-.015-1.09-.007v-.152l1.09.007Zm-2.18-.015-1.09-.007v-.152l1.09.007Zm-2.18-.015-1.09-.007v-.152l1.09.007Zm-2.18-.015-1.09-.007v-.152l1.09.007Zm-2.18-.015-1.09-.007v-.152l1.09.007Zm-2.18-.015-1.09-.007v-.152l1.09.007Zm-2.18-.014-1.09-.007v-.152l1.09.007Zm-2.18-.015-1.09-.007v-.152l1.09.007Zm-2.18-.015-1.09-.007v-.152l1.09.007Zm-2.18-.015-1.09-.007v-.152l1.09.007Zm-2.18-.015-1.09-.007v-.152l1.09.007Zm-2.18-.015-1.09-.007v-.152l1.09.007Zm-2.18-.015-1.09-.007v-.152l1.09.007Zm-2.18-.015-1.09-.007v-.152l1.09.007Zm-2.18-.014-1.09-.008v-.152l1.09.007Zm-2.18-.015-1.09-.007v-.152l1.09.007Zm-2.18-.015-1.09-.007v-.152l1.09.007Zm-2.18-.015-1.09-.007v-.152l1.09.007Zm-2.18-.015-1.09-.007v-.152l1.09.008Zm-2.18-.014-1.09-.007v-.152l1.09.007Zm-2.18-.015-1.09-.007v-.152l1.09.007Zm-2.18-.015-1.09-.007v-.152l1.09.007Zm-2.18-.014-1.09-.007v-.152l1.09.007Z" transform="translate(-203.659 -1646.387)" fill="#fff"/>
      <path id="Caminho_4702" data-name="Caminho 4702" d="M3680.231,1747.91l-.547,0v-.152l.548,0Z" transform="translate(-3513.085 -1668.624)" fill="#fff"/>
      <rect id="Retângulo_2956" data-name="Retângulo 2956" width="0.091" height="0.548" transform="translate(2.693 74.555) rotate(-89.626)" fill="#fff"/>
      <path id="Caminho_4703" data-name="Caminho 4703" d="M251.5,1646.065l-1.09-.007v-.091l1.09.007Zm-2.18-.014-1.09-.008v-.091l1.09.007Zm-2.18-.015-1.09-.007v-.091l1.09.007Zm-2.18-.015-1.09-.007v-.091l1.09.007Zm-2.18-.015-1.09-.007v-.091l1.09.007Zm-2.18-.014-1.09-.008v-.091l1.09.008Zm-2.18-.015-1.09-.007v-.091l1.09.007Zm-2.18-.015-1.09-.007v-.091l1.089.007Zm-2.18-.015-1.09-.007v-.091l1.09.007Zm-2.18-.015-1.09-.007v-.091l1.09.008Zm-2.18-.014-1.09-.008v-.091l1.09.008Zm-2.18-.015-1.09-.007v-.091l1.09.007Zm-2.18-.015-1.089-.007v-.091l1.09.007Zm-2.18-.015-1.09-.007v-.091l1.09.007Zm-2.18-.014-1.09-.008v-.091l1.09.008Zm-2.18-.015-1.09-.008v-.091l1.09.008Zm-2.18-.015-1.09-.007v-.091l1.09.007Zm-2.18-.015-1.09-.007v-.091l1.09.007Zm-2.18-.014-1.09-.008v-.091l1.09.008Zm-2.18-.015-1.09-.007v-.091l1.09.008Zm-2.18-.014-1.09-.007v-.091l1.09.007Zm-2.179-.015-1.09-.007v-.091l1.09.007Zm-2.18-.015-1.09-.007v-.091l1.09.007Zm-2.18-.014-1.09-.007v-.091l1.09.008Zm-2.18-.015-1.09-.007v-.091l1.09.007Zm-2.18-.015-1.09-.007v-.091l1.09.007Zm-2.18-.015-1.09-.007v-.091l1.09.007Zm-2.18-.015-1.09-.007v-.091l1.09.007Zm-2.18-.015-1.09-.008v-.091l1.09.008Zm-2.18-.015-1.09-.007v-.091l1.09.007Zm-2.18-.014-1.09-.007v-.091l1.09.007Zm-2.18-.015-1.09-.007v-.091l1.09.008Zm-2.18-.015-1.09-.007v-.091l1.09.007Zm-2.18-.015-1.09-.007v-.091l1.09.007Zm-2.18-.015-1.09-.007v-.091l1.09.007Zm-2.18-.014-1.09-.007v-.091l1.09.007Zm-2.18-.015-1.09-.008v-.091l1.09.007Zm-2.18-.015-1.09-.007v-.091l1.09.007Zm-2.18-.015-1.09-.007v-.091l1.09.007Zm-2.18-.015-1.09-.007v-.091l1.09.007Zm-2.179-.015-1.09-.007v-.091l1.09.007Zm-2.18-.015-1.09-.007v-.091l1.09.008Zm-2.18-.015-1.09-.007v-.091l1.09.007Zm-2.18-.015-1.09-.007v-.091l1.09.007Zm-2.18-.015-1.09-.008v-.091l1.09.007Zm-2.18-.015-1.09-.007v-.091l1.09.007Zm-2.18-.014-1.09-.008v-.091l1.09.007Zm-2.18-.015-1.09-.007v-.091l1.09.007Zm-2.18-.015-1.09-.007v-.091l1.09.007Zm-2.18-.015-1.09-.007v-.091l1.09.008Zm-2.18-.015-1.09-.007v-.091l1.09.007Zm-2.18-.015-1.09-.007v-.091l1.09.007Zm-2.18-.015-1.09-.008v-.091l1.09.007Zm-2.18-.015-1.09-.007v-.091l1.09.007Zm-2.18-.015-1.09-.007v-.091l1.09.008Zm-2.18-.015-1.09-.007v-.091l1.09.007Zm-2.18-.015-1.09-.007v-.091l1.09.007Zm-2.18-.015-1.09-.007v-.091l1.09.007Zm-2.18-.015-1.09-.007v-.091l1.09.007Zm-2.18-.015-1.09-.007v-.091l1.09.007Zm-2.18-.015-1.09-.007v-.091l1.09.007Zm-2.18-.015-1.09-.007v-.091l1.09.007Zm-2.18-.015-1.09-.007v-.091l1.09.008Zm-2.18-.014-1.09-.007v-.091l1.09.008Zm-2.18-.015-1.09-.008v-.091l1.09.007Zm-2.18-.015-1.09-.007v-.091l1.09.007Zm-2.18-.015-1.09-.007V1645l1.09.007Zm-2.18-.015-1.09-.008v-.091l1.09.008Zm-2.18-.014-1.09-.008v-.091l1.09.007Zm-2.18-.015-1.09-.007v-.091l1.09.007Zm-2.18-.015-1.09-.007v-.091l1.09.007Zm-2.18-.015-1.09-.007v-.091l1.09.007Z" transform="translate(-91.318 -1570.453)" fill="#fff"/>
      <path id="Caminho_4704" data-name="Caminho 4704" d="M3562.562,1668.313l-.548,0v-.091l.547,0Z" transform="translate(-3400.743 -1592.689)" fill="#fff"/>
      <path id="Caminho_4705" data-name="Caminho 4705" d="M1592.783,791.05a8.361,8.361,0,0,1,1.042,3.131c.251,1.39.028,1.607-.086,1.667a.635.635,0,0,1-.53-.078,7.984,7.984,0,0,1-3.268-2.237,7.119,7.119,0,0,1-1.291-2.48,8.8,8.8,0,0,1-.233-3.166,1.779,1.779,0,0,1,.009.2,10.1,10.1,0,0,0,1.557.628c.4.124.677.2.756.218.934.259,1.769,1.658,2.044,2.12" transform="translate(-1516.452 -752.215)" fill="#b3dee5"/>
      <path id="Caminho_4706" data-name="Caminho 4706" d="M1590.671,793.874l.642.915.641.919,1.28,1.846,1.278,1.857.638.932.637.936-.649-.925-.645-.926-1.284-1.851-1.274-1.851-.634-.925Z" transform="translate(-1518.653 -757.931)" fill="#b3dee5"/>
      <path id="Caminho_4707" data-name="Caminho 4707" d="M1591.307,794.794l.641.92,1.282,1.845,1.288,1.849,1.3,1.851-.06.04-1.271-1.868-1.273-1.859-1.272-1.852-.633-.924c-.21-.3-.418-.613-.635-.921.211.312.427.617.637.92m.661.906,1.289,1.841,1.282,1.853,1.277,1.865-.061.04-1.293-1.854-1.28-1.855-1.265-1.856-1.248-1.859Z" transform="translate(-1518.652 -757.931)" fill="#b3dee5"/>
      <path id="Caminho_4708" data-name="Caminho 4708" d="M1634.115,908.141q.2.014.408.036c.136.014.273.03.409.047s.273.036.41.056.274.043.411.068q-.2-.014-.408-.036c-.136-.014-.273-.03-.409-.047s-.273-.036-.41-.057-.274-.043-.411-.068" transform="translate(-1560.13 -867.025)" fill="#b3dee5"/>
      <path id="Caminho_4709" data-name="Caminho 4709" d="M1650,932.016q.2.014.409.036c.136.014.273.031.41.047s.274.036.411.057.274.043.412.068q-.2-.014-.409-.036c-.136-.014-.273-.031-.41-.048s-.273-.036-.41-.057-.274-.043-.411-.068" transform="translate(-1575.297 -889.819)" fill="#b3dee5"/>
      <path id="Caminho_4710" data-name="Caminho 4710" d="M1616.516,881.491q.2.014.408.036c.136.014.272.03.409.047s.273.036.41.056.273.042.411.068q-.2-.014-.408-.036c-.136-.014-.272-.03-.409-.047s-.273-.036-.409-.056-.273-.042-.41-.068" transform="translate(-1543.328 -841.581)" fill="#b3dee5"/>
      <path id="Caminho_4711" data-name="Caminho 4711" d="M1665.695,852.267q-.026.235-.059.467c-.021.155-.044.309-.068.463s-.049.307-.075.46-.054.3-.085.456q.026-.235.059-.468c.021-.155.044-.309.068-.463s.049-.307.075-.46.054-.3.085-.455" transform="translate(-1590.006 -813.68)" fill="#b3dee5"/>
      <path id="Caminho_4712" data-name="Caminho 4712" d="M1680.462,874.922q-.026.235-.058.468c-.021.155-.044.31-.068.464s-.049.308-.075.461-.054.305-.085.457q.026-.236.058-.468c.021-.155.044-.31.068-.464s.049-.308.075-.46.054-.3.085-.456" transform="translate(-1604.106 -835.31)" fill="#b3dee5"/>
      <path id="Caminho_4713" data-name="Caminho 4713" d="M1693.326,896.339q-.026.235-.058.468c-.021.155-.044.31-.067.464s-.049.308-.075.461-.054.306-.085.457q.026-.236.058-.469c.021-.156.044-.31.068-.465s.049-.308.075-.461.054-.305.084-.456" transform="translate(-1616.387 -855.757)" fill="#b3dee5"/>
      <path id="Caminho_4714" data-name="Caminho 4714" d="M1600.943,856.833q.2.023.409.055c.136.02.273.043.41.066s.273.048.41.075.274.055.411.087q-.2-.023-.409-.055c-.137-.02-.273-.043-.41-.066s-.273-.048-.41-.075-.274-.055-.411-.086" transform="translate(-1528.46 -818.04)" fill="#b3dee5"/>
      <path id="Caminho_4715" data-name="Caminho 4715" d="M1599.2,837.088q.122.015.244.034c.081.013.163.027.245.041s.163.03.245.046.164.034.245.053q-.122-.015-.244-.034c-.082-.013-.163-.027-.245-.041s-.163-.03-.245-.047-.163-.034-.245-.053" transform="translate(-1526.795 -799.189)" fill="#b3dee5"/>
      <path id="Caminho_4716" data-name="Caminho 4716" d="M1595.806,822.533c.061.008.122.016.183.026l.183.031.183.035c.061.012.122.026.184.041-.061-.008-.122-.016-.183-.026l-.183-.031-.183-.035c-.061-.012-.122-.026-.183-.041" transform="translate(-1523.556 -785.293)" fill="#b3dee5"/>
      <path id="Caminho_4717" data-name="Caminho 4717" d="M1622.45,807.576q0-.189.006-.375c0-.125.01-.248.016-.372s.014-.247.023-.37.02-.245.033-.366q0,.188-.006.375c0,.124-.01.248-.016.372s-.014.247-.023.37-.02.245-.033.367" transform="translate(-1548.993 -769.597)" fill="#b3dee5"/>
      <path id="Caminho_4718" data-name="Caminho 4718" d="M1638.838,823.681q0-.189.006-.376c0-.125.01-.249.016-.373s.014-.247.023-.37.02-.245.033-.367q0,.189-.006.375c0,.125-.01.249-.016.372s-.014.247-.023.37-.02.246-.033.367" transform="translate(-1564.639 -784.971)" fill="#b3dee5"/>
      <path id="Caminho_4719" data-name="Caminho 4719" d="M1652.738,831.069q.005-.249.02-.495c.009-.164.021-.327.034-.49s.027-.326.044-.487.035-.323.057-.483q-.005.248-.02.494c-.009.164-.021.327-.034.49s-.027.326-.044.488-.035.324-.057.484" transform="translate(-1577.91 -791.575)" fill="#b3dee5"/>
      <path id="Caminho_4720" data-name="Caminho 4720" d="M1544.142,991.363c2.149.34,3.928,1.306,3.971,2.159s-1.67,1.268-3.823.926a8.4,8.4,0,0,1-3.961-2.161,5.451,5.451,0,0,1,3.814-.924" transform="translate(-1470.589 -946.424)" fill="#b3dee5"/>
      <path id="Caminho_4721" data-name="Caminho 4721" d="M1541.893,1013.345l.929.136.93.139,1.861.283,1.864.29.933.148.934.151-.933-.136-.932-.139-1.864-.283-1.862-.29-.93-.147Z" transform="translate(-1472.084 -967.466)" fill="#b3dee5"/>
      <path id="Caminho_4722" data-name="Caminho 4722" d="M1542.823,1013.488l.93.139,1.862.281,1.865.279,1.867.273-.006.063-1.865-.3-1.863-.294-1.861-.292-.93-.147c-.306-.047-.616-.1-.929-.144.313.051.623.1.93.142m.932.117,1.863.274,1.864.285,1.865.3-.006.063-1.867-.279-1.864-.288-1.861-.3-1.857-.312Z" transform="translate(-1472.083 -967.467)" fill="#b3dee5"/>
      <path id="Caminho_4723" data-name="Caminho 4723" d="M1638.382,1034.3q.116-.124.237-.243c.081-.08.163-.158.245-.237s.166-.155.251-.232.171-.152.259-.225q-.116.124-.237.243c-.08.08-.163.158-.245.237s-.166.155-.251.232-.171.152-.259.225" transform="translate(-1564.204 -986.58)" fill="#b3dee5"/>
      <path id="Caminho_4724" data-name="Caminho 4724" d="M1662.069,1038.37q.116-.124.237-.243c.081-.08.163-.158.245-.237s.166-.155.251-.232.171-.151.259-.225q-.116.124-.237.243c-.08.08-.163.158-.245.237s-.166.155-.251.232-.171.152-.259.225" transform="translate(-1586.818 -990.463)" fill="#b3dee5"/>
      <path id="Caminho_4725" data-name="Caminho 4725" d="M1611.983,1029.674q.116-.124.237-.243c.08-.08.163-.158.245-.237s.166-.155.251-.231.171-.151.259-.225q-.116.124-.237.243c-.081.08-.163.158-.245.236s-.166.155-.251.232-.171.152-.259.225" transform="translate(-1539 -982.162)" fill="#b3dee5"/>
      <path id="Caminho_4726" data-name="Caminho 4726" d="M1622.2,996.057q.137.158.27.319c.089.107.176.215.262.323s.172.216.256.326.167.219.249.329q-.138-.158-.27-.319c-.089-.107-.176-.215-.262-.323s-.172-.216-.256-.325-.167-.218-.248-.329" transform="translate(-1548.753 -950.96)" fill="#b3dee5"/>
      <path id="Caminho_4727" data-name="Caminho 4727" d="M1644.5,1000.156q.138.158.27.319c.089.107.176.215.262.323s.172.217.257.326.168.219.249.329q-.138-.159-.271-.32c-.089-.107-.176-.215-.262-.323s-.172-.216-.256-.326-.167-.218-.249-.329" transform="translate(-1570.047 -954.874)" fill="#b3dee5"/>
      <path id="Caminho_4728" data-name="Caminho 4728" d="M1665,1004.734q.138.158.27.319c.089.107.176.215.263.323s.172.217.257.326.168.219.249.33q-.138-.159-.271-.32c-.089-.107-.176-.215-.263-.323s-.172-.217-.256-.326-.168-.219-.249-.329" transform="translate(-1589.614 -959.244)" fill="#b3dee5"/>
      <path id="Caminho_4729" data-name="Caminho 4729" d="M1587.9,1025.824q.123-.118.251-.232c.085-.076.171-.151.258-.226s.175-.148.264-.22.179-.144.272-.214q-.123.118-.25.232c-.085.076-.171.151-.258.226s-.175.148-.264.221-.18.144-.272.214" transform="translate(-1516.009 -978.527)" fill="#b3dee5"/>
      <path id="Caminho_4730" data-name="Caminho 4730" d="M1574.258,1022.722q.074-.07.151-.138l.155-.134c.052-.044.105-.088.159-.131s.108-.085.164-.127q-.074.07-.151.138c-.051.045-.1.09-.155.134s-.105.088-.159.131-.108.085-.164.127" transform="translate(-1502.983 -975.913)" fill="#b3dee5"/>
      <path id="Caminho_4731" data-name="Caminho 4731" d="M1563.085,1018.986c.037-.035.074-.069.113-.1l.116-.1.119-.1q.06-.048.123-.094c-.037.035-.075.069-.113.1l-.117.1-.119.1q-.06.048-.123.094" transform="translate(-1492.316 -972.475)" fill="#b3dee5"/>
      <path id="Caminho_4732" data-name="Caminho 4732" d="M1568.369,999.949q-.122-.114-.238-.23c-.078-.078-.155-.156-.231-.234s-.152-.158-.226-.238-.148-.16-.219-.242q.121.114.238.23c.078.078.155.156.231.234s.152.158.226.238.148.161.219.242" transform="translate(-1496.488 -953.774)" fill="#b3dee5"/>
      <path id="Caminho_4733" data-name="Caminho 4733" d="M1587.368,999.057q-.122-.114-.239-.23c-.078-.078-.155-.156-.231-.235s-.152-.158-.226-.238-.148-.161-.219-.242q.121.113.238.23c.078.077.155.156.231.234s.152.158.226.238.148.161.219.242" transform="translate(-1514.626 -952.922)" fill="#b3dee5"/>
      <path id="Caminho_4734" data-name="Caminho 4734" d="M1600.307,993.447q-.157-.153-.307-.311c-.1-.1-.2-.211-.3-.317s-.195-.214-.29-.322-.189-.217-.281-.328q.157.153.307.311c.1.1.2.211.3.317s.2.214.29.322.19.218.281.329" transform="translate(-1526.73 -947.247)" fill="#b3dee5"/>
      <path id="Caminho_4735" data-name="Caminho 4735" d="M1569.467,1080.068c2.488-.223,4.742.379,5.033,1.347s-1.5,1.936-3.992,2.158a9.485,9.485,0,0,1-5.028-1.352,6.189,6.189,0,0,1,3.987-2.153" transform="translate(-1494.603 -1031.124)" fill="#b3dee5"/>
      <path id="Caminho_4736" data-name="Caminho 4736" d="M1567.326,1111.425l1.074-.109,1.076-.106,2.154-.207,2.158-.2,1.08-.1,1.082-.094-1.077.11-1.077.106-2.155.207-2.156.2-1.078.1Z" transform="translate(-1496.365 -1060.329)" fill="#b3dee5"/>
      <path id="Caminho_4737" data-name="Caminho 4737" d="M1568.4,1110.538l1.076-.106,2.154-.209,2.155-.212,2.155-.219.011.074-2.16.187-2.158.194-2.156.2-1.078.1c-.355.033-.715.063-1.077.1.363-.031.722-.069,1.077-.1m1.072-.132,2.153-.217,2.156-.2,2.159-.194.011.074-2.156.213-2.157.2-2.157.189-2.158.172Z" transform="translate(-1496.364 -1059.545)" fill="#b3dee5"/>
      <path id="Caminho_4738" data-name="Caminho 4738" d="M1686.393,1119.072q.094-.176.2-.347c.067-.115.136-.229.206-.342s.141-.226.214-.338.147-.223.224-.333q-.094.175-.195.347c-.067.115-.136.229-.206.342s-.141.226-.214.338-.147.223-.225.333" transform="translate(-1610.041 -1067.106)" fill="#b3dee5"/>
      <path id="Caminho_4739" data-name="Caminho 4739" d="M1713.921,1116.974q.094-.176.195-.348c.067-.115.136-.229.205-.342s.141-.226.214-.338.147-.223.224-.333q-.094.175-.195.347c-.067.115-.136.229-.205.342s-.141.226-.214.338-.147.223-.224.333" transform="translate(-1636.323 -1065.103)" fill="#b3dee5"/>
      <path id="Caminho_4740" data-name="Caminho 4740" d="M1655.672,1121.3q.094-.175.2-.347c.067-.115.136-.229.206-.342s.141-.226.214-.338.147-.223.225-.333q-.094.175-.2.347c-.067.115-.136.228-.206.342s-.141.226-.214.338-.147.223-.225.333" transform="translate(-1580.711 -1069.231)" fill="#b3dee5"/>
      <path id="Caminho_4741" data-name="Caminho 4741" d="M1651.891,1085.714q.2.143.391.29t.383.3c.127.1.253.2.378.3s.249.2.37.307q-.2-.143-.391-.29c-.129-.1-.257-.2-.384-.3s-.253-.2-.377-.3-.248-.2-.37-.307" transform="translate(-1577.101 -1036.558)" fill="#b3dee5"/>
      <path id="Caminho_4742" data-name="Caminho 4742" d="M1677.886,1084.055q.2.143.391.29c.129.1.256.2.384.3s.253.2.378.3.249.2.371.307q-.2-.143-.392-.29c-.129-.1-.257-.2-.384-.3s-.253-.2-.378-.3-.248-.2-.37-.307" transform="translate(-1601.919 -1034.974)" fill="#b3dee5"/>
      <path id="Caminho_4743" data-name="Caminho 4743" d="M1702,1083.464q.2.143.392.29c.129.1.257.2.384.3s.253.2.378.3.249.2.371.307q-.2-.143-.392-.29c-.129-.1-.257-.2-.384-.3s-.253-.2-.378-.3-.249-.2-.371-.307" transform="translate(-1624.938 -1034.41)" fill="#b3dee5"/>
      <path id="Caminho_4744" data-name="Caminho 4744" d="M1627.493,1123.446q.1-.171.213-.339c.073-.112.148-.223.224-.334s.153-.22.232-.329.159-.217.242-.324q-.1.171-.213.339c-.073.112-.148.223-.223.333s-.153.22-.232.329-.159.217-.242.324" transform="translate(-1553.808 -1071.316)" fill="#b3dee5"/>
      <path id="Caminho_4745" data-name="Caminho 4745" d="M1609.229,1126.292q.062-.1.129-.2c.044-.067.089-.133.135-.2s.092-.131.14-.2.1-.129.146-.193q-.062.1-.129.2c-.044.067-.089.133-.135.2s-.092.131-.14.2-.1.129-.146.193" transform="translate(-1536.371 -1074.546)" fill="#b3dee5"/>
      <path id="Caminho_4746" data-name="Caminho 4746" d="M1594.911,1126.134q.047-.076.1-.151c.033-.05.067-.1.1-.148s.069-.1.105-.146.072-.1.11-.144q-.047.076-.1.15c-.033.05-.067.1-.1.148s-.069.1-.105.146-.072.1-.11.144" transform="translate(-1522.701 -1074.586)" fill="#b3dee5"/>
      <path id="Caminho_4747" data-name="Caminho 4747" d="M1593.035,1105.572q-.168-.1-.331-.2c-.109-.067-.217-.135-.324-.2s-.214-.138-.319-.209-.21-.142-.312-.216q.168.1.331.2c.109.067.217.135.324.2s.214.138.319.209.21.142.313.216" transform="translate(-1519.681 -1054.729)" fill="#b3dee5"/>
      <path id="Caminho_4748" data-name="Caminho 4748" d="M1613.953,1099.116q-.168-.1-.331-.2c-.109-.067-.217-.135-.325-.2s-.214-.138-.319-.209-.21-.142-.313-.216q.168.1.331.2c.109.067.217.135.324.2s.214.138.319.209.21.143.313.216" transform="translate(-1539.651 -1048.566)" fill="#b3dee5"/>
      <path id="Caminho_4749" data-name="Caminho 4749" d="M1626.771,1088.968q-.218-.131-.431-.27c-.142-.092-.282-.185-.422-.28s-.278-.19-.415-.287-.273-.2-.406-.3q.218.131.43.269c.142.092.282.185.422.28s.278.19.415.288.273.2.407.3" transform="translate(-1551.522 -1038.582)" fill="#b3dee5"/>
      <path id="Caminho_4750" data-name="Caminho 4750" d="M1744.923,882.438c-.653,1.44-1.68,2.442-2.292,2.236s-.576-1.542.078-2.98a5.363,5.363,0,0,1,2.287-2.228,4.29,4.29,0,0,1-.074,2.972" transform="translate(-1663.317 -839.647)" fill="#b3dee5"/>
      <path id="Caminho_4751" data-name="Caminho 4751" d="M1756.326,880.483l-.274.624-.276.624-.557,1.249-.562,1.249-.283.625-.286.624.276-.628.277-.626.558-1.25.562-1.247.282-.622Z" transform="translate(-1674.671 -840.619)" fill="#b3dee5"/>
      <path id="Caminho_4752" data-name="Caminho 4752" d="M1755.587,881.106l-.277.625-.556,1.25-.555,1.252-.552,1.256-.043-.022.57-1.247.566-1.247.563-1.246.282-.622c.092-.205.188-.412.28-.622-.1.209-.187.418-.279.623m-.262.632-.551,1.252-.559,1.25-.567,1.249-.044-.022.555-1.254.561-1.249.568-1.243.577-1.237Z" transform="translate(-1674.21 -840.619)" fill="#b3dee5"/>
      <path id="Caminho_4753" data-name="Caminho 4753" d="M1756.26,938.028q.065.117.126.236c.041.079.081.159.12.24s.078.161.116.243.074.164.11.247q-.065-.117-.126-.236c-.041-.079-.081-.16-.12-.24s-.078-.161-.116-.243-.074-.164-.109-.247" transform="translate(-1676.745 -895.559)" fill="#b3dee5"/>
      <path id="Caminho_4754" data-name="Caminho 4754" d="M1748.845,953.772q.065.117.126.236c.041.079.081.16.12.24s.078.161.116.243.074.164.11.247q-.065-.117-.126-.236c-.041-.079-.081-.16-.12-.24s-.078-.161-.115-.243-.074-.164-.11-.247" transform="translate(-1669.666 -910.59)" fill="#b3dee5"/>
      <path id="Caminho_4755" data-name="Caminho 4755" d="M1764.594,920.511q.065.116.126.236c.041.079.081.159.12.24s.078.161.116.243.074.164.11.247q-.065-.117-.127-.236c-.041-.079-.081-.159-.12-.24s-.078-.161-.116-.243-.075-.163-.11-.246" transform="translate(-1684.702 -878.835)" fill="#b3dee5"/>
      <path id="Caminho_4756" data-name="Caminho 4756" d="M1776.868,942.469q-.139.054-.278.1c-.093.034-.186.066-.279.1l-.28.093q-.14.045-.281.086.139-.054.278-.1c.093-.034.186-.066.279-.1s.187-.063.28-.093.187-.059.281-.086" transform="translate(-1695.353 -899.798)" fill="#b3dee5"/>
      <path id="Caminho_4757" data-name="Caminho 4757" d="M1769.676,957.258q-.139.054-.278.1c-.093.034-.186.066-.279.1l-.28.093q-.14.045-.281.086.139-.054.278-.1c.093-.034.186-.066.279-.1s.187-.063.28-.093.187-.059.281-.086" transform="translate(-1688.485 -913.918)" fill="#b3dee5"/>
      <path id="Caminho_4758" data-name="Caminho 4758" d="M1762.489,970.624q-.139.054-.278.1c-.093.034-.186.066-.279.1s-.187.063-.28.093-.187.059-.281.087q.139-.054.278-.1c.093-.034.186-.066.279-.1l.28-.093q.14-.045.281-.086" transform="translate(-1681.624 -926.679)" fill="#b3dee5"/>
      <path id="Caminho_4759" data-name="Caminho 4759" d="M1772.567,904.678q.06.12.116.242c.038.081.074.163.111.246s.071.165.106.249.068.167.1.252q-.06-.12-.116-.242c-.038-.081-.074-.164-.11-.246s-.072-.165-.106-.249-.068-.167-.1-.252" transform="translate(-1692.314 -863.718)" fill="#b3dee5"/>
      <path id="Caminho_4760" data-name="Caminho 4760" d="M1782.8,897.915c.024.048.047.1.069.145s.044.1.065.147.042.1.062.149.04.1.058.151q-.036-.072-.069-.145c-.022-.049-.044-.1-.065-.147s-.042-.1-.062-.149-.04-.1-.059-.151" transform="translate(-1702.082 -857.262)" fill="#b3dee5"/>
      <path id="Caminho_4761" data-name="Caminho 4761" d="M1789.593,891.759c.018.036.035.072.051.109s.032.073.048.11.031.074.046.112.03.075.043.113q-.026-.054-.051-.109t-.049-.11c-.016-.037-.031-.074-.046-.112s-.03-.075-.043-.113" transform="translate(-1708.569 -851.384)" fill="#b3dee5"/>
      <path id="Caminho_4762" data-name="Caminho 4762" d="M1790.158,903q.1-.055.209-.107c.07-.034.14-.068.211-.1s.141-.065.212-.1.142-.061.214-.09q-.1.055-.209.107c-.07.034-.14.068-.211.1s-.141.065-.212.1-.142.061-.214.09" transform="translate(-1709.108 -861.746)" fill="#b3dee5"/>
      <path id="Caminho_4763" data-name="Caminho 4763" d="M1787.148,916.794q.1-.055.209-.107l.211-.1c.071-.033.141-.065.212-.1s.142-.061.214-.09c-.069.037-.139.073-.209.107s-.14.068-.211.1-.141.065-.212.1-.142.061-.214.09" transform="translate(-1706.234 -874.911)" fill="#b3dee5"/>
      <path id="Caminho_4764" data-name="Caminho 4764" d="M1782.6,927.566q.139-.07.279-.133c.094-.043.188-.084.282-.125s.189-.08.284-.118.191-.075.287-.11q-.139.07-.28.133c-.093.043-.188.084-.282.125s-.189.08-.284.118-.191.075-.287.11" transform="translate(-1701.897 -885.105)" fill="#b3dee5"/>
      <path id="Caminho_4765" data-name="Caminho 4765" d="M1782.8,941.483c-1.356,2.044-3.191,3.327-4.093,2.863s-.53-2.5.828-4.534a8.378,8.378,0,0,1,4.081-2.85,6.512,6.512,0,0,1-.815,4.521" transform="translate(-1697.709 -894.541)" fill="#b3dee5"/>
      <path id="Caminho_4766" data-name="Caminho 4766" d="M1798.135,938.384l-.573.887-.577.886-1.16,1.772-1.17,1.772-.588.886-.592.885.577-.893.58-.89,1.163-1.775,1.168-1.768.586-.882Z" transform="translate(-1712.274 -895.899)" fill="#b3dee5"/>
      <path id="Caminho_4767" data-name="Caminho 4767" d="M1796.892,939.268l-.578.887-1.159,1.774L1794,943.707l-1.155,1.786-.062-.044,1.182-1.767,1.174-1.768,1.17-1.766.585-.881c.192-.291.389-.583.582-.883-.2.3-.389.592-.58.884m-.556.9-1.152,1.779-1.165,1.775-1.177,1.772-.062-.044,1.16-1.783,1.168-1.773,1.176-1.762,1.188-1.749Z" transform="translate(-1711.611 -895.898)" fill="#b3dee5"/>
      <path id="Caminho_4768" data-name="Caminho 4768" d="M1809.352,1014.82q.074.194.14.391c.045.131.088.263.13.4s.083.265.122.4.077.268.112.4q-.074-.194-.141-.391c-.045-.131-.088-.263-.13-.4s-.083-.265-.122-.4-.077-.268-.112-.4" transform="translate(-1727.433 -968.874)" fill="#b3dee5"/>
      <path id="Caminho_4769" data-name="Caminho 4769" d="M1794.1,1037.072q.074.194.14.391c.045.131.088.263.13.4s.083.266.122.4.077.269.112.4q-.074-.194-.141-.392c-.045-.131-.088-.264-.13-.4s-.083-.266-.122-.4-.077-.268-.112-.4" transform="translate(-1712.872 -990.118)" fill="#b3dee5"/>
      <path id="Caminho_4770" data-name="Caminho 4770" d="M1826.447,990.087q.074.194.141.39c.045.131.088.263.13.395s.083.265.122.4.077.268.112.4q-.074-.194-.141-.391c-.045-.131-.088-.263-.13-.4s-.083-.265-.122-.4-.077-.268-.112-.4" transform="translate(-1743.754 -945.26)" fill="#b3dee5"/>
      <path id="Caminho_4771" data-name="Caminho 4771" d="M1838.433,1032.286q-.229.05-.457.092c-.152.029-.3.056-.457.082s-.3.051-.457.074-.3.045-.457.064q.229-.05.457-.092c.152-.029.3-.056.457-.082s.3-.051.457-.074.3-.045.457-.064" transform="translate(-1753.452 -985.549)" fill="#b3dee5"/>
      <path id="Caminho_4772" data-name="Caminho 4772" d="M1823.749,1053.15q-.229.049-.458.092c-.152.029-.3.056-.457.082s-.3.051-.458.074-.3.045-.458.064q.229-.05.457-.092c.152-.029.3-.056.457-.082s.3-.051.458-.074.305-.045.458-.064" transform="translate(-1739.431 -1005.468)" fill="#b3dee5"/>
      <path id="Caminho_4773" data-name="Caminho 4773" d="M1809.409,1071.843q-.229.049-.457.092c-.153.029-.305.056-.458.082s-.305.051-.458.074-.305.045-.458.064q.229-.05.458-.092c.152-.029.305-.056.458-.082s.305-.051.458-.074.305-.045.458-.064" transform="translate(-1725.741 -1023.315)" fill="#b3dee5"/>
      <path id="Caminho_4774" data-name="Caminho 4774" d="M1842.578,967.845q.065.2.124.4c.039.133.077.267.114.4s.072.269.105.405.066.272.1.409q-.066-.2-.124-.4c-.039-.133-.077-.268-.113-.4s-.072-.269-.105-.4-.066-.272-.1-.409" transform="translate(-1759.155 -924.026)" fill="#b3dee5"/>
      <path id="Caminho_4775" data-name="Caminho 4775" d="M1860.077,959.99q.038.118.073.238t.066.24c.021.08.042.161.062.242s.038.163.055.245q-.038-.118-.073-.238c-.023-.08-.045-.16-.066-.24s-.042-.161-.062-.242-.038-.163-.055-.245" transform="translate(-1775.862 -916.526)" fill="#b3dee5"/>
      <path id="Caminho_4776" data-name="Caminho 4776" d="M1872.088,952.234q.029.088.054.178c.017.06.033.12.049.18s.031.121.046.182.028.122.041.183q-.029-.088-.054-.178c-.017-.06-.033-.12-.049-.18s-.031-.121-.046-.181-.028-.122-.041-.183" transform="translate(-1787.329 -909.121)" fill="#b3dee5"/>
      <path id="Caminho_4777" data-name="Caminho 4777" d="M1868.362,973.827q.174-.06.35-.112c.117-.036.234-.07.351-.1s.235-.065.352-.1.235-.059.354-.085q-.174.06-.35.113c-.117.036-.234.069-.351.1s-.235.065-.352.095-.235.059-.354.085" transform="translate(-1783.772 -929.359)" fill="#b3dee5"/>
      <path id="Caminho_4778" data-name="Caminho 4778" d="M1860.427,994.159q.175-.06.35-.113c.117-.036.234-.069.351-.1s.235-.065.353-.1.235-.059.354-.085c-.116.04-.233.077-.35.113s-.234.069-.351.1-.235.065-.353.1-.236.059-.354.085" transform="translate(-1776.196 -948.77)" fill="#b3dee5"/>
      <path id="Caminho_4779" data-name="Caminho 4779" d="M1850.35,1010.975q.232-.073.466-.136c.156-.043.312-.083.468-.123s.313-.077.47-.112.314-.069.472-.1q-.232.073-.466.136c-.156.043-.312.083-.468.123s-.313.077-.47.112-.314.069-.472.1" transform="translate(-1766.575 -964.754)" fill="#b3dee5"/>
      <path id="Caminho_4780" data-name="Caminho 4780" d="M1699.494,953.395a21.822,21.822,0,0,1,4.563,15.168c-.025.3.436.294.461,0a22.289,22.289,0,0,0-4.7-15.493c-.182-.234-.505.094-.326.326" transform="translate(-1622.499 -909.842)" fill="#b3dee5"/>
      <path id="Caminho_4781" data-name="Caminho 4781" d="M1754.491,1126.773a2.4,2.4,0,0,0-1.834-1.072Z" transform="translate(-1673.305 -1074.735)" fill="#b3dee5"/>
      <path id="Caminho_4782" data-name="Caminho 4782" d="M1709.937,1040.351a2.7,2.7,0,0,0-2.431-.6Z" transform="translate(-1630.198 -992.594)" fill="#b3dee5"/>
      <path id="Caminho_4783" data-name="Caminho 4783" d="M1745.178,987.765a1.479,1.479,0,0,0-.329,1.473Z" transform="translate(-1665.781 -943.044)" fill="#b3dee5"/>
      <path id="Caminho_4784" data-name="Caminho 4784" d="M1784,1087.092a1.8,1.8,0,0,0-.2,1.106Z" transform="translate(-1703.021 -1037.874)" fill="#b3dee5"/>
      <path id="Caminho_4785" data-name="Caminho 4785" d="M585.416,1183.112a8.569,8.569,0,0,0-3.762-2.826c-1.364-.57-2.338-.416-4.343-1.24a15.578,15.578,0,0,1-1.979-.983,15.686,15.686,0,0,0,.274,4.134,12.345,12.345,0,0,0,1.858,4.77,7.865,7.865,0,0,0,3.453,3.146c.353.15,3.442,1.413,5.064-.066,1.657-1.51.806-4.989-.565-6.934" transform="translate(-549.25 -1124.726)" fill="#0f8c91"/>
      <path id="Caminho_4786" data-name="Caminho 4786" d="M602.1,1218.836c-2.411-4.074-7.883-5.372-9.612-9.948-.018-.047-.095-.027-.077.021,1.734,4.59,7.207,5.889,9.62,9.968a.04.04,0,0,0,.069-.04" transform="translate(-565.591 -1154.129)" fill="#fff"/>
      <path id="Caminho_4787" data-name="Caminho 4787" d="M771.735,1288.036a7.916,7.916,0,0,1-.238-5.209.04.04,0,0,0-.077-.021,7.98,7.98,0,0,0,.238,5.251c.018.047.1.027.077-.021" transform="translate(-736.175 -1224.7)" fill="#fff"/>
      <path id="Caminho_4788" data-name="Caminho 4788" d="M685.273,1394.079a6.3,6.3,0,0,0-4.636.728.04.04,0,0,0,.04.069,6.208,6.208,0,0,1,4.575-.719c.05.011.071-.066.021-.077" transform="translate(-649.803 -1330.81)" fill="#fff"/>
      <path id="Caminho_4789" data-name="Caminho 4789" d="M639.827,1344.678a5.075,5.075,0,0,0-4.082,1.089c-.04.032.017.088.056.056a4.989,4.989,0,0,1,4-1.069c.05.008.072-.069.021-.077" transform="translate(-606.949 -1283.731)" fill="#fff"/>
      <path id="Caminho_4790" data-name="Caminho 4790" d="M603.232,1303.623a3.272,3.272,0,0,0-3.452.473c-.039.033.017.089.056.056a3.193,3.193,0,0,1,3.355-.461c.047.021.087-.048.04-.069" transform="translate(-572.612 -1244.324)" fill="#fff"/>
      <path id="Caminho_4791" data-name="Caminho 4791" d="M712.549,1250.688a5.112,5.112,0,0,1-.246-4.532c.02-.047-.057-.068-.077-.021a5.183,5.183,0,0,0,.254,4.593c.025.045.094,0,.069-.04" transform="translate(-679.58 -1189.691)" fill="#fff"/>
      <path id="Caminho_4792" data-name="Caminho 4792" d="M662.183,1231.232a4.838,4.838,0,0,1-.4-3.659c.019-.047-.058-.068-.077-.021a4.9,4.9,0,0,0,.4,3.7c.018.047.1.027.077-.021" transform="translate(-631.533 -1171.949)" fill="#fff"/>
      <path id="Caminho_4793" data-name="Caminho 4793" d="M586.858,1253.338a2.14,2.14,0,0,0-1.789-.389c-.05.011-.029.088.021.077a2.062,2.062,0,0,1,1.728.381c.041.031.08-.038.04-.069" transform="translate(-558.552 -1196.169)" fill="#fff"/>
      <path id="Caminho_4794" data-name="Caminho 4794" d="M620.315,1216.986a2.15,2.15,0,0,1,.258-2.123c.03-.041-.039-.081-.069-.04a2.223,2.223,0,0,0-.266,2.184c.019.047.1.026.077-.021" transform="translate(-591.992 -1159.805)" fill="#fff"/>
      <path id="Caminho_4795" data-name="Caminho 4795" d="M2594.881,1205.039a38.085,38.085,0,0,1-4.174-5.168,39.473,39.473,0,0,1-2.934-5.656c-.016-.036-.068,0-.052.031a32.495,32.495,0,0,0,7.117,10.836c.027.029.069-.014.043-.043" transform="translate(-2470.558 -1140.132)" fill="#fff"/>
      <path id="Caminho_4796" data-name="Caminho 4796" d="M2579.936,1197.43c-.427.077-.678.665-1.162.64-.57-.03-.542-.838-.458-1.25s.078-1.244-.5-1.271c-.4-.019-.6.384-.99.408-.568.035-.613-.727-.564-1.148s0-1.183-.558-1.23c-.167-.014-.285.057-.447.055-.425-.005-.639-.414-.746-.785a4.264,4.264,0,0,0-.375-1.151c-.216-.332-.7-.6-1.059-.33-.433.33-.135.955.114,1.334s.519,1,.107,1.384c-.2.188-.46.2-.66.378-.472.426-.069,1.15.4,1.442a15.058,15.058,0,0,1,1.542.792c-.012.444-.508.539-.8.807a1.108,1.108,0,0,0,.206,1.6,3.161,3.161,0,0,0,1.744.5.86.86,0,0,1,.557.183.632.632,0,0,1-.016.814c-.174.235-.426.4-.591.643a1.1,1.1,0,0,0,.477,1.574,2.074,2.074,0,0,0,.813.09c1.453-.026,3.791.422,3.733-1.74-.02-.747.615-4-.773-3.747" transform="translate(-2455.964 -1137.323)" fill="#19c6d8"/>
      <path id="Caminho_4797" data-name="Caminho 4797" d="M2592.116,1192.027a30.792,30.792,0,0,0,6.8,11.077c.027.028.07-.015.043-.043a30.713,30.713,0,0,1-6.782-11.05c-.013-.036-.071-.021-.058.016" transform="translate(-2474.755 -1138.022)" fill="#fff"/>
      <path id="Caminho_4798" data-name="Caminho 4798" d="M2724.786,1339.421q-.39,1.684-.717,3.381c-.007.038.051.054.058.016q.325-1.7.717-3.381c.009-.038-.049-.054-.058-.016" transform="translate(-2600.736 -1278.758)" fill="#fff"/>
      <path id="Caminho_4799" data-name="Caminho 4799" d="M2652.725,1410.772c-1.092.21-2.186.4-3.28.6-.038.007-.022.065.016.058,1.094-.2,2.188-.392,3.28-.6.038-.007.022-.065-.016-.058" transform="translate(-2529.47 -1346.898)" fill="#fff"/>
      <path id="Caminho_4800" data-name="Caminho 4800" d="M2677.542,1299.06a8.273,8.273,0,0,0-.523,2.475c0,.039.059.039.061,0a8.23,8.23,0,0,1,.521-2.459c.014-.036-.045-.052-.058-.016" transform="translate(-2555.816 -1240.226)" fill="#fff"/>
      <path id="Caminho_4801" data-name="Caminho 4801" d="M2609.175,1342.183c-1.092-.158-2.179-.342-3.268-.52-.038-.006-.054.052-.016.058,1.088.179,2.176.362,3.268.521.038.005.054-.053.016-.058" transform="translate(-2487.887 -1280.918)" fill="#fff"/>
      <path id="Caminho_4802" data-name="Caminho 4802" d="M2634.277,1253.118c-.135.444-.274.886-.395,1.333a.03.03,0,0,0,.058.016c.121-.448.26-.89.395-1.333.011-.037-.047-.053-.058-.016" transform="translate(-2514.632 -1196.363)" fill="#fff"/>
      <path id="Caminho_4803" data-name="Caminho 4803" d="M2579.548,1269.4c-.845-.185-1.672-.438-2.509-.66a.03.03,0,0,0-.016.058c.836.222,1.663.475,2.509.66.038.008.054-.05.016-.058" transform="translate(-2460.328 -1211.293)" fill="#fff"/>
      <path id="Caminho_4804" data-name="Caminho 4804" d="M2587.2,1447.862a18.245,18.245,0,0,0-5.767,2.226.03.03,0,0,0,.03.052,18.282,18.282,0,0,1,5.752-2.22c.038-.008.022-.066-.016-.058" transform="translate(-2464.546 -1382.309)" fill="#fff"/>
      <path id="Caminho_4805" data-name="Caminho 4805" d="M2585.211,1421.345c-.144-.148-.078-.446-.273-.57-.229-.147-.442.175-.524.357s-.314.5-.544.355c-.158-.1-.125-.315-.27-.432-.21-.171-.439.111-.537.288s-.326.46-.557.322c-.069-.041-.095-.1-.158-.145a.429.429,0,0,0-.507.1,2.037,2.037,0,0,1-.464.342c-.176.069-.439.039-.5-.166-.076-.248.212-.408.414-.485s.478-.243.426-.506c-.026-.129-.124-.2-.151-.33-.064-.3.292-.464.553-.448a7.207,7.207,0,0,0,.817.121c.118-.175-.048-.35-.085-.533-.059-.292.235-.55.525-.564a1.5,1.5,0,0,1,.815.288.41.41,0,0,0,.267.084.3.3,0,0,0,.219-.32c0-.139-.055-.271-.051-.413a.525.525,0,0,1,.622-.478.993.993,0,0,1,.34.191c.556.413,1.586.888.964,1.71-.215.284-.87,1.719-1.339,1.237" transform="translate(-2464.013 -1353.986)" fill="#19c6d8"/>
      <path id="Caminho_4806" data-name="Caminho 4806" d="M2582.581,1448.449a14.929,14.929,0,0,1,5.692-2.4c.038-.007.022-.066-.016-.058a14.939,14.939,0,0,0-5.706,2.406c-.032.022,0,.074.03.052" transform="translate(-2465.613 -1380.522)" fill="#fff"/>
      <path id="Caminho_4807" data-name="Caminho 4807" d="M2680.671,1451.13q.315-.757.657-1.5c.016-.035-.036-.066-.052-.031q-.347.751-.663,1.516c-.015.036.043.052.058.016" transform="translate(-2559.246 -1383.953)" fill="#fff"/>
      <path id="Caminho_4808" data-name="Caminho 4808" d="M2670.227,1426.176c-.365-.384-.735-.762-1.1-1.143-.027-.028-.07.015-.043.043.369.38.739.759,1.1,1.143.027.028.07-.014.043-.043" transform="translate(-2548.229 -1360.506)" fill="#fff"/>
      <path id="Caminho_4809" data-name="Caminho 4809" d="M2649.606,1461.185a3.87,3.87,0,0,1,.479-1.093c.021-.033-.031-.063-.052-.031a3.919,3.919,0,0,0-.485,1.108.03.03,0,0,0,.058.016" transform="translate(-2529.588 -1393.943)" fill="#fff"/>
      <path id="Caminho_4810" data-name="Caminho 4810" d="M2630.786,1445.6c-.467-.242-.939-.472-1.411-.7-.035-.017-.065.035-.031.052.471.233.944.463,1.41.7.035.018.065-.034.031-.052" transform="translate(-2510.286 -1379.475)" fill="#fff"/>
      <path id="Caminho_4811" data-name="Caminho 4811" d="M2619.056,1476.254c.071-.209.14-.419.217-.626.013-.037-.045-.052-.058-.016-.077.207-.146.417-.217.626-.012.037.046.053.058.016" transform="translate(-2500.42 -1408.784)" fill="#fff"/>
      <path id="Caminho_4812" data-name="Caminho 4812" d="M2599.168,1465.539c-.381-.164-.774-.3-1.162-.443-.037-.014-.052.045-.016.058.383.145.771.275,1.147.437.036.015.066-.037.031-.052" transform="translate(-2480.346 -1398.762)" fill="#fff"/>
      <path id="Caminho_4813" data-name="Caminho 4813" d="M2708.906,1381.443a2.956,2.956,0,0,0,2.147.347c.939-.108.952-.386,2.48-.737a8.192,8.192,0,0,1,1.613-.237,7.979,7.979,0,0,1,1.6.136c1.625.266,2.485.642,2.527.547.067-.15-2.271-.651-4.033-2.5a8.153,8.153,0,0,1-1.274-1.8c-.195-.363-.357-.71-.509-1.026-.416-.866-.752-1.5-1.473-1.589a2.727,2.727,0,0,0-1.647.521c-.91.607-.829,1.3-1.608,1.62-.878.365-1.843-.153-1.907.036-.042.126.406.289.9.908a2.07,2.07,0,0,1,.41.655c.213.644-.224.98-.171,1.65a2.2,2.2,0,0,0,.946,1.469" transform="translate(-2584.265 -1312.339)" fill="#fff"/>
      <path id="Caminho_4814" data-name="Caminho 4814" d="M2833.991,1412.4c.234.122.814-.531,1.294-1.457v0c-.195-.363-.357-.71-.509-1.026-.115.177-.231.375-.341.588-.481.926-.68,1.775-.446,1.9" transform="translate(-2705.588 -1346.079)" fill="#b3dee5"/>
      <path id="Caminho_4815" data-name="Caminho 4815" d="M2742.8,1442.587c.165.075.607-.542.987-1.379s.553-1.576.388-1.651-.607.542-.987,1.379-.553,1.576-.388,1.651" transform="translate(-2618.555 -1374.375)" fill="#b3dee5"/>
      <path id="Caminho_4816" data-name="Caminho 4816" d="M744.9,1111.005c-.587.493-1.711.085-2.3-.531a2.246,2.246,0,0,1-.572-1.212,2.069,2.069,0,0,1,1.055-2.239.173.173,0,0,1,.081-.12.139.139,0,0,1,.143.014,6.828,6.828,0,0,1,1.443,1.5c.2.456.873,1.982.147,2.592" transform="translate(-708.401 -1056.773)" fill="#edb170"/>
      <path id="Caminho_4817" data-name="Caminho 4817" d="M483.255,766.774c-1.644-1.375-4.455-2.943-7.584-5.946-2.526-2.425-5.767-8.264-5.409-9.742.621-2.562,2.912-4.371,4.1-3.008.516.59.55,2.925.551,3.531,0,1.745,2.618,5.259,10.048,13.272a.444.444,0,0,1-.061.655l-1.649,1.238" transform="translate(-448.945 -713.762)" fill="#edb170"/>
      <path id="Caminho_4818" data-name="Caminho 4818" d="M400.017,459.046l5.463-2.408c-.024-1.289-.33-14.446-3.43-15.89a3.257,3.257,0,0,0-2.1-.279,3.8,3.8,0,0,0-2.135,2.3c-.958,2.17-.721,4.386.2,8.084.435,1.752,1.036,4.192,2.007,8.193" transform="translate(-379.216 -420.465)" fill="#0b7575"/>
      <path id="Caminho_4819" data-name="Caminho 4819" d="M162.042,859.967a21.4,21.4,0,0,0,.808,2.487c1.287,3.621,2.431,5.457,3.119,7.1.409.977,1.8,5.255,1.761,7.5-.044,2.309,2.422,6.9,3.547,4.953.012-.02.983.611.984.587.044-2.309,1.457-7.469.651-10.736L167.9,851.473c-.868-.187-3.159-.552-4.734.759-2.38,1.98-1.425,6.37-1.128,7.735" transform="translate(-154.285 -812.739)" fill="#0f53b7"/>
      <path id="Caminho_4820" data-name="Caminho 4820" d="M300.626,1365.88c1.253.353,1.74.338,2.993.69-.82-2.229-1.08-4.383-1.768-7.044-1.227-4.747-.9-9.65-1.219-13.462-.469-1.917-.953-2.351-1.311-2.385a17.433,17.433,0,0,0-2.105.621l-.01,0a1.358,1.358,0,0,0-.837,1.778,33.346,33.346,0,0,0-.035,6.484,35.461,35.461,0,0,0,4.292,13.316" transform="translate(-282.778 -1282.842)" fill="#0f53b7"/>
      <path id="Caminho_4821" data-name="Caminho 4821" d="M422.335,1839.058a.784.784,0,0,1-.3.524c-.66.6-1.574.485-3.268.875a6.6,6.6,0,0,0-1.286.371c-.68.307-.86.589-1.364.61a1.476,1.476,0,0,1-1.049-.38,1.532,1.532,0,0,1-.426-1.241,1.9,1.9,0,0,1,.287-.746,2.275,2.275,0,0,1,1.32-.868c1.85-.535,2.7.9,4.374.343.392-.13.877-.4,1.287-.178a.8.8,0,0,1,.426.69" transform="translate(-395.861 -1754.862)" fill="#19517f"/>
      <path id="Caminho_4822" data-name="Caminho 4822" d="M288.835,1537l5.167-1.22.437,3.38c.294,1.76.618,3.225.883,4.319a27.583,27.583,0,0,0,1.423,4.586,20.416,20.416,0,0,0,1.118,2.191l-2.989.735a49.73,49.73,0,0,1-2.8-4.423,26.487,26.487,0,0,1-2.094-4.295,20.592,20.592,0,0,1-1.141-5.273" transform="translate(-275.758 -1466.243)" fill="#19517f"/>
      <path id="Caminho_4823" data-name="Caminho 4823" d="M63.6,826.235c-.784,1.36-1.22,2.993-.995,8.079.223,5.039.43,4.783.611,7.733.065,1.057-.024,5.556-.8,7.665-.8,2.166.018,7.315,1.722,5.844.018-.015.728.9.736.878.8-2.166,3.831-6.575,4.145-9.925l1.973-20.9c-.09-.125-1.844-2.5-4.152-2.175-1.762.246-2.718,1.906-3.236,2.8" transform="translate(-59.296 -786.121)" fill="#1c68da"/>
      <path id="Caminho_4824" data-name="Caminho 4824" d="M13.354,1373.413c1.067.745,1.532.891,2.6,1.636-.041-2.375.421-4.495.647-7.233.4-4.887,2.324-9.409,3.275-13.114.187-1.965-.127-2.533-.454-2.684a17.435,17.435,0,0,0-2.192-.106h-.01a1.358,1.358,0,0,0-1.375,1.4,33.349,33.349,0,0,0-2.164,6.112,35.462,35.462,0,0,0-.325,13.986" transform="translate(-12.23 -1290.697)" fill="#1c68da"/>
      <path id="Caminho_4825" data-name="Caminho 4825" d="M34.624,1854.417a.784.784,0,0,1-.456.4c-.819.346-1.646-.059-3.374-.249a6.6,6.6,0,0,0-1.336-.073c-.744.067-1.006.274-1.489.128a1.476,1.476,0,0,1-.866-.7,1.532,1.532,0,0,1,.006-1.312,1.9,1.9,0,0,1,.516-.61,2.276,2.276,0,0,1,1.532-.386c1.923.1,2.253,1.736,4.018,1.762.413.006.96-.089,1.274.254a.8.8,0,0,1,.175.791" transform="translate(-25.734 -1767.772)" fill="#19517f"/>
      <path id="Caminho_4826" data-name="Caminho 4826" d="M.657,1536.035l5.281.546-.7,3.336c-.3,1.759-.477,3.249-.586,4.37a27.579,27.579,0,0,0-.164,4.8,20.409,20.409,0,0,0,.336,2.437l-3.065-.289a49.739,49.739,0,0,1-1.194-5.1A26.485,26.485,0,0,1,0,1541.39a20.591,20.591,0,0,1,.656-5.355" transform="translate(0 -1466.491)" fill="#19517f"/>
      <path id="Caminho_4827" data-name="Caminho 4827" d="M126.064,378.517c-1.713,3.982-3.682,3.838-5.357,7.927-.629,1.535-1.455,2.976-2,4.549-.409,1.182-.493,1.665-1.04,2.05-1.469,1.036-4.116-.149-5.323-.689-1.3-.58-3.607-1.615-4.013-3.313-.141-.593.013-.994.7-2.466.219-.465.424-.9.617-1.294.955-1.976,1.606-3.2,2.08-4.293A36.994,36.994,0,0,0,113,376.933a25.928,25.928,0,0,1,3.247-7.048,7.4,7.4,0,0,1,4.184-3.1,5.054,5.054,0,0,1,2.69.06,6.373,6.373,0,0,1,3.139,2.374c2.386,3.3.307,8.129-.194,9.295" transform="translate(-103.382 -350.034)" fill="#0f8c91"/>
      <path id="Caminho_4828" data-name="Caminho 4828" d="M213.8,441.092c-.288,1.448-1.343,6.459-2.535,6.417-.956-.034-1.6-3.3-1.887-5.069a23.477,23.477,0,0,1,.27-6.04c.013-.062.1-.492.216-1.078a21.779,21.779,0,0,0,.485-3.559c.013-.439,0-.741,0-.863-.021-1.13.414-3.089,2.354-6.727a3.377,3.377,0,0,1,2.61-.6,3.257,3.257,0,0,1,1.657,1.323c1.911,2.836-2.524,15.077-3.169,16.193" transform="translate(-199.843 -404.322)" fill="#0b7575"/>
      <path id="Caminho_4829" data-name="Caminho 4829" d="M423.492,296.656a.949.949,0,0,1-1.305.377,3.779,3.779,0,0,1-1.345-1.286,3.823,3.823,0,0,1-.572-1.961.944.944,0,0,1,.494-.843,15.506,15.506,0,0,0,2.7-1.872,15.749,15.749,0,0,0,1.6-1.6l.123.119L427.669,292a13.086,13.086,0,0,0-1.829,1.505,12.949,12.949,0,0,0-1.045,1.166,13.284,13.284,0,0,0-1.3,1.988" transform="translate(-401.242 -276.366)" fill="#edb170"/>
      <path id="Caminho_4830" data-name="Caminho 4830" d="M503.084,294.5A13.09,13.09,0,0,0,501.255,296a12.941,12.941,0,0,0-1.045,1.166,1.3,1.3,0,0,1-.383-.215c-.989-.8-.642-2.94.732-4.805l.043-.057,2.483,2.406" transform="translate(-476.657 -278.868)" fill="#e59d55"/>
      <path id="Caminho_4831" data-name="Caminho 4831" d="M492.019,197.109c.867-.006,1.594-.392,1.729-.887.172-.626-.535-1.67-1.92-1.888a3.227,3.227,0,0,0-2.247-1.46A2.856,2.856,0,0,0,486.3,194.7l-1.613,3.279c.371.6,1.3.45,1.59,1.779.291,1.355,4.489-.876,5.738-2.652" transform="translate(-462.746 -184.085)" fill="#1c68da"/>
      <path id="Caminho_4832" data-name="Caminho 4832" d="M515.4,239.944c-1.089,2.044-1.123,4.207-.028,4.86s2.884-.465,3.995-2.5,1.477-2.56.457-3.484c-1.331-1.206-2.807-1.916-4.424,1.12" transform="translate(-491.271 -227.024)" fill="#f7c589"/>
      <path id="Caminho_4833" data-name="Caminho 4833" d="M508.323,279.857c-.319.15-.389.621-.157,1.053a.849.849,0,0,0,1,.509c.319-.15.389-.621.157-1.053a.849.849,0,0,0-1-.509" transform="translate(-485.028 -267.142)" fill="#f7c589"/>
      <path id="Caminho_4834" data-name="Caminho 4834" d="M327.626,1126.843c-.73.233-1.615-.571-1.923-1.364a2.245,2.245,0,0,1-.069-1.339,2.069,2.069,0,0,1,1.827-1.671.174.174,0,0,1,.12-.081.139.139,0,0,1,.128.067,6.83,6.83,0,0,1,.766,1.934c.013.5.055,2.165-.848,2.453" transform="translate(-310.823 -1071.572)" fill="#f7c589"/>
      <path id="Caminho_4835" data-name="Caminho 4835" d="M200.708,721.967c-1-1.9-3-4.414-4.758-8.381-1.416-3.2-2.2-9.835-1.3-11.067,1.548-2.134,4.354-2.937,4.939-1.224.253.742-.6,2.915-.831,3.476-.66,1.615.425,5.859,4.255,16.093a.444.444,0,0,1-.305.583l-2,.519" transform="translate(-185.471 -668.657)" fill="#f7c589"/>
      <path id="Caminho_4836" data-name="Caminho 4836" d="M181.567,406.044l5.968-.154c.467-1.2,5.181-13.489,2.861-16a3.256,3.256,0,0,0-1.838-1.056,3.8,3.8,0,0,0-2.849,1.317c-1.711,1.643-2.333,3.784-2.888,7.553-.263,1.786-.634,4.271-1.254,8.341" transform="translate(-173.347 -371.214)" fill="#0f8c91"/>
      <path id="Caminho_4837" data-name="Caminho 4837" d="M1928.762,932.339a6.536,6.536,0,0,0,1.711-2.129l-.741-2.134a.13.13,0,0,0-.212-.086,5.68,5.68,0,0,0-1.245,1.457c-.449.755-.034,3.314.487,2.892" transform="translate(-1840.79 -885.946)" fill="#edb170"/>
      <path id="Caminho_4838" data-name="Caminho 4838" d="M1938.243,603.155c1.436-1.354,3.936-2.95,6.649-5.882,2.191-2.368,4.852-7.914,4.441-9.254-.711-2.322-2.917-3.86-3.939-2.541-.442.571-.346,2.72-.313,3.277.093,1.6-2.12,4.979-8.514,12.753a.409.409,0,0,0,.092.6l1.584,1.049" transform="translate(-1848.801 -558.505)" fill="#edb170"/>
      <path id="Caminho_4839" data-name="Caminho 4839" d="M2115.726,331.844l-5.065-2.143c0-1.187.1-13.31,2.938-14.683a3,3,0,0,1,1.931-.286,3.5,3.5,0,0,1,2,2.089c.913,1.985.725,4.03-.069,7.449-.376,1.62-.9,3.875-1.735,7.574" transform="translate(-2015.1 -300.434)" fill="#14bcc4"/>
      <path id="Caminho_4840" data-name="Caminho 4840" d="M2016.076,1238.566a4.916,4.916,0,0,1-2.352,1.773,45.763,45.763,0,0,0-3.785-20.749,3.034,3.034,0,0,1,1.666-2.8,2.572,2.572,0,0,1,3.567,1.509,29.778,29.778,0,0,1,1.82,6.333,30.657,30.657,0,0,1-.916,13.934" transform="translate(-1918.939 -1161.462)" fill="#0f476d"/>
      <path id="Caminho_4841" data-name="Caminho 4841" d="M2025.3,771.182l-2.094,1.934c-3.494,3.228-3.25,3.266-5.724,5.42-2.722,2.371-4.531,3.52-4.5,5.25a2.488,2.488,0,0,1-.108,1.081,3.1,3.1,0,0,1-3.557,1.718,3.151,3.151,0,0,1-1.6-2.066c-1.384-4.15,11.256-19.2,15.094-23.68a11.1,11.1,0,0,0,3.9,3.9,8.127,8.127,0,0,0,2.635.676c.442-.052.737.438-1.053,2.632a28.673,28.673,0,0,1-2.988,3.139" transform="translate(-1916.718 -726.393)" fill="#0f476d"/>
      <path id="Caminho_4842" data-name="Caminho 4842" d="M1988.584,1727.367a.8.8,0,0,0,.448.42c.819.383,1.674,0,3.436-.124a6.715,6.715,0,0,1,1.36-.023c.752.1,1.011.317,1.507.187a1.5,1.5,0,0,0,.906-.682,1.557,1.557,0,0,0,.044-1.332,1.937,1.937,0,0,0-.5-.639,2.312,2.312,0,0,0-1.541-.45c-1.957.032-2.354,1.677-4.147,1.636-.42-.009-.971-.127-1.3.21a.812.812,0,0,0-.208.8" transform="translate(-1898.516 -1646.635)" fill="#e89a0f"/>
      <path id="Caminho_4843" data-name="Caminho 4843" d="M2058.49,1404.972l-5.366.561.713,3.389c.307,1.787.488,3.3.6,4.44a27.994,27.994,0,0,1,.172,4.877,20.734,20.734,0,0,1-.338,2.477l3.114-.3a50.526,50.526,0,0,0,1.208-5.183,26.921,26.921,0,0,0,.57-4.822,20.938,20.938,0,0,0-.672-5.441" transform="translate(-1960.169 -1341.361)" fill="#e89a0f"/>
      <path id="Caminho_4844" data-name="Caminho 4844" d="M2356.6,751.647q.053,1.424.1,2.848c.472,3.877.265,6.065.386,7.873.072,1.074.743,5.6,1.8,7.622,1.087,2.079.929,7.375-.979,6.113-.02-.013-.617,1-.628.98-1.088-2.079-4.713-6.131-5.463-9.468l-4.695-20.814a11.1,11.1,0,0,0,5.494-.422,8.126,8.126,0,0,0,2.229-1.559c.248-.369.813-.274,1.312,2.513a28.624,28.624,0,0,1,.437,4.312" transform="translate(-2240.857 -710.952)" fill="#19517f"/>
      <path id="Caminho_4845" data-name="Caminho 4845" d="M2510.9,1276.762a4.92,4.92,0,0,1-1.979,2.182c-.266-2.4-1.007-4.476-1.588-7.207-1.038-4.874-3.561-9.183-5-12.794-.443-1.956-.2-2.57.11-2.764a17.714,17.714,0,0,1,2.2-.391l.01,0a1.38,1.38,0,0,1,1.568,1.237,29.785,29.785,0,0,1,2.973,5.88,30.664,30.664,0,0,1,1.709,13.859" transform="translate(-2388.804 -1198.901)" fill="#19517f"/>
      <path id="Caminho_4846" data-name="Caminho 4846" d="M2542.776,1758.013a.8.8,0,0,0,.51.341c.871.243,1.652-.273,3.369-.687a6.675,6.675,0,0,1,1.337-.246c.758-.029,1.05.146,1.518-.064a1.5,1.5,0,0,0,.782-.821,1.558,1.558,0,0,0-.176-1.321,1.934,1.934,0,0,0-.6-.548,2.311,2.311,0,0,0-1.594-.191c-1.926.353-2.046,2.041-3.822,2.3-.416.06-.979.035-1.251.422a.812.812,0,0,0-.074.82" transform="translate(-2427.575 -1674.99)" fill="#f7bd3c"/>
      <path id="Caminho_4847" data-name="Caminho 4847" d="M2568.092,1429.5l-5.252,1.234,1.135,3.272c.531,1.734.9,3.213,1.156,4.329a28.071,28.071,0,0,1,.787,4.816,20.813,20.813,0,0,1-.023,2.5l3.052-.688a50.575,50.575,0,0,0,.543-5.294,26.921,26.921,0,0,0-.044-4.856,20.934,20.934,0,0,0-1.354-5.312" transform="translate(-2446.807 -1364.778)" fill="#f7bd3c"/>
      <path id="Caminho_4848" data-name="Caminho 4848" d="M2164.57,268.107A13.553,13.553,0,0,0,2176.052,265c-.883-4.561-1.895-8.351-2.753-11.218-.441-1.472-.678-2.252-1.106-3.36-.467-1.211-.761-1.768-1.306-3.306-.46-1.3-.372-1.246-.6-1.733a5.585,5.585,0,0,0-2.4-2.866,5.37,5.37,0,0,0-3.332-.333,7.987,7.987,0,0,0-1.866.533,7.29,7.29,0,0,0-2.053,1.14,6.566,6.566,0,0,0-1.032,1.05,6.49,6.49,0,0,0-.343,2.4,7.674,7.674,0,0,0,1.062,3.293c1.316,2.559,1.868,3.108,2.5,4.349.827,1.635,1.024,3.24,1.418,6.448a46.315,46.315,0,0,1,.331,6.711" transform="translate(-2061.494 -231.102)" fill="#19c6d8"/>
      <path id="Caminho_4849" data-name="Caminho 4849" d="M2333.183,285.894c.284-.137-.051-1.064-1.368-8.071-.093-.494-.172-.917-.232-1.244a17.026,17.026,0,0,0-1.957-3.907c-.209-.3-.381-.5-.906-1.145-1.057-1.3-1.96-2.417-2.667-3.294a4.138,4.138,0,0,0-.866,1.333c-.859,2.171.5,4.532,1.933,6.931,5.514,9.258,5.891,9.48,6.064,9.4" transform="translate(-2219.657 -256.09)" fill="#14bcc4"/>
      <path id="Caminho_4850" data-name="Caminho 4850" d="M2256.658,603.017c.78-.076.308-3.006,1.958-3.9a6.841,6.841,0,0,0,2.318-1.443c.066-.069.115-.124.146-.16a3.856,3.856,0,0,0,1.066-2.332,4.871,4.871,0,0,0-1.066-2.8,17.282,17.282,0,0,1-1.537-3.321,3.985,3.985,0,0,0-3.01-2.637l-.036-.007c-.229-.042-3.874-.617-5.542,1.724a4.124,4.124,0,0,0-.624,2.778,12.653,12.653,0,0,1,.635,1.754,16.084,16.084,0,0,1,.5,4.644c0,.311-.025.31-.015.4.146,1.269,2.013,1.366,3.489,2.864,1.23,1.248,1.214,2.479,1.716,2.43" transform="translate(-2148.422 -559.782)" fill="#19517f"/>
      <path id="Caminho_4851" data-name="Caminho 4851" d="M2116.316,160.94a12.526,12.526,0,0,1,1.219,1.915,12.281,12.281,0,0,1,.538,1.194,12.765,12.765,0,0,1,.666,2.378.91.91,0,0,0,1.077.732,3.611,3.611,0,0,0,2.711-2.389.9.9,0,0,0-.2-.914,14.873,14.873,0,0,1-1.9-2.508,15.138,15.138,0,0,1-.984-1.933l-.324.158-2.8,1.369" transform="translate(-2020.499 -152.195)" fill="#edb170"/>
      <path id="Caminho_4852" data-name="Caminho 4852" d="M2116.316,164.271a12.524,12.524,0,0,1,1.219,1.915,12.276,12.276,0,0,1,.538,1.194,1.235,1.235,0,0,0,.277-.075c1.1-.44,1.406-2.377.767-4.4l-2.8,1.369" transform="translate(-2020.499 -155.526)" fill="#e5a25e"/>
      <path id="Caminho_4853" data-name="Caminho 4853" d="M2046.269,33.28a2.226,2.226,0,0,1-1.312-1.322,2.3,2.3,0,0,1,.435-2.1,2.625,2.625,0,0,1,1.735-.781c.989-.009,1.238.733,2.775,1.214,1.089.341,1.439.118,1.908.52a2.826,2.826,0,0,1,.607,2.429,2.232,2.232,0,0,0-.087,1.821,1.964,1.964,0,0,0,.521.694,1.3,1.3,0,0,1-.607.781c-.34.172-.578.031-.94.222a1.339,1.339,0,0,0-.594.647c-.668,1.148-3.83-2.132-4.441-4.122" transform="translate(-1952.27 -27.757)" fill="#032349"/>
      <path id="Caminho_4854" data-name="Caminho 4854" d="M2082.83,95.351c.385,2.186-.227,4.167-1.419,4.437s-2.49-1.28-2.9-3.461-.585-2.772.619-3.311c1.572-.7,3.127-.911,3.7,2.335" transform="translate(-1984.114 -88.394)" fill="#f7c589"/>
      <path id="Caminho_4855" data-name="Caminho 4855" d="M2169.463,152.156c.247.232.17.682-.17,1.006a.813.813,0,0,1-1.062.167c-.246-.232-.17-.682.17-1.006a.813.813,0,0,1,1.062-.167" transform="translate(-2069.925 -145.139)" fill="#f7c589"/>
      <path id="Caminho_4856" data-name="Caminho 4856" d="M2264.935,261.55l1.348-.375-5.136-18.484a1.357,1.357,0,0,0-.7-.316,1.266,1.266,0,0,0-.793.164l5.285,19.011" transform="translate(-2157.344 -231.392)" fill="#19517f"/>
      <path id="Caminho_4857" data-name="Caminho 4857" d="M2144.076,351.576l-1.306.5-6.244-16.142a2.9,2.9,0,0,1,1-1.466l6.551,17.105" transform="translate(-2039.793 -319.328)" fill="#19517f"/>
      <path id="Caminho_4858" data-name="Caminho 4858" d="M1347.827,477.913h0a1.206,1.206,0,0,0,1.253-.287L1398.8,421.2a.511.511,0,0,0-.238-.865,1.206,1.206,0,0,0-1.253.287l-49.72,56.423a.511.511,0,0,0,.239.864" transform="translate(-1286.427 -401.242)" fill="#104366"/>
      <path id="Caminho_4859" data-name="Caminho 4859" d="M1303.17,1617.059l2.583.891,3.884-4.754-2.583-.891Z" transform="translate(-1244.169 -1539.308)" fill="#18bcc4"/>
      <path id="Caminho_4860" data-name="Caminho 4860" d="M2222.614,639.975c.248.661,1.335.842,2.084.612a2.067,2.067,0,0,0,1.007-.714,1.9,1.9,0,0,0,.166-2.275.158.158,0,0,0-.01-.133.128.128,0,0,0-.121-.054,6.292,6.292,0,0,0-1.835.55c-.367.275-1.6,1.2-1.29,2.014" transform="translate(-2121.938 -608.552)" fill="#f7c589"/>
      <path id="Caminho_4861" data-name="Caminho 4861" d="M2257.871,460.984c1.941-.36,4.906-.348,8.775-1.344,3.124-.8,8.365-4.025,8.746-5.374.66-2.337-.361-4.825-1.935-4.27-.681.24-1.764,2.1-2.038,2.585-.791,1.4-4.479,3.037-14.064,6.109a.409.409,0,0,0-.247.554l.764,1.74" transform="translate(-2154.883 -429.548)" fill="#f7c589"/>
      <path id="Caminho_4862" data-name="Caminho 4862" d="M2338.082,253.411l-4.614,2.993c-.981-.669-10.964-7.546-10.511-10.664a3,3,0,0,1,.846-1.76,3.5,3.5,0,0,1,2.85-.484c2.156.357,3.743,1.659,6.13,4.233,1.131,1.22,2.707,2.914,5.3,5.682" transform="translate(-2217.771 -232.377)" fill="#19c6d8"/>
      <path id="Caminho_4863" data-name="Caminho 4863" d="M1197.868,1693.4l-10.842-3.73,1.388-5.378,9.368,3.383q.043,2.862.087,5.725" transform="translate(-1133.283 -1608.031)" fill="#19c6d8"/>
      <path id="Caminho_4864" data-name="Caminho 4864" d="M3347.53,513.106a2.511,2.511,0,0,0,2.1.459c1.348-.484,1.062-2.637,2.135-7.893a25.543,25.543,0,0,0,.5-6.532,2.1,2.1,0,0,0-1.958-2.154l-.048,0a2.243,2.243,0,0,0-1.44.337c-1.647,1.15-.459,4.655-.528,9.542a29.816,29.816,0,0,1-.761,6.244" transform="translate(-3195.97 -474.474)" fill="#f2b879"/>
      <path id="Caminho_4865" data-name="Caminho 4865" d="M3150.539,1035.358c.289-.072-.027-1.427.5-1.678.316-.151.59.267.882.125.5-.244.417-1.826-.209-3.022a4.138,4.138,0,0,0-.221-.374l-.924-.2a.3.3,0,0,0-.346.2,7.257,7.257,0,0,0-.359,2.152c-.056,1.07-.172,1.247-.022,1.758.161.552.512,1.081.7,1.034" transform="translate(-3007.158 -983.56)" fill="#f2b879"/>
      <path id="Caminho_4866" data-name="Caminho 4866" d="M3169.722,808.63a1.711,1.711,0,0,0-1.469-.274c-1,.239-1.448,1.161-2.2,2.318a22.05,22.05,0,0,1-2.641,3.356c-.5.5-2.335,2.277-3.755,3.394a2.35,2.35,0,0,0-.87,1.188,2.109,2.109,0,0,0-.013,1.048l.01.01a.727.727,0,0,0,1.007.015c.615-.571,1.418-1.283,2.389-2.054,1.713-1.361,2.748-1.957,3.654-2.621a16.257,16.257,0,0,0,4.1-4.479,1.824,1.824,0,0,0-.212-1.9" transform="translate(-3015.705 -771.703)" fill="#f2b879"/>
      <path id="Caminho_4867" data-name="Caminho 4867" d="M3137.538,973.141a6.851,6.851,0,0,1-3.352-2.779,6.117,6.117,0,0,1-.735-2.82,1.4,1.4,0,0,1,.174-.729,1.787,1.787,0,0,0,.147-.228.889.889,0,0,0,.051-.366,1.4,1.4,0,0,1,.3-1.034c.074-.071.168-.133.192-.234a.692.692,0,0,0,0-.173.757.757,0,0,1,.08-.319,3.542,3.542,0,0,1,.881-1.061,3.7,3.7,0,0,1,1.959-.9Z" transform="translate(-2991.583 -918.917)" fill="#f7dfad"/>
      <path id="Caminho_4868" data-name="Caminho 4868" d="M3092.15,1014.883a.756.756,0,0,1-.408-.117,1.11,1.11,0,0,1-.254-.235,1.038,1.038,0,0,0-.074-.081.558.558,0,0,0-.518-.065,2.371,2.371,0,0,0-.676.408l-.428-.563a2.937,2.937,0,0,1,.895-.521,1.235,1.235,0,0,1,1.21.223,1.715,1.715,0,0,1,.128.138.613.613,0,0,0,.093.1c.036.022.15-.009.222-.092a1.369,1.369,0,0,0,.211-.549l.688.162a1.912,1.912,0,0,1-.361.846.992.992,0,0,1-.729.349" transform="translate(-2949.901 -967.638)" fill="#f7bd3c"/>
      <path id="Caminho_4869" data-name="Caminho 4869" d="M3142.15,957.4a5.665,5.665,0,0,1,3.154-.9,8.186,8.186,0,0,1,4.183.791c.741.364,3.231,1.585,3.865,4.237a5.376,5.376,0,0,1-.145,2.987,5.806,5.806,0,0,1-3.236,3.294,6.772,6.772,0,0,1-4.471.147,7.1,7.1,0,0,1-2.949-1.373c-1.864-1.542-3.111-4.461-2.174-6.9a5.125,5.125,0,0,1,1.773-2.275" transform="translate(-2997.891 -913.169)" fill="#0f8c91"/>
      <path id="Caminho_4870" data-name="Caminho 4870" d="M3144.872,1056.539a9.006,9.006,0,0,0,1.874,3.241,7.413,7.413,0,0,0,3.035,1.991,7.817,7.817,0,0,0,1.789.4,10.683,10.683,0,0,0,1.86.05,10.917,10.917,0,0,0,3.665-.86,7.935,7.935,0,0,1-3.615,1.409,9.21,9.21,0,0,1-1.974.067,8.062,8.062,0,0,1-1.957-.4,6.99,6.99,0,0,1-3.223-2.3,6.967,6.967,0,0,1-1.454-3.6" transform="translate(-3002.488 -1008.704)" fill="#f7bd3c"/>
      <path id="Caminho_4871" data-name="Caminho 4871" d="M3165.854,976.944a10.291,10.291,0,0,0-2.452-2.875,10.012,10.012,0,0,0-1.567-1.011,9.481,9.481,0,0,0-1.721-.707,9.8,9.8,0,0,0-1.813-.424,7.512,7.512,0,0,0-5.357,1.262,6.225,6.225,0,0,1,3.431-1.846,7.15,7.15,0,0,1,2-.081,9.8,9.8,0,0,1,1.949.415,8.979,8.979,0,0,1,3.434,1.975,7.665,7.665,0,0,1,2.094,3.292" transform="translate(-3010.193 -927.256)" fill="#f7bd3c"/>
      <path id="Caminho_4872" data-name="Caminho 4872" d="M3155.325,1045.732c.979.481,1.944.956,2.923,1.392s1.972.828,2.978,1.185,2.025.674,3.059.955,2.082.522,3.145.77a15.768,15.768,0,0,1-3.264-.231,19.1,19.1,0,0,1-6.165-2.188,15.5,15.5,0,0,1-2.676-1.883" transform="translate(-3012.467 -998.386)" fill="#f7bd3c"/>
      <path id="Caminho_4873" data-name="Caminho 4873" d="M3176.567,1029.751a21.27,21.27,0,0,0-2.665-1.733c-.465-.243-.931-.479-1.412-.679s-.969-.382-1.466-.537a16.229,16.229,0,0,0-3.058-.642,21.156,21.156,0,0,0-3.177-.089,9.963,9.963,0,0,1,3.211-.461,11.257,11.257,0,0,1,3.235.518,12.169,12.169,0,0,1,1.53.6,12.047,12.047,0,0,1,1.422.817,10.056,10.056,0,0,1,2.38,2.2" transform="translate(-3021.503 -979.173)" fill="#f7bd3c"/>
      <path id="Caminho_4874" data-name="Caminho 4874" d="M3195.917,297.585a3.57,3.57,0,0,1,2.2-.641,3.765,3.765,0,0,1,2.377.548,3.721,3.721,0,0,1,1.211,2.809,11.9,11.9,0,0,0,.345,3.128,17.138,17.138,0,0,0,1.009,1.954,7.876,7.876,0,0,1,.8,3.39,6.087,6.087,0,0,1-1.765,4.674,4.437,4.437,0,0,1-4.718.717,4.227,4.227,0,0,1-2.374-4.106c.153-1.606,1.262-3.13.9-4.7-.2-.866-.818-1.579-1.084-2.426-.388-1.239.308-1.806.547-2.876.193-.865-.344-1.729.551-2.469" transform="translate(-3050.064 -283.496)" fill="#104366"/>
      <path id="Caminho_4875" data-name="Caminho 4875" d="M3169.611,315c.458.236,2.35.9,2.8.328.133-.169.023-.3-.05-1.4-.052-.8,0-.871-.062-1.421a4.967,4.967,0,0,0-.309-1.545,3.852,3.852,0,0,0-5.24-1.171,3.79,3.79,0,0,0-1.419,3.349,2.209,2.209,0,0,0,.293,1.112c.772,1.183.776-.024,1.183-.178.859-.325,2.063.55,2.8.931" transform="translate(-3022.015 -295.216)" fill="#19517f"/>
      <path id="Caminho_4876" data-name="Caminho 4876" d="M3352.334,1724.7a.676.676,0,0,0,.158.608,3.2,3.2,0,0,0,.434.372c1.406,1,2.787.154,4.7.577.59.13.881.634,1.5.583a1.489,1.489,0,0,0,1.014-.51,1.557,1.557,0,0,0,.281-1.3,1.937,1.937,0,0,0-.379-.719,2.335,2.335,0,0,0-1.438-.718c-1.835-.328-3.08,1.448-4.756.968-.171-.049-.347-.305-.665-.311a1.2,1.2,0,0,0-.848.453" transform="translate(-3200.542 -1645.514)" fill="#efad29"/>
      <path id="Caminho_4877" data-name="Caminho 4877" d="M3468.353,1209.892l2.414.214a48.406,48.406,0,0,1,1.584-9.868,41.611,41.611,0,0,0,1.28-6.089,33.458,33.458,0,0,0,.21-7.67,2.015,2.015,0,0,0-2.887-1.643c-.11.053-.221.111-.332.174l-.041.023a3.461,3.461,0,0,0-1.969,2.528c.4,3.393.627,5.96.694,7.085.066,1.1.094,2.094.094,2.094.01.309.016.636.022,1.139.054,4.455.073,6.727-.324,8.918a28.545,28.545,0,0,1-.744,3.1" transform="translate(-3311.323 -1130.997)" fill="#247cd3"/>
      <path id="Caminho_4878" data-name="Caminho 4878" d="M3462.183,1386.853l-5.634-1.357c.126,1.585.193,2.912.232,3.882a32.5,32.5,0,0,1-.073,6.1c-.088.614-.266,1.483-.621,3.221-.257,1.259-.485,2.3-.645,3.008l3.123.216a38.466,38.466,0,0,1,2.041-9.867,23.937,23.937,0,0,0,1.577-5.2" transform="translate(-3298.996 -1322.767)" fill="#efad29"/>
      <path id="Caminho_4879" data-name="Caminho 4879" d="M3478.045,737.183c-1.782,1.427-3.474,2.036-4.21,1.454-.7-.55-.578-2.1-.074-3.486q.981-2.7,2.11-5.481a159.822,159.822,0,0,1,6.817-14.62,3.954,3.954,0,0,1,3.987-1.444,4.094,4.094,0,0,1,2.667,4.839,12.241,12.241,0,0,1-.344,1.829c-.652,2.431-1.83,3.782-3.628,6.1a97.612,97.612,0,0,0-5.765,8.167c-.694,1.116-1.226,2.047-1.559,2.642" transform="translate(-3316.091 -681.191)" fill="#247cd3"/>
      <path id="Caminho_4880" data-name="Caminho 4880" d="M3792.644,1722.261a.676.676,0,0,0,.367.509,3.189,3.189,0,0,0,.54.189c1.673.419,2.654-.867,4.591-1.168.6-.093,1.051.272,1.608,0a1.489,1.489,0,0,0,.76-.843,1.559,1.559,0,0,0-.212-1.317,1.931,1.931,0,0,0-.614-.532,2.333,2.333,0,0,0-1.6-.147c-1.829.36-2.345,2.466-4.081,2.628-.177.016-.434-.159-.733-.049a1.2,1.2,0,0,0-.626.73" transform="translate(-3620.931 -1641.052)" fill="#f7bd3c"/>
      <path id="Caminho_4881" data-name="Caminho 4881" d="M3730.888,1219.86l2.326-.677a48.411,48.411,0,0,1-2.1-9.771,41.652,41.652,0,0,0-1.016-6.138,33.442,33.442,0,0,0-2.586-7.224,2.015,2.015,0,0,0-3.287-.484q-.125.134-.247.282l-.03.036a3.459,3.459,0,0,0-.918,3.07c1.606,3.016,2.746,5.327,3.217,6.351.46,1,.848,1.918.848,1.918.121.284.246.587.434,1.053,1.667,4.132,2.509,6.242,2.932,8.428a28.564,28.564,0,0,1,.43,3.156" transform="translate(-3554.399 -1140.821)" fill="#2b84ef"/>
      <path id="Caminho_4882" data-name="Caminho 4882" d="M3785.109,1391.592l-5.742.779c.692,1.432,1.236,2.644,1.624,3.534a32.507,32.507,0,0,1,2.145,5.711c.141.6.29,1.479.589,3.227.217,1.266.381,2.316.49,3.037l2.989-.932a38.459,38.459,0,0,1-1.677-9.935,23.938,23.938,0,0,0-.417-5.421" transform="translate(-3608.255 -1328.587)" fill="#f7bd3c"/>
      <path id="Caminho_4883" data-name="Caminho 4883" d="M3715.412,705.179c-1.143,1.976-2.5,3.157-3.4,2.883-.848-.26-1.3-1.749-1.334-3.222q-.063-2.868-.022-5.872a159.931,159.931,0,0,1,1.05-16.1,3.954,3.954,0,0,1,3.191-2.792,4.094,4.094,0,0,1,4.241,3.542,12.218,12.218,0,0,1,.343,1.829c.274,2.5-.333,4.188-1.169,7a97.745,97.745,0,0,0-2.41,9.7c-.241,1.291-.4,2.352-.494,3.028" transform="translate(-3542.643 -649.269)" fill="#2b84ef"/>
      <path id="Caminho_4884" data-name="Caminho 4884" d="M3372.643,428.051c-3.589-3.591-4.644-6.5-7.351-6.54-2.254-.031-4.712,1.9-4.863,2.018a5.134,5.134,0,0,0-1.344,1.534,3.317,3.317,0,0,0-.539,1.742c.042.911.661,1.337,2.377,3.266,1.448,1.627,1.277,1.739,1.624,2,.38.281,3.664.635,4.855,1.15.659.285,4.028,3.885,4.616,5.792a11.8,11.8,0,0,0,1.362-.455,28.023,28.023,0,0,0,2.583-1.466,8.487,8.487,0,0,1,2.015-.634,7.424,7.424,0,0,0,.926-.321c.866-.411,1.173-1.7,1.287-2.527a31.817,31.817,0,0,1-7.547-5.553" transform="translate(-3206.485 -402.427)" fill="#1156a8"/>
      <path id="Caminho_4885" data-name="Caminho 4885" d="M3548.294,780.757c-.054-.119-.069-.155-.067-.155Z" transform="translate(-3387.581 -745.26)" fill="#ea942d"/>
      <path id="Caminho_4886" data-name="Caminho 4886" d="M3540.878,670.627a4.871,4.871,0,0,0,2.993-.363,4.938,4.938,0,0,0,2.425-2.6,23.029,23.029,0,0,1-6.929-4.25l-4.273,3.078a17.143,17.143,0,0,0,5.784,4.135" transform="translate(-3375.042 -633.378)" fill="#2b84ef"/>
      <path id="Caminho_4887" data-name="Caminho 4887" d="M3427.151,450.767l-.948.942a21.51,21.51,0,0,1-9.03-11.207,1.4,1.4,0,0,1,1.466-.531,17.082,17.082,0,0,0,8.513,10.8" transform="translate(-3262.459 -420.012)" fill="#2b84ef"/>
      <path id="Caminho_4888" data-name="Caminho 4888" d="M3364.14,507.307l-.948.942a21.543,21.543,0,0,1-5.594-4.969,13.558,13.558,0,0,1-2.8-4.815c.076-.1-.373-1.758-.037-1.894.393-.159.539.347.66.377a19.537,19.537,0,0,0,8.714,10.359" transform="translate(-3202.757 -474.06)" fill="#1c68da"/>
      <path id="Caminho_4889" data-name="Caminho 4889" d="M3266.007,416.379a2.749,2.749,0,0,0,1.4-.884,2.583,2.583,0,0,0,.173-2.724,7.444,7.444,0,0,1-2.344-.029,7.681,7.681,0,0,1-3.755-1.832l-1,2.312a11.718,11.718,0,0,1,4.047,1.878,11.462,11.462,0,0,1,1.476,1.279" transform="translate(-3112.865 -392.306)" fill="#f2b879"/>
      <path id="Caminho_4890" data-name="Caminho 4890" d="M3193.792,379.188a4.25,4.25,0,0,0,1.083,1.919,4.678,4.678,0,0,0,1.367,1.423,2.758,2.758,0,0,0,2.581.26c1.083-.7.955-2.928.087-4.323-.781-1.256-2.586-2.52-3.914-1.837a2.635,2.635,0,0,0-1.2,2.558" transform="translate(-3049.176 -359.395)" fill="#f7c589"/>
      <path id="Caminho_4891" data-name="Caminho 4891" d="M3475.025,460.182a2.712,2.712,0,0,0,2.306.292c1.4-.65.889-2.939,1.539-8.7a27.6,27.6,0,0,0-.092-7.075,2.27,2.27,0,0,0-2.314-2.129h-.051a2.423,2.423,0,0,0-1.518.5c-1.662,1.4-.047,5.052.349,10.316a32.2,32.2,0,0,1-.218,6.791" transform="translate(-3316.865 -422.535)" fill="#f7c589"/>
      <path id="Caminho_4892" data-name="Caminho 4892" d="M3292.373,1043.268a1.324,1.324,0,0,0,.956-.465c.139-.189.136-.33.2-.843.173-1.3.355-1.635.121-2.113a1.446,1.446,0,0,0-.274-.381l-1.014-.126a2,2,0,0,0-.353.253,3.044,3.044,0,0,0-.776,2.229c-.035.6-.047.912.18,1.159a1.2,1.2,0,0,0,.954.286" transform="translate(-3142.208 -992.284)" fill="#f7c589"/>
      <path id="Caminho_4893" data-name="Caminho 4893" d="M3319.517,780.04a1.849,1.849,0,0,0-1.606-.154c-1.049.353-1.446,1.389-2.143,2.705a23.78,23.78,0,0,1-2.519,3.864c-.488.589-2.293,2.674-3.713,4.013a2.538,2.538,0,0,0-.823,1.362,2.284,2.284,0,0,0,.087,1.128l.012.01a.785.785,0,0,0,1.084-.08c.606-.674,1.4-1.516,2.373-2.439,1.712-1.628,2.769-2.369,3.679-3.171a17.552,17.552,0,0,0,3.978-5.212,1.97,1.97,0,0,0-.411-2.026" transform="translate(-3158.878 -744.463)" fill="#f7c589"/>
      <path id="Caminho_4894" data-name="Caminho 4894" d="M3160.87,354a1.6,1.6,0,0,0,1.337.067.856.856,0,0,0,.41-1.154,2.327,2.327,0,0,0-.311-.331,1.252,1.252,0,0,1-.011-1.772c.718-.581,2.011-.019,2.593-.736a1.122,1.122,0,0,0-.078-1.356,2.431,2.431,0,0,0-1.243-.737c-3.933-1.186-6.542,4.3-2.7,6.021" transform="translate(-3015.961 -332.065)" fill="#19517f"/>
      <path id="Caminho_4895" data-name="Caminho 4895" d="M3432.376,1499.324a1.356,1.356,0,0,1-.155-.616.56.56,0,0,1,.467-.537.721.721,0,0,1,.223.024.865.865,0,0,0,.094.018.529.529,0,0,0,.455-.245,1.859,1.859,0,0,0,.241-.59l.274.078a2.109,2.109,0,0,1-.285.68.8.8,0,0,1-.716.362,1.2,1.2,0,0,1-.126-.023.5.5,0,0,0-.137-.019c-.114.009-.2.148-.206.271a1.116,1.116,0,0,0,.131.484Z" transform="translate(-3276.826 -1429.584)" fill="#d88225"/>
      <path id="Caminho_4896" data-name="Caminho 4896" d="M3227.037,1461.95a4.267,4.267,0,0,1-1.492,1.97,6.166,6.166,0,0,1-2.878,1.413,5.114,5.114,0,0,1-4.243-.807,4.05,4.05,0,0,1-1.263-1.865,4.375,4.375,0,0,1,.462-3.447,5.1,5.1,0,0,1,2.628-2.108,5.341,5.341,0,0,1,2.4-.5,4.884,4.884,0,0,1,4.428,3.177,3.862,3.862,0,0,1-.04,2.172" transform="translate(-3071.333 -1390.648)" fill="#f7dfad"/>
      <path id="Caminho_4897" data-name="Caminho 4897" d="M3226.766,1475.79a6.189,6.189,0,0,0-2.564-1.232,5.408,5.408,0,0,0-2.807.141,6.72,6.72,0,0,0-2.44,1.436,7.316,7.316,0,0,0-1.733,2.27,6.686,6.686,0,0,1,.677-1.282,6.791,6.791,0,0,1,.951-1.1,6.647,6.647,0,0,1,2.483-1.514,5.421,5.421,0,0,1,2.9-.1,5.906,5.906,0,0,1,1.36.529,5.762,5.762,0,0,1,1.17.856" transform="translate(-3071.561 -1407.506)" fill="#f7bd3c"/>
      <path id="Caminho_4898" data-name="Caminho 4898" d="M3232.837,1540.692a6.968,6.968,0,0,0,2.768.753,7.185,7.185,0,0,0,2.821-.424,6.343,6.343,0,0,0,2.451-1.439,5.374,5.374,0,0,0,1.437-2.461,5.094,5.094,0,0,1-.468,1.38,5.153,5.153,0,0,1-.857,1.191,6.29,6.29,0,0,1-2.5,1.521,7.069,7.069,0,0,1-2.9.388,6.228,6.228,0,0,1-2.757-.909" transform="translate(-3086.47 -1467.528)" fill="#f7bd3c"/>
      <path id="Caminho_4899" data-name="Caminho 4899" d="M3231.828,1519.418c-.811.084-1.617.2-2.413.355a21.227,21.227,0,0,0-2.356.6c-.388.117-.771.25-1.152.389s-.753.3-1.128.456c-.745.323-1.473.686-2.189,1.075.335-.232.685-.443,1.038-.65s.719-.389,1.087-.568a17.069,17.069,0,0,1,4.673-1.458,15.721,15.721,0,0,1,2.44-.2" transform="translate(-3076.688 -1450.626)" fill="#f7bd3c"/>
      <path id="Caminho_4900" data-name="Caminho 4900" d="M3231.9,1532.766a11.828,11.828,0,0,0,1.2.045,10.2,10.2,0,0,0,1.2-.076c.4-.052.791-.114,1.18-.2a10.647,10.647,0,0,0,1.146-.339,10.268,10.268,0,0,0,2.149-1.042,9.95,9.95,0,0,0,.977-.7,11.619,11.619,0,0,0,.906-.794,8.989,8.989,0,0,1-1.8,1.621,9.608,9.608,0,0,1-2.167,1.1,9.713,9.713,0,0,1-2.378.5,9.065,9.065,0,0,1-2.417-.124" transform="translate(-3085.573 -1460.407)" fill="#f7bd3c"/>
    </g>
  </g>
</svg>
