<svg xmlns="http://www.w3.org/2000/svg" xmlns:xlink="http://www.w3.org/1999/xlink" width="753.113" height="327.002" viewBox="0 0 753.113 327.002">
  <defs>
    <clipPath id="clip-path">
      <rect id="Retângulo_2925" data-name="Retângulo 2925" width="673.922" height="273.642" fill="none"/>
    </clipPath>
    <clipPath id="clip-path-2">
      <rect id="Retângulo_2926" data-name="Retângulo 2926" width="673.168" height="233.204" fill="none"/>
    </clipPath>
    <clipPath id="clip-path-3">
      <path id="Caminho_5726" data-name="Caminho 5726" d="M234.409,738.6H911.63V620.849c-40.413-4.889-251.531-30.306-279.186-31.292-.112,0-.226-.006-.347-.006-32.933.007-397.688,149.05-397.688,149.05" transform="translate(-234.409 -589.551)" fill="#65554d"/>
    </clipPath>
    <clipPath id="clip-path-4">
      <rect id="Retângulo_3116" data-name="Retângulo 3116" width="747.047" height="304.347" transform="translate(0 0)" fill="none"/>
    </clipPath>
    <clipPath id="clip-path-5">
      <path id="Caminho_5737" data-name="Caminho 5737" d="M234.409,558.717V713.075H903.523v-3.016C818.455,688.49,303.372,558.576,237.641,558.577a32.207,32.207,0,0,0-3.232.14" transform="translate(-234.409 -558.577)" fill="#3b302a"/>
    </clipPath>
    <clipPath id="clip-path-6">
      <rect id="Retângulo_3117" data-name="Retângulo 3117" width="753.113" height="304.347" transform="translate(0 0)" fill="none"/>
    </clipPath>
    <clipPath id="clip-path-7">
      <path id="Caminho_5743" data-name="Caminho 5743" d="M234.409,1074.966H911.63V997.717Z" transform="translate(-234.409 -997.717)" fill="#65554d"/>
    </clipPath>
  </defs>
  <g id="Grupo_3405" data-name="Grupo 3405" transform="translate(-236.355 -1391.347)">
    <g id="Grupo_3396" data-name="Grupo 3396" transform="translate(271.484 1414)" opacity="0.13">
      <g id="Grupo_3236" data-name="Grupo 3236" transform="translate(0)">
        <g id="Grupo_3235" data-name="Grupo 3235" opacity="0.27" clip-path="url(#clip-path)">
          <path id="Caminho_4645" data-name="Caminho 4645" d="M908.33,31.927V273.646H234.409V106.534C288.665,83.817,486.534,1.574,510.583.027c27.905-1.8,216.314,108.832,237.672,112.261,20,3.208,99.426-70.666,160.075-80.36" transform="translate(-234.409 -0.004)" fill="#193b4e"/>
        </g>
      </g>
    </g>
    <g id="Grupo_3397" data-name="Grupo 3397" transform="translate(271.484 1454.438)" opacity="0.2">
      <g id="Grupo_3239" data-name="Grupo 3239" transform="translate(0 0)" opacity="0.364">
        <g id="Grupo_3238" data-name="Grupo 3238" clip-path="url(#clip-path-2)">
          <path id="Caminho_4646" data-name="Caminho 4646" d="M907.576,336.374V463.081H234.409V260.766c25.263-12.373,56.994-27.27,69.988-30.679,23.084-6.055,231,120.825,262.674,118.9S704.229,264.4,736.619,264.4c21.435,0,112.078,42.93,170.957,71.975" transform="translate(-234.409 -229.877)" fill="#193b4e"/>
        </g>
      </g>
    </g>
    <path id="Caminho_5713" data-name="Caminho 5713" d="M907.575,467.8V637.739H234.409V569.794S817.927,457.689,907.575,467.8" transform="translate(37.077 1049.903)" fill="#65554d"/>
    <path id="Caminho_5714" data-name="Caminho 5714" d="M234.409,644.109s180.567-54.246,217.915-54.541,451.2,71.8,451.2,71.8v77.249H234.409Z" transform="translate(37.077 949.029)" fill="#3b302a"/>
    <path id="Caminho_5715" data-name="Caminho 5715" d="M907.544,620.848V738.6H234.409S599.631,588.459,630.043,589.556c27.488.986,237.332,26.4,277.5,31.292" transform="translate(37.077 949.042)" fill="#4d413a"/>
    <g id="Grupo_3398" data-name="Grupo 3398" transform="translate(267.431 1538.592)" clip-path="url(#clip-path-3)">
      <path id="Caminho_5716" data-name="Caminho 5716" d="M.041,24.991,364.5.095l-.034.57L.007,25.561Z" transform="matrix(0.93, -0.367, 0.367, 0.93, 111.479, 127.822)" fill="#65554d"/>
      <path id="Caminho_5717" data-name="Caminho 5717" d="M1422.765,719.449l-1.176-.9,298.864-159.085,1.176.9Z" transform="translate(-1248.389 -564.757)" fill="#65554d"/>
      <path id="Caminho_5718" data-name="Caminho 5718" d="M1783.835,724.585l-2.174-1.256,267.765-161.434,2.174,1.256Z" transform="translate(-1555.929 -566.76)" fill="#65554d"/>
      <path id="Caminho_5719" data-name="Caminho 5719" d="M2144.906,729.721l-3.173-1.612L2378.4,564.325l3.173,1.612Z" transform="translate(-1863.47 -568.763)" fill="#65554d"/>
      <path id="Caminho_5720" data-name="Caminho 5720" d="M2505.977,734.857l-4.171-1.968,205.567-166.133,4.171,1.968Z" transform="translate(-2171.011 -570.766)" fill="#65554d"/>
      <path id="Caminho_5721" data-name="Caminho 5721" d="M2867.047,739.992l-5.169-2.325,174.469-168.481,5.168,2.325Z" transform="translate(-2478.552 -572.768)" fill="#65554d"/>
      <path id="Caminho_5722" data-name="Caminho 5722" d="M3228.118,745.129l-6.168-2.681,143.369-170.83,6.168,2.681Z" transform="translate(-2786.093 -574.772)" fill="#65554d"/>
      <path id="Caminho_5723" data-name="Caminho 5723" d="M3589.19,750.264l-7.167-3.037,112.27-173.179,7.167,3.037Z" transform="translate(-3093.635 -576.775)" fill="#65554d"/>
      <path id="Caminho_5724" data-name="Caminho 5724" d="M3950.26,755.4l-8.164-3.394,81.172-175.529,8.165,3.394Z" transform="translate(-3401.175 -578.777)" fill="#65554d"/>
      <path id="Caminho_5725" data-name="Caminho 5725" d="M.611,9.8,185.144.043l-.606,9.882L0,19.681Z" transform="translate(583.978 173.434) rotate(-71.252)" fill="#65554d"/>
    </g>
    <g id="Grupo_3394" data-name="Grupo 3394" transform="translate(239.389 1414.001)" clip-path="url(#clip-path-4)">
      <path id="Caminho_5709" data-name="Caminho 5709" d="M899.441,721.219v3.238H232.409l1-165.731c49.1-5.449,579.891,138.9,666.032,162.493" transform="translate(-200.826 -453.078)" fill="#453933"/>
    </g>
    <g id="Grupo_3399" data-name="Grupo 3399" transform="translate(271.484 1533.144)" clip-path="url(#clip-path-5)">
      <path id="Caminho_5727" data-name="Caminho 5727" d="M860.869,772.258C791.611,752.4,716.226,733.289,644.11,716.175s-140.964-32.237-197.148-44.133c-121.751-25.778-211.9-42.374-212.8-42.539l.071-.577c.9.165,91.053,16.762,212.809,42.541,71.51,15.141,139.766,30.439,202.871,45.47,78.883,18.789,149.9,37.211,211.064,54.753Z" transform="translate(-234.198 -616.551)" fill="#3b302a"/>
      <path id="Caminho_5728" data-name="Caminho 5728" d="M208.583,640.355c.28.052,11.034,1.386,28.691,4.766,32.581,6.238,93.419,22.391,163.607,37.252,35.842,7.589,72.365,18.293,106.066,25.9,26.066,5.886,52.565,13.993,77.029,19.819,70.118,16.7,136.139,38.639,190.414,54.737-9.1-2.61-18.989-4.683-28.3-7.259-53.68-14.856-112.961-33.985-167.589-46.95-34.289-8.137-69.266-18.685-100.614-25.641-27.258-6.049-54.087-13.824-77.315-18.743-108.223-22.913-191.255-43.224-191.989-43.884" transform="translate(-212.306 -625.969)" fill="#3b302a"/>
      <path id="Caminho_5729" data-name="Caminho 5729" d="M182.51,651.783a228.658,228.658,0,0,1,25.861,3.583c28.509,5.458,84.512,24.909,145.927,37.912,31.362,6.64,65.12,19.46,94.608,26.119,22.807,5.15,47.3,14.757,68.71,19.855C578.97,753.866,640,779.319,687.489,793.405c-7.962-2.283-17.372-3.511-25.519-5.765-46.97-13-101.7-35.226-149.5-46.57-30-7.12-62.319-19.632-89.748-25.719-23.851-5.292-48.638-14.614-68.962-18.917-94.695-20.049-170.607-44.075-171.249-44.652" transform="translate(-189.991 -635.387)" fill="#3b302a"/>
      <path id="Caminho_5730" data-name="Caminho 5730" d="M156.437,663.21a129.182,129.182,0,0,1,23.031,2.4c24.436,4.678,75.605,27.427,128.247,38.572,26.882,5.692,57.874,20.628,83.15,26.336,19.549,4.415,42.043,15.521,60.392,19.891,52.589,12.526,108.626,41.494,149.332,53.568-6.824-1.957-15.755-2.338-22.737-4.271-40.26-11.142-90.441-36.466-131.413-46.19-25.717-6.1-55.371-20.578-78.882-25.8-20.444-4.536-43.189-15.4-60.61-19.091-81.167-17.185-149.959-44.926-150.509-45.42" transform="translate(-167.676 -644.804)" fill="#3b302a"/>
      <path id="Caminho_5731" data-name="Caminho 5731" d="M130.364,673.817a80.42,80.42,0,0,1,20.2,1.218c20.363,3.9,66.7,29.944,110.567,39.232,22.4,4.743,50.629,21.8,71.692,26.552,16.291,3.679,36.783,16.285,52.073,19.927,43.824,10.438,94.87,42.921,128.792,52.983-5.687-1.631-14.137-1.166-19.956-2.776-33.55-9.285-79.182-37.707-113.325-45.81-21.43-5.086-48.423-21.525-68.015-25.872-17.036-3.78-37.74-16.193-52.257-19.266-67.639-14.321-129.311-45.776-129.77-46.188" transform="translate(-145.362 -653.4)" fill="#3b302a"/>
      <path id="Caminho_5732" data-name="Caminho 5732" d="M104.291,682.7a52.876,52.876,0,0,1,17.371.035c16.29,3.119,57.792,32.462,92.887,39.892,17.921,3.794,43.383,22.964,60.234,26.769,13.033,2.943,31.522,17.05,43.754,19.963,35.059,8.351,81.113,44.349,108.251,52.4-4.549-1.3-12.52.007-17.175-1.282-26.84-7.428-67.922-38.948-95.236-45.43-17.144-4.069-41.475-22.471-57.149-25.949-13.629-3.024-32.291-16.982-43.905-19.441-54.111-11.457-108.663-46.626-109.03-46.956" transform="translate(-123.047 -660.268)" fill="#3b302a"/>
      <path id="Caminho_5733" data-name="Caminho 5733" d="M78.219,690.4c.105.019,7.919-2.416,14.541-1.148,12.218,2.339,48.885,34.979,75.206,40.552,13.441,2.846,36.138,24.131,48.776,26.985,9.775,2.208,26.261,17.814,35.435,20,26.294,6.263,67.357,45.777,87.71,51.814-3.412-.979-10.9,1.179-14.394.212-20.13-5.571-56.663-40.188-77.148-45.05-12.858-3.051-34.527-23.417-46.283-26.026-10.222-2.268-26.842-17.771-35.553-19.616-40.583-8.593-88.015-47.476-88.29-47.723" transform="translate(-100.733 -665.966)" fill="#3b302a"/>
      <path id="Caminho_5734" data-name="Caminho 5734" d="M52.146,697.336c.07.013,7.3-3.176,11.711-2.33,8.145,1.559,39.979,37.5,57.526,41.212,8.961,1.9,28.892,25.3,37.318,27.2,6.516,1.471,21,18.578,27.116,20.035,17.53,4.175,53.6,47.2,67.17,51.229-2.275-.652-9.285,2.352-11.613,1.707-13.42-3.714-45.4-41.429-59.06-44.67-8.572-2.034-27.579-24.364-35.416-26.1-6.814-1.512-21.393-18.561-27.2-19.79C92.641,740.1,52.329,697.5,52.146,697.336" transform="translate(-78.418 -670.889)" fill="#3b302a"/>
      <path id="Caminho_5735" data-name="Caminho 5735" d="M26.073,703.743c.035.006,6.673-3.936,8.881-3.513,4.073.78,31.072,40.015,39.846,41.873,4.48.949,21.647,26.467,25.86,27.418,3.258.736,15.739,19.343,18.8,20.071,8.765,2.088,39.845,48.632,46.629,50.645-1.137-.326-7.668,3.524-8.832,3.2-6.71-1.857-34.143-42.669-40.972-44.29-4.286-1.017-20.632-25.311-24.55-26.18-3.407-.756-15.944-19.35-18.848-19.965-13.528-2.864-46.72-49.177-46.811-49.26" transform="translate(-56.104 -675.285)" fill="#3b302a"/>
      <path id="Caminho_5736" data-name="Caminho 5736" d="M73.134,850.113,36.567,779.946,0,709.779l6.05-4.7L42.617,775.25l36.567,70.167Z" transform="translate(-33.789 -679.311)" fill="#3b302a"/>
    </g>
    <g id="Grupo_3395" data-name="Grupo 3395" transform="translate(236.355 1414.001)" clip-path="url(#clip-path-6)">
      <path id="Caminho_5710" data-name="Caminho 5710" d="M3408.135,1027.281c-1.161-3.607-2.626-7.4-4.925-9.937-4.2-4.639-9.774-5.07-14.117-.148-8.806-7.723-16.2-4.334-20.795,6.919-7.756-3.161-17.971,4.248-18.663,16.927-.257,4.709,3.583,10.1,8.3,8.235a4.8,4.8,0,0,0,3.372.106c17.7-5.988,28.552-9.221,41.608-8.494,4.827.269,8.813-7.408,5.218-13.608" transform="translate(-2865.839 -821.693)" fill="#3b302a"/>
      <path id="Caminho_5711" data-name="Caminho 5711" d="M1390.319,1177.921c-1.258-3.908-2.846-8.015-5.336-10.768-4.547-5.027-10.592-5.494-15.3-.159-9.543-8.37-17.558-4.7-22.534,7.5-8.4-3.426-19.475,4.6-20.224,18.343-.278,5.1,3.882,10.941,9,8.924a5.2,5.2,0,0,0,3.654.115c19.18-6.489,30.94-9.993,45.088-9.205,5.231.292,9.551-8.028,5.654-14.747" transform="translate(-1135.268 -942.914)" fill="#3b302a"/>
      <path id="Caminho_5712" data-name="Caminho 5712" d="M234.409,1080.657l670.433-82.941v82.941Z" transform="translate(-200.554 -809.277)" fill="#3b302a"/>
    </g>
    <g id="Grupo_3400" data-name="Grupo 3400" transform="translate(267.4 1610.394)" clip-path="url(#clip-path-7)">
      <path id="Caminho_5738" data-name="Caminho 5738" d="M576.088,1151.355a1.355,1.355,0,0,1-1.231-1.36,1.438,1.438,0,0,1,1.123-1.617l672.37-71.5a1.326,1.326,0,0,1,1.341,1.354,1.438,1.438,0,0,1-1.124,1.617l-672.37,71.5c-.037,0-.074.005-.11.005" transform="translate(-525.185 -1062.949)" fill="#65554d"/>
      <path id="Caminho_5739" data-name="Caminho 5739" d="M1447.832,1178.814a1.64,1.64,0,0,1-1.474-1.339,2.077,2.077,0,0,1,.915-2.453l544.885-65.338a1.511,1.511,0,0,1,2.034,1.1,2.039,2.039,0,0,1-.915,2.453l-544.885,65.338a.8.8,0,0,1-.56.235" transform="translate(-1269.47 -1089.886)" fill="#65554d"/>
      <path id="Caminho_5740" data-name="Caminho 5740" d="M2319.086,1205.852a1.97,1.97,0,0,1-1.718-1.317,2.752,2.752,0,0,1,.708-3.289l417.4-59.177a1.816,1.816,0,0,1,2.728.853,2.693,2.693,0,0,1-.707,3.289l-417.4,59.177a1.372,1.372,0,0,1-1.011.464" transform="translate(-2013.266 -1116.402)" fill="#65554d"/>
      <path id="Caminho_5741" data-name="Caminho 5741" d="M3190.061,1232.682a2.331,2.331,0,0,1-1.96-1.3,3.417,3.417,0,0,1,.5-4.125l289.915-53.016a2.185,2.185,0,0,1,3.422.6,3.363,3.363,0,0,1-.5,4.126l-289.915,53.016a1.951,1.951,0,0,1-1.462.693" transform="translate(-2756.783 -1142.711)" fill="#65554d"/>
      <path id="Caminho_5742" data-name="Caminho 5742" d="M4060.894,1259.4a2.722,2.722,0,0,1-2.2-1.274,4.07,4.07,0,0,1,.292-4.962l162.43-46.855a2.587,2.587,0,0,1,4.116.352,4.039,4.039,0,0,1-.292,4.962l-162.43,46.855a2.529,2.529,0,0,1-1.912.922" transform="translate(-3500.158 -1168.906)" fill="#65554d"/>
    </g>
    <g id="Grupo_3393" data-name="Grupo 3393" transform="translate(848 1436.403) rotate(-90)">
      <path id="Caminho_4684" data-name="Caminho 4684" d="M0,0V24.683L21.365,41.47V16.786Z" transform="translate(0 0)" fill="none" stroke="#65554d" stroke-width="0.5"/>
      <path id="Caminho_4685" data-name="Caminho 4685" d="M0,74.2,21.365,90.99V66.308L0,49.521Z" transform="translate(0 -22.227)" fill="none" stroke="#65554d" stroke-width="0.5"/>
      <path id="Caminho_4686" data-name="Caminho 4686" d="M63.9,0,42.532,16.786V41.47L63.9,24.683Z" transform="translate(-19.09 0)" fill="none" stroke="#65554d" stroke-width="0.5"/>
      <path id="Caminho_4687" data-name="Caminho 4687" d="M42.532,66.308V90.99L63.9,74.2V49.521Z" transform="translate(-19.09 -22.227)" fill="none" stroke="#65554d" stroke-width="0.5"/>
    </g>
  </g>
</svg>
