<svg xmlns="http://www.w3.org/2000/svg" width="28.32" height="36.619" viewBox="0 0 28.32 36.619">
  <g id="Grupo_600" data-name="Grupo 600" transform="translate(-368 -300)">
    <path id="Caminho_1094" data-name="Caminho 1094" d="M506.764,625H491.511a.672.672,0,1,0,0,1.343h15.252a.672.672,0,1,0,0-1.343Z" transform="translate(-115.322 -305.164)" fill="#fff"/>
    <path id="Caminho_1095" data-name="Caminho 1095" d="M506.764,561H491.511a.7.7,0,0,0,0,1.4h15.252a.7.7,0,0,0,0-1.4Z" transform="translate(-115.322 -245.07)" fill="#fff"/>
    <path id="Caminho_1096" data-name="Caminho 1096" d="M422.322,413.1c-.119,0-.261,0-.322.01v1.213a1.549,1.549,0,0,0,.272.022c.855,0,.952-.347.952-.649C423.224,413.521,423.233,413.1,422.322,413.1Z" transform="translate(-50.704 -106.201)" fill="#fff"/>
    <path id="Caminho_1097" data-name="Caminho 1097" d="M482.556,413.1c-.128,0-.312.011-.556.034v2.9c.244.008.315.012.511.012a1.158,1.158,0,0,0,1.072-.518,1.944,1.944,0,0,0,.258-1.042C483.841,413.545,483.436,413.1,482.556,413.1Z" transform="translate(-107.042 -106.201)" fill="#fff"/>
    <path id="Caminho_1098" data-name="Caminho 1098" d="M383.5,370.7a1.7,1.7,0,0,0-1.7-1.7H369.7a1.7,1.7,0,0,0-1.7,1.7V375.6a1.7,1.7,0,0,0,1.7,1.7h12.109a1.7,1.7,0,0,0,1.7-1.7Zm-10.556,2.748a2.306,2.306,0,0,1-1.446.43,1.865,1.865,0,0,1-.2-.007v1.724h-1.038v-4.7l.177-.031a7.263,7.263,0,0,1,1.177-.111,2.175,2.175,0,0,1,1.381.4,1.347,1.347,0,0,1,.54,1.1A1.424,1.424,0,0,1,372.947,373.445Zm4.366,1.337a2.35,2.35,0,0,1-1.941.8c-.256,0-.649-.03-1.222-.092l-.168-.022V370.9l.167-.023c.7-.08,1.124-.119,1.375-.119a2.208,2.208,0,0,1,1.814.742,2.449,2.449,0,0,1,.488,1.585A2.651,2.651,0,0,1,377.313,374.782Zm3.992-3.035h-2.014v.854h1.892v1.038h-1.892v1.953h-1.1V370.77h3.113Z" transform="translate(0 -64.789)" fill="#fff"/>
    <path id="Caminho_1099" data-name="Caminho 1099" d="M436.855,300v0H424.676A1.7,1.7,0,0,0,423,301.728v1.69h1.4v-.877a1.1,1.1,0,0,1,1.085-1.137h11.366v8a1.7,1.7,0,0,0,1.691,1.707h8.013v19.675a1.151,1.151,0,0,1-1.148,1.138h-5.084a1.807,1.807,0,0,1-.129.185l-.9,1.158h6.929a1.7,1.7,0,0,0,1.739-1.668V311.1Z" transform="translate(-51.643)" fill="#fff"/>
    <path id="Caminho_1100" data-name="Caminho 1100" d="M430.6,537.555h-5.115a1.1,1.1,0,0,1-1.085-1.138V519H423v18.229a1.649,1.649,0,0,0,1.676,1.668h6.962l-.9-1.155A1.874,1.874,0,0,1,430.6,537.555Z" transform="translate(-51.643 -205.633)" fill="#fff"/>
    <path id="Caminho_1101" data-name="Caminho 1101" d="M566.982,698.019h-1.839v-6.213A.788.788,0,0,0,564.4,691h-2.269a.815.815,0,0,0-.774.806v6.213h-1.807a.45.45,0,0,0-.358.712l3.715,4.845a.458.458,0,0,0,.717.01l3.715-4.859A.446.446,0,0,0,566.982,698.019Z" transform="translate(-179.443 -367.135)" fill="#fff"/>
  </g>
</svg>
