<svg xmlns="http://www.w3.org/2000/svg" width="38.198" height="36.619" viewBox="0 0 38.198 36.619">
  <g id="Grupo_602" data-name="Grupo 602" transform="translate(-40 -276.571)">
    <path id="Caminho_1102" data-name="Caminho 1102" d="M175.518,326.069a1.353,1.353,0,1,1-1.353-1.353A1.353,1.353,0,0,1,175.518,326.069Z" transform="translate(-102.97 -37.327)" fill="#fff"/>
    <path id="Caminho_1103" data-name="Caminho 1103" d="M102.69,394.745H86.885a.854.854,0,0,0,0,1.707H102.69a.854.854,0,0,0,0-1.707Z" transform="translate(-35.688 -91.621)" fill="#fff"/>
    <path id="Caminho_1104" data-name="Caminho 1104" d="M102.69,413.525H86.885a.854.854,0,1,0,0,1.707H102.69a.854.854,0,0,0,0-1.707Z" transform="translate(-35.688 -106.182)" fill="#fff"/>
    <path id="Caminho_1105" data-name="Caminho 1105" d="M86.885,378.088H102.69a.853.853,0,0,0,0-1.707H86.885a.853.853,0,1,0,0,1.707Z" transform="translate(-35.688 -77.384)" fill="#fff"/>
    <path id="Caminho_1106" data-name="Caminho 1106" d="M92.729,356.583H67.117a.258.258,0,0,0-.258.258v15.48a2.907,2.907,0,0,0,2.9,2.9H90.083a2.907,2.907,0,0,0,2.9-2.9v-15.48A.258.258,0,0,0,92.729,356.583Zm-1.678,15.738a.969.969,0,0,1-.968.968H69.762a.969.969,0,0,1-.968-.968v-13.8H91.051Z" transform="translate(-20.824 -62.034)" fill="#fff"/>
    <g id="Grupo_601" data-name="Grupo 601" transform="translate(40 276.571)">
      <path id="Caminho_1107" data-name="Caminho 1107" d="M68.489,282.894v-3.958a.345.345,0,0,1,.351-.338H90.265a.345.345,0,0,1,.351.338v3.958h2.107v-3.958a2.416,2.416,0,0,0-2.459-2.365H68.841a2.416,2.416,0,0,0-2.459,2.365v3.958Z" transform="translate(-60.454 -276.571)" fill="#fff"/>
      <path id="Caminho_1108" data-name="Caminho 1108" d="M78.2,310.279a3.161,3.161,0,0,0-3.161-3.161H43.161A3.161,3.161,0,0,0,40,310.279v13.375a1.4,1.4,0,0,0,1.405,1.4h4.114v-1.936H41.936V310.279a1.227,1.227,0,0,1,1.225-1.225H75.037a1.227,1.227,0,0,1,1.225,1.225v12.845H72.679v1.936h4.114a1.4,1.4,0,0,0,1.4-1.4Z" transform="translate(-40 -300.254)" fill="#fff"/>
    </g>
  </g>
</svg>
