<svg xmlns="http://www.w3.org/2000/svg" width="26.44" height="26.456" viewBox="0 0 26.44 26.456">
  <g id="Group_819" data-name="Group 819" transform="translate(-209.667 -339.344)">
    <path id="Path_1333" data-name="Path 1333" d="M807.882,622.117h1.651a.529.529,0,0,0,.529-.529V620a.529.529,0,0,0-.529-.529h-1.651a.529.529,0,0,0-.529.529v1.587A.529.529,0,0,0,807.882,622.117Z" transform="translate(-577.921 -270.865)" fill="#193b4e"/>
    <path id="Path_1334" data-name="Path 1334" d="M807.882,782.022h1.651a.529.529,0,0,0,.529-.529v-1.587a.529.529,0,0,0-.529-.529h-1.651a.529.529,0,0,0-.529.529v1.587A.529.529,0,0,0,807.882,782.022Z" transform="translate(-577.921 -425.482)" fill="#193b4e"/>
    <path id="Path_1335" data-name="Path 1335" d="M234.785,342H224.209v-2.124a.529.529,0,0,0-.668-.51l-13.485,3.85a.529.529,0,0,0-.39.51v17.7a.528.528,0,0,0,.39.51l13.485,3.847a.529.529,0,0,0,.668-.51v-2.593h10.576a1.322,1.322,0,0,0,1.322-1.322V343.32A1.322,1.322,0,0,0,234.785,342Zm-13.527,13.694a1.323,1.323,0,0,1-.169,1.863,1.339,1.339,0,0,1-1.862-.169l-2.29-2.748-2.29,2.748a1.322,1.322,0,1,1-2.031-1.694l2.6-3.119-2.6-3.119a1.322,1.322,0,1,1,2.031-1.694l2.29,2.748,2.29-2.748a1.322,1.322,0,1,1,2.031,1.694l-2.6,3.119Zm12.2,4.342h-9.254V356.54h2.115a.529.529,0,0,0,.529-.529v-1.587a.529.529,0,0,0-.529-.529h-2.115v-2.644h2.115a.529.529,0,0,0,.529-.529v-1.587a.529.529,0,0,0-.529-.529h-2.115v-3.966h9.254Z" transform="translate(0 0)" fill="#193b4e"/>
  </g>
</svg>
