<svg xmlns="http://www.w3.org/2000/svg" width="82.824" height="82.824" viewBox="0 0 82.824 82.824">
  <g id="Group_1038" data-name="Group 1038" transform="translate(-1536.088 -512.088)">
    <g id="Group_855" data-name="Group 855" transform="translate(1543.688 519.688)">
      <path id="Path_1401" data-name="Path 1401" d="M141.312,111.87A25.035,25.035,0,1,1,129.09,95.057l6.538-6.325a33.782,33.782,0,1,0,12.845,16.21Z" transform="translate(-83 -83)" fill="#193b4e"/>
      <path id="Path_1403" data-name="Path 1403" d="M141.312,111.87A25.035,25.035,0,1,1,129.09,95.057l6.538-6.325a33.782,33.782,0,1,0,12.845,16.21Z" transform="matrix(0.259, -0.966, 0.966, 0.259, -109.253, 116.411)" fill="#193b4e"/>
    </g>
    <path id="Union_1" data-name="Union 1" d="M10770.437-8461.688l-7.638-7.639-7.637,7.639a4.158,4.158,0,0,1-5.875,0,4.153,4.153,0,0,1,0-5.875l7.638-7.639-7.636-7.636a4.151,4.151,0,0,1,0-5.873,4.151,4.151,0,0,1,5.873,0l7.636,7.636,7.639-7.638a4.149,4.149,0,0,1,5.872,0,4.153,4.153,0,0,1,0,5.875l-7.636,7.637,7.639,7.638a4.153,4.153,0,0,1,0,5.875,4.148,4.148,0,0,1-2.937,1.215A4.146,4.146,0,0,1,10770.437-8461.688Z" transform="translate(-9185.799 9028.201)" fill="#e63027"/>
  </g>
</svg>
