<svg xmlns="http://www.w3.org/2000/svg" width="67.625" height="67.625" viewBox="0 0 67.625 67.625">
  <g id="Group_857" data-name="Group 857" transform="translate(-83 -83)">
    <g id="Group_855" data-name="Group 855" transform="translate(83 83)">
      <path id="Path_1401" data-name="Path 1401" d="M141.312,111.87A25.035,25.035,0,1,1,129.09,95.057l6.538-6.325a33.782,33.782,0,1,0,12.845,16.21Z" transform="translate(-83 -83)" fill="#193b4e"/>
    </g>
    <g id="Group_856" data-name="Group 856" transform="translate(101.376 91.968)">
      <path id="Path_1402" data-name="Path 1402" d="M189.638,162.279a4.4,4.4,0,0,1-3.078-1.252l-11.467-11.173a4.41,4.41,0,0,1,6.156-6.318l8.4,8.185,23.973-23.191a4.41,4.41,0,0,1,6.133,6.34L192.7,161.039A4.4,4.4,0,0,1,189.638,162.279Z" transform="translate(-173.761 -127.291)" fill="#00ca1e"/>
    </g>
  </g>
</svg>
