<svg id="seta-01" xmlns="http://www.w3.org/2000/svg" xmlns:xlink="http://www.w3.org/1999/xlink" width="58.23" height="55.41" viewBox="0 0 58.23 55.41">
  <defs>
    <linearGradient id="linear-gradient" x1="-1.103" y1="16.45" x2="-1.033" y2="17.425" gradientUnits="objectBoundingBox">
      <stop offset="0" stop-color="#5c5c5c"/>
      <stop offset="0.31" stop-color="#555"/>
      <stop offset="0.44" stop-color="#525252"/>
      <stop offset="0.54" stop-color="#484848"/>
      <stop offset="0.58" stop-color="#424242"/>
      <stop offset="1" stop-color="#323232"/>
    </linearGradient>
    <linearGradient id="linear-gradient-2" x1="14.657" y1="2.452" x2="15.657" y2="2.452" gradientUnits="objectBoundingBox">
      <stop offset="0" stop-color="#323232"/>
      <stop offset="0.42" stop-color="#424242"/>
      <stop offset="0.46" stop-color="#484848"/>
      <stop offset="0.56" stop-color="#525252"/>
      <stop offset="0.69" stop-color="#555"/>
      <stop offset="1" stop-color="#5c5c5c"/>
    </linearGradient>
    <linearGradient id="linear-gradient-3" x1="-3.046" y1="32.806" x2="-2.339" y2="32.145" gradientUnits="objectBoundingBox">
      <stop offset="0" stop-color="#bec0c4"/>
      <stop offset="0.02" stop-color="#b6b9bc"/>
      <stop offset="0.06" stop-color="#a1a4a7"/>
      <stop offset="0.08" stop-color="#8e9294"/>
      <stop offset="0.08" stop-color="#a7abac"/>
      <stop offset="0.09" stop-color="#c2c5c6"/>
      <stop offset="0.1" stop-color="#d8dadb"/>
      <stop offset="0.1" stop-color="#e9ebeb"/>
      <stop offset="0.11" stop-color="#f4f6f7"/>
      <stop offset="0.13" stop-color="#fbfdfd"/>
      <stop offset="0.16" stop-color="#fdffff"/>
      <stop offset="0.18" stop-color="#f0f2f3"/>
      <stop offset="0.2" stop-color="#ced0d3"/>
      <stop offset="0.23" stop-color="#989aa0"/>
      <stop offset="0.25" stop-color="#6a6c75"/>
      <stop offset="0.26" stop-color="#7a7d84"/>
      <stop offset="0.27" stop-color="#85888f"/>
      <stop offset="0.29" stop-color="#8b8f95"/>
      <stop offset="0.35" stop-color="#8d9197"/>
      <stop offset="0.36" stop-color="#898d93"/>
      <stop offset="0.38" stop-color="#7e8288"/>
      <stop offset="0.4" stop-color="#6c7076"/>
      <stop offset="0.41" stop-color="#52565c"/>
      <stop offset="0.42" stop-color="#4c5056"/>
      <stop offset="0.44" stop-color="#686b70"/>
      <stop offset="0.46" stop-color="#838589"/>
      <stop offset="0.49" stop-color="#999a9e"/>
      <stop offset="0.52" stop-color="#aaaaae"/>
      <stop offset="0.55" stop-color="#b5b6b9"/>
      <stop offset="0.61" stop-color="#bcbcbf"/>
      <stop offset="0.75" stop-color="#bebec1"/>
      <stop offset="0.8" stop-color="#bcbcbf"/>
      <stop offset="0.82" stop-color="#b5b6b8"/>
      <stop offset="0.84" stop-color="#aaaaad"/>
      <stop offset="0.85" stop-color="#999a9c"/>
      <stop offset="0.85" stop-color="#848486"/>
      <stop offset="0.86" stop-color="#69696a"/>
      <stop offset="0.87" stop-color="#494a4a"/>
      <stop offset="0.88" stop-color="#252626"/>
      <stop offset="0.88" stop-color="#1a1b1a"/>
      <stop offset="0.93" stop-color="#1a1b1a"/>
      <stop offset="0.93" stop-color="#3b3c3c"/>
      <stop offset="0.94" stop-color="#5c5e5f"/>
      <stop offset="0.95" stop-color="#787b7c"/>
      <stop offset="0.96" stop-color="#8d9192"/>
      <stop offset="0.97" stop-color="#9ca0a2"/>
      <stop offset="0.98" stop-color="#a5a9ab"/>
      <stop offset="1" stop-color="#a8acae"/>
    </linearGradient>
    <linearGradient id="linear-gradient-4" x1="37.41" y1="5.364" x2="38.118" y2="4.702" gradientUnits="objectBoundingBox">
      <stop offset="0" stop-color="#bec0c4"/>
      <stop offset="0.05" stop-color="#b0b2b6"/>
      <stop offset="0.18" stop-color="#8e9294"/>
      <stop offset="0.24" stop-color="#95999a"/>
      <stop offset="0.33" stop-color="#a9abac"/>
      <stop offset="0.41" stop-color="#c2c2c2"/>
      <stop offset="0.44" stop-color="#b7b7b7"/>
      <stop offset="0.57" stop-color="#8f8f8f"/>
      <stop offset="0.63" stop-color="gray"/>
      <stop offset="0.68" stop-color="#8b8b8b"/>
      <stop offset="0.77" stop-color="#a7a7a8"/>
      <stop offset="0.83" stop-color="#bebec1"/>
      <stop offset="0.87" stop-color="#bcbcbf"/>
      <stop offset="0.88" stop-color="#b5b6b8"/>
      <stop offset="0.89" stop-color="#aaaaad"/>
      <stop offset="0.9" stop-color="#999a9c"/>
      <stop offset="0.91" stop-color="#848486"/>
      <stop offset="0.91" stop-color="#69696a"/>
      <stop offset="0.92" stop-color="#494a4a"/>
      <stop offset="0.93" stop-color="#252626"/>
      <stop offset="0.93" stop-color="#1a1b1a"/>
      <stop offset="0.93" stop-color="#3b3c3c"/>
      <stop offset="0.94" stop-color="#5c5e5f"/>
      <stop offset="0.95" stop-color="#787b7c"/>
      <stop offset="0.96" stop-color="#8d9192"/>
      <stop offset="0.97" stop-color="#9ca0a2"/>
      <stop offset="0.98" stop-color="#a5a9ab"/>
      <stop offset="1" stop-color="#a8acae"/>
    </linearGradient>
    <radialGradient id="radial-gradient" cx="0.5" cy="0.5" r="0.5" gradientTransform="translate(-32.916 27.953) rotate(-90)" gradientUnits="objectBoundingBox">
      <stop offset="0" stop-color="#ffdb8e"/>
      <stop offset="0.34" stop-color="#e6be80"/>
      <stop offset="0.51" stop-color="#9c8157"/>
      <stop offset="0.69" stop-color="#5a4a32"/>
      <stop offset="0.83" stop-color="#292217"/>
      <stop offset="0.94" stop-color="#0b0906"/>
      <stop offset="1"/>
    </radialGradient>
    <radialGradient id="radial-gradient-2" cx="-5.263" cy="58.358" r="0.5" gradientTransform="matrix(1, 0, 0, 1, 0, 0)" xlink:href="#radial-gradient"/>
  </defs>
  <g id="Layer_1" data-name="Layer 1" transform="translate(-15.13 -21.99)">
    <g id="Grupo_3051" data-name="Grupo 3051">
      <path id="Caminho_4676" data-name="Caminho 4676" d="M15.41,30h-.28v.81c0,16.26,10,32.26,29.12,46.59h0C63.36,63,73.36,47,73.36,30.78V30h-.27c0-3.71-12.92-6.72-28.84-6.72S15.41,26.26,15.41,30Z" fill="#fff" opacity="0"/>
      <path id="Caminho_4677" data-name="Caminho 4677" d="M15.48,29.93H15.2v.81c0,16.16,10,32.07,29.05,46.32h0c19.06-14.25,29-30.16,29-46.32v-.81H73c0-3.69-12.88-6.68-28.77-6.68S15.48,26.24,15.48,29.93Z" fill="#fcfcfc" opacity="0.03"/>
      <path id="Caminho_4678" data-name="Caminho 4678" d="M15.55,29.89h-.28v.81c0,16.06,10,31.88,29,46.05h0c19-14.17,29-30,29-46v-.81h-.28c0-3.66-12.84-6.64-28.69-6.64S15.55,26.23,15.55,29.89Z" fill="#f8f9f9" opacity="0.05"/>
      <path id="Caminho_4679" data-name="Caminho 4679" d="M15.62,29.85h-.28v.8c0,16,9.93,31.7,28.91,45.78h0c19-14.08,28.9-29.8,28.9-45.78v-.8h-.28c0-3.64-12.81-6.6-28.62-6.6S15.62,26.21,15.62,29.85Z" fill="#f5f5f5" opacity="0.08"/>
      <path id="Caminho_4680" data-name="Caminho 4680" d="M15.69,29.81h-.28v.8c0,15.88,9.91,31.52,28.84,45.51h0c18.92-14,28.83-29.63,28.83-45.51v-.8H72.8c0-3.62-12.78-6.56-28.55-6.56S15.69,26.19,15.69,29.81Z" fill="#f2f2f2" opacity="0.11"/>
      <path id="Caminho_4681" data-name="Caminho 4681" d="M15.76,29.77h-.27v.8c0,15.78,9.88,31.33,28.76,45.24h0C63.12,61.9,73,46.35,73,30.57v-.8h-.28c0-3.6-12.75-6.52-28.48-6.52S15.76,26.17,15.76,29.77Z" fill="#efefef" opacity="0.13"/>
      <path id="Caminho_4682" data-name="Caminho 4682" d="M15.83,29.73h-.27v.79c0,15.7,9.85,31.15,28.69,45h0c18.83-13.83,28.68-29.28,28.68-45v-.79h-.27c0-3.57-12.72-6.48-28.41-6.48S15.83,26.16,15.83,29.73Z" fill="#ebecec" opacity="0.16"/>
      <path id="Caminho_4683" data-name="Caminho 4683" d="M15.9,29.7h-.27v.78c0,15.6,9.83,31,28.62,44.7h0C63,61.44,72.86,46.08,72.86,30.48V29.7h-.27c0-3.56-12.69-6.45-28.34-6.45S15.9,26.14,15.9,29.7Z" fill="#e8e8e9" opacity="0.18"/>
      <path id="Caminho_4684" data-name="Caminho 4684" d="M16,29.66h-.3v.78c0,15.5,9.81,30.77,28.55,44.43h0C63,61.21,72.79,45.94,72.79,30.43v-.77h-.27c0-3.54-12.66-6.41-28.27-6.41S16,26.12,16,29.66Z" fill="#e5e5e6" opacity="0.21"/>
      <path id="Caminho_4685" data-name="Caminho 4685" d="M16,29.62h-.27v.77c0,15.41,9.78,30.59,28.48,44.17h0C62.94,61,72.72,45.8,72.72,30.39v-.77h-.27c0-3.52-12.63-6.37-28.2-6.37S16,26.1,16,29.62Z" fill="#e1e2e2" opacity="0.24"/>
      <path id="Caminho_4686" data-name="Caminho 4686" d="M16.11,29.58h-.27v.77c0,15.32,9.76,30.4,28.41,43.89h0c18.64-13.49,28.4-28.57,28.4-43.89v-.77h-.27c0-3.49-12.6-6.33-28.13-6.33S16.11,26.09,16.11,29.58Z" fill="#dedfdf" opacity="0.26"/>
      <path id="Caminho_4687" data-name="Caminho 4687" d="M16.18,29.54h-.27v.76c0,15.23,9.74,30.22,28.34,43.63h0C62.84,60.52,72.58,45.53,72.58,30.3v-.76h-.27c0-3.47-12.56-6.29-28.06-6.29S16.18,26.07,16.18,29.54Z" fill="#dbdbdc" opacity="0.29"/>
      <path id="Caminho_4688" data-name="Caminho 4688" d="M16.25,29.5H16v.76c0,15.13,9.71,30,28.27,43.36h0C62.8,60.29,72.51,45.39,72.51,30.26V29.5h-.27c0-3.45-12.53-6.25-28-6.25S16.25,26.05,16.25,29.5Z" fill="#d8d8d9" opacity="0.32"/>
      <path id="Caminho_4689" data-name="Caminho 4689" d="M16.32,29.46h-.26v.76c0,15,9.68,29.84,28.19,43.09h0c18.5-13.25,28.19-28.06,28.19-43.09v-.76h-.27c0-3.43-12.5-6.21-27.92-6.21S16.32,26,16.32,29.46Z" fill="#d4d5d6" opacity="0.34"/>
      <path id="Caminho_4690" data-name="Caminho 4690" d="M16.39,29.42h-.26v.75c0,14.95,9.66,29.66,28.12,42.82h0C62.7,59.83,72.36,45.12,72.36,30.17v-.75H72.1c0-3.4-12.47-6.17-27.85-6.17S16.39,26,16.39,29.42Z" fill="#d1d2d2" opacity="0.37"/>
      <path id="Caminho_4691" data-name="Caminho 4691" d="M16.46,29.39H16.2v.74C16.2,45,25.83,59.6,44.25,72.68h0c18.41-13.08,28-27.7,28-42.55v-.74H72c0-3.39-12.44-6.14-27.78-6.14S16.46,26,16.46,29.39Z" fill="#cececf" opacity="0.39"/>
      <path id="Caminho_4692" data-name="Caminho 4692" d="M16.53,29.35h-.26v.74c0,14.75,9.61,29.28,28,42.28h0c18.36-13,28-27.53,28-42.28v-.74H72c0-3.37-12.41-6.1-27.71-6.1S16.53,26,16.53,29.35Z" fill="#cacbcc" opacity="0.42"/>
      <path id="Caminho_4693" data-name="Caminho 4693" d="M16.6,29.31h-.26V30c0,14.66,9.59,29.1,27.91,42h0c18.31-12.92,27.9-27.36,27.9-42v-.73h-.26c0-3.35-12.38-6.06-27.64-6.06S16.6,26,16.6,29.31Z" fill="#c7c8c9" opacity="0.45"/>
      <path id="Caminho_4694" data-name="Caminho 4694" d="M16.68,29.27h-.27V30c0,14.57,9.56,28.91,27.84,41.74h0C62.52,58.91,72.08,44.57,72.08,30v-.73h-.26c0-3.32-12.35-6-27.57-6S16.68,26,16.68,29.27Z" fill="#c4c5c6" opacity="0.47"/>
      <path id="Caminho_4695" data-name="Caminho 4695" d="M16.75,29.23h-.27V30c0,14.47,9.54,28.72,27.77,41.47h0C62.47,58.68,72,44.43,72,30v-.73h-.26c0-3.3-12.32-6-27.5-6S16.75,25.93,16.75,29.23Z" fill="#c1c2c3" opacity="0.5"/>
      <path id="Caminho_4696" data-name="Caminho 4696" d="M16.82,29.19h-.27v.72c0,14.38,9.52,28.54,27.7,41.21h0C62.42,58.45,71.94,44.29,71.94,29.91v-.72h-.26c0-3.28-12.29-5.94-27.43-5.94S16.82,25.91,16.82,29.19Z" fill="#bdbebf" opacity="0.53"/>
      <path id="Caminho_4697" data-name="Caminho 4697" d="M16.89,29.15h-.26v.72c0,14.28,9.48,28.35,27.62,40.94h0C62.38,58.22,71.87,44.15,71.87,29.87v-.72H71.6c0-3.26-12.24-5.9-27.35-5.9S16.89,25.89,16.89,29.15Z" fill="#babbbc" opacity="0.55"/>
      <path id="Caminho_4698" data-name="Caminho 4698" d="M17,29.11h-.3v.72C16.7,44,26.16,58,44.25,70.49h0C62.33,58,71.79,44,71.79,29.83v-.72h-.26c0-3.23-12.21-5.86-27.28-5.86S17,25.88,17,29.11Z" fill="#b7b8b9" opacity="0.58"/>
      <path id="Caminho_4699" data-name="Caminho 4699" d="M17,29.07h-.26v.71c0,14.1,9.44,28,27.48,40.4h0c18-12.42,27.47-26.3,27.47-40.4v-.71h-.26c0-3.21-12.18-5.82-27.21-5.82S17,25.86,17,29.07Z" fill="#b3b5b6" opacity="0.61"/>
      <path id="Caminho_4700" data-name="Caminho 4700" d="M17.1,29h-.26v.7c0,14,9.41,27.79,27.41,40.13h0c18-12.34,27.4-26.13,27.4-40.13V29h-.26c0-3.2-12.15-5.79-27.14-5.79S17.1,25.84,17.1,29Z" fill="#b0b1b3" opacity="0.63"/>
      <path id="Caminho_4701" data-name="Caminho 4701" d="M17.17,29h-.26v.7c0,13.9,9.39,27.6,27.34,39.85h0C62.19,57.3,71.58,43.6,71.58,29.69V29h-.26c0-3.18-12.12-5.75-27.07-5.75S17.17,25.82,17.17,29Z" fill="#adaeaf" opacity="0.66"/>
      <path id="Caminho_4702" data-name="Caminho 4702" d="M17.24,29H17v.69c0,13.82,9.37,27.42,27.27,39.59h0C62.14,57.07,71.51,43.47,71.51,29.65V29h-.26c0-3.15-12.09-5.71-27-5.71S17.24,25.81,17.24,29Z" fill="#a9abac" opacity="0.68"/>
      <path id="Caminho_4703" data-name="Caminho 4703" d="M17.31,28.92h-.26v.69c0,13.72,9.34,27.23,27.2,39.32h0C62.1,56.84,71.44,43.33,71.44,29.61v-.69h-.26c0-3.13-12.06-5.67-26.93-5.67S17.31,25.79,17.31,28.92Z" fill="#a6a8a9" opacity="0.71"/>
      <path id="Caminho_4704" data-name="Caminho 4704" d="M17.38,28.88h-.26v.68c0,13.63,9.32,27.05,27.13,39.06h0c17.8-12,27.12-25.43,27.12-39.06v-.68h-.26c0-3.11-12-5.63-26.86-5.63S17.38,25.77,17.38,28.88Z" fill="#a3a4a6" opacity="0.74"/>
      <path id="Caminho_4705" data-name="Caminho 4705" d="M17.45,28.84H17.2v.68c0,13.53,9.29,26.86,27.05,38.78h0C62,56.38,71.3,43.05,71.3,29.52v-.68H71c0-3.08-12-5.59-26.79-5.59S17.45,25.76,17.45,28.84Z" fill="#a0a1a3" opacity="0.76"/>
      <path id="Caminho_4706" data-name="Caminho 4706" d="M17.52,28.8h-.25v.68c0,13.44,9.26,26.67,27,38.51h0c17.71-11.84,27-25.07,27-38.51V28.8H71c0-3.06-12-5.55-26.72-5.55S17.52,25.74,17.52,28.8Z" fill="#9c9e9f" opacity="0.79"/>
      <path id="Caminho_4707" data-name="Caminho 4707" d="M17.59,28.76h-.25v.67c0,13.35,9.24,26.49,26.91,38.25h0c17.66-11.76,26.9-24.9,26.9-38.25v-.67H70.9c0-3-11.93-5.51-26.65-5.51S17.59,25.72,17.59,28.76Z" fill="#999b9c" opacity="0.82"/>
      <path id="Caminho_4708" data-name="Caminho 4708" d="M17.66,28.73h-.25v.66c0,13.25,9.22,26.3,26.84,38h0c17.61-11.68,26.83-24.73,26.83-38v-.66h-.25c0-3-11.9-5.48-26.58-5.48S17.66,25.7,17.66,28.73Z" fill="#969799" opacity="0.84"/>
      <path id="Caminho_4709" data-name="Caminho 4709" d="M17.73,28.69h-.25v.66c0,13.15,9.19,26.11,26.77,37.7h0C61.82,55.46,71,42.5,71,29.35v-.66h-.25c0-3-11.87-5.44-26.51-5.44S17.73,25.69,17.73,28.69Z" fill="#929496" opacity="0.87"/>
      <path id="Caminho_4710" data-name="Caminho 4710" d="M17.8,28.65h-.25v.65c0,13.07,9.17,25.93,26.7,37.44h0C61.77,55.23,70.94,42.37,70.94,29.3v-.65h-.25c0-3-11.84-5.4-26.44-5.4S17.8,25.67,17.8,28.65Z" fill="#8f9193" opacity="0.89"/>
      <path id="Caminho_4711" data-name="Caminho 4711" d="M17.87,28.61h-.25v.65c0,13,9.15,25.74,26.63,37.17h0C61.72,55,70.87,42.23,70.87,29.26v-.65h-.25c0-3-11.81-5.36-26.37-5.36S17.87,25.65,17.87,28.61Z" fill="#8c8e90" opacity="0.92"/>
      <path id="Caminho_4712" data-name="Caminho 4712" d="M17.94,28.57h-.25v.65c0,12.87,9.13,25.55,26.56,36.9h0c17.43-11.35,26.55-24,26.55-36.9v-.65h-.25c0-2.94-11.78-5.32-26.3-5.32S17.94,25.63,17.94,28.57Z" fill="#898a8c" opacity="0.95"/>
      <path id="Caminho_4713" data-name="Caminho 4713" d="M18,28.53h-.25v.64c0,12.78,9.09,25.37,26.48,36.63h0c17.4-11.26,26.5-23.8,26.5-36.63v-.64h-.25c0-2.91-11.75-5.28-26.23-5.28S18,25.62,18,28.53Z" fill="#858789" opacity="0.97"/>
      <path id="Caminho_4714" data-name="Caminho 4714" d="M18.09,28.49h-.25v.64c0,12.69,9.07,25.18,26.41,36.36h0c17.33-11.18,26.4-23.67,26.4-36.36v-.64h-.24c0-2.89-11.72-5.24-26.16-5.24S18.09,25.6,18.09,28.49Z" fill="#828486"/>
    </g>
    <path id="Caminho_4715" data-name="Caminho 4715" d="M18.77,28.34h-.24V29c0,13.06,8.83,25.91,25.72,37.42h0C61.13,54.91,70,42.06,70,29v-.66h-.24c0-3-11.4-5.39-25.47-5.39S18.77,25.36,18.77,28.34Z" fill="url(#linear-gradient)"/>
    <path id="Caminho_4716" data-name="Caminho 4716" d="M20.16,29.23h-.23v.62c0,12.35,8.35,24.5,24.32,35.38h0c16-10.88,24.31-23,24.31-35.38v-.62h-.23c0-2.81-10.78-5.1-24.08-5.1S20.16,26.42,20.16,29.23Z" fill="url(#linear-gradient-2)"/>
    <g id="Grupo_3052" data-name="Grupo 3052">
      <ellipse id="Elipse_76" data-name="Elipse 76" cx="12.41" cy="14.16" rx="12.41" ry="14.16" transform="translate(33.17 21.99)" fill="#f4f6ff" opacity="0"/>
      <ellipse id="Elipse_77" data-name="Elipse 77" cx="12.16" cy="13.62" rx="12.16" ry="13.62" transform="translate(33.26 22.5)" fill="#d5d7de" opacity="0.17"/>
      <path id="Caminho_4717" data-name="Caminho 4717" d="M45.26,23c6.58,0,11.92,5.86,11.92,13.09S51.84,49.17,45.26,49.17,33.34,43.31,33.34,36.09,38.68,23,45.26,23Z" fill="#b7b8be" opacity="0.33"/>
      <path id="Caminho_4718" data-name="Caminho 4718" d="M45.1,23.51c6.44,0,11.67,5.61,11.67,12.54S51.54,48.6,45.1,48.6,33.43,43,33.43,36.05,38.65,23.51,45.1,23.51Z" fill="#98999d" opacity="0.5"/>
      <path id="Caminho_4719" data-name="Caminho 4719" d="M44.93,24c6.31,0,11.43,5.38,11.43,12S51.24,48,44.93,48A11.7,11.7,0,0,1,33.51,36,11.7,11.7,0,0,1,44.93,24Z" fill="#7a7a7d" opacity="0.67"/>
      <path id="Caminho_4720" data-name="Caminho 4720" d="M44.77,24.51A11.48,11.48,0,1,1,33.59,36,11.33,11.33,0,0,1,44.77,24.51Z" fill="#5b5b5c" opacity="0.83"/>
      <path id="Caminho_4721" data-name="Caminho 4721" d="M44.61,25a10.93,10.93,0,1,1-7.76,3.222A10.94,10.94,0,0,1,44.61,25Z" fill="#1a1a1a"/>
    </g>
    <path id="Caminho_4722" data-name="Caminho 4722" d="M44.62,24.69A11.31,11.31,0,1,1,33.31,36,11.31,11.31,0,0,1,44.62,24.69Z" fill="url(#linear-gradient-3)"/>
    <path id="Caminho_4723" data-name="Caminho 4723" d="M54.76,36A10.14,10.14,0,1,1,44.62,25.86,10.14,10.14,0,0,1,54.76,36Z" fill="url(#linear-gradient-4)"/>
    <path id="Caminho_4724" data-name="Caminho 4724" d="M44.13,23.85A12.08,12.08,0,1,1,32.05,35.93,12.08,12.08,0,0,1,44.13,23.85Z" fill="url(#radial-gradient)"/>
    <path id="Caminho_4725" data-name="Caminho 4725" d="M44.13,29.68a6.25,6.25,0,1,1-6.25,6.25A6.25,6.25,0,0,1,44.13,29.68Z" fill="url(#radial-gradient-2)"/>
  </g>
</svg>
