<svg xmlns="http://www.w3.org/2000/svg" width="19.65" height="15.466" viewBox="0 0 19.65 15.466">
  <g id="Grupo_777" data-name="Grupo 777" transform="translate(0 -44.8)">
    <g id="Grupo_776" data-name="Grupo 776" transform="translate(0 44.8)">
      <g id="Grupo_775" data-name="Grupo 775" transform="translate(0 0)">
        <path id="Caminho_1319" data-name="Caminho 1319" d="M19,47.21a2.113,2.113,0,0,0-1.55-.654h-3.1v-.037a1.677,1.677,0,0,0-.5-1.214,1.709,1.709,0,0,0-1.214-.5h-5.6a1.722,1.722,0,0,0-1.737,1.718v.037H2.2a2.113,2.113,0,0,0-1.55.654A2.221,2.221,0,0,0,0,48.76v9.3a2.113,2.113,0,0,0,.654,1.55,2.221,2.221,0,0,0,1.55.654H17.446A2.113,2.113,0,0,0,19,59.612a2.221,2.221,0,0,0,.654-1.55v-9.3A2.113,2.113,0,0,0,19,47.21Zm-.318,10.852H18.66a1.212,1.212,0,0,1-1.214,1.214H2.2A1.212,1.212,0,0,1,.99,58.062v-9.3A1.212,1.212,0,0,1,2.2,47.546H5.809a.5.5,0,0,0,.5-.5V46.5a.7.7,0,0,1,.728-.728h5.585a.7.7,0,0,1,.728.728v.542a.5.5,0,0,0,.5.5h3.605a1.212,1.212,0,0,1,1.214,1.214Z" transform="translate(0 -44.8)" fill="#193b4e"/>
        <path id="Caminho_1320" data-name="Caminho 1320" d="M116.595,130.8a4.592,4.592,0,1,0,3.25,1.345A4.6,4.6,0,0,0,116.595,130.8Zm2.54,7.154a3.608,3.608,0,0,1-5.081,0,3.571,3.571,0,0,1-1.046-2.54,3.65,3.65,0,0,1,1.046-2.54,3.571,3.571,0,0,1,2.54-1.046,3.65,3.65,0,0,1,2.54,1.046,3.571,3.571,0,0,1,1.046,2.54A3.5,3.5,0,0,1,119.135,137.954Z" transform="translate(-106.77 -126.784)" fill="#193b4e"/>
        <circle id="Elipse_2" data-name="Elipse 2" cx="0.915" cy="0.915" r="0.915" transform="translate(15.559 3.997)" fill="#193b4e"/>
      </g>
    </g>
  </g>
</svg>
