<svg xmlns="http://www.w3.org/2000/svg" width="297.527" height="47.5" viewBox="0 0 297.527 47.5">
  <g id="Grupo_704" data-name="Grupo 704" transform="translate(-133.598 -394.571)">
    <path id="Caminho_1232" data-name="Caminho 1232" d="M305.26,442.068H287.944c-9.424,0-19.436-6.533-19.454-24.182-.007-14.448,9.088-23.312,19.454-23.312H305.26v15.382H292.624c-2.258,0-7.583.88-7.583,8.228s5.324,8.439,7.583,8.439H305.26Z" transform="translate(-12.453 0)" fill="#dd171b"/>
    <path id="Caminho_1233" data-name="Caminho 1233" d="M176.784,426.988c6.108,0,7.9-3.43,7.9-7.658s-1.795-7.642-7.9-7.642h-8.542v-4.1h19.15V394.574H151.271v17.114h-9.8c-6.113,0-7.876,3.421-7.876,7.642s1.763,7.658,7.876,7.658h9.588v15.079h17.18V426.988Z" transform="translate(0 0)" fill="#dd171b"/>
    <path id="Caminho_1234" data-name="Caminho 1234" d="M236.076,442.068l7.55-34.212v34.212h15.131V394.574H242.73c-9.63,0-10.533,4.842-11.843,10.633l-3.174,15.42-3.157-15.42c-1.313-5.791-2.2-10.633-11.838-10.633H196.693v47.494h15.128V407.855l7.555,34.212Z" transform="translate(-5.825 0)" fill="#dd171b"/>
    <rect id="Retângulo_256" data-name="Retângulo 256" width="1.182" height="47.5" transform="translate(307.928 394.571)" fill="#dd171b"/>
    <path id="Caminho_1235" data-name="Caminho 1235" d="M337.942,413.339h3.642l-1.826-4.779Zm4.036,1.205h-4.429l-.729,1.869h-1.489l3.585-9.03h1.7l3.585,9.03h-1.49Z" transform="translate(-18.623 -1.183)" fill="#3c3d3e"/>
    <path id="Caminho_1236" data-name="Caminho 1236" d="M350.678,412.467c0-1.083-.555-1.435-1.4-1.435a2.339,2.339,0,0,0-1.8.948v4.671h-1.217v-6.538h1.217v.919a3.125,3.125,0,0,1,2.315-1.083,1.878,1.878,0,0,1,2.1,2.112v4.589h-1.217Z" transform="translate(-19.633 -1.42)" fill="#3c3d3e"/>
    <path id="Caminho_1237" data-name="Caminho 1237" d="M360.065,413.339h3.641l-1.825-4.779Zm4.036,1.205h-4.428l-.731,1.869h-1.489l3.587-9.03h1.691l3.589,9.03h-1.49Z" transform="translate(-20.666 -1.183)" fill="#3c3d3e"/>
    <path id="Caminho_1238" data-name="Caminho 1238" d="M373,411.992a2.282,2.282,0,0,0-1.813-.961,2.32,2.32,0,0,0,0,4.589,2.293,2.293,0,0,0,1.813-.973Zm-4.129,5.443a2.549,2.549,0,0,0,2.1.865A1.8,1.8,0,0,0,373,416.434v-.853a2.756,2.756,0,0,1-2.152,1.123c-1.691,0-2.91-1.245-2.91-3.384,0-2.1,1.219-3.369,2.91-3.369A2.668,2.668,0,0,1,373,411.059v-.948h1.219v6.279c0,2.249-1.638,2.91-3.249,2.91a3.521,3.521,0,0,1-2.68-.973Z" transform="translate(-21.634 -1.42)" fill="#3c3d3e"/>
    <path id="Caminho_1239" data-name="Caminho 1239" d="M377,410.113h1.217v1a2.783,2.783,0,0,1,2.14-1.151V411.2a1.865,1.865,0,0,0-.419-.042,2.316,2.316,0,0,0-1.721.949v4.547H377Z" transform="translate(-22.47 -1.421)" fill="#3c3d3e"/>
    <path id="Caminho_1240" data-name="Caminho 1240" d="M382.018,409.867h1.219V416.4h-1.219Zm-.188-1.815a.781.781,0,0,1,.785-.772.773.773,0,0,1,.783.772.785.785,0,0,1-.783.785.793.793,0,0,1-.785-.785" transform="translate(-22.916 -1.173)" fill="#3c3d3e"/>
    <path id="Caminho_1241" data-name="Caminho 1241" d="M388.4,409.949a2.856,2.856,0,0,1,2.451,1.151l-.811.743a1.834,1.834,0,0,0-1.586-.811,2.362,2.362,0,0,0,0,4.7,1.86,1.86,0,0,0,1.586-.811l.811.743a2.856,2.856,0,0,1-2.451,1.151,3.433,3.433,0,0,1,0-6.863" transform="translate(-23.215 -1.42)" fill="#3c3d3e"/>
    <path id="Caminho_1242" data-name="Caminho 1242" d="M397.325,415.773A3.231,3.231,0,0,1,395,416.828a1.844,1.844,0,0,1-2.085-2.084v-4.615h1.219v4.209c0,1.083.54,1.407,1.382,1.407a2.357,2.357,0,0,0,1.813-.919v-4.7h1.219v6.537h-1.219Z" transform="translate(-23.939 -1.436)" fill="#3c3d3e"/>
    <rect id="Retângulo_257" data-name="Retângulo 257" width="1.219" height="9.03" transform="translate(376.542 406.201)" fill="#3c3d3e"/>
    <path id="Caminho_1243" data-name="Caminho 1243" d="M404.886,415.036v-4.019H403.8v-1.069h1.083v-1.786H406.1v1.786h1.327v1.069H406.1v3.75c0,.459.218.8.637.8a.933.933,0,0,0,.663-.255l.31.919a1.726,1.726,0,0,1-1.271.42,1.422,1.422,0,0,1-1.557-1.611" transform="translate(-24.945 -1.255)" fill="#3c3d3e"/>
    <path id="Caminho_1244" data-name="Caminho 1244" d="M413.705,415.773a3.231,3.231,0,0,1-2.328,1.055,1.844,1.844,0,0,1-2.085-2.084v-4.615h1.217v4.209c0,1.083.542,1.407,1.381,1.407a2.358,2.358,0,0,0,1.815-.919v-4.7h1.217v6.537h-1.217Z" transform="translate(-25.451 -1.436)" fill="#3c3d3e"/>
    <path id="Caminho_1245" data-name="Caminho 1245" d="M417.631,410.113h1.219v1a2.781,2.781,0,0,1,2.138-1.151V411.2a1.848,1.848,0,0,0-.419-.042,2.309,2.309,0,0,0-1.719.949v4.547h-1.219Z" transform="translate(-26.221 -1.421)" fill="#3c3d3e"/>
    <path id="Caminho_1246" data-name="Caminho 1246" d="M426.669,414.105a2.069,2.069,0,0,0-1.679-.746,1.314,1.314,0,1,0,0,2.6,2.071,2.071,0,0,0,1.679-.745Zm0,1.826a2.8,2.8,0,0,1-2.139.879,2.172,2.172,0,0,1-2.275-2.165,2.11,2.11,0,0,1,2.275-2.138,2.729,2.729,0,0,1,2.139.866V412.29c0-.812-.664-1.3-1.6-1.3a2.673,2.673,0,0,0-1.962.865l-.53-.837a3.68,3.68,0,0,1,2.682-1.069c1.421,0,2.624.622,2.624,2.286v4.413h-1.217Z" transform="translate(-26.648 -1.42)" fill="#3c3d3e"/>
    <rect id="Retângulo_258" data-name="Retângulo 258" width="1.219" height="9.03" transform="translate(403.191 406.201)" fill="#3c3d3e"/>
    <path id="Caminho_1247" data-name="Caminho 1247" d="M336.519,429.906a3.816,3.816,0,0,0,2.842,1.273c1.463,0,1.977-.746,1.977-1.4,0-.948-1.027-1.22-2.178-1.518-1.45-.378-3.128-.8-3.128-2.638,0-1.489,1.313-2.572,3.2-2.572a4.413,4.413,0,0,1,3.287,1.26l-.782,1a3.524,3.524,0,0,0-2.615-1.056c-1,0-1.69.514-1.69,1.271,0,.814.975,1.069,2.1,1.355,1.475.392,3.193.851,3.193,2.774,0,1.41-.973,2.72-3.409,2.72a4.63,4.63,0,0,1-3.562-1.432Z" transform="translate(-18.662 -2.63)" fill="#3c3d3e"/>
    <path id="Caminho_1248" data-name="Caminho 1248" d="M348.013,425.772a2.854,2.854,0,0,1,2.45,1.151l-.811.743a1.835,1.835,0,0,0-1.586-.811,2.362,2.362,0,0,0,0,4.7,1.861,1.861,0,0,0,1.586-.811l.811.743a2.855,2.855,0,0,1-2.45,1.151,3.433,3.433,0,0,1,0-6.863" transform="translate(-19.487 -2.88)" fill="#3c3d3e"/>
    <path id="Caminho_1249" data-name="Caminho 1249" d="M352.512,425.688h1.219v6.537h-1.219Zm-.19-1.815a.786.786,0,1,1,.785.785.792.792,0,0,1-.785-.785" transform="translate(-20.192 -2.634)" fill="#3c3d3e"/>
    <path id="Caminho_1250" data-name="Caminho 1250" d="M356.831,428.723h3.993a1.934,1.934,0,0,0-1.991-1.951,2,2,0,0,0-2,1.951m2-2.952c1.965,0,3.182,1.531,3.182,3.534v.3h-5.171a2.144,2.144,0,0,0,2.221,2.03,2.774,2.774,0,0,0,1.934-.771l.57.8a3.685,3.685,0,0,1-2.627.973,3.433,3.433,0,0,1-.11-6.863" transform="translate(-20.491 -2.88)" fill="#3c3d3e"/>
    <path id="Caminho_1251" data-name="Caminho 1251" d="M368.772,428.29c0-1.083-.556-1.435-1.4-1.435a2.329,2.329,0,0,0-1.8.948v4.671h-1.22v-6.538h1.22v.92a3.119,3.119,0,0,1,2.314-1.083,1.879,1.879,0,0,1,2.1,2.112v4.589h-1.219Z" transform="translate(-21.303 -2.88)" fill="#3c3d3e"/>
    <path id="Caminho_1252" data-name="Caminho 1252" d="M375.582,425.772a2.847,2.847,0,0,1,2.448,1.151l-.809.743a1.835,1.835,0,0,0-1.586-.811,2.362,2.362,0,0,0,0,4.7,1.861,1.861,0,0,0,1.586-.811l.809.743a2.848,2.848,0,0,1-2.448,1.151,3.433,3.433,0,0,1,0-6.863" transform="translate(-22.032 -2.88)" fill="#3c3d3e"/>
    <path id="Caminho_1253" data-name="Caminho 1253" d="M380.922,428.723h3.994a1.934,1.934,0,0,0-1.988-1.951,2.007,2.007,0,0,0-2.006,1.951m2.006-2.952c1.962,0,3.18,1.531,3.18,3.534v.3h-5.171a2.143,2.143,0,0,0,2.221,2.03,2.769,2.769,0,0,0,1.933-.771l.571.8a3.683,3.683,0,0,1-2.627.973,3.434,3.434,0,0,1-.107-6.863" transform="translate(-22.715 -2.88)" fill="#3c3d3e"/>
    <path id="Caminho_1254" data-name="Caminho 1254" d="M388.409,430.726a3.165,3.165,0,0,0,2.192.933c.922,0,1.407-.378,1.407-.933,0-.649-.743-.868-1.582-1.055-1.112-.259-2.411-.556-2.411-1.965,0-1.041.893-1.934,2.491-1.934a3.5,3.5,0,0,1,2.491.933l-.541.853a2.554,2.554,0,0,0-1.937-.8c-.825,0-1.339.326-1.339.854,0,.569.7.759,1.515.947,1.136.258,2.492.57,2.492,2.07,0,1.126-.922,2.005-2.64,2.005a3.715,3.715,0,0,1-2.722-1.016Z" transform="translate(-23.47 -2.88)" fill="#3c3d3e"/>
    <path id="Caminho_1255" data-name="Caminho 1255" d="M398.9,427.712a4.522,4.522,0,0,1,4.628-4.671,4.086,4.086,0,0,1,3.588,1.91l-1.152.61a2.862,2.862,0,0,0-2.436-1.313,3.474,3.474,0,0,0,0,6.931,2.862,2.862,0,0,0,2.436-1.313l1.152.61a4.1,4.1,0,0,1-3.588,1.906,4.52,4.52,0,0,1-4.628-4.669" transform="translate(-24.492 -2.628)" fill="#3c3d3e"/>
    <path id="Caminho_1256" data-name="Caminho 1256" d="M414.3,429.2a2.053,2.053,0,1,0-2.03,2.356,2.119,2.119,0,0,0,2.03-2.356m-5.334,0a3.305,3.305,0,1,1,3.3,3.437,3.246,3.246,0,0,1-3.3-3.437" transform="translate(-25.421 -2.88)" fill="#3c3d3e"/>
    <path id="Caminho_1257" data-name="Caminho 1257" d="M425.891,428.113c0-.757-.338-1.259-1.137-1.259a2.1,2.1,0,0,0-1.625.936v4.682H421.91v-4.359c0-.757-.324-1.259-1.149-1.259a2.13,2.13,0,0,0-1.6.947v4.671h-1.22v-6.537h1.22v.919a2.824,2.824,0,0,1,2.11-1.084,1.692,1.692,0,0,1,1.775,1.22,2.739,2.739,0,0,1,2.2-1.22c1.208,0,1.855.664,1.855,1.977v4.725h-1.217Z" transform="translate(-26.25 -2.88)" fill="#3c3d3e"/>
    <path id="Caminho_1258" data-name="Caminho 1258" d="M433.21,426.854a2.236,2.236,0,0,0-1.813.961v2.777a2.27,2.27,0,0,0,1.813.959c1.219,0,1.962-.987,1.962-2.354s-.743-2.343-1.962-2.343m-3.032,8.108v-9.027H431.4v.933a2.659,2.659,0,0,1,2.137-1.1c1.706,0,2.912,1.287,2.912,3.426s-1.205,3.437-2.912,3.437a2.6,2.6,0,0,1-2.137-1.109v3.437Z" transform="translate(-27.379 -2.88)" fill="#3c3d3e"/>
    <path id="Caminho_1259" data-name="Caminho 1259" d="M442.78,429.928a2.069,2.069,0,0,0-1.679-.746,1.314,1.314,0,1,0,0,2.6,2.071,2.071,0,0,0,1.679-.745Zm0,1.826a2.8,2.8,0,0,1-2.138.88,2.172,2.172,0,0,1-2.275-2.165,2.11,2.11,0,0,1,2.275-2.138,2.728,2.728,0,0,1,2.138.866v-1.084c0-.811-.664-1.3-1.6-1.3a2.673,2.673,0,0,0-1.962.865l-.53-.837a3.68,3.68,0,0,1,2.682-1.069c1.421,0,2.624.622,2.624,2.286v4.412H442.78Z" transform="translate(-28.135 -2.88)" fill="#3c3d3e"/>
    <path id="Caminho_1260" data-name="Caminho 1260" d="M451.135,428.29c0-1.083-.556-1.435-1.4-1.435a2.324,2.324,0,0,0-1.8.948v4.671h-1.22v-6.538h1.22v.92a3.114,3.114,0,0,1,2.314-1.083,1.879,1.879,0,0,1,2.1,2.112v4.589h-1.219Z" transform="translate(-28.907 -2.88)" fill="#3c3d3e"/>
    <path id="Caminho_1261" data-name="Caminho 1261" d="M455.369,434.059a.9.9,0,0,0,.948-.635l.379-.868L454,425.951h1.3l2.045,5.13,2.044-5.13H460.7l-3.222,7.782a2.068,2.068,0,0,1-2.084,1.409,3.56,3.56,0,0,1-.76-.1l.19-1.1a1.516,1.516,0,0,0,.542.108" transform="translate(-29.579 -2.897)" fill="#3c3d3e"/>
  </g>
</svg>
