<svg id="direct-download" xmlns="http://www.w3.org/2000/svg" width="34.97" height="28.413" viewBox="0 0 34.97 28.413">
  <path id="Caminho_1317" data-name="Caminho 1317" d="M14.743,25.313a1.1,1.1,0,0,1-.791-.338L6.3,16.961a1.094,1.094,0,0,1,.791-1.848H11.1V13.292A11.306,11.306,0,0,1,22.393,2a1.093,1.093,0,0,1,0,2.186,4.01,4.01,0,0,0-4.007,4.007v6.921h4.007a1.094,1.094,0,0,1,.791,1.848l-7.65,8.014a1.1,1.1,0,0,1-.791.338Z" transform="translate(2.742 -2)" fill="#193b4e"/>
  <path id="Caminho_1318" data-name="Caminho 1318" d="M30.6,27.671H4.371A4.377,4.377,0,0,1,0,23.3V12.371A4.377,4.377,0,0,1,4.371,8h5.1a1.457,1.457,0,1,1,0,2.914h-5.1a1.459,1.459,0,0,0-1.457,1.457V23.3a1.459,1.459,0,0,0,1.457,1.457H30.6A1.459,1.459,0,0,0,32.056,23.3V12.371A1.459,1.459,0,0,0,30.6,10.914H25.5A1.457,1.457,0,0,1,25.5,8h5.1a4.377,4.377,0,0,1,4.371,4.371V23.3A4.377,4.377,0,0,1,30.6,27.671Z" transform="translate(0 0.742)" fill="#193b4e"/>
</svg>
