<svg id="Componente_3_1" data-name="Componente 3 – 1" xmlns="http://www.w3.org/2000/svg" width="65" height="65" viewBox="0 0 65 65">
  <circle id="Elipse_39" data-name="Elipse 39" cx="32.5" cy="32.5" r="32.5" fill="#193b4e"/>
  <path id="Caminho_1319" data-name="Caminho 1319" d="M222.522,341.521H210.548c0-.99.991,0,0,0h-8.062c-.991,0,0-.99,0,0H190.513a1.794,1.794,0,0,0-1.794,1.794v4.475a1.794,1.794,0,0,0,1.794,1.794h11.974c0,.99-.991,0,0,0h8.062c.991,0,0,.99,0,0h11.974a1.794,1.794,0,0,0,1.794-1.794v-4.475A1.794,1.794,0,0,0,222.522,341.521Z" transform="translate(-174.153 -313.188)" fill="#fff"/>
</svg>
