<svg xmlns="http://www.w3.org/2000/svg" width="35.597" height="35.597" viewBox="0 0 35.597 35.597">
  <path id="Caminho_1319" data-name="Caminho 1319" d="M222.522,341.521H210.548V329.548a1.794,1.794,0,0,0-1.794-1.794H204.28a1.794,1.794,0,0,0-1.794,1.794v11.974H190.513a1.794,1.794,0,0,0-1.794,1.794v4.475a1.794,1.794,0,0,0,1.794,1.794h11.974v11.974a1.794,1.794,0,0,0,1.794,1.794h4.475a1.794,1.794,0,0,0,1.794-1.794V349.583h11.974a1.794,1.794,0,0,0,1.794-1.794v-4.475A1.794,1.794,0,0,0,222.522,341.521Z" transform="translate(-188.719 -327.754)" fill="#fff"/>
</svg>
