<svg id="Componente_2_1" data-name="Componente 2 – 1" xmlns="http://www.w3.org/2000/svg" width="14.795" height="14.795" viewBox="0 0 14.795 14.795">
  <path id="Caminho_4651" data-name="Caminho 4651" d="M9.839,7.4l4.577-4.577a1.294,1.294,0,0,0,0-1.831l-.61-.61a1.294,1.294,0,0,0-1.831,0L7.4,4.957,2.821.379A1.294,1.294,0,0,0,.99.379L.379.989a1.294,1.294,0,0,0,0,1.831L4.957,7.4.38,11.975a1.294,1.294,0,0,0,0,1.831l.61.61a1.294,1.294,0,0,0,1.831,0L7.4,9.839l4.577,4.577a1.294,1.294,0,0,0,1.831,0l.61-.61a1.294,1.294,0,0,0,0-1.831Z" fill="#717070"/>
</svg>
