<svg id="Componente_1_1" data-name="Componente 1 – 1" xmlns="http://www.w3.org/2000/svg" width="20.381" height="20.279" viewBox="0 0 20.381 20.279">
  <path id="Caminho_4657" data-name="Caminho 4657" d="M18.811,51.132a.508.508,0,0,0-.508.508v4.507a1.524,1.524,0,0,1-1.523,1.523H2.538a1.524,1.524,0,0,1-1.523-1.523V42.919A1.525,1.525,0,0,1,2.538,41.4H7.045a.508.508,0,1,0,0-1.015H2.538A2.541,2.541,0,0,0,0,42.919V56.147a2.541,2.541,0,0,0,2.538,2.538H16.781a2.541,2.541,0,0,0,2.538-2.538V51.64A.508.508,0,0,0,18.811,51.132Z" transform="translate(0 -38.406)" fill="#717070"/>
  <path id="Caminho_4658" data-name="Caminho 4658" d="M121.675,2.189a2.284,2.284,0,0,0-3.23,0l-9.056,9.056a.507.507,0,0,0-.13.223l-1.191,4.3a.507.507,0,0,0,.625.625l4.3-1.191a.507.507,0,0,0,.223-.13l9.056-9.056a2.287,2.287,0,0,0,0-3.23Zm-11.18,9.386,7.412-7.412,2.39,2.39-7.412,7.412Zm-.477.958,1.91,1.91-2.642.732ZM121.553,5.3l-.538.538-2.391-2.39.539-.538a1.269,1.269,0,0,1,1.794,0l.6.6A1.271,1.271,0,0,1,121.553,5.3Z" transform="translate(-102.557 -1.52)" fill="#717070"/>
</svg>
