<svg id="share" xmlns="http://www.w3.org/2000/svg" width="22.911" height="24.994" viewBox="0 0 22.911 24.994">
  <path id="Caminho_4645" data-name="Caminho 4645" d="M313.237,7.811a3.905,3.905,0,1,1,3.905-3.905A3.91,3.91,0,0,1,313.237,7.811Zm0-6.249a2.343,2.343,0,1,0,2.343,2.343A2.346,2.346,0,0,0,313.237,1.562Zm0,0" transform="translate(-294.231)" fill="#484848"/>
  <path id="Caminho_4646" data-name="Caminho 4646" d="M313.237,359.811a3.905,3.905,0,1,1,3.905-3.905A3.91,3.91,0,0,1,313.237,359.811Zm0-6.249a2.343,2.343,0,1,0,2.343,2.343A2.346,2.346,0,0,0,313.237,353.562Zm0,0" transform="translate(-294.231 -334.816)" fill="#484848"/>
  <path id="Caminho_4647" data-name="Caminho 4647" d="M3.905,183.811a3.905,3.905,0,1,1,3.905-3.905A3.91,3.91,0,0,1,3.905,183.811Zm0-6.249a2.343,2.343,0,1,0,2.343,2.343A2.346,2.346,0,0,0,3.905,177.562Zm0,0" transform="translate(0 -167.408)" fill="#484848"/>
  <path id="Caminho_4648" data-name="Caminho 4648" d="M120.471,102.631a.781.781,0,0,1-.387-1.459l9.664-5.509a.781.781,0,0,1,.773,1.357l-9.664,5.509A.783.783,0,0,1,120.471,102.631Zm0,0" transform="translate(-113.847 -90.894)" fill="#484848"/>
  <path id="Caminho_4649" data-name="Caminho 4649" d="M130.154,278.62a.774.774,0,0,1-.385-.1l-9.664-5.509a.781.781,0,0,1,.773-1.357l9.663,5.509a.781.781,0,0,1-.387,1.46Zm0,0" transform="translate(-113.867 -258.291)" fill="#484848"/>
</svg>
