<svg xmlns="http://www.w3.org/2000/svg" xmlns:xlink="http://www.w3.org/1999/xlink" width="275.1" height="92.566" viewBox="0 0 275.1 92.566">
  <defs>
    <radialGradient id="radial-gradient" cx="0.5" cy="0.5" r="0.5" gradientTransform="translate(0)" gradientUnits="objectBoundingBox">
      <stop offset="0" stop-color="gray"/>
      <stop offset="0.43" stop-color="#818181"/>
      <stop offset="0.585" stop-color="#888"/>
      <stop offset="0.695" stop-color="#949494"/>
      <stop offset="0.785" stop-color="#a5a5a5"/>
      <stop offset="0.861" stop-color="#bbb"/>
      <stop offset="0.929" stop-color="#d6d6d6"/>
      <stop offset="0.988" stop-color="#f5f5f5"/>
      <stop offset="1" stop-color="#fdfdfd"/>
    </radialGradient>
    <linearGradient id="linear-gradient" x1="0.853" y1="0.853" x2="0.147" y2="0.147" gradientUnits="objectBoundingBox">
      <stop offset="0" stop-color="#dedede"/>
      <stop offset="1" stop-color="#fff"/>
    </linearGradient>
    <linearGradient id="linear-gradient-2" x1="0.853" y1="0.853" x2="0.147" y2="0.147" gradientUnits="objectBoundingBox">
      <stop offset="0" stop-color="#fff"/>
      <stop offset="1" stop-color="#dedede"/>
    </linearGradient>
  </defs>
  <g id="Componente_3_1" data-name="Componente 3 – 1" transform="translate(0.875 0.5)">
    <g id="Grupo_3204" data-name="Grupo 3204" transform="translate(87.311 76.13)">
      <path id="Caminho_4628" data-name="Caminho 4628" d="M1059.027,597.424l-3.368-5.719,3.254-5.524h83.921l-3.254,5.524,3.369,5.719Z" transform="translate(-1055.659 -586.181)" fill="none" stroke="#fff" stroke-width="1"/>
    </g>
    <g id="Grupo_3205" data-name="Grupo 3205" transform="translate(0 76.13)">
      <path id="Caminho_4629" data-name="Caminho 4629" d="M845.673,597.424,842.3,591.7l3.254-5.524H929.48l-3.255,5.524,3.369,5.719Z" transform="translate(-842.305 -586.181)" fill="#e63027" stroke="#fff" stroke-width="1"/>
    </g>
    <g id="Grupo_3206" data-name="Grupo 3206" transform="translate(-798.715 -336.6)">
      <g id="Grupo_3116" data-name="Grupo 3116" transform="translate(831.715 407.715)">
        <path id="Caminho_4630" data-name="Caminho 4630" d="M235.009,128.889a10.224,10.224,0,1,1,10.224-10.224A10.235,10.235,0,0,1,235.009,128.889Z" transform="translate(-224.785 -108.441)" fill="#fff"/>
        <g id="Grupo_3114" data-name="Grupo 3114" transform="translate(0.583 0.583)">
          <path id="Caminho_4631" data-name="Caminho 4631" d="M243.087,136.386a9.641,9.641,0,1,1,9.641-9.641A9.652,9.652,0,0,1,243.087,136.386Z" transform="translate(-233.446 -117.104)" fill="#fa4a54"/>
        </g>
        <path id="Caminho_4632" data-name="Caminho 4632" d="M271.53,155.179a7.233,7.233,0,0,0,0,10.217l4.513,4.513c.2.012.395.019.594.019a9.652,9.652,0,0,0,9.641-9.641c0-.2-.007-.4-.019-.594l-4.514-4.514A7.231,7.231,0,0,0,271.53,155.179Z" transform="translate(-266.414 -150.063)" fill="url(#radial-gradient)" style="mix-blend-mode: multiply;isolation: isolate"/>
        <g id="Grupo_3115" data-name="Grupo 3115" transform="translate(3 3)">
          <path id="Caminho_4633" data-name="Caminho 4633" d="M276.594,167.465a7.224,7.224,0,1,1,7.223-7.224A7.232,7.232,0,0,1,276.594,167.465Z" transform="translate(-269.37 -153.017)" fill="url(#linear-gradient)"/>
          <path id="Caminho_4634" data-name="Caminho 4634" d="M281.511,172.027a6.869,6.869,0,1,1,6.868-6.869A6.877,6.877,0,0,1,281.511,172.027Z" transform="translate(-274.287 -157.933)" fill="url(#linear-gradient-2)"/>
        </g>
      </g>
    </g>
    <g id="Grupo_3200" data-name="Grupo 3200" transform="translate(0 5.13)">
      <path id="Caminho_4624" data-name="Caminho 4624" d="M205.612,591.7l-3.368,5.719h83.921l3.368-5.719-3.255-5.524H202.358Z" transform="translate(-202.243 -586.181)" fill="none" stroke="#fff" stroke-width="1"/>
    </g>
    <g id="Grupo_3203" data-name="Grupo 3203" transform="translate(86.663 5.13)">
      <path id="Caminho_4627" data-name="Caminho 4627" d="M499.519,597.424l3.368-5.719-3.254-5.524H415.712l3.255,5.524-3.369,5.719Z" transform="translate(-415.598 -586.181)" fill="none" stroke="#fff" stroke-width="1"/>
    </g>
    <g id="Componente_2_1" data-name="Componente 2 – 1" transform="translate(174.002 5.13)">
      <path id="Caminho_4805" data-name="Caminho 4805" d="M1000.873,498.416H934.4l3.254,5.524-3.369,5.719h66.379c11.359,2.27,19.663,13.015,21.22,25.924l5.974,3.594,5.993-3.594C1032.126,516.137,1018.643,500.893,1000.873,498.416Z" transform="translate(-934.286 -498.416)" fill="none" stroke="#fff" stroke-miterlimit="10" stroke-width="1"/>
    </g>
    <path id="Caminho_4806" data-name="Caminho 4806" d="M1034.009,541.389a24.9,24.9,0,0,0-.18-2.986l-6.187,3.4-5.78-3.4a18.336,18.336,0,0,1,.243,2.986c0,14.647-9.407,25.421-21.8,28.022H937.538l-3.254,5.524,3.369,5.719,63.1,0C1017.9,579.1,1034.009,561.568,1034.009,541.389Z" transform="translate(-760.284 -493.286)" fill="none" stroke="#fff" stroke-miterlimit="10" stroke-width="1"/>
    <g id="Grupo_3211" data-name="Grupo 3211" transform="translate(-849 -399.04)">
      <path id="Caminho_4630-2" data-name="Caminho 4630" d="M235.068,129.007a10.283,10.283,0,1,1,10.283-10.283A10.295,10.295,0,0,1,235.068,129.007Z" transform="translate(836.215 361.599)" fill="#efefef" stroke="#fff" stroke-width="1"/>
      <path id="Caminho_4632-2" data-name="Caminho 4632" d="M271.54,155.189a7.265,7.265,0,0,0,0,10.262l4.533,4.533c.2.012.4.019.6.019a9.7,9.7,0,0,0,9.684-9.684c0-.2-.007-.4-.019-.6l-4.533-4.534A7.263,7.263,0,0,0,271.54,155.189Z" transform="translate(794.622 320.013)" fill="url(#radial-gradient)" style="mix-blend-mode: multiply;isolation: isolate"/>
      <g id="Grupo_3115-2" data-name="Grupo 3115" transform="translate(1064.037 473.076)">
        <path id="Caminho_4633-2" data-name="Caminho 4633" d="M276.617,167.511a7.247,7.247,0,1,1,7.246-7.247A7.255,7.255,0,0,1,276.617,167.511Z" transform="translate(-269.37 -153.017)" fill="url(#linear-gradient)"/>
        <path id="Caminho_4634-2" data-name="Caminho 4634" d="M281.53,172.064a6.888,6.888,0,1,1,6.887-6.888A6.9,6.9,0,0,1,281.53,172.064Z" transform="translate(-274.283 -157.929)" fill="url(#linear-gradient-2)"/>
      </g>
    </g>
    <g id="Grupo_3223" data-name="Grupo 3223" transform="translate(-940 -399.04)">
      <path id="Caminho_4630-3" data-name="Caminho 4630" d="M235.068,129.007a10.283,10.283,0,1,1,10.283-10.283A10.295,10.295,0,0,1,235.068,129.007Z" transform="translate(836.215 361.599)" fill="#efefef" stroke="#fff" stroke-width="1"/>
      <path id="Caminho_4632-3" data-name="Caminho 4632" d="M271.54,155.189a7.265,7.265,0,0,0,0,10.262l4.533,4.533c.2.012.4.019.6.019a9.7,9.7,0,0,0,9.684-9.684c0-.2-.007-.4-.019-.6l-4.533-4.534A7.263,7.263,0,0,0,271.54,155.189Z" transform="translate(794.622 320.013)" fill="url(#radial-gradient)" style="mix-blend-mode: multiply;isolation: isolate"/>
      <g id="Grupo_3115-3" data-name="Grupo 3115" transform="translate(1064.037 473.076)">
        <path id="Caminho_4633-3" data-name="Caminho 4633" d="M276.617,167.511a7.247,7.247,0,1,1,7.246-7.247A7.255,7.255,0,0,1,276.617,167.511Z" transform="translate(-269.37 -153.017)" fill="url(#linear-gradient)"/>
        <path id="Caminho_4634-3" data-name="Caminho 4634" d="M281.53,172.064a6.888,6.888,0,1,1,6.887-6.888A6.9,6.9,0,0,1,281.53,172.064Z" transform="translate(-274.283 -157.929)" fill="url(#linear-gradient-2)"/>
      </g>
    </g>
    <g id="Grupo_3222" data-name="Grupo 3222" transform="translate(-849 -470.04)">
      <path id="Caminho_4630-4" data-name="Caminho 4630" d="M235.068,129.007a10.283,10.283,0,1,1,10.283-10.283A10.295,10.295,0,0,1,235.068,129.007Z" transform="translate(836.215 361.599)" fill="#efefef" stroke="#fff" stroke-width="1"/>
      <path id="Caminho_4632-4" data-name="Caminho 4632" d="M271.54,155.189a7.265,7.265,0,0,0,0,10.262l4.533,4.533c.2.012.4.019.6.019a9.7,9.7,0,0,0,9.684-9.684c0-.2-.007-.4-.019-.6l-4.533-4.534A7.263,7.263,0,0,0,271.54,155.189Z" transform="translate(794.622 320.013)" fill="url(#radial-gradient)" style="mix-blend-mode: multiply;isolation: isolate"/>
      <g id="Grupo_3115-4" data-name="Grupo 3115" transform="translate(1064.037 473.076)">
        <path id="Caminho_4633-4" data-name="Caminho 4633" d="M276.617,167.511a7.247,7.247,0,1,1,7.246-7.247A7.255,7.255,0,0,1,276.617,167.511Z" transform="translate(-269.37 -153.017)" fill="url(#linear-gradient)"/>
        <path id="Caminho_4634-4" data-name="Caminho 4634" d="M281.53,172.064a6.888,6.888,0,1,1,6.887-6.888A6.9,6.9,0,0,1,281.53,172.064Z" transform="translate(-274.283 -157.929)" fill="url(#linear-gradient-2)"/>
      </g>
    </g>
    <g id="Grupo_3224" data-name="Grupo 3224" transform="translate(-940 -470.04)">
      <path id="Caminho_4630-5" data-name="Caminho 4630" d="M235.068,129.007a10.283,10.283,0,1,1,10.283-10.283A10.295,10.295,0,0,1,235.068,129.007Z" transform="translate(836.215 361.599)" fill="#efefef" stroke="#fff" stroke-width="1"/>
      <path id="Caminho_4632-5" data-name="Caminho 4632" d="M271.54,155.189a7.265,7.265,0,0,0,0,10.262l4.533,4.533c.2.012.4.019.6.019a9.7,9.7,0,0,0,9.684-9.684c0-.2-.007-.4-.019-.6l-4.533-4.534A7.263,7.263,0,0,0,271.54,155.189Z" transform="translate(794.622 320.013)" fill="url(#radial-gradient)" style="mix-blend-mode: multiply;isolation: isolate"/>
      <g id="Grupo_3115-5" data-name="Grupo 3115" transform="translate(1064.037 473.076)">
        <path id="Caminho_4633-5" data-name="Caminho 4633" d="M276.617,167.511a7.247,7.247,0,1,1,7.246-7.247A7.255,7.255,0,0,1,276.617,167.511Z" transform="translate(-269.37 -153.017)" fill="url(#linear-gradient)"/>
        <path id="Caminho_4634-5" data-name="Caminho 4634" d="M281.53,172.064a6.888,6.888,0,1,1,6.887-6.888A6.9,6.9,0,0,1,281.53,172.064Z" transform="translate(-274.283 -157.929)" fill="url(#linear-gradient-2)"/>
      </g>
    </g>
    <g id="Grupo_3226" data-name="Grupo 3226" transform="translate(-1028 -470.04)">
      <path id="Caminho_4630-6" data-name="Caminho 4630" d="M235.068,129.007a10.283,10.283,0,1,1,10.283-10.283A10.295,10.295,0,0,1,235.068,129.007Z" transform="translate(836.215 361.599)" fill="#efefef" stroke="#fff" stroke-width="1"/>
      <path id="Caminho_4632-6" data-name="Caminho 4632" d="M271.54,155.189a7.265,7.265,0,0,0,0,10.262l4.533,4.533c.2.012.4.019.6.019a9.7,9.7,0,0,0,9.684-9.684c0-.2-.007-.4-.019-.6l-4.533-4.534A7.263,7.263,0,0,0,271.54,155.189Z" transform="translate(794.622 320.013)" fill="url(#radial-gradient)" style="mix-blend-mode: multiply;isolation: isolate"/>
      <g id="Grupo_3115-6" data-name="Grupo 3115" transform="translate(1064.037 473.076)">
        <path id="Caminho_4633-6" data-name="Caminho 4633" d="M276.617,167.511a7.247,7.247,0,1,1,7.246-7.247A7.255,7.255,0,0,1,276.617,167.511Z" transform="translate(-269.37 -153.017)" fill="url(#linear-gradient)"/>
        <path id="Caminho_4634-6" data-name="Caminho 4634" d="M281.53,172.064a6.888,6.888,0,1,1,6.887-6.888A6.9,6.9,0,0,1,281.53,172.064Z" transform="translate(-274.283 -157.929)" fill="url(#linear-gradient-2)"/>
      </g>
    </g>
  </g>
</svg>
