<svg id="Componente_4_1" data-name="Componente 4 – 1" xmlns="http://www.w3.org/2000/svg" xmlns:xlink="http://www.w3.org/1999/xlink" width="1439.79" height="489.999" viewBox="0 0 1439.79 489.999">
  <defs>
    <linearGradient id="linear-gradient" x1="0.411" y1="0.784" x2="0.555" y2="0.116" gradientUnits="objectBoundingBox">
      <stop offset="0" stop-color="#fcefd2" stop-opacity="0"/>
      <stop offset="0.17" stop-color="#fcf2dc" stop-opacity="0.224"/>
      <stop offset="0.397" stop-color="#fdf6e8" stop-opacity="0.498"/>
      <stop offset="0.602" stop-color="#fefaf2" stop-opacity="0.714"/>
      <stop offset="0.777" stop-color="#fefcf9" stop-opacity="0.871"/>
      <stop offset="0.915" stop-color="#fefefd" stop-opacity="0.965"/>
      <stop offset="1" stop-color="#fff"/>
    </linearGradient>
    <linearGradient id="linear-gradient-2" x1="0.541" y1="-0.175" x2="0.513" y2="0.63" gradientUnits="objectBoundingBox">
      <stop offset="0" stop-color="#ffbb40"/>
      <stop offset="0.277" stop-color="#f6b43d"/>
      <stop offset="0.728" stop-color="#dda237"/>
      <stop offset="1" stop-color="#cc9633"/>
    </linearGradient>
    <clipPath id="clip-path">
      <path id="Caminho_4637" data-name="Caminho 4637" d="M1463.5,124.383c-278.237,0-264.571,21.3-697.834,21.3S24.834,168.291,24.834,168.291v275.3H1463.5Z" transform="translate(-24.834 -124.383)" fill="#a56146"/>
    </clipPath>
    <linearGradient id="linear-gradient-3" x1="0.372" y1="-0.805" x2="0.496" y2="0.666" gradientUnits="objectBoundingBox">
      <stop offset="0" stop-color="#cfc12c"/>
      <stop offset="1" stop-color="#82760a"/>
    </linearGradient>
    <linearGradient id="linear-gradient-4" x1="0.402" y1="0.035" x2="0.555" y2="0.755" xlink:href="#linear-gradient-3"/>
    <linearGradient id="linear-gradient-5" x1="0.471" y1="0.836" x2="0.558" y2="-0.11" gradientUnits="objectBoundingBox">
      <stop offset="0" stop-color="#fcefd2" stop-opacity="0"/>
      <stop offset="0.024" stop-color="#fcf0d5" stop-opacity="0.071"/>
      <stop offset="0.094" stop-color="#fcf3dd" stop-opacity="0.267"/>
      <stop offset="0.17" stop-color="#fdf6e5" stop-opacity="0.439"/>
      <stop offset="0.25" stop-color="#fdf8ec" stop-opacity="0.592"/>
      <stop offset="0.335" stop-color="#fefaf2" stop-opacity="0.718"/>
      <stop offset="0.426" stop-color="#fefcf6" stop-opacity="0.82"/>
      <stop offset="0.525" stop-color="#fefdfa" stop-opacity="0.902"/>
      <stop offset="0.637" stop-color="#fefefd" stop-opacity="0.957"/>
      <stop offset="0.774" stop-color="#fefefe" stop-opacity="0.988"/>
      <stop offset="1" stop-color="#fff"/>
    </linearGradient>
    <linearGradient id="linear-gradient-6" y1="0.5" x2="2.041" y2="0.5" gradientUnits="objectBoundingBox">
      <stop offset="0" stop-color="#fffbd1"/>
      <stop offset="1" stop-color="#fcefd2" stop-opacity="0.502"/>
    </linearGradient>
    <linearGradient id="linear-gradient-7" x1="0.729" y1="1.608" x2="0.543" y2="0.806" gradientUnits="objectBoundingBox">
      <stop offset="0" stop-color="#6e4732"/>
      <stop offset="1" stop-color="#82760a"/>
    </linearGradient>
    <linearGradient id="linear-gradient-8" x1="0.878" y1="1.05" x2="0.201" y2="0.257" xlink:href="#linear-gradient-7"/>
    <linearGradient id="linear-gradient-9" x1="1.069" y1="1.274" x2="0.163" y2="0.213" xlink:href="#linear-gradient-7"/>
  </defs>
  <rect id="Retângulo_2811" data-name="Retângulo 2811" width="1438.779" height="245.859" transform="translate(1.011)" fill="#b0e5e6"/>
  <path id="Caminho_4764" data-name="Caminho 4764" d="M288.855,286.672c-1.264,7.7-9.925,13.951-19.348,13.951a16.75,16.75,0,0,1-10.807-3.569,31.964,31.964,0,0,1-21.647,8.85c-12.147,0-21.4-7.682-23.613-18.337a36.792,36.792,0,0,1-14.7,3.135,31.547,31.547,0,0,1-11.341-2.043c-.038.326-.076.647-.12.972-3.573,26.018-26.043,47.118-50.19,47.118-18.575,0-32.732-12.492-36.648-30.11a26.6,26.6,0,0,1-14.271,4.536c-15.938,0-26.865-17.385-26.931-40.59A64.124,64.124,0,0,1,19.1,285.172,53.744,53.744,0,0,1,.01,281.784V191.7a63.361,63.361,0,0,1,33.249-9.673c24.082,0,42.52,14.654,47.052,35.014,6.123-5.685,13.046-9.011,20.018-9.011,11.706,0,20.716,9.383,24.692,23.567a14.062,14.062,0,0,1,3.459-.44c6.8,0,11.581,5.085,10.671,11.359a11.665,11.665,0,0,1-.332,1.505,43.067,43.067,0,0,1,11.21-1.505,36.753,36.753,0,0,1,22.241,7.2C178,235.9,192.3,225.733,207.66,225.733c16.57,0,28.679,11.835,29.082,27.327a29.835,29.835,0,0,1,7.708-1.035c13.3,0,23.134,9.2,24.054,21.436a21.767,21.767,0,0,1,5.578-.735C283.506,272.726,290.119,278.97,288.855,286.672Z" transform="translate(-0.009 -111.013)" fill-rule="evenodd" opacity="0.95" fill="url(#linear-gradient)"/>
  <g id="Grupo_3191" data-name="Grupo 3191" transform="translate(-0.009 -406.847)">
    <path id="Caminho_4757" data-name="Caminho 4757" d="M428.01,617.77H.01v-26.4c1-.468,2.007-.937,3.015-1.4.936-.433,1.884-.858,2.831-1.273.1-.053.205-.1.319-.15.061-.026.133-.053.206-.08l.02-.017q8.722-3.847,17.97-7.172c.946-.345,1.894-.681,2.85-1.018q4.292-1.5,8.676-2.892,4.4-1.392,8.882-2.68c1-.283,2-.566,3-.84-.01.009-.02.009-.031.017q7.133-1.976,14.46-3.688c1.667-.389,3.355-.769,5.043-1.141,1.924-.416,3.87-.832,5.825-1.22,1.389-.284,2.778-.558,4.178-.823q.911-.186,1.822-.345c1.513-.283,3.026-.557,4.549-.822.031-.009.052-.009.082-.018,4.518-.8,9.1-1.521,13.709-2.175q5.017-.729,10.106-1.327c.01.009.031,0,.041,0,3.386-.407,6.8-.778,10.23-1.105q6.56-.637,13.194-1.088c1.636-.115,3.283-.221,4.93-.318.319-.017.648-.044.968-.062,1.327-.08,2.655-.15,3.983-.221,1.2-.053,2.408-.115,3.623-.168.555-.026,1.1-.044,1.657-.071l3.613-.133q7.719-.265,15.519-.292,3.088-.013,6.2.009l3.067.026c.514.009,1.029.018,1.543.018q3.6.066,7.2.159c3.829.1,7.688.257,11.537.442l.01-.009c.844.035,1.677.08,2.522.124.731.035,1.472.071,2.2.115q2.253.12,4.508.265c.844.053,1.687.107,2.531.168,1.328.08,2.655.177,3.983.274q6.175.451,12.35,1.035l.01-.009q4.323.411,8.665.875c2.614.283,5.218.584,7.832.9.051.009.1.009.154.017,4.084.493,8.176,1.045,12.267,1.626l.011-.008,4.229.61c1.369.2,2.738.407,4.107.619.124.026.247.044.371.062,1.328.2,2.645.416,3.972.628,1.41.23,2.81.46,4.22.7,4.141.69,8.269,1.447,12.395,2.234l.007-.005c1.215.221,2.429.46,3.644.7s2.429.477,3.633.716,2.428.5,3.633.743,2.429.513,3.633.77q6.761,1.445,13.471,3.051,5.5,1.287,10.94,2.7c1.225.318,2.46.637,3.685.964h.01q5.682,1.486,11.3,3.1c.844.239,1.688.478,2.522.725.689.194,1.379.389,2.068.592.381.106.751.221,1.132.336.082.018.175.044.257.071,1.564.46,3.139.938,4.693,1.407.247.079.5.15.751.23q6.206,1.9,12.371,3.918c1.6.531,3.221,1.07,4.826,1.61,1.472.5,2.933,1.008,4.4,1.512.134.044.268.1.4.142q7.534,2.626,14.933,5.448c.031.009.072.026.1.035q2.146.823,4.291,1.663c1.462.575,2.923,1.149,4.374,1.733l-.02.018q8.166,3.277,16.158,6.783c2.058.9,4.1,1.813,6.134,2.742.607.274,1.214.54,1.822.814C420.27,614.046,424.161,615.877,428.01,617.77Z" transform="translate(0 0)" fill="#f0b684" fill-rule="evenodd"/>
    <path id="Caminho_4758" data-name="Caminho 4758" d="M401.215,621.115H.01V596.054c.936-.445,1.881-.89,2.826-1.327.878-.411,1.766-.814,2.653-1.209.1-.05.193-.092.3-.142.058-.026.126-.05.193-.076L6,593.283q8.176-3.652,16.844-6.809c.888-.327,1.775-.646,2.672-.966q4.023-1.423,8.133-2.745t8.326-2.544c.936-.269,1.872-.538,2.817-.8-.01.008-.02.008-.029.016q6.685-1.876,13.554-3.5c1.563-.369,3.145-.731,4.727-1.083,1.8-.395,3.628-.79,5.461-1.159,1.3-.268,2.6-.529,3.917-.781q.854-.176,1.708-.327c1.418-.269,2.836-.529,4.264-.781.029-.008.048-.008.077-.016,4.235-.756,8.528-1.444,12.85-2.066q4.7-.693,9.474-1.259c.01.008.029,0,.039,0,3.174-.386,6.377-.739,9.589-1.05q6.151-.6,12.368-1.032c1.534-.109,3.077-.21,4.621-.3.3-.017.608-.042.907-.058,1.245-.076,2.489-.143,3.734-.21,1.129-.05,2.258-.109,3.4-.16.521-.025,1.032-.042,1.553-.067l3.386-.126q7.236-.252,14.548-.277c1.929-.008,3.869-.008,5.808.008l2.875.025c.482.008.964.016,1.447.016q3.372.063,6.753.151c3.589.092,7.207.243,10.815.42l.01-.008c.791.034,1.572.076,2.364.117.685.034,1.38.067,2.064.109q2.113.113,4.226.251c.791.051,1.582.1,2.373.16,1.245.076,2.489.168,3.734.26q5.788.429,11.577.982l.009-.008q4.053.39,8.124.831c2.45.269,4.891.554,7.342.857.048.009.1.009.144.017,3.829.468,7.664.992,11.5,1.543l.01-.007,3.965.579c1.283.193,2.567.386,3.85.588.116.025.231.042.347.059,1.245.193,2.48.395,3.724.6,1.322.218,2.634.437,3.956.663,3.882.655,7.751,1.374,11.618,2.121l.007,0c1.139.21,2.277.437,3.415.663s2.277.453,3.405.68,2.277.47,3.405.705,2.277.487,3.405.731q6.339,1.373,12.629,2.9,5.151,1.222,10.255,2.561c1.148.3,2.306.6,3.454.915h.01q5.325,1.41,10.592,2.938c.791.227,1.583.454,2.364.689.647.185,1.293.369,1.939.563.357.1.7.21,1.061.319.077.017.164.042.241.067,1.466.437,2.943.89,4.4,1.335.232.075.473.142.7.218q5.818,1.8,11.6,3.72c1.5.5,3.02,1.016,4.524,1.528,1.38.479,2.75.957,4.129,1.436.126.042.251.092.376.134q7.063,2.493,14,5.171c.029.009.067.025.1.034q2.012.781,4.023,1.579c1.37.546,2.74,1.091,4.1,1.646l-.019.016q7.655,3.111,15.146,6.439c1.929.857,3.84,1.721,5.75,2.6.569.26,1.138.512,1.707.773C393.961,617.58,397.608,619.318,401.215,621.115Z" transform="translate(0 -3.345)" fill="#c9996e" fill-rule="evenodd"/>
    <path id="Caminho_4759" data-name="Caminho 4759" d="M6.149,588.549c-.113.053-.215.1-.318.15-.943.416-1.886.84-2.819,1.273-1,.46-2.009.929-3,1.406v1.857a67.206,67.206,0,0,1,6.344-4.767l.02-.017C6.3,588.487,6.221,588.514,6.149,588.549ZM175.37,558.9c-.512,0-1.025-.009-1.537-.018l-3.054-.026c-2.06-.018-4.121-.018-6.171-.009a73.407,73.407,0,0,0-13.038,13.558c-9.368,12.47-16.491,28.972-17.147,45.36H143c.656-14.46,7.051-29.132,15.456-40.32,7.565-10.073,16.554-17.166,24.086-18.386Q178.947,558.971,175.37,558.9Zm30.39,1.265c-.841-.062-1.681-.115-2.521-.168q-2.245-.145-4.49-.265c-.728-.044-1.466-.08-2.193-.115-.841-.044-1.671-.088-2.511-.124l-.01.009a71.745,71.745,0,0,0-12.986,13.557c-9.184,12.3-16.256,28.628-16.881,44.653v.053h8.579c.625-14.124,6.97-28.646,15.22-39.7,6.939-9.286,15-15.99,21.76-17.626C208.4,560.346,207.082,560.249,205.76,560.169Zm32.707,3.078c-2.6-.318-5.2-.619-7.8-.9q-4.32-.464-8.63-.875l-.01.009a58.644,58.644,0,0,0-12.115,12.213,82.617,82.617,0,0,0-15.6,38.568c-.225,1.822-.359,3.662-.42,5.51h8.579c.062-1.486.185-3,.369-4.546a74.039,74.039,0,0,1,13.96-34.491c6.385-8.5,14.154-14.522,21.821-15.468C238.569,563.256,238.518,563.256,238.467,563.247Zm25.009,3.555c-1.322-.212-2.634-.424-3.956-.628-.123-.017-.246-.035-.369-.062-1.363-.212-2.727-.416-4.09-.619l-4.212-.61a53.419,53.419,0,0,0-13.632,13.434,74.01,74.01,0,0,0-13.539,37.922c-.021.513-.041,1.017-.062,1.53h8.579c.02-.363.031-.725.051-1.1a65.215,65.215,0,0,1,11.961-33.439c6.334-8.791,14.595-15.043,23.471-15.733C266.274,567.262,264.88,567.032,263.475,566.8Zm27.418,5.085c-1.2-.248-2.409-.495-3.618-.743s-2.409-.486-3.618-.716-2.419-.478-3.629-.7a55.792,55.792,0,0,0-12.279,11.727c-7.513,9.578-13.079,22.021-14.206,33.783-.082.849-.144,1.689-.174,2.53h8.579c.031-.575.072-1.15.133-1.725.964-10.152,5.843-21,12.453-29.415,5.986-7.632,13.243-13.133,19.977-13.973C293.312,572.4,292.1,572.144,290.893,571.887Zm27.93,6.518q-5.427-1.393-10.9-2.7a50.546,50.546,0,0,0-11.07,9.746c-6.887,8.03-12.166,18.581-13.488,29.052q-.216,1.618-.277,3.264h8.6c.04-.743.113-1.486.2-2.238,1.117-8.791,5.617-17.732,11.521-24.6,5.678-6.615,12.484-11.179,18.5-11.542.195-.009.379-.017.574-.017C321.273,579.042,320.043,578.724,318.823,578.405Zm25.563,7.19c-1.641-.5-3.28-.991-4.93-1.477-1.056-.318-2.122-.628-3.188-.928-.83-.257-1.661-.5-2.5-.734l-.01.008a51.148,51.148,0,0,0-7.893,7.226c-6.18,6.951-11.233,16.06-12.668,25.01-.164,1.026-.287,2.052-.359,3.069h8.609c.051-.584.123-1.159.215-1.742,1.169-7.27,5.422-14.84,10.66-20.721,4.172-4.7,8.825-8.216,12.812-9.481C344.888,585.746,344.632,585.675,344.386,585.6Zm22.262,7.269c-1.466-.5-2.921-1.008-4.387-1.512-1.6-.54-3.208-1.079-4.807-1.61-.616.557-1.21,1.132-1.794,1.725a46.3,46.3,0,0,0-12.289,22.95c-.225,1.106-.4,2.22-.523,3.352h8.661c.082-.584.184-1.159.3-1.725a37.754,37.754,0,0,1,9.994-18.669,32.78,32.78,0,0,1,5.247-4.369C366.915,592.962,366.781,592.909,366.648,592.865Zm19.648,7.287q-2.137-.836-4.274-1.663c-.031-.009-.072-.026-.1-.035a36.986,36.986,0,0,0-8.651,16.29q-.353,1.5-.584,3.025H381.4c.072-.372.144-.734.236-1.1a28.307,28.307,0,0,1,7.544-13.469c.472-.451.964-.893,1.456-1.3l.02-.018C389.208,601.3,387.752,600.727,386.3,600.152Zm20.438,8.517c0,.009-.01.009-.01.017a29.6,29.6,0,0,0-3.925,8.773c-.031.106-.062.2-.082.31h8.948a22.354,22.354,0,0,1,2.983-5.528Q410.711,610.424,406.734,608.669Zm-261.18-49.393c-.553.026-1.1.044-1.65.071-1.21.053-2.409.115-3.608.168-1.322.071-2.645.142-3.966.221-.318.018-.646.044-.964.062-1.64.1-3.28.2-4.909.318A76.744,76.744,0,0,0,117.45,574.9c-8.344,12.2-14.545,27.708-15.416,42.867h8.579c.882-13.381,6.467-27.16,13.96-38.117,7.482-10.94,16.645-18.908,24.578-20.509Zm-38.426,3.033c-.01,0-.031.009-.041,0-3.372.416-6.734.858-10.065,1.327a81.262,81.262,0,0,0-11.715,13.372c-8.282,11.754-14.483,26.461-15.651,40.762h8.6c1.179-12.5,6.734-25.435,14.113-35.916,7.534-10.7,16.8-18.669,24.948-20.65C113.9,561.531,110.5,561.9,107.128,562.309Zm-23.84,3.52c-1.517.265-3.024.54-4.53.822q-.907.16-1.814.345c-1.394.265-2.778.539-4.161.823-1.948.389-3.885.8-5.8,1.22-1.681.372-3.362.752-5.022,1.141A82.615,82.615,0,0,0,53.021,580.4c-8.128,10.931-14.247,24.365-15.713,37.366h8.64C47.414,606.6,52.816,595,59.939,585.419c6.991-9.41,15.518-16.751,23.43-19.607C83.339,565.82,83.319,565.82,83.288,565.829ZM44.6,574.691q-4.459,1.287-8.846,2.68-4.366,1.393-8.64,2.892c-.953.336-1.9.672-2.839,1.018q-1.815,1.95-3.506,4.024c-7.943,9.728-13.94,21.438-15.753,32.466h8.732c1.8-9.145,6.96-18.891,13.714-27.16,5.955-7.3,13.068-13.363,20.1-16.742.01-.008.021-.008.031-.017C46.584,574.125,45.59,574.408,44.6,574.691Z" transform="translate(0 0)" fill="#b8885e"/>
    <path id="Caminho_4760" data-name="Caminho 4760" d="M41.972,580.24q-4.195,1.22-8.317,2.538t-8.133,2.751c-.9.318-1.786.637-2.674.964-.173.062-.347.124-.51.186-.561.655-1.112,1.318-1.663,1.99C12.766,598.4,6.8,610.105,4.989,621.134h8.695c1.8-9.145,6.929-18.891,13.654-27.16a67.979,67.979,0,0,1,14.9-13.806C42.145,580.187,42.064,580.213,41.972,580.24Zm32.155-7.632c-.561.1-1.133.212-1.7.327-1.316.248-2.612.513-3.919.778-1.827.371-3.653.769-5.459,1.158-1.153.257-2.316.522-3.459.8a83.442,83.442,0,0,0-6.8,8.1C44.7,594.7,38.6,608.133,37.145,621.134h8.6c1.46-11.17,6.838-22.773,13.93-32.351,5.255-7.1,11.378-13.027,17.45-16.724C76.128,572.236,75.127,572.422,74.127,572.608Zm26.706-4.121c-.01,0-.03.008-.041,0-2.225.265-4.439.548-6.643.867a82.849,82.849,0,0,0-9.215,11.019c-8.246,11.754-14.42,26.461-15.583,40.762h8.562c1.173-12.5,6.7-25.435,14.052-35.915,5.439-7.765,11.8-14.088,17.971-17.732C106.885,567.779,103.844,568.115,100.833,568.486Zm39.554-3.007c-1.122.044-2.255.079-3.388.124-.52.027-1.03.044-1.551.071-1.133.044-2.265.106-3.4.159q-1.868.093-3.735.212c-.3.009-.6.035-.9.053l-.4.026a79.731,79.731,0,0,0-10.082,12.143c-8.307,12.2-14.481,27.708-15.348,42.867h8.542c.878-13.381,6.439-27.16,13.9-38.117,5.276-7.756,11.4-14.009,17.328-17.564C141.03,565.453,140.714,565.471,140.387,565.479Zm260.6,55.54c-.01.035-.021.079-.03.115h.255C401.141,621.1,401.059,621.063,400.988,621.019Zm-18.165-8.508q-3.857-1.724-7.756-3.378a36.878,36.878,0,0,0-3.429,8.977q-.352,1.5-.581,3.025h8.674c.071-.372.143-.734.235-1.1a28.221,28.221,0,0,1,2.96-7.482C382.895,612.538,382.854,612.529,382.823,612.511ZM350.25,599.334a45.849,45.849,0,0,0-8.378,18.448c-.224,1.106-.4,2.22-.52,3.352h8.623c.082-.584.184-1.159.3-1.725a37.548,37.548,0,0,1,8.368-16.936Q354.459,600.869,350.25,599.334Zm-24.094-8.119c-.581.592-1.153,1.211-1.714,1.84-6.153,6.951-11.185,16.06-12.613,25.01-.163,1.026-.285,2.052-.357,3.069h8.572c.051-.584.122-1.159.214-1.742,1.163-7.27,5.4-14.84,10.613-20.721a48,48,0,0,1,4.531-4.484C332.33,593.161,329.248,592.179,326.156,591.215Zm-22.6-6.536h-.01c-1.041-.283-2.1-.558-3.153-.832a54.349,54.349,0,0,0-4.827,4.971c-6.858,8.03-12.113,18.581-13.43,29.052q-.214,1.618-.275,3.264h8.562c.041-.743.113-1.486.2-2.238,1.112-8.791,5.592-17.732,11.47-24.6a43.022,43.022,0,0,1,8.45-7.7C308.226,585.935,305.889,585.3,303.552,584.68ZM277.2,578.3c-1.122-.239-2.265-.486-3.4-.725-.163-.035-.317-.071-.48-.1a60.162,60.162,0,0,0-6.745,7.341c-7.48,9.578-13.021,22.021-14.144,33.784-.082.849-.143,1.689-.173,2.53H260.8c.031-.575.072-1.15.133-1.725.96-10.153,5.817-21,12.4-29.415a47.067,47.067,0,0,1,10.6-10.179C281.7,579.294,279.448,578.789,277.2,578.3Zm-25.257-4.891c-1.316-.23-2.633-.442-3.949-.663-1.122-.186-2.245-.372-3.367-.54a57.8,57.8,0,0,0-8.45,9.472A74.224,74.224,0,0,0,222.7,619.6c-.02.513-.041,1.017-.061,1.53h8.542c.02-.363.03-.725.051-1.1A65.4,65.4,0,0,1,243.14,586.6a43.174,43.174,0,0,1,13.134-12.425C254.835,573.907,253.4,573.66,251.946,573.412ZM224.6,569.388c-.041-.009-.092-.009-.143-.017-2.449-.3-4.888-.584-7.337-.849-.153-.018-.3-.035-.449-.044a62.614,62.614,0,0,0-7.674,8.578,82.823,82.823,0,0,0-15.532,38.568c-.224,1.822-.357,3.662-.419,5.51h8.542c.061-1.486.184-3,.367-4.546a74.213,74.213,0,0,1,13.9-34.491A46.874,46.874,0,0,1,228.68,569.91C227.322,569.725,225.955,569.556,224.6,569.388Zm-27.2-2.68c-1.245-.089-2.49-.177-3.735-.257-.786-.062-1.582-.106-2.368-.159-.643-.044-1.3-.08-1.939-.124a75.354,75.354,0,0,0-9.1,10.259c-9.144,12.3-16.185,28.628-16.807,44.653v.053h8.542c.622-14.124,6.939-28.645,15.154-39.7,4.6-6.182,9.684-11.214,14.573-14.371C200.279,566.93,198.84,566.815,197.4,566.709ZM171.818,565.4c-2.255-.053-4.5-.106-6.756-.15-.48,0-.959-.009-1.438-.017-.97-.009-1.929-.018-2.878-.018h-.367a77.211,77.211,0,0,0-9.47,10.56c-9.327,12.47-16.419,28.972-17.072,45.36h8.542c.653-14.46,7.02-29.132,15.388-40.32,5.041-6.739,10.715-12.143,16.165-15.353C173.226,565.444,172.522,565.418,171.818,565.4ZM.01,596.07v.531c.49-.416.989-.823,1.49-1.23C1,595.6.5,595.841.01,596.07Z" transform="translate(0 -3.365)" fill="#a87c56"/>
  </g>
  <g id="Grupo_3194" data-name="Grupo 3194" transform="translate(109.985 -379.028)">
    <path id="Caminho_4802" data-name="Caminho 4802" d="M689.846,580.845H222.016c131.113-123.676,358.692-84.918,467.83,0Z" fill="#ffd86b" fill-rule="evenodd"/>
    <path id="Caminho_4803" data-name="Caminho 4803" d="M612.981,587.484H222.016c109.571-99.716,299.759-68.467,390.965,0Z" transform="translate(0 -6.639)" fill-rule="evenodd" fill="url(#linear-gradient-2)"/>
  </g>
  <g id="Grupo_3162" data-name="Grupo 3162" transform="translate(-23.833 46.408)">
    <g id="Grupo_3161" data-name="Grupo 3161" transform="translate(24.834 124.383)">
      <path id="Caminho_4636" data-name="Caminho 4636" d="M1463.5,124.383c-278.237,0-264.571,21.3-697.834,21.3S24.834,168.291,24.834,168.291v275.3H1463.5Z" transform="translate(-24.834 -124.383)" fill="#984929"/>
      <g id="Grupo_3160" data-name="Grupo 3160" clip-path="url(#clip-path)">
        <g id="Grupo_3159" data-name="Grupo 3159" transform="translate(-226.355 -44.586)">
          <g id="Grupo_3130" data-name="Grupo 3130" transform="translate(0 0)">
            <path id="Caminho_4639" data-name="Caminho 4639" d="M0,0,16.391,1.739,103.082,386.3l-16.391-1.738Z" transform="translate(0 24.301) rotate(-10.917)" fill="#8c4a33"/>
          </g>
          <g id="Grupo_3131" data-name="Grupo 3131" transform="translate(60.32 0.002)">
            <path id="Caminho_4640" data-name="Caminho 4640" d="M0,0,16.391,1.738l86.688,384.556-16.391-1.738Z" transform="translate(0 24.299) rotate(-10.916)" fill="#8c4a33"/>
          </g>
          <g id="Grupo_3132" data-name="Grupo 3132" transform="translate(120.632 0.003)">
            <path id="Caminho_4641" data-name="Caminho 4641" d="M0,0,16.391,1.738l86.687,384.556-16.391-1.739Z" transform="matrix(0.982, -0.189, 0.189, 0.982, 0, 24.298)" fill="#8c4a33"/>
          </g>
          <g id="Grupo_3133" data-name="Grupo 3133" transform="translate(180.945 0.001)">
            <path id="Caminho_4642" data-name="Caminho 4642" d="M0,0,16.391,1.739,103.081,386.3,86.69,384.558Z" transform="translate(0 24.3) rotate(-10.917)" fill="#8c4a33"/>
          </g>
          <g id="Grupo_3134" data-name="Grupo 3134" transform="translate(241.258 0.001)">
            <path id="Caminho_4643" data-name="Caminho 4643" d="M0,0,16.391,1.739,103.081,386.3,86.69,384.558Z" transform="translate(0 24.3) rotate(-10.917)" fill="#8c4a33"/>
          </g>
          <g id="Grupo_3135" data-name="Grupo 3135" transform="translate(301.578 0.002)">
            <path id="Caminho_4644" data-name="Caminho 4644" d="M0,0,16.391,1.739,103.079,386.3l-16.391-1.739Z" transform="translate(0 24.299) rotate(-10.916)" fill="#8c4a33"/>
          </g>
          <g id="Grupo_3136" data-name="Grupo 3136" transform="translate(361.89 0.002)">
            <path id="Caminho_4645" data-name="Caminho 4645" d="M0,0,16.391,1.738,103.079,386.3l-16.391-1.739Z" transform="translate(0 24.299) rotate(-10.916)" fill="#8c4a33"/>
          </g>
          <g id="Grupo_3137" data-name="Grupo 3137" transform="translate(422.203 0.003)">
            <path id="Caminho_4646" data-name="Caminho 4646" d="M0,0,16.391,1.738l86.686,384.556-16.391-1.739Z" transform="translate(0 24.298) rotate(-10.916)" fill="#8c4a33"/>
          </g>
          <g id="Grupo_3138" data-name="Grupo 3138" transform="translate(482.519 0.002)">
            <path id="Caminho_4647" data-name="Caminho 4647" d="M0,0,16.391,1.739,103.079,386.3l-16.391-1.739Z" transform="translate(0 24.299) rotate(-10.916)" fill="#8c4a33"/>
          </g>
          <g id="Grupo_3139" data-name="Grupo 3139" transform="translate(542.832 0)">
            <path id="Caminho_4648" data-name="Caminho 4648" d="M0,0,16.389,1.738,103.081,386.3l-16.389-1.738Z" transform="translate(0 24.301) rotate(-10.917)" fill="#8c4a33"/>
          </g>
          <g id="Grupo_3140" data-name="Grupo 3140" transform="translate(603.149 0.001)">
            <path id="Caminho_4649" data-name="Caminho 4649" d="M0,0,16.389,1.738,103.079,386.3,86.69,384.557Z" transform="translate(0 24.3) rotate(-10.917)" fill="#8c4a33"/>
          </g>
          <g id="Grupo_3141" data-name="Grupo 3141" transform="translate(663.461 0.002)">
            <path id="Caminho_4650" data-name="Caminho 4650" d="M0,0,16.391,1.739,103.079,386.3l-16.391-1.739Z" transform="translate(0 24.299) rotate(-10.916)" fill="#8c4a33"/>
          </g>
          <g id="Grupo_3142" data-name="Grupo 3142" transform="translate(723.774 0.001)">
            <path id="Caminho_4651" data-name="Caminho 4651" d="M0,0,16.391,1.739,103.081,386.3,86.69,384.558Z" transform="translate(0 24.3) rotate(-10.917)" fill="#8c4a33"/>
          </g>
          <g id="Grupo_3143" data-name="Grupo 3143" transform="translate(784.097 0.002)">
            <path id="Caminho_4652" data-name="Caminho 4652" d="M0,0,16.389,1.738,103.078,386.3l-16.389-1.738Z" transform="translate(0 24.299) rotate(-10.916)" fill="#8c4a33"/>
          </g>
          <g id="Grupo_3144" data-name="Grupo 3144" transform="translate(844.407 0.001)">
            <path id="Caminho_4653" data-name="Caminho 4653" d="M0,0,16.391,1.739,103.081,386.3,86.69,384.558Z" transform="translate(0 24.3) rotate(-10.917)" fill="#8c4a33"/>
          </g>
          <g id="Grupo_3145" data-name="Grupo 3145" transform="translate(904.719 0.001)">
            <path id="Caminho_4654" data-name="Caminho 4654" d="M0,0,16.389,1.738,103.079,386.3,86.69,384.558Z" transform="translate(0 24.3) rotate(-10.917)" fill="#8c4a33"/>
          </g>
          <g id="Grupo_3146" data-name="Grupo 3146" transform="translate(965.035 0.001)">
            <path id="Caminho_4655" data-name="Caminho 4655" d="M0,0,16.391,1.739,103.081,386.3,86.69,384.558Z" transform="translate(0 24.3) rotate(-10.917)" fill="#8c4a33"/>
          </g>
          <g id="Grupo_3147" data-name="Grupo 3147" transform="translate(1025.355 0.002)">
            <path id="Caminho_4656" data-name="Caminho 4656" d="M0,0,16.389,1.738l86.688,384.557-16.389-1.738Z" transform="translate(0 24.299) rotate(-10.916)" fill="#8c4a33"/>
          </g>
          <g id="Grupo_3148" data-name="Grupo 3148" transform="translate(1085.668 0.002)">
            <path id="Caminho_4657" data-name="Caminho 4657" d="M0,0,16.389,1.738,103.077,386.3l-16.389-1.738Z" transform="translate(0 24.299) rotate(-10.916)" fill="#8c4a33"/>
          </g>
          <g id="Grupo_3149" data-name="Grupo 3149" transform="translate(1145.977 0.001)">
            <path id="Caminho_4658" data-name="Caminho 4658" d="M0,0,16.391,1.739,103.081,386.3,86.69,384.558Z" transform="translate(0 24.3) rotate(-10.917)" fill="#8c4a33"/>
          </g>
          <g id="Grupo_3150" data-name="Grupo 3150" transform="translate(1206.297 0.002)">
            <path id="Caminho_4659" data-name="Caminho 4659" d="M0,0,16.391,1.738l86.688,384.556-16.391-1.738Z" transform="translate(0 24.299) rotate(-10.916)" fill="#8c4a33"/>
          </g>
          <g id="Grupo_3151" data-name="Grupo 3151" transform="translate(1266.613 0.002)">
            <path id="Caminho_4660" data-name="Caminho 4660" d="M0,0,16.391,1.739,103.079,386.3l-16.391-1.739Z" transform="translate(0 24.299) rotate(-10.916)" fill="#8c4a33"/>
          </g>
          <g id="Grupo_3152" data-name="Grupo 3152" transform="translate(1326.926 0.002)">
            <path id="Caminho_4661" data-name="Caminho 4661" d="M0,0,16.391,1.738,103.079,386.3l-16.391-1.738Z" transform="translate(0 24.299) rotate(-10.916)" fill="#8c4a33"/>
          </g>
          <g id="Grupo_3153" data-name="Grupo 3153" transform="translate(1387.239 0)">
            <path id="Caminho_4662" data-name="Caminho 4662" d="M0,0,16.389,1.738,103.081,386.3l-16.389-1.738Z" transform="translate(0 24.301) rotate(-10.917)" fill="#8c4a33"/>
          </g>
          <g id="Grupo_3154" data-name="Grupo 3154" transform="translate(1447.555 0.001)">
            <path id="Caminho_4663" data-name="Caminho 4663" d="M0,0,16.393,1.739,103.081,386.3l-16.393-1.739Z" transform="translate(0 24.3) rotate(-10.916)" fill="#8c4a33"/>
          </g>
          <g id="Grupo_3155" data-name="Grupo 3155" transform="translate(1507.868 0)">
            <path id="Caminho_4664" data-name="Caminho 4664" d="M0,0,16.392,1.739,103.083,386.3,86.69,384.558Z" transform="translate(0 24.301) rotate(-10.917)" fill="#8c4a33"/>
          </g>
          <g id="Grupo_3156" data-name="Grupo 3156" transform="translate(1568.187 0.003)">
            <path id="Caminho_4665" data-name="Caminho 4665" d="M0,0,16.389,1.738l86.687,384.556-16.389-1.738Z" transform="matrix(0.982, -0.189, 0.189, 0.982, 0, 24.298)" fill="#8c4a33"/>
          </g>
          <g id="Grupo_3157" data-name="Grupo 3157" transform="translate(1628.501 0.003)">
            <path id="Caminho_4666" data-name="Caminho 4666" d="M0,0,16.389,1.738l86.686,384.556-16.389-1.738Z" transform="translate(0 24.298) rotate(-10.916)" fill="#8c4a33"/>
          </g>
          <g id="Grupo_3158" data-name="Grupo 3158" transform="translate(1688.81 0)">
            <path id="Caminho_4667" data-name="Caminho 4667" d="M0,0,16.389,1.738,103.081,386.3l-16.389-1.738Z" transform="translate(0 24.301) rotate(-10.917)" fill="#8c4a33"/>
          </g>
        </g>
      </g>
    </g>
    <path id="Caminho_4638" data-name="Caminho 4638" d="M1463.5,438.458H24.834v-170.4s190.466,2.267,304.895-8.345,304.134-55.138,468.186-59.922,273.275,12.937,336.9,0,178.545-64.46,328.687-64.46Z" transform="translate(0 5.133)" fill="#fff" opacity="0.078"/>
  </g>
  <g id="Grupo_3192" data-name="Grupo 3192" transform="translate(-0.001 -347.861)">
    <circle id="Elipse_74" data-name="Elipse 74" cx="6.501" cy="6.501" r="6.501" transform="translate(175.401 499.941)" fill="#82760a"/>
    <circle id="Elipse_75" data-name="Elipse 75" cx="10.911" cy="10.911" r="10.911" transform="translate(184.181 495.531)" fill="#82760a"/>
    <path id="Caminho_4761" data-name="Caminho 4761" d="M4.717,536.274c.083-.05.166-.091.257-.141.05-.025.108-.05.166-.075l.017-.016q7.036-3.612,14.5-6.733c.764-.324,1.528-.639,2.3-.955q3.462-1.407,7-2.715t7.165-2.516c.805-.266,1.611-.531,2.424-.789-.008.008-.017.008-.025.016q5.754-1.855,11.665-3.462c1.345-.365,2.707-.722,4.068-1.071,1.553-.39,3.122-.781,4.7-1.146,1.121-.266,2.242-.523,3.371-.772q.735-.175,1.469-.324c1.22-.265,2.441-.523,3.67-.772.025-.008.041-.008.066-.017,3.645-.747,7.339-1.428,11.059-2.042q4.048-.685,8.154-1.246c.008.008.025,0,.033,0,2.731-.382,5.488-.731,8.253-1.038q5.293-.6,10.644-1.022c1.32-.108,2.648-.207,3.977-.3.257-.016.523-.042.78-.058,1.071-.075,2.142-.141,3.213-.208.972-.05,1.943-.108,2.923-.158.449-.025.888-.042,1.337-.066l2.914-.124q6.227-.249,12.521-.274c1.661-.008,3.33-.008,5,.008l2.474.025c.415.008.83.017,1.246.017.464.01.93.025,1.394.036a10.962,10.962,0,0,0,5.273-3.706,11.01,11.01,0,0,0,4.693,4.042q1.88.09,3.76.193l.009-.008c.681.033,1.353.075,2.034.116.589.033,1.187.066,1.777.108l.4.027a10.968,10.968,0,1,0-12.154-17.073,10.911,10.911,0,0,0-13.368-4.127,6.835,6.835,0,0,0,.183-1.553,7.273,7.273,0,0,0-7.4-7.14,7.461,7.461,0,0,0-5.779,2.7,8.971,8.971,0,0,0-9.872-.805,12.9,12.9,0,0,0-22.5-3.944,10.187,10.187,0,0,0-14.19,5.255,10.187,10.187,0,0,0-7.448-.066,15.5,15.5,0,0,0-24.916-2.25,17.569,17.569,0,0,0-16.323-3.363A23.051,23.051,0,0,0,0,470.118v68.664c.805-.44,1.619-.88,2.433-1.312C3.189,537.063,3.953,536.664,4.717,536.274Z" fill="url(#linear-gradient-3)"/>
    <path id="Caminho_4762" data-name="Caminho 4762" d="M224.863,536.881a6.891,6.891,0,0,0-4.311,1.567,8.169,8.169,0,0,0-7.991-5.25c-5.332,0-10.234,4.076-10.949,9.1s3.028,9.1,8.36,9.1a11.481,11.481,0,0,0,9.478-5.242,5.224,5.224,0,0,0,3.853,1.56A6.717,6.717,0,0,0,229.9,542.3C230.328,539.308,228.074,536.881,224.863,536.881Z" transform="translate(-112.286 -36.308)" fill="#cfc12c" fill-rule="evenodd"/>
    <path id="Caminho_4763" data-name="Caminho 4763" d="M83.917,547.487a11.561,11.561,0,0,1-11.151,9.723,8.96,8.96,0,0,1-4.382-1.1,6.271,6.271,0,0,0-6.08.143,7.361,7.361,0,0,1-3.578.954,6.17,6.17,0,0,1-2.391-.473A43.863,43.863,0,0,1,56.261,568C54.185,583.92,44.6,596.83,34.848,596.83c-6.319,0-11.151-5.422-13.21-13.567A27.744,27.744,0,0,1,4.087,589.8a23.344,23.344,0,0,1-4.077-.349V543.361a26.4,26.4,0,0,1,10.411-2.175,21.309,21.309,0,0,1,17.195,8.1c4.052-6.194,9.374-10.121,14.746-10.121,5.064,0,9.166,3.479,11.665,9.05a7.727,7.727,0,0,1,6.451-3.712,5.816,5.816,0,0,1,4.077,1.569,11.611,11.611,0,0,1,10.852-8.311A8.341,8.341,0,0,1,83.917,547.487Z" transform="translate(-0.005 -38.853)" fill-rule="evenodd" fill="url(#linear-gradient-4)"/>
  </g>
  <path id="Caminho_4804" data-name="Caminho 4804" d="M1385.974,438.548a84.257,84.257,0,0,0-35,7.474c1.2-35-30.7-62.4-74.49-62.4a107.512,107.512,0,0,0-37.552,6.826c-4.914-38.855-38.551-67.622-83.561-67.622-32.276,0-62.953,14.807-83.677,37.5a27.669,27.669,0,0,0-19.369-7.493c-17.581,0-33.744,14.5-36.1,32.4s9.984,32.4,27.565,32.4c.632,0,1.26-.024,1.888-.061-3.888,47.042,32.626,84.365,83.894,84.365a112.752,112.752,0,0,0,58.016-16.512c11.1,21.393,36.681,35.907,68.547,35.907,30.324,0,58.834-13.146,76.541-32.853,7.576,8.169,21.889,13.513,39.417,13.513,28.586,0,54.867-14.2,58.7-31.716S1414.56,438.548,1385.974,438.548Z" transform="translate(8.409 -319.821)" fill-rule="evenodd" opacity="0.75" fill="url(#linear-gradient-5)"/>
  <g id="Grupo_3190" data-name="Grupo 3190" transform="translate(267.011 -309.247)">
    <path id="Caminho_4668" data-name="Caminho 4668" d="M1272.614,587.255v26.809H935.9C1041.806,553.81,1178.543,540.768,1272.614,587.255Z" transform="translate(-99.955 -119.234)" fill="#c9996e" fill-rule="evenodd"/>
    <path id="Caminho_4669" data-name="Caminho 4669" d="M1529.645,635.951h-102.6v-7.935a15.066,15.066,0,0,1,25.38-10.984,9.515,9.515,0,0,1,12.176-2.447,16.3,16.3,0,0,1,32.326-2.883,12.535,12.535,0,0,1,20.505,12.326c9.635-.746,14.179,5.413,12.212,11.923Z" transform="translate(-374.889 -141.118)" fill="#82760a" fill-rule="evenodd"/>
    <g id="Grupo_3163" data-name="Grupo 3163" transform="translate(1083.006 346.245)">
      <path id="Caminho_4670" data-name="Caminho 4670" d="M1529.38,510.231a.989.989,0,1,1,1.82-.774l10.807,25.337a.989.989,0,0,1-.08.925l-14.768,24.731,19.047,24.808a.988.988,0,0,1,.2.6h-2.236L1525.18,561.12a.99.99,0,0,1-.039-1.146l14.849-24.866-10.61-24.877Z" transform="translate(-1512.715 -437.271)" fill="#737373"/>
      <path id="Caminho_4671" data-name="Caminho 4671" d="M1534.716,393.485a.652.652,0,1,1-1.206-.5l2.328-5.619-5.62,2.328a.652.652,0,0,1-.5-1.207l5.616-2.327-5.617-2.326a.652.652,0,1,1,.5-1.206l5.619,2.327-2.328-5.62a.652.652,0,0,1,1.207-.5l2.327,5.617,2.326-5.617a.652.652,0,0,1,1.207.5l-2.327,5.619,5.619-2.327a.652.652,0,0,1,.5,1.206l-5.616,2.327,5.616,2.326a.652.652,0,1,1-.5,1.207l-5.619-2.328,2.328,5.62a.652.652,0,0,1-1.206.5l-2.327-5.616-2.327,5.616Z" transform="translate(-1515.144 -364.267)" fill="#4d4d4d"/>
      <path id="Caminho_4672" data-name="Caminho 4672" d="M1529.762,394.2l0-.011,0-.018,0-.01.006-.019,0-.009.007-.018,0-.009.006-.019,0-.008.008-.019,0-.008.008-.019,0-.008a1.192,1.192,0,0,1,.172-.291l0,0c.012-.015.024-.029.037-.043l.015-.018,0,0,.016-.017,0,0,.017-.017,0,0,.018-.017,0,0,.017-.015c.015-.013.029-.026.044-.038l0,0a1.169,1.169,0,0,1,.291-.172l.006,0,.02-.008.008,0,.019-.007.008,0,.019-.007.009,0,.019-.006.01,0,.019-.006.01,0,.018,0,.01,0a1.2,1.2,0,0,1,.236-.032h.083a1.183,1.183,0,0,1,.235.032l.011,0,.018,0,.01,0,.019.006.009,0,.019.006.009,0,.019.007.008,0,.02.007.007,0,.019.008.008,0a1.176,1.176,0,0,1,.291.172l0,0c.014.012.03.025.043.038l.018.015,0,0,.018.017,0,0,.017.017,0,0,.016.017,0,0,.016.018.036.043,0,0a1.228,1.228,0,0,1,.172.291l0,.008.008.019,0,.008.007.019,0,.008.006.019,0,.009.006.018,0,.009,0,.019,0,.01,0,.018,0,.011a1.133,1.133,0,0,1,.029.185l2.068,24.239h1.613a1.19,1.19,0,0,1,0,2.38h-1.41l1.958,22.959h1.613a1.189,1.189,0,1,1,0,2.379h-1.411l1.959,22.959h1.613a1.19,1.19,0,1,1,0,2.38H1538.7l1.959,22.958h1.614a1.19,1.19,0,0,1,0,2.379h-1.41l2.06,24.149h-2.387l-2.06-24.149h-15.108l-2.06,24.149h-2.387l2.061-24.149h-1.41a1.19,1.19,0,1,1,0-2.379h1.612l1.958-22.958h-1.41a1.19,1.19,0,0,1,0-2.38h1.613l1.958-22.959h-1.41a1.189,1.189,0,1,1,0-2.379h1.612L1527.462,421h-1.41a1.19,1.19,0,0,1,0-2.38h1.613l2.068-24.239a1.134,1.134,0,0,1,.029-.185Zm8.507,100.439-1.959-22.958h-10.785l-1.958,22.958Zm-2.161-25.338-1.958-22.959h-6.463l-1.959,22.959Zm-2.161-25.338L1531.988,421h-2.139l-1.959,22.959Zm-2.162-25.339-.867-10.158-.866,10.158Z" transform="translate(-1509.021 -372.578)" fill="#4d4d4d"/>
      <path id="Caminho_4673" data-name="Caminho 4673" d="M1542.687,388.525a3.285,3.285,0,1,1-3.285,3.285,3.284,3.284,0,0,1,3.285-3.285Z" transform="translate(-1520.79 -369.913)" fill="#999" fill-rule="evenodd"/>
      <path id="Caminho_4674" data-name="Caminho 4674" d="M1552.813,346.245l-2.717,14.373,2.891,1.2,8.241-12.086-8.416-3.485Z" transform="translate(-1526.776 -346.245)" fill="#999" fill-rule="evenodd"/>
      <path id="Caminho_4675" data-name="Caminho 4675" d="M1573.32,367.464l-12.085,8.242,1.2,2.891,14.374-2.718-3.486-8.416Z" transform="translate(-1533.011 -358.123)" fill="#999" fill-rule="evenodd"/>
      <path id="Caminho_4676" data-name="Caminho 4676" d="M1576.807,401.935l-14.373-2.717-1.2,2.891,12.086,8.241,3.485-8.416Z" transform="translate(-1533.012 -375.899)" fill="#999" fill-rule="evenodd"/>
      <path id="Caminho_4677" data-name="Caminho 4677" d="M1526.755,346.247l2.719,14.374-2.891,1.2-8.243-12.084,8.415-3.487Z" transform="translate(-1509 -346.246)" fill="#999" fill-rule="evenodd"/>
      <path id="Caminho_4678" data-name="Caminho 4678" d="M1500.608,367.467l12.086,8.242-1.2,2.891-14.373-2.717,3.485-8.416Z" transform="translate(-1497.122 -358.125)" fill="#999" fill-rule="evenodd"/>
      <path id="Caminho_4679" data-name="Caminho 4679" d="M1518.344,422.444l8.242-12.086,2.891,1.2-2.717,14.373-8.416-3.485Z" transform="translate(-1509.002 -382.135)" fill="#999" fill-rule="evenodd"/>
      <path id="Caminho_4680" data-name="Caminho 4680" d="M1552.816,425.929l-2.718-14.373,2.891-1.2,8.243,12.084-8.416,3.487Z" transform="translate(-1526.777 -382.134)" fill="#999" fill-rule="evenodd"/>
      <path id="Caminho_4681" data-name="Caminho 4681" d="M1500.61,410.354l12.085-8.242-1.2-2.891-14.373,2.718,3.486,8.416Z" transform="translate(-1497.123 -375.9)" fill="#999" fill-rule="evenodd"/>
      <path id="Caminho_4682" data-name="Caminho 4682" d="M1545.021,392.695a1.45,1.45,0,1,1-1.449,1.449,1.45,1.45,0,0,1,1.449-1.449Z" transform="translate(-1523.124 -372.247)" fill="#ccc" fill-rule="evenodd"/>
    </g>
    <g id="Grupo_3174" data-name="Grupo 3174" transform="translate(956.173 357.717)">
      <path id="Caminho_4683" data-name="Caminho 4683" d="M1211.494,531.054h25.633v-120.1h-25.633v120.1Z" transform="translate(-1210.401 -393.938)" fill="#ccc" fill-rule="evenodd"/>
      <path id="Caminho_4684" data-name="Caminho 4684" d="M1269.722,531.054h8.394v-120.1h-8.394v120.1Z" transform="translate(-1242.996 -393.938)" fill="#999797" fill-rule="evenodd"/>
      <path id="Caminho_4685" data-name="Caminho 4685" d="M1228.508,372.3a17.013,17.013,0,0,1,17.013,17.014h-34.027a17.013,17.013,0,0,1,17.014-17.014Z" transform="translate(-1210.401 -372.304)" fill="#ccc" fill-rule="evenodd"/>
      <path id="Caminho_4686" data-name="Caminho 4686" d="M1224.311,381.838a12.816,12.816,0,0,1,12.817,12.817h-25.633a12.816,12.816,0,0,1,12.816-12.817Z" transform="translate(-1210.401 -377.641)" fill="#ededed" fill-rule="evenodd"/>
      <path id="Caminho_4687" data-name="Caminho 4687" d="M1226.932,381.741a3.7,3.7,0,0,1,3.984,3.7,4.233,4.233,0,0,1-4.013,4.118,3.7,3.7,0,0,1-3.984-3.7,4.233,4.233,0,0,1,4.012-4.118Z" transform="translate(-1216.797 -377.583)" fill="#fff" fill-rule="evenodd"/>
      <g id="Grupo_3173" data-name="Grupo 3173" transform="translate(0 17.014)">
        <g id="Grupo_3164" data-name="Grupo 3164">
          <path id="Caminho_4688" data-name="Caminho 4688" d="M1210.1,410.952h25.633v2.226H1210.1a1.113,1.113,0,0,1,0-2.226Z" transform="translate(-1209.011 -410.952)" fill="#999797" fill-rule="evenodd"/>
          <path id="Caminho_4689" data-name="Caminho 4689" d="M1278.116,410.952h-8.394v2.226h8.394a1.113,1.113,0,0,0,0-2.226Z" transform="translate(-1242.996 -410.952)" fill="#666" fill-rule="evenodd"/>
        </g>
        <g id="Grupo_3165" data-name="Grupo 3165" transform="translate(0 13.34)">
          <path id="Caminho_4690" data-name="Caminho 4690" d="M1210.1,441.256h25.633v2.226H1210.1a1.113,1.113,0,0,1,0-2.226Z" transform="translate(-1209.011 -441.256)" fill="#999797" fill-rule="evenodd"/>
          <path id="Caminho_4691" data-name="Caminho 4691" d="M1278.116,441.256h-8.394v2.226h8.394a1.113,1.113,0,0,0,0-2.226Z" transform="translate(-1242.996 -441.256)" fill="#666" fill-rule="evenodd"/>
        </g>
        <g id="Grupo_3166" data-name="Grupo 3166" transform="translate(0 26.68)">
          <path id="Caminho_4692" data-name="Caminho 4692" d="M1210.1,471.559h25.633v2.226H1210.1a1.113,1.113,0,0,1,0-2.226Z" transform="translate(-1209.011 -471.559)" fill="#999797" fill-rule="evenodd"/>
          <path id="Caminho_4693" data-name="Caminho 4693" d="M1278.116,471.559h-8.394v2.226h8.394a1.113,1.113,0,0,0,0-2.226Z" transform="translate(-1242.996 -471.559)" fill="#666" fill-rule="evenodd"/>
        </g>
        <g id="Grupo_3167" data-name="Grupo 3167" transform="translate(0 40.021)">
          <path id="Caminho_4694" data-name="Caminho 4694" d="M1210.1,501.863h25.633v2.226H1210.1a1.113,1.113,0,0,1,0-2.226Z" transform="translate(-1209.011 -501.863)" fill="#999797" fill-rule="evenodd"/>
          <path id="Caminho_4695" data-name="Caminho 4695" d="M1278.116,501.863h-8.394v2.226h8.394a1.113,1.113,0,0,0,0-2.226Z" transform="translate(-1242.996 -501.863)" fill="#666" fill-rule="evenodd"/>
        </g>
        <g id="Grupo_3168" data-name="Grupo 3168" transform="translate(0 53.361)">
          <path id="Caminho_4696" data-name="Caminho 4696" d="M1210.1,532.167h25.633v2.225H1210.1a1.113,1.113,0,0,1,0-2.225Z" transform="translate(-1209.011 -532.167)" fill="#999797" fill-rule="evenodd"/>
          <path id="Caminho_4697" data-name="Caminho 4697" d="M1278.116,532.167h-8.394v2.225h8.394a1.113,1.113,0,0,0,0-2.225Z" transform="translate(-1242.996 -532.167)" fill="#666" fill-rule="evenodd"/>
        </g>
        <g id="Grupo_3169" data-name="Grupo 3169" transform="translate(0 66.701)">
          <path id="Caminho_4698" data-name="Caminho 4698" d="M1210.1,562.47h25.633V564.7H1210.1a1.113,1.113,0,0,1,0-2.226Z" transform="translate(-1209.011 -562.47)" fill="#999797" fill-rule="evenodd"/>
          <path id="Caminho_4699" data-name="Caminho 4699" d="M1278.116,562.47h-8.394V564.7h8.394a1.113,1.113,0,0,0,0-2.226Z" transform="translate(-1242.996 -562.47)" fill="#666" fill-rule="evenodd"/>
        </g>
        <g id="Grupo_3170" data-name="Grupo 3170" transform="translate(0 80.042)">
          <path id="Caminho_4700" data-name="Caminho 4700" d="M1210.1,592.774h25.633V595H1210.1a1.113,1.113,0,0,1,0-2.226Z" transform="translate(-1209.011 -592.774)" fill="#999797" fill-rule="evenodd"/>
          <path id="Caminho_4701" data-name="Caminho 4701" d="M1278.116,592.774h-8.394V595h8.394a1.113,1.113,0,0,0,0-2.226Z" transform="translate(-1242.996 -592.774)" fill="#666" fill-rule="evenodd"/>
        </g>
        <g id="Grupo_3171" data-name="Grupo 3171" transform="translate(0 93.382)">
          <path id="Caminho_4702" data-name="Caminho 4702" d="M1210.1,623.077h25.633V625.3H1210.1a1.113,1.113,0,0,1,0-2.226Z" transform="translate(-1209.011 -623.077)" fill="#999797" fill-rule="evenodd"/>
          <path id="Caminho_4703" data-name="Caminho 4703" d="M1278.116,623.077h-8.394V625.3h8.394a1.113,1.113,0,0,0,0-2.226Z" transform="translate(-1242.996 -623.077)" fill="#666" fill-rule="evenodd"/>
        </g>
        <g id="Grupo_3172" data-name="Grupo 3172" transform="translate(0 106.722)">
          <path id="Caminho_4704" data-name="Caminho 4704" d="M1210.1,653.381h25.633v2.226H1210.1a1.113,1.113,0,0,1,0-2.226Z" transform="translate(-1209.011 -653.381)" fill="#999797" fill-rule="evenodd"/>
          <path id="Caminho_4705" data-name="Caminho 4705" d="M1278.116,653.381h-8.394v2.226h8.394a1.113,1.113,0,0,0,0-2.226Z" transform="translate(-1242.996 -653.381)" fill="#666" fill-rule="evenodd"/>
        </g>
      </g>
    </g>
    <g id="Grupo_3185" data-name="Grupo 3185" transform="translate(994.218 357.717)">
      <path id="Caminho_4706" data-name="Caminho 4706" d="M1297.915,531.054h25.633v-120.1h-25.633v120.1Z" transform="translate(-1296.822 -393.938)" fill="#ccc" fill-rule="evenodd"/>
      <path id="Caminho_4707" data-name="Caminho 4707" d="M1356.143,531.054h8.394v-120.1h-8.394v120.1Z" transform="translate(-1329.417 -393.938)" fill="#999797" fill-rule="evenodd"/>
      <path id="Caminho_4708" data-name="Caminho 4708" d="M1314.93,372.3a17.014,17.014,0,0,1,17.014,17.014h-34.027A17.013,17.013,0,0,1,1314.93,372.3Z" transform="translate(-1296.823 -372.304)" fill="#ccc" fill-rule="evenodd"/>
      <path id="Caminho_4709" data-name="Caminho 4709" d="M1310.733,381.838a12.817,12.817,0,0,1,12.817,12.817h-25.633a12.816,12.816,0,0,1,12.817-12.817Z" transform="translate(-1296.823 -377.641)" fill="#ededed" fill-rule="evenodd"/>
      <path id="Caminho_4710" data-name="Caminho 4710" d="M1313.353,381.741a3.7,3.7,0,0,1,3.984,3.7,4.233,4.233,0,0,1-4.013,4.118,3.7,3.7,0,0,1-3.984-3.7,4.233,4.233,0,0,1,4.013-4.118Z" transform="translate(-1303.218 -377.583)" fill="#fff" fill-rule="evenodd"/>
      <g id="Grupo_3184" data-name="Grupo 3184" transform="translate(0 17.014)">
        <g id="Grupo_3175" data-name="Grupo 3175">
          <path id="Caminho_4711" data-name="Caminho 4711" d="M1296.525,410.952h25.633v2.226h-25.633a1.113,1.113,0,0,1,0-2.226Z" transform="translate(-1295.432 -410.952)" fill="#999797" fill-rule="evenodd"/>
          <path id="Caminho_4712" data-name="Caminho 4712" d="M1364.537,410.952h-8.394v2.226h8.394a1.113,1.113,0,0,0,0-2.226Z" transform="translate(-1329.417 -410.952)" fill="#666" fill-rule="evenodd"/>
        </g>
        <g id="Grupo_3176" data-name="Grupo 3176" transform="translate(0 13.34)">
          <path id="Caminho_4713" data-name="Caminho 4713" d="M1296.525,441.256h25.633v2.226h-25.633a1.113,1.113,0,0,1,0-2.226Z" transform="translate(-1295.432 -441.256)" fill="#999797" fill-rule="evenodd"/>
          <path id="Caminho_4714" data-name="Caminho 4714" d="M1364.537,441.256h-8.394v2.226h8.394a1.113,1.113,0,0,0,0-2.226Z" transform="translate(-1329.417 -441.256)" fill="#666" fill-rule="evenodd"/>
        </g>
        <g id="Grupo_3177" data-name="Grupo 3177" transform="translate(0 26.68)">
          <path id="Caminho_4715" data-name="Caminho 4715" d="M1296.525,471.559h25.633v2.226h-25.633a1.113,1.113,0,0,1,0-2.226Z" transform="translate(-1295.432 -471.559)" fill="#999797" fill-rule="evenodd"/>
          <path id="Caminho_4716" data-name="Caminho 4716" d="M1364.537,471.559h-8.394v2.226h8.394a1.113,1.113,0,0,0,0-2.226Z" transform="translate(-1329.417 -471.559)" fill="#666" fill-rule="evenodd"/>
        </g>
        <g id="Grupo_3178" data-name="Grupo 3178" transform="translate(0 40.021)">
          <path id="Caminho_4717" data-name="Caminho 4717" d="M1296.525,501.863h25.633v2.226h-25.633a1.113,1.113,0,0,1,0-2.226Z" transform="translate(-1295.432 -501.863)" fill="#999797" fill-rule="evenodd"/>
          <path id="Caminho_4718" data-name="Caminho 4718" d="M1364.537,501.863h-8.394v2.226h8.394a1.113,1.113,0,0,0,0-2.226Z" transform="translate(-1329.417 -501.863)" fill="#666" fill-rule="evenodd"/>
        </g>
        <g id="Grupo_3179" data-name="Grupo 3179" transform="translate(0 53.361)">
          <path id="Caminho_4719" data-name="Caminho 4719" d="M1296.525,532.167h25.633v2.225h-25.633a1.113,1.113,0,0,1,0-2.225Z" transform="translate(-1295.432 -532.167)" fill="#999797" fill-rule="evenodd"/>
          <path id="Caminho_4720" data-name="Caminho 4720" d="M1364.537,532.167h-8.394v2.225h8.394a1.113,1.113,0,0,0,0-2.225Z" transform="translate(-1329.417 -532.167)" fill="#666" fill-rule="evenodd"/>
        </g>
        <g id="Grupo_3180" data-name="Grupo 3180" transform="translate(0 66.701)">
          <path id="Caminho_4721" data-name="Caminho 4721" d="M1296.525,562.47h25.633V564.7h-25.633a1.113,1.113,0,0,1,0-2.226Z" transform="translate(-1295.432 -562.47)" fill="#999797" fill-rule="evenodd"/>
          <path id="Caminho_4722" data-name="Caminho 4722" d="M1364.537,562.47h-8.394V564.7h8.394a1.113,1.113,0,0,0,0-2.226Z" transform="translate(-1329.417 -562.47)" fill="#666" fill-rule="evenodd"/>
        </g>
        <g id="Grupo_3181" data-name="Grupo 3181" transform="translate(0 80.042)">
          <path id="Caminho_4723" data-name="Caminho 4723" d="M1296.525,592.774h25.633V595h-25.633a1.113,1.113,0,0,1,0-2.226Z" transform="translate(-1295.432 -592.774)" fill="#999797" fill-rule="evenodd"/>
          <path id="Caminho_4724" data-name="Caminho 4724" d="M1364.537,592.774h-8.394V595h8.394a1.113,1.113,0,0,0,0-2.226Z" transform="translate(-1329.417 -592.774)" fill="#666" fill-rule="evenodd"/>
        </g>
        <g id="Grupo_3182" data-name="Grupo 3182" transform="translate(0 93.382)">
          <path id="Caminho_4725" data-name="Caminho 4725" d="M1296.525,623.077h25.633V625.3h-25.633a1.113,1.113,0,0,1,0-2.226Z" transform="translate(-1295.432 -623.077)" fill="#999797" fill-rule="evenodd"/>
          <path id="Caminho_4726" data-name="Caminho 4726" d="M1364.537,623.077h-8.394V625.3h8.394a1.113,1.113,0,0,0,0-2.226Z" transform="translate(-1329.417 -623.077)" fill="#666" fill-rule="evenodd"/>
        </g>
        <g id="Grupo_3183" data-name="Grupo 3183" transform="translate(0 106.722)">
          <path id="Caminho_4727" data-name="Caminho 4727" d="M1296.525,653.381h25.633v2.226h-25.633a1.113,1.113,0,0,1,0-2.226Z" transform="translate(-1295.432 -653.381)" fill="#999797" fill-rule="evenodd"/>
          <path id="Caminho_4728" data-name="Caminho 4728" d="M1364.537,653.381h-8.394v2.226h8.394a1.113,1.113,0,0,0,0-2.226Z" transform="translate(-1329.417 -653.381)" fill="#666" fill-rule="evenodd"/>
        </g>
      </g>
    </g>
    <path id="Caminho_4729" data-name="Caminho 4729" d="M1516.231,655.05h-76v-.02a13.067,13.067,0,0,1,17.608-12.246q-.034-.4-.035-.814a9.509,9.509,0,0,1,19.016-.215,14.577,14.577,0,0,1,21.914,5.809c7.676-3.808,16.767.977,17.5,7.487Z" transform="translate(-382.269 -160.217)" fill="#cfc12c" fill-rule="evenodd"/>
    <path id="Retângulo_2799" data-name="Retângulo 2799" d="M0,0H78.982a0,0,0,0,1,0,0V7.125a0,0,0,0,1,0,0H7.125A7.125,7.125,0,0,1,0,0V0A0,0,0,0,1,0,0Z" transform="translate(1093.675 494.83)" fill="url(#linear-gradient-6)"/>
    <path id="Caminho_4730" data-name="Caminho 4730" d="M1057.46,653.067V639.685a10.767,10.767,0,1,0-21.534,0v13.382Z" transform="translate(-155.948 -158.234)" fill="#cfc12c" fill-rule="evenodd"/>
    <g id="Grupo_3186" data-name="Grupo 3186" transform="translate(1059.71 480.987)">
      <rect id="Retângulo_2800" data-name="Retângulo 2800" width="1.969" height="13.843" transform="translate(45.193)" fill="#fff"/>
      <rect id="Retângulo_2801" data-name="Retângulo 2801" width="1.969" height="13.843" transform="translate(2.478)" fill="#fff"/>
      <rect id="Retângulo_2802" data-name="Retângulo 2802" width="47.162" height="2.386" transform="translate(0 1.578)" fill="#fff"/>
      <rect id="Retângulo_2803" data-name="Retângulo 2803" width="47.162" height="2.386" transform="translate(0 9.071)" fill="#fff"/>
    </g>
    <path id="Caminho_4731" data-name="Caminho 4731" d="M1464.253,663.781h-15.6v2.385h-1.973v-2.385H1444.2V661.4h2.476v-5.109H1444.2V653.9h2.476v-1.577h1.973V653.9h11.713l.941,2.385h-12.653V661.4h14.659Z" transform="translate(-384.494 -171.337)" fill="#d3d3d3" fill-rule="evenodd"/>
    <g id="Grupo_3187" data-name="Grupo 3187" transform="translate(757.338 430.317)">
      <path id="Caminho_4732" data-name="Caminho 4732" d="M757.338,602.658a16.235,16.235,0,0,1,21.422-15.372,19.778,19.778,0,0,1,33.1-17.77,12.879,12.879,0,0,1,18.778-6.958,19.778,19.778,0,0,1,35.8-14.944,12.467,12.467,0,0,1,20.353,9.655v45.389Z" transform="translate(-757.338 -538.143)" fill-rule="evenodd" fill="url(#linear-gradient-7)"/>
      <path id="Caminho_4733" data-name="Caminho 4733" d="M1089.64,537.222a17.835,17.835,0,0,0-17.835,17.835v46.68h35.67v-46.68A17.835,17.835,0,0,0,1089.64,537.222Z" transform="translate(-933.37 -537.222)" fill-rule="evenodd" fill="url(#linear-gradient-8)"/>
      <path id="Caminho_4734" data-name="Caminho 4734" d="M1043.434,574.239a13.33,13.33,0,0,0-13.33,13.33v34.89h26.66v-34.89A13.33,13.33,0,0,0,1043.434,574.239Z" transform="translate(-910.027 -557.943)" fill-rule="evenodd" fill="url(#linear-gradient-9)"/>
    </g>
    <path id="Caminho_4735" data-name="Caminho 4735" d="M969.831,650.159H880.887v-.023A15.293,15.293,0,0,1,901.494,635.8c-.026-.314-.041-.632-.041-.953a11.128,11.128,0,0,1,22.254-.252,17.059,17.059,0,0,1,25.645,6.8c8.984-4.456,19.622,1.144,20.479,8.762Z" transform="translate(-69.16 -155.326)" fill="#cfc12c" fill-rule="evenodd"/>
    <path id="Caminho_4736" data-name="Caminho 4736" d="M1080.008,653.067V639.685a10.767,10.767,0,1,0-21.534,0v13.382Z" transform="translate(-168.57 -158.234)" fill="#cfc12c" fill-rule="evenodd"/>
    <g id="Grupo_3188" data-name="Grupo 3188" transform="translate(896.122 437.031)">
      <path id="Caminho_4737" data-name="Caminho 4737" d="M1171.764,611.914H1072.6l1.1,2.788h99.166l-1.1-2.788Z" transform="translate(-1072.599 -585.747)" fill="#a2a2a2" fill-rule="evenodd"/>
      <path id="Caminho_4738" data-name="Caminho 4738" d="M1210.254,552.474h-99.165l-38.49,26.167h99.166l38.49-26.167Z" transform="translate(-1072.599 -552.474)" fill="#fff" fill-rule="evenodd"/>
      <path id="Caminho_4739" data-name="Caminho 4739" d="M1297.863,578.641l38.49-26.167,38.49,26.167-1.1,2.788-37.392-25.421-37.393,25.421-1.1-2.788Z" transform="translate(-1198.697 -552.474)" fill="#d3d3d3" fill-rule="evenodd"/>
      <path id="Caminho_4740" data-name="Caminho 4740" d="M1407.089,582.557,1377.9,562.715l3.255-2.213,37.393,25.421h-11.461v-3.365Z" transform="translate(-1243.501 -556.968)" fill="#a2a2a2" fill-rule="evenodd"/>
      <path id="Caminho_4741" data-name="Caminho 4741" d="M1361.7,585.371l-29.188-19.843-34.138,23.208h-1.56v28.844H1361.7V585.371Z" transform="translate(-1198.109 -559.782)" fill="#ba481a" fill-rule="evenodd"/>
      <path id="Caminho_4742" data-name="Caminho 4742" d="M1187.27,651.527V626.171h-86.145v25.356Z" transform="translate(-1088.567 -593.728)" fill="#ff8543" fill-rule="evenodd"/>
      <path id="Caminho_4743" data-name="Caminho 4743" d="M1101.125,626.171v25.356h48.615l-9.981-25.356Z" transform="translate(-1088.567 -593.728)" fill="#e65d21" fill-rule="evenodd"/>
      <path id="Caminho_4744" data-name="Caminho 4744" d="M1319.159,586.145l-20.787,14.132h-1.56v28.844h39.264l-16.917-42.976Z" transform="translate(-1198.109 -571.322)" fill="#9e2e01" fill-rule="evenodd"/>
      <path id="Caminho_4745" data-name="Caminho 4745" d="M1321.259,628.915h41.2v24.148h-41.2V628.915Z" transform="translate(-1211.794 -595.264)" fill="#5e3b1d" fill-rule="evenodd"/>
      <path id="Caminho_4746" data-name="Caminho 4746" d="M1414.856,628.915h2.157v24.148h-2.157V628.915Z" transform="translate(-1264.188 -595.264)" fill="#ffa469" fill-rule="evenodd"/>
      <path id="Caminho_4747" data-name="Caminho 4747" d="M1321.259,628.915h16.7l9.505,24.148h-26.208V628.915Z" transform="translate(-1211.794 -595.264)" fill="#3d2208" fill-rule="evenodd"/>
      <path id="Caminho_4748" data-name="Caminho 4748" d="M1187.27,621.735v-3.488h-86.145v3.488Z" transform="translate(-1088.567 -589.292)" fill="#e65d21" fill-rule="evenodd"/>
      <path id="Caminho_4749" data-name="Caminho 4749" d="M1219.22,628.916h19.416v8.333H1219.22v-8.333Z" transform="translate(-1154.674 -595.265)" fill="#42d9e0" fill-rule="evenodd"/>
      <path id="Caminho_4750" data-name="Caminho 4750" d="M1214.319,628.915h2.157v8.333h-2.157v-8.333Z" transform="translate(-1151.931 -595.264)" fill="#9e3b0c" fill-rule="evenodd"/>
      <path id="Caminho_4751" data-name="Caminho 4751" d="M1219.22,628.916h19.416v2.092h-12.987l2.456,6.241h-8.884v-8.333Z" transform="translate(-1154.674 -595.265)" fill="#1d5152" fill-rule="evenodd"/>
      <path id="Caminho_4752" data-name="Caminho 4752" d="M1134.612,628.915h2.157v8.333h-2.157v-8.333Z" transform="translate(-1107.313 -595.264)" fill="#9e3b0c" fill-rule="evenodd"/>
      <path id="Caminho_4753" data-name="Caminho 4753" d="M1101.125,618.247v3.488h38.634l-1.373-3.488Z" transform="translate(-1088.567 -589.292)" fill="#b54012" fill-rule="evenodd"/>
      <path id="Caminho_4754" data-name="Caminho 4754" d="M1139.513,628.916h19.416v8.333h-19.416v-8.333Z" transform="translate(-1110.056 -595.265)" fill="#42d9e0" fill-rule="evenodd"/>
      <path id="Caminho_4755" data-name="Caminho 4755" d="M1139.513,628.916h19.416v2.092h-12.008l2.456,6.241h-9.864v-8.333Z" transform="translate(-1110.056 -595.265)" fill="#1d5152" fill-rule="evenodd"/>
      <path id="Caminho_4756" data-name="Caminho 4756" d="M1123.78,552.474h-12.692l-38.49,26.167h61.443Z" transform="translate(-1072.599 -552.474)" fill="#ededed" fill-rule="evenodd"/>
    </g>
    <g id="Grupo_3189" data-name="Grupo 3189" transform="translate(797.662 480.99)">
      <rect id="Retângulo_2804" data-name="Retângulo 2804" width="1.969" height="13.843" transform="translate(85.429)" fill="#fff"/>
      <rect id="Retângulo_2805" data-name="Retângulo 2805" width="1.969" height="13.843" transform="translate(42.715)" fill="#fff"/>
      <rect id="Retângulo_2806" data-name="Retângulo 2806" width="1.969" height="13.843" transform="translate(0)" fill="#fff"/>
      <rect id="Retângulo_2807" data-name="Retângulo 2807" width="172.828" height="2.386" transform="translate(0 1.578)" fill="#fff"/>
      <rect id="Retângulo_2808" data-name="Retângulo 2808" width="172.828" height="2.386" transform="translate(0 9.071)" fill="#fff"/>
      <rect id="Retângulo_2809" data-name="Retângulo 2809" width="1.969" height="13.843" transform="translate(170.859)" fill="#fff"/>
      <rect id="Retângulo_2810" data-name="Retângulo 2810" width="1.969" height="13.843" transform="translate(128.144)" fill="#fff"/>
    </g>
  </g>
  <g id="Grupo_3193" data-name="Grupo 3193" transform="translate(693.856 -1025.778)">
    <path id="Caminho_4765" data-name="Caminho 4765" d="M128.694,1278.831v-8.941a1.584,1.584,0,0,0-1.58-1.58h0a1.584,1.584,0,0,0-1.58,1.58v8.941a7.2,7.2,0,0,1,3.159,0Z" transform="translate(-8.813 -75.037)" fill="gray" fill-rule="evenodd"/>
    <path id="Caminho_4766" data-name="Caminho 4766" d="M118.3,1295a7.158,7.158,0,1,0,7.158,7.158A7.158,7.158,0,0,0,118.3,1295Z" transform="translate(0 -91.381)" fill="#1a1a1a" fill-rule="evenodd"/>
    <path id="Caminho_4767" data-name="Caminho 4767" d="M123.308,1303.175a3.99,3.99,0,1,0,3.989,3.989,3.989,3.989,0,0,0-3.989-3.989Z" transform="translate(-5.006 -96.388)" fill="#999" fill-rule="evenodd"/>
    <path id="Caminho_4768" data-name="Caminho 4768" d="M127.056,1309.293a1.618,1.618,0,1,0,1.618,1.618,1.618,1.618,0,0,0-1.618-1.618Z" transform="translate(-8.753 -100.135)" fill="#4d4d4d" fill-rule="evenodd"/>
    <path id="Caminho_4769" data-name="Caminho 4769" d="M238.882,1273.665h0a1.584,1.584,0,0,0,1.58-1.58v-17.139c0-.034,0-.068,0-.1v0l0-.037v0l0-.035v0l0-.034v-.007c-.005-.036-.012-.073-.019-.109l0-.012-.005-.024,0-.01,0-.015,0-.007,0-.017h0a1.565,1.565,0,0,0-.547-.821l0,0,0,0-.026-.02,0,0a1.57,1.57,0,0,0-.885-.311h-.178c-.052,0-.1.011-.154.02h0c-.046.008-.093.019-.139.031l-44.063,12.1a1.584,1.584,0,0,0-1.105,1.942h0a1.584,1.584,0,0,0,1.942,1.105l42.065-11.547v15.067a1.584,1.584,0,0,0,1.58,1.58Z" transform="translate(-50.274 -65.886)" fill="gray" fill-rule="evenodd"/>
    <path id="Caminho_4770" data-name="Caminho 4770" d="M193.347,1283.692a1.417,1.417,0,0,1,1.412,1.412v1.558a1.417,1.417,0,0,1-1.412,1.412H112.556a1.417,1.417,0,0,1-1.412-1.412V1285.1a1.417,1.417,0,0,1,1.412-1.412Z" transform="translate(0 -84.457)" fill="#4d4d4d" fill-rule="evenodd"/>
    <path id="Caminho_4771" data-name="Caminho 4771" d="M311.124,1272.385a1.417,1.417,0,0,1,1.405,1.412v1.558a1.417,1.417,0,0,1-1.405,1.413h-6.439a1.416,1.416,0,0,1-1.412-1.413V1273.8a1.417,1.417,0,0,1,1.412-1.412h6.439Z" transform="translate(-117.657 -77.533)" fill="#4d4d4d" fill-rule="evenodd"/>
    <path id="Caminho_4772" data-name="Caminho 4772" d="M181.417,1303.479V1295h3.159v8.479Z" transform="translate(-43.034 -91.382)" fill="gray" fill-rule="evenodd"/>
    <path id="Caminho_4773" data-name="Caminho 4773" d="M168.181,1307.106l8.888-2.259c1.391-.354,1.553.463,1.527.914-.23,4.022,1.661,7.133,4.395,9.532h-5.824a23.381,23.381,0,0,1-9.5-6.015c-.6-.641-.92-1.808.517-2.173Z" transform="translate(-34.302 -97.359)" fill="#4d4d4d" fill-rule="evenodd"/>
    <path id="Caminho_4774" data-name="Caminho 4774" d="M223.25,1303.478V1295h3.159v8.479Z" transform="translate(-68.652 -91.381)" fill="gray" fill-rule="evenodd"/>
    <path id="Caminho_4775" data-name="Caminho 4775" d="M210.014,1307.106l8.888-2.259c1.391-.353,1.552.462,1.526.915-.229,4.021,1.66,7.133,4.4,9.531H219a23.374,23.374,0,0,1-9.5-6.014c-.6-.641-.92-1.808.517-2.173Z" transform="translate(-59.92 -97.359)" fill="#4d4d4d" fill-rule="evenodd"/>
    <path id="Caminho_4776" data-name="Caminho 4776" d="M265.084,1303.478V1295h3.159v8.479Z" transform="translate(-94.271 -91.381)" fill="gray" fill-rule="evenodd"/>
    <path id="Caminho_4777" data-name="Caminho 4777" d="M251.847,1307.106l8.888-2.259c1.391-.353,1.552.462,1.527.915-.23,4.021,1.66,7.133,4.395,9.531h-5.824a23.374,23.374,0,0,1-9.5-6.014c-.6-.641-.921-1.808.517-2.173Z" transform="translate(-85.537 -97.359)" fill="#4d4d4d" fill-rule="evenodd"/>
    <path id="Caminho_4778" data-name="Caminho 4778" d="M476.524,1169.889h-3.039a.548.548,0,0,0-.547.547v14.817c1.228.1,2.626.239,4.132.429v-15.247a.548.548,0,0,0-.547-.547Z" transform="translate(-221.557 -14.766)" fill="#4d4d4d" fill-rule="evenodd"/>
    <path id="Caminho_4779" data-name="Caminho 4779" d="M498.547,1251.834a15.524,15.524,0,1,0,15.524,15.524,15.524,15.524,0,0,0-15.524-15.524Z" transform="translate(-227.733 -64.948)" fill="#1a1a1a" fill-rule="evenodd"/>
    <path id="Caminho_4780" data-name="Caminho 4780" d="M509.4,1269.563a8.652,8.652,0,1,0,8.652,8.652,8.652,8.652,0,0,0-8.652-8.652Z" transform="translate(-238.591 -75.805)" fill="#999" fill-rule="evenodd"/>
    <path id="Caminho_4781" data-name="Caminho 4781" d="M344.108,1224.144A20.891,20.891,0,1,0,365,1245.034a20.89,20.89,0,0,0-20.891-20.89Z" transform="translate(-129.871 -47.991)" fill="#1a1a1a" fill-rule="evenodd"/>
    <path id="Caminho_4782" data-name="Caminho 4782" d="M356.985,1245.171a12.74,12.74,0,1,0,12.741,12.74,12.74,12.74,0,0,0-12.741-12.74Z" transform="translate(-142.747 -60.867)" fill="#999" fill-rule="evenodd"/>
    <path id="Caminho_4783" data-name="Caminho 4783" d="M417,1221.744c-1.683-9.475-27.572-12.642-34.366-12.642v0a61.469,61.469,0,0,1-.7,18.832H371.184v0a23.567,23.567,0,0,0-40.02-7.54l2.019,1.749a20.9,20.9,0,0,1,35.545,20.49h21.352c-.035-.425-.054-.855-.054-1.29h0c0-.051,0-.1,0-.154a15.524,15.524,0,0,1,27.052-10.4l.209-2.854-.285-6.194Z" transform="translate(-134.737 -38.779)" fill="#851621" fill-rule="evenodd"/>
    <path id="Caminho_4784" data-name="Caminho 4784" d="M399.907,1161.2l-30.62.016-3.211,18.872q.912-.233,1.86-.4c9.164-1.557,24.434,2.926,26.248,18.911h9.136c2.437-12.255.659-24.544-3.414-37.4Z" transform="translate(-156.116 -9.445)" fill="#333" fill-rule="evenodd"/>
    <path id="Caminho_4785" data-name="Caminho 4785" d="M372.182,1151.44a96.744,96.744,0,0,1,30.126,1.185c1.249.157,1.663,2.187.418,2.187l-30.62.016c-1.769,0-2.057-3.136.075-3.387Z" transform="translate(-158.936 -3.056)" fill="#fff" fill-rule="evenodd"/>
    <path id="Caminho_4786" data-name="Caminho 4786" d="M328.967,1218.9c-.527.773-.274,1.792.35,1.3a23.568,23.568,0,0,1,40.348,7.158h1.619c-1.814-15.986-17.084-20.469-26.248-18.911a24.7,24.7,0,0,0-16.069,10.454Z" transform="translate(-133.217 -38.202)" fill="#f54952" fill-rule="evenodd"/>
    <path id="Caminho_4787" data-name="Caminho 4787" d="M562.3,1262.793h-6.031a1.7,1.7,0,0,0-1.7,1.688,15.457,15.457,0,0,1,3.314,9.589H562.3a1.7,1.7,0,0,0,1.7-1.7v-7.881a1.7,1.7,0,0,0-1.7-1.7Z" transform="translate(-271.55 -71.659)" fill="#4d4d4d" fill-rule="evenodd"/>
    <path id="Caminho_4788" data-name="Caminho 4788" d="M517.032,1282.017a3.825,3.825,0,1,0,3.825,3.825,3.825,3.825,0,0,0-3.825-3.825Z" transform="translate(-246.217 -83.431)" fill="#4d4d4d" fill-rule="evenodd"/>
    <path id="Caminho_4789" data-name="Caminho 4789" d="M497.224,1221.744c-1.683-9.475-27.572-12.642-34.366-12.642v0a61.47,61.47,0,0,1-.7,18.832H470.7a20.072,20.072,0,0,1,26.666-3.136l-.141-3.058Z" transform="translate(-214.959 -38.779)" fill="#f54952" fill-rule="evenodd"/>
    <path id="Caminho_4790" data-name="Caminho 4790" d="M491.364,1240.1a20.071,20.071,0,0,0-20.071,20.072h2.253a17.823,17.823,0,0,1,26.179-15.738l1.057-1.99a19.984,19.984,0,0,0-9.418-2.344Z" transform="translate(-220.55 -57.763)" fill="#f54952" fill-rule="evenodd"/>
    <path id="Caminho_4791" data-name="Caminho 4791" d="M477.6,1155.123v-3.366a3.615,3.615,0,0,1,.98-2.525,3.669,3.669,0,0,1,2.026-1.121v-2.333a6.008,6.008,0,0,0-3.711,1.869,5.9,5.9,0,0,0-1.614,4.111v3.366Z" transform="translate(-222.989)" fill="#333"/>
    <path id="Caminho_4792" data-name="Caminho 4792" d="M399.062,1161.208l-13.437.007-1.139,17.5c7,2.174,13.6,7.147,15.469,15.74a2.428,2.428,0,0,0,2.547,2.153h.806a2.6,2.6,0,0,0,2.825-1.959c1.486-9.391-.261-20.834-3.08-30.616-.516-1.788-1.645-2.827-3.99-2.826Zm-15.358.008-4.561,0a3.517,3.517,0,0,0-3.469,2.413l-1.881,11.575c-.273,1.525,1.009,2.176,2.084,2.226a44.032,44.032,0,0,1,6.677.76l1.15-16.976Z" transform="translate(-160.819 -9.45)" fill="#4ea3a0" fill-rule="evenodd"/>
    <path id="Caminho_4793" data-name="Caminho 4793" d="M463.27,1229.283a67.68,67.68,0,0,1-1.107,11.014H470.7a20.09,20.09,0,0,1,22.462-5.417c-8.047-3.437-23.253-5.6-29.891-5.6Z" transform="translate(-214.959 -51.138)" fill="#c43341" fill-rule="evenodd"/>
    <path id="Caminho_4794" data-name="Caminho 4794" d="M402.14,1167.46l-10.157.005-.966,14.834a33.327,33.327,0,0,1,7.057,3.2c.8.567,2.207,1.93,4.3,1.369l7.162-2.849a7.518,7.518,0,0,0-.042-.8,41.716,41.716,0,0,0-3.86-13.286c-.705-1.472-1.442-2.479-3.5-2.478Zm-13.633.007h-1.917a3.085,3.085,0,0,0-3.042,2.116l-1.649,10.15a1.471,1.471,0,0,0,.721,1.638c.812.056,3.582.047,4.931.2l.956-14.1Z" transform="translate(-165.787 -13.278)" fill="#a4eddc" fill-rule="evenodd"/>
    <path id="Caminho_4795" data-name="Caminho 4795" d="M438.964,1261.425H428.395a20.993,20.993,0,0,1,.316,11.806h8.4a2.649,2.649,0,0,0,2.516-2.174l1.173-7.459a1.816,1.816,0,0,0-1.832-2.173Z" transform="translate(-194.28 -70.821)" fill="#333" fill-rule="evenodd"/>
    <path id="Caminho_4796" data-name="Caminho 4796" d="M375.375,1296.656a1.1,1.1,0,1,1-1.1,1.1,1.1,1.1,0,0,1,1.1-1.1Z" transform="translate(-161.138 -92.396)" fill="#4d4d4d" fill-rule="evenodd"/>
    <path id="Caminho_4797" data-name="Caminho 4797" d="M396.829,1275.2a1.1,1.1,0,1,1-1.1,1.1,1.1,1.1,0,0,1,1.1-1.1Z" transform="translate(-174.276 -79.259)" fill="#4d4d4d" fill-rule="evenodd"/>
    <path id="Caminho_4798" data-name="Caminho 4798" d="M352.029,1262.395a9.214,9.214,0,0,1,18.354-1.159A11.463,11.463,0,1,0,359,1271.391c.072,0,.142-.01.214-.011A9.216,9.216,0,0,1,352.029,1262.395Z" transform="translate(-144.76 -62.88)" fill="#7a7a7a" fill-rule="evenodd"/>
    <path id="Caminho_4799" data-name="Caminho 4799" d="M370.078,1266.551a4.453,4.453,0,1,0,4.453,4.453,4.453,4.453,0,0,0-4.453-4.453Z" transform="translate(-155.84 -73.96)" fill="#4d4d4d" fill-rule="evenodd"/>
    <path id="Caminho_4800" data-name="Caminho 4800" d="M375.375,1253.75a1.1,1.1,0,1,1-1.1,1.1,1.1,1.1,0,0,1,1.1-1.1Z" transform="translate(-161.138 -66.121)" fill="#4d4d4d" fill-rule="evenodd"/>
    <path id="Caminho_4801" data-name="Caminho 4801" d="M353.921,1275.2a1.1,1.1,0,1,1-1.1,1.1,1.1,1.1,0,0,1,1.1-1.1Z" transform="translate(-148 -79.259)" fill="#4d4d4d" fill-rule="evenodd"/>
  </g>
</svg>
