<svg xmlns="http://www.w3.org/2000/svg" xmlns:xlink="http://www.w3.org/1999/xlink" width="100.967" height="46.975" viewBox="0 0 100.967 46.975">
  <defs>
    <radialGradient id="radial-gradient" cx="0.5" cy="0.5" r="0.5" gradientTransform="translate(0)" gradientUnits="objectBoundingBox">
      <stop offset="0" stop-color="gray"/>
      <stop offset="0.43" stop-color="#818181"/>
      <stop offset="0.585" stop-color="#888"/>
      <stop offset="0.695" stop-color="#949494"/>
      <stop offset="0.785" stop-color="#a5a5a5"/>
      <stop offset="0.861" stop-color="#bbb"/>
      <stop offset="0.929" stop-color="#d6d6d6"/>
      <stop offset="0.988" stop-color="#f5f5f5"/>
      <stop offset="1" stop-color="#fdfdfd"/>
    </radialGradient>
    <linearGradient id="linear-gradient" x1="0.853" y1="0.853" x2="0.147" y2="0.147" gradientUnits="objectBoundingBox">
      <stop offset="0" stop-color="#dedede"/>
      <stop offset="1" stop-color="#fff"/>
    </linearGradient>
    <linearGradient id="linear-gradient-2" x1="0.853" y1="0.853" x2="0.147" y2="0.147" gradientUnits="objectBoundingBox">
      <stop offset="0" stop-color="#fff"/>
      <stop offset="1" stop-color="#dedede"/>
    </linearGradient>
  </defs>
  <g id="Componente_2_1" data-name="Componente 2 – 1" transform="translate(0.875 0.5)">
    <path id="Caminho_4805" data-name="Caminho 4805" d="M1000.873,498.416H934.4l3.254,5.524-3.369,5.719h66.379c11.359,2.27,19.663,13.015,21.22,25.924l5.974,3.594,5.993-3.594C1032.126,516.137,1018.643,500.893,1000.873,498.416Z" transform="translate(-934.286 -493.286)" fill="none" stroke="#fff" stroke-miterlimit="10" stroke-width="1"/>
    <g id="Grupo_3222" data-name="Grupo 3222" transform="translate(-1023.002 -470.04)">
      <path id="Caminho_4630" data-name="Caminho 4630" d="M235.068,129.007a10.283,10.283,0,1,1,10.283-10.283A10.295,10.295,0,0,1,235.068,129.007Z" transform="translate(836.215 361.599)" fill="#efefef" stroke="#fff" stroke-width="1"/>
      <path id="Caminho_4632" data-name="Caminho 4632" d="M271.54,155.189a7.265,7.265,0,0,0,0,10.262l4.533,4.533c.2.012.4.019.6.019a9.7,9.7,0,0,0,9.684-9.684c0-.2-.007-.4-.019-.6l-4.533-4.534A7.263,7.263,0,0,0,271.54,155.189Z" transform="translate(794.622 320.013)" fill="url(#radial-gradient)" style="mix-blend-mode: multiply;isolation: isolate"/>
      <g id="Grupo_3115" data-name="Grupo 3115" transform="translate(1064.037 473.076)">
        <path id="Caminho_4633" data-name="Caminho 4633" d="M276.617,167.511a7.247,7.247,0,1,1,7.246-7.247A7.255,7.255,0,0,1,276.617,167.511Z" transform="translate(-269.37 -153.017)" fill="url(#linear-gradient)"/>
        <path id="Caminho_4634" data-name="Caminho 4634" d="M281.53,172.064a6.888,6.888,0,1,1,6.887-6.888A6.9,6.9,0,0,1,281.53,172.064Z" transform="translate(-274.283 -157.929)" fill="url(#linear-gradient-2)"/>
      </g>
    </g>
  </g>
</svg>
