<svg xmlns="http://www.w3.org/2000/svg" xmlns:xlink="http://www.w3.org/1999/xlink" width="136.777" height="26.339" viewBox="0 0 136.777 26.339">
  <defs>
    <radialGradient id="radial-gradient" cx="0.5" cy="0.5" r="0.5" gradientTransform="translate(0)" gradientUnits="objectBoundingBox">
      <stop offset="0" stop-color="gray"/>
      <stop offset="0.43" stop-color="#818181"/>
      <stop offset="0.585" stop-color="#888"/>
      <stop offset="0.695" stop-color="#949494"/>
      <stop offset="0.785" stop-color="#a5a5a5"/>
      <stop offset="0.861" stop-color="#bbb"/>
      <stop offset="0.929" stop-color="#d6d6d6"/>
      <stop offset="0.988" stop-color="#f5f5f5"/>
      <stop offset="1" stop-color="#fdfdfd"/>
    </radialGradient>
    <linearGradient id="linear-gradient" x1="0.853" y1="0.853" x2="0.147" y2="0.147" gradientUnits="objectBoundingBox">
      <stop offset="0" stop-color="#dedede"/>
      <stop offset="1" stop-color="#fff"/>
    </linearGradient>
    <linearGradient id="linear-gradient-2" x1="0.853" y1="0.853" x2="0.147" y2="0.147" gradientUnits="objectBoundingBox">
      <stop offset="0" stop-color="#fff"/>
      <stop offset="1" stop-color="#dedede"/>
    </linearGradient>
  </defs>
  <g id="Componente_3_1" data-name="Componente 3 – 1" transform="translate(1.132)">
    <g id="Grupo_3113" data-name="Grupo 3113" transform="translate(-0.001 7.96)">
      <path id="Caminho_4629" data-name="Caminho 4629" d="M972.065,597.424l5.209-5.719-5.032-5.524H842.481l5.032,5.524-5.209,5.719Z" transform="translate(-842.304 -586.181)" fill="#e63027" stroke="#fff" stroke-width="1"/>
    </g>
    <g id="Grupo_3117" data-name="Grupo 3117" transform="translate(-777.674 -407.715)">
      <g id="Grupo_3116" data-name="Grupo 3116" transform="translate(831.715 407.715)">
        <path id="Caminho_4630" data-name="Caminho 4630" d="M237.954,134.78a13.17,13.17,0,1,1,13.17-13.17A13.185,13.185,0,0,1,237.954,134.78Z" transform="translate(-224.785 -108.441)" fill="#fff"/>
        <g id="Grupo_3114" data-name="Grupo 3114" transform="translate(0.751 0.751)">
          <path id="Caminho_4631" data-name="Caminho 4631" d="M245.865,141.941a12.419,12.419,0,1,1,12.419-12.419A12.433,12.433,0,0,1,245.865,141.941Z" transform="translate(-233.446 -117.104)" fill="#fa4a54"/>
        </g>
        <path id="Caminho_4632" data-name="Caminho 4632" d="M272.139,155.788a9.317,9.317,0,0,0,0,13.16l5.814,5.814c.253.015.509.024.766.024a12.433,12.433,0,0,0,12.419-12.419c0-.257-.009-.512-.024-.766l-5.814-5.814A9.315,9.315,0,0,0,272.139,155.788Z" transform="translate(-265.549 -149.198)" fill="url(#radial-gradient)" style="mix-blend-mode: multiply;isolation: isolate"/>
        <g id="Grupo_3115" data-name="Grupo 3115" transform="translate(3.865 3.864)">
          <path id="Caminho_4633" data-name="Caminho 4633" d="M278.675,171.628a9.306,9.306,0,1,1,9.3-9.306A9.316,9.316,0,0,1,278.675,171.628Z" transform="translate(-269.37 -153.017)" fill="url(#linear-gradient)"/>
          <path id="Caminho_4634" data-name="Caminho 4634" d="M283.49,175.985a8.849,8.849,0,1,1,8.847-8.849A8.859,8.859,0,0,1,283.49,175.985Z" transform="translate(-274.185 -157.831)" fill="url(#linear-gradient-2)"/>
        </g>
      </g>
    </g>
  </g>
</svg>
