<svg xmlns="http://www.w3.org/2000/svg" xmlns:xlink="http://www.w3.org/1999/xlink" width="360.001" height="498.269" viewBox="0 0 360.001 498.269">
  <defs>
    <clipPath id="clip-path">
      <path id="Caminho_4637" data-name="Caminho 4637" d="M384.834,124.383c-69.624,0-66.2,22.586-174.62,22.586s-185.38,23.98-185.38,23.98V462.915h360Z" transform="translate(-24.834 -124.383)" fill="#a56146"/>
    </clipPath>
    <linearGradient id="linear-gradient" x1="0.372" y1="-0.805" x2="0.496" y2="0.666" gradientUnits="objectBoundingBox">
      <stop offset="0" stop-color="#cfc12c"/>
      <stop offset="1" stop-color="#82760a"/>
    </linearGradient>
    <linearGradient id="linear-gradient-2" x1="0.402" y1="0.035" x2="0.555" y2="0.755" xlink:href="#linear-gradient"/>
    <linearGradient id="linear-gradient-3" x1="0.471" y1="0.836" x2="0.558" y2="-0.11" gradientUnits="objectBoundingBox">
      <stop offset="0" stop-color="#fcefd2" stop-opacity="0"/>
      <stop offset="0.024" stop-color="#fcf0d5" stop-opacity="0.071"/>
      <stop offset="0.094" stop-color="#fcf3dd" stop-opacity="0.267"/>
      <stop offset="0.17" stop-color="#fdf6e5" stop-opacity="0.439"/>
      <stop offset="0.25" stop-color="#fdf8ec" stop-opacity="0.592"/>
      <stop offset="0.335" stop-color="#fefaf2" stop-opacity="0.718"/>
      <stop offset="0.426" stop-color="#fefcf6" stop-opacity="0.82"/>
      <stop offset="0.525" stop-color="#fefdfa" stop-opacity="0.902"/>
      <stop offset="0.637" stop-color="#fefefd" stop-opacity="0.957"/>
      <stop offset="0.774" stop-color="#fefefe" stop-opacity="0.988"/>
      <stop offset="1" stop-color="#fff"/>
    </linearGradient>
    <linearGradient id="linear-gradient-4" y1="0.5" x2="2.041" y2="0.5" gradientUnits="objectBoundingBox">
      <stop offset="0" stop-color="#fffbd1"/>
      <stop offset="1" stop-color="#fcefd2" stop-opacity="0.502"/>
    </linearGradient>
    <linearGradient id="linear-gradient-5" x1="0.729" y1="1.608" x2="0.543" y2="0.806" gradientUnits="objectBoundingBox">
      <stop offset="0" stop-color="#6e4732"/>
      <stop offset="1" stop-color="#82760a"/>
    </linearGradient>
    <linearGradient id="linear-gradient-6" x1="0.878" y1="1.05" x2="0.201" y2="0.257" xlink:href="#linear-gradient-5"/>
    <linearGradient id="linear-gradient-7" x1="1.069" y1="1.274" x2="0.163" y2="0.213" xlink:href="#linear-gradient-5"/>
  </defs>
  <g id="Componente_3_1" data-name="Componente 3 – 1" transform="translate(0)">
    <rect id="Retângulo_2818" data-name="Retângulo 2818" width="359.779" height="245.859" transform="translate(0.011)" fill="#b0e5e6"/>
    <g id="Grupo_3214" data-name="Grupo 3214" transform="translate(-24.833 -3.884)">
      <g id="Grupo_3161" data-name="Grupo 3161" transform="translate(24.834 151.594)">
        <path id="Caminho_4636" data-name="Caminho 4636" d="M384.834,184.156h-360v350.56h360Z" transform="translate(-24.834 -184.156)" fill="#984929"/>
        <g id="Grupo_3160" data-name="Grupo 3160" transform="translate(0 12.028)" clip-path="url(#clip-path)">
          <g id="Grupo_3159" data-name="Grupo 3159" transform="translate(-95.007 -22.995)">
            <g id="Grupo_3130" data-name="Grupo 3130" transform="translate(0 0)">
              <path id="Caminho_4639" data-name="Caminho 4639" d="M38.839,1.213,43.155.537,9.421,384.136l-4.316.677Z" transform="translate(0 7.646) rotate(-10.917)" fill="#8c4a33"/>
            </g>
            <g id="Grupo_3131" data-name="Grupo 3131" transform="translate(15.095 0)">
              <path id="Caminho_4640" data-name="Caminho 4640" d="M38.837,1.213,43.153.537,9.421,384.136l-4.316.676Z" transform="translate(0 7.645) rotate(-10.916)" fill="#8c4a33"/>
            </g>
            <g id="Grupo_3132" data-name="Grupo 3132" transform="translate(30.188 0)">
              <path id="Caminho_4641" data-name="Caminho 4641" d="M38.837,1.213,43.153.537,9.421,384.137l-4.316.676Z" transform="matrix(0.982, -0.189, 0.189, 0.982, 0, 7.645)" fill="#8c4a33"/>
            </g>
            <g id="Grupo_3133" data-name="Grupo 3133" transform="translate(45.279 0)">
              <path id="Caminho_4642" data-name="Caminho 4642" d="M38.838,1.213,43.154.537,9.421,384.137l-4.316.677Z" transform="translate(0 7.645) rotate(-10.917)" fill="#8c4a33"/>
            </g>
            <g id="Grupo_3134" data-name="Grupo 3134" transform="translate(60.371 0)">
              <path id="Caminho_4643" data-name="Caminho 4643" d="M38.838,1.213,43.154.537,9.421,384.136l-4.316.677Z" transform="translate(0 7.645) rotate(-10.917)" fill="#8c4a33"/>
            </g>
            <g id="Grupo_3135" data-name="Grupo 3135" transform="translate(75.466 0)">
              <path id="Caminho_4644" data-name="Caminho 4644" d="M38.837,1.213,43.153.537,9.421,384.136l-4.316.676Z" transform="translate(0 7.645) rotate(-10.916)" fill="#8c4a33"/>
            </g>
            <g id="Grupo_3136" data-name="Grupo 3136" transform="translate(90.558 0)">
              <path id="Caminho_4645" data-name="Caminho 4645" d="M38.838,1.213,43.153.537,9.421,384.136l-4.316.676Z" transform="translate(0 7.645) rotate(-10.916)" fill="#8c4a33"/>
            </g>
            <g id="Grupo_3137" data-name="Grupo 3137" transform="translate(105.651 0)">
              <path id="Caminho_4646" data-name="Caminho 4646" d="M38.837,1.213,43.152.537,9.421,384.137l-4.316.676Z" transform="translate(0 7.645) rotate(-10.916)" fill="#8c4a33"/>
            </g>
            <g id="Grupo_3138" data-name="Grupo 3138" transform="translate(120.743 0)">
              <path id="Caminho_4647" data-name="Caminho 4647" d="M38.837,1.213,43.153.537,9.421,384.136l-4.316.676Z" transform="translate(0 7.645) rotate(-10.916)" fill="#8c4a33"/>
            </g>
            <g id="Grupo_3139" data-name="Grupo 3139" transform="translate(135.833 0)">
              <path id="Caminho_4648" data-name="Caminho 4648" d="M38.839,1.213,43.155.537,9.421,384.136l-4.315.677Z" transform="translate(0 7.646) rotate(-10.917)" fill="#8c4a33"/>
            </g>
            <g id="Grupo_3140" data-name="Grupo 3140" transform="translate(150.927 0)">
              <path id="Caminho_4649" data-name="Caminho 4649" d="M38.838,1.213,43.154.537,9.421,384.136l-4.315.676Z" transform="translate(0 7.645) rotate(-10.917)" fill="#8c4a33"/>
            </g>
            <g id="Grupo_3141" data-name="Grupo 3141" transform="translate(166.02 0)">
              <path id="Caminho_4650" data-name="Caminho 4650" d="M38.837,1.213,43.153.537,9.421,384.136l-4.316.676Z" transform="translate(0 7.645) rotate(-10.916)" fill="#8c4a33"/>
            </g>
            <g id="Grupo_3142" data-name="Grupo 3142" transform="translate(181.111 0)">
              <path id="Caminho_4651" data-name="Caminho 4651" d="M38.838,1.213,43.154.537,9.421,384.137l-4.316.677Z" transform="translate(0 7.645) rotate(-10.917)" fill="#8c4a33"/>
            </g>
            <g id="Grupo_3143" data-name="Grupo 3143" transform="translate(196.207 0)">
              <path id="Caminho_4652" data-name="Caminho 4652" d="M38.838,1.213,43.153.537,9.421,384.137l-4.315.676Z" transform="translate(0 7.645) rotate(-10.916)" fill="#8c4a33"/>
            </g>
            <g id="Grupo_3144" data-name="Grupo 3144" transform="translate(211.298 0)">
              <path id="Caminho_4653" data-name="Caminho 4653" d="M38.838,1.213,43.154.537,9.421,384.136l-4.316.677Z" transform="translate(0 7.645) rotate(-10.917)" fill="#8c4a33"/>
            </g>
            <g id="Grupo_3145" data-name="Grupo 3145" transform="translate(226.39 0)">
              <path id="Caminho_4654" data-name="Caminho 4654" d="M38.838,1.213,43.154.537,9.421,384.136l-4.315.676Z" transform="translate(0 7.645) rotate(-10.917)" fill="#8c4a33"/>
            </g>
            <g id="Grupo_3146" data-name="Grupo 3146" transform="translate(241.483 0)">
              <path id="Caminho_4655" data-name="Caminho 4655" d="M38.838,1.213,43.154.537,9.421,384.136l-4.316.677Z" transform="translate(0 7.645) rotate(-10.917)" fill="#8c4a33"/>
            </g>
            <g id="Grupo_3147" data-name="Grupo 3147" transform="translate(256.578 0)">
              <path id="Caminho_4656" data-name="Caminho 4656" d="M38.837,1.213,43.153.537,9.42,384.136l-4.315.676Z" transform="translate(0 7.645) rotate(-10.916)" fill="#8c4a33"/>
            </g>
            <g id="Grupo_3148" data-name="Grupo 3148" transform="translate(271.669 0)">
              <path id="Caminho_4657" data-name="Caminho 4657" d="M38.838,1.213,43.153.537,9.42,384.137l-4.315.676Z" transform="translate(0 7.645) rotate(-10.916)" fill="#8c4a33"/>
            </g>
            <g id="Grupo_3149" data-name="Grupo 3149" transform="translate(286.76 0)">
              <path id="Caminho_4658" data-name="Caminho 4658" d="M38.838,1.213,43.154.537,9.421,384.136l-4.316.677Z" transform="translate(0 7.645) rotate(-10.917)" fill="#8c4a33"/>
            </g>
            <g id="Grupo_3150" data-name="Grupo 3150" transform="translate(301.855 0)">
              <path id="Caminho_4659" data-name="Caminho 4659" d="M38.837,1.213,43.153.537,9.421,384.136l-4.316.676Z" transform="translate(0 7.645) rotate(-10.916)" fill="#8c4a33"/>
            </g>
            <g id="Grupo_3151" data-name="Grupo 3151" transform="translate(316.948 0)">
              <path id="Caminho_4660" data-name="Caminho 4660" d="M38.837,1.213,43.153.537,9.421,384.137l-4.316.676Z" transform="translate(0 7.645) rotate(-10.916)" fill="#8c4a33"/>
            </g>
            <g id="Grupo_3152" data-name="Grupo 3152" transform="translate(332.04 0)">
              <path id="Caminho_4661" data-name="Caminho 4661" d="M38.838,1.213,43.154.537,9.421,384.137l-4.316.676Z" transform="translate(0 7.645) rotate(-10.916)" fill="#8c4a33"/>
            </g>
            <g id="Grupo_3153" data-name="Grupo 3153" transform="translate(347.13 0)">
              <path id="Caminho_4662" data-name="Caminho 4662" d="M38.839,1.213,43.155.537,9.421,384.137l-4.315.677Z" transform="translate(0 7.646) rotate(-10.917)" fill="#8c4a33"/>
            </g>
            <g id="Grupo_3154" data-name="Grupo 3154" transform="translate(362.225 0)">
              <path id="Caminho_4663" data-name="Caminho 4663" d="M38.837,1.214,43.154.537,9.421,384.136l-4.316.677Z" transform="translate(0 7.645) rotate(-10.916)" fill="#8c4a33"/>
            </g>
            <g id="Grupo_3155" data-name="Grupo 3155" transform="translate(377.316 0)">
              <path id="Caminho_4664" data-name="Caminho 4664" d="M38.838,1.214,43.155.537,9.422,384.136l-4.316.677Z" transform="translate(0 7.645) rotate(-10.917)" fill="#8c4a33"/>
            </g>
            <g id="Grupo_3156" data-name="Grupo 3156" transform="translate(392.411 0)">
              <path id="Caminho_4665" data-name="Caminho 4665" d="M38.837,1.213,43.152.537,9.42,384.137l-4.315.676Z" transform="matrix(0.982, -0.189, 0.189, 0.982, 0, 7.645)" fill="#8c4a33"/>
            </g>
            <g id="Grupo_3157" data-name="Grupo 3157" transform="translate(407.504 0)">
              <path id="Caminho_4666" data-name="Caminho 4666" d="M38.837,1.213,43.152.537,9.42,384.137l-4.315.676Z" transform="translate(0 7.645) rotate(-10.916)" fill="#8c4a33"/>
            </g>
            <g id="Grupo_3158" data-name="Grupo 3158" transform="translate(422.593 0)">
              <path id="Caminho_4667" data-name="Caminho 4667" d="M38.839,1.213,43.155.537,9.421,384.136l-4.315.677Z" transform="translate(0 7.646) rotate(-10.917)" fill="#8c4a33"/>
            </g>
          </g>
        </g>
      </g>
      <path id="Caminho_4638" data-name="Caminho 4638" d="M379.9,489.867H24.767L19.9,176.619s47.017,2.651,75.263-9.761,79-4.759,119.5-10.355,67.458,15.131,83.164,0,45.009-21.175,82.071-21.175Z" transform="translate(4.931 12.286)" fill="#fff" opacity="0.078"/>
    </g>
    <g id="Grupo_3191" data-name="Grupo 3191" transform="translate(0.001 109.191)">
      <path id="Caminho_4757" data-name="Caminho 4757" d="M147.07,597.576H.01V580.224c.343-.308.69-.616,1.036-.918.322-.285.647-.564.973-.837.035-.035.071-.064.11-.1.021-.017.046-.035.071-.052l.007-.011q3-2.529,6.174-4.714c.325-.227.651-.448.979-.669q1.475-.985,2.981-1.9t3.052-1.761c.343-.186.686-.372,1.032-.552,0,.006-.007.006-.011.011q2.451-1.3,4.968-2.424c.573-.256,1.153-.506,1.733-.75.661-.273,1.33-.547,2-.8.477-.186.955-.366,1.436-.541q.313-.122.626-.227c.52-.186,1.04-.366,1.563-.54.011-.006.018-.006.028-.012,1.552-.523,3.126-1,4.71-1.43q1.724-.48,3.472-.872c0,.006.011,0,.014,0q1.745-.4,3.515-.726,2.254-.419,4.533-.715c.562-.076,1.128-.145,1.694-.209.11-.011.223-.029.332-.041.456-.052.912-.1,1.368-.145.414-.035.827-.075,1.245-.11.191-.017.378-.029.569-.047l1.241-.087q2.652-.174,5.332-.192c.707-.006,1.418-.006,2.129.006l1.054.017c.177.006.354.012.53.012q1.236.043,2.475.1c1.316.064,2.642.169,3.964.291l0-.006c.29.023.576.052.866.081.251.023.506.047.757.076q.774.079,1.549.174c.29.035.58.07.87.111.456.052.912.116,1.368.18q2.122.3,4.243.68l0-.006q1.485.27,2.977.575c.9.186,1.793.384,2.691.593.018.006.035.006.053.012,1.4.324,2.809.687,4.215,1.069l0,0,1.453.4c.47.134.941.268,1.411.407a1.055,1.055,0,0,0,.127.041c.456.134.909.273,1.365.413.485.151.965.3,1.45.459,1.423.454,2.841.951,4.259,1.468l0,0c.417.145.835.3,1.252.459s.835.314,1.248.471l1.248.488c.417.169.835.337,1.248.506q2.323.95,4.629,2.005,1.888.846,3.759,1.773c.421.209.845.419,1.266.634h0q1.952.977,3.883,2.034c.29.157.58.314.866.477.237.128.474.256.711.389.131.07.258.145.389.221a.677.677,0,0,1,.088.046c.538.3,1.078.616,1.613.924.085.052.173.1.258.151q2.132,1.247,4.251,2.575c.551.349,1.107.7,1.658,1.058l1.513.994c.046.029.092.064.138.093q2.588,1.726,5.131,3.581c.011.006.025.017.035.023.491.361.983.727,1.474,1.093s1,.756,1.5,1.139l-.007.011q2.806,2.154,5.552,4.459c.707.593,1.408,1.192,2.108,1.8.209.18.417.355.626.535C144.41,595.129,145.747,596.332,147.07,597.576Z" transform="translate(-0.01 -558.845)" fill="#f0b684" fill-rule="evenodd"/>
      <path id="Caminho_4758" data-name="Caminho 4758" d="M132.03,601.945H.01V585.472c.308-.293.619-.585.93-.872.289-.27.581-.535.873-.795.032-.033.063-.061.1-.094.019-.017.041-.033.064-.05l.006-.011a70.669,70.669,0,0,1,5.543-4.476c.292-.215.584-.425.879-.635q1.324-.935,2.676-1.8t2.74-1.672c.308-.177.616-.353.927-.524,0,.005-.006.005-.009.011q2.2-1.233,4.46-2.3c.514-.243,1.035-.48,1.556-.712.594-.259,1.194-.519,1.8-.762.429-.176.857-.348,1.289-.513q.281-.116.562-.215.7-.265,1.4-.513c.01-.005.016-.005.025-.011q2.091-.745,4.228-1.358,1.548-.455,3.117-.828c0,.006.009,0,.013,0,1.044-.254,2.1-.486,3.155-.69q2.024-.4,4.07-.679c.5-.072,1.013-.138,1.521-.2.1-.011.2-.028.3-.039.41-.05.819-.094,1.229-.138.371-.033.743-.072,1.117-.105.172-.016.34-.028.511-.044l1.114-.083q2.381-.166,4.787-.182c.635-.005,1.273-.005,1.911.005l.946.017c.159.005.317.011.476.011q1.109.041,2.222.1c1.181.06,2.371.16,3.559.276l0-.006c.26.022.517.05.778.077.225.022.454.044.679.072q.7.074,1.39.165c.26.033.521.066.781.105.41.05.819.11,1.229.171q1.9.282,3.81.646l0-.006q1.334.257,2.673.546c.806.177,1.609.364,2.416.563.016.006.032.006.047.011,1.26.308,2.522.652,3.784,1.014l0,0,1.3.381c.422.127.845.254,1.267.386a.921.921,0,0,0,.114.038c.41.127.816.26,1.225.392.435.144.867.287,1.3.436,1.277.431,2.55.9,3.823,1.394l0,0c.375.138.749.287,1.124.436s.749.3,1.121.447l1.121.464c.375.16.749.32,1.121.48q2.086.9,4.156,1.9,1.7.8,3.374,1.683c.378.2.759.4,1.137.6h0q1.752.927,3.486,1.931c.26.149.521.3.778.453.213.122.426.243.638.37.117.066.232.138.349.21a.593.593,0,0,1,.079.044c.482.287.968.585,1.448.878.076.05.156.094.232.143,1.276.789,2.549,1.6,3.816,2.445.5.331.994.668,1.489,1l1.359.944c.041.028.083.061.124.088q2.324,1.639,4.606,3.4c.009.006.022.017.032.022.441.342.883.69,1.324,1.038s.9.717,1.349,1.082l-.006.011q2.519,2.045,4.984,4.233c.635.563,1.264,1.131,1.892,1.711.187.171.374.337.562.508C129.643,599.621,130.843,600.764,132.03,601.945Z" transform="translate(-0.01 -563.214)" fill="#c9996e" fill-rule="evenodd"/>
      <path id="Caminho_4759" data-name="Caminho 4759" d="M2.076,578.37c-.038.035-.072.064-.107.1-.317.273-.635.552-.949.837-.338.3-.676.61-1.011.924v1.221a33.117,33.117,0,0,1,2.135-3.133l.007-.011C2.128,578.329,2.1,578.346,2.076,578.37Zm56.956-19.485c-.172,0-.345-.006-.517-.012l-1.028-.017c-.693-.012-1.387-.012-2.077-.006a48.617,48.617,0,0,0-4.388,8.912,91.687,91.687,0,0,0-5.771,29.815h2.888a82.164,82.164,0,0,1,5.2-26.5c2.546-6.621,5.572-11.283,8.107-12.085Q60.237,558.928,59.033,558.884Zm10.229.831c-.283-.041-.566-.076-.849-.111q-.756-.1-1.511-.174c-.245-.029-.493-.052-.738-.076-.283-.029-.562-.058-.845-.081l0,.006a47.655,47.655,0,0,0-4.371,8.911,90.884,90.884,0,0,0-5.682,29.35v.035H58.15a81.488,81.488,0,0,1,5.123-26.095c2.336-6.1,5.047-10.51,7.324-11.586C70.152,559.832,69.707,559.768,69.262,559.716Zm11.008,2.023c-.876-.209-1.749-.407-2.625-.593q-1.454-.305-2.9-.575l0,.006a37.778,37.778,0,0,0-4.078,8.028,88.847,88.847,0,0,0-5.251,25.351c-.076,1.2-.121,2.407-.141,3.622h2.887c.021-.977.062-1.971.124-2.988a79.613,79.613,0,0,1,4.7-22.671c2.149-5.586,4.764-9.545,7.345-10.167C80.3,561.744,80.287,561.744,80.27,561.739Zm8.417,2.337c-.445-.139-.886-.279-1.332-.413a1.012,1.012,0,0,1-.124-.041c-.459-.14-.918-.273-1.377-.407l-1.418-.4a33.673,33.673,0,0,0-4.588,8.83,82.189,82.189,0,0,0-4.557,24.926c-.007.337-.014.668-.021,1.006h2.888c.007-.238.01-.477.017-.721A72.392,72.392,0,0,1,82.2,574.876c2.132-5.778,4.912-9.888,7.9-10.341C89.629,564.378,89.16,564.227,88.688,564.075Zm9.228,3.343-1.218-.488c-.4-.157-.811-.32-1.218-.471s-.814-.314-1.221-.459a34.249,34.249,0,0,0-4.133,7.708,71.938,71.938,0,0,0-4.781,22.206c-.028.558-.048,1.11-.059,1.663h2.888c.01-.378.024-.756.045-1.134a62.508,62.508,0,0,1,4.192-19.334c2.015-5.017,4.457-8.632,6.724-9.184C98.73,567.755,98.323,567.586,97.916,567.418Zm9.4,4.284c-1.218-.61-2.442-1.2-3.667-1.773a28.822,28.822,0,0,0-3.726,6.406,58.856,58.856,0,0,0-4.54,19.1q-.073,1.063-.093,2.145h2.895c.014-.489.038-.977.069-1.471a49.815,49.815,0,0,1,3.878-16.172c1.911-4.348,4.2-7.348,6.227-7.586.066-.006.128-.012.193-.012C108.141,572.121,107.727,571.911,107.317,571.7Zm8.6,4.726c-.552-.326-1.1-.651-1.659-.971-.355-.209-.714-.413-1.073-.61-.279-.169-.559-.325-.842-.482l0,.006a30.311,30.311,0,0,0-2.656,4.749,51.528,51.528,0,0,0-4.264,16.439c-.055.674-.1,1.349-.121,2.017h2.9c.017-.384.041-.762.072-1.145a42.736,42.736,0,0,1,3.588-13.62c1.4-3.087,2.97-5.4,4.312-6.232C116.089,576.527,116,576.48,115.921,576.428Zm7.493,4.778-1.477-.994c-.538-.355-1.08-.709-1.618-1.058-.207.366-.407.744-.6,1.134a44.572,44.572,0,0,0-4.136,15.085c-.076.727-.134,1.459-.176,2.2h2.915c.028-.384.062-.762.1-1.134a36.353,36.353,0,0,1,3.364-12.271,17.76,17.76,0,0,1,1.766-2.871C123.5,581.27,123.458,581.236,123.413,581.206Zm6.613,4.79c-.479-.366-.959-.732-1.438-1.093-.01-.006-.024-.017-.035-.023a35.935,35.935,0,0,0-2.912,10.708q-.119.985-.2,1.988h2.932c.024-.244.048-.483.079-.721A26.742,26.742,0,0,1,131,588c.159-.3.324-.587.49-.855l.007-.011C131.007,586.752,130.517,586.374,130.027,586Zm6.879,5.6c0,.006,0,.006,0,.011a31.1,31.1,0,0,0-1.321,5.767c-.01.07-.021.134-.028.2h3.012a21.785,21.785,0,0,1,1-3.633C138.686,593.146,137.8,592.368,136.906,591.594ZM49,559.128c-.186.017-.369.029-.555.047-.407.035-.811.076-1.214.11-.445.047-.89.093-1.335.145-.107.012-.217.029-.324.041-.552.064-1.1.134-1.652.209a54.733,54.733,0,0,0-4.378,9.72,97.234,97.234,0,0,0-5.189,28.176h2.887a87.679,87.679,0,0,1,4.7-25.054c2.518-7.191,5.6-12.428,8.273-13.481Zm-12.933,1.994s-.01.006-.014,0q-1.7.41-3.388.872a58.228,58.228,0,0,0-3.943,8.789,93.408,93.408,0,0,0-5.268,26.793h2.894a84.136,84.136,0,0,1,4.75-23.607c2.536-7.034,5.654-12.271,8.4-13.573Q37.77,560.718,36.064,561.122Zm-8.024,2.314c-.511.174-1.018.355-1.525.54q-.305.105-.611.227c-.469.174-.935.354-1.4.541-.656.255-1.308.529-1.953.8-.566.244-1.132.494-1.69.75a59.411,59.411,0,0,0-3.008,6.72,85.294,85.294,0,0,0-5.289,24.56h2.908a76.18,76.18,0,0,1,4.709-21.264c2.353-6.185,5.223-11.01,7.886-12.888C28.057,563.43,28.05,563.43,28.04,563.436Zm-13.023,5.825q-1.5.846-2.977,1.761t-2.908,1.9c-.321.221-.638.442-.955.669q-.611,1.282-1.18,2.645a73.388,73.388,0,0,0-5.3,21.34H4.633a64.82,64.82,0,0,1,4.616-17.852c2-4.8,4.4-8.784,6.765-11,0-.006.007-.006.01-.011C15.686,568.888,15.351,569.075,15.017,569.261Z" transform="translate(-0.01 -558.845)" fill="#b8885e"/>
      <path id="Caminho_4760" data-name="Caminho 4760" d="M13.818,575.09q-1.38.8-2.737,1.668T8.4,578.567c-.3.209-.588.418-.88.633-.057.041-.114.081-.168.122q-.277.645-.547,1.308a75.034,75.034,0,0,0-5.161,21.34H4.51A66.242,66.242,0,0,1,9,584.118a40.879,40.879,0,0,1,4.9-9.074A.658.658,0,0,0,13.818,575.09ZM24.4,570.074c-.185.064-.373.14-.561.215-.433.163-.86.337-1.289.512-.6.244-1.2.506-1.8.761-.379.169-.762.343-1.138.523-.786,1.645-1.538,3.43-2.236,5.325a87.294,87.294,0,0,0-5.148,24.56H15.06a77.951,77.951,0,0,1,4.584-21.264,39.962,39.962,0,0,1,5.742-10.992C25.057,569.83,24.728,569.952,24.4,570.074Zm8.788-2.709s-.01.006-.013,0c-.732.174-1.461.36-2.186.57a62.42,62.42,0,0,0-3.032,7.243,95.652,95.652,0,0,0-5.128,26.793h2.817a86.14,86.14,0,0,1,4.624-23.607c1.79-5.1,3.882-9.26,5.913-11.655C35.178,566.9,34.177,567.121,33.187,567.365ZM46.2,565.389c-.369.029-.742.052-1.115.081-.171.018-.339.029-.51.047-.373.029-.745.07-1.118.1q-.615.061-1.229.14c-.1.006-.2.023-.3.035l-.131.017a60.359,60.359,0,0,0-3.318,7.982,99.615,99.615,0,0,0-5.05,28.176h2.811a89.815,89.815,0,0,1,4.574-25.054c1.736-5.1,3.751-9.208,5.7-11.545C46.414,565.371,46.31,565.383,46.2,565.389Zm85.752,36.506c0,.023-.007.052-.01.076h.084A1,1,0,0,1,131.954,601.895Zm-5.977-5.592q-1.269-1.133-2.552-2.22a41.52,41.52,0,0,0-1.128,5.9q-.116.985-.191,1.988h2.854c.023-.244.047-.483.077-.721a31.436,31.436,0,0,1,.974-4.918C126,596.32,125.987,596.314,125.977,596.3Zm-10.719-8.661a48.476,48.476,0,0,0-2.757,12.126c-.074.727-.131,1.459-.171,2.2h2.837c.027-.384.061-.762.1-1.134a38.274,38.274,0,0,1,2.754-11.132Q116.644,588.65,115.259,587.641ZM107.33,582.3c-.191.389-.379.8-.564,1.209a52.652,52.652,0,0,0-4.15,16.439c-.054.674-.094,1.349-.117,2.017h2.821c.017-.384.04-.762.071-1.145a43.652,43.652,0,0,1,3.492-13.62,30.826,30.826,0,0,1,1.491-2.947C109.362,583.583,108.348,582.938,107.33,582.3Zm-7.438-4.3h0c-.343-.186-.692-.367-1.038-.547a36.175,36.175,0,0,0-1.588,3.267,60.177,60.177,0,0,0-4.419,19.1q-.07,1.064-.091,2.145h2.817c.013-.489.037-.977.067-1.471a50.941,50.941,0,0,1,3.774-16.172,25.5,25.5,0,0,1,2.78-5.063C101.431,578.834,100.662,578.415,99.893,578.009Zm-8.67-4.191c-.369-.157-.745-.32-1.118-.477-.054-.023-.1-.047-.158-.064a41.982,41.982,0,0,0-2.22,4.825,73.629,73.629,0,0,0-4.654,22.206c-.027.558-.047,1.11-.057,1.663h2.811c.01-.378.024-.756.044-1.134A63.96,63.96,0,0,1,89.95,581.5a29.2,29.2,0,0,1,3.489-6.691C92.7,574.468,91.961,574.137,91.222,573.817ZM82.911,570.6c-.433-.151-.866-.29-1.3-.436-.369-.122-.739-.244-1.108-.355a41.3,41.3,0,0,0-2.78,6.226,84.2,84.2,0,0,0-4.436,24.927c-.007.337-.013.668-.02,1.006h2.811c.007-.238.01-.477.017-.721a74.168,74.168,0,0,1,3.919-21.979,26.315,26.315,0,0,1,4.322-8.167C83.862,570.928,83.388,570.765,82.911,570.6Zm-9-2.645c-.013-.006-.03-.006-.047-.011-.806-.2-1.608-.384-2.414-.558a1.294,1.294,0,0,0-.148-.029A44.659,44.659,0,0,0,68.778,573a90.959,90.959,0,0,0-5.111,25.351c-.074,1.2-.117,2.407-.138,3.622H66.34c.02-.977.061-1.971.121-2.988a81.494,81.494,0,0,1,4.574-22.671,28.7,28.7,0,0,1,4.221-8.01C74.809,568.179,74.359,568.068,73.912,567.958ZM64.963,566.2c-.41-.058-.819-.116-1.229-.169-.259-.041-.52-.07-.779-.1-.212-.029-.426-.052-.638-.081a54.1,54.1,0,0,0-3,6.743,93.067,93.067,0,0,0-5.531,29.35v.035H56.6a83.438,83.438,0,0,1,4.986-26.1,37.644,37.644,0,0,1,4.8-9.446C65.91,566.342,65.436,566.266,64.963,566.2Zm-8.418-.86c-.742-.035-1.481-.07-2.223-.1-.158,0-.316-.006-.473-.011-.319-.006-.635-.012-.947-.012H52.78a54.943,54.943,0,0,0-3.116,6.941,93.887,93.887,0,0,0-5.618,29.815h2.811a84.122,84.122,0,0,1,5.064-26.5,35.759,35.759,0,0,1,5.319-10.092C57.008,565.365,56.776,565.348,56.545,565.336ZM.01,585.5v.349c.161-.273.326-.541.49-.808C.336,585.188.171,585.345.01,585.5Z" transform="translate(-0.01 -563.239)" fill="#a87c56"/>
    </g>
    <g id="Grupo_3192" data-name="Grupo 3192" transform="translate(0 99.327)">
      <ellipse id="Elipse_74" data-name="Elipse 74" cx="3.29" cy="3.29" rx="3.29" ry="3.29" transform="translate(88.76 16.147)" fill="#82760a"/>
      <ellipse id="Elipse_75" data-name="Elipse 75" cx="5.521" cy="5.521" rx="5.521" ry="5.521" transform="translate(93.203 13.915)" fill="#82760a"/>
      <path id="Caminho_4761" data-name="Caminho 4761" d="M2.388,502.566c.042-.025.084-.046.13-.071.025-.013.055-.025.084-.038l.009-.008q3.561-1.828,7.336-3.407c.387-.164.773-.324,1.164-.483q1.752-.712,3.542-1.374t3.626-1.273c.408-.134.815-.269,1.227-.4,0,0-.009,0-.013.008q2.912-.939,5.9-1.752c.681-.185,1.37-.365,2.059-.542.786-.2,1.58-.4,2.378-.58.567-.135,1.135-.265,1.706-.391q.372-.088.744-.164c.618-.134,1.235-.265,1.857-.391.013,0,.021,0,.034-.009,1.844-.378,3.714-.723,5.6-1.033q2.048-.347,4.126-.63s.013,0,.017,0c1.382-.193,2.777-.37,4.176-.525q2.679-.3,5.387-.517c.668-.055,1.34-.1,2.013-.151.13-.008.265-.021.395-.029.542-.038,1.084-.072,1.626-.105.492-.025.983-.054,1.479-.08.227-.013.45-.021.677-.034l1.475-.063q3.151-.126,6.336-.139c.84,0,1.685,0,2.529,0l1.252.013c.21,0,.42.009.63.009.235,0,.471.013.705.018a5.547,5.547,0,0,0,2.668-1.875,5.571,5.571,0,0,0,2.375,2.045q.951.045,1.9.1l0,0c.344.017.685.038,1.029.059.3.017.6.034.9.055l.2.014a5.55,5.55,0,1,0-6.151-8.64,5.521,5.521,0,0,0-6.765-2.088,3.459,3.459,0,0,0,.093-.786,3.68,3.68,0,0,0-3.744-3.613,3.775,3.775,0,0,0-2.924,1.366,4.54,4.54,0,0,0-5-.408,6.527,6.527,0,0,0-11.386-2,5.155,5.155,0,0,0-7.181,2.659,5.155,5.155,0,0,0-3.769-.034,7.846,7.846,0,0,0-12.609-1.139,8.891,8.891,0,0,0-8.26-1.7A11.665,11.665,0,0,0,0,469.089v34.747c.408-.222.819-.445,1.231-.664C1.614,502.966,2,502.764,2.388,502.566Z" transform="translate(-0.001 -468.034)" fill="url(#linear-gradient)"/>
      <path id="Caminho_4762" data-name="Caminho 4762" d="M213.335,535.062a3.487,3.487,0,0,0-2.182.793,4.134,4.134,0,0,0-4.044-2.656,5.662,5.662,0,0,0-5.541,4.607,4.025,4.025,0,0,0,4.231,4.607,5.81,5.81,0,0,0,4.8-2.653,2.643,2.643,0,0,0,1.95.789,3.4,3.4,0,0,0,3.336-2.744A2.407,2.407,0,0,0,213.335,535.062Z" transform="translate(-156.366 -518.596)" fill="#cfc12c" fill-rule="evenodd"/>
      <path id="Caminho_4763" data-name="Caminho 4763" d="M42.471,542.685a5.851,5.851,0,0,1-5.643,4.92,4.534,4.534,0,0,1-2.217-.555,3.173,3.173,0,0,0-3.077.072,3.725,3.725,0,0,1-1.81.483,3.123,3.123,0,0,1-1.21-.24,22.2,22.2,0,0,1-.038,5.7c-1.051,8.054-5.9,14.588-10.836,14.588-3.2,0-5.643-2.744-6.685-6.865A14.04,14.04,0,0,1,2.073,564.1a11.81,11.81,0,0,1-2.063-.177V540.6a13.36,13.36,0,0,1,5.269-1.1,10.783,10.783,0,0,1,8.7,4.1c2.05-3.134,4.743-5.122,7.462-5.122,2.563,0,4.638,1.76,5.9,4.58a3.91,3.91,0,0,1,3.265-1.878,2.943,2.943,0,0,1,2.063.794,5.876,5.876,0,0,1,5.491-4.206A4.221,4.221,0,0,1,42.471,542.685Z" transform="translate(-0.008 -522.139)" fill-rule="evenodd" fill="url(#linear-gradient-2)"/>
    </g>
    <g id="Grupo_3215" data-name="Grupo 3215" transform="translate(201.057 -665.526)">
      <path id="Caminho_4804" data-name="Caminho 4804" d="M1181.9,374.723a37.789,37.789,0,0,0-15.7,3.352c.538-15.7-13.77-27.988-33.408-27.988a48.217,48.217,0,0,0-16.842,3.061c-2.2-17.426-17.29-30.328-37.476-30.328a51.553,51.553,0,0,0-37.529,16.82,12.409,12.409,0,0,0-8.687-3.361c-7.885,0-15.134,6.5-16.191,14.529s4.478,14.529,12.363,14.529c.283,0,.565-.011.847-.027-1.744,21.1,14.632,37.837,37.625,37.837a50.568,50.568,0,0,0,26.02-7.406c4.98,9.595,16.451,16.1,30.743,16.1,13.6,0,26.386-5.9,34.328-14.734,3.4,3.664,9.817,6.06,17.678,6.06,12.821,0,24.607-6.368,26.326-14.224S1194.717,374.723,1181.9,374.723Z" transform="translate(-1043.592 410.18)" fill-rule="evenodd" opacity="0.75" fill="url(#linear-gradient-3)"/>
      <g id="Grupo_3190" data-name="Grupo 3190" transform="translate(-27.653 748.248)">
        <path id="Caminho_4668" data-name="Caminho 4668" d="M1086.913,571.808v12.024H935.9C983.4,556.808,1044.723,550.959,1086.913,571.808Z" transform="translate(-900.645 -517.193)" fill="#c9996e" fill-rule="evenodd"/>
        <path id="Caminho_4669" data-name="Caminho 4669" d="M1473.06,615.209h-46.015V611.65a6.757,6.757,0,0,1,11.383-4.926,4.267,4.267,0,0,1,5.461-1.1,7.309,7.309,0,0,1,14.5-1.293,5.622,5.622,0,0,1,9.2,5.528c4.322-.334,6.359,2.428,5.477,5.348Z" transform="translate(-1294.822 -548.569)" fill="#82760a" fill-rule="evenodd"/>
        <g id="Grupo_3163" data-name="Grupo 3163" transform="translate(146.059 0)">
          <path id="Caminho_4670" data-name="Caminho 4670" d="M1526.952,509.472a.443.443,0,1,1,.816-.347l4.847,11.364a.444.444,0,0,1-.036.415l-6.623,11.091,8.542,11.126a.442.442,0,0,1,.091.269h-1l-8.518-11.095a.444.444,0,0,1-.017-.514l6.659-11.152-4.758-11.157Z" transform="translate(-1519.478 -476.75)" fill="#737373"/>
          <path id="Caminho_4671" data-name="Caminho 4671" d="M1531.738,385.187a.292.292,0,1,1-.541-.223l1.044-2.52-2.521,1.044a.293.293,0,0,1-.222-.541l2.519-1.043-2.519-1.043a.292.292,0,0,1,.223-.541l2.52,1.044-1.044-2.52a.293.293,0,0,1,.541-.222l1.044,2.519,1.043-2.519a.292.292,0,0,1,.541.222l-1.043,2.52,2.52-1.044a.292.292,0,0,1,.223.541l-2.519,1.043,2.519,1.043a.293.293,0,1,1-.222.541l-2.52-1.044,1.044,2.52a.292.292,0,0,1-.541.223l-1.044-2.519-1.043,2.519Z" transform="translate(-1522.96 -372.083)" fill="#4d4d4d"/>
          <path id="Caminho_4672" data-name="Caminho 4672" d="M1523.483,393.7v0l0-.008v0l0-.009v0l0-.008v0l0-.009v0l0-.009v0l0-.009v0a.534.534,0,0,1,.077-.13h0l.016-.019.007-.008h0l.007-.008h0l.008-.008h0l.008-.008h0l.008-.007.02-.017h0a.518.518,0,0,1,.13-.077h0l.009,0h0l.009,0h0l.009,0h0l.008,0h0l.009,0h0l.008,0h0a.536.536,0,0,1,.106-.014h.037a.533.533,0,0,1,.105.014h0l.008,0h0l.009,0h0l.008,0h0l.009,0h0l.009,0h0l.009,0h0a.521.521,0,0,1,.13.077h0l.019.017.008.007h0l.008.008h0l.007.008h0l.007.008h0l.007.008.016.019h0a.548.548,0,0,1,.077.13v0l0,.009v0l0,.009v0l0,.009v0l0,.008v0l0,.009v0l0,.008v0a.518.518,0,0,1,.013.083l.927,10.871h.723a.534.534,0,1,1,0,1.067h-.632l.878,10.3h.724a.533.533,0,0,1,0,1.067h-.633l.879,10.3h.723a.534.534,0,1,1,0,1.067h-.633l.879,10.3h.724a.534.534,0,0,1,0,1.067h-.632l.924,10.83h-1.07l-.924-10.83h-6.776l-.924,10.83h-1.071l.924-10.83h-.632a.534.534,0,1,1,0-1.067h.723l.878-10.3h-.632a.534.534,0,0,1,0-1.067h.724l.878-10.3h-.632a.533.533,0,1,1,0-1.067h.723l.879-10.3h-.632a.534.534,0,0,1,0-1.067h.724l.927-10.871a.5.5,0,0,1,.013-.083Zm3.815,45.046-.878-10.3h-4.837l-.878,10.3Zm-.969-11.364-.878-10.3h-2.9l-.878,10.3Zm-.969-11.364-.879-10.3h-.96l-.878,10.3Zm-.97-11.364-.389-4.556-.388,4.556Z" transform="translate(-1514.181 -383.999)" fill="#4d4d4d"/>
          <path id="Caminho_4673" data-name="Caminho 4673" d="M1540.875,388.525A1.473,1.473,0,1,1,1539.4,390a1.473,1.473,0,0,1,1.473-1.473Z" transform="translate(-1531.055 -380.178)" fill="#999" fill-rule="evenodd"/>
          <path id="Caminho_4674" data-name="Caminho 4674" d="M1551.314,346.245l-1.218,6.446,1.3.537,3.7-5.42-3.775-1.563Z" transform="translate(-1539.637 -346.245)" fill="#999" fill-rule="evenodd"/>
          <path id="Caminho_4675" data-name="Caminho 4675" d="M1566.655,367.464l-5.42,3.7.537,1.3,6.446-1.219-1.564-3.774Z" transform="translate(-1548.577 -363.275)" fill="#999" fill-rule="evenodd"/>
          <path id="Caminho_4676" data-name="Caminho 4676" d="M1568.219,400.437l-6.446-1.218-.537,1.3,5.42,3.7,1.563-3.774Z" transform="translate(-1548.578 -388.76)" fill="#999" fill-rule="evenodd"/>
          <path id="Caminho_4677" data-name="Caminho 4677" d="M1522.114,346.247l1.219,6.446-1.3.537-3.7-5.42,3.774-1.564Z" transform="translate(-1514.151 -346.246)" fill="#999" fill-rule="evenodd"/>
          <path id="Caminho_4678" data-name="Caminho 4678" d="M1498.685,367.467l5.421,3.7-.537,1.3-6.446-1.218,1.563-3.775Z" transform="translate(-1497.122 -363.277)" fill="#999" fill-rule="evenodd"/>
          <path id="Caminho_4679" data-name="Caminho 4679" d="M1518.344,415.779l3.7-5.42,1.3.537-1.219,6.446-3.775-1.563Z" transform="translate(-1514.154 -397.7)" fill="#999" fill-rule="evenodd"/>
          <path id="Caminho_4680" data-name="Caminho 4680" d="M1551.317,417.341l-1.219-6.446,1.3-.537,3.7,5.42-3.775,1.564Z" transform="translate(-1539.638 -397.699)" fill="#999" fill-rule="evenodd"/>
          <path id="Caminho_4681" data-name="Caminho 4681" d="M1498.687,404.213l5.42-3.7-.537-1.3-6.446,1.219,1.563,3.774Z" transform="translate(-1497.124 -388.761)" fill="#999" fill-rule="evenodd"/>
          <path id="Caminho_4682" data-name="Caminho 4682" d="M1544.222,392.7a.65.65,0,1,1-.65.65.65.65,0,0,1,.65-.65Z" transform="translate(-1534.401 -383.524)" fill="#ccc" fill-rule="evenodd"/>
        </g>
        <g id="Grupo_3174" data-name="Grupo 3174" transform="translate(89.176 5.145)">
          <path id="Caminho_4683" data-name="Caminho 4683" d="M1211.494,464.817h11.5V410.952h-11.5v53.865Z" transform="translate(-1211.004 -403.322)" fill="#ccc" fill-rule="evenodd"/>
          <path id="Caminho_4684" data-name="Caminho 4684" d="M1269.722,464.817h3.765V410.952h-3.765v53.865Z" transform="translate(-1257.736 -403.322)" fill="#999797" fill-rule="evenodd"/>
          <path id="Caminho_4685" data-name="Caminho 4685" d="M1219.125,372.3a7.63,7.63,0,0,1,7.63,7.631h-15.261a7.63,7.63,0,0,1,7.63-7.631Z" transform="translate(-1211.004 -372.304)" fill="#ccc" fill-rule="evenodd"/>
          <path id="Caminho_4686" data-name="Caminho 4686" d="M1217.243,381.838a5.748,5.748,0,0,1,5.748,5.748h-11.5a5.748,5.748,0,0,1,5.748-5.748Z" transform="translate(-1211.004 -379.956)" fill="#ededed" fill-rule="evenodd"/>
          <path id="Caminho_4687" data-name="Caminho 4687" d="M1224.719,381.738a1.66,1.66,0,0,1,1.787,1.66,1.9,1.9,0,0,1-1.8,1.847,1.66,1.66,0,0,1-1.787-1.66,1.9,1.9,0,0,1,1.8-1.847Z" transform="translate(-1220.174 -379.873)" fill="#fff" fill-rule="evenodd"/>
          <g id="Grupo_3173" data-name="Grupo 3173" transform="translate(0 7.63)">
            <g id="Grupo_3164" data-name="Grupo 3164">
              <path id="Caminho_4688" data-name="Caminho 4688" d="M1209.5,410.952H1221v1h-11.5a.5.5,0,0,1,0-1Z" transform="translate(-1209.011 -410.952)" fill="#999797" fill-rule="evenodd"/>
              <path id="Caminho_4689" data-name="Caminho 4689" d="M1273.487,410.952h-3.765v1h3.765a.5.5,0,0,0,0-1Z" transform="translate(-1257.736 -410.952)" fill="#666" fill-rule="evenodd"/>
            </g>
            <g id="Grupo_3165" data-name="Grupo 3165" transform="translate(0 5.983)">
              <path id="Caminho_4690" data-name="Caminho 4690" d="M1209.5,441.256H1221v1h-11.5a.5.5,0,0,1,0-1Z" transform="translate(-1209.011 -441.256)" fill="#999797" fill-rule="evenodd"/>
              <path id="Caminho_4691" data-name="Caminho 4691" d="M1273.487,441.256h-3.765v1h3.765a.5.5,0,0,0,0-1Z" transform="translate(-1257.736 -441.256)" fill="#666" fill-rule="evenodd"/>
            </g>
            <g id="Grupo_3166" data-name="Grupo 3166" transform="translate(0 11.966)">
              <path id="Caminho_4692" data-name="Caminho 4692" d="M1209.5,471.559H1221v1h-11.5a.5.5,0,0,1,0-1Z" transform="translate(-1209.011 -471.559)" fill="#999797" fill-rule="evenodd"/>
              <path id="Caminho_4693" data-name="Caminho 4693" d="M1273.487,471.559h-3.765v1h3.765a.5.5,0,0,0,0-1Z" transform="translate(-1257.736 -471.559)" fill="#666" fill-rule="evenodd"/>
            </g>
            <g id="Grupo_3167" data-name="Grupo 3167" transform="translate(0 17.949)">
              <path id="Caminho_4694" data-name="Caminho 4694" d="M1209.5,501.863H1221v1h-11.5a.5.5,0,0,1,0-1Z" transform="translate(-1209.011 -501.863)" fill="#999797" fill-rule="evenodd"/>
              <path id="Caminho_4695" data-name="Caminho 4695" d="M1273.487,501.863h-3.765v1h3.765a.5.5,0,0,0,0-1Z" transform="translate(-1257.736 -501.863)" fill="#666" fill-rule="evenodd"/>
            </g>
            <g id="Grupo_3168" data-name="Grupo 3168" transform="translate(0 23.932)">
              <path id="Caminho_4696" data-name="Caminho 4696" d="M1209.5,532.167H1221v1h-11.5a.5.5,0,0,1,0-1Z" transform="translate(-1209.011 -532.167)" fill="#999797" fill-rule="evenodd"/>
              <path id="Caminho_4697" data-name="Caminho 4697" d="M1273.487,532.167h-3.765v1h3.765a.5.5,0,0,0,0-1Z" transform="translate(-1257.736 -532.167)" fill="#666" fill-rule="evenodd"/>
            </g>
            <g id="Grupo_3169" data-name="Grupo 3169" transform="translate(0 29.915)">
              <path id="Caminho_4698" data-name="Caminho 4698" d="M1209.5,562.47H1221v1h-11.5a.5.5,0,0,1,0-1Z" transform="translate(-1209.011 -562.47)" fill="#999797" fill-rule="evenodd"/>
              <path id="Caminho_4699" data-name="Caminho 4699" d="M1273.487,562.47h-3.765v1h3.765a.5.5,0,0,0,0-1Z" transform="translate(-1257.736 -562.47)" fill="#666" fill-rule="evenodd"/>
            </g>
            <g id="Grupo_3170" data-name="Grupo 3170" transform="translate(0 35.898)">
              <path id="Caminho_4700" data-name="Caminho 4700" d="M1209.5,592.774H1221v1h-11.5a.5.5,0,0,1,0-1Z" transform="translate(-1209.011 -592.774)" fill="#999797" fill-rule="evenodd"/>
              <path id="Caminho_4701" data-name="Caminho 4701" d="M1273.487,592.774h-3.765v1h3.765a.5.5,0,0,0,0-1Z" transform="translate(-1257.736 -592.774)" fill="#666" fill-rule="evenodd"/>
            </g>
            <g id="Grupo_3171" data-name="Grupo 3171" transform="translate(0 41.881)">
              <path id="Caminho_4702" data-name="Caminho 4702" d="M1209.5,623.077H1221v1h-11.5a.5.5,0,0,1,0-1Z" transform="translate(-1209.011 -623.077)" fill="#999797" fill-rule="evenodd"/>
              <path id="Caminho_4703" data-name="Caminho 4703" d="M1273.487,623.077h-3.765v1h3.765a.5.5,0,0,0,0-1Z" transform="translate(-1257.736 -623.077)" fill="#666" fill-rule="evenodd"/>
            </g>
            <g id="Grupo_3172" data-name="Grupo 3172" transform="translate(0 47.864)">
              <path id="Caminho_4704" data-name="Caminho 4704" d="M1209.5,653.381H1221v1h-11.5a.5.5,0,0,1,0-1Z" transform="translate(-1209.011 -653.381)" fill="#999797" fill-rule="evenodd"/>
              <path id="Caminho_4705" data-name="Caminho 4705" d="M1273.487,653.381h-3.765v1h3.765a.5.5,0,0,0,0-1Z" transform="translate(-1257.736 -653.381)" fill="#666" fill-rule="evenodd"/>
            </g>
          </g>
        </g>
        <g id="Grupo_3185" data-name="Grupo 3185" transform="translate(106.238 5.145)">
          <path id="Caminho_4706" data-name="Caminho 4706" d="M1297.915,464.817h11.5V410.952h-11.5v53.865Z" transform="translate(-1297.425 -403.322)" fill="#ccc" fill-rule="evenodd"/>
          <path id="Caminho_4707" data-name="Caminho 4707" d="M1356.143,464.817h3.765V410.952h-3.765v53.865Z" transform="translate(-1344.157 -403.322)" fill="#999797" fill-rule="evenodd"/>
          <path id="Caminho_4708" data-name="Caminho 4708" d="M1305.547,372.3a7.63,7.63,0,0,1,7.63,7.631h-15.261a7.63,7.63,0,0,1,7.63-7.631Z" transform="translate(-1297.426 -372.304)" fill="#ccc" fill-rule="evenodd"/>
          <path id="Caminho_4709" data-name="Caminho 4709" d="M1303.664,381.838a5.748,5.748,0,0,1,5.748,5.748h-11.5a5.748,5.748,0,0,1,5.748-5.748Z" transform="translate(-1297.426 -379.956)" fill="#ededed" fill-rule="evenodd"/>
          <path id="Caminho_4710" data-name="Caminho 4710" d="M1311.141,381.738a1.66,1.66,0,0,1,1.787,1.66,1.9,1.9,0,0,1-1.8,1.847,1.66,1.66,0,0,1-1.787-1.66,1.9,1.9,0,0,1,1.8-1.847Z" transform="translate(-1306.595 -379.873)" fill="#fff" fill-rule="evenodd"/>
          <g id="Grupo_3184" data-name="Grupo 3184" transform="translate(0 7.63)">
            <g id="Grupo_3175" data-name="Grupo 3175">
              <path id="Caminho_4711" data-name="Caminho 4711" d="M1295.922,410.952h11.5v1h-11.5a.5.5,0,0,1,0-1Z" transform="translate(-1295.432 -410.952)" fill="#999797" fill-rule="evenodd"/>
              <path id="Caminho_4712" data-name="Caminho 4712" d="M1359.908,410.952h-3.765v1h3.765a.5.5,0,0,0,0-1Z" transform="translate(-1344.157 -410.952)" fill="#666" fill-rule="evenodd"/>
            </g>
            <g id="Grupo_3176" data-name="Grupo 3176" transform="translate(0 5.983)">
              <path id="Caminho_4713" data-name="Caminho 4713" d="M1295.922,441.256h11.5v1h-11.5a.5.5,0,0,1,0-1Z" transform="translate(-1295.432 -441.256)" fill="#999797" fill-rule="evenodd"/>
              <path id="Caminho_4714" data-name="Caminho 4714" d="M1359.908,441.256h-3.765v1h3.765a.5.5,0,0,0,0-1Z" transform="translate(-1344.157 -441.256)" fill="#666" fill-rule="evenodd"/>
            </g>
            <g id="Grupo_3177" data-name="Grupo 3177" transform="translate(0 11.966)">
              <path id="Caminho_4715" data-name="Caminho 4715" d="M1295.922,471.559h11.5v1h-11.5a.5.5,0,0,1,0-1Z" transform="translate(-1295.432 -471.559)" fill="#999797" fill-rule="evenodd"/>
              <path id="Caminho_4716" data-name="Caminho 4716" d="M1359.908,471.559h-3.765v1h3.765a.5.5,0,0,0,0-1Z" transform="translate(-1344.157 -471.559)" fill="#666" fill-rule="evenodd"/>
            </g>
            <g id="Grupo_3178" data-name="Grupo 3178" transform="translate(0 17.949)">
              <path id="Caminho_4717" data-name="Caminho 4717" d="M1295.922,501.863h11.5v1h-11.5a.5.5,0,0,1,0-1Z" transform="translate(-1295.432 -501.863)" fill="#999797" fill-rule="evenodd"/>
              <path id="Caminho_4718" data-name="Caminho 4718" d="M1359.908,501.863h-3.765v1h3.765a.5.5,0,0,0,0-1Z" transform="translate(-1344.157 -501.863)" fill="#666" fill-rule="evenodd"/>
            </g>
            <g id="Grupo_3179" data-name="Grupo 3179" transform="translate(0 23.932)">
              <path id="Caminho_4719" data-name="Caminho 4719" d="M1295.922,532.167h11.5v1h-11.5a.5.5,0,0,1,0-1Z" transform="translate(-1295.432 -532.167)" fill="#999797" fill-rule="evenodd"/>
              <path id="Caminho_4720" data-name="Caminho 4720" d="M1359.908,532.167h-3.765v1h3.765a.5.5,0,0,0,0-1Z" transform="translate(-1344.157 -532.167)" fill="#666" fill-rule="evenodd"/>
            </g>
            <g id="Grupo_3180" data-name="Grupo 3180" transform="translate(0 29.915)">
              <path id="Caminho_4721" data-name="Caminho 4721" d="M1295.922,562.47h11.5v1h-11.5a.5.5,0,0,1,0-1Z" transform="translate(-1295.432 -562.47)" fill="#999797" fill-rule="evenodd"/>
              <path id="Caminho_4722" data-name="Caminho 4722" d="M1359.908,562.47h-3.765v1h3.765a.5.5,0,0,0,0-1Z" transform="translate(-1344.157 -562.47)" fill="#666" fill-rule="evenodd"/>
            </g>
            <g id="Grupo_3181" data-name="Grupo 3181" transform="translate(0 35.898)">
              <path id="Caminho_4723" data-name="Caminho 4723" d="M1295.922,592.774h11.5v1h-11.5a.5.5,0,0,1,0-1Z" transform="translate(-1295.432 -592.774)" fill="#999797" fill-rule="evenodd"/>
              <path id="Caminho_4724" data-name="Caminho 4724" d="M1359.908,592.774h-3.765v1h3.765a.5.5,0,0,0,0-1Z" transform="translate(-1344.157 -592.774)" fill="#666" fill-rule="evenodd"/>
            </g>
            <g id="Grupo_3182" data-name="Grupo 3182" transform="translate(0 41.881)">
              <path id="Caminho_4725" data-name="Caminho 4725" d="M1295.922,623.077h11.5v1h-11.5a.5.5,0,0,1,0-1Z" transform="translate(-1295.432 -623.077)" fill="#999797" fill-rule="evenodd"/>
              <path id="Caminho_4726" data-name="Caminho 4726" d="M1359.908,623.077h-3.765v1h3.765a.5.5,0,0,0,0-1Z" transform="translate(-1344.157 -623.077)" fill="#666" fill-rule="evenodd"/>
            </g>
            <g id="Grupo_3183" data-name="Grupo 3183" transform="translate(0 47.864)">
              <path id="Caminho_4727" data-name="Caminho 4727" d="M1295.922,653.381h11.5v1h-11.5a.5.5,0,0,1,0-1Z" transform="translate(-1295.432 -653.381)" fill="#999797" fill-rule="evenodd"/>
              <path id="Caminho_4728" data-name="Caminho 4728" d="M1359.908,653.381h-3.765v1h3.765a.5.5,0,0,0,0-1Z" transform="translate(-1344.157 -653.381)" fill="#666" fill-rule="evenodd"/>
            </g>
          </g>
        </g>
        <path id="Caminho_4729" data-name="Caminho 4729" d="M1474.315,642.591h-34.086v-.009a5.861,5.861,0,0,1,7.9-5.492q-.015-.181-.016-.365a4.265,4.265,0,0,1,8.528-.1,6.538,6.538,0,0,1,9.828,2.605c3.443-1.708,7.52.438,7.848,3.358Z" transform="translate(-1305.403 -575.951)" fill="#cfc12c" fill-rule="evenodd"/>
        <path id="Retângulo_2799" data-name="Retângulo 2799" d="M0,0H35.423a0,0,0,0,1,0,0V3.2a0,0,0,0,1,0,0H3.2A3.2,3.2,0,0,1,0,0V0A0,0,0,0,1,0,0Z" transform="translate(150.844 66.639)" fill="url(#linear-gradient-4)"/>
        <path id="Caminho_4730" data-name="Caminho 4730" d="M1045.584,639.749v-6a4.829,4.829,0,0,0-9.658,0v6Z" transform="translate(-980.923 -573.109)" fill="#cfc12c" fill-rule="evenodd"/>
        <g id="Grupo_3186" data-name="Grupo 3186" transform="translate(135.611 60.43)">
          <rect id="Retângulo_2800" data-name="Retângulo 2800" width="0.883" height="6.208" transform="translate(20.269)" fill="#fff"/>
          <rect id="Retângulo_2801" data-name="Retângulo 2801" width="0.883" height="6.208" transform="translate(1.112)" fill="#fff"/>
          <rect id="Retângulo_2802" data-name="Retângulo 2802" width="21.152" height="1.07" transform="translate(0 0.708)" fill="#fff"/>
          <rect id="Retângulo_2803" data-name="Retângulo 2803" width="21.152" height="1.07" transform="translate(0 4.068)" fill="#fff"/>
        </g>
        <path id="Caminho_4731" data-name="Caminho 4731" d="M1453.2,657.463h-7v1.07h-.885v-1.07H1444.2v-1.07h1.111V654.1H1444.2v-1.07h1.111v-.707h.885v.707h5.253l.422,1.07H1446.2v2.291h6.575Z" transform="translate(-1308.593 -591.894)" fill="#d3d3d3" fill-rule="evenodd"/>
        <g id="Grupo_3187" data-name="Grupo 3187" transform="translate(0 37.705)">
          <path id="Caminho_4732" data-name="Caminho 4732" d="M757.338,567.477a7.281,7.281,0,0,1,9.607-6.894,8.87,8.87,0,0,1,14.845-7.97,5.776,5.776,0,0,1,8.422-3.12,8.87,8.87,0,0,1,16.058-6.7,5.591,5.591,0,0,1,9.128,4.33v20.356Z" transform="translate(-757.338 -538.542)" fill-rule="evenodd" fill="url(#linear-gradient-5)"/>
          <path id="Caminho_4733" data-name="Caminho 4733" d="M1079.8,537.222a8,8,0,0,0-8,8v20.936h16V545.221A8,8,0,0,0,1079.8,537.222Z" transform="translate(-1009.719 -537.222)" fill-rule="evenodd" fill="url(#linear-gradient-6)"/>
          <path id="Caminho_4734" data-name="Caminho 4734" d="M1036.083,574.239a5.978,5.978,0,0,0-5.979,5.978v15.648h11.957V580.217A5.978,5.978,0,0,0,1036.083,574.239Z" transform="translate(-976.251 -566.931)" fill-rule="evenodd" fill="url(#linear-gradient-7)"/>
        </g>
        <path id="Caminho_4735" data-name="Caminho 4735" d="M920.778,635.579h-39.89v-.01a6.859,6.859,0,0,1,9.242-6.428c-.012-.141-.018-.283-.018-.427a4.991,4.991,0,0,1,9.981-.113,7.651,7.651,0,0,1,11.5,3.049c4.029-2,8.8.513,9.185,3.93Z" transform="translate(-856.494 -568.939)" fill="#cfc12c" fill-rule="evenodd"/>
        <path id="Caminho_4736" data-name="Caminho 4736" d="M1068.132,639.749v-6a4.829,4.829,0,1,0-9.658,0v6Z" transform="translate(-999.02 -573.109)" fill="#cfc12c" fill-rule="evenodd"/>
        <g id="Grupo_3188" data-name="Grupo 3188" transform="translate(62.243 40.717)">
          <path id="Caminho_4737" data-name="Caminho 4737" d="M1117.074,611.914H1072.6l.492,1.25h44.475l-.492-1.25Z" transform="translate(-1072.599 -600.179)" fill="#a2a2a2" fill-rule="evenodd"/>
          <path id="Caminho_4738" data-name="Caminho 4738" d="M1134.336,552.474h-44.474L1072.6,564.209h44.475l17.262-11.736Z" transform="translate(-1072.599 -552.474)" fill="#fff" fill-rule="evenodd"/>
          <path id="Caminho_4739" data-name="Caminho 4739" d="M1297.863,564.209l17.262-11.736,17.262,11.736-.492,1.25-16.77-11.4-16.77,11.4-.492-1.25Z" transform="translate(-1253.388 -552.474)" fill="#d3d3d3" fill-rule="evenodd"/>
          <path id="Caminho_4740" data-name="Caminho 4740" d="M1390.992,570.393l-13.09-8.9,1.46-.993,16.771,11.4h-5.14v-1.509Z" transform="translate(-1317.625 -558.916)" fill="#a2a2a2" fill-rule="evenodd"/>
          <path id="Caminho_4741" data-name="Caminho 4741" d="M1325.912,574.428l-13.09-8.9-15.311,10.408h-.7v12.936h29.1V574.428Z" transform="translate(-1252.544 -562.951)" fill="#ba481a" fill-rule="evenodd"/>
          <path id="Caminho_4742" data-name="Caminho 4742" d="M1139.76,637.543V626.171h-38.635v11.372Z" transform="translate(-1095.493 -611.621)" fill="#ff8543" fill-rule="evenodd"/>
          <path id="Caminho_4743" data-name="Caminho 4743" d="M1101.125,626.171v11.372h21.8l-4.476-11.372Z" transform="translate(-1095.493 -611.621)" fill="#e65d21" fill-rule="evenodd"/>
          <path id="Caminho_4744" data-name="Caminho 4744" d="M1306.834,586.145l-9.323,6.338h-.7V605.42h17.609l-7.587-19.274Z" transform="translate(-1252.544 -579.497)" fill="#9e2e01" fill-rule="evenodd"/>
          <path id="Caminho_4745" data-name="Caminho 4745" d="M1321.259,628.915h18.479v10.83h-18.479v-10.83Z" transform="translate(-1272.165 -613.823)" fill="#5e3b1d" fill-rule="evenodd"/>
          <path id="Caminho_4746" data-name="Caminho 4746" d="M1414.856,628.915h.968v10.83h-.968v-10.83Z" transform="translate(-1347.283 -613.823)" fill="#ffa469" fill-rule="evenodd"/>
          <path id="Caminho_4747" data-name="Caminho 4747" d="M1321.259,628.915h7.491l4.263,10.83h-11.754v-10.83Z" transform="translate(-1272.165 -613.823)" fill="#3d2208" fill-rule="evenodd"/>
          <path id="Caminho_4748" data-name="Caminho 4748" d="M1139.76,619.812v-1.564h-38.635v1.564Z" transform="translate(-1095.493 -605.261)" fill="#e65d21" fill-rule="evenodd"/>
          <path id="Caminho_4749" data-name="Caminho 4749" d="M1219.219,628.916h8.708v3.737h-8.708v-3.737Z" transform="translate(-1190.271 -613.824)" fill="#42d9e0" fill-rule="evenodd"/>
          <path id="Caminho_4750" data-name="Caminho 4750" d="M1214.319,628.915h.968v3.737h-.968v-3.737Z" transform="translate(-1186.339 -613.823)" fill="#9e3b0c" fill-rule="evenodd"/>
          <path id="Caminho_4751" data-name="Caminho 4751" d="M1219.219,628.916h8.708v.938H1222.1l1.1,2.8h-3.985v-3.737Z" transform="translate(-1190.271 -613.824)" fill="#1d5152" fill-rule="evenodd"/>
          <path id="Caminho_4752" data-name="Caminho 4752" d="M1134.612,628.915h.968v3.737h-.968v-3.737Z" transform="translate(-1122.368 -613.823)" fill="#9e3b0c" fill-rule="evenodd"/>
          <path id="Caminho_4753" data-name="Caminho 4753" d="M1101.125,618.247v1.564h17.327l-.616-1.564Z" transform="translate(-1095.493 -605.261)" fill="#b54012" fill-rule="evenodd"/>
          <path id="Caminho_4754" data-name="Caminho 4754" d="M1139.513,628.916h8.708v3.737h-8.708v-3.737Z" transform="translate(-1126.302 -613.824)" fill="#42d9e0" fill-rule="evenodd"/>
          <path id="Caminho_4755" data-name="Caminho 4755" d="M1139.513,628.916h8.708v.938h-5.386l1.1,2.8h-4.424v-3.737Z" transform="translate(-1126.302 -613.824)" fill="#1d5152" fill-rule="evenodd"/>
          <path id="Caminho_4756" data-name="Caminho 4756" d="M1095.553,552.474h-5.692L1072.6,564.209h27.557Z" transform="translate(-1072.599 -552.474)" fill="#ededed" fill-rule="evenodd"/>
        </g>
        <g id="Grupo_3189" data-name="Grupo 3189" transform="translate(18.085 60.432)">
          <rect id="Retângulo_2804" data-name="Retângulo 2804" width="0.883" height="6.208" transform="translate(38.314)" fill="#fff"/>
          <rect id="Retângulo_2805" data-name="Retângulo 2805" width="0.883" height="6.208" transform="translate(19.157)" fill="#fff"/>
          <rect id="Retângulo_2806" data-name="Retângulo 2806" width="0.883" height="6.208" transform="translate(0)" fill="#fff"/>
          <rect id="Retângulo_2807" data-name="Retângulo 2807" width="77.512" height="1.07" transform="translate(0 0.708)" fill="#fff"/>
          <rect id="Retângulo_2808" data-name="Retângulo 2808" width="77.512" height="1.07" transform="translate(0 4.068)" fill="#fff"/>
          <rect id="Retângulo_2809" data-name="Retângulo 2809" width="0.883" height="6.208" transform="translate(76.629)" fill="#fff"/>
          <rect id="Retângulo_2810" data-name="Retângulo 2810" width="0.883" height="6.208" transform="translate(57.471)" fill="#fff"/>
        </g>
      </g>
    </g>
    <g id="Grupo_3193" data-name="Grupo 3193" transform="translate(-37.643 -1017.67)">
      <path id="Caminho_4765" data-name="Caminho 4765" d="M127.9,1276.19v-6.7a1.187,1.187,0,0,0-1.183-1.183h0a1.187,1.187,0,0,0-1.183,1.183v6.7a5.391,5.391,0,0,1,2.367,0Z" transform="translate(-10.213 -86.957)" fill="gray" fill-rule="evenodd"/>
      <path id="Caminho_4766" data-name="Caminho 4766" d="M116.506,1295a5.362,5.362,0,1,0,5.362,5.362,5.362,5.362,0,0,0-5.362-5.362Z" transform="translate(0 -105.897)" fill="#1a1a1a" fill-rule="evenodd"/>
      <path id="Caminho_4767" data-name="Caminho 4767" d="M122.307,1303.175a2.988,2.988,0,1,0,2.988,2.988,2.988,2.988,0,0,0-2.988-2.988Z" transform="translate(-5.801 -111.699)" fill="#999" fill-rule="evenodd"/>
      <path id="Caminho_4768" data-name="Caminho 4768" d="M126.65,1309.293a1.212,1.212,0,1,0,1.212,1.212,1.212,1.212,0,0,0-1.212-1.212Z" transform="translate(-10.144 -116.041)" fill="#4d4d4d" fill-rule="evenodd"/>
      <path id="Caminho_4769" data-name="Caminho 4769" d="M227.428,1268.571h0a1.187,1.187,0,0,0,1.183-1.183V1254.55c0-.026,0-.051,0-.077h0l0-.028v0l0-.026v0l0-.026v-.005c0-.027-.009-.055-.015-.081l0-.009,0-.018v-.007l0-.011v-.005l0-.013h0a1.173,1.173,0,0,0-.41-.615h0l0,0-.02-.015,0,0a1.176,1.176,0,0,0-.663-.233h-.134c-.039,0-.077.008-.116.015h0c-.035.006-.069.014-.1.023l-33,9.06a1.186,1.186,0,0,0-.828,1.454h0a1.187,1.187,0,0,0,1.454.828l31.508-8.649v11.286a1.187,1.187,0,0,0,1.183,1.183Z" transform="translate(-58.26 -76.352)" fill="gray" fill-rule="evenodd"/>
      <path id="Caminho_4770" data-name="Caminho 4770" d="M172.717,1283.692a1.061,1.061,0,0,1,1.057,1.058v1.167a1.061,1.061,0,0,1-1.057,1.058H112.2a1.061,1.061,0,0,1-1.058-1.058v-1.167a1.061,1.061,0,0,1,1.058-1.058Z" transform="translate(0 -97.873)" fill="#4d4d4d" fill-rule="evenodd"/>
      <path id="Caminho_4771" data-name="Caminho 4771" d="M309.154,1272.385a1.061,1.061,0,0,1,1.052,1.058v1.167a1.061,1.061,0,0,1-1.052,1.058h-4.823a1.061,1.061,0,0,1-1.058-1.058v-1.167a1.061,1.061,0,0,1,1.058-1.058h4.823Z" transform="translate(-136.346 -89.849)" fill="#4d4d4d" fill-rule="evenodd"/>
      <path id="Caminho_4772" data-name="Caminho 4772" d="M181.417,1301.351V1295h2.367v6.351Z" transform="translate(-49.87 -105.897)" fill="gray" fill-rule="evenodd"/>
      <path id="Caminho_4773" data-name="Caminho 4773" d="M167.924,1306.518l6.657-1.692c1.042-.265,1.163.347,1.144.685a8.632,8.632,0,0,0,3.292,7.14h-4.362a17.513,17.513,0,0,1-7.118-4.505c-.448-.48-.689-1.354.387-1.628Z" transform="translate(-39.75 -112.825)" fill="#4d4d4d" fill-rule="evenodd"/>
      <path id="Caminho_4774" data-name="Caminho 4774" d="M223.25,1301.35V1295h2.367v6.351Z" transform="translate(-79.557 -105.897)" fill="gray" fill-rule="evenodd"/>
      <path id="Caminho_4775" data-name="Caminho 4775" d="M209.757,1306.517l6.657-1.692c1.042-.265,1.163.346,1.143.685a8.63,8.63,0,0,0,3.292,7.139h-4.362a17.507,17.507,0,0,1-7.118-4.505c-.448-.48-.689-1.354.387-1.628Z" transform="translate(-69.438 -112.824)" fill="#4d4d4d" fill-rule="evenodd"/>
      <path id="Caminho_4776" data-name="Caminho 4776" d="M265.084,1301.35V1295h2.367v6.351Z" transform="translate(-109.245 -105.897)" fill="gray" fill-rule="evenodd"/>
      <path id="Caminho_4777" data-name="Caminho 4777" d="M251.59,1306.517l6.657-1.692c1.042-.265,1.163.346,1.144.685a8.629,8.629,0,0,0,3.292,7.139h-4.362a17.507,17.507,0,0,1-7.118-4.505c-.449-.48-.69-1.354.387-1.628Z" transform="translate(-99.125 -112.824)" fill="#4d4d4d" fill-rule="evenodd"/>
      <path id="Caminho_4778" data-name="Caminho 4778" d="M475.624,1169.889h-2.277a.41.41,0,0,0-.409.409v11.1c.92.073,1.967.179,3.1.322V1170.3a.41.41,0,0,0-.409-.409Z" transform="translate(-256.751 -17.111)" fill="#4d4d4d" fill-rule="evenodd"/>
      <path id="Caminho_4779" data-name="Caminho 4779" d="M494.651,1251.834a11.628,11.628,0,1,0,11.628,11.628,11.628,11.628,0,0,0-11.628-11.628Z" transform="translate(-263.908 -75.264)" fill="#1a1a1a" fill-rule="evenodd"/>
      <path id="Caminho_4780" data-name="Caminho 4780" d="M507.234,1269.563a6.48,6.48,0,1,0,6.481,6.481,6.481,6.481,0,0,0-6.481-6.481Z" transform="translate(-276.49 -87.846)" fill="#999" fill-rule="evenodd"/>
      <path id="Caminho_4781" data-name="Caminho 4781" d="M338.866,1224.144a15.648,15.648,0,1,0,15.648,15.648,15.648,15.648,0,0,0-15.648-15.648Z" transform="translate(-150.501 -55.614)" fill="#1a1a1a" fill-rule="evenodd"/>
      <path id="Caminho_4782" data-name="Caminho 4782" d="M353.788,1245.171a9.543,9.543,0,1,0,9.543,9.543,9.542,9.542,0,0,0-9.543-9.543Z" transform="translate(-165.423 -70.536)" fill="#999" fill-rule="evenodd"/>
      <path id="Caminho_4783" data-name="Caminho 4783" d="M395.46,1218.572c-1.261-7.1-20.652-9.469-25.741-9.469v0a46.043,46.043,0,0,1-.521,14.106h-8.057v0a17.653,17.653,0,0,0-29.976-5.647l1.513,1.31a15.652,15.652,0,0,1,26.625,15.348h15.994c-.026-.318-.04-.641-.04-.966h0c0-.038,0-.076,0-.115a11.628,11.628,0,0,1,20.263-7.788l.156-2.138-.214-4.64Z" transform="translate(-156.14 -44.939)" fill="#851621" fill-rule="evenodd"/>
      <path id="Caminho_4784" data-name="Caminho 4784" d="M391.417,1161.2l-22.935.012-2.405,14.136q.683-.175,1.393-.3c6.864-1.167,18.3,2.192,19.661,14.165h6.844c1.826-9.18.494-18.385-2.557-28.017Z" transform="translate(-180.915 -10.946)" fill="#333" fill-rule="evenodd"/>
      <path id="Caminho_4785" data-name="Caminho 4785" d="M371.8,1151.271a72.464,72.464,0,0,1,22.566.888c.935.118,1.246,1.638.313,1.638l-22.935.012c-1.325,0-1.541-2.349.056-2.537Z" transform="translate(-184.182 -3.541)" fill="#fff" fill-rule="evenodd"/>
      <path id="Caminho_4786" data-name="Caminho 4786" d="M328.9,1216.207c-.395.579-.205,1.343.262.973a17.653,17.653,0,0,1,30.222,5.362h1.213c-1.359-11.974-12.8-15.332-19.661-14.165a18.5,18.5,0,0,0-12.037,7.831Z" transform="translate(-154.378 -44.27)" fill="#f54952" fill-rule="evenodd"/>
      <path id="Caminho_4787" data-name="Caminho 4787" d="M560.363,1262.793h-4.517a1.275,1.275,0,0,0-1.271,1.264,11.578,11.578,0,0,1,2.482,7.182h3.306a1.275,1.275,0,0,0,1.271-1.271v-5.9a1.275,1.275,0,0,0-1.271-1.271Z" transform="translate(-314.685 -83.042)" fill="#4d4d4d" fill-rule="evenodd"/>
      <path id="Caminho_4788" data-name="Caminho 4788" d="M516.072,1282.017a2.865,2.865,0,1,0,2.865,2.865,2.865,2.865,0,0,0-2.865-2.865Z" transform="translate(-285.328 -96.684)" fill="#4d4d4d" fill-rule="evenodd"/>
      <path id="Caminho_4789" data-name="Caminho 4789" d="M488.425,1218.572c-1.261-7.1-20.652-9.469-25.741-9.469v0a46.043,46.043,0,0,1-.521,14.106h6.394a15.035,15.035,0,0,1,19.974-2.349l-.105-2.29Z" transform="translate(-249.104 -44.939)" fill="#f54952" fill-rule="evenodd"/>
      <path id="Caminho_4790" data-name="Caminho 4790" d="M486.327,1240.1a15.034,15.034,0,0,0-15.034,15.035h1.688a13.35,13.35,0,0,1,19.609-11.789l.792-1.49a14.969,14.969,0,0,0-7.054-1.756Z" transform="translate(-255.584 -66.938)" fill="#f54952" fill-rule="evenodd"/>
      <path id="Caminho_4791" data-name="Caminho 4791" d="M477.014,1152.778v-2.521a2.708,2.708,0,0,1,.734-1.892,2.749,2.749,0,0,1,1.518-.84v-1.747a4.5,4.5,0,0,0-2.78,1.4,4.417,4.417,0,0,0-1.209,3.079v2.521Z" transform="translate(-258.411)" fill="#333"/>
      <path id="Caminho_4792" data-name="Caminho 4792" d="M392.711,1161.208l-10.065.006-.853,13.109c5.242,1.629,10.191,5.354,11.587,11.79a1.819,1.819,0,0,0,1.908,1.613h.6a1.946,1.946,0,0,0,2.116-1.467c1.113-7.035-.2-15.605-2.307-22.932a2.716,2.716,0,0,0-2.989-2.117Zm-11.5.006-3.417,0a2.634,2.634,0,0,0-2.6,1.807l-1.409,8.67c-.2,1.142.755,1.63,1.561,1.667a32.983,32.983,0,0,1,5,.569l.861-12.715Z" transform="translate(-186.365 -10.951)" fill="#4ea3a0" fill-rule="evenodd"/>
      <path id="Caminho_4793" data-name="Caminho 4793" d="M462.992,1229.283a50.7,50.7,0,0,1-.829,8.25h6.394a15.048,15.048,0,0,1,16.825-4.057c-6.027-2.574-17.417-4.193-22.389-4.193Z" transform="translate(-249.104 -59.261)" fill="#c43341" fill-rule="evenodd"/>
      <path id="Caminho_4794" data-name="Caminho 4794" d="M397.053,1167.46l-7.608,0-.723,11.112a24.96,24.96,0,0,1,5.286,2.4,3.61,3.61,0,0,0,3.224,1.025l5.364-2.134a5.636,5.636,0,0,0-.031-.6,31.246,31.246,0,0,0-2.891-9.952,2.59,2.59,0,0,0-2.621-1.856Zm-10.212.005h-1.436a2.311,2.311,0,0,0-2.279,1.585l-1.235,7.6a1.1,1.1,0,0,0,.54,1.227c.608.042,2.683.035,3.694.149l.716-10.563Z" transform="translate(-192.122 -15.388)" fill="#a4eddc" fill-rule="evenodd"/>
      <path id="Caminho_4795" data-name="Caminho 4795" d="M436.312,1261.425h-7.917a15.725,15.725,0,0,1,.237,8.844h6.29a1.984,1.984,0,0,0,1.884-1.628l.878-5.587a1.36,1.36,0,0,0-1.372-1.628Z" transform="translate(-225.141 -82.071)" fill="#333" fill-rule="evenodd"/>
      <path id="Caminho_4796" data-name="Caminho 4796" d="M375.1,1296.656a.824.824,0,1,1-.823.823.824.824,0,0,1,.823-.823Z" transform="translate(-186.734 -107.073)" fill="#4d4d4d" fill-rule="evenodd"/>
      <path id="Caminho_4797" data-name="Caminho 4797" d="M396.553,1275.2a.824.824,0,1,1-.823.823.824.824,0,0,1,.823-.823Z" transform="translate(-201.959 -91.849)" fill="#4d4d4d" fill-rule="evenodd"/>
      <path id="Caminho_4798" data-name="Caminho 4798" d="M350.9,1258.9a6.9,6.9,0,0,1,13.748-.868,8.586,8.586,0,1,0-8.528,7.606c.054,0,.106-.007.16-.008A6.9,6.9,0,0,1,350.9,1258.9Z" transform="translate(-167.755 -72.869)" fill="#7a7a7a" fill-rule="evenodd"/>
      <path id="Caminho_4799" data-name="Caminho 4799" d="M368.96,1266.551a3.335,3.335,0,1,0,3.336,3.335,3.335,3.335,0,0,0-3.336-3.335Z" transform="translate(-180.595 -85.709)" fill="#4d4d4d" fill-rule="evenodd"/>
      <path id="Caminho_4800" data-name="Caminho 4800" d="M375.1,1253.75a.823.823,0,1,1-.823.823.823.823,0,0,1,.823-.823Z" transform="translate(-186.734 -76.624)" fill="#4d4d4d" fill-rule="evenodd"/>
      <path id="Caminho_4801" data-name="Caminho 4801" d="M353.645,1275.2a.824.824,0,1,1-.823.823.823.823,0,0,1,.823-.823Z" transform="translate(-171.509 -91.849)" fill="#4d4d4d" fill-rule="evenodd"/>
    </g>
  </g>
</svg>
