<svg xmlns="http://www.w3.org/2000/svg" width="23.291" height="23.291" viewBox="0 0 23.291 23.291">
  <g id="Group_786" data-name="Group 786" transform="translate(213 -211)">
    <g id="Group_779" data-name="Group 779" transform="translate(-199.353 219.643)">
      <g id="Group_778" data-name="Group 778">
        <path id="Path_1321" data-name="Path 1321" d="M87.455,401a.455.455,0,1,0,.455.455A.455.455,0,0,0,87.455,401Z" transform="translate(-87 -401)" fill="#193b4e"/>
      </g>
    </g>
    <g id="Group_781" data-name="Group 781" transform="translate(-213 211)">
      <g id="Group_780" data-name="Group 780">
        <path id="Path_1322" data-name="Path 1322" d="M-190.242,231.185l-6.072-6.072a9.016,9.016,0,0,0,1.51-5.015,9.108,9.108,0,0,0-9.1-9.1,9.108,9.108,0,0,0-9.1,9.1,9.108,9.108,0,0,0,9.1,9.1,9.017,9.017,0,0,0,5.015-1.51l1.678,1.678h0l4.393,4.393a1.808,1.808,0,0,0,1.287.533,1.807,1.807,0,0,0,1.286-.533,1.807,1.807,0,0,0,.533-1.287A1.807,1.807,0,0,0-190.242,231.185Zm-8.859-4.458h0a8.118,8.118,0,0,1-4.8,1.559,8.2,8.2,0,0,1-8.188-8.188,8.2,8.2,0,0,1,8.188-8.188,8.2,8.2,0,0,1,8.188,8.188,8.118,8.118,0,0,1-1.559,4.8A8.227,8.227,0,0,1-199.1,226.727Zm.954.412a9.128,9.128,0,0,0,1.286-1.286l1.291,1.291a11.045,11.045,0,0,1-1.286,1.286Zm7.261,5.975a.9.9,0,0,1-.643.267.9.9,0,0,1-.643-.267l-4.039-4.039a11.955,11.955,0,0,0,1.286-1.286l4.039,4.039a.9.9,0,0,1,.267.643A.9.9,0,0,1-190.885,233.115Z" transform="translate(213 -211)" fill="#193b4e"/>
      </g>
    </g>
    <g id="Group_783" data-name="Group 783" transform="translate(-211.18 212.82)">
      <g id="Group_782" data-name="Group 782">
        <path id="Path_1323" data-name="Path 1323" d="M-165.722,251A7.287,7.287,0,0,0-173,258.278a7.287,7.287,0,0,0,7.278,7.278,7.287,7.287,0,0,0,7.278-7.278A7.287,7.287,0,0,0-165.722,251Zm0,13.647a6.376,6.376,0,0,1-6.369-6.369,6.376,6.376,0,0,1,6.369-6.369,6.376,6.376,0,0,1,6.369,6.369A6.376,6.376,0,0,1-165.722,264.647Z" transform="translate(173 -251)" fill="#193b4e"/>
      </g>
    </g>
    <g id="Group_785" data-name="Group 785" transform="translate(-204.357 214.639)">
      <g id="Group_784" data-name="Group 784">
        <path id="Path_1324" data-name="Path 1324" d="M-17.447,294.506a5.459,5.459,0,0,0-1.972-2.521A5.42,5.42,0,0,0-22.545,291a.455.455,0,0,0-.455.455.455.455,0,0,0,.455.455,4.58,4.58,0,0,1,4.249,2.923.455.455,0,0,0,.425.292.453.453,0,0,0,.163-.03A.455.455,0,0,0-17.447,294.506Z" transform="translate(23 -291)" fill="#193b4e"/>
      </g>
    </g>
  </g>
</svg>
