<svg id="Componente_3_1" data-name="Componente 3 – 1" xmlns="http://www.w3.org/2000/svg" width="19.727" height="16.327" viewBox="0 0 19.727 16.327">
  <path id="Caminho_8196" data-name="Caminho 8196" d="M2288.324,469.111a5.538,5.538,0,0,1,5.532,5.532h1.526a7.059,7.059,0,1,0-14.117,0h1.526A5.538,5.538,0,0,1,2288.324,469.111Z" transform="translate(-2278.461 -459.079)" fill="#707070"/>
  <rect id="Retângulo_2955" data-name="Retângulo 2955" width="17.07" height="1.526" transform="translate(1.329 14.801)" fill="#707070"/>
  <rect id="Retângulo_2956" data-name="Retângulo 2956" width="19.727" height="1.526" transform="translate(0 14.801)" fill="#707070"/>
  <path id="Caminho_8197" data-name="Caminho 8197" d="M2319.418,453.228a6.682,6.682,0,0,1,1.17.1v-4.423h-1.526v4.34C2319.18,453.24,2319.3,453.228,2319.418,453.228Z" transform="translate(-2309.962 -443.514)" fill="#707070"/>
  <path id="Caminho_8198" data-name="Caminho 8198" d="M2345.6,468.892l2.964-2.964-1.079-1.079-2.957,2.957A5.544,5.544,0,0,1,2345.6,468.892Z" transform="translate(-2331.184 -456.799)" fill="#707070"/>
  <path id="Caminho_8199" data-name="Caminho 8199" d="M2282.417,467.656l-2.808-2.808-1.079,1.079,2.809,2.808A6.08,6.08,0,0,1,2282.417,467.656Z" transform="translate(-2276.181 -456.799)" fill="#707070"/>
  <g id="Grupo_3636" data-name="Grupo 3636" transform="translate(6.44)">
    <path id="Caminho_8200" data-name="Caminho 8200" d="M2303.093,422.221l3.423-5.7,3.423,5.7Z" transform="translate(-2303.093 -416.521)" fill="#707070"/>
  </g>
</svg>
