<svg id="Componente_4_1" data-name="Componente 4 – 1" xmlns="http://www.w3.org/2000/svg" width="19.727" height="19.08" viewBox="0 0 19.727 19.08">
  <path id="Caminho_8201" data-name="Caminho 8201" d="M2288.324,572.776a5.538,5.538,0,0,1,5.532,5.532h1.526a7.059,7.059,0,0,0-14.117,0h1.526A5.538,5.538,0,0,1,2288.324,572.776Z" transform="translate(-2278.461 -568.445)" fill="#707070"/>
  <rect id="Retângulo_2957" data-name="Retângulo 2957" width="17.07" height="1.526" transform="translate(1.329 9.101)" fill="#707070"/>
  <rect id="Retângulo_2958" data-name="Retângulo 2958" width="19.727" height="1.526" transform="translate(0 9.101)" fill="#707070"/>
  <path id="Caminho_8202" data-name="Caminho 8202" d="M2319.418,558.422a6.747,6.747,0,0,1,1.17.1v-4.117h-1.526v4.035C2319.18,558.434,2319.3,558.422,2319.418,558.422Z" transform="translate(-2309.962 -554.408)" fill="#707070"/>
  <path id="Caminho_8203" data-name="Caminho 8203" d="M2345.6,572.559l2.964-2.964-1.079-1.079-2.957,2.956A5.573,5.573,0,0,1,2345.6,572.559Z" transform="translate(-2331.184 -566.166)" fill="#707070"/>
  <path id="Caminho_8204" data-name="Caminho 8204" d="M2282.417,571.324l-2.808-2.808-1.079,1.079,2.809,2.809A6.086,6.086,0,0,1,2282.417,571.324Z" transform="translate(-2276.181 -566.166)" fill="#707070"/>
  <g id="Grupo_3638" data-name="Grupo 3638" transform="translate(6.44 9.95)">
    <path id="Caminho_8205" data-name="Caminho 8205" d="M2309.939,634.74l-3.423,5.7-3.423-5.7Z" transform="translate(-2303.093 -631.31)" fill="#707070"/>
    <rect id="Retângulo_2959" data-name="Retângulo 2959" width="1.526" height="6.782" transform="translate(2.66)" fill="#707070"/>
  </g>
</svg>
