<svg id="Componente_5_1" data-name="Componente 5 – 1" xmlns="http://www.w3.org/2000/svg" width="19.924" height="13.715" viewBox="0 0 19.924 13.715">
  <path id="Caminho_8207" data-name="Caminho 8207" d="M2273.705,852.966h-9.465V851.44h9.465a1.557,1.557,0,0,0,0-3.114,1.184,1.184,0,0,0-1.183,1.183H2271a2.712,2.712,0,0,1,2.709-2.709,3.083,3.083,0,0,1,0,6.167Z" transform="translate(-2264.24 -846.799)" fill="#707070"/>
  <path id="Caminho_8208" data-name="Caminho 8208" d="M2287.117,898.276a2.713,2.713,0,0,1-2.709-2.71h1.527a1.184,1.184,0,0,0,1.183,1.183,1.557,1.557,0,0,0,0-3.115h-6.786v-1.527h6.786a3.084,3.084,0,0,1,0,6.168Z" transform="translate(-2277.648 -884.561)" fill="#707070"/>
  <path id="Caminho_8209" data-name="Caminho 8209" d="M2343.924,862.614h-4.28v-1.526h4.28a1.557,1.557,0,0,0,0-3.114,1.184,1.184,0,0,0-1.183,1.182h-1.526a2.712,2.712,0,0,1,2.709-2.708,3.083,3.083,0,0,1,0,6.167Z" transform="translate(-2327.084 -854.84)" fill="#707070"/>
</svg>
