<svg xmlns="http://www.w3.org/2000/svg" width="58.839" height="130.894" viewBox="0 0 58.839 130.894">
  <g id="Group_65" data-name="Group 65" transform="translate(-741.177 -608.981)">
    <g id="Group_7" data-name="Group 7" transform="translate(741.177 608.981)">
      <g id="Group_6" data-name="Group 6">
        <g id="Group_5" data-name="Group 5">
          <g id="Group_4" data-name="Group 4">
            <path id="Path_2" data-name="Path 2" d="M270.71,813.851a25.332,25.332,0,0,0,47.577,7.756,2.037,2.037,0,0,1,3.617,1.876,29.407,29.407,0,0,1-55.558-13.461V737.965a29.419,29.419,0,1,1,58.837,0V804.67c.057,10.44-5.1,13.052-9.442,13.4-3.136.256-5.876-.534-9.839-5.244l-3.977-5.762h.062c2.8.016,4.028.134,7.033,3.139,3.741,3.741,4.994,3.918,6.391,3.806,3.92-.318,5.731-3.28,5.7-9.321V737.965a25.344,25.344,0,1,0-50.689,0v70.643A46.006,46.006,0,0,0,270.71,813.851Z" transform="translate(-266.347 -708.546)" fill="#3b302a"/>
          </g>
        </g>
      </g>
    </g>
    <g id="Group_19" data-name="Group 19" transform="translate(742.766 647.149)">
      <g id="Group_18" data-name="Group 18" transform="translate(0)">
        <g id="Group_16" data-name="Group 16">
          <path id="Path_5" data-name="Path 5" d="M304.98,819.8a3.709,3.709,0,0,1-2.679-1.127l-3.291-3.319a.753.753,0,0,1,1.07-1.061l3.291,3.318a2.539,2.539,0,0,0,3.58-.14c.382-.371,1.5-1.716-.147-3.445a.749.749,0,0,1-.2-.407l-5.6-5.75a.754.754,0,0,1,1.08-1.051l6.589,6.769a2.574,2.574,0,0,0,3.635-.208,2.272,2.272,0,0,0-.062-3.47l-.025-.026-5.994-6.181a.724.724,0,0,1-.049-.055l-.4-.41a.753.753,0,0,1,1.082-1.049l6.44,6.645.024.025c1.069,1.086,2.28,1.181,3.244.254a2.667,2.667,0,0,0,.261-3.726l-12.788-13.406a.753.753,0,1,1,1.09-1.04l11.708,12.273,3.034-3.03c3.431-3.426,5.037-10.009-1.73-17.284A20.449,20.449,0,0,0,313.3,779c-2.423-1.359-9.2-2.915-13.542,1.315l-9.925,9.877c-.6.6-.409.953-.113,1.251,1.059,1.07,4.478,1.6,6.561-.448l2.5-2.466.023-.021c2-1.817,4.24-1.141,6.4-.488,2.424.733,4.931,1.49,7.767-.748a.754.754,0,0,1,.934,1.183c-3.453,2.724-6.6,1.772-9.137,1.007-2.213-.669-3.638-1.02-4.942.152l-2.49,2.454c-2.677,2.639-7.049,2.091-8.69.435a2.246,2.246,0,0,1,.121-3.379l6.773-6.74-1.693-1.684c-3.831-3.73-10.8-4.872-17.029,1.448-4.216,4.276-6.373,11.258-1.144,16.479l3.3,3.3A.753.753,0,1,1,277.913,803l-3.3-3.3a11.32,11.32,0,0,1-3.441-9.656,15.719,15.719,0,0,1,4.576-8.947c5.028-5.1,13.223-7.241,19.158-1.464l1.7,1.7,2.09-2.08c4.955-4.823,12.606-3.087,15.337-1.555a21.923,21.923,0,0,1,5.219,4.188c5.057,5.436,7.541,13.536,1.692,19.377l-3.059,3.053.04.042a4.176,4.176,0,0,1-.307,5.853,3.564,3.564,0,0,1-3.062,1.006,3.805,3.805,0,0,1-1.2,3.254,4.369,4.369,0,0,1-4.19,1.147,3.723,3.723,0,0,1-1.17,2.945A4.414,4.414,0,0,1,304.98,819.8Z" transform="translate(-269.912 -774.941)" fill="#3b3029"/>
          <path id="Path_6" data-name="Path 6" d="M304.143,820.147a4.844,4.844,0,0,1-3.5-1.471l-3.292-3.319a1.918,1.918,0,0,1,2.723-2.7l3.291,3.319a1.4,1.4,0,0,0,1.942-.155c.71-.69.278-1.328-.179-1.808a1.907,1.907,0,0,1-.389-.6l-5.4-5.546a1.922,1.922,0,0,1,.037-2.712,1.9,1.9,0,0,1,1.336-.544h.027a1.9,1.9,0,0,1,1.347.578l6.591,6.771c.587.6,1.516.227,1.989-.232a1.155,1.155,0,0,0-.093-1.831l-6.013-6.2c-.027-.027-.052-.056-.077-.084l-.37-.382a1.918,1.918,0,0,1,2.754-2.669l6.44,6.646c.915.93,1.412.453,1.625.25a1.536,1.536,0,0,0,.226-2.084l-12.789-13.405a1.923,1.923,0,0,1-.068-2.572c-1.326-.331-1.934-.272-2.533.267l-2.452,2.418c-3.015,2.971-8.119,2.662-10.333.425a3.407,3.407,0,0,1,.127-5.025l5.943-5.914-.864-.859c-4.89-4.762-11.4-2.594-15.379,1.439-3.825,3.88-5.817,10.178-1.15,14.838l3.3,3.3a1.917,1.917,0,0,1-1.353,3.275h0a1.9,1.9,0,0,1-1.354-.56l-3.3-3.3a12.449,12.449,0,0,1-3.773-10.621,16.9,16.9,0,0,1,4.9-9.624c5.432-5.51,14.32-7.787,20.8-1.481l.892.889,1.269-1.263c5.429-5.286,13.759-3.411,16.727-1.746a23.089,23.089,0,0,1,5.5,4.411,19.676,19.676,0,0,1,5.234,10.153,12.2,12.2,0,0,1-3.572,10.839l-2.34,2.336a5.446,5.446,0,0,1-1,6.629,4.847,4.847,0,0,1-2.719,1.339,5.116,5.116,0,0,1-1.537,2.918,5.714,5.714,0,0,1-3.932,1.628h-.015a5.041,5.041,0,0,1-1.412,2.463A5.555,5.555,0,0,1,304.143,820.147Zm2.064-29.711,9.822,10.3,2.192-2.188c4.9-4.9,2.115-11.5-1.761-15.668a19.258,19.258,0,0,0-4.569-3.677c-1.864-1.045-8.206-2.717-12.162,1.134l-9.72,9.673a4.273,4.273,0,0,0,4.613-.657l2.5-2.465.05-.048c2.5-2.267,5.287-1.424,7.528-.747,2.335.7,4.35,1.315,6.709-.548a1.918,1.918,0,0,1,2.376,3.011A8.934,8.934,0,0,1,306.207,790.436Z" transform="translate(-269.076 -774.12)" fill="#3b3029"/>
        </g>
        <g id="Group_17" data-name="Group 17" transform="translate(4.686 21.992)">
          <path id="Path_7" data-name="Path 7" d="M298.611,840.254a3.784,3.784,0,0,1-2.7-1.109l-.351-.352a3.784,3.784,0,0,1-1.112-2.694,3.908,3.908,0,0,1,.034-.517,3.815,3.815,0,0,1-3.688-.985l-.352-.352a3.809,3.809,0,0,1-1.082-3.2,3.844,3.844,0,0,1-1.117.164,3.785,3.785,0,0,1-2.7-1.11l-.351-.352a3.784,3.784,0,0,1-1.112-2.694,3.888,3.888,0,0,1,.068-.725,3.874,3.874,0,0,1-.868.1h0a3.784,3.784,0,0,1-2.7-1.111l-.352-.351a3.818,3.818,0,0,1,0-5.392l4.554-4.556a3.785,3.785,0,0,1,2.7-1.112h0a3.789,3.789,0,0,1,2.7,1.112l.351.352a3.775,3.775,0,0,1,1.108,2.544l.811-.81a3.817,3.817,0,0,1,5.392,0l.352.352a3.811,3.811,0,0,0,2.613,6.427l.352.352a3.809,3.809,0,0,0,2.846,6.116l.352.352a3.827,3.827,0,0,1,0,5.392l-3.054,3.054a3.785,3.785,0,0,1-2.7,1.109Zm2.7-9.513a2.289,2.289,0,0,0-1.63.671l-3.054,3.054a2.319,2.319,0,0,0,0,3.261l.352.352a2.287,2.287,0,0,0,1.63.668h0a2.287,2.287,0,0,0,1.63-.668l3.054-3.054a2.32,2.32,0,0,0,0-3.261l-.352-.351a2.29,2.29,0,0,0-1.63-.672Zm-3.2-6.47a2.3,2.3,0,0,0-1.63.674l-4.974,4.974a2.309,2.309,0,0,0,0,3.261l.352.351a2.309,2.309,0,0,0,3.261,0l4.974-4.974a2.317,2.317,0,0,0,0-3.261l-.352-.352A2.3,2.3,0,0,0,298.116,824.272Zm-2.964-6.779a2.3,2.3,0,0,0-1.631.675l-7.255,7.255a2.318,2.318,0,0,0,0,3.26l.352.352a2.321,2.321,0,0,0,3.261,0l7.255-7.255a2.308,2.308,0,0,0,0-3.261l-.352-.352A2.3,2.3,0,0,0,295.151,817.492Zm-7.663-2.081a2.288,2.288,0,0,0-1.629.671l-4.555,4.556a2.309,2.309,0,0,0,0,3.261l.351.352a2.288,2.288,0,0,0,1.63.669h0a2.288,2.288,0,0,0,1.63-.669l4.554-4.556a2.321,2.321,0,0,0,0-3.261l-.352-.352a2.289,2.289,0,0,0-1.63-.671Z" transform="translate(-277.961 -812.739)" fill="#3b3029"/>
          <path id="Path_8" data-name="Path 8" d="M297.773,840.582a4.936,4.936,0,0,1-3.516-1.45l-.352-.352a4.931,4.931,0,0,1-1.394-2.744,4.987,4.987,0,0,1-3.372-1.453l-.352-.352a4.935,4.935,0,0,1-1.391-2.694,4.94,4.94,0,0,1-3.5-1.452l-.351-.351a4.928,4.928,0,0,1-1.425-2.991,4.936,4.936,0,0,1-3.184-1.44l-.352-.353a4.982,4.982,0,0,1,0-7.036l4.553-4.556a4.986,4.986,0,0,1,7.04,0l.35.351a4.937,4.937,0,0,1,.889,1.209,4.983,4.983,0,0,1,6.421.524l.352.352a4.971,4.971,0,0,0,2.613,6.427l.351.352a4.939,4.939,0,0,1,1.454,3.52,5.019,5.019,0,0,1-.232,1.515A4.964,4.964,0,0,1,304,828.688l.35.352a4.989,4.989,0,0,1,0,7.038l-3.054,3.053a4.936,4.936,0,0,1-3.518,1.45v0Zm2.7-9.513a1.129,1.129,0,0,0-.806.33l-3.055,3.054a1.117,1.117,0,0,0-.329.808,1.137,1.137,0,0,0,.329.807l.351.35a1.18,1.18,0,0,0,1.614,0l3.055-3.055a1.157,1.157,0,0,0,0-1.615l-.35-.35a1.132,1.132,0,0,0-.808-.331Zm-3.2-6.47a1.133,1.133,0,0,0-.807.333l-4.974,4.974a1.144,1.144,0,0,0,0,1.615l.351.35a1.143,1.143,0,0,0,1.615,0l4.974-4.974a1.153,1.153,0,0,0,0-1.614l-.352-.352A1.136,1.136,0,0,0,297.28,824.6Zm-2.964-6.779a1.137,1.137,0,0,0-.808.334l-7.254,7.255a1.113,1.113,0,0,0-.329.807,1.132,1.132,0,0,0,.329.807l.352.353a1.189,1.189,0,0,0,1.613,0l7.255-7.255a1.144,1.144,0,0,0,0-1.615l-.35-.351A1.134,1.134,0,0,0,294.316,817.82Zm-7.663-2.081a1.119,1.119,0,0,0-.807.33l-4.553,4.556a1.143,1.143,0,0,0,0,1.615l.352.352a1.174,1.174,0,0,0,1.614,0l4.553-4.556a1.118,1.118,0,0,0,.329-.808,1.133,1.133,0,0,0-.328-.807l-.352-.352a1.132,1.132,0,0,0-.807-.33Z" transform="translate(-277.126 -811.903)" fill="#3b3029"/>
        </g>
      </g>
    </g>
    <g id="Group_60" data-name="Group 60" transform="translate(764.778 693.746)">
      <line id="Line_1" data-name="Line 1" x1="17.014" y1="17.811" transform="translate(2.037 2.037)" fill="#3b3029"/>
      <path id="Path_102" data-name="Path 102" d="M325.945,876.061a2.034,2.034,0,0,1-1.474-.63l-17.014-17.81a2.038,2.038,0,1,1,2.947-2.815l17.014,17.81a2.037,2.037,0,0,1-1.473,3.445Z" transform="translate(-306.893 -854.175)" fill="#3b3029"/>
    </g>
  </g>
</svg>
