<svg xmlns="http://www.w3.org/2000/svg" xmlns:xlink="http://www.w3.org/1999/xlink" width="340.29" height="245.783" viewBox="0 0 340.29 245.783">
  <defs>
    <linearGradient id="linear-gradient" x1="-0.209" y1="-0.114" x2="1.586" y2="1.441" gradientUnits="objectBoundingBox">
      <stop offset="0.003" stop-color="#786860"/>
      <stop offset="0.354" stop-color="#796962"/>
      <stop offset="0.508" stop-color="#7f7069"/>
      <stop offset="0.623" stop-color="#897c75"/>
      <stop offset="0.72" stop-color="#988c87"/>
      <stop offset="0.804" stop-color="#aba19f"/>
      <stop offset="0.88" stop-color="#c2bcbb"/>
      <stop offset="0.948" stop-color="#dddadd"/>
      <stop offset="1" stop-color="#f6f7fc"/>
    </linearGradient>
  </defs>
  <g id="Group_3294" data-name="Group 3294" transform="translate(-363.461 -113.993)">
    <g id="Group_3244" data-name="Group 3244" transform="translate(690.536 153.395)">
      <g id="Group_3243" data-name="Group 3243">
        <g id="Group_3242" data-name="Group 3242">
          <path id="Path_5266" data-name="Path 5266" d="M809.085,169.894a2.594,2.594,0,1,1-3.314,1.573A2.6,2.6,0,0,1,809.085,169.894Zm-1.5,4.2a1.865,1.865,0,1,0-1.131-2.383A1.868,1.868,0,0,0,807.589,174.1Z" transform="translate(-805.621 -169.744)" fill="#5e7ae4"/>
        </g>
      </g>
    </g>
    <g id="Group_3249" data-name="Group 3249" transform="translate(655.262 151.361)">
      <g id="Group_3245" data-name="Group 3245" transform="translate(2.258 1.066)">
        <path id="Path_5267" data-name="Path 5267" d="M762.465,169.175l-.879.281a.4.4,0,1,1-.241-.753l.878-.281a.4.4,0,0,1,.242.753Z" transform="translate(-761.07 -168.403)" fill="#5e7ae4"/>
      </g>
      <g id="Group_3246" data-name="Group 3246" transform="translate(0 1.79)">
        <path id="Path_5268" data-name="Path 5268" d="M759.338,170.177l-.878.282a.4.4,0,0,1-.241-.753l.878-.282a.4.4,0,0,1,.241.754Z" transform="translate(-757.944 -169.405)" fill="#5e7ae4"/>
      </g>
      <g id="Group_3247" data-name="Group 3247" transform="translate(1.79 2.259)">
        <path id="Path_5269" data-name="Path 5269" d="M761.219,171.705a.4.4,0,0,1-.5-.256l-.281-.878a.395.395,0,1,1,.752-.241l.282.878A.4.4,0,0,1,761.219,171.705Z" transform="translate(-760.421 -170.055)" fill="#5e7ae4"/>
      </g>
      <g id="Group_3248" data-name="Group 3248" transform="translate(1.066)">
        <path id="Path_5270" data-name="Path 5270" d="M760.217,168.578a.4.4,0,0,1-.5-.256l-.281-.878a.395.395,0,1,1,.752-.241l.282.878A.4.4,0,0,1,760.217,168.578Z" transform="translate(-759.419 -166.928)" fill="#5e7ae4"/>
      </g>
    </g>
    <g id="Group_3254" data-name="Group 3254" transform="translate(627.426 179.06)">
      <g id="Group_3250" data-name="Group 3250" transform="translate(0 1.764)">
        <path id="Path_5271" data-name="Path 5271" d="M720.483,208.316l.754-.532a.4.4,0,0,1,.456.646l-.754.532a.4.4,0,0,1-.456-.646Z" transform="translate(-720.316 -207.711)" fill="#3cd3b6"/>
      </g>
      <g id="Group_3251" data-name="Group 3251" transform="translate(1.937 0.395)">
        <path id="Path_5272" data-name="Path 5272" d="M723.165,206.421l.753-.532a.4.4,0,1,1,.457.645l-.753.532a.4.4,0,0,1-.457-.646Z" transform="translate(-722.998 -205.816)" fill="#3cd3b6"/>
      </g>
      <g id="Group_3252" data-name="Group 3252" transform="translate(0.395)">
        <path id="Path_5273" data-name="Path 5273" d="M721.03,205.342a.4.4,0,0,1,.551.095l.533.753a.4.4,0,1,1-.646.456l-.533-.754A.4.4,0,0,1,721.03,205.342Z" transform="translate(-720.863 -205.27)" fill="#3cd3b6"/>
      </g>
      <g id="Group_3253" data-name="Group 3253" transform="translate(1.764 1.937)">
        <path id="Path_5274" data-name="Path 5274" d="M722.925,208.024a.4.4,0,0,1,.551.095l.532.754a.4.4,0,0,1-.646.456l-.532-.753A.4.4,0,0,1,722.925,208.024Z" transform="translate(-722.757 -207.951)" fill="#3cd3b6"/>
      </g>
    </g>
    <g id="Group_3255" data-name="Group 3255" transform="translate(699.362 187.453)">
      <path id="Path_5275" data-name="Path 5275" d="M818.079,220.5a2.2,2.2,0,1,1,3.095.254A2.2,2.2,0,0,1,818.079,220.5Zm2.614-2.218a1.232,1.232,0,1,0-.142,1.737A1.234,1.234,0,0,0,820.693,218.284Z" transform="translate(-817.559 -216.887)" fill="#4b3f37"/>
    </g>
    <g id="Group_3259" data-name="Group 3259" transform="translate(599.824 135.067)">
      <g id="Group_3256" data-name="Group 3256" transform="translate(41.686 39.92)">
        <path id="Path_5276" data-name="Path 5276" d="M740.095,231.269l2.83-15.644c.049.042.1.076.152.118,1.6,1.4,3.044,2.926,4.518,4.38a.579.579,0,0,0,.151.281,9.328,9.328,0,0,1,2.682,4.233c.284,1.219.32,2.471.635,3.689.952,3.666,3.345,6.791,7.13,7.705a.573.573,0,0,0,.281-1.11c-4.1-.991-6.145-4.842-6.675-8.775a11.612,11.612,0,0,0-.774-2.971,17.1,17.1,0,0,0,5.027,2.729c.7.233.98-.877.282-1.112-5.612-1.866-8.835-6.812-13.17-10.483l.005-.028a11.754,11.754,0,0,0,3.306-.227c2.723-.573,5.846-2.679,8.448-.665.576.446,1.393-.358.811-.81-2.158-1.668-4.492-1.235-6.923-.436a15.726,15.726,0,0,1-5.424.934l2.433-13.447c3.655,1.193,7.668-1.566,14.922,7.712,3.254,4.159,10.389,14.069,13.465,15.608,3.008,1.277,9.262,4.911,8.561,8.407-1.16,5.794-9.174,3.167-12.336,5.261-11.469,7.584-23.146.576-27.03-2.906A20.167,20.167,0,0,0,740.095,231.269Z" transform="translate(-740.095 -199.632)" fill="#fbda70"/>
        <path id="Path_5277" data-name="Path 5277" d="M744.348,218.819l.218-1.2a15.725,15.725,0,0,0,5.424-.934c2.431-.8,4.765-1.232,6.923.436.582.452-.236,1.256-.811.81-2.6-2.013-5.725.092-8.448.665A11.754,11.754,0,0,1,744.348,218.819Z" transform="translate(-741.275 -204.168)" fill="#fff"/>
        <path id="Path_5278" data-name="Path 5278" d="M752.149,233.966c-.315-1.218-.351-2.47-.635-3.689a9.327,9.327,0,0,0-2.682-4.233.58.58,0,0,1-.151-.281c-1.475-1.454-2.917-2.978-4.518-4.38-.049-.043-.1-.077-.152-.118l.238-1.313c4.335,3.671,7.558,8.617,13.17,10.483.7.235.419,1.344-.282,1.112a17.1,17.1,0,0,1-5.027-2.729,11.611,11.611,0,0,1,.774,2.971c.53,3.933,2.576,7.783,6.675,8.775a.573.573,0,0,1-.281,1.11C755.494,240.757,753.1,237.632,752.149,233.966Z" transform="translate(-741.182 -205.272)" fill="#fff"/>
      </g>
      <g id="Group_3257" data-name="Group 3257" transform="translate(13.159 4.785)">
        <path id="Path_5279" data-name="Path 5279" d="M780.954,173.68c-5.985,12.378-19.6,12.319-24.72,11.309-11.788-2.331-15.493,5.808-16.637,9.257a14.219,14.219,0,0,1-4.621,5.769l-24.3-15.146c1.016-.316,2.026-.643,3.018-.991a31.251,31.251,0,0,0,7.335-3.777c.525-.361,1.031-.747,1.525-1.146a.57.57,0,0,0,.263-.155c.16-.164.324-.318.488-.467l.26-.22c5.57-4.7,12.972-.631,15.57,5.6.282.673,1.384.36,1.1-.324a14,14,0,0,0-7.742-7.916,9.5,9.5,0,0,0-5.662-.337c.406-.374.817-.746,1.233-1.107,2.292-1.992,5.765-2.8,8.637-3.609a27.28,27.28,0,0,1,4.242-.857.447.447,0,0,0,.061.009,10.988,10.988,0,0,0,2.024-.152,18.46,18.46,0,0,1,3.74.294c2.093.388,4.11.96,6.122,1.456a.572.572,0,0,0,.273.165,9.323,9.323,0,0,1,4.468,2.269c.867.9,1.537,1.961,2.431,2.846,2.69,2.666,6.344,4.13,10.066,2.983a.573.573,0,0,0-.327-1.1c-4.03,1.241-7.756-1.023-10.22-4.134a11.639,11.639,0,0,0-2.184-2.159,17.08,17.08,0,0,0,5.717-.22c.721-.158.394-1.256-.327-1.1-5.778,1.263-11.076-1.344-16.679-2.284a.215.215,0,0,1-.044-.007,11.826,11.826,0,0,0,2.762-1.9c2.048-1.883,3.658-5.289,6.923-4.888.722.09,1.014-1.019.283-1.111-2.708-.331-4.493,1.234-6.173,3.164-1.931,2.214-4.046,3.994-6.806,4.552a28.5,28.5,0,0,0-5.2.707,37.774,37.774,0,0,0-8.044,2.615c-2.581,1.232-4.619,3.463-6.674,5.415a11.143,11.143,0,0,0-1.072.957,29.26,29.26,0,0,1-6.913,4.142,37.621,37.621,0,0,1-4.521,1.568,12.745,12.745,0,0,0,3.5-8.2,12.039,12.039,0,0,0-.376-3.588c-.428-1.718-1.4-3.246-1.585-5.034-.4-3.925,3.9-5.175,6.608-6.617.652-.347.053-1.325-.6-.98-2.312,1.235-4.93,2.01-6.368,4.361-1.793,2.924.027,5.727.84,8.594a10.963,10.963,0,0,1-3.887,11.5l-8.139-5.074c-.252-6.342,1.331-12.552,4.847-17.24,13.052-17.4,25.214-7.882,33.488-6.823,5.264.674,6-6.019,18.7-1.081,4.923,1.914,16.119,6.788,19.55,6.539,3.238-.438,10.47-.509,11.654,2.853C790.833,168.428,782.6,170.264,780.954,173.68Z" transform="translate(-700.607 -150.997)" fill="#ff9975"/>
        <path id="Path_5280" data-name="Path 5280" d="M745.336,178.432c-2.529.7-5.273,1.539-7.191,3.206-.415.361-.827.733-1.232,1.107a9.5,9.5,0,0,1,5.662.337,11.308,11.308,0,0,1,1.852.9c.069-.267.138-.549.217-.873A24.361,24.361,0,0,0,745.336,178.432Z" transform="translate(-710.684 -158.612)" fill="#225d6b"/>
        <path id="Path_5281" data-name="Path 5281" d="M731.28,196.255a37.727,37.727,0,0,0-4.134,6.1l-12.6-7.854c1.016-.316,2.027-.643,3.018-.991a31.249,31.249,0,0,0,7.335-3.777c.525-.361,1.031-.747,1.525-1.146a.569.569,0,0,0,.263-.155c.16-.164.324-.318.488-.467l.26-.22c3.3-2.781,7.229-2.478,10.433-.485a9.233,9.233,0,0,1-1.519,2.92C734.872,192.34,732.952,194.245,731.28,196.255Z" transform="translate(-704.476 -160.633)" fill="#225d6b"/>
        <path id="Path_5282" data-name="Path 5282" d="M723.139,176.976a11.137,11.137,0,0,0-1.072.957,29.26,29.26,0,0,1-6.913,4.142,37.613,37.613,0,0,1-4.521,1.568,12.745,12.745,0,0,0,3.5-8.2,12.039,12.039,0,0,0-.376-3.588c-.428-1.718-1.4-3.246-1.585-5.034-.4-3.925,3.9-5.175,6.608-6.617.652-.347.053-1.325-.6-.98-2.312,1.235-4.93,2.01-6.368,4.361-1.793,2.924.027,5.727.84,8.594a10.963,10.963,0,0,1-3.887,11.5l-8.139-5.074c-.252-6.341,1.331-12.552,4.847-17.24,9.73-12.971,18.962-10.985,26.463-8.692,1.13,4.522,2.3,9.038,3.046,13.647a22.274,22.274,0,0,1,.29,3.268,33.446,33.446,0,0,0-5.466,1.971C727.232,172.793,725.194,175.024,723.139,176.976Z" transform="translate(-700.607 -150.997)" fill="#4b3f37"/>
        <path id="Path_5283" data-name="Path 5283" d="M763.2,179.577c-.894-.885-1.564-1.943-2.431-2.846a9.322,9.322,0,0,0-4.467-2.269.571.571,0,0,1-.273-.165c-2.012-.5-4.029-1.068-6.122-1.456a18.46,18.46,0,0,0-3.74-.294,10.984,10.984,0,0,1-2.023.152.448.448,0,0,1-.061-.009,27.279,27.279,0,0,0-4.242.857c-2.872.811-6.346,1.617-8.637,3.609-.415.361-.826.733-1.232,1.107a9.5,9.5,0,0,1,5.662.337,14,14,0,0,1,7.742,7.916c.283.683-.82,1-1.1.324-2.6-6.228-10-10.3-15.571-5.6l-.26.22c-.163.15-.328.3-.488.467a.569.569,0,0,1-.263.155c-.494.4-1,.785-1.525,1.146a31.246,31.246,0,0,1-7.335,3.777c-.992.348-2,.675-3.018.991l-1.906-1.187a10.963,10.963,0,0,0,3.888-11.5c-.813-2.867-2.633-5.67-.84-8.594,1.438-2.351,4.057-3.126,6.368-4.361.649-.345,1.248.632.6.98-2.7,1.442-7.009,2.692-6.608,6.617.181,1.788,1.157,3.316,1.585,5.034a12.039,12.039,0,0,1,.376,3.588,12.744,12.744,0,0,1-3.5,8.2,37.619,37.619,0,0,0,4.521-1.568,29.265,29.265,0,0,0,6.913-4.142,11.139,11.139,0,0,1,1.072-.957c2.055-1.951,4.093-4.183,6.674-5.415a37.777,37.777,0,0,1,8.044-2.615,28.5,28.5,0,0,1,5.2-.707c2.76-.558,4.875-2.338,6.806-4.552,1.68-1.93,3.466-3.494,6.173-3.164.731.092.439,1.2-.283,1.111-3.265-.4-4.875,3-6.923,4.888a11.824,11.824,0,0,1-2.762,1.9.219.219,0,0,0,.044.007c5.6.941,10.9,3.547,16.679,2.284.72-.156,1.048.941.327,1.1a17.08,17.08,0,0,1-5.717.22,11.647,11.647,0,0,1,2.184,2.159c2.464,3.112,6.19,5.376,10.22,4.134a.573.573,0,0,1,.326,1.1C769.547,183.707,765.893,182.243,763.2,179.577Z" transform="translate(-703.744 -154.129)" fill="#fff"/>
      </g>
      <g id="Group_3258" data-name="Group 3258" transform="translate(0 0)">
        <path id="Path_5284" data-name="Path 5284" d="M710.469,186.051l-12.226-7.621c.847-.561,1.7-1.108,2.533-1.666a.568.568,0,0,0,.305-.09,9.318,9.318,0,0,1,4.689-1.766c1.251-.031,2.484.187,3.742.126,3.782-.189,7.328-1.9,8.992-5.42a.573.573,0,0,0-1.03-.5c-1.8,3.813-5.988,5.036-9.946,4.756a11.624,11.624,0,0,0-3.067.156,17.084,17.084,0,0,0,3.693-4.369c.37-.64-.66-1.139-1.031-.5-2.321,4-6.19,6.194-9.907,8.634l-2.623-1.635c-.144-2.695-1.281-5.911,1.076-7.929.553-.474-.069-1.437-.628-.959-2.071,1.776-2.12,4.15-1.83,6.691.053.475.09.943.116,1.409l-10.935-6.817c1.082-2.2,3.244-4.63,8.537-7.249,4.733-2.343,15.883-7.32,18.013-10.021,1.861-2.686,6.688-8.075,9.968-6.679,5.439,2.31,1.242,9.626,2.651,13.147,5.1,12.769-4.129,22.781-8.327,25.877A20.649,20.649,0,0,0,710.469,186.051Z" transform="translate(-682.392 -144.374)" fill="#fbda70"/>
        <path id="Path_5285" data-name="Path 5285" d="M698.7,184.9l-1.266-.789c-.026-.465-.063-.934-.116-1.409-.29-2.542-.241-4.915,1.83-6.691.56-.478,1.181.485.629.959C697.419,178.99,698.557,182.206,698.7,184.9Z" transform="translate(-686.5 -153.12)" fill="#fff"/>
        <path id="Path_5286" data-name="Path 5286" d="M715.208,184.417c-1.257.061-2.49-.157-3.741-.126a9.318,9.318,0,0,0-4.689,1.766.569.569,0,0,1-.306.09c-.837.558-1.686,1.1-2.533,1.666l-1.028-.64c3.718-2.44,7.587-4.631,9.907-8.634.371-.637,1.4-.139,1.031.5a17.086,17.086,0,0,1-3.693,4.369,11.627,11.627,0,0,1,3.067-.156c3.958.28,8.144-.944,9.946-4.756a.573.573,0,0,1,1.03.5C722.535,182.519,718.989,184.229,715.208,184.417Z" transform="translate(-688.087 -153.758)" fill="#fff"/>
      </g>
    </g>
    <g id="Group_3264" data-name="Group 3264" transform="translate(363.461 146.588)">
      <g id="Group_3260" data-name="Group 3260" transform="translate(30.676 0)">
        <path id="Path_5287" data-name="Path 5287" d="M450.27,177.739l-8.336,15.133c-.035-.06-.079-.113-.114-.175-1.164-2-2.122-4.068-3.137-6.077a.624.624,0,0,0-.059-.342,10.138,10.138,0,0,1-1.3-5.289c.131-1.355.527-2.656.624-4.02.29-4.106-1.092-8.154-4.674-10.407a.622.622,0,0,0-.674,1.045c3.879,2.442,4.652,7.117,3.835,11.352a12.607,12.607,0,0,0-.232,3.328,18.558,18.558,0,0,0-4.232-4.553c-.642-.483-1.314.563-.675,1.047,5.134,3.867,6.74,10.078,9.933,15.362l-.015.027a12.79,12.79,0,0,0-3.484-.912c-3-.353-6.95.734-8.932-2.242-.439-.659-1.559-.113-1.117.553,1.645,2.466,4.2,2.828,6.98,2.847a17.114,17.114,0,0,1,5.911.917l-7.166,13.009c-3.351-2.5-8.441-1.045-12.7-13.114-1.911-5.412-5.826-18.092-8.463-20.743-2.655-2.357-7.838-8.268-5.906-11.626,3.2-5.566,10.547-.084,14.53-1.145,14.442-3.838,24.041,7.427,26.835,12.359A22.02,22.02,0,0,0,450.27,177.739Z" transform="translate(-405.923 -160.321)" fill="#fbda70"/>
        <path id="Path_5288" data-name="Path 5288" d="M449.543,205.849l-.642,1.165a17.115,17.115,0,0,0-5.911-.917c-2.781-.019-5.335-.381-6.98-2.847-.442-.667.678-1.212,1.117-.553,1.982,2.976,5.929,1.888,8.932,2.242A12.791,12.791,0,0,1,449.543,205.849Z" transform="translate(-414.246 -172)" fill="#fff"/>
        <path id="Path_5289" data-name="Path 5289" d="M447.605,179.329c-.1,1.364-.493,2.666-.624,4.02a10.139,10.139,0,0,0,1.3,5.289.623.623,0,0,1,.059.342c1.015,2.009,1.973,4.078,3.137,6.077.035.061.079.115.114.175l-.7,1.271c-3.193-5.284-4.8-11.495-9.933-15.362-.639-.483.034-1.53.675-1.047a18.559,18.559,0,0,1,4.232,4.553,12.608,12.608,0,0,1,.232-3.328c.817-4.235.043-8.91-3.835-11.352a.622.622,0,0,1,.674-1.045C446.513,171.175,447.895,175.223,447.605,179.329Z" transform="translate(-415.575 -162.68)" fill="#fff"/>
      </g>
      <g id="Group_3261" data-name="Group 3261" transform="translate(0 12.8)">
        <path id="Path_5290" data-name="Path 5290" d="M378.519,179.841c14.584-3.252,23.722,8.39,26.313,13.431,5.967,11.616,15.4,9.281,19.111,7.929,1.854-.675,4.8-.681,8.032.045l3.489,30.92c-.954-.652-1.915-1.292-2.881-1.9a33.986,33.986,0,0,0-8.166-3.7c-.662-.2-1.332-.374-2.006-.526a.606.606,0,0,0-.31-.12c-.247-.025-.489-.061-.727-.1l-.363-.073c-7.76-1.576-9.289-10.627-5.735-17.043.382-.694-.629-1.422-1.019-.72a15.214,15.214,0,0,0-1.521,11.937,10.326,10.326,0,0,0,3.533,5.05c-.593-.093-1.187-.192-1.776-.3-3.243-.608-6.274-3.023-8.9-4.923A29.681,29.681,0,0,1,402,216.707c-.011-.02-.021-.039-.034-.058a11.923,11.923,0,0,0-1.495-1.622,20.113,20.113,0,0,1-2.273-3.385c-1.081-2.044-1.955-4.15-2.889-6.2a.615.615,0,0,0-.044-.343,10.126,10.126,0,0,1-1.081-5.337c.185-1.347.634-2.633.785-3.991.455-4.09-.762-8.192-4.251-10.589A.623.623,0,0,0,390,186.2c3.778,2.6,4.362,7.3,3.374,11.5a12.628,12.628,0,0,0-.366,3.317,18.561,18.561,0,0,0-4.045-4.721c-.621-.508-1.335.511-.717,1.02,4.975,4.071,6.329,10.343,9.306,15.751a.221.221,0,0,1,.025.041,12.883,12.883,0,0,0-3.486-1.068c-2.987-.474-6.974.453-8.835-2.6-.411-.675-1.552-.176-1.138.509,1.545,2.53,4.082,2.994,6.86,3.125,3.19.151,6.133.752,8.471,2.727a30.928,30.928,0,0,0,4.111,3.953,41.063,41.063,0,0,0,7.655,5.089c2.792,1.368,6.067,1.6,9.116,2.034a12.168,12.168,0,0,0,1.539.267,31.8,31.8,0,0,1,8.193,3.095,40.92,40.92,0,0,1,4.387,2.794,13.855,13.855,0,0,0-9.353,2.549,13.079,13.079,0,0,0-2.8,2.741c-1.175,1.524-1.818,3.386-3.218,4.746-3.074,2.99-7.044.165-10.1-1.165-.735-.322-1.164.848-.432,1.168,2.611,1.136,5.038,2.844,8.012,2.484,3.7-.446,4.86-3.887,6.755-6.514a11.912,11.912,0,0,1,12.422-4.449l1.169,10.358c-5.233,4.493-11.593,7.334-17.958,7.5-23.632.621-23.727-16.164-28.407-23.929-2.977-4.939-9.177-1.052-13.536-15.2-1.69-5.485-5.091-18.313-7.619-21.068-2.558-2.463-7.5-8.577-5.433-11.855C367.379,174.967,374.5,180.741,378.519,179.841Z" transform="translate(-363.461 -178.039)" fill="#ff9975"/>
        <path id="Path_5291" data-name="Path 5291" d="M402.871,198.473c-.151,1.358-.6,2.644-.785,3.991a10.126,10.126,0,0,0,1.081,5.337.615.615,0,0,1,.044.343c.934,2.05,1.808,4.155,2.889,6.2a20.117,20.117,0,0,0,2.273,3.385,11.92,11.92,0,0,1,1.495,1.622c.013.019.023.038.034.058a29.677,29.677,0,0,0,3.592,3.036c2.629,1.9,5.659,4.316,8.9,4.923.589.111,1.183.21,1.776.3a10.327,10.327,0,0,1-3.533-5.051,15.214,15.214,0,0,1,1.521-11.937c.391-.7,1.4.026,1.019.72-3.554,6.416-2.024,15.467,5.735,17.043l.363.073c.238.038.48.075.727.1a.606.606,0,0,1,.31.12c.674.152,1.344.321,2.006.526a33.988,33.988,0,0,1,8.166,3.7c.966.61,1.927,1.251,2.881,1.9l.274,2.424a11.912,11.912,0,0,0-12.422,4.449c-1.895,2.627-3.055,6.068-6.755,6.514-2.974.361-5.4-1.347-8.012-2.484-.732-.32-.3-1.49.432-1.168,3.053,1.33,7.023,4.155,10.1,1.165,1.4-1.36,2.044-3.223,3.218-4.746a13.08,13.08,0,0,1,2.8-2.741,13.855,13.855,0,0,1,9.353-2.549,40.911,40.911,0,0,0-4.387-2.794,31.8,31.8,0,0,0-8.193-3.095,12.172,12.172,0,0,1-1.539-.267c-3.049-.435-6.325-.666-9.116-2.034a41.06,41.06,0,0,1-7.655-5.089,30.922,30.922,0,0,1-4.111-3.953c-2.338-1.975-5.281-2.576-8.47-2.727-2.778-.131-5.315-.6-6.86-3.125-.415-.685.727-1.184,1.138-.509,1.861,3.053,5.849,2.126,8.835,2.6a12.882,12.882,0,0,1,3.486,1.068.221.221,0,0,0-.025-.041c-2.978-5.408-4.332-11.68-9.306-15.751-.618-.509.1-1.528.717-1.02a18.562,18.562,0,0,1,4.045,4.721,12.625,12.625,0,0,1,.366-3.317c.988-4.2.4-8.9-3.374-11.5a.623.623,0,0,1,.715-1.019C402.109,190.281,403.326,194.383,402.871,198.473Z" transform="translate(-371.364 -180.741)" fill="#fff"/>
      </g>
      <g id="Group_3262" data-name="Group 3262" transform="translate(71.79 51.419)">
        <path id="Path_5292" data-name="Path 5292" d="M468.566,241.771a5.153,5.153,0,1,0-5.7-4.543A5.153,5.153,0,0,0,468.566,241.771Z" transform="translate(-462.833 -231.496)" fill="none"/>
      </g>
      <g id="Group_3263" data-name="Group 3263" transform="translate(72.127 57.315)" style="mix-blend-mode: multiply;isolation: isolate">
        <path id="Path_5293" data-name="Path 5293" d="M467.152,240.193a3.674,3.674,0,0,1-3.851.541,5.14,5.14,0,0,0,7.653,2.479,13.047,13.047,0,0,0-1.4-1.785,6.576,6.576,0,0,0-1.539-1.411c-.26-.126-.261-.274-.226-.359A4.8,4.8,0,0,1,467.152,240.193Z" transform="translate(-463.301 -239.658)" fill="none"/>
      </g>
    </g>
    <path id="Path_5294" data-name="Path 5294" d="M440.581,176.479a9.228,9.228,0,0,0-1.177-.078C437.981,176.4,438.547,176.43,440.581,176.479Z" transform="translate(-20.86 -18.196)" fill="#aacaf9" style="mix-blend-mode: multiply;isolation: isolate"/>
    <g id="Group_3267" data-name="Group 3267" transform="translate(515.178 113.993)">
      <g id="Group_3266" data-name="Group 3266">
        <g id="Group_3265" data-name="Group 3265">
          <path id="Path_5295" data-name="Path 5295" d="M574.2,118.234a1.658,1.658,0,1,1,2.3-.444A1.662,1.662,0,0,1,574.2,118.234Zm1.451-2.144a.93.93,0,1,0,.249,1.292A.933.933,0,0,0,575.65,116.09Z" transform="translate(-573.47 -115.203)" fill="#786860"/>
        </g>
      </g>
    </g>
    <path id="Path_5296" data-name="Path 5296" d="M710.169,136.208a1.578,1.578,0,1,0-1.061-1.964A1.578,1.578,0,0,0,710.169,136.208Z" transform="translate(-95.923 -6.182)" fill="#786860"/>
    <g id="Group_3272" data-name="Group 3272" transform="translate(451.039 170.309)">
      <g id="Group_3268" data-name="Group 3268" transform="translate(0 0.246)">
        <path id="Path_5297" data-name="Path 5297" d="M485.332,193.584l.717.579a.4.4,0,0,1-.5.616l-.717-.58a.4.4,0,0,1,.5-.615Z" transform="translate(-484.688 -193.497)" fill="#f7c651"/>
      </g>
      <g id="Group_3269" data-name="Group 3269" transform="translate(1.845 1.737)">
        <path id="Path_5298" data-name="Path 5298" d="M487.886,195.647l.717.58a.4.4,0,0,1-.5.615l-.717-.579a.4.4,0,1,1,.5-.616Z" transform="translate(-487.242 -195.56)" fill="#f7c651"/>
      </g>
      <g id="Group_3270" data-name="Group 3270" transform="translate(1.737)">
        <path id="Path_5299" data-name="Path 5299" d="M488.315,193.243a.4.4,0,0,1,.059.556l-.579.717a.4.4,0,1,1-.615-.5l.579-.717A.4.4,0,0,1,488.315,193.243Z" transform="translate(-487.092 -193.156)" fill="#f7c651"/>
      </g>
      <g id="Group_3271" data-name="Group 3271" transform="translate(0.246 1.845)">
        <path id="Path_5300" data-name="Path 5300" d="M486.252,195.8a.4.4,0,0,1,.059.556l-.579.717a.4.4,0,1,1-.616-.5l.58-.717A.4.4,0,0,1,486.252,195.8Z" transform="translate(-485.029 -195.71)" fill="#f7c651"/>
      </g>
    </g>
    <path id="Path_5301" data-name="Path 5301" d="M384.2,166.9a2.207,2.207,0,1,1,1.483-2.746A2.208,2.208,0,0,1,384.2,166.9Z" transform="translate(-4.968 -14.36)" fill="#f7c651"/>
    <g id="Group_3277" data-name="Group 3277" transform="translate(557.138 122.064)">
      <g id="Group_3273" data-name="Group 3273" transform="translate(0 1.764)">
        <path id="Path_5302" data-name="Path 5302" d="M631.719,129.42l.754-.532a.395.395,0,1,1,.456.645l-.754.532a.4.4,0,0,1-.457-.646Z" transform="translate(-631.552 -128.816)" fill="#4b3f37"/>
      </g>
      <g id="Group_3274" data-name="Group 3274" transform="translate(1.937 0.395)">
        <path id="Path_5303" data-name="Path 5303" d="M634.4,127.526l.753-.532a.4.4,0,0,1,.457.646l-.753.532a.4.4,0,1,1-.457-.646Z" transform="translate(-634.234 -126.921)" fill="#4b3f37"/>
      </g>
      <g id="Group_3275" data-name="Group 3275" transform="translate(0.395)">
        <path id="Path_5304" data-name="Path 5304" d="M632.266,126.447a.4.4,0,0,1,.551.095l.532.753a.4.4,0,0,1-.646.456l-.532-.753A.4.4,0,0,1,632.266,126.447Z" transform="translate(-632.099 -126.374)" fill="#4b3f37"/>
      </g>
      <g id="Group_3276" data-name="Group 3276" transform="translate(1.764 1.937)">
        <path id="Path_5305" data-name="Path 5305" d="M634.161,129.128a.4.4,0,0,1,.551.1l.532.754a.4.4,0,0,1-.646.456l-.532-.753A.4.4,0,0,1,634.161,129.128Z" transform="translate(-633.993 -129.056)" fill="#4b3f37"/>
      </g>
    </g>
    <g id="Group_3278" data-name="Group 3278" transform="translate(403.2 125.545)">
      <path id="Path_5306" data-name="Path 5306" d="M424.612,135.051l-2.138.2-1.045,1.877-.853-1.971-2.107-.414,1.611-1.42-.259-2.132,1.849,1.092,1.947-.9-.467,2.1Z" transform="translate(-418.468 -131.193)" fill="#ffd675"/>
    </g>
    <path id="Rectangle_2889" data-name="Rectangle 2889" d="M6.7,0H219.022a6.7,6.7,0,0,1,6.7,6.7V139.774a6.7,6.7,0,0,1-6.7,6.7H6.7a6.7,6.7,0,0,1-6.7-6.7V6.7A6.7,6.7,0,0,1,6.7,0Z" transform="translate(422.855 154.162)" fill="#4b3f37"/>
    <rect id="Rectangle_2890" data-name="Rectangle 2890" width="207.479" height="129.905" transform="translate(432.176 162.29)" fill="url(#linear-gradient)"/>
    <path id="Path_5308" data-name="Path 5308" d="M461.106,298.149q57.971-58.1,116.042-116.093H556.787q-5.677,5.665-11.352,11.335-43.411,43.3-86.856,86.562V300.68Q459.842,299.415,461.106,298.149Z" transform="translate(-26.402 -19.766)" fill="#fff" opacity="0.23"/>
    <path id="Path_5309" data-name="Path 5309" d="M535.661,182.056H458.578v76.821Q497.119,220.465,535.661,182.056Z" transform="translate(-26.402 -19.766)" fill="#fff" opacity="0.23"/>
    <path id="Path_5310" data-name="Path 5310" d="M723.932,282.547q-28.63,28.538-57.265,57.07h20.617q18.317-18.356,36.647-36.7Z" transform="translate(-78.699 -47.659)" fill="#fff" opacity="0.23"/>
    <path id="Path_5311" data-name="Path 5311" d="M678.882,204.992l.1-22.21-35.083-.5c-3.785,3.778-138.759,129.745-138.759,129.745h60.95C566.931,311.178,678.882,204.992,678.882,204.992Z" transform="translate(-39.326 -19.828)" fill="#fff" opacity="0.23"/>
    <path id="Path_5312" data-name="Path 5312" d="M684.2,426.978c1.948,5.431-.631,7.408-3.045,7.408h-261.2c-2.414,0-3.042-1.65-3.042-4.085l.065-3.59c.9-2.236,22.69-47.068,25.1-47.068H659.031a7.045,7.045,0,0,1,6.031,4.071Z" transform="translate(-14.836 -74.61)" fill="#4b3f37"/>
    <path id="Path_5313" data-name="Path 5313" d="M683.9,424.239a2.759,2.759,0,0,1-2.745,4.074h-261.2a2.761,2.761,0,0,1-2.747-4.074l18.836-46.6a7.056,7.056,0,0,1,6.037-4.072H659.031a7.046,7.046,0,0,1,6.031,4.072Z" transform="translate(-14.836 -72.923)" fill="#4b3f37"/>
    <path id="Path_5314" data-name="Path 5314" d="M618.12,440.457H565.443l1.81-12.056H616.31Z" transform="translate(-56.064 -88.144)" fill="#bec3ce" style="mix-blend-mode: multiply;isolation: isolate"/>
    <path id="Path_5315" data-name="Path 5315" d="M618.12,440.457H565.443l1.81-12.056H616.31Z" transform="translate(-56.064 -88.144)" fill="#bec3ce" style="mix-blend-mode: multiply;isolation: isolate"/>
    <path id="Path_5316" data-name="Path 5316" d="M617.05,438.823h-49.2l1.515-11.221h46.35Z" transform="translate(-56.731 -87.922)" fill="#786860"/>
    <g id="Group_3279" data-name="Group 3279" transform="translate(417.189 306.79)" style="mix-blend-mode: multiply;isolation: isolate">
      <path id="Path_5317" data-name="Path 5317" d="M540.114,387.434l.264-5.358H523.57L523,387.434Z" transform="translate(-461.474 -382.075)" fill="#bec3ce"/>
      <path id="Path_5318" data-name="Path 5318" d="M564.588,387.434l.259-5.358H548.169l-.263,5.358Z" transform="translate(-468.386 -382.075)" fill="#bec3ce"/>
      <path id="Path_5319" data-name="Path 5319" d="M588.254,387.434l.1-5.358H572.474l-.262,5.358Z" transform="translate(-475.132 -382.075)" fill="#bec3ce"/>
      <path id="Path_5320" data-name="Path 5320" d="M463,390.705h-12.87l-1.944,5.268h13.41Z" transform="translate(-440.705 -384.471)" fill="#bec3ce"/>
      <path id="Path_5321" data-name="Path 5321" d="M613.218,387.434l.081-5.358H595.728l-.1,5.358Z" transform="translate(-481.633 -382.075)" fill="#bec3ce"/>
      <path id="Path_5322" data-name="Path 5322" d="M465.527,382.075H453.3l-1.98,5.358H464.1Z" transform="translate(-441.576 -382.075)" fill="#bec3ce"/>
      <path id="Path_5323" data-name="Path 5323" d="M514.5,387.434l.563-5.358H496.475l-.934,5.358Z" transform="translate(-453.851 -382.075)" fill="#bec3ce"/>
      <path id="Path_5324" data-name="Path 5324" d="M487.633,387.434l.935-5.358H471.7l-1.428,5.358Z" transform="translate(-446.836 -382.075)" fill="#bec3ce"/>
      <path id="Path_5325" data-name="Path 5325" d="M684.029,387.434l-.466-5.358H667.641l.2,5.358Z" transform="translate(-501.621 -382.075)" fill="#bec3ce"/>
      <path id="Path_5326" data-name="Path 5326" d="M736.506,395.973H749.47l-2.133-5.268H735.106Z" transform="translate(-520.347 -384.471)" fill="#bec3ce"/>
      <path id="Path_5327" data-name="Path 5327" d="M739.23,406.234H753.3l-2.85-7.025H737.367Z" transform="translate(-520.974 -386.831)" fill="#bec3ce"/>
      <path id="Path_5328" data-name="Path 5328" d="M460.239,399.209h-13.5l-2.59,7.025h14.223Z" transform="translate(-439.586 -386.831)" fill="#bec3ce"/>
      <path id="Path_5329" data-name="Path 5329" d="M728.176,387.434l-1.425-5.358H714.244l.878,5.358Z" transform="translate(-514.556 -382.075)" fill="#bec3ce"/>
      <path id="Path_5330" data-name="Path 5330" d="M707.753,387.434l-.874-5.358H690.906l.464,5.358Z" transform="translate(-508.078 -382.075)" fill="#bec3ce"/>
      <path id="Path_5331" data-name="Path 5331" d="M746.342,387.434l-2.176-5.358H732.814l1.423,5.358Z" transform="translate(-519.711 -382.075)" fill="#bec3ce"/>
      <path id="Path_5332" data-name="Path 5332" d="M637.187,387.434l-.057-5.358H621.267l-.078,5.358Z" transform="translate(-488.727 -382.075)" fill="#bec3ce"/>
      <path id="Path_5333" data-name="Path 5333" d="M660.529,387.434l-.194-5.358H644.473l.055,5.358Z" transform="translate(-495.19 -382.075)" fill="#bec3ce"/>
      <path id="Path_5334" data-name="Path 5334" d="M613.086,395.973l.077-5.268H595.576l-.095,5.268Z" transform="translate(-481.591 -384.471)" fill="#bec3ce"/>
      <path id="Path_5335" data-name="Path 5335" d="M588.029,395.973l.1-5.268H572.055l-.258,5.268Z" transform="translate(-475.017 -384.471)" fill="#bec3ce"/>
      <path id="Path_5336" data-name="Path 5336" d="M660.775,395.973l-.187-5.268H644.563l.056,5.268Z" transform="translate(-495.215 -384.471)" fill="#bec3ce"/>
      <path id="Path_5337" data-name="Path 5337" d="M457.265,410.149H442.951l-1.942,5.269h14.855Z" transform="translate(-438.715 -389.868)" fill="#bec3ce"/>
      <path id="Path_5338" data-name="Path 5338" d="M539.568,395.973l.258-5.268h-17.16l-.556,5.268Z" transform="translate(-461.226 -384.471)" fill="#bec3ce"/>
      <path id="Path_5339" data-name="Path 5339" d="M564.172,395.973l.258-5.268H547.748l-.256,5.268Z" transform="translate(-468.271 -384.471)" fill="#bec3ce"/>
      <path id="Path_5340" data-name="Path 5340" d="M637.22,395.973l-.056-5.268H621.141l-.078,5.268Z" transform="translate(-488.692 -384.471)" fill="#bec3ce"/>
      <path id="Path_5341" data-name="Path 5341" d="M684.816,399.209H668.261l.259,7.025h16.91Z" transform="translate(-501.793 -386.831)" fill="#bec3ce"/>
      <path id="Path_5342" data-name="Path 5342" d="M660.833,399.209H644.655l.075,7.025h16.356Z" transform="translate(-495.241 -386.831)" fill="#bec3ce"/>
      <path id="Path_5343" data-name="Path 5343" d="M684.656,395.973l-.462-5.268H667.957l.192,5.268Z" transform="translate(-501.708 -384.471)" fill="#bec3ce"/>
      <path id="Path_5344" data-name="Path 5344" d="M709.318,399.209H692.4l.612,7.025h17.458Z" transform="translate(-508.492 -386.831)" fill="#bec3ce"/>
      <path id="Path_5345" data-name="Path 5345" d="M730.2,395.973l-1.4-5.268H715.655l.864,5.268Z" transform="translate(-514.948 -384.471)" fill="#bec3ce"/>
      <path id="Path_5346" data-name="Path 5346" d="M637.185,399.209H621.007l-.1,7.025h16.359Z" transform="translate(-488.647 -386.831)" fill="#bec3ce"/>
      <path id="Path_5347" data-name="Path 5347" d="M708.966,395.973l-.861-5.268H691.653l.461,5.268Z" transform="translate(-508.285 -384.471)" fill="#bec3ce"/>
      <path id="Path_5348" data-name="Path 5348" d="M513.441,395.973l.554-5.268H494.977l-.917,5.268Z" transform="translate(-453.44 -384.471)" fill="#bec3ce"/>
      <path id="Path_5349" data-name="Path 5349" d="M595.23,410.149l-.1,5.269h17.646l.083-5.269Z" transform="translate(-481.495 -389.868)" fill="#bec3ce"/>
      <path id="Path_5350" data-name="Path 5350" d="M538.569,410.149H520.617l-.555,5.269h18.249Z" transform="translate(-460.657 -389.868)" fill="#bec3ce"/>
      <path id="Path_5351" data-name="Path 5351" d="M718.843,410.149l.857,5.269h15.114l-1.4-5.269Z" transform="translate(-515.833 -389.868)" fill="#bec3ce"/>
      <path id="Path_5352" data-name="Path 5352" d="M620.857,410.149l-.08,5.269h16.514l-.057-5.269Z" transform="translate(-488.613 -389.868)" fill="#bec3ce"/>
      <path id="Path_5353" data-name="Path 5353" d="M668.66,410.149l.194,5.269h17.22l-.46-5.269Z" transform="translate(-501.903 -389.868)" fill="#bec3ce"/>
      <path id="Path_5354" data-name="Path 5354" d="M693.348,410.149l.46,5.269h17.927l-.861-5.269Z" transform="translate(-508.756 -389.868)" fill="#bec3ce"/>
      <path id="Path_5355" data-name="Path 5355" d="M484.975,399.209H466.963l-1.872,7.025h18.658Z" transform="translate(-445.399 -386.831)" fill="#bec3ce"/>
      <path id="Path_5356" data-name="Path 5356" d="M486.853,390.705H469.405l-1.4,5.268h17.932Z" transform="translate(-446.207 -384.471)" fill="#bec3ce"/>
      <path id="Path_5357" data-name="Path 5357" d="M491.588,410.149l-.914,5.269h20.35l.55-5.269Z" transform="translate(-452.5 -389.868)" fill="#bec3ce"/>
      <path id="Path_5358" data-name="Path 5358" d="M464.229,410.149l-1.4,5.269h19.225l.915-5.269Z" transform="translate(-444.771 -389.868)" fill="#bec3ce"/>
      <path id="Path_5359" data-name="Path 5359" d="M740.27,410.149l1.4,5.269h14.935l-2.139-5.269Z" transform="translate(-521.78 -389.868)" fill="#bec3ce"/>
      <path id="Path_5360" data-name="Path 5360" d="M439.8,418.659,437.833,424h15.494l1.422-5.34Z" transform="translate(-437.833 -392.23)" fill="#bec3ce"/>
      <path id="Path_5361" data-name="Path 5361" d="M694.093,418.659l.464,5.34h18.4l-.879-5.34Z" transform="translate(-508.963 -392.23)" fill="#bec3ce"/>
      <path id="Path_5362" data-name="Path 5362" d="M539.2,399.209H521.7l-.739,7.025h17.9Z" transform="translate(-460.906 -386.831)" fill="#bec3ce"/>
      <path id="Path_5363" data-name="Path 5363" d="M718.2,406.234h14.483l-1.861-7.025H717.048Z" transform="translate(-515.335 -386.831)" fill="#bec3ce"/>
      <path id="Path_5364" data-name="Path 5364" d="M720.227,418.659,721.1,424h15.745l-1.418-5.34Z" transform="translate(-516.217 -392.23)" fill="#bec3ce"/>
      <path id="Path_5365" data-name="Path 5365" d="M743.948,424h15.808l-2.167-5.34H742.533Z" transform="translate(-522.408 -392.23)" fill="#bec3ce"/>
      <path id="Path_5366" data-name="Path 5366" d="M587.608,410.149H571.1l-.256,5.269h16.666Z" transform="translate(-474.754 -389.868)" fill="#bec3ce"/>
      <path id="Path_5367" data-name="Path 5367" d="M563.221,415.418l.256-5.269H546.8l-.257,5.269Z" transform="translate(-468.007 -389.868)" fill="#bec3ce"/>
      <path id="Path_5368" data-name="Path 5368" d="M492.153,406.234H512.08l.739-7.025H493.377Z" transform="translate(-452.91 -386.831)" fill="#bec3ce"/>
      <path id="Path_5369" data-name="Path 5369" d="M490.1,418.659,489.17,424h20.782l.562-5.34Z" transform="translate(-452.083 -392.23)" fill="#bec3ce"/>
      <path id="Path_5370" data-name="Path 5370" d="M461.96,418.659,460.537,424h19.795l.931-5.34Z" transform="translate(-444.135 -392.23)" fill="#bec3ce"/>
      <path id="Path_5371" data-name="Path 5371" d="M571.606,399.209l-.343,7.025h16.478l.122-7.025Z" transform="translate(-474.869 -386.831)" fill="#bec3ce"/>
      <path id="Path_5372" data-name="Path 5372" d="M644.773,410.149l.055,5.269h16.514l-.188-5.269Z" transform="translate(-495.273 -389.868)" fill="#bec3ce"/>
      <path id="Path_5373" data-name="Path 5373" d="M620.731,418.659l-.079,5.34h16.672l-.057-5.34Z" transform="translate(-488.578 -392.23)" fill="#bec3ce"/>
      <path id="Path_5374" data-name="Path 5374" d="M644.862,418.659l.061,5.34h16.67l-.195-5.34Z" transform="translate(-495.298 -392.23)" fill="#bec3ce"/>
      <path id="Path_5375" data-name="Path 5375" d="M519.719,418.659l-.561,5.34H591.6l.079-5.34Z" transform="translate(-460.406 -392.23)" fill="#bec3ce"/>
      <path id="Path_5376" data-name="Path 5376" d="M668.968,418.659l.195,5.34H686.7l-.467-5.34Z" transform="translate(-501.989 -392.23)" fill="#bec3ce"/>
      <path id="Path_5377" data-name="Path 5377" d="M563.98,399.209H547.3l-.343,7.025h16.678Z" transform="translate(-468.122 -386.831)" fill="#bec3ce"/>
      <path id="Path_5378" data-name="Path 5378" d="M613.018,399.209H595.411l-.126,7.025h17.63Z" transform="translate(-481.537 -386.831)" fill="#bec3ce"/>
    </g>
    <g id="Group_3280" data-name="Group 3280" transform="translate(417.189 306.79)" style="mix-blend-mode: multiply;isolation: isolate">
      <path id="Path_5379" data-name="Path 5379" d="M540.114,387.434l.264-5.358H523.57L523,387.434Z" transform="translate(-461.474 -382.075)" fill="#bec3ce"/>
      <path id="Path_5380" data-name="Path 5380" d="M564.588,387.434l.259-5.358H548.169l-.263,5.358Z" transform="translate(-468.386 -382.075)" fill="#bec3ce"/>
      <path id="Path_5381" data-name="Path 5381" d="M588.254,387.434l.1-5.358H572.474l-.262,5.358Z" transform="translate(-475.132 -382.075)" fill="#bec3ce"/>
      <path id="Path_5382" data-name="Path 5382" d="M463,390.705h-12.87l-1.944,5.268h13.41Z" transform="translate(-440.705 -384.471)" fill="#bec3ce"/>
      <path id="Path_5383" data-name="Path 5383" d="M613.218,387.434l.081-5.358H595.728l-.1,5.358Z" transform="translate(-481.633 -382.075)" fill="#bec3ce"/>
      <path id="Path_5384" data-name="Path 5384" d="M465.527,382.075H453.3l-1.98,5.358H464.1Z" transform="translate(-441.576 -382.075)" fill="#bec3ce"/>
      <path id="Path_5385" data-name="Path 5385" d="M514.5,387.434l.563-5.358H496.475l-.934,5.358Z" transform="translate(-453.851 -382.075)" fill="#bec3ce"/>
      <path id="Path_5386" data-name="Path 5386" d="M487.633,387.434l.935-5.358H471.7l-1.428,5.358Z" transform="translate(-446.836 -382.075)" fill="#bec3ce"/>
      <path id="Path_5387" data-name="Path 5387" d="M684.029,387.434l-.466-5.358H667.641l.2,5.358Z" transform="translate(-501.621 -382.075)" fill="#bec3ce"/>
      <path id="Path_5388" data-name="Path 5388" d="M736.506,395.973H749.47l-2.133-5.268H735.106Z" transform="translate(-520.347 -384.471)" fill="#bec3ce"/>
      <path id="Path_5389" data-name="Path 5389" d="M739.23,406.234H753.3l-2.85-7.025H737.367Z" transform="translate(-520.974 -386.831)" fill="#bec3ce"/>
      <path id="Path_5390" data-name="Path 5390" d="M460.239,399.209h-13.5l-2.59,7.025h14.223Z" transform="translate(-439.586 -386.831)" fill="#bec3ce"/>
      <path id="Path_5391" data-name="Path 5391" d="M728.176,387.434l-1.425-5.358H714.244l.878,5.358Z" transform="translate(-514.556 -382.075)" fill="#bec3ce"/>
      <path id="Path_5392" data-name="Path 5392" d="M707.753,387.434l-.874-5.358H690.906l.464,5.358Z" transform="translate(-508.078 -382.075)" fill="#bec3ce"/>
      <path id="Path_5393" data-name="Path 5393" d="M746.342,387.434l-2.176-5.358H732.814l1.423,5.358Z" transform="translate(-519.711 -382.075)" fill="#bec3ce"/>
      <path id="Path_5394" data-name="Path 5394" d="M637.187,387.434l-.057-5.358H621.267l-.078,5.358Z" transform="translate(-488.727 -382.075)" fill="#bec3ce"/>
      <path id="Path_5395" data-name="Path 5395" d="M660.529,387.434l-.194-5.358H644.473l.055,5.358Z" transform="translate(-495.19 -382.075)" fill="#bec3ce"/>
      <path id="Path_5396" data-name="Path 5396" d="M613.086,395.973l.077-5.268H595.576l-.095,5.268Z" transform="translate(-481.591 -384.471)" fill="#bec3ce"/>
      <path id="Path_5397" data-name="Path 5397" d="M588.029,395.973l.1-5.268H572.055l-.258,5.268Z" transform="translate(-475.017 -384.471)" fill="#bec3ce"/>
      <path id="Path_5398" data-name="Path 5398" d="M660.775,395.973l-.187-5.268H644.563l.056,5.268Z" transform="translate(-495.215 -384.471)" fill="#bec3ce"/>
      <path id="Path_5399" data-name="Path 5399" d="M457.265,410.149H442.951l-1.942,5.269h14.855Z" transform="translate(-438.715 -389.868)" fill="#bec3ce"/>
      <path id="Path_5400" data-name="Path 5400" d="M539.568,395.973l.258-5.268h-17.16l-.556,5.268Z" transform="translate(-461.226 -384.471)" fill="#bec3ce"/>
      <path id="Path_5401" data-name="Path 5401" d="M564.172,395.973l.258-5.268H547.748l-.256,5.268Z" transform="translate(-468.271 -384.471)" fill="#bec3ce"/>
      <path id="Path_5402" data-name="Path 5402" d="M637.22,395.973l-.056-5.268H621.141l-.078,5.268Z" transform="translate(-488.692 -384.471)" fill="#bec3ce"/>
      <path id="Path_5403" data-name="Path 5403" d="M684.816,399.209H668.261l.259,7.025h16.91Z" transform="translate(-501.793 -386.831)" fill="#bec3ce"/>
      <path id="Path_5404" data-name="Path 5404" d="M660.833,399.209H644.655l.075,7.025h16.356Z" transform="translate(-495.241 -386.831)" fill="#bec3ce"/>
      <path id="Path_5405" data-name="Path 5405" d="M684.656,395.973l-.462-5.268H667.957l.192,5.268Z" transform="translate(-501.708 -384.471)" fill="#bec3ce"/>
      <path id="Path_5406" data-name="Path 5406" d="M709.318,399.209H692.4l.612,7.025h17.458Z" transform="translate(-508.492 -386.831)" fill="#bec3ce"/>
      <path id="Path_5407" data-name="Path 5407" d="M730.2,395.973l-1.4-5.268H715.655l.864,5.268Z" transform="translate(-514.948 -384.471)" fill="#bec3ce"/>
      <path id="Path_5408" data-name="Path 5408" d="M637.185,399.209H621.007l-.1,7.025h16.359Z" transform="translate(-488.647 -386.831)" fill="#bec3ce"/>
      <path id="Path_5409" data-name="Path 5409" d="M708.966,395.973l-.861-5.268H691.653l.461,5.268Z" transform="translate(-508.285 -384.471)" fill="#bec3ce"/>
      <path id="Path_5410" data-name="Path 5410" d="M513.441,395.973l.554-5.268H494.977l-.917,5.268Z" transform="translate(-453.44 -384.471)" fill="#bec3ce"/>
      <path id="Path_5411" data-name="Path 5411" d="M595.23,410.149l-.1,5.269h17.646l.083-5.269Z" transform="translate(-481.495 -389.868)" fill="#bec3ce"/>
      <path id="Path_5412" data-name="Path 5412" d="M538.569,410.149H520.617l-.555,5.269h18.249Z" transform="translate(-460.657 -389.868)" fill="#bec3ce"/>
      <path id="Path_5413" data-name="Path 5413" d="M718.843,410.149l.857,5.269h15.114l-1.4-5.269Z" transform="translate(-515.833 -389.868)" fill="#bec3ce"/>
      <path id="Path_5414" data-name="Path 5414" d="M620.857,410.149l-.08,5.269h16.514l-.057-5.269Z" transform="translate(-488.613 -389.868)" fill="#bec3ce"/>
      <path id="Path_5415" data-name="Path 5415" d="M668.66,410.149l.194,5.269h17.22l-.46-5.269Z" transform="translate(-501.903 -389.868)" fill="#bec3ce"/>
      <path id="Path_5416" data-name="Path 5416" d="M693.348,410.149l.46,5.269h17.927l-.861-5.269Z" transform="translate(-508.756 -389.868)" fill="#bec3ce"/>
      <path id="Path_5417" data-name="Path 5417" d="M484.975,399.209H466.963l-1.872,7.025h18.658Z" transform="translate(-445.399 -386.831)" fill="#bec3ce"/>
      <path id="Path_5418" data-name="Path 5418" d="M486.853,390.705H469.405l-1.4,5.268h17.932Z" transform="translate(-446.207 -384.471)" fill="#bec3ce"/>
      <path id="Path_5419" data-name="Path 5419" d="M491.588,410.149l-.914,5.269h20.35l.55-5.269Z" transform="translate(-452.5 -389.868)" fill="#bec3ce"/>
      <path id="Path_5420" data-name="Path 5420" d="M464.229,410.149l-1.4,5.269h19.225l.915-5.269Z" transform="translate(-444.771 -389.868)" fill="#bec3ce"/>
      <path id="Path_5421" data-name="Path 5421" d="M740.27,410.149l1.4,5.269h14.935l-2.139-5.269Z" transform="translate(-521.78 -389.868)" fill="#bec3ce"/>
      <path id="Path_5422" data-name="Path 5422" d="M439.8,418.659,437.833,424h15.494l1.422-5.34Z" transform="translate(-437.833 -392.23)" fill="#bec3ce"/>
      <path id="Path_5423" data-name="Path 5423" d="M694.093,418.659l.464,5.34h18.4l-.879-5.34Z" transform="translate(-508.963 -392.23)" fill="#bec3ce"/>
      <path id="Path_5424" data-name="Path 5424" d="M539.2,399.209H521.7l-.739,7.025h17.9Z" transform="translate(-460.906 -386.831)" fill="#bec3ce"/>
      <path id="Path_5425" data-name="Path 5425" d="M718.2,406.234h14.483l-1.861-7.025H717.048Z" transform="translate(-515.335 -386.831)" fill="#bec3ce"/>
      <path id="Path_5426" data-name="Path 5426" d="M720.227,418.659,721.1,424h15.745l-1.418-5.34Z" transform="translate(-516.217 -392.23)" fill="#bec3ce"/>
      <path id="Path_5427" data-name="Path 5427" d="M743.948,424h15.808l-2.167-5.34H742.533Z" transform="translate(-522.408 -392.23)" fill="#bec3ce"/>
      <path id="Path_5428" data-name="Path 5428" d="M587.608,410.149H571.1l-.256,5.269h16.666Z" transform="translate(-474.754 -389.868)" fill="#bec3ce"/>
      <path id="Path_5429" data-name="Path 5429" d="M563.221,415.418l.256-5.269H546.8l-.257,5.269Z" transform="translate(-468.007 -389.868)" fill="#bec3ce"/>
      <path id="Path_5430" data-name="Path 5430" d="M492.153,406.234H512.08l.739-7.025H493.377Z" transform="translate(-452.91 -386.831)" fill="#bec3ce"/>
      <path id="Path_5431" data-name="Path 5431" d="M490.1,418.659,489.17,424h20.782l.562-5.34Z" transform="translate(-452.083 -392.23)" fill="#bec3ce"/>
      <path id="Path_5432" data-name="Path 5432" d="M461.96,418.659,460.537,424h19.795l.931-5.34Z" transform="translate(-444.135 -392.23)" fill="#bec3ce"/>
      <path id="Path_5433" data-name="Path 5433" d="M571.606,399.209l-.343,7.025h16.478l.122-7.025Z" transform="translate(-474.869 -386.831)" fill="#bec3ce"/>
      <path id="Path_5434" data-name="Path 5434" d="M644.773,410.149l.055,5.269h16.514l-.188-5.269Z" transform="translate(-495.273 -389.868)" fill="#bec3ce"/>
      <path id="Path_5435" data-name="Path 5435" d="M620.731,418.659l-.079,5.34h16.672l-.057-5.34Z" transform="translate(-488.578 -392.23)" fill="#bec3ce"/>
      <path id="Path_5436" data-name="Path 5436" d="M644.862,418.659l.061,5.34h16.67l-.195-5.34Z" transform="translate(-495.298 -392.23)" fill="#bec3ce"/>
      <path id="Path_5437" data-name="Path 5437" d="M519.719,418.659l-.561,5.34H591.6l.079-5.34Z" transform="translate(-460.406 -392.23)" fill="#bec3ce"/>
      <path id="Path_5438" data-name="Path 5438" d="M668.968,418.659l.195,5.34H686.7l-.467-5.34Z" transform="translate(-501.989 -392.23)" fill="#bec3ce"/>
      <path id="Path_5439" data-name="Path 5439" d="M563.98,399.209H547.3l-.343,7.025h16.678Z" transform="translate(-468.122 -386.831)" fill="#bec3ce"/>
      <path id="Path_5440" data-name="Path 5440" d="M613.018,399.209H595.411l-.126,7.025h17.63Z" transform="translate(-481.537 -386.831)" fill="#bec3ce"/>
    </g>
    <g id="Group_3281" data-name="Group 3281" transform="translate(417.189 306.79)" style="mix-blend-mode: multiply;isolation: isolate">
      <path id="Path_5441" data-name="Path 5441" d="M540.114,387.434l.264-5.358H523.57L523,387.434Z" transform="translate(-461.474 -382.075)" fill="#bec3ce"/>
      <path id="Path_5442" data-name="Path 5442" d="M564.588,387.434l.259-5.358H548.169l-.263,5.358Z" transform="translate(-468.386 -382.075)" fill="#bec3ce"/>
      <path id="Path_5443" data-name="Path 5443" d="M588.254,387.434l.1-5.358H572.474l-.262,5.358Z" transform="translate(-475.132 -382.075)" fill="#bec3ce"/>
      <path id="Path_5444" data-name="Path 5444" d="M463,390.705h-12.87l-1.944,5.268h13.41Z" transform="translate(-440.705 -384.471)" fill="#bec3ce"/>
      <path id="Path_5445" data-name="Path 5445" d="M613.218,387.434l.081-5.358H595.728l-.1,5.358Z" transform="translate(-481.633 -382.075)" fill="#bec3ce"/>
      <path id="Path_5446" data-name="Path 5446" d="M465.527,382.075H453.3l-1.98,5.358H464.1Z" transform="translate(-441.576 -382.075)" fill="#bec3ce"/>
      <path id="Path_5447" data-name="Path 5447" d="M514.5,387.434l.563-5.358H496.475l-.934,5.358Z" transform="translate(-453.851 -382.075)" fill="#bec3ce"/>
      <path id="Path_5448" data-name="Path 5448" d="M487.633,387.434l.935-5.358H471.7l-1.428,5.358Z" transform="translate(-446.836 -382.075)" fill="#bec3ce"/>
      <path id="Path_5449" data-name="Path 5449" d="M684.029,387.434l-.466-5.358H667.641l.2,5.358Z" transform="translate(-501.621 -382.075)" fill="#bec3ce"/>
      <path id="Path_5450" data-name="Path 5450" d="M736.506,395.973H749.47l-2.133-5.268H735.106Z" transform="translate(-520.347 -384.471)" fill="#bec3ce"/>
      <path id="Path_5451" data-name="Path 5451" d="M739.23,406.234H753.3l-2.85-7.025H737.367Z" transform="translate(-520.974 -386.831)" fill="#bec3ce"/>
      <path id="Path_5452" data-name="Path 5452" d="M460.239,399.209h-13.5l-2.59,7.025h14.223Z" transform="translate(-439.586 -386.831)" fill="#bec3ce"/>
      <path id="Path_5453" data-name="Path 5453" d="M728.176,387.434l-1.425-5.358H714.244l.878,5.358Z" transform="translate(-514.556 -382.075)" fill="#bec3ce"/>
      <path id="Path_5454" data-name="Path 5454" d="M707.753,387.434l-.874-5.358H690.906l.464,5.358Z" transform="translate(-508.078 -382.075)" fill="#bec3ce"/>
      <path id="Path_5455" data-name="Path 5455" d="M746.342,387.434l-2.176-5.358H732.814l1.423,5.358Z" transform="translate(-519.711 -382.075)" fill="#bec3ce"/>
      <path id="Path_5456" data-name="Path 5456" d="M637.187,387.434l-.057-5.358H621.267l-.078,5.358Z" transform="translate(-488.727 -382.075)" fill="#bec3ce"/>
      <path id="Path_5457" data-name="Path 5457" d="M660.529,387.434l-.194-5.358H644.473l.055,5.358Z" transform="translate(-495.19 -382.075)" fill="#bec3ce"/>
      <path id="Path_5458" data-name="Path 5458" d="M613.086,395.973l.077-5.268H595.576l-.095,5.268Z" transform="translate(-481.591 -384.471)" fill="#bec3ce"/>
      <path id="Path_5459" data-name="Path 5459" d="M588.029,395.973l.1-5.268H572.055l-.258,5.268Z" transform="translate(-475.017 -384.471)" fill="#bec3ce"/>
      <path id="Path_5460" data-name="Path 5460" d="M660.775,395.973l-.187-5.268H644.563l.056,5.268Z" transform="translate(-495.215 -384.471)" fill="#bec3ce"/>
      <path id="Path_5461" data-name="Path 5461" d="M457.265,410.149H442.951l-1.942,5.269h14.855Z" transform="translate(-438.715 -389.868)" fill="#bec3ce"/>
      <path id="Path_5462" data-name="Path 5462" d="M539.568,395.973l.258-5.268h-17.16l-.556,5.268Z" transform="translate(-461.226 -384.471)" fill="#bec3ce"/>
      <path id="Path_5463" data-name="Path 5463" d="M564.172,395.973l.258-5.268H547.748l-.256,5.268Z" transform="translate(-468.271 -384.471)" fill="#bec3ce"/>
      <path id="Path_5464" data-name="Path 5464" d="M637.22,395.973l-.056-5.268H621.141l-.078,5.268Z" transform="translate(-488.692 -384.471)" fill="#bec3ce"/>
      <path id="Path_5465" data-name="Path 5465" d="M684.816,399.209H668.261l.259,7.025h16.91Z" transform="translate(-501.793 -386.831)" fill="#bec3ce"/>
      <path id="Path_5466" data-name="Path 5466" d="M660.833,399.209H644.655l.075,7.025h16.356Z" transform="translate(-495.241 -386.831)" fill="#bec3ce"/>
      <path id="Path_5467" data-name="Path 5467" d="M684.656,395.973l-.462-5.268H667.957l.192,5.268Z" transform="translate(-501.708 -384.471)" fill="#bec3ce"/>
      <path id="Path_5468" data-name="Path 5468" d="M709.318,399.209H692.4l.612,7.025h17.458Z" transform="translate(-508.492 -386.831)" fill="#bec3ce"/>
      <path id="Path_5469" data-name="Path 5469" d="M730.2,395.973l-1.4-5.268H715.655l.864,5.268Z" transform="translate(-514.948 -384.471)" fill="#bec3ce"/>
      <path id="Path_5470" data-name="Path 5470" d="M637.185,399.209H621.007l-.1,7.025h16.359Z" transform="translate(-488.647 -386.831)" fill="#bec3ce"/>
      <path id="Path_5471" data-name="Path 5471" d="M708.966,395.973l-.861-5.268H691.653l.461,5.268Z" transform="translate(-508.285 -384.471)" fill="#bec3ce"/>
      <path id="Path_5472" data-name="Path 5472" d="M513.441,395.973l.554-5.268H494.977l-.917,5.268Z" transform="translate(-453.44 -384.471)" fill="#bec3ce"/>
      <path id="Path_5473" data-name="Path 5473" d="M595.23,410.149l-.1,5.269h17.646l.083-5.269Z" transform="translate(-481.495 -389.868)" fill="#bec3ce"/>
      <path id="Path_5474" data-name="Path 5474" d="M538.569,410.149H520.617l-.555,5.269h18.249Z" transform="translate(-460.657 -389.868)" fill="#bec3ce"/>
      <path id="Path_5475" data-name="Path 5475" d="M718.843,410.149l.857,5.269h15.114l-1.4-5.269Z" transform="translate(-515.833 -389.868)" fill="#bec3ce"/>
      <path id="Path_5476" data-name="Path 5476" d="M620.857,410.149l-.08,5.269h16.514l-.057-5.269Z" transform="translate(-488.613 -389.868)" fill="#bec3ce"/>
      <path id="Path_5477" data-name="Path 5477" d="M668.66,410.149l.194,5.269h17.22l-.46-5.269Z" transform="translate(-501.903 -389.868)" fill="#bec3ce"/>
      <path id="Path_5478" data-name="Path 5478" d="M693.348,410.149l.46,5.269h17.927l-.861-5.269Z" transform="translate(-508.756 -389.868)" fill="#bec3ce"/>
      <path id="Path_5479" data-name="Path 5479" d="M484.975,399.209H466.963l-1.872,7.025h18.658Z" transform="translate(-445.399 -386.831)" fill="#bec3ce"/>
      <path id="Path_5480" data-name="Path 5480" d="M486.853,390.705H469.405l-1.4,5.268h17.932Z" transform="translate(-446.207 -384.471)" fill="#bec3ce"/>
      <path id="Path_5481" data-name="Path 5481" d="M491.588,410.149l-.914,5.269h20.35l.55-5.269Z" transform="translate(-452.5 -389.868)" fill="#bec3ce"/>
      <path id="Path_5482" data-name="Path 5482" d="M464.229,410.149l-1.4,5.269h19.225l.915-5.269Z" transform="translate(-444.771 -389.868)" fill="#bec3ce"/>
      <path id="Path_5483" data-name="Path 5483" d="M740.27,410.149l1.4,5.269h14.935l-2.139-5.269Z" transform="translate(-521.78 -389.868)" fill="#bec3ce"/>
      <path id="Path_5484" data-name="Path 5484" d="M439.8,418.659,437.833,424h15.494l1.422-5.34Z" transform="translate(-437.833 -392.23)" fill="#bec3ce"/>
      <path id="Path_5485" data-name="Path 5485" d="M694.093,418.659l.464,5.34h18.4l-.879-5.34Z" transform="translate(-508.963 -392.23)" fill="#bec3ce"/>
      <path id="Path_5486" data-name="Path 5486" d="M539.2,399.209H521.7l-.739,7.025h17.9Z" transform="translate(-460.906 -386.831)" fill="#bec3ce"/>
      <path id="Path_5487" data-name="Path 5487" d="M718.2,406.234h14.483l-1.861-7.025H717.048Z" transform="translate(-515.335 -386.831)" fill="#bec3ce"/>
      <path id="Path_5488" data-name="Path 5488" d="M720.227,418.659,721.1,424h15.745l-1.418-5.34Z" transform="translate(-516.217 -392.23)" fill="#bec3ce"/>
      <path id="Path_5489" data-name="Path 5489" d="M743.948,424h15.808l-2.167-5.34H742.533Z" transform="translate(-522.408 -392.23)" fill="#bec3ce"/>
      <path id="Path_5490" data-name="Path 5490" d="M587.608,410.149H571.1l-.256,5.269h16.666Z" transform="translate(-474.754 -389.868)" fill="#bec3ce"/>
      <path id="Path_5491" data-name="Path 5491" d="M563.221,415.418l.256-5.269H546.8l-.257,5.269Z" transform="translate(-468.007 -389.868)" fill="#bec3ce"/>
      <path id="Path_5492" data-name="Path 5492" d="M492.153,406.234H512.08l.739-7.025H493.377Z" transform="translate(-452.91 -386.831)" fill="#bec3ce"/>
      <path id="Path_5493" data-name="Path 5493" d="M490.1,418.659,489.17,424h20.782l.562-5.34Z" transform="translate(-452.083 -392.23)" fill="#bec3ce"/>
      <path id="Path_5494" data-name="Path 5494" d="M461.96,418.659,460.537,424h19.795l.931-5.34Z" transform="translate(-444.135 -392.23)" fill="#bec3ce"/>
      <path id="Path_5495" data-name="Path 5495" d="M571.606,399.209l-.343,7.025h16.478l.122-7.025Z" transform="translate(-474.869 -386.831)" fill="#bec3ce"/>
      <path id="Path_5496" data-name="Path 5496" d="M644.773,410.149l.055,5.269h16.514l-.188-5.269Z" transform="translate(-495.273 -389.868)" fill="#bec3ce"/>
      <path id="Path_5497" data-name="Path 5497" d="M620.731,418.659l-.079,5.34h16.672l-.057-5.34Z" transform="translate(-488.578 -392.23)" fill="#bec3ce"/>
      <path id="Path_5498" data-name="Path 5498" d="M644.862,418.659l.061,5.34h16.67l-.195-5.34Z" transform="translate(-495.298 -392.23)" fill="#bec3ce"/>
      <path id="Path_5499" data-name="Path 5499" d="M519.719,418.659l-.561,5.34H591.6l.079-5.34Z" transform="translate(-460.406 -392.23)" fill="#bec3ce"/>
      <path id="Path_5500" data-name="Path 5500" d="M668.968,418.659l.195,5.34H686.7l-.467-5.34Z" transform="translate(-501.989 -392.23)" fill="#bec3ce"/>
      <path id="Path_5501" data-name="Path 5501" d="M563.98,399.209H547.3l-.343,7.025h16.678Z" transform="translate(-468.122 -386.831)" fill="#bec3ce"/>
      <path id="Path_5502" data-name="Path 5502" d="M613.018,399.209H595.411l-.126,7.025h17.63Z" transform="translate(-481.537 -386.831)" fill="#bec3ce"/>
    </g>
    <g id="Group_3282" data-name="Group 3282" transform="translate(417.189 306.79)" style="mix-blend-mode: multiply;isolation: isolate">
      <path id="Path_5503" data-name="Path 5503" d="M540.114,387.434l.264-5.358H523.57L523,387.434Z" transform="translate(-461.474 -382.075)" fill="#bec3ce"/>
      <path id="Path_5504" data-name="Path 5504" d="M564.588,387.434l.259-5.358H548.169l-.263,5.358Z" transform="translate(-468.386 -382.075)" fill="#bec3ce"/>
      <path id="Path_5505" data-name="Path 5505" d="M588.254,387.434l.1-5.358H572.474l-.262,5.358Z" transform="translate(-475.132 -382.075)" fill="#bec3ce"/>
      <path id="Path_5506" data-name="Path 5506" d="M463,390.705h-12.87l-1.944,5.268h13.41Z" transform="translate(-440.705 -384.471)" fill="#bec3ce"/>
      <path id="Path_5507" data-name="Path 5507" d="M613.218,387.434l.081-5.358H595.728l-.1,5.358Z" transform="translate(-481.633 -382.075)" fill="#bec3ce"/>
      <path id="Path_5508" data-name="Path 5508" d="M465.527,382.075H453.3l-1.98,5.358H464.1Z" transform="translate(-441.576 -382.075)" fill="#bec3ce"/>
      <path id="Path_5509" data-name="Path 5509" d="M514.5,387.434l.563-5.358H496.475l-.934,5.358Z" transform="translate(-453.851 -382.075)" fill="#bec3ce"/>
      <path id="Path_5510" data-name="Path 5510" d="M487.633,387.434l.935-5.358H471.7l-1.428,5.358Z" transform="translate(-446.836 -382.075)" fill="#bec3ce"/>
      <path id="Path_5511" data-name="Path 5511" d="M684.029,387.434l-.466-5.358H667.641l.2,5.358Z" transform="translate(-501.621 -382.075)" fill="#bec3ce"/>
      <path id="Path_5512" data-name="Path 5512" d="M736.506,395.973H749.47l-2.133-5.268H735.106Z" transform="translate(-520.347 -384.471)" fill="#bec3ce"/>
      <path id="Path_5513" data-name="Path 5513" d="M739.23,406.234H753.3l-2.85-7.025H737.367Z" transform="translate(-520.974 -386.831)" fill="#bec3ce"/>
      <path id="Path_5514" data-name="Path 5514" d="M460.239,399.209h-13.5l-2.59,7.025h14.223Z" transform="translate(-439.586 -386.831)" fill="#bec3ce"/>
      <path id="Path_5515" data-name="Path 5515" d="M728.176,387.434l-1.425-5.358H714.244l.878,5.358Z" transform="translate(-514.556 -382.075)" fill="#bec3ce"/>
      <path id="Path_5516" data-name="Path 5516" d="M707.753,387.434l-.874-5.358H690.906l.464,5.358Z" transform="translate(-508.078 -382.075)" fill="#bec3ce"/>
      <path id="Path_5517" data-name="Path 5517" d="M746.342,387.434l-2.176-5.358H732.814l1.423,5.358Z" transform="translate(-519.711 -382.075)" fill="#bec3ce"/>
      <path id="Path_5518" data-name="Path 5518" d="M637.187,387.434l-.057-5.358H621.267l-.078,5.358Z" transform="translate(-488.727 -382.075)" fill="#bec3ce"/>
      <path id="Path_5519" data-name="Path 5519" d="M660.529,387.434l-.194-5.358H644.473l.055,5.358Z" transform="translate(-495.19 -382.075)" fill="#bec3ce"/>
      <path id="Path_5520" data-name="Path 5520" d="M613.086,395.973l.077-5.268H595.576l-.095,5.268Z" transform="translate(-481.591 -384.471)" fill="#bec3ce"/>
      <path id="Path_5521" data-name="Path 5521" d="M588.029,395.973l.1-5.268H572.055l-.258,5.268Z" transform="translate(-475.017 -384.471)" fill="#bec3ce"/>
      <path id="Path_5522" data-name="Path 5522" d="M660.775,395.973l-.187-5.268H644.563l.056,5.268Z" transform="translate(-495.215 -384.471)" fill="#bec3ce"/>
      <path id="Path_5523" data-name="Path 5523" d="M457.265,410.149H442.951l-1.942,5.269h14.855Z" transform="translate(-438.715 -389.868)" fill="#bec3ce"/>
      <path id="Path_5524" data-name="Path 5524" d="M539.568,395.973l.258-5.268h-17.16l-.556,5.268Z" transform="translate(-461.226 -384.471)" fill="#bec3ce"/>
      <path id="Path_5525" data-name="Path 5525" d="M564.172,395.973l.258-5.268H547.748l-.256,5.268Z" transform="translate(-468.271 -384.471)" fill="#bec3ce"/>
      <path id="Path_5526" data-name="Path 5526" d="M637.22,395.973l-.056-5.268H621.141l-.078,5.268Z" transform="translate(-488.692 -384.471)" fill="#bec3ce"/>
      <path id="Path_5527" data-name="Path 5527" d="M684.816,399.209H668.261l.259,7.025h16.91Z" transform="translate(-501.793 -386.831)" fill="#bec3ce"/>
      <path id="Path_5528" data-name="Path 5528" d="M660.833,399.209H644.655l.075,7.025h16.356Z" transform="translate(-495.241 -386.831)" fill="#bec3ce"/>
      <path id="Path_5529" data-name="Path 5529" d="M684.656,395.973l-.462-5.268H667.957l.192,5.268Z" transform="translate(-501.708 -384.471)" fill="#bec3ce"/>
      <path id="Path_5530" data-name="Path 5530" d="M709.318,399.209H692.4l.612,7.025h17.458Z" transform="translate(-508.492 -386.831)" fill="#bec3ce"/>
      <path id="Path_5531" data-name="Path 5531" d="M730.2,395.973l-1.4-5.268H715.655l.864,5.268Z" transform="translate(-514.948 -384.471)" fill="#bec3ce"/>
      <path id="Path_5532" data-name="Path 5532" d="M637.185,399.209H621.007l-.1,7.025h16.359Z" transform="translate(-488.647 -386.831)" fill="#bec3ce"/>
      <path id="Path_5533" data-name="Path 5533" d="M708.966,395.973l-.861-5.268H691.653l.461,5.268Z" transform="translate(-508.285 -384.471)" fill="#bec3ce"/>
      <path id="Path_5534" data-name="Path 5534" d="M513.441,395.973l.554-5.268H494.977l-.917,5.268Z" transform="translate(-453.44 -384.471)" fill="#bec3ce"/>
      <path id="Path_5535" data-name="Path 5535" d="M595.23,410.149l-.1,5.269h17.646l.083-5.269Z" transform="translate(-481.495 -389.868)" fill="#bec3ce"/>
      <path id="Path_5536" data-name="Path 5536" d="M538.569,410.149H520.617l-.555,5.269h18.249Z" transform="translate(-460.657 -389.868)" fill="#bec3ce"/>
      <path id="Path_5537" data-name="Path 5537" d="M718.843,410.149l.857,5.269h15.114l-1.4-5.269Z" transform="translate(-515.833 -389.868)" fill="#bec3ce"/>
      <path id="Path_5538" data-name="Path 5538" d="M620.857,410.149l-.08,5.269h16.514l-.057-5.269Z" transform="translate(-488.613 -389.868)" fill="#bec3ce"/>
      <path id="Path_5539" data-name="Path 5539" d="M668.66,410.149l.194,5.269h17.22l-.46-5.269Z" transform="translate(-501.903 -389.868)" fill="#bec3ce"/>
      <path id="Path_5540" data-name="Path 5540" d="M693.348,410.149l.46,5.269h17.927l-.861-5.269Z" transform="translate(-508.756 -389.868)" fill="#bec3ce"/>
      <path id="Path_5541" data-name="Path 5541" d="M484.975,399.209H466.963l-1.872,7.025h18.658Z" transform="translate(-445.399 -386.831)" fill="#bec3ce"/>
      <path id="Path_5542" data-name="Path 5542" d="M486.853,390.705H469.405l-1.4,5.268h17.932Z" transform="translate(-446.207 -384.471)" fill="#bec3ce"/>
      <path id="Path_5543" data-name="Path 5543" d="M491.588,410.149l-.914,5.269h20.35l.55-5.269Z" transform="translate(-452.5 -389.868)" fill="#bec3ce"/>
      <path id="Path_5544" data-name="Path 5544" d="M464.229,410.149l-1.4,5.269h19.225l.915-5.269Z" transform="translate(-444.771 -389.868)" fill="#bec3ce"/>
      <path id="Path_5545" data-name="Path 5545" d="M740.27,410.149l1.4,5.269h14.935l-2.139-5.269Z" transform="translate(-521.78 -389.868)" fill="#bec3ce"/>
      <path id="Path_5546" data-name="Path 5546" d="M439.8,418.659,437.833,424h15.494l1.422-5.34Z" transform="translate(-437.833 -392.23)" fill="#bec3ce"/>
      <path id="Path_5547" data-name="Path 5547" d="M694.093,418.659l.464,5.34h18.4l-.879-5.34Z" transform="translate(-508.963 -392.23)" fill="#bec3ce"/>
      <path id="Path_5548" data-name="Path 5548" d="M539.2,399.209H521.7l-.739,7.025h17.9Z" transform="translate(-460.906 -386.831)" fill="#bec3ce"/>
      <path id="Path_5549" data-name="Path 5549" d="M718.2,406.234h14.483l-1.861-7.025H717.048Z" transform="translate(-515.335 -386.831)" fill="#bec3ce"/>
      <path id="Path_5550" data-name="Path 5550" d="M720.227,418.659,721.1,424h15.745l-1.418-5.34Z" transform="translate(-516.217 -392.23)" fill="#bec3ce"/>
      <path id="Path_5551" data-name="Path 5551" d="M743.948,424h15.808l-2.167-5.34H742.533Z" transform="translate(-522.408 -392.23)" fill="#bec3ce"/>
      <path id="Path_5552" data-name="Path 5552" d="M587.608,410.149H571.1l-.256,5.269h16.666Z" transform="translate(-474.754 -389.868)" fill="#bec3ce"/>
      <path id="Path_5553" data-name="Path 5553" d="M563.221,415.418l.256-5.269H546.8l-.257,5.269Z" transform="translate(-468.007 -389.868)" fill="#bec3ce"/>
      <path id="Path_5554" data-name="Path 5554" d="M492.153,406.234H512.08l.739-7.025H493.377Z" transform="translate(-452.91 -386.831)" fill="#bec3ce"/>
      <path id="Path_5555" data-name="Path 5555" d="M490.1,418.659,489.17,424h20.782l.562-5.34Z" transform="translate(-452.083 -392.23)" fill="#bec3ce"/>
      <path id="Path_5556" data-name="Path 5556" d="M461.96,418.659,460.537,424h19.795l.931-5.34Z" transform="translate(-444.135 -392.23)" fill="#bec3ce"/>
      <path id="Path_5557" data-name="Path 5557" d="M571.606,399.209l-.343,7.025h16.478l.122-7.025Z" transform="translate(-474.869 -386.831)" fill="#bec3ce"/>
      <path id="Path_5558" data-name="Path 5558" d="M644.773,410.149l.055,5.269h16.514l-.188-5.269Z" transform="translate(-495.273 -389.868)" fill="#bec3ce"/>
      <path id="Path_5559" data-name="Path 5559" d="M620.731,418.659l-.079,5.34h16.672l-.057-5.34Z" transform="translate(-488.578 -392.23)" fill="#bec3ce"/>
      <path id="Path_5560" data-name="Path 5560" d="M644.862,418.659l.061,5.34h16.67l-.195-5.34Z" transform="translate(-495.298 -392.23)" fill="#bec3ce"/>
      <path id="Path_5561" data-name="Path 5561" d="M519.719,418.659l-.561,5.34H591.6l.079-5.34Z" transform="translate(-460.406 -392.23)" fill="#bec3ce"/>
      <path id="Path_5562" data-name="Path 5562" d="M668.968,418.659l.195,5.34H686.7l-.467-5.34Z" transform="translate(-501.989 -392.23)" fill="#bec3ce"/>
      <path id="Path_5563" data-name="Path 5563" d="M563.98,399.209H547.3l-.343,7.025h16.678Z" transform="translate(-468.122 -386.831)" fill="#bec3ce"/>
      <path id="Path_5564" data-name="Path 5564" d="M613.018,399.209H595.411l-.126,7.025h17.63Z" transform="translate(-481.537 -386.831)" fill="#bec3ce"/>
    </g>
    <g id="Group_3283" data-name="Group 3283" transform="translate(417.189 305.907)">
      <path id="Path_5565" data-name="Path 5565" d="M540.114,386.212l.264-5.36H523.57l-.566,5.36Z" transform="translate(-461.474 -380.853)" fill="#786860"/>
      <path id="Path_5566" data-name="Path 5566" d="M564.588,386.212l.259-5.36H548.169l-.263,5.36Z" transform="translate(-468.386 -380.853)" fill="#786860"/>
      <path id="Path_5567" data-name="Path 5567" d="M588.254,386.212l.1-5.36H572.474l-.262,5.36Z" transform="translate(-475.132 -380.853)" fill="#786860"/>
      <path id="Path_5568" data-name="Path 5568" d="M463,389.493h-12.87l-1.944,5.264h13.41Z" transform="translate(-440.705 -383.251)" fill="#786860"/>
      <path id="Path_5569" data-name="Path 5569" d="M613.218,386.212l.081-5.36H595.728l-.1,5.36Z" transform="translate(-481.633 -380.853)" fill="#786860"/>
      <path id="Path_5570" data-name="Path 5570" d="M465.527,380.853H453.3l-1.98,5.36H464.1Z" transform="translate(-441.576 -380.853)" fill="#786860"/>
      <path id="Path_5571" data-name="Path 5571" d="M514.5,386.212l.563-5.36H496.475l-.934,5.36Z" transform="translate(-453.851 -380.853)" fill="#786860"/>
      <path id="Path_5572" data-name="Path 5572" d="M487.633,386.212l.935-5.36H471.7l-1.428,5.36Z" transform="translate(-446.836 -380.853)" fill="#786860"/>
      <path id="Path_5573" data-name="Path 5573" d="M684.029,386.212l-.466-5.36H667.641l.2,5.36Z" transform="translate(-501.621 -380.853)" fill="#786860"/>
      <path id="Path_5574" data-name="Path 5574" d="M736.506,394.756H749.47l-2.133-5.264H735.106Z" transform="translate(-520.347 -383.251)" fill="#786860"/>
      <path id="Path_5575" data-name="Path 5575" d="M739.23,405.016H753.3l-2.85-7.02H737.367Z" transform="translate(-520.974 -385.611)" fill="#786860"/>
      <path id="Path_5576" data-name="Path 5576" d="M460.239,398h-13.5l-2.59,7.02h14.223Z" transform="translate(-439.586 -385.611)" fill="#786860"/>
      <path id="Path_5577" data-name="Path 5577" d="M728.176,386.212l-1.425-5.36H714.244l.878,5.36Z" transform="translate(-514.556 -380.853)" fill="#786860"/>
      <path id="Path_5578" data-name="Path 5578" d="M707.753,386.212l-.874-5.36H690.906l.464,5.36Z" transform="translate(-508.078 -380.853)" fill="#786860"/>
      <path id="Path_5579" data-name="Path 5579" d="M746.342,386.212l-2.176-5.36H732.814l1.423,5.36Z" transform="translate(-519.711 -380.853)" fill="#786860"/>
      <path id="Path_5580" data-name="Path 5580" d="M637.187,386.212l-.057-5.36H621.267l-.078,5.36Z" transform="translate(-488.727 -380.853)" fill="#786860"/>
      <path id="Path_5581" data-name="Path 5581" d="M660.529,386.212l-.194-5.36H644.473l.055,5.36Z" transform="translate(-495.19 -380.853)" fill="#786860"/>
      <path id="Path_5582" data-name="Path 5582" d="M613.086,394.756l.077-5.264H595.576l-.095,5.264Z" transform="translate(-481.591 -383.251)" fill="#786860"/>
      <path id="Path_5583" data-name="Path 5583" d="M588.029,394.756l.1-5.264H572.055l-.258,5.264Z" transform="translate(-475.017 -383.251)" fill="#786860"/>
      <path id="Path_5584" data-name="Path 5584" d="M660.775,394.756l-.187-5.264H644.563l.056,5.264Z" transform="translate(-495.215 -383.251)" fill="#786860"/>
      <path id="Path_5585" data-name="Path 5585" d="M457.265,408.933H442.951L441.01,414.2h14.855Z" transform="translate(-438.715 -388.647)" fill="#786860"/>
      <path id="Path_5586" data-name="Path 5586" d="M539.568,394.756l.258-5.264h-17.16l-.556,5.264Z" transform="translate(-461.226 -383.251)" fill="#786860"/>
      <path id="Path_5587" data-name="Path 5587" d="M564.172,394.756l.258-5.264H547.748l-.256,5.264Z" transform="translate(-468.271 -383.251)" fill="#786860"/>
      <path id="Path_5588" data-name="Path 5588" d="M637.22,394.756l-.056-5.264H621.141l-.078,5.264Z" transform="translate(-488.692 -383.251)" fill="#786860"/>
      <path id="Path_5589" data-name="Path 5589" d="M684.816,398H668.261l.259,7.02h16.91Z" transform="translate(-501.793 -385.611)" fill="#786860"/>
      <path id="Path_5590" data-name="Path 5590" d="M660.833,398H644.655l.075,7.02h16.356Z" transform="translate(-495.241 -385.611)" fill="#786860"/>
      <path id="Path_5591" data-name="Path 5591" d="M684.656,394.756l-.462-5.264H667.957l.192,5.264Z" transform="translate(-501.708 -383.251)" fill="#786860"/>
      <path id="Path_5592" data-name="Path 5592" d="M709.318,398H692.4l.612,7.02h17.458Z" transform="translate(-508.492 -385.611)" fill="#786860"/>
      <path id="Path_5593" data-name="Path 5593" d="M730.2,394.756l-1.4-5.264H715.655l.864,5.264Z" transform="translate(-514.948 -383.251)" fill="#786860"/>
      <path id="Path_5594" data-name="Path 5594" d="M637.185,398H621.007l-.1,7.02h16.359Z" transform="translate(-488.647 -385.611)" fill="#786860"/>
      <path id="Path_5595" data-name="Path 5595" d="M708.966,394.756l-.861-5.264H691.653l.461,5.264Z" transform="translate(-508.285 -383.251)" fill="#786860"/>
      <path id="Path_5596" data-name="Path 5596" d="M513.441,394.756l.554-5.264H494.977l-.917,5.264Z" transform="translate(-453.44 -383.251)" fill="#786860"/>
      <path id="Path_5597" data-name="Path 5597" d="M595.23,408.933l-.1,5.267h17.646l.083-5.267Z" transform="translate(-481.495 -388.647)" fill="#786860"/>
      <path id="Path_5598" data-name="Path 5598" d="M538.569,408.933H520.617l-.555,5.267h18.249Z" transform="translate(-460.657 -388.647)" fill="#786860"/>
      <path id="Path_5599" data-name="Path 5599" d="M718.843,408.933l.857,5.267h15.114l-1.4-5.267Z" transform="translate(-515.833 -388.647)" fill="#786860"/>
      <path id="Path_5600" data-name="Path 5600" d="M620.857,408.933l-.08,5.267h16.514l-.057-5.267Z" transform="translate(-488.613 -388.647)" fill="#786860"/>
      <path id="Path_5601" data-name="Path 5601" d="M668.66,408.933l.194,5.267h17.22l-.46-5.267Z" transform="translate(-501.903 -388.647)" fill="#786860"/>
      <path id="Path_5602" data-name="Path 5602" d="M693.348,408.933l.46,5.267h17.927l-.861-5.267Z" transform="translate(-508.756 -388.647)" fill="#786860"/>
      <path id="Path_5603" data-name="Path 5603" d="M484.975,398H466.963l-1.872,7.02h18.658Z" transform="translate(-445.399 -385.611)" fill="#786860"/>
      <path id="Path_5604" data-name="Path 5604" d="M486.853,389.493H469.405l-1.4,5.264h17.932Z" transform="translate(-446.207 -383.251)" fill="#786860"/>
      <path id="Path_5605" data-name="Path 5605" d="M491.588,408.933l-.914,5.267h20.35l.55-5.267Z" transform="translate(-452.5 -388.647)" fill="#786860"/>
      <path id="Path_5606" data-name="Path 5606" d="M464.229,408.933l-1.4,5.267h19.225l.915-5.267Z" transform="translate(-444.771 -388.647)" fill="#786860"/>
      <path id="Path_5607" data-name="Path 5607" d="M740.27,408.933l1.4,5.267h14.935l-2.139-5.267Z" transform="translate(-521.78 -388.647)" fill="#786860"/>
      <path id="Path_5608" data-name="Path 5608" d="M439.8,417.442l-1.971,5.337h15.494l1.422-5.337Z" transform="translate(-437.833 -391.009)" fill="#786860"/>
      <path id="Path_5609" data-name="Path 5609" d="M694.093,417.442l.464,5.337h18.4l-.879-5.337Z" transform="translate(-508.963 -391.009)" fill="#786860"/>
      <path id="Path_5610" data-name="Path 5610" d="M539.2,398H521.7l-.739,7.02h17.9Z" transform="translate(-460.906 -385.611)" fill="#786860"/>
      <path id="Path_5611" data-name="Path 5611" d="M718.2,405.016h14.483L730.82,398H717.048Z" transform="translate(-515.335 -385.611)" fill="#786860"/>
      <path id="Path_5612" data-name="Path 5612" d="M720.227,417.442l.876,5.337h15.745l-1.418-5.337Z" transform="translate(-516.217 -391.009)" fill="#786860"/>
      <path id="Path_5613" data-name="Path 5613" d="M743.948,422.78h15.808l-2.167-5.337H742.533Z" transform="translate(-522.408 -391.009)" fill="#786860"/>
      <path id="Path_5614" data-name="Path 5614" d="M587.608,408.933H571.1l-.256,5.267h16.666Z" transform="translate(-474.754 -388.647)" fill="#786860"/>
      <path id="Path_5615" data-name="Path 5615" d="M563.221,414.2l.256-5.267H546.8l-.257,5.267Z" transform="translate(-468.007 -388.647)" fill="#786860"/>
      <path id="Path_5616" data-name="Path 5616" d="M492.153,405.016H512.08l.739-7.02H493.377Z" transform="translate(-452.91 -385.611)" fill="#786860"/>
      <path id="Path_5617" data-name="Path 5617" d="M490.1,417.442l-.931,5.337h20.782l.562-5.337Z" transform="translate(-452.083 -391.009)" fill="#786860"/>
      <path id="Path_5618" data-name="Path 5618" d="M461.96,417.442l-1.423,5.337h19.795l.931-5.337Z" transform="translate(-444.135 -391.009)" fill="#786860"/>
      <path id="Path_5619" data-name="Path 5619" d="M571.606,398l-.343,7.02h16.478l.122-7.02Z" transform="translate(-474.869 -385.611)" fill="#786860"/>
      <path id="Path_5620" data-name="Path 5620" d="M644.773,408.933l.055,5.267h16.514l-.188-5.267Z" transform="translate(-495.273 -388.647)" fill="#786860"/>
      <path id="Path_5621" data-name="Path 5621" d="M620.731,417.442l-.079,5.337h16.672l-.057-5.337Z" transform="translate(-488.578 -391.009)" fill="#786860"/>
      <path id="Path_5622" data-name="Path 5622" d="M644.862,417.442l.061,5.337h16.67l-.195-5.337Z" transform="translate(-495.298 -391.009)" fill="#786860"/>
      <path id="Path_5623" data-name="Path 5623" d="M519.719,417.442l-.561,5.337H591.6l.079-5.337Z" transform="translate(-460.406 -391.009)" fill="#786860"/>
      <path id="Path_5624" data-name="Path 5624" d="M668.968,417.442l.195,5.337H686.7l-.467-5.337Z" transform="translate(-501.989 -391.009)" fill="#786860"/>
      <path id="Path_5625" data-name="Path 5625" d="M563.98,398H547.3l-.343,7.02h16.678Z" transform="translate(-468.122 -385.611)" fill="#786860"/>
      <path id="Path_5626" data-name="Path 5626" d="M613.018,398H595.411l-.126,7.02h17.63Z" transform="translate(-481.537 -385.611)" fill="#786860"/>
    </g>
    <path id="Path_5627" data-name="Path 5627" d="M648.331,330.35l-5-3.093c-6.562-9.783-.267-44.937-14.458-49.8-.215-.073-1.157,5.6-1.38,5.607l.045-1.123c-6.57-13.791.3-63.247-12.62-63.636l-65.042,51.165c-6.5,0-6.507,6.657-6.55,10.475l-.635,32.6-4.266-.029c-6.976-.048-12.723,4.13-13.2,9.449H525.2l-.487,42.881-8.308-.056a9.345,9.345,0,0,0-.778,3.608c-.074,6.463,6.633,11.747,14.979,11.8.464,0,.921-.012,1.375-.04v.049l109.753.748c8.345.057,14.591-5.169,15.245-11.6.371-3.655-8.649-39.011-8.649-39.011Z" transform="translate(-42.237 -29.829)" fill="#786860" opacity="0.42" style="mix-blend-mode: multiply;isolation: isolate"/>
    <path id="Path_5628" data-name="Path 5628" d="M450.473,325a.413.413,0,1,0,.413-.382A.4.4,0,0,0,450.473,325Z" transform="translate(-24.152 -59.336)" fill="#f48baa" style="mix-blend-mode: multiply;isolation: isolate"/>
    <path id="Path_5629" data-name="Path 5629" d="M633.4,343.461l-2.587-.023.333-37.878a10.93,10.93,0,0,0-6.116-2.041c-.4,0-.735-7.359-1.129-7.327v-.057l-95.236-.839a13.113,13.113,0,0,0-13.2,12.2h-.026l-.534,60.7,122.631,3.793.071-8.052-4.392-.038Z" transform="translate(-42.039 -51.198)" fill="#c6cedb" style="mix-blend-mode: multiply;isolation: isolate"/>
    <path id="Path_5630" data-name="Path 5630" d="M626.474,233.569c0-9.23-.886-15.261-6.445-15.261H541.551c-6.5,0-6.507,8.6-6.55,13.527l-.954,63.257,3.541,3.6,87.9.773Z" transform="translate(-47.349 -29.829)" fill="#fff"/>
    <g id="Group_3287" data-name="Group 3287" transform="translate(497.504 224.554)" opacity="0.45">
      <g id="Group_3284" data-name="Group 3284" transform="translate(67.269 0)">
        <path id="Path_5631" data-name="Path 5631" d="M642.482,268.968l2.273-.007a.359.359,0,0,0,0-.718l-2.273.007a.359.359,0,1,0,0,.718Z" transform="translate(-642.121 -268.243)" fill="#786860"/>
      </g>
      <g id="Group_3285" data-name="Group 3285" transform="translate(6.606 0.019)">
        <path id="Path_5632" data-name="Path 5632" d="M558.15,268.794a.358.358,0,0,1,.358-.36l4.333-.013a.359.359,0,0,1,0,.718l-4.333.012A.359.359,0,0,1,558.15,268.794Zm8.666-.025a.359.359,0,0,1,.358-.36l4.333-.012a.359.359,0,0,1,0,.718l-4.333.012A.359.359,0,0,1,566.816,268.769Zm8.666-.025a.359.359,0,0,1,.358-.361l4.333-.012a.359.359,0,1,1,0,.718l-4.333.012A.359.359,0,0,1,575.483,268.744Zm8.666-.025a.359.359,0,0,1,.358-.361l4.333-.012a.359.359,0,1,1,0,.717l-4.333.013A.359.359,0,0,1,584.149,268.719Zm8.666-.025a.359.359,0,0,1,.358-.36l4.333-.012a.359.359,0,0,1,0,.717l-4.333.013A.358.358,0,0,1,592.815,268.693Zm8.666-.025a.359.359,0,0,1,.358-.361l4.333-.012a.359.359,0,0,1,0,.717l-4.333.013A.358.358,0,0,1,601.481,268.668Zm8.666-.025a.36.36,0,0,1,.358-.36l4.333-.012a.359.359,0,1,1,0,.717l-4.333.013A.359.359,0,0,1,610.147,268.643Z" transform="translate(-558.15 -268.27)" fill="#786860"/>
      </g>
      <g id="Group_3286" data-name="Group 3286" transform="translate(0 0.197)">
        <path id="Path_5633" data-name="Path 5633" d="M549.366,269.24l2.273-.007a.359.359,0,0,0,0-.717l-2.274.007a.359.359,0,0,0,0,.718Z" transform="translate(-549.006 -268.515)" fill="#786860"/>
      </g>
    </g>
    <g id="Group_3288" data-name="Group 3288" transform="translate(507.37 212.442)" opacity="0.45">
      <path id="Path_5634" data-name="Path 5634" d="M562.662,252.6a.963.963,0,0,0,.966.961l52.163-.152a.963.963,0,0,0,.96-.966h0a.963.963,0,0,0-.966-.961l-52.163.152a.963.963,0,0,0-.96.966Z" transform="translate(-562.662 -251.477)" fill="#786860"/>
    </g>
    <g id="Group_3289" data-name="Group 3289" transform="translate(517.982 217.955)" opacity="0.45">
      <path id="Path_5635" data-name="Path 5635" d="M577.351,260.166a.962.962,0,0,0,.966.96l31.416-.091a.964.964,0,0,0,.96-.967h0a.963.963,0,0,0-.966-.96l-31.416.092a.963.963,0,0,0-.96.966Z" transform="translate(-577.351 -259.108)" fill="#786860"/>
    </g>
    <path id="Path_5636" data-name="Path 5636" d="M583.648,288.5a1.258,1.258,0,0,0-1.254-1.264l-31.55-.04a1.261,1.261,0,0,0-1.263,1.255h0a1.259,1.259,0,0,0,1.253,1.264l31.552.038a1.257,1.257,0,0,0,1.263-1.253Z" transform="translate(-51.661 -48.949)" fill="#786860" opacity="0.45"/>
    <path id="Path_5637" data-name="Path 5637" d="M641.4,288.661a1.259,1.259,0,0,0-1.253-1.264l-11.395-.025a1.258,1.258,0,0,0-1.263,1.253h0a1.256,1.256,0,0,0,1.253,1.264l11.393.026a1.259,1.259,0,0,0,1.264-1.253Z" transform="translate(-73.286 -48.998)" fill="#786860" opacity="0.45"/>
    <path id="Path_5638" data-name="Path 5638" d="M641.4,277.237a1.259,1.259,0,0,0-1.253-1.264l-11.395-.025a1.259,1.259,0,0,0-1.263,1.253h0a1.256,1.256,0,0,0,1.253,1.264l11.393.026a1.259,1.259,0,0,0,1.264-1.253Z" transform="translate(-73.286 -45.827)" fill="#786860" opacity="0.45"/>
    <path id="Path_5639" data-name="Path 5639" d="M589.112,277.247a1.257,1.257,0,0,0-1.253-1.264l-36.985-.061a1.259,1.259,0,0,0-1.264,1.254h0a1.256,1.256,0,0,0,1.253,1.262l36.986.063a1.26,1.26,0,0,0,1.263-1.254Z" transform="translate(-51.669 -45.82)" fill="#786860" opacity="0.45"/>
    <path id="Path_5640" data-name="Path 5640" d="M641.1,296.949a1.325,1.325,0,0,0-1.319-1.33l-11.987-.027a1.324,1.324,0,0,0-1.329,1.318h0a1.321,1.321,0,0,0,1.319,1.329l11.986.027a1.325,1.325,0,0,0,1.33-1.318Z" transform="translate(-73.003 -51.28)" fill="#786860"/>
    <path id="Path_5641" data-name="Path 5641" d="M586.1,296.96a1.323,1.323,0,0,0-1.318-1.329l-38.91-.064a1.323,1.323,0,0,0-1.328,1.319h0a1.321,1.321,0,0,0,1.318,1.328l38.909.066a1.326,1.326,0,0,0,1.329-1.319Z" transform="translate(-50.262 -51.273)" fill="#786860"/>
    <path id="Path_5642" data-name="Path 5642" d="M535.148,285.936l-.17,19.386,90.742.806.126-14.343Z" transform="translate(-47.608 -48.6)" fill="#786860" opacity="0.28" style="mix-blend-mode: multiply;isolation: isolate"/>
    <g id="Group_3290" data-name="Group 3290" transform="translate(468.994 242.154)">
      <path id="Path_5643" data-name="Path 5643" d="M632.706,305.886a13.114,13.114,0,0,0-12.979-12.432c-.4,0-.8.014-1.193.046v-.057l-95.235-.837a13.113,13.113,0,0,0-13.2,12.2h-.025l-.534,60.7,122.63,3.794.558-63.412Z" transform="translate(-509.542 -292.605)" fill="#fff"/>
      <rect id="Rectangle_2891" data-name="Rectangle 2891" width="32.865" height="3.56" transform="translate(20.284 80.004) rotate(-89.493)" fill="#786860" opacity="0.45"/>
      <rect id="Rectangle_2892" data-name="Rectangle 2892" width="32.865" height="1.781" transform="translate(25.426 80.049) rotate(-89.489)" fill="#786860" opacity="0.45"/>
      <rect id="Rectangle_2893" data-name="Rectangle 2893" width="32.865" height="0.89" transform="translate(29.188 80.082) rotate(-89.497)" fill="#786860" opacity="0.45"/>
      <rect id="Rectangle_2894" data-name="Rectangle 2894" width="32.866" height="3.617" transform="matrix(0.009, -1, 1, 0.009, 31.336, 80.102)" fill="#786860" opacity="0.45"/>
      <rect id="Rectangle_2895" data-name="Rectangle 2895" width="32.865" height="3.562" transform="translate(35.621 80.139) rotate(-89.499)" fill="#786860" opacity="0.45"/>
      <rect id="Rectangle_2896" data-name="Rectangle 2896" width="32.866" height="1.78" transform="translate(40.762 80.185) rotate(-89.481)" fill="#786860" opacity="0.45"/>
      <rect id="Rectangle_2897" data-name="Rectangle 2897" width="32.866" height="0.891" transform="matrix(0.009, -1, 1, 0.009, 43.634, 80.21)" fill="#786860" opacity="0.45"/>
      <rect id="Rectangle_2898" data-name="Rectangle 2898" width="32.865" height="3.616" transform="translate(46.671 80.236) rotate(-89.493)" fill="#786860" opacity="0.45"/>
      <rect id="Rectangle_2899" data-name="Rectangle 2899" width="32.865" height="0.891" transform="matrix(0.009, -1, 1, 0.009, 52.54, 80.288)" fill="#786860" opacity="0.45"/>
      <rect id="Rectangle_2900" data-name="Rectangle 2900" width="32.865" height="2.2" transform="translate(54.092 80.302) rotate(-89.501)" fill="#786860" opacity="0.45"/>
      <rect id="Rectangle_2901" data-name="Rectangle 2901" width="32.865" height="3.287" transform="matrix(0.009, -1, 1, 0.009, 57.158, 80.328)" fill="#786860" opacity="0.45"/>
      <rect id="Rectangle_2902" data-name="Rectangle 2902" width="32.866" height="3.56" transform="translate(62.085 80.372) rotate(-89.5)" fill="#786860" opacity="0.45"/>
      <rect id="Rectangle_2903" data-name="Rectangle 2903" width="32.866" height="1.781" transform="matrix(0.009, -1, 1, 0.009, 67.23, 80.418)" fill="#786860" opacity="0.45"/>
      <rect id="Rectangle_2904" data-name="Rectangle 2904" width="32.866" height="0.89" transform="translate(70.974 80.45) rotate(-89.456)" fill="#786860" opacity="0.45"/>
      <rect id="Rectangle_2905" data-name="Rectangle 2905" width="32.866" height="3.615" transform="translate(73.136 80.47) rotate(-89.502)" fill="#786860" opacity="0.45"/>
      <rect id="Rectangle_2906" data-name="Rectangle 2906" width="32.866" height="3.562" transform="translate(77.417 80.507) rotate(-89.486)" fill="#786860" opacity="0.45"/>
      <rect id="Rectangle_2907" data-name="Rectangle 2907" width="32.865" height="1.781" transform="translate(82.562 80.552) rotate(-89.491)" fill="#786860" opacity="0.45"/>
      <rect id="Rectangle_2908" data-name="Rectangle 2908" width="32.866" height="0.89" transform="translate(85.441 80.578) rotate(-89.53)" fill="#786860" opacity="0.45"/>
      <rect id="Rectangle_2909" data-name="Rectangle 2909" width="32.865" height="3.615" transform="translate(88.471 80.604) rotate(-89.492)" fill="#786860" opacity="0.45"/>
      <rect id="Rectangle_2910" data-name="Rectangle 2910" width="32.865" height="0.892" transform="matrix(0.009, -1, 1, 0.009, 94.332, 80.656)" fill="#786860" opacity="0.45"/>
      <rect id="Rectangle_2911" data-name="Rectangle 2911" width="32.865" height="2.2" transform="matrix(0.009, -1, 1, 0.009, 95.889, 80.669)" fill="#786860" opacity="0.45"/>
      <rect id="Rectangle_2912" data-name="Rectangle 2912" width="32.865" height="3.287" transform="translate(98.957 80.697) rotate(-89.5)" fill="#786860" opacity="0.45"/>
    </g>
    <path id="Path_5644" data-name="Path 5644" d="M574.16,331.369a1.857,1.857,0,0,0-1.851-1.865l-46.559-.058a1.86,1.86,0,0,0-1.865,1.852h0a1.856,1.856,0,0,0,1.849,1.864l46.562.057a1.856,1.856,0,0,0,1.864-1.849Z" transform="translate(-44.529 -60.677)" fill="#786860" opacity="0.45"/>
    <path id="Path_5645" data-name="Path 5645" d="M649.654,331.61a1.86,1.86,0,0,0-1.851-1.866l-16.815-.037a1.857,1.857,0,0,0-1.864,1.85h0a1.854,1.854,0,0,0,1.85,1.864l16.814.038a1.858,1.858,0,0,0,1.866-1.849Z" transform="translate(-73.74 -60.75)" fill="#786860" opacity="0.45"/>
    <path id="Path_5646" data-name="Path 5646" d="M649.654,314.752a1.859,1.859,0,0,0-1.851-1.866l-16.815-.038a1.858,1.858,0,0,0-1.864,1.85h0a1.854,1.854,0,0,0,1.85,1.864l16.814.039a1.859,1.859,0,0,0,1.866-1.849Z" transform="translate(-73.74 -56.07)" fill="#786860" opacity="0.45"/>
    <path id="Path_5647" data-name="Path 5647" d="M582.224,314.766a1.855,1.855,0,0,0-1.849-1.864l-54.58-.09a1.857,1.857,0,0,0-1.865,1.85h0a1.854,1.854,0,0,0,1.85,1.862l54.58.092a1.859,1.859,0,0,0,1.865-1.851Z" transform="translate(-44.541 -56.06)" fill="#786860" opacity="0.45"/>
    <path id="Path_5648" data-name="Path 5648" d="M509.626,381.873l-.084,9.551,122.63,3.793.142-16.122Z" transform="translate(-40.548 -74.458)" fill="#786860" opacity="0.28" style="mix-blend-mode: multiply;isolation: isolate"/>
    <path id="Path_5649" data-name="Path 5649" d="M637.684,389.925l-14.375-.126-14.376-.126-82.376-.725-13-.115-15.75-.139a15.116,15.116,0,0,0,14.2,19.9c.464,0,.921-.016,1.375-.052v.064l109.753.965a15.114,15.114,0,0,0,14.548-19.651Z" transform="translate(-37.075 -77.123)" fill="#fff"/>
    <g id="Group_3291" data-name="Group 3291" transform="translate(496.923 196.669)">
      <path id="Path_5650" data-name="Path 5650" d="M551.206,229.924l1.734,6.357h.029v-6.357h2.514V240.24h-2.948l-1.792-6.372h-.029v6.372H548.2V229.924Z" transform="translate(-548.201 -229.722)" fill="#786860"/>
      <path id="Path_5651" data-name="Path 5651" d="M559.809,232.541a4.361,4.361,0,0,1,.621-1.662,2.518,2.518,0,0,1,1.141-.939,5.223,5.223,0,0,1,3.468,0,2.521,2.521,0,0,1,1.141.939,4.36,4.36,0,0,1,.621,1.662,16.251,16.251,0,0,1,0,4.927,4.356,4.356,0,0,1-.621,1.661,2.384,2.384,0,0,1-1.141.917,5.6,5.6,0,0,1-3.468,0,2.382,2.382,0,0,1-1.141-.917,4.357,4.357,0,0,1-.621-1.661,16.251,16.251,0,0,1,0-4.927Zm2.615,4.19a6.1,6.1,0,0,0,.123,1.09,1.061,1.061,0,0,0,.275.564.819.819,0,0,0,.968,0,1.062,1.062,0,0,0,.275-.564,6.185,6.185,0,0,0,.122-1.09q.03-.687.029-1.727t-.029-1.726a6.2,6.2,0,0,0-.122-1.091,1.06,1.06,0,0,0-.275-.563.816.816,0,0,0-.968,0,1.059,1.059,0,0,0-.275.563,6.1,6.1,0,0,0-.123,1.091q-.029.686-.029,1.726T562.424,236.731Z" transform="translate(-551.371 -229.644)" fill="#786860"/>
      <path id="Path_5652" data-name="Path 5652" d="M570.281,232.206v-2.282h6.7v2.282h-2.023v8.034h-2.687v-8.034Z" transform="translate(-554.33 -229.722)" fill="#786860"/>
      <path id="Path_5653" data-name="Path 5653" d="M584.073,229.924l2.514,10.316h-2.861l-.275-1.806h-2.138l-.275,1.806h-2.817l2.471-10.316Zm-1.7,2.109-.737,4.378h1.5l-.737-4.378Z" transform="translate(-556.534 -229.722)" fill="#786860"/>
      <path id="Path_5654" data-name="Path 5654" d="M601.732,229.924v2.2h-3.424v1.763h3.207v2.11h-3.207v4.248H595.62V229.924Z" transform="translate(-561.363 -229.722)" fill="#786860"/>
      <path id="Path_5655" data-name="Path 5655" d="M607.788,229.924V240.24H605.1V229.924Z" transform="translate(-563.995 -229.722)" fill="#786860"/>
      <path id="Path_5656" data-name="Path 5656" d="M614.335,232.577a1.551,1.551,0,0,0-.188-.787.622.622,0,0,0-.579-.325.726.726,0,0,0-.635.282,1.049,1.049,0,0,0-.2.629,1.033,1.033,0,0,0,.324.8,3.034,3.034,0,0,0,.816.513c.327.144.68.291,1.055.441a4.727,4.727,0,0,1,1.056.585,2.914,2.914,0,0,1,.816.946,3.125,3.125,0,0,1,.324,1.524,2.868,2.868,0,0,1-.938,2.392,4.294,4.294,0,0,1-2.716.744,7.118,7.118,0,0,1-1.481-.138,2.647,2.647,0,0,1-1.084-.476,2.156,2.156,0,0,1-.673-.889,3.517,3.517,0,0,1-.23-1.359V237.1h2.6v.246a1.381,1.381,0,0,0,.245.932.826.826,0,0,0,.636.267.764.764,0,0,0,.644-.289,1.121,1.121,0,0,0,.224-.708,1.056,1.056,0,0,0-.311-.8,2.752,2.752,0,0,0-.78-.506q-.47-.208-1.019-.425a4.505,4.505,0,0,1-1.019-.564,2.8,2.8,0,0,1-.78-.91,3.05,3.05,0,0,1-.31-1.474,3.212,3.212,0,0,1,.838-2.4,3.491,3.491,0,0,1,2.542-.824,3.589,3.589,0,0,1,2.551.759,3.236,3.236,0,0,1,.787,2.419h-2.513Z" transform="translate(-565.355 -229.644)" fill="#786860"/>
      <path id="Path_5657" data-name="Path 5657" d="M625.008,231.782a.594.594,0,0,0-.564-.318.7.7,0,0,0-.484.159,1.054,1.054,0,0,0-.274.563,6.243,6.243,0,0,0-.123,1.091q-.029.686-.029,1.726t.029,1.727a6.233,6.233,0,0,0,.123,1.09,1.057,1.057,0,0,0,.274.564.7.7,0,0,0,.484.158.639.639,0,0,0,.4-.123.786.786,0,0,0,.246-.411,3.791,3.791,0,0,0,.123-.773q.036-.484.036-1.222h2.6v.766a4.669,4.669,0,0,1-.289,1.777,2.778,2.778,0,0,1-.766,1.092,2.545,2.545,0,0,1-1.091.534,5.765,5.765,0,0,1-1.264.138,5.262,5.262,0,0,1-1.849-.275,2.222,2.222,0,0,1-1.127-.917,4.276,4.276,0,0,1-.556-1.661A17.054,17.054,0,0,1,620.76,235a14.666,14.666,0,0,1,.181-2.5,4.238,4.238,0,0,1,.614-1.662,2.443,2.443,0,0,1,1.141-.917,4.733,4.733,0,0,1,1.748-.282,4.554,4.554,0,0,1,1.546.23,2.6,2.6,0,0,1,1.033.658,2.568,2.568,0,0,1,.578,1.025,4.7,4.7,0,0,1,.181,1.352v.649h-2.6v-.577A2.805,2.805,0,0,0,625.008,231.782Z" transform="translate(-568.341 -229.644)" fill="#786860"/>
      <path id="Path_5658" data-name="Path 5658" d="M636.691,229.924,639.2,240.24h-2.861l-.274-1.806h-2.138l-.275,1.806h-2.818l2.471-10.316Zm-1.7,2.109-.736,4.378h1.5l-.738-4.378Z" transform="translate(-571.139 -229.722)" fill="#786860"/>
      <path id="Path_5659" data-name="Path 5659" d="M645.727,229.924v8.12h3.309v2.2h-6V229.924Z" transform="translate(-574.525 -229.722)" fill="#786860"/>
    </g>
    <g id="Group_3292" data-name="Group 3292" transform="translate(588.753 210.544)" opacity="0.42" style="mix-blend-mode: multiply;isolation: isolate">
      <path id="Path_5660" data-name="Path 5660" d="M691.782,267.159h-8.855a1.121,1.121,0,0,1,0-2.242h8.855a1.121,1.121,0,0,1,0,2.242Z" transform="translate(-671.664 -253.31)" fill="#786860"/>
      <path id="Path_5661" data-name="Path 5661" d="M688.155,274.936H668.88a1.121,1.121,0,0,1,0-2.242h19.274a1.121,1.121,0,0,1,0,2.242Z" transform="translate(-667.765 -255.468)" fill="#786860"/>
      <path id="Path_5662" data-name="Path 5662" d="M707.648,285.284a17.946,17.946,0,0,1-14.5-7.294,1.123,1.123,0,0,1,.223-1.569,1.108,1.108,0,0,1,1.56.225,15.742,15.742,0,0,0,12.721,6.4,15.976,15.976,0,0,0,0-31.951,15.739,15.739,0,0,0-12.729,6.41,1.112,1.112,0,0,1-1.562.225,1.126,1.126,0,0,1-.224-1.569,17.947,17.947,0,0,1,14.514-7.308,18.217,18.217,0,0,1,0,36.434Z" transform="translate(-674.745 -248.85)" fill="#786860"/>
      <path id="Path_5663" data-name="Path 5663" d="M711.357,276.1a1.11,1.11,0,0,1-.837-.381l-3.968-4.534a1.125,1.125,0,0,1,.1-1.581,1.111,1.111,0,0,1,1.573.1l3.968,4.534a1.124,1.124,0,0,1-.1,1.581A1.106,1.106,0,0,1,711.357,276.1Z" transform="translate(-678.454 -254.534)" fill="#786860"/>
      <path id="Path_5664" data-name="Path 5664" d="M720.09,266.412a1.107,1.107,0,0,1,1.571.121,1.123,1.123,0,0,1-.121,1.58l-7.933,6.836a1.107,1.107,0,0,1-1.571-.121,1.122,1.122,0,0,1,.121-1.579" transform="translate(-679.978 -253.649)" fill="#786860"/>
      <path id="Path_5665" data-name="Path 5665" d="M690.2,282.509H677.233a1.121,1.121,0,0,1,0-2.242H690.2a1.121,1.121,0,0,1,0,2.242Z" transform="translate(-670.083 -257.57)" fill="#786860"/>
    </g>
    <g id="Group_3293" data-name="Group 3293" transform="translate(589.711 210.207)">
      <path id="Path_5666" data-name="Path 5666" d="M691.866,265.668h-8.4a1.058,1.058,0,1,1,0-2.117h8.4a1.058,1.058,0,0,1,0,2.117Z" transform="translate(-672.773 -252.593)" fill="#fff"/>
      <path id="Path_5667" data-name="Path 5667" d="M688.424,273.008H670.131a1.058,1.058,0,0,1,0-2.116h18.293a1.058,1.058,0,1,1,0,2.116Z" transform="translate(-669.073 -254.631)" fill="#fff"/>
      <path id="Path_5668" data-name="Path 5668" d="M706.924,282.778a17.064,17.064,0,0,1-13.766-6.886,1.058,1.058,0,0,1,1.693-1.269,15.083,15.083,0,1,0-.007-18.072,1.059,1.059,0,1,1-1.695-1.269,17.2,17.2,0,1,1,13.775,27.5Z" transform="translate(-675.697 -248.383)" fill="#fff"/>
      <path id="Path_5669" data-name="Path 5669" d="M710.444,274.111a1.057,1.057,0,0,1-.795-.359l-3.765-4.28a1.058,1.058,0,1,1,1.589-1.4l3.765,4.28a1.058,1.058,0,0,1-.795,1.756Z" transform="translate(-679.218 -253.749)" fill="#fff"/>
      <path id="Path_5670" data-name="Path 5670" d="M718.731,264.962a1.058,1.058,0,1,1,1.377,1.606l-7.529,6.454a1.058,1.058,0,0,1-1.377-1.606" transform="translate(-680.664 -252.914)" fill="#fff"/>
      <path id="Path_5671" data-name="Path 5671" d="M690.366,280.158H678.058a1.058,1.058,0,1,1,0-2.117h12.307a1.058,1.058,0,1,1,0,2.117Z" transform="translate(-671.273 -256.615)" fill="#fff"/>
    </g>
  </g>
</svg>
