<svg xmlns="http://www.w3.org/2000/svg" width="28.414" height="21.175" viewBox="0 0 28.414 21.175">
  <g id="Group_3299" data-name="Group 3299" transform="translate(0 -130.087)">
    <g id="Group_3296" data-name="Group 3296" transform="translate(0 140.218)">
      <g id="Group_3295" data-name="Group 3295">
        <path id="Path_5672" data-name="Path 5672" d="M26.194,313.6v6.761a1.11,1.11,0,0,1-1.11,1.11H3.33a1.11,1.11,0,0,1-1.11-1.11v-6.6a1.11,1.11,0,0,0-1.11-1.11h0A1.11,1.11,0,0,0,0,313.752v6.6a3.33,3.33,0,0,0,3.33,3.33H25.084a3.33,3.33,0,0,0,3.33-3.33V313.6a.953.953,0,0,0-.953-.953h-.313A.953.953,0,0,0,26.194,313.6Z" transform="translate(0 -312.642)" fill="#fff"/>
      </g>
    </g>
    <g id="Group_3298" data-name="Group 3298" transform="translate(7.684 130.087)">
      <g id="Group_3297" data-name="Group 3297">
        <path id="Path_5673" data-name="Path 5673" d="M144.353,130.351l-5.62,5.62a.9.9,0,0,0,0,1.279l.29.29a.9.9,0,0,0,1.279,0l3.578-3.578V146.1a1.11,1.11,0,0,0,1.11,1.11h0a1.11,1.11,0,0,0,1.11-1.11V133.963l3.592,3.592a.885.885,0,0,0,1.252,0l.318-.318a.885.885,0,0,0,0-1.252l-5.634-5.634A.9.9,0,0,0,144.353,130.351Z" transform="translate(-138.467 -130.087)" fill="#fff"/>
      </g>
    </g>
  </g>
</svg>
