<svg id="Grupo_1094" data-name="Grupo 1094" xmlns="http://www.w3.org/2000/svg" width="27" height="27" viewBox="0 0 27 27">
  <g id="Grupo_1081" data-name="Grupo 1081">
    <g id="Grupo_1080" data-name="Grupo 1080">
      <path id="Caminho_1356" data-name="Caminho 1356" d="M24.107,0H2.893A2.893,2.893,0,0,0,0,2.893V24.107A2.893,2.893,0,0,0,2.893,27H24.107A2.893,2.893,0,0,0,27,24.107V2.893A2.893,2.893,0,0,0,24.107,0Zm.964,24.107a.964.964,0,0,1-.964.964H2.893a.964.964,0,0,1-.964-.964V2.893a.964.964,0,0,1,.964-.964H24.107a.964.964,0,0,1,.964.964V24.107Z" fill="#193b4e"/>
    </g>
  </g>
  <g id="Grupo_1083" data-name="Grupo 1083" transform="translate(4.821 5.786)">
    <g id="Grupo_1082" data-name="Grupo 1082">
      <path id="Caminho_1357" data-name="Caminho 1357" d="M89.19,102.4H86.3a.964.964,0,0,0,0,1.929H89.19a.964.964,0,1,0,0-1.929Z" transform="translate(-85.333 -102.4)" fill="#193b4e"/>
    </g>
  </g>
  <g id="Grupo_1085" data-name="Grupo 1085" transform="translate(11.571 5.786)">
    <g id="Grupo_1084" data-name="Grupo 1084">
      <path id="Caminho_1358" data-name="Caminho 1358" d="M214.443,102.4h-8.679a.964.964,0,1,0,0,1.929h8.679a.964.964,0,1,0,0-1.929Z" transform="translate(-204.8 -102.4)" fill="#193b4e"/>
    </g>
  </g>
  <g id="Grupo_1087" data-name="Grupo 1087" transform="translate(4.821 12.536)">
    <g id="Grupo_1086" data-name="Grupo 1086">
      <path id="Caminho_1359" data-name="Caminho 1359" d="M89.19,221.867H86.3a.964.964,0,1,0,0,1.929H89.19a.964.964,0,1,0,0-1.929Z" transform="translate(-85.333 -221.867)" fill="#193b4e"/>
    </g>
  </g>
  <g id="Grupo_1089" data-name="Grupo 1089" transform="translate(11.571 12.536)">
    <g id="Grupo_1088" data-name="Grupo 1088">
      <path id="Caminho_1360" data-name="Caminho 1360" d="M214.443,221.867h-8.679a.964.964,0,1,0,0,1.929h8.679a.964.964,0,1,0,0-1.929Z" transform="translate(-204.8 -221.867)" fill="#193b4e"/>
    </g>
  </g>
  <g id="Grupo_1091" data-name="Grupo 1091" transform="translate(4.821 19.286)">
    <g id="Grupo_1090" data-name="Grupo 1090">
      <path id="Caminho_1361" data-name="Caminho 1361" d="M89.19,341.333H86.3a.964.964,0,0,0,0,1.929H89.19a.964.964,0,0,0,0-1.929Z" transform="translate(-85.333 -341.333)" fill="#193b4e"/>
    </g>
  </g>
  <g id="Grupo_1093" data-name="Grupo 1093" transform="translate(11.571 19.286)">
    <g id="Grupo_1092" data-name="Grupo 1092">
      <path id="Caminho_1362" data-name="Caminho 1362" d="M214.443,341.333h-8.679a.964.964,0,1,0,0,1.929h8.679a.964.964,0,1,0,0-1.929Z" transform="translate(-204.8 -341.333)" fill="#193b4e"/>
    </g>
  </g>
</svg>
