<svg id="Grupo_1054" data-name="Grupo 1054" xmlns="http://www.w3.org/2000/svg" width="19.383" height="19.383" viewBox="0 0 19.383 19.383">
  <g id="Grupo_1034" data-name="Grupo 1034">
    <g id="Grupo_1033" data-name="Grupo 1033">
      <path id="Caminho_1329" data-name="Caminho 1329" d="M17.306,2.077H15.229V.692a.692.692,0,1,0-1.384,0V2.077H5.538V.692a.692.692,0,1,0-1.384,0V2.077H2.077A2.077,2.077,0,0,0,0,4.153V17.306a2.077,2.077,0,0,0,2.077,2.077H17.306a2.077,2.077,0,0,0,2.077-2.077V4.153A2.077,2.077,0,0,0,17.306,2.077ZM18,17.306a.692.692,0,0,1-.692.692H2.077a.692.692,0,0,1-.692-.692v-9H18ZM18,6.922H1.384V4.153a.692.692,0,0,1,.692-.692H4.153V4.846a.692.692,0,0,0,1.384,0V3.461h8.307V4.846a.692.692,0,0,0,1.384,0V3.461h2.077A.692.692,0,0,1,18,4.153V6.922Z" fill="#808285"/>
    </g>
  </g>
  <g id="Grupo_1036" data-name="Grupo 1036" transform="translate(3.461 9.691)">
    <g id="Grupo_1035" data-name="Grupo 1035">
      <path id="Caminho_1330" data-name="Caminho 1330" d="M87.41,238.933H86.025a.692.692,0,0,0,0,1.385H87.41a.692.692,0,0,0,0-1.385Z" transform="translate(-85.333 -238.933)" fill="#808285"/>
    </g>
  </g>
  <g id="Grupo_1038" data-name="Grupo 1038" transform="translate(8.307 9.691)">
    <g id="Grupo_1037" data-name="Grupo 1037">
      <path id="Caminho_1331" data-name="Caminho 1331" d="M206.877,238.933h-1.384a.692.692,0,0,0,0,1.385h1.384a.692.692,0,0,0,0-1.385Z" transform="translate(-204.8 -238.933)" fill="#808285"/>
    </g>
  </g>
  <g id="Grupo_1040" data-name="Grupo 1040" transform="translate(13.153 9.691)">
    <g id="Grupo_1039" data-name="Grupo 1039">
      <path id="Caminho_1332" data-name="Caminho 1332" d="M326.344,238.933h-1.384a.692.692,0,0,0,0,1.385h1.384a.692.692,0,0,0,0-1.385Z" transform="translate(-324.267 -238.933)" fill="#808285"/>
    </g>
  </g>
  <g id="Grupo_1042" data-name="Grupo 1042" transform="translate(3.461 12.46)">
    <g id="Grupo_1041" data-name="Grupo 1041">
      <path id="Caminho_1333" data-name="Caminho 1333" d="M87.41,307.2H86.025a.692.692,0,1,0,0,1.384H87.41a.692.692,0,1,0,0-1.384Z" transform="translate(-85.333 -307.2)" fill="#808285"/>
    </g>
  </g>
  <g id="Grupo_1044" data-name="Grupo 1044" transform="translate(8.307 12.46)">
    <g id="Grupo_1043" data-name="Grupo 1043">
      <path id="Caminho_1334" data-name="Caminho 1334" d="M206.877,307.2h-1.384a.692.692,0,1,0,0,1.384h1.384a.692.692,0,1,0,0-1.384Z" transform="translate(-204.8 -307.2)" fill="#808285"/>
    </g>
  </g>
  <g id="Grupo_1046" data-name="Grupo 1046" transform="translate(13.153 12.46)">
    <g id="Grupo_1045" data-name="Grupo 1045">
      <path id="Caminho_1335" data-name="Caminho 1335" d="M326.344,307.2h-1.384a.692.692,0,0,0,0,1.384h1.384a.692.692,0,1,0,0-1.384Z" transform="translate(-324.267 -307.2)" fill="#808285"/>
    </g>
  </g>
  <g id="Grupo_1048" data-name="Grupo 1048" transform="translate(3.461 15.229)">
    <g id="Grupo_1047" data-name="Grupo 1047">
      <path id="Caminho_1336" data-name="Caminho 1336" d="M87.41,375.467H86.025a.692.692,0,1,0,0,1.384H87.41a.692.692,0,1,0,0-1.384Z" transform="translate(-85.333 -375.467)" fill="#808285"/>
    </g>
  </g>
  <g id="Grupo_1050" data-name="Grupo 1050" transform="translate(8.307 15.229)">
    <g id="Grupo_1049" data-name="Grupo 1049">
      <path id="Caminho_1337" data-name="Caminho 1337" d="M206.877,375.467h-1.384a.692.692,0,1,0,0,1.384h1.384a.692.692,0,1,0,0-1.384Z" transform="translate(-204.8 -375.467)" fill="#808285"/>
    </g>
  </g>
  <g id="Grupo_1052" data-name="Grupo 1052" transform="translate(13.153 15.229)">
    <g id="Grupo_1051" data-name="Grupo 1051">
      <path id="Caminho_1338" data-name="Caminho 1338" d="M326.344,375.467h-1.384a.692.692,0,0,0,0,1.384h1.384a.692.692,0,1,0,0-1.384Z" transform="translate(-324.267 -375.467)" fill="#808285"/>
    </g>
  </g>
</svg>
