<svg id="Grupo_1073" data-name="Grupo 1073" xmlns="http://www.w3.org/2000/svg" width="27" height="27" viewBox="0 0 27 27">
  <g id="Grupo_1070" data-name="Grupo 1070">
    <g id="Grupo_1069" data-name="Grupo 1069">
      <path id="Caminho_1349" data-name="Caminho 1349" d="M13.5,0A13.5,13.5,0,1,0,27,13.5,13.5,13.5,0,0,0,13.5,0Zm0,25.071A11.571,11.571,0,1,1,25.071,13.5,11.571,11.571,0,0,1,13.5,25.071Z" fill="#193b4e"/>
    </g>
  </g>
  <g id="Grupo_1072" data-name="Grupo 1072" transform="translate(4.821 4.821)">
    <g id="Grupo_1071" data-name="Grupo 1071">
      <path id="Caminho_1350" data-name="Caminho 1350" d="M94.012,85.333a.964.964,0,0,0-.964.964v6.75H86.3a.964.964,0,1,0,0,1.929h7.714a.964.964,0,0,0,.964-.964V86.3A.964.964,0,0,0,94.012,85.333Z" transform="translate(-85.333 -85.333)" fill="#193b4e"/>
    </g>
  </g>
</svg>
