<svg xmlns="http://www.w3.org/2000/svg" width="21.557" height="21.557" viewBox="0 0 21.557 21.557">
  <path id="Caminho_1328" data-name="Caminho 1328" d="M14.335,10.779,21,4.11a1.885,1.885,0,0,0,0-2.667L20.115.554a1.885,1.885,0,0,0-2.667,0L10.779,7.223,4.11.553a1.885,1.885,0,0,0-2.667,0l-.89.889a1.886,1.886,0,0,0,0,2.667l6.67,6.67L.554,17.448a1.885,1.885,0,0,0,0,2.667L1.443,21A1.885,1.885,0,0,0,4.11,21l6.669-6.669L17.448,21a1.886,1.886,0,0,0,2.667,0L21,20.115a1.886,1.886,0,0,0,0-2.667Z" fill="#e63027"/>
</svg>
