<svg xmlns="http://www.w3.org/2000/svg" width="27.122" height="26.985" viewBox="0 0 27.122 26.985">
  <g id="Grupo_1106" data-name="Grupo 1106" transform="translate(0 -1.52)">
    <path id="Caminho_1363" data-name="Caminho 1363" d="M25.032,54.688a.675.675,0,0,0-.675.675v6a2.028,2.028,0,0,1-2.026,2.026H3.377A2.028,2.028,0,0,1,1.351,61.36v-17.6a2.029,2.029,0,0,1,2.026-2.026h6a.675.675,0,1,0,0-1.351h-6A3.381,3.381,0,0,0,0,43.758v17.6a3.381,3.381,0,0,0,3.377,3.377H22.33a3.381,3.381,0,0,0,3.377-3.377v-6A.675.675,0,0,0,25.032,54.688Z" transform="translate(0 -36.233)" fill="#193b4e"/>
    <path id="Caminho_1364" data-name="Caminho 1364" d="M126.181,2.41a3.039,3.039,0,0,0-4.3,0L109.832,14.461a.675.675,0,0,0-.173.3l-1.585,5.721a.675.675,0,0,0,.831.831l5.721-1.585a.675.675,0,0,0,.3-.173L126.974,7.5a3.043,3.043,0,0,0,0-4.3ZM111.3,14.9l9.863-9.863,3.181,3.181-9.863,9.863Zm-.635,1.275,2.541,2.541-3.515.974Zm15.351-9.629-.716.716-3.181-3.181.717-.716a1.688,1.688,0,0,1,2.388,0l.793.793A1.691,1.691,0,0,1,126.019,6.547Z" transform="translate(-100.741)" fill="#193b4e"/>
  </g>
</svg>
