<svg xmlns="http://www.w3.org/2000/svg" width="25.032" height="22.623" viewBox="0 0 25.032 22.623">
  <g id="Grupo_1406" data-name="Grupo 1406" transform="translate(0 0)">
    <path id="Caminho_1300" data-name="Caminho 1300" d="M185.129,163.072a2.295,2.295,0,1,0,2.292,2.3A2.295,2.295,0,0,0,185.129,163.072Zm0,3.474a1.177,1.177,0,1,1,1.177-1.177A1.177,1.177,0,0,1,185.129,166.546Z" transform="translate(-172.616 -155.181)" fill="#808285"/>
    <path id="Caminho_1301" data-name="Caminho 1301" d="M76.347,163.072a2.295,2.295,0,1,0,2.292,2.3A2.295,2.295,0,0,0,76.347,163.072Zm0,3.474a1.177,1.177,0,1,1,1.177-1.177A1.176,1.176,0,0,1,76.347,166.546Z" transform="translate(-69.912 -155.181)" fill="#808285"/>
    <path id="Caminho_1302" data-name="Caminho 1302" d="M293.91,163.072a2.295,2.295,0,1,0,2.292,2.3A2.295,2.295,0,0,0,293.91,163.072Zm0,3.474a1.177,1.177,0,1,1,1.177-1.177A1.176,1.176,0,0,1,293.91,166.546Z" transform="translate(-275.319 -155.181)" fill="#808285"/>
    <path id="Caminho_1303" data-name="Caminho 1303" d="M21.263,24.749a14.048,14.048,0,0,0-8.749-2.894,14.047,14.047,0,0,0-8.749,2.894A9.278,9.278,0,0,0,0,32.043a9.272,9.272,0,0,0,3.7,7.238L3.524,43.9a.561.561,0,0,0,.24.48.551.551,0,0,0,.318.1.606.606,0,0,0,.218-.044L10,42.025a15.777,15.777,0,0,0,2.521.207,14.047,14.047,0,0,0,8.749-2.894,9.278,9.278,0,0,0,3.764-7.294A9.284,9.284,0,0,0,21.263,24.749Zm-.692,13.707A12.936,12.936,0,0,1,12.513,41.1a14.229,14.229,0,0,1-2.493-.217.589.589,0,0,0-.312.034l-5.041,2.13.156-4.021a.553.553,0,0,0-.217-.463l-.011-.005-.139-.106A8.194,8.194,0,0,1,1.11,32.038a8.2,8.2,0,0,1,3.346-6.419,12.938,12.938,0,0,1,8.058-2.649,12.972,12.972,0,0,1,8.058,2.649,8.194,8.194,0,0,1,3.346,6.419A8.21,8.21,0,0,1,20.571,38.456Z" transform="translate(0 -21.855)" fill="#808285"/>
  </g>
</svg>
