<svg xmlns="http://www.w3.org/2000/svg" width="61.757" height="46.026" viewBox="0 0 61.757 46.026">
  <g id="Grupo_1061" data-name="Grupo 1061" transform="translate(0 -65.209)">
    <path id="Caminho_1340" data-name="Caminho 1340" d="M173.728,101.555,159.916,87.741a16.028,16.028,0,1,0-7.946,8.088l13.741,13.744a5.669,5.669,0,1,0,8.017-8.017ZM136.463,90.041a12.423,12.423,0,1,1,17.566,0,12.44,12.44,0,0,1-17.566,0Zm34.706,16.973a2.048,2.048,0,0,1-2.9,0L155.142,93.883a16.165,16.165,0,0,0,2.876-2.923l13.15,13.154A2.053,2.053,0,0,1,171.169,107.014Z" transform="translate(-113.628)" fill="#193b4e"/>
    <path id="Caminho_1341" data-name="Caminho 1341" d="M1.809,218.576H9.525a1.809,1.809,0,0,0,0-3.619H1.809a1.809,1.809,0,1,0,0,3.619Z" transform="translate(0 -131.686)" fill="#193b4e"/>
    <path id="Caminho_1342" data-name="Caminho 1342" d="M1.809,282.579H12.418a1.809,1.809,0,0,0,0-3.619H1.809a1.809,1.809,0,1,0,0,3.619Z" transform="translate(0 -187.969)" fill="#193b4e"/>
    <path id="Caminho_1343" data-name="Caminho 1343" d="M1.809,346.581H20.134a1.809,1.809,0,0,0,0-3.619H1.809a1.809,1.809,0,0,0,0,3.619Z" transform="translate(0 -244.251)" fill="#193b4e"/>
    <path id="Caminho_1344" data-name="Caminho 1344" d="M41.351,406.965H1.809a1.809,1.809,0,1,0,0,3.619H41.351a1.809,1.809,0,1,0,0-3.619Z" transform="translate(0 -300.534)" fill="#193b4e"/>
  </g>
</svg>
