<svg xmlns="http://www.w3.org/2000/svg" width="33.88" height="34.155" viewBox="0 0 33.88 34.155">
  <g id="Grupo_1120" data-name="Grupo 1120" transform="translate(-2.066)">
    <g id="Grupo_1117" data-name="Grupo 1117" transform="translate(2.066)">
      <g id="Grupo_1111" data-name="Grupo 1111" transform="translate(1.239)">
        <path id="Caminho_1365" data-name="Caminho 1365" d="M28.212,30.109a2.5,2.5,0,0,1-1.474-.488,2.47,2.47,0,0,1-.911-2.807l2.561-7.86-6.7-4.837a2.508,2.508,0,0,1,1.468-4.542h8.259l2.52-7.836A2.47,2.47,0,0,1,36.32,0h0a2.47,2.47,0,0,1,2.386,1.735l2.542,7.842h.9a.667.667,0,1,1,0,1.334h-1.38a.667.667,0,0,1-.635-.461l-2.692-8.3a1.144,1.144,0,0,0-1.117-.812h0a1.144,1.144,0,0,0-1.116.815l-2.669,8.3a.667.667,0,0,1-.635.463H23.157a1.174,1.174,0,0,0-.687,2.126l7.095,5.122a.667.667,0,0,1,.244.748L27.1,27.229A1.174,1.174,0,0,0,28.9,28.541l7.074-5.154a.667.667,0,0,1,.785,0l7.05,5.124a1.174,1.174,0,0,0,1.806-1.316L42.9,18.914a.667.667,0,0,1,.242-.748l7.076-5.131a1.174,1.174,0,0,0-.689-2.124h-1.38a.667.667,0,0,1,0-1.334h1.38A2.508,2.508,0,0,1,51,14.115L44.321,18.96l2.565,7.818a2.508,2.508,0,0,1-3.858,2.811l-6.657-4.838-6.682,4.868a2.5,2.5,0,0,1-1.477.49Z" transform="translate(-20.643)" fill="#193b4e"/>
      </g>
      <g id="Grupo_1112" data-name="Grupo 1112" transform="translate(16.273 27.426)">
        <path id="Caminho_1366" data-name="Caminho 1366" d="M246.667,417.852a.667.667,0,0,1-.667-.667v-5.4a.667.667,0,1,1,1.334,0v5.4A.667.667,0,0,1,246.667,417.852Z" transform="translate(-246 -411.123)" fill="#193b4e"/>
      </g>
      <g id="Grupo_1113" data-name="Grupo 1113" transform="translate(27.414 19.331)">
        <path id="Caminho_1367" data-name="Caminho 1367" d="M418.809,292.781a.668.668,0,0,1-.206-.033l-5.131-1.667a.667.667,0,0,1,.412-1.269l5.131,1.667a.667.667,0,0,1-.206,1.3Z" transform="translate(-413.011 -289.78)" fill="#193b4e"/>
      </g>
      <g id="Grupo_1114" data-name="Grupo 1114" transform="translate(23.158 1.869)">
        <path id="Caminho_1368" data-name="Caminho 1368" d="M349.885,33.713a.667.667,0,0,1-.539-1.059l3.171-4.365a.667.667,0,1,1,1.079.784l-3.171,4.365A.666.666,0,0,1,349.885,33.713Z" transform="translate(-349.218 -28.014)" fill="#193b4e"/>
      </g>
      <g id="Grupo_1115" data-name="Grupo 1115" transform="translate(6.216 1.869)">
        <path id="Caminho_1369" data-name="Caminho 1369" d="M99.081,33.714a.666.666,0,0,1-.54-.275l-3.171-4.365a.667.667,0,0,1,1.079-.784l3.171,4.365a.667.667,0,0,1-.539,1.059Z" transform="translate(-95.242 -28.015)" fill="#193b4e"/>
      </g>
      <g id="Grupo_1116" data-name="Grupo 1116" transform="translate(0 19.331)">
        <path id="Caminho_1370" data-name="Caminho 1370" d="M2.733,292.78a.667.667,0,0,1-.206-1.3l5.131-1.667a.667.667,0,0,1,.412,1.269L2.94,292.747A.668.668,0,0,1,2.733,292.78Z" transform="translate(-2.066 -289.778)" fill="#193b4e"/>
      </g>
    </g>
    <g id="Grupo_1119" data-name="Grupo 1119" transform="translate(27.144 9.577)">
      <g id="Grupo_1118" data-name="Grupo 1118">
        <path id="Caminho_1371" data-name="Caminho 1371" d="M378.657,144.894a.667.667,0,1,1,.472-.2A.672.672,0,0,1,378.657,144.894Z" transform="translate(-377.99 -143.56)" fill="#193b4e"/>
      </g>
    </g>
  </g>
</svg>
