<svg xmlns="http://www.w3.org/2000/svg" width="28.15" height="26.717" viewBox="0 0 28.15 26.717">
  <g id="Grupo_1398" data-name="Grupo 1398" transform="translate(0 0)">
    <path id="Caminho_1372" data-name="Caminho 1372" d="M274.191,228.031a2.688,2.688,0,0,0-2.7-2.629h-8.074a9.573,9.573,0,0,0-.146-5.91,5.5,5.5,0,0,0-3.082-3.347,1.747,1.747,0,0,0-1.577.111,2.067,2.067,0,0,0-.828,1.456c0,.016,0,.032,0,.049-.008.186-.184,2.971-.31,4.953-.329.34-1.075,1.128-1.831,2.045a17.542,17.542,0,0,0-1.4,1.915q-.047.076-.091.151a2.4,2.4,0,0,0-1.719-.724h-3.975a2.41,2.41,0,0,0-2.407,2.407v11.817a2.41,2.41,0,0,0,2.407,2.407h3.975a2.41,2.41,0,0,0,2.407-2.407V228.578c0-.184.13-.944,1.808-2.98.951-1.154,1.919-2.129,1.928-2.139a.654.654,0,0,0,.189-.42c.2-3.111.308-4.857.326-5.2a.785.785,0,0,1,.233-.481.609.609,0,0,1,.443.026,4.205,4.205,0,0,1,2.287,2.576,8.654,8.654,0,0,1-.129,5.892.655.655,0,0,0,.233.733.671.671,0,0,0,.4.127H271.5a1.375,1.375,0,0,1,1.38,1.373,1.351,1.351,0,0,1-1.349,1.327h-.889a.668.668,0,0,0-.675.642.654.654,0,0,0,.654.666,1.351,1.351,0,0,1,1.349,1.327,1.375,1.375,0,0,1-1.38,1.373h-.607a.668.668,0,0,0-.675.642.654.654,0,0,0,.654.666,1.351,1.351,0,0,1,1.35,1.327,1.375,1.375,0,0,1-1.38,1.373H269.2a.668.668,0,0,0-.674.612.654.654,0,0,0,.6.693,1.353,1.353,0,0,1,1.235,1.531A1.371,1.371,0,0,1,269,241.424H258.142a.654.654,0,0,0,0,1.308h10.84a2.686,2.686,0,0,0,2.7-2.62,2.647,2.647,0,0,0-.548-1.654,2.655,2.655,0,0,0,.847-4.109,2.655,2.655,0,0,0,.737-3.912A2.66,2.66,0,0,0,274.191,228.031Zm-20.668,12.294a1.1,1.1,0,0,1-1.1,1.1h-3.975a1.1,1.1,0,0,1-1.1-1.1V228.507a1.1,1.1,0,0,1,1.1-1.1h3.975a1.1,1.1,0,0,1,1.1,1.1v11.817Z" transform="translate(-246.041 -216.015)" fill="#808285"/>
    <circle id="Elipse_42" data-name="Elipse 42" cx="0.893" cy="0.893" r="0.893" transform="translate(4.736 22.592)" fill="#808285"/>
  </g>
</svg>
