<svg xmlns="http://www.w3.org/2000/svg" width="49.391" height="54.31" viewBox="0 0 49.391 54.31">
  <g id="Grupo_1408" data-name="Grupo 1408" transform="translate(-280.655 -271.6)">
    <path id="Caminho_1783" data-name="Caminho 1783" d="M302.062,294.987l7.5-7.5v22.138h.014a4.647,4.647,0,0,0,9.28,0h.013V287.485l7.5,7.5a4.652,4.652,0,0,0,6.58-6.579l-15.484-15.483v0c-.056-.056-.12-.093-.179-.144a5.207,5.207,0,0,0-.54-.433c-.073-.045-.151-.075-.224-.118a5.044,5.044,0,0,0-.579-.3c-.1-.037-.2-.055-.293-.086a4.609,4.609,0,0,0-.56-.162c-.128-.025-.259-.025-.391-.038a2.622,2.622,0,0,0-.972,0c-.132.013-.263.013-.392.038a4.294,4.294,0,0,0-.549.161c-.1.031-.206.049-.3.087a4.675,4.675,0,0,0-.562.292c-.079.043-.165.076-.242.127a4.765,4.765,0,0,0-.523.419c-.063.056-.134.1-.2.156v0l-15.483,15.483a4.652,4.652,0,0,0,6.58,6.579Z" transform="translate(-8.9 0)" fill="#808285"/>
    <path id="Caminho_1784" data-name="Caminho 1784" d="M329.975,389.345c0-3.281-5.089-3.281-5.089,0,0,2.12.52,5-.958,6.718-1.017,1.186-2.829.958-4.22.958H290.932c-1.544,0-2.93.149-4.22-.958-1.574-1.349-.959-4.885-.959-6.718,0-3.281-5.089-3.281-5.089,0,0,2.941-.171,5.6,1,8.362,1.226,2.9,4.743,4.4,7.69,4.4h31.939a8.769,8.769,0,0,0,7.689-4.4C330.444,395.347,329.975,391.992,329.975,389.345Z" transform="translate(0 -76.201)" fill="#808285"/>
  </g>
</svg>
