<svg xmlns="http://www.w3.org/2000/svg" width="34.331" height="22.1" viewBox="0 0 34.331 22.1">
  <g id="Grupo_1068" data-name="Grupo 1068" transform="translate(0 -82.176)">
    <g id="Grupo_1065" data-name="Grupo 1065" transform="translate(11.641 87.701)">
      <g id="Grupo_1064" data-name="Grupo 1064" transform="translate(0 0)">
        <path id="Caminho_1347" data-name="Caminho 1347" d="M161.941,156.416a5.525,5.525,0,1,0,5.525,5.525A5.529,5.529,0,0,0,161.941,156.416Zm-.419,3.887a1.269,1.269,0,0,0-1.257,1.257h-1.829a3.123,3.123,0,0,1,3.086-3.086Z" transform="translate(-156.416 -156.416)" fill="#193b4e"/>
      </g>
    </g>
    <g id="Grupo_1067" data-name="Grupo 1067" transform="translate(0 82.176)">
      <g id="Grupo_1066" data-name="Grupo 1066" transform="translate(0 0)">
        <path id="Caminho_1348" data-name="Caminho 1348" d="M33.931,92.083c-1.867-2.324-8.535-9.907-16.765-9.907S2.267,89.759.4,92.083a1.833,1.833,0,0,0,0,2.286c1.867,2.324,8.535,9.907,16.765,9.907s14.9-7.583,16.765-9.907A1.833,1.833,0,0,0,33.931,92.083Zm-16.765,9.145a8,8,0,1,1,8-8A8,8,0,0,1,17.165,101.228Z" transform="translate(0 -82.176)" fill="#193b4e"/>
      </g>
    </g>
  </g>
</svg>
