<svg id="Componente_2_1" data-name="Componente 2 – 1" xmlns="http://www.w3.org/2000/svg" xmlns:xlink="http://www.w3.org/1999/xlink" width="310.806" height="151.642" viewBox="0 0 310.806 151.642">
  <defs>
    <radialGradient id="radial-gradient" cx="0.5" cy="0.5" r="0.505" gradientTransform="translate(0.009) scale(0.981 1)" gradientUnits="objectBoundingBox">
      <stop offset="0" stop-color="#f6f7fc"/>
      <stop offset="0.126" stop-color="#edecf1"/>
      <stop offset="0.348" stop-color="#d5d2d3"/>
      <stop offset="0.639" stop-color="#afa6a4"/>
      <stop offset="0.985" stop-color="#7a6a62"/>
      <stop offset="1" stop-color="#786860"/>
    </radialGradient>
    <linearGradient id="linear-gradient" x1="0.495" y1="0.117" x2="0.513" y2="1.536" gradientUnits="objectBoundingBox">
      <stop offset="0.003" stop-color="#9f938d"/>
      <stop offset="0.139" stop-color="#8f827b"/>
      <stop offset="0.362" stop-color="#7b6c65"/>
      <stop offset="0.503" stop-color="#74645d"/>
      <stop offset="0.697" stop-color="#62544d"/>
      <stop offset="1" stop-color="#40342d"/>
    </linearGradient>
    <linearGradient id="linear-gradient-2" x1="0.495" y1="0.117" x2="0.513" y2="1.536" xlink:href="#linear-gradient"/>
    <clipPath id="clip-path">
      <path id="Caminho_6555" data-name="Caminho 6555" d="M3153.89,272.518c-.763-4.822-1.17-12.349,2.8-19.051,6.921-11.691,19.363-7.713,31.384-20.207,9.7-10.077,6.715-17.981,17.427-24.649,1.793-1.116,11.269-7.261,18.259-3.474,3.939,2.134,5.342,6.47,5.6,7.284,3.98,12.3-8.652,31.434-25.008,40.113-9.4,4.986-12.406,3.315-28.922,9.093A92.72,92.72,0,0,0,3153.89,272.518Z" transform="translate(-3153.391 -203.919)" fill="#fbda70"/>
    </clipPath>
    <linearGradient id="linear-gradient-3" x1="0.192" y1="0.992" x2="1.041" y2="-0.374" xlink:href="#linear-gradient"/>
    <linearGradient id="linear-gradient-4" x1="-2.375" y1="3.391" x2="1.242" y2="-0.178" xlink:href="#linear-gradient"/>
    <clipPath id="clip-path-2">
      <path id="Caminho_6567" data-name="Caminho 6567" d="M3008.114,308.988a42.38,42.38,0,0,0,1.46-22.734c-2.418-10.481-7.774-12.578-12.583-23.781-6.865-15.993.9-27.577-6.2-32.464a11.41,11.41,0,0,0-12.275.007c-9.586,6.827-6.958,36.566,8.251,48.171,6.878,5.248,12.881,4.626,18.042,11.418C3009.368,295.607,3009.011,303.524,3008.114,308.988Z" transform="translate(-2972.894 -228.222)" fill="#fbda70"/>
    </clipPath>
    <clipPath id="clip-path-3">
      <path id="Caminho_6573" data-name="Caminho 6573" d="M3019.165,363.286c.6-3.617.942-9.267-2-14.319-5.137-8.814-14.5-5.891-23.463-15.334-7.229-7.617-4.95-13.536-12.96-18.6-1.341-.847-8.425-5.51-13.693-2.7a9.65,9.65,0,0,0-4.246,5.441c-3.052,9.217,6.337,23.648,18.574,30.249,7.031,3.792,9.3,2.553,21.671,6.975A69.612,69.612,0,0,1,3019.165,363.286Z" transform="translate(-2962.219 -311.444)" fill="#ff9975"/>
    </clipPath>
    <linearGradient id="linear-gradient-5" y1="0.5" x2="1" y2="0.5" gradientUnits="objectBoundingBox">
      <stop offset="0.004" stop-color="#ebeff2"/>
      <stop offset="1" stop-color="#fff"/>
    </linearGradient>
    <linearGradient id="linear-gradient-6" x1="0" y1="0.5" x2="1" y2="0.5" xlink:href="#linear-gradient"/>
    <linearGradient id="linear-gradient-7" x1="2.906" y1="1.098" x2="3.03" y2="-0.188" xlink:href="#linear-gradient-5"/>
    <linearGradient id="linear-gradient-8" x1="25.046" y1="-3.202" x2="25.377" y2="18.45" xlink:href="#linear-gradient"/>
    <linearGradient id="linear-gradient-9" x1="25.87" y1="-3.608" x2="26.205" y2="17.959" xlink:href="#linear-gradient"/>
    <linearGradient id="linear-gradient-10" x1="26.707" y1="-4.01" x2="27.046" y2="17.473" xlink:href="#linear-gradient"/>
    <linearGradient id="linear-gradient-11" x1="27.558" y1="-4.41" x2="27.901" y2="16.992" xlink:href="#linear-gradient"/>
    <linearGradient id="linear-gradient-12" x1="28.422" y1="-4.808" x2="28.769" y2="16.516" xlink:href="#linear-gradient"/>
    <linearGradient id="linear-gradient-13" x1="29.299" y1="-5.203" x2="29.649" y2="16.045" xlink:href="#linear-gradient"/>
    <linearGradient id="linear-gradient-14" x1="30.188" y1="-5.596" x2="30.543" y2="15.579" xlink:href="#linear-gradient"/>
  </defs>
  <g id="Grupo_4208" data-name="Grupo 4208" transform="translate(-649.194 -1181.015)">
    <path id="Caminho_7554" data-name="Caminho 7554" d="M3005.867,96.421s-40.506-15.1-36.906,11.815-24.3,66.23,9.677,70.554,64.809-2.244,67.959-16.133S3057.561,114.116,3005.867,96.421Z" transform="translate(-2147.216 1145.746)" opacity="0.23" fill="url(#radial-gradient)"/>
    <g id="Grupo_4206" data-name="Grupo 4206" transform="translate(825.125 1212.184)">
      <g id="Grupo_3824" data-name="Grupo 3824" transform="translate(89.435 0)">
        <path id="Caminho_6711" data-name="Caminho 6711" d="M3107.242,149.271a3.622,3.622,0,0,0,3.269-6.438c-.086-.042-.172-.079-.259-.114a20.844,20.844,0,0,0,.688-2.966c.095,0,.188,0,.284-.011a3.777,3.777,0,0,0,3.321-3.844,3.2,3.2,0,0,0-3.463-3.24c-.1.009-.194.025-.29.041a19.059,19.059,0,0,0-.8-2.833c.086-.051.172-.1.255-.162a3.777,3.777,0,0,0,1.143-4.949,3.2,3.2,0,0,0-4.658-.884c-.082.057-.158.119-.236.182a16.949,16.949,0,0,0-2.078-1.94c.054-.086.1-.174.152-.266.9-1.778,2.082-3.719.427-4.527-3.828-1.869-5.47-.27-6.372,1.508-.047.091-.087.185-.126.279a17,17,0,0,0-2.792-.533c.005-.1.01-.2.008-.3-.039-1.956.541-3.014-1.339-3.051-4.1-.08-5.483,1.7-5.444,3.656,0,.1.011.2.021.3a18.949,18.949,0,0,0-2.761,1.025c-.042-.088-.087-.174-.137-.259a3.2,3.2,0,0,0-4.659-.884,3.777,3.777,0,0,0-1.145,4.95c.049.083.1.16.16.235a20.756,20.756,0,0,0-1.988,2.307c-.08-.05-.16-.1-.245-.142a3.622,3.622,0,0,0-3.269,6.438c.085.042.172.079.259.114a21.015,21.015,0,0,0-.689,2.966c-.094,0-.188,0-.284.011a3.776,3.776,0,0,0-3.32,3.844,3.2,3.2,0,0,0,3.463,3.24c.1-.009.194-.025.289-.041a19.181,19.181,0,0,0,.8,2.833c-.086.051-.172.1-.256.162a3.777,3.777,0,0,0-1.145,4.949c.971,1.611,4.183,2.36,5.787,1.237.081-.058-.968-.473-.892-.535a16.935,16.935,0,0,0,2.079,1.94c-.053.086-.1.174-.152.266a3.344,3.344,0,1,0,5.945,3.019c.047-.091.087-.185.126-.279a16.994,16.994,0,0,0,2.792.533c-.006.1-.01.2-.008.3a3.2,3.2,0,0,0,3.462,3.24,3.778,3.778,0,0,0,3.321-3.844c0-.1-.011-.2-.021-.3a19.133,19.133,0,0,0,2.761-1.025c.042.088.087.174.137.259a3.2,3.2,0,0,0,4.658.884,3.778,3.778,0,0,0,1.145-4.95c-.05-.083-.1-.16-.16-.235a20.755,20.755,0,0,0,1.988-2.307C3107.076,149.179,3107.157,149.227,3107.242,149.271Zm-20.466.26c-5.961-3.027-8.137-10.712-4.86-17.167s10.766-9.233,16.726-6.207,8.136,10.712,4.86,17.167S3092.737,152.556,3086.776,149.53Z" transform="translate(-3070.873 -115.223)" fill="#786860"/>
        <path id="Caminho_6712" data-name="Caminho 6712" d="M3109.414,139.359a3.777,3.777,0,0,0,3.321-3.844,3.2,3.2,0,0,0-3.463-3.24c-.1.009-.194.025-.29.041a19.059,19.059,0,0,0-.8-2.833c.086-.051.172-.1.255-.162,1.6-1.122,3.584-3.835,2.454-5.338-2.146-2.852-4.367-1.618-5.969-.494-.082.057-.158.119-.236.182a16.949,16.949,0,0,0-2.078-1.94c.054-.086.1-.174.152-.266a3.732,3.732,0,0,0,.21-2.942q-2.321,4.087-4.574,8.211c4.755,3.485,6.269,10.352,3.3,16.207a13.125,13.125,0,0,1-12.415,7.4c-.218.566-.433,1.135-.666,1.695-.634,1.521-1.354,3.009-2.075,4.5.454.085.909.153,1.366.2-.006.1-.01.2-.008.3.039,1.956,1.226,3.618,4.621,3.438,1.879-.1,2.2-2.087,2.162-4.043,0-.1-.011-.2-.021-.3a19.133,19.133,0,0,0,2.761-1.025c.042.088.087.174.137.259.97,1.611,4.337,2.295,5.939,1.173s.834-3.628-.136-5.239c-.05-.083-.1-.16-.16-.235a20.755,20.755,0,0,0,1.988-2.307c.079.05.161.1.245.142a3.622,3.622,0,0,0,3.269-6.438c-.086-.042-.172-.079-.259-.114a20.844,20.844,0,0,0,.688-2.966C3109.224,139.369,3109.318,139.368,3109.414,139.359Z" transform="translate(-3069.062 -114.841)" fill="#4b3f37"/>
        <path id="Caminho_6713" data-name="Caminho 6713" d="M3108.825,149.471a3.622,3.622,0,0,0,3.269-6.438c-.086-.042-.173-.079-.26-.114a20.715,20.715,0,0,0,.69-2.966c.095,0,.188,0,.284-.011a3.777,3.777,0,0,0,3.321-3.844,3.2,3.2,0,0,0-3.463-3.24c-.1.009-.194.025-.29.041a18.915,18.915,0,0,0-.8-2.833c.087-.051.172-.1.257-.162a3.777,3.777,0,0,0,1.143-4.949,3.2,3.2,0,0,0-4.658-.884c-.082.057-.16.119-.236.182a16.967,16.967,0,0,0-2.079-1.94c.053-.086.1-.174.152-.266a3.345,3.345,0,1,0-5.946-3.019c-.047.091-.087.185-.125.279a16.991,16.991,0,0,0-2.793-.533c.007-.1.011-.2.009-.3a3.2,3.2,0,0,0-3.463-3.24,3.777,3.777,0,0,0-3.32,3.844c0,.1.01.2.02.3a19.124,19.124,0,0,0-2.76,1.025c-.042-.088-.087-.174-.137-.259a3.2,3.2,0,0,0-4.66-.884,3.778,3.778,0,0,0-1.143,4.95c.049.083.1.16.159.235a20.894,20.894,0,0,0-1.989,2.307c-.079-.049-.159-.1-.244-.142a3.622,3.622,0,0,0-3.269,6.438c.085.042.172.079.259.114a20.88,20.88,0,0,0-.689,2.966c-.094,0-.188,0-.284.011a3.776,3.776,0,0,0-3.32,3.844,3.2,3.2,0,0,0,3.463,3.24c.1-.009.194-.025.289-.041a19.181,19.181,0,0,0,.8,2.833c-.086.051-.172.1-.255.162a3.776,3.776,0,0,0-1.145,4.949,3.2,3.2,0,0,0,4.659.884c.083-.057.159-.119.236-.182a16.993,16.993,0,0,0,2.077,1.94c-.052.086-.1.174-.151.266a3.344,3.344,0,1,0,5.945,3.019c.047-.091.087-.185.126-.279a16.976,16.976,0,0,0,2.792.533c-.006.1-.01.2-.009.3a3.2,3.2,0,0,0,3.463,3.24,3.779,3.779,0,0,0,3.321-3.844c0-.1-.011-.2-.021-.3a19.133,19.133,0,0,0,2.76-1.025c.043.087.087.174.138.259a3.2,3.2,0,0,0,4.659.884,3.779,3.779,0,0,0,1.145-4.95c-.05-.083-.1-.16-.16-.235a20.782,20.782,0,0,0,1.988-2.307C3108.659,149.379,3108.739,149.428,3108.825,149.471Zm-20.466.26c-5.962-3.027-8.137-10.712-4.86-17.167s10.766-9.233,16.726-6.207,8.136,10.712,4.86,17.167S3094.32,152.757,3088.359,149.731Z" transform="translate(-3070.689 -115.222)" fill="url(#linear-gradient)"/>
      </g>
      <g id="Grupo_3825" data-name="Grupo 3825" transform="translate(0 16.435)">
        <path id="Caminho_6714" data-name="Caminho 6714" d="M3061.949,196.65a7.093,7.093,0,0,0,6.4-12.61c-.166-.085-.336-.156-.506-.224a40.883,40.883,0,0,0,1.35-5.811c.184,0,.369,0,.558-.021a7.4,7.4,0,0,0,6.5-7.53,6.267,6.267,0,0,0-6.783-6.347c-.192.017-.381.047-.568.08a37.325,37.325,0,0,0-1.571-5.549c.169-.1.337-.2.5-.316a7.4,7.4,0,0,0,2.242-9.7,6.266,6.266,0,0,0-9.127-1.73c-.161.113-.312.234-.462.358a33.054,33.054,0,0,0-4.071-3.8c.1-.17.2-.341.3-.522,1.767-3.482,4.078-7.286.837-8.868-7.5-3.66-10.715-.527-12.483,2.955-.092.181-.171.364-.247.548a33.061,33.061,0,0,0-5.47-1.044c.011-.194.02-.388.017-.585-.077-3.832,1.06-5.906-2.623-5.977-8.031-.156-10.741,3.33-10.665,7.162,0,.2.021.4.041.59a37.38,37.38,0,0,0-5.407,2.007c-.083-.171-.171-.341-.27-.505a6.267,6.267,0,0,0-9.127-1.731,7.4,7.4,0,0,0-2.241,9.7c.1.162.2.312.312.462a40.727,40.727,0,0,0-3.895,4.519c-.156-.1-.313-.193-.481-.278a7.094,7.094,0,0,0-6.4,12.611c.167.085.337.155.508.223a40.729,40.729,0,0,0-1.35,5.812c-.184,0-.369,0-.558.02a7.4,7.4,0,0,0-6.5,7.53,6.266,6.266,0,0,0,6.783,6.347c.192-.017.379-.047.566-.08a37.644,37.644,0,0,0,1.571,5.55c-.168.1-.335.2-.5.316a7.4,7.4,0,0,0-2.242,9.695c1.9,3.155,8.2,4.621,11.334,2.422.161-.113-1.9-.926-1.746-1.049a33.128,33.128,0,0,0,4.071,3.8c-.1.17-.205.341-.3.522a6.552,6.552,0,1,0,11.647,5.913c.092-.181.169-.364.245-.547a33.31,33.31,0,0,0,5.471,1.044c-.011.193-.02.387-.017.583a6.267,6.267,0,0,0,6.783,6.347,7.4,7.4,0,0,0,6.5-7.532c0-.2-.02-.4-.04-.59a37.229,37.229,0,0,0,5.407-2.007c.084.172.171.341.27.506a6.265,6.265,0,0,0,9.126,1.73,7.4,7.4,0,0,0,2.242-9.7c-.1-.161-.2-.312-.312-.461a40.764,40.764,0,0,0,3.895-4.52C3061.625,196.47,3061.783,196.565,3061.949,196.65Zm-40.091.509c-11.677-5.928-15.938-20.984-9.519-33.627s21.09-18.087,32.767-12.159,15.938,20.984,9.518,33.628S3033.535,203.087,3021.858,197.159Z" transform="translate(-2990.706 -129.954)" fill="#786860"/>
        <path id="Caminho_6715" data-name="Caminho 6715" d="M3066.205,177.236a7.4,7.4,0,0,0,6.5-7.53,6.267,6.267,0,0,0-6.783-6.347c-.192.017-.381.048-.568.08a37.325,37.325,0,0,0-1.571-5.549c.169-.1.337-.2.5-.316,3.139-2.2,7.023-7.514,4.808-10.458-4.2-5.586-8.553-3.168-11.693-.968-.161.113-.312.234-.462.357a33.13,33.13,0,0,0-4.071-3.8c.1-.17.2-.341.3-.521a7.312,7.312,0,0,0,.412-5.762q-4.548,8.006-8.962,16.084c9.315,6.826,12.282,20.279,6.458,31.747-4.934,9.718-14.742,15.175-24.319,14.491-.427,1.109-.847,2.222-1.3,3.32-1.242,2.978-2.652,5.894-4.064,8.806q1.334.253,2.676.394c-.011.193-.02.387-.017.583.077,3.832,2.4,7.089,9.053,6.735,3.678-.194,4.311-4.086,4.234-7.92,0-.2-.02-.4-.04-.59a37.229,37.229,0,0,0,5.407-2.007c.084.172.171.341.27.506,1.9,3.155,8.5,4.5,11.636,2.3s1.633-7.105-.268-10.261c-.1-.161-.2-.312-.312-.462a40.649,40.649,0,0,0,3.895-4.519c.156.1.313.193.48.278a7.094,7.094,0,0,0,6.4-12.611c-.166-.084-.336-.155-.506-.223a40.883,40.883,0,0,0,1.35-5.811C3065.832,177.256,3066.017,177.252,3066.205,177.236Z" transform="translate(-2987.158 -129.207)" fill="#4b3f37"/>
        <path id="Caminho_6716" data-name="Caminho 6716" d="M3065.05,197.043a7.094,7.094,0,0,0,6.4-12.611c-.166-.085-.337-.155-.508-.223a40.739,40.739,0,0,0,1.351-5.812c.184,0,.369,0,.556-.02a7.4,7.4,0,0,0,6.5-7.53,6.264,6.264,0,0,0-6.782-6.347c-.192.017-.38.047-.568.08a37.495,37.495,0,0,0-1.571-5.55c.168-.1.337-.2.5-.316a7.4,7.4,0,0,0,2.241-9.695,6.265,6.265,0,0,0-9.125-1.731c-.162.113-.312.234-.462.358a33.2,33.2,0,0,0-4.071-3.8c.1-.17.2-.341.3-.522a6.551,6.551,0,1,0-11.646-5.913c-.091.18-.17.364-.247.547a33.3,33.3,0,0,0-5.469-1.044c.011-.193.02-.387.015-.583a6.267,6.267,0,0,0-6.783-6.347,7.4,7.4,0,0,0-6.5,7.53c0,.2.021.4.04.591a37.292,37.292,0,0,0-5.407,2.007c-.084-.172-.17-.341-.269-.506a6.267,6.267,0,0,0-9.127-1.73,7.4,7.4,0,0,0-2.241,9.695c.1.162.2.313.313.462a41.044,41.044,0,0,0-3.9,4.519c-.155-.1-.313-.193-.479-.277a7.093,7.093,0,0,0-6.4,12.61c.166.085.337.156.508.224a40.756,40.756,0,0,0-1.351,5.811c-.184,0-.369,0-.557.02a7.4,7.4,0,0,0-6.505,7.532,6.266,6.266,0,0,0,6.783,6.347c.192-.018.38-.048.568-.081a37.243,37.243,0,0,0,1.571,5.55c-.168.1-.337.2-.5.316a7.4,7.4,0,0,0-2.241,9.7,6.265,6.265,0,0,0,9.125,1.73c.161-.113.313-.234.462-.358a33.228,33.228,0,0,0,4.071,3.8c-.1.17-.2.341-.3.521A6.551,6.551,0,1,0,3025,211.907c.092-.181.171-.364.247-.548a33.074,33.074,0,0,0,5.47,1.044c-.011.194-.02.388-.015.585a6.266,6.266,0,0,0,6.781,6.347,7.4,7.4,0,0,0,6.505-7.532c0-.2-.021-.4-.041-.59a37.518,37.518,0,0,0,5.408-2.007c.083.171.17.34.269.505a6.268,6.268,0,0,0,9.127,1.731,7.4,7.4,0,0,0,2.241-9.7c-.1-.162-.2-.312-.312-.462a40.838,40.838,0,0,0,3.9-4.519C3064.725,196.863,3064.884,196.959,3065.05,197.043Zm-40.091.509c-11.677-5.928-15.939-20.985-9.52-33.628s21.09-18.086,32.766-12.158,15.939,20.984,9.52,33.627S3036.635,203.48,3024.959,197.552Z" transform="translate(-2990.347 -129.954)" fill="url(#linear-gradient-2)"/>
      </g>
    </g>
    <g id="Grupo_4207" data-name="Grupo 4207" transform="matrix(0.259, -0.966, 0.966, 0.259, 850.109, 1282.014)">
      <g id="Grupo_3827" data-name="Grupo 3827" transform="translate(0 4.659)">
        <path id="Caminho_6717" data-name="Caminho 6717" d="M20.086,27.157a2.932,2.932,0,0,1-4.14.1L.909,12.919A2.929,2.929,0,0,1,1.936,8.045L23.789.175A2.928,2.928,0,0,1,27.581,3.79l-6.815,22.2A2.947,2.947,0,0,1,20.086,27.157ZM2.483,10.372a.642.642,0,0,0-.155.3.607.607,0,0,0,.178.574L17.541,25.579a.609.609,0,0,0,.581.151.619.619,0,0,0,.433-.416l6.815-22.2a.615.615,0,0,0-.8-.761L2.721,10.22A.605.605,0,0,0,2.483,10.372Z" fill="#786860"/>
      </g>
      <path id="Caminho_6718" data-name="Caminho 6718" d="M17.26,8.63A8.63,8.63,0,1,1,8.63,0,8.63,8.63,0,0,1,17.26,8.63Z" transform="translate(3.385 0)" fill="#4b3f37"/>
    </g>
  </g>
  <g id="Grupo_4212" data-name="Grupo 4212" transform="translate(-572.257 -1083)">
    <g id="Grupo_3667" data-name="Grupo 3667" transform="translate(-2389.58 979.802)">
      <path id="Caminho_6549" data-name="Caminho 6549" d="M3039.916,99.482s-71.647-26.051-65.278,20.381-42.988,114.248,17.116,121.706,114.635-3.87,120.208-27.83S3131.354,130.007,3039.916,99.482Z" transform="translate(5 11)" opacity="0.23" fill="url(#radial-gradient)"/>
      <g id="Grupo_3672" data-name="Grupo 3672" transform="translate(3038.528 137.017)">
        <g id="Grupo_3670" data-name="Grupo 3670" transform="translate(0)">
          <g id="Grupo_3669" data-name="Grupo 3669">
            <path id="Caminho_6550" data-name="Caminho 6550" d="M3153.89,272.518c-.763-4.822-1.17-12.349,2.8-19.051,6.921-11.691,19.363-7.713,31.384-20.207,9.7-10.077,6.715-17.981,17.427-24.649,1.793-1.116,11.269-7.261,18.259-3.474,3.939,2.134,5.342,6.47,5.6,7.284,3.98,12.3-8.652,31.434-25.008,40.113-9.4,4.986-12.406,3.315-28.922,9.093A92.72,92.72,0,0,0,3153.89,272.518Z" transform="translate(-3153.391 -203.919)" fill="#fbda70"/>
            <g id="Grupo_3668" data-name="Grupo 3668" clip-path="url(#clip-path)">
              <g id="Grupo_3667-2" data-name="Grupo 3667" transform="translate(-1.131 -4.417)" style="mix-blend-mode: soft-light;isolation: isolate">
                <path id="Caminho_6551" data-name="Caminho 6551" d="M3150.765,271.711l-.194-.042c2.476-11.5,7.077-19.209,13.676-22.909a19.723,19.723,0,0,1,8.509-2.373,21.536,21.536,0,0,0,9.926-3.009c3.881-2.311,5.283-4.552,7.057-7.391a45.358,45.358,0,0,1,8.024-9.955,48.366,48.366,0,0,1,9.214-6.948,22.994,22.994,0,0,0,7.315-6.155c4.053-5.237,6.2-11.974,6.377-20.023l.2,0c-.179,8.092-2.339,14.868-6.419,20.14a23.156,23.156,0,0,1-7.369,6.2,48.2,48.2,0,0,0-9.181,6.922,45.22,45.22,0,0,0-7.993,9.916c-1.789,2.861-3.2,5.121-7.123,7.456a21.713,21.713,0,0,1-10.007,3.036,19.546,19.546,0,0,0-8.432,2.348C3157.8,252.6,3153.229,260.268,3150.765,271.711Z" transform="translate(-3150.571 -192.908)" fill="#fff"/>
                <path id="Caminho_6552" data-name="Caminho 6552" d="M3288.923,225.965q-.606,0-1.227-.023l-.133,0,.042-.126c.054-.16,5.329-16.1-.509-22.743l.149-.131c5.634,6.41,1.078,21.284.588,22.811a31.154,31.154,0,0,0,19.22-5.778,29.427,29.427,0,0,0,6.551-6.246l.162.114a29.615,29.615,0,0,1-6.6,6.294A31.341,31.341,0,0,1,3288.923,225.965Z" transform="translate(-3232.327 -198.914)" fill="#fff"/>
                <path id="Caminho_6553" data-name="Caminho 6553" d="M3271.643,259.709a39.085,39.085,0,0,1-4.009-.206,36.565,36.565,0,0,1-10.307-2.509l-.078-.035.023-.082c2.358-8.315.408-20.184.388-20.3l.2-.033c.02.119,1.964,11.953-.369,20.306a38.037,38.037,0,0,0,32.85-2.387l.1.171A36.7,36.7,0,0,1,3271.643,259.709Z" transform="translate(-3214.453 -219.037)" fill="#fff"/>
                <path id="Caminho_6554" data-name="Caminho 6554" d="M3237.321,301.594c-15.946,0-25.069-6.667-25.161-6.735l-.084-.063.067-.08c6.375-7.676,4-20.45,3.974-20.578l.2-.038c.024.129,2.4,12.9-3.949,20.66.973.683,10.229,6.856,25.8,6.629l0,.2C3237.886,301.592,3237.6,301.594,3237.321,301.594Z" transform="translate(-3187.402 -241.528)" fill="#fff"/>
              </g>
            </g>
          </g>
        </g>
        <g id="Grupo_3671" data-name="Grupo 3671" transform="translate(16.994 27.973)">
          <path id="Caminho_6556" data-name="Caminho 6556" d="M3195.753,304.559a52.009,52.009,0,0,1,13.008-6.715c10.516-3.648,15.309-1.421,19.781-5.826,4.628-4.56,1.681-9.1,7.22-14.191.466-.428,6.412-5.75,11.745-3.717,3.73,1.423,5.157,5.681,5.828,7.679,2.6,7.755.977,19.533-7.316,25.292-7.863,5.46-17.752,2.765-20.892,1.887-5.508-1.54-6.8-3.7-12.4-5.1A32,32,0,0,0,3195.753,304.559Z" transform="translate(-3195.753 -273.648)" fill="#ff9975"/>
        </g>
      </g>
      <g id="Grupo_3677" data-name="Grupo 3677" transform="translate(2966.354 103.571)">
        <g id="Grupo_3674" data-name="Grupo 3674">
          <path id="Caminho_6557" data-name="Caminho 6557" d="M2983.973,229.637a10.836,10.836,0,0,1-6.855-2.07,8.693,8.693,0,0,1-1.052-13.265L3031.98,155a9.611,9.611,0,0,1,7.242-2.91,10,10,0,0,1,7.158,3.267L3065.1,176.23l21.272-23.389a8.791,8.791,0,0,1,12.305-.511,8.514,8.514,0,0,1,.861,12.052l-27.578,30.938a9.383,9.383,0,0,1-13.8.112l-18.94-20.7-47.431,51.424A11.207,11.207,0,0,1,2983.973,229.637Z" transform="translate(-2973.48 -138.224)" fill="#786860" opacity="0.5"/>
          <g id="Grupo_3673" data-name="Grupo 3673" transform="translate(108.583)">
            <path id="Caminho_6558" data-name="Caminho 6558" d="M3267.576,151.2l-23.429-20.557,30.065-10.095h2.1l-6.842,30.466Z" transform="translate(-3244.147 -120.548)" fill="#786860" opacity="0.5"/>
          </g>
        </g>
        <g id="Grupo_3676" data-name="Grupo 3676" transform="translate(2.099)">
          <path id="Caminho_6559" data-name="Caminho 6559" d="M2989.206,229.637a10.835,10.835,0,0,1-6.854-2.07A8.692,8.692,0,0,1,2981.3,214.3l55.914-59.3a9.611,9.611,0,0,1,7.242-2.91,10,10,0,0,1,7.158,3.267l18.72,20.876,21.273-23.389a8.79,8.79,0,0,1,12.3-.511,8.514,8.514,0,0,1,.862,12.052l-27.579,30.938a9.383,9.383,0,0,1-13.8.112l-18.939-20.7-47.431,51.424A11.207,11.207,0,0,1,2989.206,229.637Z" transform="translate(-2978.713 -138.224)" fill="url(#linear-gradient-3)"/>
          <g id="Grupo_3675" data-name="Grupo 3675" transform="translate(108.583)">
            <path id="Caminho_6560" data-name="Caminho 6560" d="M3272.6,151.015l-23.224-20.372,30.065-10.095Z" transform="translate(-3249.38 -120.548)" fill="url(#linear-gradient-4)"/>
          </g>
        </g>
      </g>
      <g id="Grupo_3691" data-name="Grupo 3691" transform="translate(2961.836 146.767)">
        <path id="Caminho_6561" data-name="Caminho 6561" d="M3013.563,264.064,3002.381,335.8a2.131,2.131,0,0,0,2.033,2.573l55.965-2.641Z" transform="translate(-2986.252 -249.685)" fill="#4b3f37"/>
        <g id="Grupo_3686" data-name="Grupo 3686">
          <g id="Grupo_3681" data-name="Grupo 3681" transform="translate(4.282)">
            <g id="Grupo_3680" data-name="Grupo 3680">
              <path id="Caminho_6562" data-name="Caminho 6562" d="M3008.114,308.988a42.38,42.38,0,0,0,1.46-22.734c-2.418-10.481-7.774-12.578-12.583-23.781-6.865-15.993.9-27.577-6.2-32.464a11.41,11.41,0,0,0-12.275.007c-9.586,6.827-6.958,36.566,8.251,48.171,6.878,5.248,12.881,4.626,18.042,11.418C3009.368,295.607,3009.011,303.524,3008.114,308.988Z" transform="translate(-2972.894 -228.222)" fill="#fbda70"/>
              <g id="Grupo_3679" data-name="Grupo 3679" clip-path="url(#clip-path-2)">
                <g id="Grupo_3678" data-name="Grupo 3678" transform="translate(0.88 -2.873)" style="mix-blend-mode: soft-light;isolation: isolate">
                  <path id="Caminho_6563" data-name="Caminho 6563" d="M3023.43,291.153a40.8,40.8,0,0,0-2.3-6.612c-2.186-4.881-4.6-7.566-7.656-10.965a95.22,95.22,0,0,1-6.869-8.341c-4.889-6.748-6.407-9.119-7.767-12.942a37.755,37.755,0,0,1-1.792-17.714,36.815,36.815,0,0,1,4.766-13.518l.171.1a36.606,36.606,0,0,0-4.741,13.446,37.553,37.553,0,0,0,1.782,17.619c1.352,3.8,2.865,6.162,7.74,12.892a95.145,95.145,0,0,0,6.856,8.325c3.068,3.412,5.49,6.107,7.69,11.016a41.054,41.054,0,0,1,2.313,6.645Z" transform="translate(-2988.023 -221.06)" fill="#fff"/>
                  <path id="Caminho_6564" data-name="Caminho 6564" d="M2984.613,256.315l-.144-.078a19.988,19.988,0,0,1-5.394-4.755,18.266,18.266,0,0,1-3.692-14.814l.2.033a18.075,18.075,0,0,0,3.652,14.658,20.167,20.167,0,0,0,5.191,4.622c.166-5.524,3.71-9.1,6.67-11.142a24.457,24.457,0,0,1,6.518-3.146l.053.191a24.23,24.23,0,0,0-6.463,3.121c-2.95,2.031-6.486,5.614-6.584,11.146Z" transform="translate(-2975.088 -230.407)" fill="#fff"/>
                  <path id="Caminho_6565" data-name="Caminho 6565" d="M2986.831,303.935a14.962,14.962,0,0,1-9.369-3.133l.122-.156c6.96,5.417,15.231,2.148,16.11,1.775a16.09,16.09,0,0,1,1.142-11.91,13.181,13.181,0,0,1,3.222-4.01l.118.158c-.07.053-7,5.395-4.269,15.794l.021.081-.076.034A18.747,18.747,0,0,1,2986.831,303.935Z" transform="translate(-2976.51 -260.248)" fill="#fff"/>
                  <path id="Caminho_6566" data-name="Caminho 6566" d="M3005.236,330.136a22.512,22.512,0,0,1-7.734-1.488l.068-.186c9.77,3.57,15.015-.4,15.593-.872-2.386-5.6.98-14.641,1.014-14.732l.186.07c-.035.091-3.4,9.131-.99,14.651l.029.065-.052.048C3013.312,327.726,3010.583,330.136,3005.236,330.136Z" transform="translate(-2988.51 -276.032)" fill="#fff"/>
                </g>
              </g>
            </g>
          </g>
          <g id="Grupo_3685" data-name="Grupo 3685" transform="translate(0 33.386)">
            <g id="Grupo_3684" data-name="Grupo 3684">
              <path id="Caminho_6568" data-name="Caminho 6568" d="M3019.165,363.286c.6-3.617.942-9.267-2-14.319-5.137-8.814-14.5-5.891-23.463-15.334-7.229-7.617-4.95-13.536-12.96-18.6-1.341-.847-8.425-5.51-13.693-2.7a9.65,9.65,0,0,0-4.246,5.441c-3.052,9.217,6.337,23.648,18.574,30.249,7.031,3.792,9.3,2.553,21.671,6.975A69.612,69.612,0,0,1,3019.165,363.286Z" transform="translate(-2962.219 -311.444)" fill="#ff9975"/>
              <g id="Grupo_3683" data-name="Grupo 3683" clip-path="url(#clip-path-3)">
                <g id="Grupo_3682" data-name="Grupo 3682" transform="translate(-2.709 -3.336)" style="mix-blend-mode: soft-light;isolation: isolate">
                  <path id="Caminho_6569" data-name="Caminho 6569" d="M3028.744,362.663c-1.791-8.6-5.178-14.371-10.069-17.157a14.663,14.663,0,0,0-6.31-1.8,16.32,16.32,0,0,1-7.509-2.334,14.173,14.173,0,0,1-5.319-5.643,33.915,33.915,0,0,0-5.947-7.483,36.163,36.163,0,0,0-6.855-5.242,17.417,17.417,0,0,1-5.509-4.7c-3.04-3.984-4.629-9.088-4.722-15.171l.2,0c.093,6.04,1.668,11.1,4.682,15.053a17.239,17.239,0,0,0,5.455,4.654,36.327,36.327,0,0,1,6.887,5.267,34.09,34.09,0,0,1,5.979,7.521,14.009,14.009,0,0,0,5.253,5.577,16.148,16.148,0,0,0,7.428,2.306,14.833,14.833,0,0,1,6.387,1.828c4.942,2.815,8.362,8.632,10.164,17.288Z" transform="translate(-2968.065 -303.127)" fill="#fff"/>
                  <path id="Caminho_6570" data-name="Caminho 6570" d="M2974.245,328.136a23.97,23.97,0,0,1-18.778-9.244l.163-.112a23.769,23.769,0,0,0,19.237,9.151c-.406-1.309-3.663-12.365.573-17.119l.148.132c-4.409,4.946-.533,16.93-.493,17.051l.041.126-.132,0C2974.749,328.133,2974.495,328.136,2974.245,328.136Z" transform="translate(-2955.467 -307.729)" fill="#fff"/>
                  <path id="Caminho_6571" data-name="Caminho 6571" d="M2979.735,353.578a27.6,27.6,0,0,1-14.3-3.913l.1-.17a28.548,28.548,0,0,0,24.614,1.967c-1.7-6.289-.185-15.151-.168-15.24l.195.034c-.016.089-1.539,8.987.187,15.237l.023.082-.078.035a27.47,27.47,0,0,1-7.76,1.834C2981.694,353.526,2980.75,353.578,2979.735,353.578Z" transform="translate(-2961.437 -322.945)" fill="#fff"/>
                  <path id="Caminho_6572" data-name="Caminho 6572" d="M3013.285,385.177c-.307,0-.616,0-.93-.01l0-.2a38.393,38.393,0,0,0,14.4-2.342,24.342,24.342,0,0,0,4.978-2.484c-4.715-5.868-2.867-15.437-2.848-15.534l.194.039c-.019.1-1.866,9.665,2.874,15.452l.066.081-.084.062C3031.867,380.292,3025.085,385.177,3013.285,385.177Z" transform="translate(-2989.533 -339.944)" fill="#fff"/>
                </g>
              </g>
            </g>
          </g>
        </g>
        <path id="Caminho_6574" data-name="Caminho 6574" d="M3030.113,455.114l-28.719-9.653L3042.7,442.7Z" transform="translate(-2985.678 -356.661)" fill="#d8dee8"/>
        <g id="Grupo_3690" data-name="Grupo 3690" transform="translate(27.274 12.773)">
          <path id="Caminho_6575" data-name="Caminho 6575" d="M3132.606,263.161l-100.215-3.1a2.007,2.007,0,0,0-2.136,2.5l16.256,81.642a3.044,3.044,0,0,0,3.11,2.394l98.185-7.1a1.874,1.874,0,0,0,1.558-2.41l-14.257-71.6A2.885,2.885,0,0,0,3132.606,263.161Z" transform="translate(-3030.205 -260.061)" fill="url(#linear-gradient-5)"/>
          <path id="Caminho_6576" data-name="Caminho 6576" d="M3133.954,263.161l-100.215-3.1a2.007,2.007,0,0,0-2.136,2.5l16.256,81.642a3.044,3.044,0,0,0,3.11,2.394l98.185-7.1a1.873,1.873,0,0,0,1.558-2.41l-14.257-71.6A2.885,2.885,0,0,0,3133.954,263.161Z" transform="translate(-3031.012 -260.061)" fill="url(#linear-gradient-6)"/>
          <g id="Grupo_3687" data-name="Grupo 3687" transform="translate(0.541)">
            <path id="Caminho_6577" data-name="Caminho 6577" d="M3107.8,306.422c-19.725-10.717-38.417-2.386-51.876-16.133-8.287-8.465-9.809-20.45-9.56-29.836l-12.626-.39a2.007,2.007,0,0,0-2.136,2.5l16.256,81.642a3.044,3.044,0,0,0,3.11,2.394l85.19-6.156C3126.848,320.23,3116.351,311.068,3107.8,306.422Z" transform="translate(-3031.553 -260.061)" fill="#786860"/>
          </g>
          <path id="Caminho_6578" data-name="Caminho 6578" d="M3150.794,344.271l-93.009,6.348a3.305,3.305,0,0,1-3.358-2.6l-14.482-72.732a2.181,2.181,0,0,1,2.3-2.721l94.747,2.381a3.119,3.119,0,0,1,2.728,2.521l12.781,64.189A2.032,2.032,0,0,1,3150.794,344.271Z" transform="translate(-3036.005 -267.548)" fill="#d8dee8"/>
          <path id="Caminho_6579" data-name="Caminho 6579" d="M3152.02,344.263l-92.9,6.341a3.3,3.3,0,0,1-3.354-2.6L3041.3,275.318a2.179,2.179,0,0,1,2.3-2.719l94.633,2.379a3.117,3.117,0,0,1,2.726,2.519l12.773,64.153A2.03,2.03,0,0,1,3152.02,344.263Z" transform="translate(-3036.814 -267.568)" fill="url(#linear-gradient-7)"/>
          <g id="Grupo_3688" data-name="Grupo 3688" transform="translate(12.846 17.831)">
            <path id="Caminho_6580" data-name="Caminho 6580" d="M3145.964,323.825l-10.141.063a.709.709,0,0,1-.663-.56l-1.677-8.425a.442.442,0,0,1,.44-.561l10.164.057a.707.707,0,0,1,.648.559l1.654,8.308A.439.439,0,0,1,3145.964,323.825Zm-9.814-1.067,9.056-.043-1.435-7.205-9.072-.038Z" transform="translate(-3104.89 -310.397)" fill="#d8dee8"/>
            <path id="Caminho_6581" data-name="Caminho 6581" d="M3178.461,323.855l-9.816.061a.693.693,0,0,1-.644-.551l-1.65-8.288a.431.431,0,0,1,.424-.552l9.839.055a.69.69,0,0,1,.629.55l1.628,8.175A.429.429,0,0,1,3178.461,323.855Zm-9.5-1.051,8.766-.042-1.411-7.089-8.782-.037Z" transform="translate(-3124.573 -310.506)" fill="#d8dee8"/>
            <path id="Caminho_6582" data-name="Caminho 6582" d="M3209.925,323.885l-9.507.059a.676.676,0,0,1-.625-.543l-1.624-8.155a.422.422,0,0,1,.409-.543l9.529.053a.675.675,0,0,1,.612.541l1.6,8.046A.419.419,0,0,1,3209.925,323.885Zm-9.208-1.035,8.49-.04-1.389-6.978-8.505-.036Z" transform="translate(-3143.627 -310.613)" fill="#d8dee8"/>
            <path id="Caminho_6583" data-name="Caminho 6583" d="M3240.4,323.914l-9.212.057a.661.661,0,0,1-.607-.534l-1.6-8.027a.412.412,0,0,1,.395-.534l9.234.052a.659.659,0,0,1,.594.533l1.577,7.921A.41.41,0,0,1,3240.4,323.914Zm-8.927-1.019,8.227-.039-1.368-6.87-8.241-.035Z" transform="translate(-3162.081 -310.716)" fill="#d8dee8"/>
            <path id="Caminho_6584" data-name="Caminho 6584" d="M3269.943,323.941l-8.931.055a.648.648,0,0,1-.59-.526l-1.573-7.9a.4.4,0,0,1,.38-.526l8.952.05a.646.646,0,0,1,.578.525l1.553,7.8A.4.4,0,0,1,3269.943,323.941Zm-8.657-1,7.975-.039-1.347-6.764-7.99-.034Z" transform="translate(-3179.964 -310.816)" fill="#d8dee8"/>
            <path id="Caminho_6585" data-name="Caminho 6585" d="M3083.405,352.474l-10.81.218a.732.732,0,0,1-.7-.572l-1.735-8.712a.471.471,0,0,1,.473-.588l10.835-.09a.729.729,0,0,1,.688.57l1.71,8.587A.468.468,0,0,1,3083.405,352.474Zm-10.455-.959,9.653-.181-1.483-7.448-9.671.094Z" transform="translate(-3066.969 -327.396)" fill="#d8dee8"/>
            <path id="Caminho_6586" data-name="Caminho 6586" d="M3118.032,352.03l-10.452.21a.713.713,0,0,1-.682-.562l-1.706-8.566a.46.46,0,0,1,.455-.578l10.477-.087a.71.71,0,0,1,.667.56l1.682,8.445A.457.457,0,0,1,3118.032,352.03Zm-10.113-.946,9.334-.175-1.459-7.325-9.351.091Z" transform="translate(-3087.949 -327.227)" fill="#d8dee8"/>
            <path id="Caminho_6587" data-name="Caminho 6587" d="M3151.521,351.6l-10.112.2a.7.7,0,0,1-.662-.553l-1.677-8.424a.448.448,0,0,1,.438-.568l10.136-.084a.693.693,0,0,1,.647.552l1.655,8.308A.446.446,0,0,1,3151.521,351.6Zm-9.788-.934,9.031-.169-1.435-7.205-9.046.088Z" transform="translate(-3108.236 -327.063)" fill="#d8dee8"/>
            <path id="Caminho_6588" data-name="Caminho 6588" d="M3183.929,351.184l-9.789.2a.68.68,0,0,1-.642-.544l-1.65-8.288a.438.438,0,0,1,.422-.559l9.812-.081a.677.677,0,0,1,.628.543l1.628,8.175A.435.435,0,0,1,3183.929,351.184Zm-9.479-.921,8.742-.164-1.411-7.09-8.758.085Z" transform="translate(-3127.865 -326.905)" fill="#d8dee8"/>
            <path id="Caminho_6589" data-name="Caminho 6589" d="M3215.306,350.781l-9.48.191a.665.665,0,0,1-.624-.536l-1.624-8.155a.428.428,0,0,1,.408-.55l9.5-.079a.662.662,0,0,1,.61.535l1.6,8.045A.426.426,0,0,1,3215.306,350.781Zm-9.184-.91,8.466-.158-1.39-6.978-8.481.082Z" transform="translate(-3146.865 -326.751)" fill="#d8dee8"/>
            <path id="Caminho_6590" data-name="Caminho 6590" d="M3245.7,350.391l-9.186.185a.65.65,0,0,1-.606-.527l-1.6-8.027a.419.419,0,0,1,.393-.542l9.208-.076a.647.647,0,0,1,.593.526l1.577,7.921A.417.417,0,0,1,3245.7,350.391Zm-8.9-.9,8.2-.154-1.368-6.869-8.218.079Z" transform="translate(-3165.269 -326.602)" fill="#d8dee8"/>
            <path id="Caminho_6591" data-name="Caminho 6591" d="M3275.158,350.013l-8.906.179a.636.636,0,0,1-.589-.52l-1.573-7.9a.41.41,0,0,1,.379-.533l8.927-.074a.633.633,0,0,1,.576.518l1.554,7.8A.409.409,0,0,1,3275.158,350.013Zm-8.634-.887,7.954-.149-1.347-6.764-7.968.077Z" transform="translate(-3183.102 -326.458)" fill="#d8dee8"/>
            <path id="Caminho_6592" data-name="Caminho 6592" d="M3089.151,381.1l-10.78.368a.72.72,0,0,1-.7-.563l-1.735-8.712a.479.479,0,0,1,.471-.6l10.805-.241a.715.715,0,0,1,.686.562l1.71,8.587A.475.475,0,0,1,3089.151,381.1Zm-10.427-.816,9.626-.315-1.483-7.448-9.644.228Z" transform="translate(-3070.429 -344.537)" fill="#d8dee8"/>
            <path id="Caminho_6593" data-name="Caminho 6593" d="M3123.682,380.179l-10.423.356a.7.7,0,0,1-.681-.554l-1.706-8.566a.467.467,0,0,1,.454-.586l10.448-.233a.7.7,0,0,1,.665.553l1.682,8.445A.464.464,0,0,1,3123.682,380.179Zm-10.086-.808,9.308-.3-1.458-7.325-9.325.221Z" transform="translate(-3091.351 -344.083)" fill="#d8dee8"/>
            <path id="Caminho_6594" data-name="Caminho 6594" d="M3157.079,379.29l-10.084.345a.684.684,0,0,1-.66-.545l-1.677-8.424a.456.456,0,0,1,.437-.576l10.108-.225a.682.682,0,0,1,.645.544l1.654,8.308A.453.453,0,0,1,3157.079,379.29Zm-9.761-.8,9.005-.295-1.434-7.205-9.022.213Z" transform="translate(-3111.582 -343.645)" fill="#d8dee8"/>
            <path id="Caminho_6595" data-name="Caminho 6595" d="M3189.4,378.431l-9.761.333a.668.668,0,0,1-.641-.536l-1.65-8.288a.445.445,0,0,1,.421-.567l9.785-.217a.665.665,0,0,1,.626.536l1.628,8.175A.443.443,0,0,1,3189.4,378.431Zm-9.453-.793,8.718-.286-1.412-7.089-8.733.207Z" transform="translate(-3131.156 -343.221)" fill="#d8dee8"/>
            <path id="Caminho_6596" data-name="Caminho 6596" d="M3220.687,377.6l-9.455.323a.653.653,0,0,1-.622-.528l-1.624-8.155a.435.435,0,0,1,.406-.557l9.477-.211a.651.651,0,0,1,.609.527l1.6,8.046A.433.433,0,0,1,3220.687,377.6Zm-9.159-.785,8.442-.277-1.389-6.978-8.458.2Z" transform="translate(-3150.104 -342.81)" fill="#d8dee8"/>
            <path id="Caminho_6597" data-name="Caminho 6597" d="M3251,376.791l-9.161.313a.639.639,0,0,1-.6-.52l-1.6-8.027a.425.425,0,0,1,.391-.548l9.183-.2a.636.636,0,0,1,.591.52l1.578,7.921A.424.424,0,0,1,3251,376.791Zm-8.878-.777,8.181-.268-1.368-6.869-8.2.194Z" transform="translate(-3168.457 -342.411)" fill="#d8dee8"/>
            <path id="Caminho_6598" data-name="Caminho 6598" d="M3280.373,376.009l-8.881.3a.624.624,0,0,1-.588-.512l-1.574-7.9a.417.417,0,0,1,.378-.54l8.9-.2a.624.624,0,0,1,.576.512l1.553,7.8A.415.415,0,0,1,3280.373,376.009Zm-8.61-.769,7.932-.26-1.347-6.764-7.946.188Z" transform="translate(-3186.241 -342.025)" fill="#d8dee8"/>
            <path id="Caminho_6599" data-name="Caminho 6599" d="M3094.9,409.719l-10.75.519a.706.706,0,0,1-.7-.555l-1.735-8.712a.486.486,0,0,1,.469-.6l10.776-.391a.7.7,0,0,1,.684.554l1.71,8.587A.483.483,0,0,1,3094.9,409.719Zm-10.4-.674,9.6-.45-1.483-7.448-9.617.363Z" transform="translate(-3073.889 -361.677)" fill="#d8dee8"/>
            <path id="Caminho_6600" data-name="Caminho 6600" d="M3129.333,408.327l-10.394.5a.688.688,0,0,1-.679-.546l-1.705-8.566a.474.474,0,0,1,.452-.594l10.419-.378a.685.685,0,0,1,.663.546l1.682,8.445A.472.472,0,0,1,3129.333,408.327Zm-10.059-.671,9.282-.435L3127.1,399.9l-9.3.351Z" transform="translate(-3094.753 -360.939)" fill="#d8dee8"/>
            <path id="Caminho_6601" data-name="Caminho 6601" d="M3162.636,406.981l-10.056.485a.672.672,0,0,1-.658-.538l-1.678-8.425a.463.463,0,0,1,.436-.584l10.08-.366a.669.669,0,0,1,.644.537l1.654,8.308A.461.461,0,0,1,3162.636,406.981Zm-9.735-.667,8.98-.421-1.434-7.205-9,.339Z" transform="translate(-3114.927 -360.227)" fill="#d8dee8"/>
            <path id="Caminho_6602" data-name="Caminho 6602" d="M3194.865,405.677l-9.735.47a.656.656,0,0,1-.639-.529l-1.65-8.288a.452.452,0,0,1,.419-.574l9.758-.354a.653.653,0,0,1,.625.528l1.628,8.175A.45.45,0,0,1,3194.865,405.677Zm-9.427-.664,8.693-.407-1.412-7.09-8.709.329Z" transform="translate(-3134.448 -359.536)" fill="#d8dee8"/>
            <path id="Caminho_6603" data-name="Caminho 6603" d="M3226.067,404.415l-9.427.455a.641.641,0,0,1-.621-.521l-1.624-8.155a.442.442,0,0,1,.4-.564l9.45-.343a.638.638,0,0,1,.607.52l1.6,8.046A.441.441,0,0,1,3226.067,404.415Zm-9.134-.66,8.419-.395-1.389-6.977-8.434.318Z" transform="translate(-3153.343 -358.868)" fill="#d8dee8"/>
            <path id="Caminho_6604" data-name="Caminho 6604" d="M3256.294,403.191l-9.135.441a.626.626,0,0,1-.6-.513l-1.6-8.027a.432.432,0,0,1,.39-.555l9.157-.333a.625.625,0,0,1,.59.513l1.577,7.921A.431.431,0,0,1,3256.294,403.191Zm-8.854-.656,8.158-.382-1.368-6.869-8.173.308Z" transform="translate(-3171.645 -358.22)" fill="#d8dee8"/>
            <path id="Caminho_6605" data-name="Caminho 6605" d="M3285.588,402.005l-8.857.427a.614.614,0,0,1-.586-.506l-1.573-7.9a.423.423,0,0,1,.376-.546l8.878-.322a.611.611,0,0,1,.574.505l1.553,7.8A.422.422,0,0,1,3285.588,402.005Zm-8.587-.652,7.909-.371-1.347-6.764-7.923.3Z" transform="translate(-3189.379 -357.593)" fill="#d8dee8"/>
            <path id="Caminho_6606" data-name="Caminho 6606" d="M3100.644,438.342l-10.719.669a.693.693,0,0,1-.7-.547l-1.735-8.712a.494.494,0,0,1,.468-.613l10.745-.542a.689.689,0,0,1,.682.546l1.71,8.587A.491.491,0,0,1,3100.644,438.342Zm-10.37-.532,9.573-.585-1.483-7.448-9.59.5Z" transform="translate(-3077.349 -378.816)" fill="#d8dee8"/>
            <path id="Caminho_6607" data-name="Caminho 6607" d="M3134.983,436.476l-10.365.647a.676.676,0,0,1-.677-.538l-1.705-8.566a.482.482,0,0,1,.45-.6l10.39-.524a.673.673,0,0,1,.662.538l1.682,8.445A.479.479,0,0,1,3134.983,436.476Zm-10.031-.533,9.257-.565-1.458-7.324-9.273.481Z" transform="translate(-3098.155 -377.795)" fill="#d8dee8"/>
            <path id="Caminho_6608" data-name="Caminho 6608" d="M3168.194,434.67l-10.028.627a.66.66,0,0,1-.657-.53l-1.677-8.424a.47.47,0,0,1,.433-.592l10.052-.507a.656.656,0,0,1,.642.529l1.654,8.308A.468.468,0,0,1,3168.194,434.67Zm-9.708-.534,8.955-.546-1.435-7.205-8.971.465Z" transform="translate(-3118.274 -376.808)" fill="#d8dee8"/>
            <path id="Caminho_6609" data-name="Caminho 6609" d="M3200.332,432.923l-9.708.606a.644.644,0,0,1-.637-.522l-1.65-8.288a.459.459,0,0,1,.418-.581l9.73-.491a.642.642,0,0,1,.624.521l1.628,8.175A.458.458,0,0,1,3200.332,432.923Zm-9.4-.534,8.669-.529-1.412-7.09-8.684.45Z" transform="translate(-3137.739 -375.852)" fill="#d8dee8"/>
            <path id="Caminho_6610" data-name="Caminho 6610" d="M3073.712,306.947l-11.015-.08-.47-2.36,11.021.111Z" transform="translate(-3062.227 -304.508)" fill="url(#linear-gradient-8)"/>
            <path id="Caminho_6611" data-name="Caminho 6611" d="M3108.924,307.264l-10.646-.078-.462-2.319,10.652.107Z" transform="translate(-3083.539 -304.723)" fill="url(#linear-gradient-9)"/>
            <path id="Caminho_6612" data-name="Caminho 6612" d="M3142.966,307.569l-10.3-.075-.454-2.281,10.3.1Z" transform="translate(-3104.139 -304.93)" fill="url(#linear-gradient-10)"/>
            <path id="Caminho_6613" data-name="Caminho 6613" d="M3175.9,307.865l-9.962-.073-.447-2.243,9.968.1Z" transform="translate(-3124.063 -305.131)" fill="url(#linear-gradient-11)"/>
            <path id="Caminho_6614" data-name="Caminho 6614" d="M3207.766,308.151l-9.645-.07-.439-2.207,9.65.1Z" transform="translate(-3143.342 -305.326)" fill="url(#linear-gradient-12)"/>
            <path id="Caminho_6615" data-name="Caminho 6615" d="M3238.627,308.429l-9.342-.068-.433-2.172,9.347.094Z" transform="translate(-3162.008 -305.514)" fill="url(#linear-gradient-13)"/>
            <path id="Caminho_6616" data-name="Caminho 6616" d="M3268.526,308.7l-9.054-.066-.426-2.138,9.059.091Z" transform="translate(-3180.089 -305.697)" fill="url(#linear-gradient-14)"/>
          </g>
          <path id="Caminho_6617" data-name="Caminho 6617" d="M3147.393,291.081l-88.083-1.224-.888-4.46,88.176,1.691Z" transform="translate(-3047.102 -275.233)" fill="#d8dee8"/>
          <g id="Grupo_3689" data-name="Grupo 3689" transform="translate(4.418 5.028)" opacity="0.3" style="mix-blend-mode: multiply;isolation: isolate">
            <path id="Caminho_6618" data-name="Caminho 6618" d="M3113.588,313.927c-19.725-10.717-38.417-2.386-51.876-16.133-6.9-7.05-9.115-16.566-9.514-24.981l-8.676-.218a2.138,2.138,0,0,0-2.252,2.667l14.494,72.793a3.239,3.239,0,0,0,3.291,2.55l81.509-5.563C3131.611,326.848,3121.718,318.345,3113.588,313.927Z" transform="translate(-3041.218 -272.595)" fill="#d8dee8"/>
          </g>
        </g>
      </g>
    </g>
  </g>
</svg>
