<svg xmlns="http://www.w3.org/2000/svg" xmlns:xlink="http://www.w3.org/1999/xlink" width="550.605" height="182.075" viewBox="0 0 550.605 182.075">
  <defs>
    <linearGradient id="linear-gradient" y1="0.5" x2="1" y2="0.5" gradientUnits="objectBoundingBox">
      <stop offset="0.003" stop-color="#8f817b"/>
      <stop offset="0.144" stop-color="#7e6f68"/>
      <stop offset="0.364" stop-color="#685952"/>
      <stop offset="0.503" stop-color="#61514a"/>
      <stop offset="0.711" stop-color="#4f413b"/>
      <stop offset="1" stop-color="#312722"/>
    </linearGradient>
    <linearGradient id="linear-gradient-2" x1="0.29" y1="0.5" x2="0.791" y2="0.5" gradientUnits="objectBoundingBox">
      <stop offset="0.103" stop-color="#da000d"/>
      <stop offset="1"/>
    </linearGradient>
    <linearGradient id="linear-gradient-3" x1="0.173" y1="0.16" x2="0.545" y2="0.542" gradientUnits="objectBoundingBox">
      <stop offset="0" stop-color="#193244"/>
      <stop offset="0.527" stop-color="#17292f"/>
      <stop offset="0.586" stop-color="#16282d"/>
      <stop offset="1" stop-color="#152425"/>
    </linearGradient>
    <linearGradient id="linear-gradient-4" x1="2.093" y1="-0.658" x2="2.451" y2="-0.82" gradientUnits="objectBoundingBox">
      <stop offset="0" stop-color="#233000"/>
      <stop offset="0.534" stop-color="#1c2800"/>
      <stop offset="1" stop-color="#152100"/>
    </linearGradient>
    <linearGradient id="linear-gradient-5" x1="0.1" y1="0.887" x2="0.442" y2="0.533" xlink:href="#linear-gradient"/>
    <linearGradient id="linear-gradient-6" x1="0.496" y1="0.557" x2="0.572" y2="0.999" gradientUnits="objectBoundingBox">
      <stop offset="0" stop-color="#98541d"/>
      <stop offset="0.305" stop-color="#9d5c24"/>
      <stop offset="0.489" stop-color="#a3642c"/>
      <stop offset="0.967" stop-color="#b47f46"/>
      <stop offset="1" stop-color="#b68248"/>
    </linearGradient>
    <linearGradient id="linear-gradient-7" x1="0.931" y1="0.995" x2="0.518" y2="0.53" gradientUnits="objectBoundingBox">
      <stop offset="0.002" stop-color="#ffc22c"/>
      <stop offset="0.204" stop-color="#f9b71a"/>
      <stop offset="0.54" stop-color="#f2a800"/>
      <stop offset="0.684" stop-color="#eda200"/>
      <stop offset="1" stop-color="#e89a00"/>
    </linearGradient>
    <radialGradient id="radial-gradient" cx="0.504" cy="0.5" r="0.494" gradientTransform="translate(0)" gradientUnits="objectBoundingBox">
      <stop offset="0.783" stop-color="#e8e8e8"/>
      <stop offset="0.871" stop-color="#e6e6e6" stop-opacity="0.996"/>
      <stop offset="0.903" stop-color="#e2e1e1" stop-opacity="0.98"/>
      <stop offset="0.925" stop-color="#d9d9d8" stop-opacity="0.953"/>
      <stop offset="0.944" stop-color="#cecccc" stop-opacity="0.91"/>
      <stop offset="0.959" stop-color="#bfbcbb" stop-opacity="0.859"/>
      <stop offset="0.973" stop-color="#aca8a7" stop-opacity="0.792"/>
      <stop offset="0.986" stop-color="#96918f" stop-opacity="0.714"/>
      <stop offset="0.997" stop-color="#7d7674" stop-opacity="0.627"/>
      <stop offset="1" stop-color="#756e6c" stop-opacity="0.6"/>
    </radialGradient>
    <radialGradient id="radial-gradient-2" cx="0.504" cy="0.5" r="0.494" gradientUnits="objectBoundingBox">
      <stop offset="0" stop-color="#e8e8e8"/>
      <stop offset="1" stop-color="#756e6c" stop-opacity="0.6"/>
    </radialGradient>
    <radialGradient id="radial-gradient-3" cx="0.504" cy="0.5" r="0.494" gradientTransform="translate(0)" gradientUnits="objectBoundingBox">
      <stop offset="0.452" stop-color="#e8e8e8" stop-opacity="0.102"/>
      <stop offset="0.665" stop-color="#e8e8e8" stop-opacity="0.106"/>
      <stop offset="0.742" stop-color="#e8e8e8" stop-opacity="0.133"/>
      <stop offset="0.797" stop-color="#eaeaea" stop-opacity="0.18"/>
      <stop offset="0.841" stop-color="#ececec" stop-opacity="0.243"/>
      <stop offset="0.879" stop-color="#eee" stop-opacity="0.329"/>
      <stop offset="0.912" stop-color="#f1f1f1" stop-opacity="0.435"/>
      <stop offset="0.943" stop-color="#f5f5f5" stop-opacity="0.561"/>
      <stop offset="0.971" stop-color="#f9f9f9" stop-opacity="0.706"/>
      <stop offset="0.995" stop-color="#fefefe" stop-opacity="0.867"/>
      <stop offset="1" stop-color="#fff" stop-opacity="0.898"/>
    </radialGradient>
  </defs>
  <g id="Grupo_4298" data-name="Grupo 4298" transform="translate(-836.447 -340.034)">
    <path id="Caminho_7627" data-name="Caminho 7627" d="M1273.7,435.707l-364.06.3c-5.053,0-9.15-3.709-9.15-8.289V401.61c0-4.575,4.087-8.287,9.135-8.289l364.06-.3c5.05-.005,9.15,3.706,9.15,8.289V427.42C1282.836,431.993,1278.746,435.7,1273.7,435.707Z" transform="translate(104.064 86.102)" fill="url(#linear-gradient)"/>
    <g id="Grupo_4299" data-name="Grupo 4299" transform="translate(1074.914 489.613)">
      <g id="Grupo_4298-2" data-name="Grupo 4298">
        <path id="Caminho_7628" data-name="Caminho 7628" d="M935.6,397.178a6.787,6.787,0,0,1,2.738.507,5.272,5.272,0,0,1,1.921,1.383,5.589,5.589,0,0,1,1.118,2.071,9.033,9.033,0,0,1,.357,2.591,6.465,6.465,0,0,1-1.772,4.958,7.355,7.355,0,0,1-5.2,1.651h-1.935v8.1H927.3V397.178Zm-1.727,9.171a2.011,2.011,0,0,0,1.593-.625,2.925,2.925,0,0,0,.551-1.966q0-2.591-2.145-2.591h-1.042v5.182Z" transform="translate(-927.296 -396.761)" fill="#fff"/>
        <path id="Caminho_7629" data-name="Caminho 7629" d="M948.26,397.178a7.709,7.709,0,0,1,2.693.417,4.619,4.619,0,0,1,1.819,1.176,4.561,4.561,0,0,1,1.01,1.8,7.794,7.794,0,0,1,.312,2.263,6.178,6.178,0,0,1-.864,3.457,3.817,3.817,0,0,1-2.769,1.606v.06a3.315,3.315,0,0,1,2.74,1.4,6.461,6.461,0,0,1,.746,3.365v2.68c0,.3.008.58.029.85a6.77,6.77,0,0,0,.089.73,1.887,1.887,0,0,0,.15.5c.079.121.157.234.239.344a1.193,1.193,0,0,0,.386.312v.3h-5.9a3.693,3.693,0,0,1-.315-.982,11.067,11.067,0,0,1-.147-1.131c-.031-.378-.05-.74-.061-1.087s-.013-.63-.013-.848v-1.431a10.581,10.581,0,0,0-.089-1.488,2.363,2.363,0,0,0-.315-.94,1.171,1.171,0,0,0-.564-.475,2.352,2.352,0,0,0-.851-.134h-1.457v8.515h-5.541V397.178Zm-2.026,8.993a2.134,2.134,0,0,0,1.759-.7,2.84,2.84,0,0,0,.564-1.832,2.675,2.675,0,0,0-.551-1.906,2.428,2.428,0,0,0-1.8-.567h-1.071v5Z" transform="translate(-907.315 -396.761)" fill="#fff"/>
        <path id="Caminho_7630" data-name="Caminho 7630" d="M952.381,402.991a9.007,9.007,0,0,1,1.281-3.425,5.206,5.206,0,0,1,2.352-1.935,10.747,10.747,0,0,1,7.147,0,5.221,5.221,0,0,1,2.352,1.935,9.051,9.051,0,0,1,1.281,3.425,33.6,33.6,0,0,1,0,10.153,9.019,9.019,0,0,1-1.281,3.426,4.94,4.94,0,0,1-2.352,1.892,11.595,11.595,0,0,1-7.147,0,4.927,4.927,0,0,1-2.352-1.892,8.974,8.974,0,0,1-1.281-3.426,33.367,33.367,0,0,1,0-10.153Zm5.389,8.636a12.459,12.459,0,0,0,.255,2.247,2.2,2.2,0,0,0,.564,1.163,1.68,1.68,0,0,0,2,0,2.176,2.176,0,0,0,.567-1.163,12.725,12.725,0,0,0,.252-2.247q.059-1.414.061-3.559t-.061-3.559a12.755,12.755,0,0,0-.252-2.247,2.187,2.187,0,0,0-.567-1.163,1.692,1.692,0,0,0-2,0,2.206,2.206,0,0,0-.564,1.163,12.489,12.489,0,0,0-.255,2.247q-.059,1.417-.06,3.559T957.77,411.626Z" transform="translate(-887.167 -397.019)" fill="#fff"/>
        <path id="Caminho_7631" data-name="Caminho 7631" d="M972.706,397.178a6.806,6.806,0,0,1,3.751.879,5.441,5.441,0,0,1,2.01,2.352,10.04,10.04,0,0,1,.819,3.394q.149,1.921.15,4.005t-.15,4.006a10.04,10.04,0,0,1-.819,3.394,5.448,5.448,0,0,1-2.01,2.355,6.807,6.807,0,0,1-3.751.877h-8.04V397.178Zm-1.4,17.272a3.035,3.035,0,0,0,1.278-.223,1.523,1.523,0,0,0,.73-.937,7.584,7.584,0,0,0,.328-2.026q.075-1.311.076-3.454t-.076-3.454a7.542,7.542,0,0,0-.328-2.024,1.522,1.522,0,0,0-.73-.94,3.076,3.076,0,0,0-1.278-.223h-1.1V414.45Z" transform="translate(-866.574 -396.761)" fill="#fff"/>
        <path id="Caminho_7632" data-name="Caminho 7632" d="M982.751,412.515a3.366,3.366,0,0,0,.446,2.068,1.69,1.69,0,0,0,2.444,0,3.366,3.366,0,0,0,.446-2.068V397.178h5.539v13.935a12.465,12.465,0,0,1-.475,3.722,5.7,5.7,0,0,1-1.386,2.383,4.735,4.735,0,0,1-2.247,1.221,14.721,14.721,0,0,1-6.182,0,4.739,4.739,0,0,1-2.262-1.221,5.7,5.7,0,0,1-1.386-2.383,12.378,12.378,0,0,1-.475-3.722V397.178h5.538Z" transform="translate(-846.187 -396.761)" fill="#fff"/>
        <path id="Caminho_7633" data-name="Caminho 7633" d="M989.239,401.884v-4.706h13.817v4.706h-4.168V418.44h-5.539V401.884Z" transform="translate(-826.646 -396.761)" fill="#fff"/>
        <path id="Caminho_7634" data-name="Caminho 7634" d="M1001.255,402.991a9.007,9.007,0,0,1,1.281-3.425,5.207,5.207,0,0,1,2.352-1.935,10.747,10.747,0,0,1,7.147,0,5.221,5.221,0,0,1,2.352,1.935,9.051,9.051,0,0,1,1.281,3.425,33.576,33.576,0,0,1,0,10.153,9.019,9.019,0,0,1-1.281,3.426,4.94,4.94,0,0,1-2.352,1.892,11.6,11.6,0,0,1-7.147,0,4.928,4.928,0,0,1-2.352-1.892,8.974,8.974,0,0,1-1.281-3.426,33.367,33.367,0,0,1,0-10.153Zm5.389,8.636a12.463,12.463,0,0,0,.254,2.247,2.2,2.2,0,0,0,.564,1.163,1.68,1.68,0,0,0,1.995,0,2.175,2.175,0,0,0,.567-1.163,12.725,12.725,0,0,0,.252-2.247q.059-1.414.06-3.559t-.06-3.559a12.755,12.755,0,0,0-.252-2.247,2.185,2.185,0,0,0-.567-1.163,1.691,1.691,0,0,0-1.995,0,2.206,2.206,0,0,0-.564,1.163,12.492,12.492,0,0,0-.254,2.247q-.059,1.417-.061,3.559T1006.644,411.626Z" transform="translate(-807.752 -397.019)" fill="#fff"/>
        <path id="Caminho_7635" data-name="Caminho 7635" d="M1022.2,397.178a7.725,7.725,0,0,1,2.7.417,4.415,4.415,0,0,1,2.83,2.977,7.878,7.878,0,0,1,.312,2.263,6.2,6.2,0,0,1-.864,3.457,3.823,3.823,0,0,1-2.769,1.606v.06a3.314,3.314,0,0,1,2.738,1.4,6.435,6.435,0,0,1,.745,3.365v2.68c0,.3.011.58.032.85a6.153,6.153,0,0,0,.089.73,1.994,1.994,0,0,0,.147.5c.079.121.16.234.239.344a1.223,1.223,0,0,0,.386.312v.3h-5.9a3.6,3.6,0,0,1-.312-.982,11.144,11.144,0,0,1-.149-1.131c-.029-.378-.05-.74-.058-1.087s-.016-.63-.016-.848v-1.431a10.151,10.151,0,0,0-.089-1.488,2.4,2.4,0,0,0-.312-.94,1.189,1.189,0,0,0-.567-.475,2.344,2.344,0,0,0-.848-.134h-1.459v8.515h-5.539V397.178Zm-2.024,8.993a2.132,2.132,0,0,0,1.756-.7,2.825,2.825,0,0,0,.567-1.832,2.675,2.675,0,0,0-.551-1.906,2.435,2.435,0,0,0-1.8-.567h-1.071v5Z" transform="translate(-787.16 -396.761)" fill="#fff"/>
      </g>
    </g>
    <g id="Grupo_4306" data-name="Grupo 4306" transform="translate(1195.42 345.633)">
      <path id="Caminho_7636" data-name="Caminho 7636" d="M1028.071,342.391a54.645,54.645,0,1,0,54.645,54.645A54.646,54.646,0,0,0,1028.071,342.391Zm0,80.442a25.8,25.8,0,1,1,25.794-25.8A25.8,25.8,0,0,1,1028.071,422.833Z" transform="translate(-972.846 -341.803)" fill="url(#linear-gradient-2)"/>
      <path id="Caminho_7637" data-name="Caminho 7637" d="M982.105,372.189a14.42,14.42,0,0,0-.58,20.377h0l.013.013a54.641,54.641,0,0,0,77.248,2.147c.155-.147.3-.3.457-.444l-19.831-20.962c-.15.15-.294.3-.449.446a25.8,25.8,0,0,1-36.467-1.01l-.013-.013h0A14.422,14.422,0,0,0,982.105,372.189Z" transform="translate(-966.078 -299.795)" fill="url(#linear-gradient-3)"/>
      <path id="Caminho_7638" data-name="Caminho 7638" d="M989.493,406.254a14.426,14.426,0,0,0,15.138,13.657h0l.016,0a54.643,54.643,0,0,0,51.731-57.411c-.01-.21-.029-.423-.042-.633l-28.819,1.5c.019.213.039.423.05.635a25.8,25.8,0,0,1-24.419,27.1h-.018A14.426,14.426,0,0,0,989.493,406.254Z" transform="translate(-946.771 -310.16)" fill="url(#linear-gradient-4)"/>
      <path id="Caminho_7639" data-name="Caminho 7639" d="M1004.607,426.167a14.424,14.424,0,0,0,20.369-.832h0l.01-.013a54.642,54.642,0,0,0-3.195-77.211c-.157-.144-.315-.283-.472-.425l-19.545,21.23c.16.142.32.276.478.42a25.8,25.8,0,0,1,1.509,36.449l-.013.013h0A14.427,14.427,0,0,0,1004.607,426.167Z" transform="translate(-929.743 -333.199)" fill="url(#linear-gradient-5)"/>
      <path id="Caminho_7640" data-name="Caminho 7640" d="M1034.858,411.462a14.426,14.426,0,0,0,14.424-14.408h0v-.018a54.646,54.646,0,0,0-54.645-54.645c-.213,0-.423.008-.635.008v28.858c.213-.005.423-.016.635-.016a25.8,25.8,0,0,1,25.794,25.795v.018h0A14.427,14.427,0,0,0,1034.858,411.462Z" transform="translate(-939.413 -341.803)" fill="url(#linear-gradient-6)"/>
      <path id="Caminho_7641" data-name="Caminho 7641" d="M1057.076,378.795a14.421,14.421,0,0,0,.013-20.385h0l-.013-.013a54.644,54.644,0,0,0-77.279,0c-.15.15-.294.3-.444.454l20.406,20.406c.147-.155.289-.31.438-.462a25.8,25.8,0,0,1,36.481,0l.013.013h0A14.421,14.421,0,0,0,1057.076,378.795Z" transform="translate(-963.214 -341.802)" fill="url(#linear-gradient-7)"/>
      <path id="Caminho_7642" data-name="Caminho 7642" d="M1042.494,356.817a14.421,14.421,0,0,0-14.406-14.424v0h-.018a54.646,54.646,0,0,0-54.645,54.645c0,.213.005.425.008.635h28.858c-.005-.21-.016-.423-.016-.635a25.8,25.8,0,0,1,25.795-25.795h.018A14.424,14.424,0,0,0,1042.494,356.817Z" transform="translate(-972.846 -341.803)" fill="#da000d"/>
      <g id="Grupo_4301" data-name="Grupo 4301">
        <g id="Grupo_4300" data-name="Grupo 4300" style="mix-blend-mode: multiply;isolation: isolate">
          <path id="Caminho_7643" data-name="Caminho 7643" d="M1028.445,345.343a52.068,52.068,0,1,1-36.814,15.25,51.718,51.718,0,0,1,36.814-15.25m0-3.176a55.239,55.239,0,1,0,55.238,55.241,55.24,55.24,0,0,0-55.238-55.241Z" transform="translate(-973.205 -342.167)" fill="url(#radial-gradient)"/>
        </g>
      </g>
      <g id="Grupo_4303" data-name="Grupo 4303" transform="translate(2.071 2.323)">
        <g id="Grupo_4302" data-name="Grupo 4302" opacity="0.2" style="mix-blend-mode: soft-light;isolation: isolate">
          <path id="Caminho_7644" data-name="Caminho 7644" d="M1026.906,370.135a25.828,25.828,0,1,1-18.261,7.565,25.664,25.664,0,0,1,18.261-7.565m0-27.083a52.911,52.911,0,1,0,52.91,52.91,52.911,52.911,0,0,0-52.91-52.91Z" transform="translate(-973.994 -343.052)" fill="url(#radial-gradient-2)"/>
        </g>
      </g>
      <g id="Grupo_4305" data-name="Grupo 4305" transform="translate(1.69 1.94)">
        <g id="Grupo_4304" data-name="Grupo 4304" style="mix-blend-mode: soft-light;isolation: isolate">
          <path id="Caminho_7645" data-name="Caminho 7645" d="M1027.142,353.419A42.78,42.78,0,1,1,996.89,365.95a42.5,42.5,0,0,1,30.251-12.531m0-10.513a53.293,53.293,0,1,0,53.293,53.293,53.293,53.293,0,0,0-53.293-53.293Z" transform="translate(-973.849 -342.906)" fill="url(#radial-gradient-3)"/>
        </g>
      </g>
    </g>
    <g id="Grupo_4307" data-name="Grupo 4307" transform="translate(836.447 340.034)">
      <path id="Caminho_7646" data-name="Caminho 7646" d="M836.447,417.427h10.946v4.126c0,17.13,10.311,23.317,20.461,23.317,9.835,0,20.3-5.712,20.3-23V351.44H860.874v-9.835H899.1v80.266c0,24.109-16.02,33.15-31.407,33.15-15.227,0-31.249-9.2-31.249-33.15Z" transform="translate(-836.447 -337.481)" fill="#2e2e2d"/>
      <path id="Caminho_7647" data-name="Caminho 7647" d="M864.213,341.605h11.1V414.1c0,19.2,12.374,30.774,31.567,30.774s31.724-11.578,31.724-31.089V341.605h10.946v72.651c0,24.745-17.29,40.764-42.512,40.764-25.38,0-42.827-16.02-42.827-40.764Z" transform="translate(-791.331 -337.481)" fill="#2e2e2d"/>
      <path id="Caminho_7648" data-name="Caminho 7648" d="M900.493,341.605h10.625l56.947,80.266c3.809,5.552,9.2,15.067,9.2,15.067h.318s-.953-9.2-.953-15.067V341.605h10.946V453.118H976.95L920,372.854c-3.809-5.552-9.2-15.069-9.2-15.069h-.318s.95,9.2.95,15.069v80.263H900.493Z" transform="translate(-732.38 -337.481)" fill="#2e2e2d"/>
      <path id="Caminho_7649" data-name="Caminho 7649" d="M976.994,351.44H936.86v-9.835h91.052v9.835H987.938V453.118H976.994Z" transform="translate(-673.288 -337.481)" fill="#2e2e2d"/>
      <path id="Caminho_7650" data-name="Caminho 7650" d="M1026.367,433.517s11.581,12.214,29.188,12.214c12.214,0,22.207-7.3,22.207-19.353,0-28.076-55.676-20.939-55.676-55.516,0-16.022,14.117-29.981,34.738-29.981,19.353,0,29.821,10.788,29.821,10.788l-5.391,9.2s-9.835-9.515-24.43-9.515c-14.277,0-23.477,9.358-23.477,19.193,0,26.49,55.679,18.875,55.679,55.519,0,16.655-12.849,30.136-33.788,30.136-22.842,0-35.375-14.274-35.375-14.274Z" transform="translate(-538.42 -338.659)" fill="#2e2e2d"/>
      <path id="Caminho_7651" data-name="Caminho 7651" d="M1092.748,400.873a60.838,60.838,0,1,1-60.837-60.839A60.838,60.838,0,0,1,1092.748,400.873Zm-3.5,0a57.339,57.339,0,1,0-16.794,40.544A56.964,56.964,0,0,0,1089.249,400.873Z" transform="translate(-617.698 -340.034)" fill="#2e2e2d"/>
    </g>
  </g>
</svg>
