<svg id="Componente_1_1" data-name="Componente 1 – 1" xmlns="http://www.w3.org/2000/svg" xmlns:xlink="http://www.w3.org/1999/xlink" width="233.729" height="168.816" viewBox="0 0 233.729 168.816">
  <defs>
    <linearGradient id="linear-gradient" x1="-0.209" y1="-0.114" x2="1.586" y2="1.441" gradientUnits="objectBoundingBox">
      <stop offset="0.003" stop-color="#786860"/>
      <stop offset="0.354" stop-color="#796962"/>
      <stop offset="0.508" stop-color="#7f7069"/>
      <stop offset="0.623" stop-color="#897c75"/>
      <stop offset="0.72" stop-color="#988c87"/>
      <stop offset="0.804" stop-color="#aba19f"/>
      <stop offset="0.88" stop-color="#c2bcbb"/>
      <stop offset="0.948" stop-color="#dddadd"/>
      <stop offset="1" stop-color="#f6f7fc"/>
    </linearGradient>
  </defs>
  <g id="Grupo_3244" data-name="Grupo 3244" transform="translate(224.651 27.063)">
    <g id="Grupo_3243" data-name="Grupo 3243">
      <g id="Grupo_3242" data-name="Grupo 3242">
        <path id="Caminho_5266" data-name="Caminho 5266" d="M808,169.847a1.781,1.781,0,1,1-2.276,1.08A1.784,1.784,0,0,1,808,169.847Zm-1.028,2.885a1.281,1.281,0,1,0-.777-1.637A1.283,1.283,0,0,0,806.973,172.733Z" transform="translate(-805.621 -169.744)" fill="#5e7ae4"/>
      </g>
    </g>
  </g>
  <g id="Grupo_3249" data-name="Grupo 3249" transform="translate(200.423 25.666)">
    <g id="Grupo_3245" data-name="Grupo 3245" transform="translate(1.551 0.732)">
      <path id="Caminho_5267" data-name="Caminho 5267" d="M762.028,168.934l-.6.193a.271.271,0,1,1-.166-.517l.6-.193a.272.272,0,0,1,.166.517Z" transform="translate(-761.07 -168.403)" fill="#5e7ae4"/>
    </g>
    <g id="Grupo_3246" data-name="Grupo 3246" transform="translate(0 1.229)">
      <path id="Caminho_5268" data-name="Caminho 5268" d="M758.9,169.935l-.6.193a.271.271,0,0,1-.166-.517l.6-.194a.272.272,0,0,1,.166.518Z" transform="translate(-757.944 -169.405)" fill="#5e7ae4"/>
    </g>
    <g id="Grupo_3247" data-name="Grupo 3247" transform="translate(1.229 1.552)">
      <path id="Caminho_5269" data-name="Caminho 5269" d="M760.969,171.188a.272.272,0,0,1-.342-.176l-.193-.6a.271.271,0,1,1,.516-.166l.194.6A.271.271,0,0,1,760.969,171.188Z" transform="translate(-760.421 -170.055)" fill="#5e7ae4"/>
    </g>
    <g id="Grupo_3248" data-name="Grupo 3248" transform="translate(0.732)">
      <path id="Caminho_5270" data-name="Caminho 5270" d="M759.967,168.061a.271.271,0,0,1-.341-.176l-.193-.6a.271.271,0,1,1,.517-.165l.193.6A.271.271,0,0,1,759.967,168.061Z" transform="translate(-759.419 -166.928)" fill="#5e7ae4"/>
    </g>
  </g>
  <g id="Grupo_3254" data-name="Grupo 3254" transform="translate(181.304 44.691)">
    <g id="Grupo_3250" data-name="Grupo 3250" transform="translate(0 1.211)">
      <path id="Caminho_5271" data-name="Caminho 5271" d="M720.431,208.126l.518-.366a.271.271,0,0,1,.313.444l-.518.366a.272.272,0,0,1-.314-.444Z" transform="translate(-720.316 -207.711)" fill="#3cd3b6"/>
    </g>
    <g id="Grupo_3251" data-name="Grupo 3251" transform="translate(1.331 0.271)">
      <path id="Caminho_5272" data-name="Caminho 5272" d="M723.112,206.231l.517-.365a.271.271,0,1,1,.314.443l-.518.366a.272.272,0,1,1-.314-.444Z" transform="translate(-722.998 -205.816)" fill="#3cd3b6"/>
    </g>
    <g id="Grupo_3252" data-name="Grupo 3252" transform="translate(0.272)">
      <path id="Caminho_5273" data-name="Caminho 5273" d="M720.978,205.319a.272.272,0,0,1,.379.065l.366.518a.271.271,0,1,1-.444.313l-.366-.518A.272.272,0,0,1,720.978,205.319Z" transform="translate(-720.863 -205.27)" fill="#3cd3b6"/>
    </g>
    <g id="Grupo_3253" data-name="Grupo 3253" transform="translate(1.211 1.331)">
      <path id="Caminho_5274" data-name="Caminho 5274" d="M722.872,208a.272.272,0,0,1,.379.065l.365.518a.271.271,0,0,1-.444.313l-.366-.518A.271.271,0,0,1,722.872,208Z" transform="translate(-722.757 -207.951)" fill="#3cd3b6"/>
    </g>
  </g>
  <g id="Grupo_3255" data-name="Grupo 3255" transform="translate(230.714 50.456)">
    <path id="Caminho_5275" data-name="Caminho 5275" d="M817.916,219.37a1.508,1.508,0,1,1,2.126.174A1.51,1.51,0,0,1,817.916,219.37Zm1.8-1.523a.846.846,0,1,0-.1,1.193A.848.848,0,0,0,819.712,217.847Z" transform="translate(-817.559 -216.887)" fill="#4b3f37"/>
  </g>
  <g id="Grupo_3259" data-name="Grupo 3259" transform="translate(162.346 14.475)">
    <g id="Grupo_3256" data-name="Grupo 3256" transform="translate(28.632 27.419)">
      <path id="Caminho_5276" data-name="Caminho 5276" d="M740.095,221.362l1.944-10.745c.034.029.07.052.1.081,1.1.963,2.091,2.01,3.1,3.008a.4.4,0,0,0,.1.193,6.408,6.408,0,0,1,1.842,2.907c.2.838.22,1.7.436,2.534a6.9,6.9,0,0,0,4.9,5.292.393.393,0,0,0,.193-.762c-2.815-.681-4.221-3.326-4.584-6.027a7.977,7.977,0,0,0-.532-2.04,11.74,11.74,0,0,0,3.453,1.875c.481.16.673-.6.193-.764-3.854-1.282-6.068-4.679-9.046-7.2l0-.019a8.074,8.074,0,0,0,2.271-.156c1.87-.394,4.015-1.84,5.8-.457.4.306.957-.246.557-.556-1.482-1.146-3.085-.849-4.755-.3a10.8,10.8,0,0,1-3.725.642l1.671-9.236c2.51.82,5.267-1.075,10.249,5.3,2.235,2.857,7.135,9.663,9.249,10.72,2.066.877,6.361,3.373,5.88,5.774-.8,3.98-6.3,2.175-8.473,3.613-7.878,5.209-15.9.4-18.565-2A13.855,13.855,0,0,0,740.095,221.362Z" transform="translate(-740.095 -199.632)" fill="#fbda70"/>
      <path id="Caminho_5277" data-name="Caminho 5277" d="M744.348,217.928l.15-.827a10.8,10.8,0,0,0,3.725-.642c1.67-.549,3.273-.847,4.755.3.4.31-.162.862-.557.556-1.787-1.383-3.932.064-5.8.457A8.073,8.073,0,0,1,744.348,217.928Z" transform="translate(-742.238 -207.865)" fill="#fff"/>
      <path id="Caminho_5278" data-name="Caminho 5278" d="M749.6,229.577c-.216-.837-.241-1.7-.436-2.534a6.406,6.406,0,0,0-1.842-2.907.4.4,0,0,1-.1-.193c-1.013-1-2-2.045-3.1-3.008-.034-.029-.07-.053-.1-.081l.163-.9c2.978,2.522,5.191,5.919,9.046,7.2.48.161.288.923-.193.764a11.743,11.743,0,0,1-3.453-1.875,7.973,7.973,0,0,1,.532,2.04c.364,2.7,1.769,5.346,4.584,6.027a.393.393,0,0,1-.193.762A6.9,6.9,0,0,1,749.6,229.577Z" transform="translate(-742.068 -209.869)" fill="#fff"/>
    </g>
    <g id="Grupo_3257" data-name="Grupo 3257" transform="translate(9.038 3.286)">
      <path id="Caminho_5279" data-name="Caminho 5279" d="M755.793,166.577c-4.111,8.5-13.464,8.461-16.979,7.768-8.1-1.6-10.642,3.989-11.427,6.358a9.766,9.766,0,0,1-3.174,3.962l-16.689-10.4c.7-.217,1.392-.442,2.073-.681a21.465,21.465,0,0,0,5.038-2.594c.361-.248.708-.513,1.047-.787a.391.391,0,0,0,.181-.107c.11-.113.223-.218.335-.321l.179-.151c3.826-3.227,8.91-.433,10.695,3.845.194.462.951.247.757-.222a9.617,9.617,0,0,0-5.318-5.437,6.529,6.529,0,0,0-3.889-.231c.279-.257.561-.513.847-.761,1.574-1.369,3.96-1.922,5.933-2.479a18.738,18.738,0,0,1,2.914-.588.3.3,0,0,0,.042.006,7.545,7.545,0,0,0,1.39-.1,12.679,12.679,0,0,1,2.569.2c1.438.266,2.823.659,4.2,1a.392.392,0,0,0,.188.113,6.4,6.4,0,0,1,3.069,1.559c.6.62,1.056,1.347,1.67,1.955a6.9,6.9,0,0,0,6.914,2.049.393.393,0,0,0-.224-.754c-2.768.852-5.327-.7-7.02-2.84a7.993,7.993,0,0,0-1.5-1.483,11.732,11.732,0,0,0,3.926-.151c.5-.109.27-.862-.224-.755-3.969.867-7.608-.923-11.456-1.569a.147.147,0,0,1-.03,0,8.122,8.122,0,0,0,1.9-1.308c1.407-1.294,2.512-3.633,4.755-3.357.5.062.7-.7.195-.763-1.86-.227-3.086.848-4.24,2.173a8.586,8.586,0,0,1-4.675,3.127,19.573,19.573,0,0,0-3.572.486,25.947,25.947,0,0,0-5.525,1.8,19.115,19.115,0,0,0-4.584,3.719,7.647,7.647,0,0,0-.736.657,20.1,20.1,0,0,1-4.748,2.845,25.841,25.841,0,0,1-3.105,1.077,8.753,8.753,0,0,0,2.406-5.634,8.267,8.267,0,0,0-.258-2.464,24.942,24.942,0,0,1-1.089-3.458c-.275-2.7,2.681-3.554,4.539-4.545.448-.239.036-.91-.409-.673-1.588.848-3.386,1.38-4.374,3-1.232,2.008.019,3.934.577,5.9a7.53,7.53,0,0,1-2.67,7.9l-5.59-3.485a18.534,18.534,0,0,1,3.329-11.841c8.965-11.953,17.318-5.414,23-4.686,3.615.463,4.122-4.134,12.842-.743,3.381,1.314,11.071,4.662,13.428,4.491,2.224-.3,7.191-.35,8,1.96C762.579,162.97,756.925,164.231,755.793,166.577Z" transform="translate(-700.607 -150.997)" fill="#ff9975"/>
      <path id="Caminho_5280" data-name="Caminho 5280" d="M742.7,178.432a12.714,12.714,0,0,0-4.939,2.2c-.285.248-.568.5-.847.761a6.528,6.528,0,0,1,3.889.231,7.767,7.767,0,0,1,1.272.62c.047-.184.095-.377.149-.6A16.721,16.721,0,0,0,742.7,178.432Z" transform="translate(-718.898 -164.819)" fill="#225d6b"/>
      <path id="Caminho_5281" data-name="Caminho 5281" d="M726.04,192.954a25.914,25.914,0,0,0-2.839,4.191l-8.654-5.395c.7-.217,1.392-.442,2.073-.681a21.464,21.464,0,0,0,5.038-2.594c.361-.248.708-.513,1.048-.787a.391.391,0,0,0,.181-.107c.11-.113.223-.218.335-.321l.179-.151a5.854,5.854,0,0,1,7.166-.333,6.341,6.341,0,0,1-1.043,2.006C728.507,190.264,727.189,191.573,726.04,192.954Z" transform="translate(-707.63 -168.486)" fill="#225d6b"/>
      <path id="Caminho_5282" data-name="Caminho 5282" d="M716.083,168.841a7.645,7.645,0,0,0-.736.657,20.1,20.1,0,0,1-4.748,2.845,25.833,25.833,0,0,1-3.105,1.077,8.753,8.753,0,0,0,2.406-5.634,8.267,8.267,0,0,0-.258-2.464,24.942,24.942,0,0,1-1.089-3.458c-.275-2.7,2.681-3.554,4.539-4.545.448-.239.036-.91-.409-.673-1.588.848-3.386,1.38-4.374,3-1.232,2.008.019,3.934.577,5.9a7.53,7.53,0,0,1-2.67,7.9l-5.59-3.485a18.534,18.534,0,0,1,3.329-11.841c6.683-8.909,13.024-7.545,18.176-5.97.776,3.106,1.581,6.207,2.092,9.373a15.293,15.293,0,0,1,.2,2.245,22.974,22.974,0,0,0-3.754,1.354A19.115,19.115,0,0,0,716.083,168.841Z" transform="translate(-700.607 -150.997)" fill="#4b3f37"/>
      <path id="Caminho_5283" data-name="Caminho 5283" d="M747.14,174.161c-.614-.608-1.074-1.335-1.67-1.955a6.4,6.4,0,0,0-3.068-1.559.392.392,0,0,1-.188-.113c-1.382-.341-2.767-.734-4.2-1a12.679,12.679,0,0,0-2.569-.2,7.542,7.542,0,0,1-1.39.1.309.309,0,0,1-.042-.006,18.736,18.736,0,0,0-2.914.588c-1.973.557-4.359,1.111-5.933,2.479-.285.248-.568.5-.847.761a6.529,6.529,0,0,1,3.889.231,9.617,9.617,0,0,1,5.318,5.437c.194.469-.563.684-.757.222-1.785-4.278-6.869-7.071-10.695-3.845l-.179.151c-.112.1-.225.208-.335.321a.391.391,0,0,1-.181.107c-.339.274-.687.539-1.047.787a21.463,21.463,0,0,1-5.038,2.594c-.681.239-1.375.464-2.073.681l-1.309-.815a7.53,7.53,0,0,0,2.67-7.9c-.558-1.969-1.809-3.895-.577-5.9.988-1.615,2.786-2.147,4.374-3,.446-.237.857.434.409.673-1.857.99-4.814,1.849-4.539,4.545a24.958,24.958,0,0,0,1.089,3.458,8.269,8.269,0,0,1,.259,2.464,8.753,8.753,0,0,1-2.407,5.634,25.838,25.838,0,0,0,3.105-1.077,20.1,20.1,0,0,0,4.748-2.845,7.653,7.653,0,0,1,.736-.657,19.116,19.116,0,0,1,4.584-3.719,25.948,25.948,0,0,1,5.525-1.8,19.573,19.573,0,0,1,3.572-.486,8.586,8.586,0,0,0,4.675-3.127c1.154-1.325,2.38-2.4,4.24-2.173.5.063.3.825-.195.763-2.243-.275-3.348,2.064-4.755,3.357a8.121,8.121,0,0,1-1.9,1.308.15.15,0,0,0,.03,0c3.848.646,7.487,2.436,11.456,1.569.495-.107.72.647.224.755a11.731,11.731,0,0,1-3.926.151,8,8,0,0,1,1.5,1.483c1.693,2.137,4.251,3.692,7.02,2.84a.393.393,0,0,1,.224.754A6.9,6.9,0,0,1,747.14,174.161Z" transform="translate(-706.301 -156.683)" fill="#fff"/>
    </g>
    <g id="Grupo_3258" data-name="Grupo 3258" transform="translate(0 0)">
      <path id="Caminho_5284" data-name="Caminho 5284" d="M701.677,173l-8.4-5.234c.581-.386,1.165-.761,1.74-1.144a.39.39,0,0,0,.21-.062,6.4,6.4,0,0,1,3.22-1.213c.859-.021,1.706.129,2.57.086a6.9,6.9,0,0,0,6.176-3.723.394.394,0,0,0-.708-.343c-1.238,2.619-4.113,3.459-6.832,3.267a7.984,7.984,0,0,0-2.106.107,11.734,11.734,0,0,0,2.537-3c.254-.44-.454-.782-.708-.344-1.594,2.749-4.251,4.254-6.8,5.93l-1.8-1.123c-.1-1.851-.88-4.06.739-5.446.38-.326-.047-.987-.432-.659-1.422,1.22-1.456,2.85-1.257,4.6.037.326.062.648.08.968l-7.511-4.682c.743-1.509,2.228-3.18,5.864-4.979,3.251-1.609,10.909-5.028,12.372-6.883,1.278-1.845,4.593-5.546,6.846-4.587,3.736,1.587.853,6.611,1.821,9.03,3.5,8.77-2.836,15.647-5.719,17.774A14.18,14.18,0,0,0,701.677,173Z" transform="translate(-682.392 -144.374)" fill="#fbda70"/>
      <path id="Caminho_5285" data-name="Caminho 5285" d="M698.228,182.077l-.869-.542c-.018-.32-.043-.642-.08-.968-.2-1.746-.165-3.376,1.257-4.6.385-.328.811.333.432.659C697.348,178.017,698.129,180.226,698.228,182.077Z" transform="translate(-689.848 -160.248)" fill="#fff"/>
      <path id="Caminho_5286" data-name="Caminho 5286" d="M711.357,182.464c-.863.042-1.711-.108-2.57-.086a6.4,6.4,0,0,0-3.22,1.213.39.39,0,0,1-.21.062c-.575.383-1.158.759-1.74,1.144l-.706-.44c2.554-1.676,5.211-3.181,6.8-5.93.255-.438.962-.1.708.344a11.735,11.735,0,0,1-2.537,3,7.986,7.986,0,0,1,2.106-.107c2.719.192,5.594-.648,6.832-3.267a.393.393,0,0,1,.708.343A6.9,6.9,0,0,1,711.357,182.464Z" transform="translate(-692.729 -161.406)" fill="#fff"/>
    </g>
  </g>
  <g id="Grupo_3264" data-name="Grupo 3264" transform="translate(0 22.388)">
    <g id="Grupo_3260" data-name="Grupo 3260" transform="translate(21.07 0)">
      <path id="Caminho_5287" data-name="Caminho 5287" d="M436.383,172.284l-5.726,10.394c-.024-.041-.054-.078-.078-.12-.8-1.373-1.457-2.794-2.155-4.174a.428.428,0,0,0-.04-.235,6.964,6.964,0,0,1-.89-3.633c.09-.93.362-1.825.429-2.761a7.5,7.5,0,0,0-3.21-7.148.427.427,0,0,0-.463.718c2.664,1.677,3.2,4.888,2.634,7.8a8.66,8.66,0,0,0-.159,2.286,12.746,12.746,0,0,0-2.907-3.127c-.441-.332-.9.387-.464.719,3.527,2.656,4.63,6.922,6.823,10.551l-.01.018a8.784,8.784,0,0,0-2.393-.626c-2.063-.243-4.773.5-6.135-1.54-.3-.453-1.071-.078-.767.38,1.13,1.694,2.884,1.943,4.794,1.956a11.756,11.756,0,0,1,4.06.63l-4.922,8.935c-2.3-1.714-5.8-.717-8.722-9.008-1.312-3.717-4-12.426-5.812-14.247-1.824-1.619-5.383-5.679-4.056-7.985,2.2-3.823,7.245-.058,9.98-.786,9.92-2.636,16.513,5.1,18.431,8.489A15.123,15.123,0,0,0,436.383,172.284Z" transform="translate(-405.923 -160.321)" fill="#fbda70"/>
      <path id="Caminho_5288" data-name="Caminho 5288" d="M445.273,204.768l-.441.8a11.755,11.755,0,0,0-4.06-.63c-1.91-.013-3.664-.262-4.794-1.956-.3-.458.466-.833.767-.38,1.361,2.044,4.072,1.3,6.135,1.54A8.785,8.785,0,0,1,445.273,204.768Z" transform="translate(-421.03 -181.519)" fill="#fff"/>
      <path id="Caminho_5289" data-name="Caminho 5289" d="M445.441,176.038c-.067.937-.339,1.831-.429,2.761a6.964,6.964,0,0,0,.89,3.633.428.428,0,0,1,.04.235c.7,1.38,1.355,2.8,2.155,4.174.024.042.054.079.078.12l-.48.873c-2.193-3.629-3.3-7.9-6.823-10.551-.439-.332.023-1.051.464-.719a12.747,12.747,0,0,1,2.907,3.127,8.66,8.66,0,0,1,.159-2.286c.561-2.909.03-6.12-2.634-7.8a.427.427,0,0,1,.463-.718A7.5,7.5,0,0,1,445.441,176.038Z" transform="translate(-423.441 -164.603)" fill="#fff"/>
    </g>
    <g id="Grupo_3261" data-name="Grupo 3261" transform="translate(0 8.792)">
      <path id="Caminho_5290" data-name="Caminho 5290" d="M373.8,179.277c10.017-2.234,16.293,5.763,18.073,9.225,4.1,7.978,10.578,6.375,13.127,5.446a10.611,10.611,0,0,1,5.517.031l2.4,21.237c-.655-.448-1.315-.888-1.979-1.307a23.345,23.345,0,0,0-5.609-2.542c-.454-.14-.915-.257-1.378-.361a.416.416,0,0,0-.213-.082c-.17-.017-.336-.042-.5-.068l-.25-.05c-5.33-1.082-6.38-7.3-3.939-11.706.263-.476-.432-.977-.7-.494a10.45,10.45,0,0,0-1.044,8.2,7.092,7.092,0,0,0,2.426,3.469c-.407-.064-.815-.132-1.22-.208-2.227-.417-4.309-2.077-6.115-3.382a20.393,20.393,0,0,1-2.467-2.086c-.007-.013-.014-.027-.023-.04a8.194,8.194,0,0,0-1.027-1.114,13.812,13.812,0,0,1-1.561-2.325c-.743-1.4-1.343-2.85-1.984-4.258a.422.422,0,0,0-.03-.236,6.955,6.955,0,0,1-.742-3.666c.127-.925.436-1.809.539-2.742a7.5,7.5,0,0,0-2.92-7.273.428.428,0,0,0-.491.7c2.595,1.783,3,5.013,2.317,7.9a8.675,8.675,0,0,0-.251,2.278,12.748,12.748,0,0,0-2.778-3.243c-.427-.349-.917.351-.492.7,3.417,2.8,4.347,7.1,6.392,10.819a.15.15,0,0,1,.017.028,8.849,8.849,0,0,0-2.394-.734c-2.051-.326-4.79.311-6.069-1.786-.282-.464-1.066-.121-.781.349,1.061,1.738,2.8,2.057,4.712,2.147a9.33,9.33,0,0,1,5.818,1.873A21.241,21.241,0,0,0,391,206.69a28.2,28.2,0,0,0,5.258,3.5,20.793,20.793,0,0,0,6.262,1.4,8.361,8.361,0,0,0,1.057.184,21.841,21.841,0,0,1,5.627,2.126,28.1,28.1,0,0,1,3.013,1.919,9.516,9.516,0,0,0-6.424,1.751,8.984,8.984,0,0,0-1.925,1.883c-.807,1.047-1.249,2.326-2.211,3.26-2.111,2.054-4.838.114-6.935-.8-.505-.221-.8.583-.3.8,1.793.781,3.46,1.954,5.5,1.706,2.542-.306,3.338-2.67,4.64-4.474a8.182,8.182,0,0,1,8.532-3.056l.8,7.115a20.142,20.142,0,0,1-12.335,5.152c-16.232.426-16.3-11.1-19.512-16.436-2.045-3.392-6.3-.722-9.3-10.44-1.161-3.767-3.5-12.578-5.233-14.47-1.757-1.692-5.151-5.891-3.731-8.143C366.152,175.929,371.04,179.9,373.8,179.277Z" transform="translate(-363.461 -178.039)" fill="#ff9975"/>
      <path id="Caminho_5291" data-name="Caminho 5291" d="M399.446,195.122c-.1.933-.412,1.816-.539,2.742a6.954,6.954,0,0,0,.742,3.666.423.423,0,0,1,.03.236c.642,1.408,1.242,2.854,1.984,4.258a13.818,13.818,0,0,0,1.561,2.325,8.19,8.19,0,0,1,1.027,1.114.458.458,0,0,1,.023.04,20.385,20.385,0,0,0,2.467,2.086c1.806,1.305,3.887,2.964,6.115,3.382.4.076.812.144,1.22.208a7.093,7.093,0,0,1-2.426-3.469,10.45,10.45,0,0,1,1.045-8.2c.268-.482.963.018.7.494-2.441,4.407-1.39,10.624,3.939,11.706l.25.05c.163.026.329.052.5.068a.417.417,0,0,1,.213.082c.463.1.923.221,1.378.361a23.345,23.345,0,0,1,5.609,2.542c.663.419,1.323.859,1.979,1.307l.188,1.665a8.182,8.182,0,0,0-8.532,3.056c-1.3,1.8-2.1,4.168-4.64,4.474-2.043.248-3.71-.925-5.5-1.706-.5-.22-.208-1.024.3-.8,2.1.913,4.824,2.854,6.935.8.962-.934,1.4-2.214,2.211-3.26a8.983,8.983,0,0,1,1.925-1.883,9.516,9.516,0,0,1,6.424-1.751,28.1,28.1,0,0,0-3.013-1.919,21.84,21.84,0,0,0-5.627-2.126,8.359,8.359,0,0,1-1.057-.184,20.791,20.791,0,0,1-6.262-1.4,28.2,28.2,0,0,1-5.258-3.5,21.237,21.237,0,0,1-2.823-2.715A9.33,9.33,0,0,0,396.708,207c-1.908-.09-3.651-.409-4.712-2.147-.285-.47.5-.813.782-.349,1.278,2.1,4.017,1.46,6.069,1.786a8.849,8.849,0,0,1,2.394.734.157.157,0,0,0-.017-.028c-2.045-3.715-2.975-8.023-6.392-10.819-.425-.349.065-1.049.492-.7a12.749,12.749,0,0,1,2.778,3.243,8.676,8.676,0,0,1,.251-2.278c.679-2.884.277-6.114-2.317-7.9a.428.428,0,0,1,.491-.7A7.5,7.5,0,0,1,399.446,195.122Z" transform="translate(-377.806 -182.942)" fill="#fff"/>
    </g>
    <g id="Grupo_3262" data-name="Grupo 3262" transform="translate(49.309 35.317)">
      <path id="Caminho_5292" data-name="Caminho 5292" d="M466.771,238.553a3.539,3.539,0,1,0-3.915-3.12A3.539,3.539,0,0,0,466.771,238.553Z" transform="translate(-462.833 -231.496)" fill="none"/>
    </g>
    <g id="Grupo_3263" data-name="Grupo 3263" transform="translate(49.541 39.367)" style="mix-blend-mode: multiply;isolation: isolate">
      <path id="Caminho_5293" data-name="Caminho 5293" d="M465.946,240.025a2.524,2.524,0,0,1-2.645.372,3.53,3.53,0,0,0,5.256,1.7,8.963,8.963,0,0,0-.961-1.226,4.517,4.517,0,0,0-1.057-.969c-.179-.087-.179-.188-.155-.247A3.3,3.3,0,0,1,465.946,240.025Z" transform="translate(-463.301 -239.658)" fill="none"/>
    </g>
  </g>
  <path id="Caminho_5294" data-name="Caminho 5294" d="M439.965,176.455a6.338,6.338,0,0,0-.808-.054C438.179,176.4,438.568,176.421,439.965,176.455Z" transform="translate(-401.323 -146.034)" fill="#aacaf9" style="mix-blend-mode: multiply;isolation: isolate"/>
  <g id="Grupo_3267" data-name="Grupo 3267" transform="translate(104.207)">
    <g id="Grupo_3266" data-name="Grupo 3266">
      <g id="Grupo_3265" data-name="Grupo 3265">
        <path id="Caminho_5295" data-name="Caminho 5295" d="M573.97,117.285a1.139,1.139,0,1,1,1.582-.305A1.142,1.142,0,0,1,573.97,117.285Zm1-1.473a.639.639,0,1,0,.171.888A.641.641,0,0,0,574.967,115.812Z" transform="translate(-573.47 -115.203)" fill="#786860"/>
      </g>
    </g>
  </g>
  <path id="Caminho_5296" data-name="Caminho 5296" d="M709.816,135.24a1.084,1.084,0,1,0-.729-1.349A1.084,1.084,0,0,0,709.816,135.24Z" transform="translate(-537.564 -124.228)" fill="#786860"/>
  <g id="Grupo_3272" data-name="Grupo 3272" transform="translate(60.153 38.68)">
    <g id="Grupo_3268" data-name="Grupo 3268" transform="translate(0 0.169)">
      <path id="Caminho_5297" data-name="Caminho 5297" d="M485.13,193.557l.493.4a.272.272,0,0,1-.341.423l-.493-.4a.272.272,0,0,1,.341-.422Z" transform="translate(-484.688 -193.497)" fill="#f7c651"/>
    </g>
    <g id="Grupo_3269" data-name="Grupo 3269" transform="translate(1.267 1.193)">
      <path id="Caminho_5298" data-name="Caminho 5298" d="M487.684,195.62l.493.4a.271.271,0,0,1-.341.422l-.493-.4a.272.272,0,1,1,.341-.423Z" transform="translate(-487.242 -195.559)" fill="#f7c651"/>
    </g>
    <g id="Grupo_3270" data-name="Grupo 3270" transform="translate(1.193)">
      <path id="Caminho_5299" data-name="Caminho 5299" d="M487.932,193.216a.271.271,0,0,1,.041.382l-.4.493a.271.271,0,1,1-.422-.341l.4-.493A.271.271,0,0,1,487.932,193.216Z" transform="translate(-487.092 -193.156)" fill="#f7c651"/>
    </g>
    <g id="Grupo_3271" data-name="Grupo 3271" transform="translate(0.169 1.267)">
      <path id="Caminho_5300" data-name="Caminho 5300" d="M485.869,195.77a.272.272,0,0,1,.041.382l-.4.493a.272.272,0,1,1-.423-.341l.4-.493A.271.271,0,0,1,485.869,195.77Z" transform="translate(-485.029 -195.71)" fill="#f7c651"/>
    </g>
  </g>
  <path id="Caminho_5301" data-name="Caminho 5301" d="M383.31,165.549a1.516,1.516,0,1,1,1.019-1.886A1.516,1.516,0,0,1,383.31,165.549Z" transform="translate(-372.479 -139.071)" fill="#f7c651"/>
  <g id="Grupo_3277" data-name="Grupo 3277" transform="translate(133.027 5.543)">
    <g id="Grupo_3273" data-name="Grupo 3273" transform="translate(0 1.211)">
      <path id="Caminho_5302" data-name="Caminho 5302" d="M631.667,129.231l.518-.365a.271.271,0,1,1,.313.443l-.518.366a.272.272,0,1,1-.314-.444Z" transform="translate(-631.552 -128.816)" fill="#4b3f37"/>
    </g>
    <g id="Grupo_3274" data-name="Grupo 3274" transform="translate(1.331 0.271)">
      <path id="Caminho_5303" data-name="Caminho 5303" d="M634.349,127.336l.517-.366a.272.272,0,0,1,.314.444l-.518.366a.272.272,0,1,1-.314-.444Z" transform="translate(-634.234 -126.921)" fill="#4b3f37"/>
    </g>
    <g id="Grupo_3275" data-name="Grupo 3275" transform="translate(0.272)">
      <path id="Caminho_5304" data-name="Caminho 5304" d="M632.214,126.424a.271.271,0,0,1,.379.065l.366.518a.271.271,0,0,1-.444.313l-.366-.518A.272.272,0,0,1,632.214,126.424Z" transform="translate(-632.099 -126.374)" fill="#4b3f37"/>
    </g>
    <g id="Grupo_3276" data-name="Grupo 3276" transform="translate(1.211 1.331)">
      <path id="Caminho_5305" data-name="Caminho 5305" d="M634.108,129.106a.272.272,0,0,1,.379.065l.365.518a.272.272,0,0,1-.444.313l-.366-.518A.272.272,0,0,1,634.108,129.106Z" transform="translate(-633.993 -129.056)" fill="#4b3f37"/>
    </g>
  </g>
  <g id="Grupo_3278" data-name="Grupo 3278" transform="translate(27.295 7.935)">
    <path id="Caminho_5306" data-name="Caminho 5306" d="M422.688,133.843l-1.469.139-.717,1.289-.586-1.354-1.447-.284,1.107-.975-.178-1.464,1.27.75,1.337-.621-.321,1.44Z" transform="translate(-418.468 -131.193)" fill="#ffd675"/>
  </g>
  <path id="Retângulo_2889" data-name="Retângulo 2889" d="M6.7,0H148.336a6.7,6.7,0,0,1,6.7,6.7V93.9a6.7,6.7,0,0,1-6.7,6.7H6.7a6.7,6.7,0,0,1-6.7-6.7V6.7A6.7,6.7,0,0,1,6.7,0Z" transform="translate(40.794 27.59)" fill="#4b3f37"/>
  <rect id="Retângulo_2890" data-name="Retângulo 2890" width="142.507" height="89.225" transform="translate(47.197 33.172)" fill="url(#linear-gradient)"/>
  <path id="Caminho_5308" data-name="Caminho 5308" d="M460.314,261.795q39.817-39.9,79.7-79.739H526.033q-3.9,3.891-7.8,7.785-29.817,29.739-59.657,59.455v14.237Z" transform="translate(-411.38 -148.883)" fill="#fff" opacity="0.23"/>
  <path id="Caminho_5309" data-name="Caminho 5309" d="M511.523,182.056H458.578v52.765Q485.05,208.437,511.523,182.056Z" transform="translate(-411.38 -148.883)" fill="#fff" opacity="0.23"/>
  <path id="Caminho_5310" data-name="Caminho 5310" d="M706,282.547q-19.664,19.6-39.332,39.2h14.161Q693.409,309.138,706,296.539Z" transform="translate(-512.464 -199.51)" fill="#fff" opacity="0.23"/>
  <path id="Caminho_5311" data-name="Caminho 5311" d="M624.474,197.879l.068-15.255-24.1-.346c-2.6,2.595-95.307,89.115-95.307,89.115H547C547.581,270.813,624.474,197.879,624.474,197.879Z" transform="translate(-434.838 -148.995)" fill="#fff" opacity="0.23"/>
  <path id="Caminho_5312" data-name="Caminho 5312" d="M600.5,412.155c1.338,3.73-.433,5.088-2.091,5.088H419c-1.658,0-2.09-1.133-2.09-2.805l.045-2.466c.62-1.536,15.585-32.329,17.242-32.329H583.211a4.839,4.839,0,0,1,4.142,2.8Z" transform="translate(-390.39 -248.427)" fill="#4b3f37"/>
  <path id="Caminho_5313" data-name="Caminho 5313" d="M600.291,408.37a1.9,1.9,0,0,1-1.885,2.8H419a1.9,1.9,0,0,1-1.887-2.8l12.937-32.009a4.847,4.847,0,0,1,4.146-2.8H583.211a4.839,4.839,0,0,1,4.142,2.8Z" transform="translate(-390.389 -245.365)" fill="#4b3f37"/>
  <path id="Caminho_5314" data-name="Caminho 5314" d="M601.625,436.681H565.443l1.243-8.281h33.7Z" transform="translate(-465.219 -272.991)" fill="#bec3ce" style="mix-blend-mode: multiply;isolation: isolate"/>
  <path id="Caminho_5315" data-name="Caminho 5315" d="M601.625,436.681H565.443l1.243-8.281h33.7Z" transform="translate(-465.219 -272.991)" fill="#bec3ce" style="mix-blend-mode: multiply;isolation: isolate"/>
  <path id="Caminho_5316" data-name="Caminho 5316" d="M601.642,435.309h-33.8l1.04-7.707h31.836Z" transform="translate(-466.43 -272.589)" fill="#786860"/>
  <g id="Grupo_3279" data-name="Grupo 3279" transform="translate(36.904 132.423)" style="mix-blend-mode: multiply;isolation: isolate">
    <path id="Caminho_5317" data-name="Caminho 5317" d="M534.756,385.756l.181-3.68H523.392l-.389,3.68Z" transform="translate(-480.742 -382.075)" fill="#bec3ce"/>
    <path id="Caminho_5318" data-name="Caminho 5318" d="M559.365,385.756l.178-3.68H548.087l-.18,3.68Z" transform="translate(-493.288 -382.075)" fill="#bec3ce"/>
    <path id="Caminho_5319" data-name="Caminho 5319" d="M583.23,385.756l.066-3.68h-10.9l-.18,3.68Z" transform="translate(-505.533 -382.075)" fill="#bec3ce"/>
    <path id="Caminho_5320" data-name="Caminho 5320" d="M458.356,390.705h-8.839l-1.335,3.618h9.21Z" transform="translate(-443.047 -386.423)" fill="#bec3ce"/>
    <path id="Caminho_5321" data-name="Caminho 5321" d="M607.711,385.756l.055-3.68H595.7l-.065,3.68Z" transform="translate(-517.332 -382.075)" fill="#bec3ce"/>
    <path id="Caminho_5322" data-name="Caminho 5322" d="M461.078,382.075h-8.4l-1.36,3.68H460.1Z" transform="translate(-444.627 -382.075)" fill="#bec3ce"/>
    <path id="Caminho_5323" data-name="Caminho 5323" d="M508.563,385.756l.387-3.68H496.182l-.641,3.68Z" transform="translate(-466.906 -382.075)" fill="#bec3ce"/>
    <path id="Caminho_5324" data-name="Caminho 5324" d="M482.2,385.756l.642-3.68H471.248l-.981,3.68Z" transform="translate(-454.173 -382.075)" fill="#bec3ce"/>
    <path id="Caminho_5325" data-name="Caminho 5325" d="M678.9,385.756l-.32-3.68H667.641l.135,3.68Z" transform="translate(-553.61 -382.075)" fill="#bec3ce"/>
    <path id="Caminho_5326" data-name="Caminho 5326" d="M736.068,394.323h8.9l-1.465-3.618h-8.4Z" transform="translate(-587.599 -386.423)" fill="#bec3ce"/>
    <path id="Caminho_5327" data-name="Caminho 5327" d="M738.646,404.034h9.667l-1.957-4.825h-8.989Z" transform="translate(-588.738 -390.708)" fill="#bec3ce"/>
    <path id="Caminho_5328" data-name="Caminho 5328" d="M455.2,399.209h-9.274l-1.779,4.825h9.769Z" transform="translate(-441.014 -390.708)" fill="#bec3ce"/>
    <path id="Caminho_5329" data-name="Caminho 5329" d="M723.813,385.756l-.979-3.68h-8.59l.6,3.68Z" transform="translate(-577.088 -382.075)" fill="#bec3ce"/>
    <path id="Caminho_5330" data-name="Caminho 5330" d="M702.478,385.756l-.6-3.68H690.906l.318,3.68Z" transform="translate(-565.331 -382.075)" fill="#bec3ce"/>
    <path id="Caminho_5331" data-name="Caminho 5331" d="M742.106,385.756l-1.495-3.68h-7.8l.977,3.68Z" transform="translate(-586.444 -382.075)" fill="#bec3ce"/>
    <path id="Caminho_5332" data-name="Caminho 5332" d="M632.177,385.756l-.039-3.68h-10.9l-.054,3.68Z" transform="translate(-530.207 -382.075)" fill="#bec3ce"/>
    <path id="Caminho_5333" data-name="Caminho 5333" d="M655.5,385.756l-.133-3.68H644.473l.038,3.68Z" transform="translate(-541.938 -382.075)" fill="#bec3ce"/>
    <path id="Caminho_5334" data-name="Caminho 5334" d="M607.573,394.323l.053-3.618H595.547l-.065,3.618Z" transform="translate(-517.256 -386.423)" fill="#bec3ce"/>
    <path id="Caminho_5335" data-name="Caminho 5335" d="M582.946,394.323l.065-3.618H571.974l-.177,3.618Z" transform="translate(-505.324 -386.423)" fill="#bec3ce"/>
    <path id="Caminho_5336" data-name="Caminho 5336" d="M655.7,394.323l-.129-3.618H644.563l.038,3.618Z" transform="translate(-541.983 -386.423)" fill="#bec3ce"/>
    <path id="Caminho_5337" data-name="Caminho 5337" d="M452.174,410.149h-9.831l-1.334,3.619h10.2Z" transform="translate(-439.433 -396.219)" fill="#bec3ce"/>
    <path id="Caminho_5338" data-name="Caminho 5338" d="M534.1,394.323l.177-3.618H522.492l-.382,3.618Z" transform="translate(-480.292 -386.423)" fill="#bec3ce"/>
    <path id="Caminho_5339" data-name="Caminho 5339" d="M558.948,394.323l.177-3.618H547.667l-.176,3.618Z" transform="translate(-493.079 -386.423)" fill="#bec3ce"/>
    <path id="Caminho_5340" data-name="Caminho 5340" d="M632.16,394.323l-.039-3.618H621.116l-.053,3.618Z" transform="translate(-530.144 -386.423)" fill="#bec3ce"/>
    <path id="Caminho_5341" data-name="Caminho 5341" d="M679.632,399.209H668.261l.178,4.825h11.615Z" transform="translate(-553.922 -390.708)" fill="#bec3ce"/>
    <path id="Caminho_5342" data-name="Caminho 5342" d="M655.767,399.209H644.655l.052,4.825h11.234Z" transform="translate(-542.03 -390.708)" fill="#bec3ce"/>
    <path id="Caminho_5343" data-name="Caminho 5343" d="M679.427,394.323l-.318-3.618H667.957l.132,3.618Z" transform="translate(-553.769 -386.423)" fill="#bec3ce"/>
    <path id="Caminho_5344" data-name="Caminho 5344" d="M704.019,399.209H692.4l.42,4.825h11.991Z" transform="translate(-566.082 -390.708)" fill="#bec3ce"/>
    <path id="Caminho_5345" data-name="Caminho 5345" d="M725.644,394.323l-.961-3.618h-9.028l.593,3.618Z" transform="translate(-577.799 -386.423)" fill="#bec3ce"/>
    <path id="Caminho_5346" data-name="Caminho 5346" d="M632.086,399.209H620.974l-.072,4.825h11.236Z" transform="translate(-530.063 -390.708)" fill="#bec3ce"/>
    <path id="Caminho_5347" data-name="Caminho 5347" d="M703.544,394.323l-.592-3.618h-11.3l.317,3.618Z" transform="translate(-565.707 -386.423)" fill="#bec3ce"/>
    <path id="Caminho_5348" data-name="Caminho 5348" d="M507.372,394.323l.38-3.618H494.69l-.63,3.618Z" transform="translate(-466.16 -386.423)" fill="#bec3ce"/>
    <path id="Caminho_5349" data-name="Caminho 5349" d="M595.2,410.149l-.066,3.619h12.12l.057-3.619Z" transform="translate(-517.081 -396.219)" fill="#bec3ce"/>
    <path id="Caminho_5350" data-name="Caminho 5350" d="M532.774,410.149H520.443l-.381,3.619H532.6Z" transform="translate(-479.26 -396.219)" fill="#bec3ce"/>
    <path id="Caminho_5351" data-name="Caminho 5351" d="M718.843,410.149l.588,3.619h10.381l-.96-3.619Z" transform="translate(-579.406 -396.219)" fill="#bec3ce"/>
    <path id="Caminho_5352" data-name="Caminho 5352" d="M620.832,410.149l-.055,3.619H632.12l-.039-3.619Z" transform="translate(-530 -396.219)" fill="#bec3ce"/>
    <path id="Caminho_5353" data-name="Caminho 5353" d="M668.66,410.149l.133,3.619h11.827l-.316-3.619Z" transform="translate(-554.123 -396.219)" fill="#bec3ce"/>
    <path id="Caminho_5354" data-name="Caminho 5354" d="M693.348,410.149l.316,3.619h12.313l-.591-3.619Z" transform="translate(-566.561 -396.219)" fill="#bec3ce"/>
    <path id="Caminho_5355" data-name="Caminho 5355" d="M478.748,399.209H466.377l-1.286,4.825h12.815Z" transform="translate(-451.566 -390.708)" fill="#bec3ce"/>
    <path id="Caminho_5356" data-name="Caminho 5356" d="M480.95,390.705H468.966L468,394.323H480.32Z" transform="translate(-453.033 -386.423)" fill="#bec3ce"/>
    <path id="Caminho_5357" data-name="Caminho 5357" d="M491.3,410.149l-.628,3.619h13.978l.378-3.619Z" transform="translate(-464.454 -396.219)" fill="#bec3ce"/>
    <path id="Caminho_5358" data-name="Caminho 5358" d="M463.79,410.149l-.963,3.619h13.2l.629-3.619Z" transform="translate(-450.425 -396.219)" fill="#bec3ce"/>
    <path id="Caminho_5359" data-name="Caminho 5359" d="M740.27,410.149l.962,3.619H751.49l-1.469-3.619Z" transform="translate(-590.2 -396.219)" fill="#bec3ce"/>
    <path id="Caminho_5360" data-name="Caminho 5360" d="M439.187,418.659l-1.354,3.667h10.642l.977-3.667Z" transform="translate(-437.833 -400.506)" fill="#bec3ce"/>
    <path id="Caminho_5361" data-name="Caminho 5361" d="M694.093,418.659l.319,3.667h12.641l-.6-3.667Z" transform="translate(-566.936 -400.506)" fill="#bec3ce"/>
    <path id="Caminho_5362" data-name="Caminho 5362" d="M533.49,399.209H521.465l-.508,4.825h12.3Z" transform="translate(-479.711 -390.708)" fill="#bec3ce"/>
    <path id="Caminho_5363" data-name="Caminho 5363" d="M717.838,404.034h9.948l-1.279-4.825h-9.459Z" transform="translate(-578.501 -390.708)" fill="#bec3ce"/>
    <path id="Caminho_5364" data-name="Caminho 5364" d="M720.227,418.659l.6,3.667h10.814l-.974-3.667Z" transform="translate(-580.103 -400.506)" fill="#bec3ce"/>
    <path id="Caminho_5365" data-name="Caminho 5365" d="M743.5,422.327h10.858l-1.488-3.667H742.533Z" transform="translate(-591.34 -400.506)" fill="#bec3ce"/>
    <path id="Caminho_5366" data-name="Caminho 5366" d="M582.359,410.149H571.023l-.176,3.619h11.447Z" transform="translate(-504.845 -396.219)" fill="#bec3ce"/>
    <path id="Caminho_5367" data-name="Caminho 5367" d="M558,413.768l.176-3.619H546.716l-.177,3.619Z" transform="translate(-492.599 -396.219)" fill="#bec3ce"/>
    <path id="Caminho_5368" data-name="Caminho 5368" d="M492.153,404.034h13.687l.508-4.825H492.994Z" transform="translate(-465.199 -390.708)" fill="#bec3ce"/>
    <path id="Caminho_5369" data-name="Caminho 5369" d="M489.81,418.659l-.64,3.667h14.274l.386-3.667Z" transform="translate(-463.697 -400.506)" fill="#bec3ce"/>
    <path id="Caminho_5370" data-name="Caminho 5370" d="M461.514,418.659l-.977,3.667h13.6l.64-3.667Z" transform="translate(-449.271 -400.506)" fill="#bec3ce"/>
    <path id="Caminho_5371" data-name="Caminho 5371" d="M571.5,399.209l-.236,4.825h11.318l.084-4.825Z" transform="translate(-505.055 -390.708)" fill="#bec3ce"/>
    <path id="Caminho_5372" data-name="Caminho 5372" d="M644.773,410.149l.038,3.619h11.343l-.129-3.619Z" transform="translate(-542.089 -396.219)" fill="#bec3ce"/>
    <path id="Caminho_5373" data-name="Caminho 5373" d="M620.706,418.659l-.054,3.667H632.1l-.039-3.667Z" transform="translate(-529.937 -400.506)" fill="#bec3ce"/>
    <path id="Caminho_5374" data-name="Caminho 5374" d="M644.862,418.659l.042,3.667h11.45l-.134-3.667Z" transform="translate(-542.134 -400.506)" fill="#bec3ce"/>
    <path id="Caminho_5375" data-name="Caminho 5375" d="M519.543,418.659l-.386,3.667h49.757l.054-3.667Z" transform="translate(-478.804 -400.506)" fill="#bec3ce"/>
    <path id="Caminho_5376" data-name="Caminho 5376" d="M668.968,418.659l.134,3.667h12.047l-.321-3.667Z" transform="translate(-554.279 -400.506)" fill="#bec3ce"/>
    <path id="Caminho_5377" data-name="Caminho 5377" d="M558.649,399.209H547.193l-.236,4.825h11.455Z" transform="translate(-492.81 -390.708)" fill="#bec3ce"/>
    <path id="Caminho_5378" data-name="Caminho 5378" d="M607.465,399.209H595.371l-.086,4.825h12.109Z" transform="translate(-517.157 -390.708)" fill="#bec3ce"/>
  </g>
  <g id="Grupo_3280" data-name="Grupo 3280" transform="translate(36.904 132.423)" style="mix-blend-mode: multiply;isolation: isolate">
    <path id="Caminho_5379" data-name="Caminho 5379" d="M534.756,385.756l.181-3.68H523.392l-.389,3.68Z" transform="translate(-480.742 -382.075)" fill="#bec3ce"/>
    <path id="Caminho_5380" data-name="Caminho 5380" d="M559.365,385.756l.178-3.68H548.087l-.18,3.68Z" transform="translate(-493.288 -382.075)" fill="#bec3ce"/>
    <path id="Caminho_5381" data-name="Caminho 5381" d="M583.23,385.756l.066-3.68h-10.9l-.18,3.68Z" transform="translate(-505.533 -382.075)" fill="#bec3ce"/>
    <path id="Caminho_5382" data-name="Caminho 5382" d="M458.356,390.705h-8.839l-1.335,3.618h9.21Z" transform="translate(-443.047 -386.423)" fill="#bec3ce"/>
    <path id="Caminho_5383" data-name="Caminho 5383" d="M607.711,385.756l.055-3.68H595.7l-.065,3.68Z" transform="translate(-517.332 -382.075)" fill="#bec3ce"/>
    <path id="Caminho_5384" data-name="Caminho 5384" d="M461.078,382.075h-8.4l-1.36,3.68H460.1Z" transform="translate(-444.627 -382.075)" fill="#bec3ce"/>
    <path id="Caminho_5385" data-name="Caminho 5385" d="M508.563,385.756l.387-3.68H496.182l-.641,3.68Z" transform="translate(-466.906 -382.075)" fill="#bec3ce"/>
    <path id="Caminho_5386" data-name="Caminho 5386" d="M482.2,385.756l.642-3.68H471.248l-.981,3.68Z" transform="translate(-454.173 -382.075)" fill="#bec3ce"/>
    <path id="Caminho_5387" data-name="Caminho 5387" d="M678.9,385.756l-.32-3.68H667.641l.135,3.68Z" transform="translate(-553.61 -382.075)" fill="#bec3ce"/>
    <path id="Caminho_5388" data-name="Caminho 5388" d="M736.068,394.323h8.9l-1.465-3.618h-8.4Z" transform="translate(-587.599 -386.423)" fill="#bec3ce"/>
    <path id="Caminho_5389" data-name="Caminho 5389" d="M738.646,404.034h9.667l-1.957-4.825h-8.989Z" transform="translate(-588.738 -390.708)" fill="#bec3ce"/>
    <path id="Caminho_5390" data-name="Caminho 5390" d="M455.2,399.209h-9.274l-1.779,4.825h9.769Z" transform="translate(-441.014 -390.708)" fill="#bec3ce"/>
    <path id="Caminho_5391" data-name="Caminho 5391" d="M723.813,385.756l-.979-3.68h-8.59l.6,3.68Z" transform="translate(-577.088 -382.075)" fill="#bec3ce"/>
    <path id="Caminho_5392" data-name="Caminho 5392" d="M702.478,385.756l-.6-3.68H690.906l.318,3.68Z" transform="translate(-565.331 -382.075)" fill="#bec3ce"/>
    <path id="Caminho_5393" data-name="Caminho 5393" d="M742.106,385.756l-1.495-3.68h-7.8l.977,3.68Z" transform="translate(-586.444 -382.075)" fill="#bec3ce"/>
    <path id="Caminho_5394" data-name="Caminho 5394" d="M632.177,385.756l-.039-3.68h-10.9l-.054,3.68Z" transform="translate(-530.207 -382.075)" fill="#bec3ce"/>
    <path id="Caminho_5395" data-name="Caminho 5395" d="M655.5,385.756l-.133-3.68H644.473l.038,3.68Z" transform="translate(-541.938 -382.075)" fill="#bec3ce"/>
    <path id="Caminho_5396" data-name="Caminho 5396" d="M607.573,394.323l.053-3.618H595.547l-.065,3.618Z" transform="translate(-517.256 -386.423)" fill="#bec3ce"/>
    <path id="Caminho_5397" data-name="Caminho 5397" d="M582.946,394.323l.065-3.618H571.974l-.177,3.618Z" transform="translate(-505.324 -386.423)" fill="#bec3ce"/>
    <path id="Caminho_5398" data-name="Caminho 5398" d="M655.7,394.323l-.129-3.618H644.563l.038,3.618Z" transform="translate(-541.983 -386.423)" fill="#bec3ce"/>
    <path id="Caminho_5399" data-name="Caminho 5399" d="M452.174,410.149h-9.831l-1.334,3.619h10.2Z" transform="translate(-439.433 -396.219)" fill="#bec3ce"/>
    <path id="Caminho_5400" data-name="Caminho 5400" d="M534.1,394.323l.177-3.618H522.492l-.382,3.618Z" transform="translate(-480.292 -386.423)" fill="#bec3ce"/>
    <path id="Caminho_5401" data-name="Caminho 5401" d="M558.948,394.323l.177-3.618H547.667l-.176,3.618Z" transform="translate(-493.079 -386.423)" fill="#bec3ce"/>
    <path id="Caminho_5402" data-name="Caminho 5402" d="M632.16,394.323l-.039-3.618H621.116l-.053,3.618Z" transform="translate(-530.144 -386.423)" fill="#bec3ce"/>
    <path id="Caminho_5403" data-name="Caminho 5403" d="M679.632,399.209H668.261l.178,4.825h11.615Z" transform="translate(-553.922 -390.708)" fill="#bec3ce"/>
    <path id="Caminho_5404" data-name="Caminho 5404" d="M655.767,399.209H644.655l.052,4.825h11.234Z" transform="translate(-542.03 -390.708)" fill="#bec3ce"/>
    <path id="Caminho_5405" data-name="Caminho 5405" d="M679.427,394.323l-.318-3.618H667.957l.132,3.618Z" transform="translate(-553.769 -386.423)" fill="#bec3ce"/>
    <path id="Caminho_5406" data-name="Caminho 5406" d="M704.019,399.209H692.4l.42,4.825h11.991Z" transform="translate(-566.082 -390.708)" fill="#bec3ce"/>
    <path id="Caminho_5407" data-name="Caminho 5407" d="M725.644,394.323l-.961-3.618h-9.028l.593,3.618Z" transform="translate(-577.799 -386.423)" fill="#bec3ce"/>
    <path id="Caminho_5408" data-name="Caminho 5408" d="M632.086,399.209H620.974l-.072,4.825h11.236Z" transform="translate(-530.063 -390.708)" fill="#bec3ce"/>
    <path id="Caminho_5409" data-name="Caminho 5409" d="M703.544,394.323l-.592-3.618h-11.3l.317,3.618Z" transform="translate(-565.707 -386.423)" fill="#bec3ce"/>
    <path id="Caminho_5410" data-name="Caminho 5410" d="M507.372,394.323l.38-3.618H494.69l-.63,3.618Z" transform="translate(-466.16 -386.423)" fill="#bec3ce"/>
    <path id="Caminho_5411" data-name="Caminho 5411" d="M595.2,410.149l-.066,3.619h12.12l.057-3.619Z" transform="translate(-517.081 -396.219)" fill="#bec3ce"/>
    <path id="Caminho_5412" data-name="Caminho 5412" d="M532.774,410.149H520.443l-.381,3.619H532.6Z" transform="translate(-479.26 -396.219)" fill="#bec3ce"/>
    <path id="Caminho_5413" data-name="Caminho 5413" d="M718.843,410.149l.588,3.619h10.381l-.96-3.619Z" transform="translate(-579.406 -396.219)" fill="#bec3ce"/>
    <path id="Caminho_5414" data-name="Caminho 5414" d="M620.832,410.149l-.055,3.619H632.12l-.039-3.619Z" transform="translate(-530 -396.219)" fill="#bec3ce"/>
    <path id="Caminho_5415" data-name="Caminho 5415" d="M668.66,410.149l.133,3.619h11.827l-.316-3.619Z" transform="translate(-554.123 -396.219)" fill="#bec3ce"/>
    <path id="Caminho_5416" data-name="Caminho 5416" d="M693.348,410.149l.316,3.619h12.313l-.591-3.619Z" transform="translate(-566.561 -396.219)" fill="#bec3ce"/>
    <path id="Caminho_5417" data-name="Caminho 5417" d="M478.748,399.209H466.377l-1.286,4.825h12.815Z" transform="translate(-451.566 -390.708)" fill="#bec3ce"/>
    <path id="Caminho_5418" data-name="Caminho 5418" d="M480.95,390.705H468.966L468,394.323H480.32Z" transform="translate(-453.033 -386.423)" fill="#bec3ce"/>
    <path id="Caminho_5419" data-name="Caminho 5419" d="M491.3,410.149l-.628,3.619h13.978l.378-3.619Z" transform="translate(-464.454 -396.219)" fill="#bec3ce"/>
    <path id="Caminho_5420" data-name="Caminho 5420" d="M463.79,410.149l-.963,3.619h13.2l.629-3.619Z" transform="translate(-450.425 -396.219)" fill="#bec3ce"/>
    <path id="Caminho_5421" data-name="Caminho 5421" d="M740.27,410.149l.962,3.619H751.49l-1.469-3.619Z" transform="translate(-590.2 -396.219)" fill="#bec3ce"/>
    <path id="Caminho_5422" data-name="Caminho 5422" d="M439.187,418.659l-1.354,3.667h10.642l.977-3.667Z" transform="translate(-437.833 -400.506)" fill="#bec3ce"/>
    <path id="Caminho_5423" data-name="Caminho 5423" d="M694.093,418.659l.319,3.667h12.641l-.6-3.667Z" transform="translate(-566.936 -400.506)" fill="#bec3ce"/>
    <path id="Caminho_5424" data-name="Caminho 5424" d="M533.49,399.209H521.465l-.508,4.825h12.3Z" transform="translate(-479.711 -390.708)" fill="#bec3ce"/>
    <path id="Caminho_5425" data-name="Caminho 5425" d="M717.838,404.034h9.948l-1.279-4.825h-9.459Z" transform="translate(-578.501 -390.708)" fill="#bec3ce"/>
    <path id="Caminho_5426" data-name="Caminho 5426" d="M720.227,418.659l.6,3.667h10.814l-.974-3.667Z" transform="translate(-580.103 -400.506)" fill="#bec3ce"/>
    <path id="Caminho_5427" data-name="Caminho 5427" d="M743.5,422.327h10.858l-1.488-3.667H742.533Z" transform="translate(-591.34 -400.506)" fill="#bec3ce"/>
    <path id="Caminho_5428" data-name="Caminho 5428" d="M582.359,410.149H571.023l-.176,3.619h11.447Z" transform="translate(-504.845 -396.219)" fill="#bec3ce"/>
    <path id="Caminho_5429" data-name="Caminho 5429" d="M558,413.768l.176-3.619H546.716l-.177,3.619Z" transform="translate(-492.599 -396.219)" fill="#bec3ce"/>
    <path id="Caminho_5430" data-name="Caminho 5430" d="M492.153,404.034h13.687l.508-4.825H492.994Z" transform="translate(-465.199 -390.708)" fill="#bec3ce"/>
    <path id="Caminho_5431" data-name="Caminho 5431" d="M489.81,418.659l-.64,3.667h14.274l.386-3.667Z" transform="translate(-463.697 -400.506)" fill="#bec3ce"/>
    <path id="Caminho_5432" data-name="Caminho 5432" d="M461.514,418.659l-.977,3.667h13.6l.64-3.667Z" transform="translate(-449.271 -400.506)" fill="#bec3ce"/>
    <path id="Caminho_5433" data-name="Caminho 5433" d="M571.5,399.209l-.236,4.825h11.318l.084-4.825Z" transform="translate(-505.055 -390.708)" fill="#bec3ce"/>
    <path id="Caminho_5434" data-name="Caminho 5434" d="M644.773,410.149l.038,3.619h11.343l-.129-3.619Z" transform="translate(-542.089 -396.219)" fill="#bec3ce"/>
    <path id="Caminho_5435" data-name="Caminho 5435" d="M620.706,418.659l-.054,3.667H632.1l-.039-3.667Z" transform="translate(-529.937 -400.506)" fill="#bec3ce"/>
    <path id="Caminho_5436" data-name="Caminho 5436" d="M644.862,418.659l.042,3.667h11.45l-.134-3.667Z" transform="translate(-542.134 -400.506)" fill="#bec3ce"/>
    <path id="Caminho_5437" data-name="Caminho 5437" d="M519.543,418.659l-.386,3.667h49.757l.054-3.667Z" transform="translate(-478.804 -400.506)" fill="#bec3ce"/>
    <path id="Caminho_5438" data-name="Caminho 5438" d="M668.968,418.659l.134,3.667h12.047l-.321-3.667Z" transform="translate(-554.279 -400.506)" fill="#bec3ce"/>
    <path id="Caminho_5439" data-name="Caminho 5439" d="M558.649,399.209H547.193l-.236,4.825h11.455Z" transform="translate(-492.81 -390.708)" fill="#bec3ce"/>
    <path id="Caminho_5440" data-name="Caminho 5440" d="M607.465,399.209H595.371l-.086,4.825h12.109Z" transform="translate(-517.157 -390.708)" fill="#bec3ce"/>
  </g>
  <g id="Grupo_3281" data-name="Grupo 3281" transform="translate(36.904 132.423)" style="mix-blend-mode: multiply;isolation: isolate">
    <path id="Caminho_5441" data-name="Caminho 5441" d="M534.756,385.756l.181-3.68H523.392l-.389,3.68Z" transform="translate(-480.742 -382.075)" fill="#bec3ce"/>
    <path id="Caminho_5442" data-name="Caminho 5442" d="M559.365,385.756l.178-3.68H548.087l-.18,3.68Z" transform="translate(-493.288 -382.075)" fill="#bec3ce"/>
    <path id="Caminho_5443" data-name="Caminho 5443" d="M583.23,385.756l.066-3.68h-10.9l-.18,3.68Z" transform="translate(-505.533 -382.075)" fill="#bec3ce"/>
    <path id="Caminho_5444" data-name="Caminho 5444" d="M458.356,390.705h-8.839l-1.335,3.618h9.21Z" transform="translate(-443.047 -386.423)" fill="#bec3ce"/>
    <path id="Caminho_5445" data-name="Caminho 5445" d="M607.711,385.756l.055-3.68H595.7l-.065,3.68Z" transform="translate(-517.332 -382.075)" fill="#bec3ce"/>
    <path id="Caminho_5446" data-name="Caminho 5446" d="M461.078,382.075h-8.4l-1.36,3.68H460.1Z" transform="translate(-444.627 -382.075)" fill="#bec3ce"/>
    <path id="Caminho_5447" data-name="Caminho 5447" d="M508.563,385.756l.387-3.68H496.182l-.641,3.68Z" transform="translate(-466.906 -382.075)" fill="#bec3ce"/>
    <path id="Caminho_5448" data-name="Caminho 5448" d="M482.2,385.756l.642-3.68H471.248l-.981,3.68Z" transform="translate(-454.173 -382.075)" fill="#bec3ce"/>
    <path id="Caminho_5449" data-name="Caminho 5449" d="M678.9,385.756l-.32-3.68H667.641l.135,3.68Z" transform="translate(-553.61 -382.075)" fill="#bec3ce"/>
    <path id="Caminho_5450" data-name="Caminho 5450" d="M736.068,394.323h8.9l-1.465-3.618h-8.4Z" transform="translate(-587.599 -386.423)" fill="#bec3ce"/>
    <path id="Caminho_5451" data-name="Caminho 5451" d="M738.646,404.034h9.667l-1.957-4.825h-8.989Z" transform="translate(-588.738 -390.708)" fill="#bec3ce"/>
    <path id="Caminho_5452" data-name="Caminho 5452" d="M455.2,399.209h-9.274l-1.779,4.825h9.769Z" transform="translate(-441.014 -390.708)" fill="#bec3ce"/>
    <path id="Caminho_5453" data-name="Caminho 5453" d="M723.813,385.756l-.979-3.68h-8.59l.6,3.68Z" transform="translate(-577.088 -382.075)" fill="#bec3ce"/>
    <path id="Caminho_5454" data-name="Caminho 5454" d="M702.478,385.756l-.6-3.68H690.906l.318,3.68Z" transform="translate(-565.331 -382.075)" fill="#bec3ce"/>
    <path id="Caminho_5455" data-name="Caminho 5455" d="M742.106,385.756l-1.495-3.68h-7.8l.977,3.68Z" transform="translate(-586.444 -382.075)" fill="#bec3ce"/>
    <path id="Caminho_5456" data-name="Caminho 5456" d="M632.177,385.756l-.039-3.68h-10.9l-.054,3.68Z" transform="translate(-530.207 -382.075)" fill="#bec3ce"/>
    <path id="Caminho_5457" data-name="Caminho 5457" d="M655.5,385.756l-.133-3.68H644.473l.038,3.68Z" transform="translate(-541.938 -382.075)" fill="#bec3ce"/>
    <path id="Caminho_5458" data-name="Caminho 5458" d="M607.573,394.323l.053-3.618H595.547l-.065,3.618Z" transform="translate(-517.256 -386.423)" fill="#bec3ce"/>
    <path id="Caminho_5459" data-name="Caminho 5459" d="M582.946,394.323l.065-3.618H571.974l-.177,3.618Z" transform="translate(-505.324 -386.423)" fill="#bec3ce"/>
    <path id="Caminho_5460" data-name="Caminho 5460" d="M655.7,394.323l-.129-3.618H644.563l.038,3.618Z" transform="translate(-541.983 -386.423)" fill="#bec3ce"/>
    <path id="Caminho_5461" data-name="Caminho 5461" d="M452.174,410.149h-9.831l-1.334,3.619h10.2Z" transform="translate(-439.433 -396.219)" fill="#bec3ce"/>
    <path id="Caminho_5462" data-name="Caminho 5462" d="M534.1,394.323l.177-3.618H522.492l-.382,3.618Z" transform="translate(-480.292 -386.423)" fill="#bec3ce"/>
    <path id="Caminho_5463" data-name="Caminho 5463" d="M558.948,394.323l.177-3.618H547.667l-.176,3.618Z" transform="translate(-493.079 -386.423)" fill="#bec3ce"/>
    <path id="Caminho_5464" data-name="Caminho 5464" d="M632.16,394.323l-.039-3.618H621.116l-.053,3.618Z" transform="translate(-530.144 -386.423)" fill="#bec3ce"/>
    <path id="Caminho_5465" data-name="Caminho 5465" d="M679.632,399.209H668.261l.178,4.825h11.615Z" transform="translate(-553.922 -390.708)" fill="#bec3ce"/>
    <path id="Caminho_5466" data-name="Caminho 5466" d="M655.767,399.209H644.655l.052,4.825h11.234Z" transform="translate(-542.03 -390.708)" fill="#bec3ce"/>
    <path id="Caminho_5467" data-name="Caminho 5467" d="M679.427,394.323l-.318-3.618H667.957l.132,3.618Z" transform="translate(-553.769 -386.423)" fill="#bec3ce"/>
    <path id="Caminho_5468" data-name="Caminho 5468" d="M704.019,399.209H692.4l.42,4.825h11.991Z" transform="translate(-566.082 -390.708)" fill="#bec3ce"/>
    <path id="Caminho_5469" data-name="Caminho 5469" d="M725.644,394.323l-.961-3.618h-9.028l.593,3.618Z" transform="translate(-577.799 -386.423)" fill="#bec3ce"/>
    <path id="Caminho_5470" data-name="Caminho 5470" d="M632.086,399.209H620.974l-.072,4.825h11.236Z" transform="translate(-530.063 -390.708)" fill="#bec3ce"/>
    <path id="Caminho_5471" data-name="Caminho 5471" d="M703.544,394.323l-.592-3.618h-11.3l.317,3.618Z" transform="translate(-565.707 -386.423)" fill="#bec3ce"/>
    <path id="Caminho_5472" data-name="Caminho 5472" d="M507.372,394.323l.38-3.618H494.69l-.63,3.618Z" transform="translate(-466.16 -386.423)" fill="#bec3ce"/>
    <path id="Caminho_5473" data-name="Caminho 5473" d="M595.2,410.149l-.066,3.619h12.12l.057-3.619Z" transform="translate(-517.081 -396.219)" fill="#bec3ce"/>
    <path id="Caminho_5474" data-name="Caminho 5474" d="M532.774,410.149H520.443l-.381,3.619H532.6Z" transform="translate(-479.26 -396.219)" fill="#bec3ce"/>
    <path id="Caminho_5475" data-name="Caminho 5475" d="M718.843,410.149l.588,3.619h10.381l-.96-3.619Z" transform="translate(-579.406 -396.219)" fill="#bec3ce"/>
    <path id="Caminho_5476" data-name="Caminho 5476" d="M620.832,410.149l-.055,3.619H632.12l-.039-3.619Z" transform="translate(-530 -396.219)" fill="#bec3ce"/>
    <path id="Caminho_5477" data-name="Caminho 5477" d="M668.66,410.149l.133,3.619h11.827l-.316-3.619Z" transform="translate(-554.123 -396.219)" fill="#bec3ce"/>
    <path id="Caminho_5478" data-name="Caminho 5478" d="M693.348,410.149l.316,3.619h12.313l-.591-3.619Z" transform="translate(-566.561 -396.219)" fill="#bec3ce"/>
    <path id="Caminho_5479" data-name="Caminho 5479" d="M478.748,399.209H466.377l-1.286,4.825h12.815Z" transform="translate(-451.566 -390.708)" fill="#bec3ce"/>
    <path id="Caminho_5480" data-name="Caminho 5480" d="M480.95,390.705H468.966L468,394.323H480.32Z" transform="translate(-453.033 -386.423)" fill="#bec3ce"/>
    <path id="Caminho_5481" data-name="Caminho 5481" d="M491.3,410.149l-.628,3.619h13.978l.378-3.619Z" transform="translate(-464.454 -396.219)" fill="#bec3ce"/>
    <path id="Caminho_5482" data-name="Caminho 5482" d="M463.79,410.149l-.963,3.619h13.2l.629-3.619Z" transform="translate(-450.425 -396.219)" fill="#bec3ce"/>
    <path id="Caminho_5483" data-name="Caminho 5483" d="M740.27,410.149l.962,3.619H751.49l-1.469-3.619Z" transform="translate(-590.2 -396.219)" fill="#bec3ce"/>
    <path id="Caminho_5484" data-name="Caminho 5484" d="M439.187,418.659l-1.354,3.667h10.642l.977-3.667Z" transform="translate(-437.833 -400.506)" fill="#bec3ce"/>
    <path id="Caminho_5485" data-name="Caminho 5485" d="M694.093,418.659l.319,3.667h12.641l-.6-3.667Z" transform="translate(-566.936 -400.506)" fill="#bec3ce"/>
    <path id="Caminho_5486" data-name="Caminho 5486" d="M533.49,399.209H521.465l-.508,4.825h12.3Z" transform="translate(-479.711 -390.708)" fill="#bec3ce"/>
    <path id="Caminho_5487" data-name="Caminho 5487" d="M717.838,404.034h9.948l-1.279-4.825h-9.459Z" transform="translate(-578.501 -390.708)" fill="#bec3ce"/>
    <path id="Caminho_5488" data-name="Caminho 5488" d="M720.227,418.659l.6,3.667h10.814l-.974-3.667Z" transform="translate(-580.103 -400.506)" fill="#bec3ce"/>
    <path id="Caminho_5489" data-name="Caminho 5489" d="M743.5,422.327h10.858l-1.488-3.667H742.533Z" transform="translate(-591.34 -400.506)" fill="#bec3ce"/>
    <path id="Caminho_5490" data-name="Caminho 5490" d="M582.359,410.149H571.023l-.176,3.619h11.447Z" transform="translate(-504.845 -396.219)" fill="#bec3ce"/>
    <path id="Caminho_5491" data-name="Caminho 5491" d="M558,413.768l.176-3.619H546.716l-.177,3.619Z" transform="translate(-492.599 -396.219)" fill="#bec3ce"/>
    <path id="Caminho_5492" data-name="Caminho 5492" d="M492.153,404.034h13.687l.508-4.825H492.994Z" transform="translate(-465.199 -390.708)" fill="#bec3ce"/>
    <path id="Caminho_5493" data-name="Caminho 5493" d="M489.81,418.659l-.64,3.667h14.274l.386-3.667Z" transform="translate(-463.697 -400.506)" fill="#bec3ce"/>
    <path id="Caminho_5494" data-name="Caminho 5494" d="M461.514,418.659l-.977,3.667h13.6l.64-3.667Z" transform="translate(-449.271 -400.506)" fill="#bec3ce"/>
    <path id="Caminho_5495" data-name="Caminho 5495" d="M571.5,399.209l-.236,4.825h11.318l.084-4.825Z" transform="translate(-505.055 -390.708)" fill="#bec3ce"/>
    <path id="Caminho_5496" data-name="Caminho 5496" d="M644.773,410.149l.038,3.619h11.343l-.129-3.619Z" transform="translate(-542.089 -396.219)" fill="#bec3ce"/>
    <path id="Caminho_5497" data-name="Caminho 5497" d="M620.706,418.659l-.054,3.667H632.1l-.039-3.667Z" transform="translate(-529.937 -400.506)" fill="#bec3ce"/>
    <path id="Caminho_5498" data-name="Caminho 5498" d="M644.862,418.659l.042,3.667h11.45l-.134-3.667Z" transform="translate(-542.134 -400.506)" fill="#bec3ce"/>
    <path id="Caminho_5499" data-name="Caminho 5499" d="M519.543,418.659l-.386,3.667h49.757l.054-3.667Z" transform="translate(-478.804 -400.506)" fill="#bec3ce"/>
    <path id="Caminho_5500" data-name="Caminho 5500" d="M668.968,418.659l.134,3.667h12.047l-.321-3.667Z" transform="translate(-554.279 -400.506)" fill="#bec3ce"/>
    <path id="Caminho_5501" data-name="Caminho 5501" d="M558.649,399.209H547.193l-.236,4.825h11.455Z" transform="translate(-492.81 -390.708)" fill="#bec3ce"/>
    <path id="Caminho_5502" data-name="Caminho 5502" d="M607.465,399.209H595.371l-.086,4.825h12.109Z" transform="translate(-517.157 -390.708)" fill="#bec3ce"/>
  </g>
  <g id="Grupo_3282" data-name="Grupo 3282" transform="translate(36.904 132.423)" style="mix-blend-mode: multiply;isolation: isolate">
    <path id="Caminho_5503" data-name="Caminho 5503" d="M534.756,385.756l.181-3.68H523.392l-.389,3.68Z" transform="translate(-480.742 -382.075)" fill="#bec3ce"/>
    <path id="Caminho_5504" data-name="Caminho 5504" d="M559.365,385.756l.178-3.68H548.087l-.18,3.68Z" transform="translate(-493.288 -382.075)" fill="#bec3ce"/>
    <path id="Caminho_5505" data-name="Caminho 5505" d="M583.23,385.756l.066-3.68h-10.9l-.18,3.68Z" transform="translate(-505.533 -382.075)" fill="#bec3ce"/>
    <path id="Caminho_5506" data-name="Caminho 5506" d="M458.356,390.705h-8.839l-1.335,3.618h9.21Z" transform="translate(-443.047 -386.423)" fill="#bec3ce"/>
    <path id="Caminho_5507" data-name="Caminho 5507" d="M607.711,385.756l.055-3.68H595.7l-.065,3.68Z" transform="translate(-517.332 -382.075)" fill="#bec3ce"/>
    <path id="Caminho_5508" data-name="Caminho 5508" d="M461.078,382.075h-8.4l-1.36,3.68H460.1Z" transform="translate(-444.627 -382.075)" fill="#bec3ce"/>
    <path id="Caminho_5509" data-name="Caminho 5509" d="M508.563,385.756l.387-3.68H496.182l-.641,3.68Z" transform="translate(-466.906 -382.075)" fill="#bec3ce"/>
    <path id="Caminho_5510" data-name="Caminho 5510" d="M482.2,385.756l.642-3.68H471.248l-.981,3.68Z" transform="translate(-454.173 -382.075)" fill="#bec3ce"/>
    <path id="Caminho_5511" data-name="Caminho 5511" d="M678.9,385.756l-.32-3.68H667.641l.135,3.68Z" transform="translate(-553.61 -382.075)" fill="#bec3ce"/>
    <path id="Caminho_5512" data-name="Caminho 5512" d="M736.068,394.323h8.9l-1.465-3.618h-8.4Z" transform="translate(-587.599 -386.423)" fill="#bec3ce"/>
    <path id="Caminho_5513" data-name="Caminho 5513" d="M738.646,404.034h9.667l-1.957-4.825h-8.989Z" transform="translate(-588.738 -390.708)" fill="#bec3ce"/>
    <path id="Caminho_5514" data-name="Caminho 5514" d="M455.2,399.209h-9.274l-1.779,4.825h9.769Z" transform="translate(-441.014 -390.708)" fill="#bec3ce"/>
    <path id="Caminho_5515" data-name="Caminho 5515" d="M723.813,385.756l-.979-3.68h-8.59l.6,3.68Z" transform="translate(-577.088 -382.075)" fill="#bec3ce"/>
    <path id="Caminho_5516" data-name="Caminho 5516" d="M702.478,385.756l-.6-3.68H690.906l.318,3.68Z" transform="translate(-565.331 -382.075)" fill="#bec3ce"/>
    <path id="Caminho_5517" data-name="Caminho 5517" d="M742.106,385.756l-1.495-3.68h-7.8l.977,3.68Z" transform="translate(-586.444 -382.075)" fill="#bec3ce"/>
    <path id="Caminho_5518" data-name="Caminho 5518" d="M632.177,385.756l-.039-3.68h-10.9l-.054,3.68Z" transform="translate(-530.207 -382.075)" fill="#bec3ce"/>
    <path id="Caminho_5519" data-name="Caminho 5519" d="M655.5,385.756l-.133-3.68H644.473l.038,3.68Z" transform="translate(-541.938 -382.075)" fill="#bec3ce"/>
    <path id="Caminho_5520" data-name="Caminho 5520" d="M607.573,394.323l.053-3.618H595.547l-.065,3.618Z" transform="translate(-517.256 -386.423)" fill="#bec3ce"/>
    <path id="Caminho_5521" data-name="Caminho 5521" d="M582.946,394.323l.065-3.618H571.974l-.177,3.618Z" transform="translate(-505.324 -386.423)" fill="#bec3ce"/>
    <path id="Caminho_5522" data-name="Caminho 5522" d="M655.7,394.323l-.129-3.618H644.563l.038,3.618Z" transform="translate(-541.983 -386.423)" fill="#bec3ce"/>
    <path id="Caminho_5523" data-name="Caminho 5523" d="M452.174,410.149h-9.831l-1.334,3.619h10.2Z" transform="translate(-439.433 -396.219)" fill="#bec3ce"/>
    <path id="Caminho_5524" data-name="Caminho 5524" d="M534.1,394.323l.177-3.618H522.492l-.382,3.618Z" transform="translate(-480.292 -386.423)" fill="#bec3ce"/>
    <path id="Caminho_5525" data-name="Caminho 5525" d="M558.948,394.323l.177-3.618H547.667l-.176,3.618Z" transform="translate(-493.079 -386.423)" fill="#bec3ce"/>
    <path id="Caminho_5526" data-name="Caminho 5526" d="M632.16,394.323l-.039-3.618H621.116l-.053,3.618Z" transform="translate(-530.144 -386.423)" fill="#bec3ce"/>
    <path id="Caminho_5527" data-name="Caminho 5527" d="M679.632,399.209H668.261l.178,4.825h11.615Z" transform="translate(-553.922 -390.708)" fill="#bec3ce"/>
    <path id="Caminho_5528" data-name="Caminho 5528" d="M655.767,399.209H644.655l.052,4.825h11.234Z" transform="translate(-542.03 -390.708)" fill="#bec3ce"/>
    <path id="Caminho_5529" data-name="Caminho 5529" d="M679.427,394.323l-.318-3.618H667.957l.132,3.618Z" transform="translate(-553.769 -386.423)" fill="#bec3ce"/>
    <path id="Caminho_5530" data-name="Caminho 5530" d="M704.019,399.209H692.4l.42,4.825h11.991Z" transform="translate(-566.082 -390.708)" fill="#bec3ce"/>
    <path id="Caminho_5531" data-name="Caminho 5531" d="M725.644,394.323l-.961-3.618h-9.028l.593,3.618Z" transform="translate(-577.799 -386.423)" fill="#bec3ce"/>
    <path id="Caminho_5532" data-name="Caminho 5532" d="M632.086,399.209H620.974l-.072,4.825h11.236Z" transform="translate(-530.063 -390.708)" fill="#bec3ce"/>
    <path id="Caminho_5533" data-name="Caminho 5533" d="M703.544,394.323l-.592-3.618h-11.3l.317,3.618Z" transform="translate(-565.707 -386.423)" fill="#bec3ce"/>
    <path id="Caminho_5534" data-name="Caminho 5534" d="M507.372,394.323l.38-3.618H494.69l-.63,3.618Z" transform="translate(-466.16 -386.423)" fill="#bec3ce"/>
    <path id="Caminho_5535" data-name="Caminho 5535" d="M595.2,410.149l-.066,3.619h12.12l.057-3.619Z" transform="translate(-517.081 -396.219)" fill="#bec3ce"/>
    <path id="Caminho_5536" data-name="Caminho 5536" d="M532.774,410.149H520.443l-.381,3.619H532.6Z" transform="translate(-479.26 -396.219)" fill="#bec3ce"/>
    <path id="Caminho_5537" data-name="Caminho 5537" d="M718.843,410.149l.588,3.619h10.381l-.96-3.619Z" transform="translate(-579.406 -396.219)" fill="#bec3ce"/>
    <path id="Caminho_5538" data-name="Caminho 5538" d="M620.832,410.149l-.055,3.619H632.12l-.039-3.619Z" transform="translate(-530 -396.219)" fill="#bec3ce"/>
    <path id="Caminho_5539" data-name="Caminho 5539" d="M668.66,410.149l.133,3.619h11.827l-.316-3.619Z" transform="translate(-554.123 -396.219)" fill="#bec3ce"/>
    <path id="Caminho_5540" data-name="Caminho 5540" d="M693.348,410.149l.316,3.619h12.313l-.591-3.619Z" transform="translate(-566.561 -396.219)" fill="#bec3ce"/>
    <path id="Caminho_5541" data-name="Caminho 5541" d="M478.748,399.209H466.377l-1.286,4.825h12.815Z" transform="translate(-451.566 -390.708)" fill="#bec3ce"/>
    <path id="Caminho_5542" data-name="Caminho 5542" d="M480.95,390.705H468.966L468,394.323H480.32Z" transform="translate(-453.033 -386.423)" fill="#bec3ce"/>
    <path id="Caminho_5543" data-name="Caminho 5543" d="M491.3,410.149l-.628,3.619h13.978l.378-3.619Z" transform="translate(-464.454 -396.219)" fill="#bec3ce"/>
    <path id="Caminho_5544" data-name="Caminho 5544" d="M463.79,410.149l-.963,3.619h13.2l.629-3.619Z" transform="translate(-450.425 -396.219)" fill="#bec3ce"/>
    <path id="Caminho_5545" data-name="Caminho 5545" d="M740.27,410.149l.962,3.619H751.49l-1.469-3.619Z" transform="translate(-590.2 -396.219)" fill="#bec3ce"/>
    <path id="Caminho_5546" data-name="Caminho 5546" d="M439.187,418.659l-1.354,3.667h10.642l.977-3.667Z" transform="translate(-437.833 -400.506)" fill="#bec3ce"/>
    <path id="Caminho_5547" data-name="Caminho 5547" d="M694.093,418.659l.319,3.667h12.641l-.6-3.667Z" transform="translate(-566.936 -400.506)" fill="#bec3ce"/>
    <path id="Caminho_5548" data-name="Caminho 5548" d="M533.49,399.209H521.465l-.508,4.825h12.3Z" transform="translate(-479.711 -390.708)" fill="#bec3ce"/>
    <path id="Caminho_5549" data-name="Caminho 5549" d="M717.838,404.034h9.948l-1.279-4.825h-9.459Z" transform="translate(-578.501 -390.708)" fill="#bec3ce"/>
    <path id="Caminho_5550" data-name="Caminho 5550" d="M720.227,418.659l.6,3.667h10.814l-.974-3.667Z" transform="translate(-580.103 -400.506)" fill="#bec3ce"/>
    <path id="Caminho_5551" data-name="Caminho 5551" d="M743.5,422.327h10.858l-1.488-3.667H742.533Z" transform="translate(-591.34 -400.506)" fill="#bec3ce"/>
    <path id="Caminho_5552" data-name="Caminho 5552" d="M582.359,410.149H571.023l-.176,3.619h11.447Z" transform="translate(-504.845 -396.219)" fill="#bec3ce"/>
    <path id="Caminho_5553" data-name="Caminho 5553" d="M558,413.768l.176-3.619H546.716l-.177,3.619Z" transform="translate(-492.599 -396.219)" fill="#bec3ce"/>
    <path id="Caminho_5554" data-name="Caminho 5554" d="M492.153,404.034h13.687l.508-4.825H492.994Z" transform="translate(-465.199 -390.708)" fill="#bec3ce"/>
    <path id="Caminho_5555" data-name="Caminho 5555" d="M489.81,418.659l-.64,3.667h14.274l.386-3.667Z" transform="translate(-463.697 -400.506)" fill="#bec3ce"/>
    <path id="Caminho_5556" data-name="Caminho 5556" d="M461.514,418.659l-.977,3.667h13.6l.64-3.667Z" transform="translate(-449.271 -400.506)" fill="#bec3ce"/>
    <path id="Caminho_5557" data-name="Caminho 5557" d="M571.5,399.209l-.236,4.825h11.318l.084-4.825Z" transform="translate(-505.055 -390.708)" fill="#bec3ce"/>
    <path id="Caminho_5558" data-name="Caminho 5558" d="M644.773,410.149l.038,3.619h11.343l-.129-3.619Z" transform="translate(-542.089 -396.219)" fill="#bec3ce"/>
    <path id="Caminho_5559" data-name="Caminho 5559" d="M620.706,418.659l-.054,3.667H632.1l-.039-3.667Z" transform="translate(-529.937 -400.506)" fill="#bec3ce"/>
    <path id="Caminho_5560" data-name="Caminho 5560" d="M644.862,418.659l.042,3.667h11.45l-.134-3.667Z" transform="translate(-542.134 -400.506)" fill="#bec3ce"/>
    <path id="Caminho_5561" data-name="Caminho 5561" d="M519.543,418.659l-.386,3.667h49.757l.054-3.667Z" transform="translate(-478.804 -400.506)" fill="#bec3ce"/>
    <path id="Caminho_5562" data-name="Caminho 5562" d="M668.968,418.659l.134,3.667h12.047l-.321-3.667Z" transform="translate(-554.279 -400.506)" fill="#bec3ce"/>
    <path id="Caminho_5563" data-name="Caminho 5563" d="M558.649,399.209H547.193l-.236,4.825h11.455Z" transform="translate(-492.81 -390.708)" fill="#bec3ce"/>
    <path id="Caminho_5564" data-name="Caminho 5564" d="M607.465,399.209H595.371l-.086,4.825h12.109Z" transform="translate(-517.157 -390.708)" fill="#bec3ce"/>
  </g>
  <g id="Grupo_3283" data-name="Grupo 3283" transform="translate(36.904 131.816)">
    <path id="Caminho_5565" data-name="Caminho 5565" d="M534.756,384.534l.181-3.681H523.392L523,384.534Z" transform="translate(-480.742 -380.852)" fill="#786860"/>
    <path id="Caminho_5566" data-name="Caminho 5566" d="M559.365,384.534l.178-3.681H548.087l-.18,3.681Z" transform="translate(-493.288 -380.852)" fill="#786860"/>
    <path id="Caminho_5567" data-name="Caminho 5567" d="M583.23,384.534l.066-3.681h-10.9l-.18,3.681Z" transform="translate(-505.533 -380.852)" fill="#786860"/>
    <path id="Caminho_5568" data-name="Caminho 5568" d="M458.356,389.493h-8.839l-1.335,3.615h9.21Z" transform="translate(-443.047 -385.205)" fill="#786860"/>
    <path id="Caminho_5569" data-name="Caminho 5569" d="M607.711,384.534l.055-3.681H595.7l-.065,3.681Z" transform="translate(-517.332 -380.852)" fill="#786860"/>
    <path id="Caminho_5570" data-name="Caminho 5570" d="M461.078,380.852h-8.4l-1.36,3.681H460.1Z" transform="translate(-444.627 -380.852)" fill="#786860"/>
    <path id="Caminho_5571" data-name="Caminho 5571" d="M508.563,384.534l.387-3.681H496.182l-.641,3.681Z" transform="translate(-466.906 -380.852)" fill="#786860"/>
    <path id="Caminho_5572" data-name="Caminho 5572" d="M482.2,384.534l.642-3.681H471.248l-.981,3.681Z" transform="translate(-454.173 -380.852)" fill="#786860"/>
    <path id="Caminho_5573" data-name="Caminho 5573" d="M678.9,384.534l-.32-3.681H667.641l.135,3.681Z" transform="translate(-553.61 -380.852)" fill="#786860"/>
    <path id="Caminho_5574" data-name="Caminho 5574" d="M736.068,393.108h8.9l-1.465-3.615h-8.4Z" transform="translate(-587.599 -385.205)" fill="#786860"/>
    <path id="Caminho_5575" data-name="Caminho 5575" d="M738.646,402.818h9.667L746.356,398h-8.989Z" transform="translate(-588.738 -389.49)" fill="#786860"/>
    <path id="Caminho_5576" data-name="Caminho 5576" d="M455.2,398h-9.274l-1.779,4.821h9.769Z" transform="translate(-441.014 -389.49)" fill="#786860"/>
    <path id="Caminho_5577" data-name="Caminho 5577" d="M723.813,384.534l-.979-3.681h-8.59l.6,3.681Z" transform="translate(-577.088 -380.852)" fill="#786860"/>
    <path id="Caminho_5578" data-name="Caminho 5578" d="M702.478,384.534l-.6-3.681H690.906l.318,3.681Z" transform="translate(-565.331 -380.852)" fill="#786860"/>
    <path id="Caminho_5579" data-name="Caminho 5579" d="M742.106,384.534l-1.495-3.681h-7.8l.977,3.681Z" transform="translate(-586.444 -380.852)" fill="#786860"/>
    <path id="Caminho_5580" data-name="Caminho 5580" d="M632.177,384.534l-.039-3.681h-10.9l-.054,3.681Z" transform="translate(-530.207 -380.852)" fill="#786860"/>
    <path id="Caminho_5581" data-name="Caminho 5581" d="M655.5,384.534l-.133-3.681H644.473l.038,3.681Z" transform="translate(-541.938 -380.852)" fill="#786860"/>
    <path id="Caminho_5582" data-name="Caminho 5582" d="M607.573,393.108l.053-3.615H595.547l-.065,3.615Z" transform="translate(-517.256 -385.205)" fill="#786860"/>
    <path id="Caminho_5583" data-name="Caminho 5583" d="M582.946,393.108l.065-3.615H571.974l-.177,3.615Z" transform="translate(-505.324 -385.205)" fill="#786860"/>
    <path id="Caminho_5584" data-name="Caminho 5584" d="M655.7,393.108l-.129-3.615H644.563l.038,3.615Z" transform="translate(-541.983 -385.205)" fill="#786860"/>
    <path id="Caminho_5585" data-name="Caminho 5585" d="M452.174,408.933h-9.831l-1.334,3.617h10.2Z" transform="translate(-439.433 -395)" fill="#786860"/>
    <path id="Caminho_5586" data-name="Caminho 5586" d="M534.1,393.108l.177-3.615H522.492l-.382,3.615Z" transform="translate(-480.292 -385.205)" fill="#786860"/>
    <path id="Caminho_5587" data-name="Caminho 5587" d="M558.948,393.108l.177-3.615H547.667l-.176,3.615Z" transform="translate(-493.079 -385.205)" fill="#786860"/>
    <path id="Caminho_5588" data-name="Caminho 5588" d="M632.16,393.108l-.039-3.615H621.116l-.053,3.615Z" transform="translate(-530.144 -385.205)" fill="#786860"/>
    <path id="Caminho_5589" data-name="Caminho 5589" d="M679.632,398H668.261l.178,4.821h11.615Z" transform="translate(-553.922 -389.49)" fill="#786860"/>
    <path id="Caminho_5590" data-name="Caminho 5590" d="M655.767,398H644.655l.052,4.821h11.234Z" transform="translate(-542.03 -389.49)" fill="#786860"/>
    <path id="Caminho_5591" data-name="Caminho 5591" d="M679.427,393.108l-.318-3.615H667.957l.132,3.615Z" transform="translate(-553.769 -385.205)" fill="#786860"/>
    <path id="Caminho_5592" data-name="Caminho 5592" d="M704.019,398H692.4l.42,4.821h11.991Z" transform="translate(-566.082 -389.49)" fill="#786860"/>
    <path id="Caminho_5593" data-name="Caminho 5593" d="M725.644,393.108l-.961-3.615h-9.028l.593,3.615Z" transform="translate(-577.799 -385.205)" fill="#786860"/>
    <path id="Caminho_5594" data-name="Caminho 5594" d="M632.086,398H620.974l-.072,4.821h11.236Z" transform="translate(-530.063 -389.49)" fill="#786860"/>
    <path id="Caminho_5595" data-name="Caminho 5595" d="M703.544,393.108l-.592-3.615h-11.3l.317,3.615Z" transform="translate(-565.707 -385.205)" fill="#786860"/>
    <path id="Caminho_5596" data-name="Caminho 5596" d="M507.372,393.108l.38-3.615H494.69l-.63,3.615Z" transform="translate(-466.16 -385.205)" fill="#786860"/>
    <path id="Caminho_5597" data-name="Caminho 5597" d="M595.2,408.933l-.066,3.617h12.12l.057-3.617Z" transform="translate(-517.081 -395)" fill="#786860"/>
    <path id="Caminho_5598" data-name="Caminho 5598" d="M532.774,408.933H520.443l-.381,3.617H532.6Z" transform="translate(-479.26 -395)" fill="#786860"/>
    <path id="Caminho_5599" data-name="Caminho 5599" d="M718.843,408.933l.588,3.617h10.381l-.96-3.617Z" transform="translate(-579.406 -395)" fill="#786860"/>
    <path id="Caminho_5600" data-name="Caminho 5600" d="M620.832,408.933l-.055,3.617H632.12l-.039-3.617Z" transform="translate(-530 -395)" fill="#786860"/>
    <path id="Caminho_5601" data-name="Caminho 5601" d="M668.66,408.933l.133,3.617h11.827l-.316-3.617Z" transform="translate(-554.123 -395)" fill="#786860"/>
    <path id="Caminho_5602" data-name="Caminho 5602" d="M693.348,408.933l.316,3.617h12.313l-.591-3.617Z" transform="translate(-566.561 -395)" fill="#786860"/>
    <path id="Caminho_5603" data-name="Caminho 5603" d="M478.748,398H466.377l-1.286,4.821h12.815Z" transform="translate(-451.566 -389.49)" fill="#786860"/>
    <path id="Caminho_5604" data-name="Caminho 5604" d="M480.95,389.493H468.966L468,393.108H480.32Z" transform="translate(-453.033 -385.205)" fill="#786860"/>
    <path id="Caminho_5605" data-name="Caminho 5605" d="M491.3,408.933l-.628,3.617h13.978l.378-3.617Z" transform="translate(-464.454 -395)" fill="#786860"/>
    <path id="Caminho_5606" data-name="Caminho 5606" d="M463.79,408.933l-.963,3.617h13.2l.629-3.617Z" transform="translate(-450.425 -395)" fill="#786860"/>
    <path id="Caminho_5607" data-name="Caminho 5607" d="M740.27,408.933l.962,3.617H751.49l-1.469-3.617Z" transform="translate(-590.2 -395)" fill="#786860"/>
    <path id="Caminho_5608" data-name="Caminho 5608" d="M439.187,417.442l-1.354,3.666h10.642l.977-3.666Z" transform="translate(-437.833 -399.286)" fill="#786860"/>
    <path id="Caminho_5609" data-name="Caminho 5609" d="M694.093,417.442l.319,3.666h12.641l-.6-3.666Z" transform="translate(-566.936 -399.286)" fill="#786860"/>
    <path id="Caminho_5610" data-name="Caminho 5610" d="M533.49,398H521.465l-.508,4.821h12.3Z" transform="translate(-479.711 -389.49)" fill="#786860"/>
    <path id="Caminho_5611" data-name="Caminho 5611" d="M717.838,402.818h9.948L726.507,398h-9.459Z" transform="translate(-578.501 -389.49)" fill="#786860"/>
    <path id="Caminho_5612" data-name="Caminho 5612" d="M720.227,417.442l.6,3.666h10.814l-.974-3.666Z" transform="translate(-580.103 -399.286)" fill="#786860"/>
    <path id="Caminho_5613" data-name="Caminho 5613" d="M743.5,421.108h10.858l-1.488-3.666H742.533Z" transform="translate(-591.34 -399.286)" fill="#786860"/>
    <path id="Caminho_5614" data-name="Caminho 5614" d="M582.359,408.933H571.023l-.176,3.617h11.447Z" transform="translate(-504.845 -395)" fill="#786860"/>
    <path id="Caminho_5615" data-name="Caminho 5615" d="M558,412.551l.176-3.617H546.716l-.177,3.617Z" transform="translate(-492.599 -395)" fill="#786860"/>
    <path id="Caminho_5616" data-name="Caminho 5616" d="M492.153,402.818h13.687l.508-4.821H492.994Z" transform="translate(-465.199 -389.49)" fill="#786860"/>
    <path id="Caminho_5617" data-name="Caminho 5617" d="M489.81,417.442l-.64,3.666h14.274l.386-3.666Z" transform="translate(-463.697 -399.286)" fill="#786860"/>
    <path id="Caminho_5618" data-name="Caminho 5618" d="M461.514,417.442l-.977,3.666h13.6l.64-3.666Z" transform="translate(-449.271 -399.286)" fill="#786860"/>
    <path id="Caminho_5619" data-name="Caminho 5619" d="M571.5,398l-.236,4.821h11.318l.084-4.821Z" transform="translate(-505.055 -389.49)" fill="#786860"/>
    <path id="Caminho_5620" data-name="Caminho 5620" d="M644.773,408.933l.038,3.617h11.343l-.129-3.617Z" transform="translate(-542.089 -395)" fill="#786860"/>
    <path id="Caminho_5621" data-name="Caminho 5621" d="M620.706,417.442l-.054,3.666H632.1l-.039-3.666Z" transform="translate(-529.937 -399.286)" fill="#786860"/>
    <path id="Caminho_5622" data-name="Caminho 5622" d="M644.862,417.442l.042,3.666h11.45l-.134-3.666Z" transform="translate(-542.134 -399.286)" fill="#786860"/>
    <path id="Caminho_5623" data-name="Caminho 5623" d="M519.543,417.442l-.386,3.666h49.757l.054-3.666Z" transform="translate(-478.804 -399.286)" fill="#786860"/>
    <path id="Caminho_5624" data-name="Caminho 5624" d="M668.968,417.442l.134,3.666h12.047l-.321-3.666Z" transform="translate(-554.279 -399.286)" fill="#786860"/>
    <path id="Caminho_5625" data-name="Caminho 5625" d="M558.649,398H547.193l-.236,4.821h11.455Z" transform="translate(-492.81 -389.49)" fill="#786860"/>
    <path id="Caminho_5626" data-name="Caminho 5626" d="M607.465,398H595.371l-.086,4.821h12.109Z" transform="translate(-517.157 -389.49)" fill="#786860"/>
  </g>
  <path id="Caminho_5627" data-name="Caminho 5627" d="M606.775,295.264l-3.435-2.125c-4.507-6.72-.184-30.865-9.93-34.2-.147-.05-.794,3.846-.948,3.851l.031-.772c-4.512-9.472.206-43.441-8.668-43.708L539.151,253.45c-4.464,0-4.469,4.573-4.5,7.194l-.436,22.39-2.93-.02c-4.791-.033-8.739,2.837-9.064,6.49H522.2l-.335,29.453-5.706-.039a6.419,6.419,0,0,0-.534,2.478c-.051,4.439,4.556,8.069,10.288,8.108.319,0,.633-.008.944-.028v.034l75.384.514c5.732.039,10.022-3.55,10.471-7.967.255-2.51-5.94-26.794-5.94-26.794Z" transform="translate(-440.123 -167.147)" fill="#786860" opacity="0.42" style="mix-blend-mode: multiply;isolation: isolate"/>
  <path id="Caminho_5628" data-name="Caminho 5628" d="M450.473,324.878a.284.284,0,1,0,.284-.262A.274.274,0,0,0,450.473,324.878Z" transform="translate(-407.297 -220.705)" fill="#f48baa" style="mix-blend-mode: multiply;isolation: isolate"/>
  <path id="Caminho_5629" data-name="Caminho 5629" d="M596.3,328.378l-1.777-.016.229-26.016a7.507,7.507,0,0,0-4.2-1.4c-.276,0-.5-5.055-.776-5.032v-.039l-65.413-.576a9.007,9.007,0,0,0-9.063,8.382h-.018l-.367,41.69,84.229,2.606.049-5.531-3.017-.026Z" transform="translate(-439.763 -205.934)" fill="#c6cedb" style="mix-blend-mode: multiply;isolation: isolate"/>
  <path id="Caminho_5630" data-name="Caminho 5630" d="M597.53,228.79c0-6.339-.609-10.482-4.427-10.482H539.2c-4.464,0-4.469,5.9-4.5,9.291l-.655,43.448,2.432,2.475,60.375.531Z" transform="translate(-449.401 -167.147)" fill="#fff"/>
  <g id="Grupo_3287" data-name="Grupo 3287" transform="translate(92.068 75.939)" opacity="0.45">
    <g id="Grupo_3284" data-name="Grupo 3284" transform="translate(46.204 0)">
      <path id="Caminho_5631" data-name="Caminho 5631" d="M642.369,268.741l1.561,0a.247.247,0,0,0,0-.493l-1.561,0a.247.247,0,1,0,0,.493Z" transform="translate(-642.121 -268.243)" fill="#786860"/>
    </g>
    <g id="Grupo_3285" data-name="Grupo 3285" transform="translate(4.537 0.013)">
      <path id="Caminho_5632" data-name="Caminho 5632" d="M558.15,268.63a.246.246,0,0,1,.246-.247l2.976-.009a.247.247,0,0,1,0,.493l-2.976.008A.247.247,0,0,1,558.15,268.63Zm5.952-.017a.247.247,0,0,1,.246-.248l2.976-.008a.247.247,0,0,1,0,.493l-2.976.008A.247.247,0,0,1,564.1,268.613Zm5.952-.017a.247.247,0,0,1,.246-.248l2.976-.008a.247.247,0,1,1,0,.493l-2.976.008A.246.246,0,0,1,570.055,268.6Zm5.952-.017a.247.247,0,0,1,.246-.248l2.976-.008a.246.246,0,1,1,0,.493l-2.976.009A.246.246,0,0,1,576.007,268.578Zm5.952-.017a.247.247,0,0,1,.246-.248l2.976-.008a.246.246,0,0,1,0,.493l-2.976.009A.246.246,0,0,1,581.96,268.561Zm5.953-.017a.246.246,0,0,1,.246-.248l2.976-.008a.246.246,0,0,1,0,.493l-2.976.009A.246.246,0,0,1,587.912,268.543Zm5.952-.017a.247.247,0,0,1,.246-.248l2.976-.008a.246.246,0,1,1,0,.493l-2.976.009A.246.246,0,0,1,593.864,268.526Z" transform="translate(-558.15 -268.27)" fill="#786860"/>
    </g>
    <g id="Grupo_3286" data-name="Grupo 3286" transform="translate(0 0.135)">
      <path id="Caminho_5633" data-name="Caminho 5633" d="M549.253,269.013l1.562,0a.246.246,0,0,0,0-.493l-1.562,0a.247.247,0,0,0,0,.493Z" transform="translate(-549.006 -268.515)" fill="#786860"/>
    </g>
  </g>
  <g id="Grupo_3288" data-name="Grupo 3288" transform="translate(98.844 67.619)" opacity="0.45">
    <path id="Caminho_5634" data-name="Caminho 5634" d="M562.662,252.245a.662.662,0,0,0,.664.66l35.828-.1a.662.662,0,0,0,.659-.663h0a.662.662,0,0,0-.663-.66l-35.828.1a.662.662,0,0,0-.659.663Z" transform="translate(-562.662 -251.477)" fill="#786860"/>
  </g>
  <g id="Grupo_3289" data-name="Grupo 3289" transform="translate(106.132 71.406)" opacity="0.45">
    <path id="Caminho_5635" data-name="Caminho 5635" d="M577.351,259.834a.661.661,0,0,0,.663.659l21.578-.063a.662.662,0,0,0,.66-.664h0a.662.662,0,0,0-.664-.659l-21.578.063a.662.662,0,0,0-.659.663Z" transform="translate(-577.351 -259.108)" fill="#786860"/>
  </g>
  <path id="Caminho_5636" data-name="Caminho 5636" d="M572.979,288.089a.864.864,0,0,0-.861-.868l-21.67-.027a.866.866,0,0,0-.868.862h0a.865.865,0,0,0,.86.868l21.672.026a.864.864,0,0,0,.867-.861Z" transform="translate(-457.228 -201.852)" fill="#786860" opacity="0.45"/>
  <path id="Caminho_5637" data-name="Caminho 5637" d="M637.044,288.257a.865.865,0,0,0-.861-.868l-7.827-.017a.864.864,0,0,0-.867.861h0a.863.863,0,0,0,.861.868l7.826.018a.865.865,0,0,0,.868-.861Z" transform="translate(-496.478 -201.941)" fill="#786860" opacity="0.45"/>
  <path id="Caminho_5638" data-name="Caminho 5638" d="M637.044,276.833a.865.865,0,0,0-.861-.868l-7.827-.017a.864.864,0,0,0-.867.861h0a.863.863,0,0,0,.861.868l7.826.018a.865.865,0,0,0,.868-.861Z" transform="translate(-496.478 -196.185)" fill="#786860" opacity="0.45"/>
  <path id="Caminho_5639" data-name="Caminho 5639" d="M576.742,276.832a.864.864,0,0,0-.861-.868l-25.4-.042a.865.865,0,0,0-.868.861h0a.863.863,0,0,0,.861.867l25.4.043a.865.865,0,0,0,.868-.861Z" transform="translate(-457.243 -196.173)" fill="#786860" opacity="0.45"/>
  <path id="Caminho_5640" data-name="Caminho 5640" d="M636.521,296.524a.91.91,0,0,0-.906-.914l-8.233-.018a.909.909,0,0,0-.913.906h0a.908.908,0,0,0,.906.913l8.232.019a.91.91,0,0,0,.914-.906Z" transform="translate(-495.964 -206.083)" fill="#786860"/>
  <path id="Caminho_5641" data-name="Caminho 5641" d="M573.083,296.523a.909.909,0,0,0-.906-.913l-26.725-.044a.909.909,0,0,0-.912.906h0a.907.907,0,0,0,.906.912l26.725.045a.911.911,0,0,0,.913-.906Z" transform="translate(-454.688 -206.069)" fill="#786860"/>
  <path id="Caminho_5642" data-name="Caminho 5642" d="M535.095,285.936l-.117,13.315,62.326.554.087-9.851Z" transform="translate(-449.871 -201.218)" fill="#786860" opacity="0.28" style="mix-blend-mode: multiply;isolation: isolate"/>
  <g id="Grupo_3290" data-name="Grupo 3290" transform="translate(72.486 88.028)">
    <path id="Caminho_5643" data-name="Caminho 5643" d="M594.137,301.727a9.007,9.007,0,0,0-8.915-8.539c-.276,0-.549.009-.819.032v-.039l-65.412-.575a9.007,9.007,0,0,0-9.064,8.381h-.017l-.367,41.69,84.228,2.606.383-43.555Z" transform="translate(-509.542 -292.605)" fill="#fff"/>
    <rect id="Retângulo_2891" data-name="Retângulo 2891" width="22.574" height="2.446" transform="translate(13.932 54.951) rotate(-89.493)" fill="#786860" opacity="0.45"/>
    <rect id="Retângulo_2892" data-name="Retângulo 2892" width="22.574" height="1.223" transform="translate(17.464 54.982) rotate(-89.489)" fill="#786860" opacity="0.45"/>
    <rect id="Retângulo_2893" data-name="Retângulo 2893" width="22.573" height="0.611" transform="translate(20.048 55.005) rotate(-89.497)" fill="#786860" opacity="0.45"/>
    <rect id="Retângulo_2894" data-name="Retângulo 2894" width="22.574" height="2.484" transform="matrix(0.009, -1, 1, 0.009, 21.523, 55.018)" fill="#786860" opacity="0.45"/>
    <rect id="Retângulo_2895" data-name="Retângulo 2895" width="22.574" height="2.447" transform="translate(24.466 55.044) rotate(-89.499)" fill="#786860" opacity="0.45"/>
    <rect id="Retângulo_2896" data-name="Retângulo 2896" width="22.574" height="1.223" transform="translate(27.997 55.075) rotate(-89.481)" fill="#786860" opacity="0.45"/>
    <rect id="Retângulo_2897" data-name="Retângulo 2897" width="22.574" height="0.612" transform="matrix(0.009, -1, 1, 0.009, 29.97, 55.092)" fill="#786860" opacity="0.45"/>
    <rect id="Retângulo_2898" data-name="Retângulo 2898" width="22.573" height="2.483" transform="translate(32.056 55.11) rotate(-89.493)" fill="#786860" opacity="0.45"/>
    <rect id="Retângulo_2899" data-name="Retângulo 2899" width="22.573" height="0.612" transform="matrix(0.009, -1, 1, 0.009, 36.087, 55.146)" fill="#786860" opacity="0.45"/>
    <rect id="Retângulo_2900" data-name="Retângulo 2900" width="22.574" height="1.511" transform="translate(37.153 55.155) rotate(-89.501)" fill="#786860" opacity="0.45"/>
    <rect id="Retângulo_2901" data-name="Retângulo 2901" width="22.573" height="2.258" transform="matrix(0.009, -1, 1, 0.009, 39.259, 55.174)" fill="#786860" opacity="0.45"/>
    <rect id="Retângulo_2902" data-name="Retângulo 2902" width="22.574" height="2.445" transform="translate(42.643 55.204) rotate(-89.5)" fill="#786860" opacity="0.45"/>
    <rect id="Retângulo_2903" data-name="Retângulo 2903" width="22.574" height="1.223" transform="matrix(0.009, -1, 1, 0.009, 46.177, 55.235)" fill="#786860" opacity="0.45"/>
    <rect id="Retângulo_2904" data-name="Retângulo 2904" width="22.574" height="0.611" transform="translate(48.749 55.257) rotate(-89.456)" fill="#786860" opacity="0.45"/>
    <rect id="Retângulo_2905" data-name="Retângulo 2905" width="22.574" height="2.483" transform="translate(50.234 55.271) rotate(-89.502)" fill="#786860" opacity="0.45"/>
    <rect id="Retângulo_2906" data-name="Retângulo 2906" width="22.574" height="2.446" transform="translate(53.174 55.296) rotate(-89.486)" fill="#786860" opacity="0.45"/>
    <rect id="Retângulo_2907" data-name="Retângulo 2907" width="22.573" height="1.223" transform="translate(56.708 55.327) rotate(-89.491)" fill="#786860" opacity="0.45"/>
    <rect id="Retângulo_2908" data-name="Retângulo 2908" width="22.574" height="0.611" transform="translate(58.685 55.345) rotate(-89.53)" fill="#786860" opacity="0.45"/>
    <rect id="Retângulo_2909" data-name="Retângulo 2909" width="22.574" height="2.483" transform="translate(60.766 55.363) rotate(-89.492)" fill="#786860" opacity="0.45"/>
    <rect id="Retângulo_2910" data-name="Retângulo 2910" width="22.574" height="0.613" transform="matrix(0.009, -1, 1, 0.009, 64.792, 55.398)" fill="#786860" opacity="0.45"/>
    <rect id="Retângulo_2911" data-name="Retângulo 2911" width="22.574" height="1.511" transform="matrix(0.009, -1, 1, 0.009, 65.861, 55.408)" fill="#786860" opacity="0.45"/>
    <rect id="Retângulo_2912" data-name="Retângulo 2912" width="22.574" height="2.258" transform="translate(67.968 55.426) rotate(-89.5)" fill="#786860" opacity="0.45"/>
  </g>
  <path id="Caminho_5644" data-name="Caminho 5644" d="M558.416,330.767a1.276,1.276,0,0,0-1.271-1.281l-31.979-.04a1.278,1.278,0,0,0-1.281,1.272h0a1.275,1.275,0,0,0,1.27,1.28l31.981.039a1.275,1.275,0,0,0,1.28-1.27Z" transform="translate(-444.282 -223.138)" fill="#786860" opacity="0.45"/>
  <path id="Caminho_5645" data-name="Caminho 5645" d="M643.225,331.014a1.278,1.278,0,0,0-1.271-1.282l-11.55-.025a1.276,1.276,0,0,0-1.28,1.271h0a1.273,1.273,0,0,0,1.271,1.28l11.548.026a1.276,1.276,0,0,0,1.282-1.27Z" transform="translate(-497.302 -223.27)" fill="#786860" opacity="0.45"/>
  <path id="Caminho_5646" data-name="Caminho 5646" d="M643.225,314.155a1.277,1.277,0,0,0-1.271-1.282l-11.55-.026a1.276,1.276,0,0,0-1.28,1.271h0a1.273,1.273,0,0,0,1.271,1.28l11.548.027a1.277,1.277,0,0,0,1.282-1.27Z" transform="translate(-497.302 -214.776)" fill="#786860" opacity="0.45"/>
  <path id="Caminho_5647" data-name="Caminho 5647" d="M563.969,314.154a1.274,1.274,0,0,0-1.27-1.28l-37.488-.062a1.275,1.275,0,0,0-1.281,1.271h0a1.273,1.273,0,0,0,1.271,1.279l37.488.064a1.277,1.277,0,0,0,1.281-1.271Z" transform="translate(-444.305 -214.758)" fill="#786860" opacity="0.45"/>
  <path id="Caminho_5648" data-name="Caminho 5648" d="M509.6,381l-.058,6.56,84.228,2.605.1-11.073Z" transform="translate(-437.056 -248.151)" fill="#786860" opacity="0.28" style="mix-blend-mode: multiply;isolation: isolate"/>
  <path id="Caminho_5649" data-name="Caminho 5649" d="M593.638,389.54l-9.873-.086-9.874-.087-56.58-.5-8.929-.079-10.818-.1a10.382,10.382,0,0,0,9.754,13.671c.319,0,.633-.011.944-.036v.044l75.384.663a10.381,10.381,0,0,0,9.992-13.5Z" transform="translate(-430.752 -252.988)" fill="#fff"/>
  <g id="Grupo_3291" data-name="Grupo 3291" transform="translate(91.668 56.786)">
    <path id="Caminho_5650" data-name="Caminho 5650" d="M550.265,229.924l1.191,4.367h.02v-4.367H553.2v7.086h-2.025l-1.231-4.376h-.02v4.376H548.2v-7.086Z" transform="translate(-548.201 -229.785)" fill="#786860"/>
    <path id="Caminho_5651" data-name="Caminho 5651" d="M559.75,231.634a3,3,0,0,1,.427-1.141,1.73,1.73,0,0,1,.784-.645,3.587,3.587,0,0,1,2.382,0,1.732,1.732,0,0,1,.784.645,3,3,0,0,1,.427,1.141,11.159,11.159,0,0,1,0,3.384,2.993,2.993,0,0,1-.427,1.141,1.638,1.638,0,0,1-.784.63,3.845,3.845,0,0,1-2.382,0,1.636,1.636,0,0,1-.784-.63,2.992,2.992,0,0,1-.427-1.141,11.164,11.164,0,0,1,0-3.384Zm1.8,2.878a4.188,4.188,0,0,0,.084.749.729.729,0,0,0,.189.388.563.563,0,0,0,.665,0,.729.729,0,0,0,.189-.388,4.246,4.246,0,0,0,.084-.749c.014-.315.02-.71.02-1.186s-.006-.871-.02-1.185a4.252,4.252,0,0,0-.084-.749.728.728,0,0,0-.189-.387.561.561,0,0,0-.665,0,.728.728,0,0,0-.189.387,4.194,4.194,0,0,0-.084.749q-.02.471-.02,1.185T561.546,234.512Z" transform="translate(-553.955 -229.644)" fill="#786860"/>
    <path id="Caminho_5652" data-name="Caminho 5652" d="M570.281,231.492v-1.568h4.6v1.568H573.5v5.518h-1.846v-5.518Z" transform="translate(-559.325 -229.785)" fill="#786860"/>
    <path id="Caminho_5653" data-name="Caminho 5653" d="M582.24,229.924l1.727,7.086H582l-.189-1.241h-1.469l-.188,1.241h-1.935l1.7-7.086Zm-1.171,1.449-.506,3.007H581.6l-.506-3.007Z" transform="translate(-563.325 -229.785)" fill="#786860"/>
    <path id="Caminho_5654" data-name="Caminho 5654" d="M599.818,229.924v1.508h-2.352v1.211h2.2v1.449h-2.2v2.918H595.62v-7.086Z" transform="translate(-572.091 -229.785)" fill="#786860"/>
    <path id="Caminho_5655" data-name="Caminho 5655" d="M606.946,229.924v7.086H605.1v-7.086Z" transform="translate(-576.867 -229.785)" fill="#786860"/>
    <path id="Caminho_5656" data-name="Caminho 5656" d="M612.977,231.659a1.065,1.065,0,0,0-.129-.541.427.427,0,0,0-.4-.223.5.5,0,0,0-.436.193.721.721,0,0,0-.139.432.71.71,0,0,0,.223.551,2.084,2.084,0,0,0,.561.352c.225.1.467.2.724.3a3.249,3.249,0,0,1,.725.4,2,2,0,0,1,.561.65,2.146,2.146,0,0,1,.223,1.046,1.97,1.97,0,0,1-.645,1.643,2.95,2.95,0,0,1-1.866.511,4.888,4.888,0,0,1-1.017-.095,1.819,1.819,0,0,1-.744-.327,1.482,1.482,0,0,1-.462-.61,2.416,2.416,0,0,1-.158-.933v-.248h1.786v.169a.949.949,0,0,0,.168.64.567.567,0,0,0,.437.183.525.525,0,0,0,.442-.2.77.77,0,0,0,.154-.486.725.725,0,0,0-.213-.55,1.891,1.891,0,0,0-.536-.348q-.323-.143-.7-.292a3.092,3.092,0,0,1-.7-.387,1.922,1.922,0,0,1-.536-.625,2.1,2.1,0,0,1-.213-1.012,2.206,2.206,0,0,1,.576-1.647,2.4,2.4,0,0,1,1.746-.566,2.465,2.465,0,0,1,1.752.521,2.222,2.222,0,0,1,.541,1.662h-1.726Z" transform="translate(-579.335 -229.644)" fill="#786860"/>
    <path id="Caminho_5657" data-name="Caminho 5657" d="M623.678,231.113a.408.408,0,0,0-.387-.218.484.484,0,0,0-.332.109.724.724,0,0,0-.189.387,4.281,4.281,0,0,0-.084.749q-.02.471-.02,1.185t.02,1.186a4.275,4.275,0,0,0,.084.749.725.725,0,0,0,.189.388.483.483,0,0,0,.332.109.439.439,0,0,0,.278-.084.54.54,0,0,0,.169-.282,2.606,2.606,0,0,0,.084-.531q.025-.333.025-.839h1.786v.526a3.207,3.207,0,0,1-.2,1.221,1.908,1.908,0,0,1-.526.75,1.748,1.748,0,0,1-.749.367,3.959,3.959,0,0,1-.868.095,3.615,3.615,0,0,1-1.27-.189,1.526,1.526,0,0,1-.774-.63,2.937,2.937,0,0,1-.382-1.141,11.715,11.715,0,0,1-.1-1.693,10.079,10.079,0,0,1,.124-1.716,2.91,2.91,0,0,1,.422-1.141,1.678,1.678,0,0,1,.784-.63,3.252,3.252,0,0,1,1.2-.194,3.129,3.129,0,0,1,1.062.158,1.783,1.783,0,0,1,.71.452,1.763,1.763,0,0,1,.4.7,3.233,3.233,0,0,1,.124.928v.446H623.8v-.4A1.927,1.927,0,0,0,623.678,231.113Z" transform="translate(-584.756 -229.644)" fill="#786860"/>
    <path id="Caminho_5658" data-name="Caminho 5658" d="M634.858,229.924l1.727,7.086H634.62l-.188-1.241h-1.469l-.189,1.241h-1.935l1.7-7.086Zm-1.171,1.449-.506,3.007h1.032l-.507-3.007Z" transform="translate(-589.834 -229.785)" fill="#786860"/>
    <path id="Caminho_5659" data-name="Caminho 5659" d="M644.885,229.924V235.5h2.273v1.508h-4.119v-7.086Z" transform="translate(-595.98 -229.785)" fill="#786860"/>
  </g>
  <g id="Grupo_3292" data-name="Grupo 3292" transform="translate(154.742 66.316)" opacity="0.42" style="mix-blend-mode: multiply;isolation: isolate">
    <path id="Caminho_5660" data-name="Caminho 5660" d="M688.66,266.457h-6.082a.77.77,0,0,1,0-1.54h6.082a.77.77,0,0,1,0,1.54Z" transform="translate(-674.842 -256.945)" fill="#786860"/>
    <path id="Caminho_5661" data-name="Caminho 5661" d="M681.77,274.234H668.531a.77.77,0,0,1,0-1.54H681.77a.77.77,0,0,1,0,1.54Z" transform="translate(-667.765 -260.863)" fill="#786860"/>
    <path id="Caminho_5662" data-name="Caminho 5662" d="M703.033,273.875a12.326,12.326,0,0,1-9.962-5.01.771.771,0,0,1,.153-1.078.761.761,0,0,1,1.071.154,10.812,10.812,0,0,0,8.738,4.394,10.973,10.973,0,0,0,0-21.945,10.81,10.81,0,0,0-8.743,4.4.764.764,0,0,1-1.073.155.773.773,0,0,1-.154-1.078,12.327,12.327,0,0,1,9.969-5.02,12.513,12.513,0,0,1,0,25.025Z" transform="translate(-680.434 -248.85)" fill="#786860"/>
    <path id="Caminho_5663" data-name="Caminho 5663" d="M709.766,273.983a.763.763,0,0,1-.575-.262l-2.725-3.114a.772.772,0,0,1,.069-1.086.763.763,0,0,1,1.081.07l2.725,3.114a.772.772,0,0,1-.069,1.086A.76.76,0,0,1,709.766,273.983Z" transform="translate(-687.166 -259.167)" fill="#786860"/>
    <path id="Caminho_5664" data-name="Caminho 5664" d="M717.484,266.327a.761.761,0,0,1,1.079.083.771.771,0,0,1-.083,1.085l-5.449,4.7a.761.761,0,0,1-1.079-.083.771.771,0,0,1,.083-1.085" transform="translate(-689.933 -257.561)" fill="#786860"/>
    <path id="Caminho_5665" data-name="Caminho 5665" d="M685.791,281.807h-8.907a.77.77,0,0,1,0-1.54h8.907a.77.77,0,0,1,0,1.54Z" transform="translate(-671.973 -264.678)" fill="#786860"/>
  </g>
  <g id="Grupo_3293" data-name="Grupo 3293" transform="translate(155.399 66.084)">
    <path id="Caminho_5666" data-name="Caminho 5666" d="M688.9,265h-5.772a.727.727,0,1,1,0-1.454H688.9a.727.727,0,0,1,0,1.454Z" transform="translate(-675.789 -256.025)" fill="#fff"/>
    <path id="Caminho_5667" data-name="Caminho 5667" d="M682.364,272.345H669.8a.727.727,0,0,1,0-1.453h12.565a.727.727,0,1,1,0,1.453Z" transform="translate(-669.073 -259.723)" fill="#fff"/>
    <path id="Caminho_5668" data-name="Caminho 5668" d="M702.544,272.007a11.72,11.72,0,0,1-9.455-4.73.727.727,0,0,1,1.163-.872,10.36,10.36,0,1,0,0-12.412.727.727,0,1,1-1.164-.872,11.813,11.813,0,1,1,9.461,18.886Z" transform="translate(-681.096 -248.383)" fill="#fff"/>
    <path id="Caminho_5669" data-name="Caminho 5669" d="M708.933,272.108a.726.726,0,0,1-.546-.247l-2.586-2.94a.727.727,0,1,1,1.092-.96l2.586,2.94a.726.726,0,0,1-.546,1.206Z" transform="translate(-687.485 -258.123)" fill="#fff"/>
    <path id="Caminho_5670" data-name="Caminho 5670" d="M716.258,264.882a.726.726,0,0,1,.946,1.1l-5.171,4.433a.727.727,0,0,1-.946-1.1" transform="translate(-690.111 -256.607)" fill="#fff"/>
    <path id="Caminho_5671" data-name="Caminho 5671" d="M686.18,279.495h-8.453a.727.727,0,1,1,0-1.454h8.453a.727.727,0,1,1,0,1.454Z" transform="translate(-673.067 -263.325)" fill="#fff"/>
  </g>
</svg>
