<svg xmlns="http://www.w3.org/2000/svg" xmlns:xlink="http://www.w3.org/1999/xlink" width="315.384" height="161.287" viewBox="0 0 315.384 161.287">
  <defs>
    <style>
      .cls-1, .cls-16 {
        opacity: 0.23;
      }

      .cls-1 {
        fill: url(#radial-gradient);
      }

      .cls-2 {
        fill: #ebebeb;
      }

      .cls-16, .cls-3 {
        fill: #fff;
      }

      .cls-4 {
        fill: #4b3f37;
      }

      .cls-5 {
        fill: url(#linear-gradient);
      }

      .cls-6 {
        fill: #5f3433;
      }

      .cls-7 {
        fill: #804847;
      }

      .cls-8 {
        fill: #6fad4f;
      }

      .cls-9 {
        fill: #3b673c;
      }

      .cls-10 {
        fill: #efd823;
      }

      .cls-11 {
        fill: #ed8000;
      }

      .cls-12 {
        fill: #fa0014;
      }

      .cls-13 {
        opacity: 0.52;
        fill: url(#radial-gradient-2);
      }

      .cls-14, .cls-15 {
        fill: #786860;
      }

      .cls-14, .cls-17 {
        opacity: 0.5;
      }
    </style>
    <radialGradient id="radial-gradient" cx="0.5" cy="0.5" r="0.701" gradientTransform="translate(0.205 -0.064) scale(0.564 1.131)" gradientUnits="objectBoundingBox">
      <stop offset="0" stop-color="#f6f7fc"/>
      <stop offset="0.126" stop-color="#edecf1"/>
      <stop offset="0.348" stop-color="#d5d2d3"/>
      <stop offset="0.639" stop-color="#afa6a4"/>
      <stop offset="0.985" stop-color="#7a6a62"/>
      <stop offset="1" stop-color="#786860"/>
    </radialGradient>
    <linearGradient id="linear-gradient" y1="0.5" x2="1" y2="0.5" gradientUnits="objectBoundingBox">
      <stop offset="0.003" stop-color="#9f938d"/>
      <stop offset="0.139" stop-color="#8f827b"/>
      <stop offset="0.362" stop-color="#7b6c65"/>
      <stop offset="0.503" stop-color="#74645d"/>
      <stop offset="0.697" stop-color="#62544d"/>
      <stop offset="1" stop-color="#40342d"/>
    </linearGradient>
    <radialGradient id="radial-gradient-2" cx="0.5" cy="0.5" r="0.429" gradientTransform="translate(-0.225) scale(1.45 1)" xlink:href="#radial-gradient"/>
  </defs>
  <g id="Grupo_4286" data-name="Grupo 4286" transform="translate(2715.102 -3661.823)">
    <path id="Caminho_6719" data-name="Caminho 6719" class="cls-1" d="M5131.5,229.974c-15.638,0-50.264-6.964-71.906,4.9-8.363,4.586-15.418,14.87-19.354,21.948-3.531,6.346-9.965,9.729-17.856,12.924-14.6,5.916-32.4,11.623-41.352,22.606-12.677,15.557,1.484,33.09,22.833,39.264,17.706,5.12,50.521,11.18,97.967,3.33,11.021-1.824,43.458-3.212,54.453-.774,13.962,3.1,20.115,7.859,34.534,9.548,17.877,2.094,115.909-4.906,98.815-37.639-2.8-5.353-13.965-5.341-20.167-9-8.724-5.148-9.994-10.606-12.444-18.2-5.794-17.955-28.136-17.955-36.163-35.751S5153.952,229.971,5131.5,229.974Z" transform="translate(-7691.343 3479.05)"/>
    <g id="Grupo_3835" data-name="Grupo 3835" transform="translate(-2536.915 3744.983)">
      <g id="Grupo_3833" data-name="Grupo 3833" transform="translate(0 0)">
        <g id="Grupo_3831" data-name="Grupo 3831" transform="translate(2.035 0.66)">
          <path id="Caminho_6721" data-name="Caminho 6721" class="cls-2" d="M5286.958,371.875v39.117h66.722V371.875l-33.564-18.321Z" transform="translate(-5242.491 -353.554)"/>
          <path id="Caminho_6722" data-name="Caminho 6722" class="cls-3" d="M5286.958,381.107v32.626h66.722V381.107l-33.564-18.321Z" transform="translate(-5242.491 -356.296)"/>
          <rect id="Retângulo_3112" data-name="Retângulo 3112" class="cls-2" width="44.466" height="38.583" transform="translate(0 18.855)"/>
        </g>
        <g id="Grupo_3832" data-name="Grupo 3832" transform="translate(0 0.165)">
          <path id="Caminho_6723" data-name="Caminho 6723" class="cls-4" d="M5220.815,373.481v2.545h43.759l36.413-20.646,36.221,20.537v-2.436L5301.1,352.85Z" transform="translate(-5220.815 -352.85)"/>
          <path id="Caminho_6724" data-name="Caminho 6724" class="cls-3" d="M5386.368,385.769h.193l-.193-.109Z" transform="translate(-5269.975 -362.593)"/>
        </g>
        <path id="Caminho_6725" data-name="Caminho 6725" class="cls-5" d="M5220.815,373.316h43.759L5301.1,352.78l-43.773-.165Z" transform="translate(-5220.815 -352.615)"/>
        <path id="Caminho_6726" data-name="Caminho 6726" class="cls-6" d="M5381.7,384.841h3.281L5381.7,382.9Z" transform="translate(-5268.59 -361.608)"/>
      </g>
      <rect id="Retângulo_3113" data-name="Retângulo 3113" class="cls-4" width="29.481" height="22.41" transform="translate(65.122 35.695)"/>
      <rect id="Retângulo_3114" data-name="Retângulo 3114" class="cls-2" width="29.481" height="3.132" transform="translate(65.122 32.563)"/>
      <g id="Grupo_3834" data-name="Grupo 3834" transform="translate(10.504 31.779)">
        <rect id="Retângulo_3115" data-name="Retângulo 3115" class="cls-5" width="25.726" height="8.752" transform="translate(0.901 0.901)"/>
        <path id="Caminho_6727" data-name="Caminho 6727" class="cls-3" d="M5235.756,408.369h27.527V397.816h-27.527Zm1.8-8.752h23.925v6.95h-23.925Z" transform="translate(-5235.756 -397.816)"/>
      </g>
    </g>
    <g id="Grupo_3838" data-name="Grupo 3838" transform="translate(-2557.409 3760.438)">
      <path id="Caminho_6728" data-name="Caminho 6728" class="cls-7" d="M5229.856,419.305V416.08h-1.28v3.225a12.948,12.948,0,0,0-3.3-3.743l-.855.838c.852.667,3.013,2.717,3.013,4.107l-.3,8.918h3.737l-.271-8.918c0-1.394,2.24-3.455,3.091-4.121l-.746-.825A13.3,13.3,0,0,0,5229.856,419.305Z" transform="translate(-5201.392 -386.762)"/>
      <g id="Grupo_3837" data-name="Grupo 3837">
        <path id="Caminho_6729" data-name="Caminho 6729" class="cls-8" d="M5199.022,429.84c0-.039.007-.079.007-.12a1.545,1.545,0,0,0-1.623-1.451,1.757,1.757,0,0,0-.9.24,2.494,2.494,0,0,0-1.7-.646,2.246,2.246,0,0,0-2.361,2.111c0,.015,0,.03,0,.046a1.676,1.676,0,0,0-.788,1.4,1.747,1.747,0,0,0,1.77,1.661h5.016a1.747,1.747,0,0,0,1.771-1.661A1.7,1.7,0,0,0,5199.022,429.84Z" transform="translate(-5191.666 -390.415)"/>
        <path id="Caminho_6730" data-name="Caminho 6730" class="cls-9" d="M5207.24,428.65c0-.048.008-.1.008-.147a1.9,1.9,0,0,0-1.993-1.782,2.155,2.155,0,0,0-1.1.3,3.067,3.067,0,0,0-2.086-.793,2.758,2.758,0,0,0-2.9,2.592c0,.019,0,.038,0,.057a2.024,2.024,0,0,0-.968,1.7,2.131,2.131,0,0,0,2.174,2.023h6.161a2.131,2.131,0,0,0,2.174-2.023A2.068,2.068,0,0,0,5207.24,428.65Z" transform="translate(-5193.607 -389.928)"/>
        <path id="Caminho_6731" data-name="Caminho 6731" class="cls-8" d="M5231.91,392.961a6.369,6.369,0,0,0-6.333-4.575c-3.49,0-6.337,2.481-6.479,5.589a5.5,5.5,0,0,0-4.775,5.217,5.128,5.128,0,0,0,2.229,4.155c.357,3.205,3.364,5.707,7.022,5.707a7.618,7.618,0,0,0,3.663-.921,6.366,6.366,0,0,0,2.25.406c3.213,0,5.818-2.342,5.818-5.231a4.755,4.755,0,0,0-.212-1.386,4.925,4.925,0,0,0,1.929-3.846A5.384,5.384,0,0,0,5231.91,392.961Z" transform="translate(-5198.393 -378.692)"/>
        <g id="Grupo_3836" data-name="Grupo 3836" transform="translate(1.113)">
          <path id="Caminho_6732" data-name="Caminho 6732" class="cls-7" d="M5210.084,417.261h-1.359a14.081,14.081,0,0,0-3.555-4.14l-.9.984c.944.74,3.393,3.067,3.393,4.608l-.334,9.986h4.143l-.335-9.988c0-1.546,2.449-3.933,3.394-4.671l-.9-.92A14.074,14.074,0,0,0,5210.084,417.261Z" transform="translate(-5196.523 -386.037)"/>
          <path id="Caminho_6733" data-name="Caminho 6733" class="cls-7" d="M5209.16,416.94c.025.3,2.091.778,2.1.474.146-4.09-3.514-8.417-3.514-8.417A37.225,37.225,0,0,1,5209.16,416.94Z" transform="translate(-5197.554 -384.812)"/>
          <path id="Caminho_6734" data-name="Caminho 6734" class="cls-9" d="M5215.775,386.7a4.735,4.735,0,0,0,.344-1.755,5.48,5.48,0,0,0-5.116-5.193c-.053-2.854-2.653-5.153-5.855-5.153-3.239,0-5.862,2.346-5.862,5.24a4.747,4.747,0,0,0,.028.488,5.444,5.444,0,0,0-4.838,5.156,4.86,4.86,0,0,0,1.149,3.108,6.471,6.471,0,0,0-2.377,4.867,6.607,6.607,0,0,0,2.793,5.209c.2,2.636,2.96,4.729,6.346,4.729a7.5,7.5,0,0,0,3.767-.983,8.175,8.175,0,0,0,3,.563c3.715,0,6.727-2.381,6.727-5.317a4.282,4.282,0,0,0-.24-1.391,6.01,6.01,0,0,0,.132-9.568Z" transform="translate(-5193.249 -374.598)"/>
        </g>
      </g>
    </g>
    <g id="Grupo_3839" data-name="Grupo 3839" transform="translate(-2550.626 3672.333)">
      <ellipse id="Elipse_86" data-name="Elipse 86" class="cls-10" cx="10.613" cy="10.619" rx="10.613" ry="10.619" transform="translate(57.99)"/>
      <path id="Caminho_6735" data-name="Caminho 6735" class="cls-3" d="M5202.108,270.143a4.511,4.511,0,0,0,.4-1.865,4.033,4.033,0,0,0-3.83-4.208,3.515,3.515,0,0,0-1.513.342,7.632,7.632,0,0,0-7.279-6.671,6.8,6.8,0,0,0-2.763.589,9.306,9.306,0,0,0-8.659-6.669c-4.507,0-8.255,3.56-9.05,8.26a6.884,6.884,0,0,0-3.9-1.223c-4.087,0-7.4,3.64-7.4,8.131a8.9,8.9,0,0,0,.26,2.135c-8.227.941-14.972,2.064-8.965,2.744.957.108,61.283,1.057,61.283,0C5210.688,271.363,5207.037,270.777,5202.108,270.143Z" transform="translate(-5147.106 -251.051)"/>
      <path id="Caminho_6736" data-name="Caminho 6736" class="cls-3" d="M5241.288,283.332a4.541,4.541,0,0,0,.4-1.864,4.032,4.032,0,0,0-3.831-4.209,3.522,3.522,0,0,0-1.514.342,7.63,7.63,0,0,0-7.278-6.671,6.8,6.8,0,0,0-2.763.588,9.306,9.306,0,0,0-8.659-6.669c-4.508,0-8.256,3.56-9.051,8.26a6.88,6.88,0,0,0-3.9-1.223c-4.087,0-7.4,3.64-7.4,8.132a8.856,8.856,0,0,0,.261,2.135c-8.229.941-14.972,2.064-8.965,2.743.957.108,61.282,1.057,61.282,0C5249.867,284.552,5246.214,283.966,5241.288,283.332Z" transform="translate(-5158.741 -254.968)"/>
    </g>
    <path id="Caminho_6737" data-name="Caminho 6737" class="cls-3" d="M5136.12,349.1v18.1l15.666,9.05,15.666-9.05V349.1l-15.666-9.05Z" transform="translate(-7738.516 3391.812)"/>
    <path id="Caminho_6738" data-name="Caminho 6738" class="cls-3" d="M5276.227,249.479v18.1l15.665,9.05,15.665-9.05v-18.1l-15.665-9.049Z" transform="translate(-7738.223 3421.394)"/>
    <path id="Caminho_6739" data-name="Caminho 6739" class="cls-3" d="M5222.924,322.615v18.1l15.666,9.05,15.666-9.05v-18.1l-15.666-9.049Z" transform="translate(-7757.37 3399.677)"/>
    <path id="Caminho_6740" data-name="Caminho 6740" class="cls-3" d="M5093.051,249.479v18.1l15.666,9.05,15.666-9.05v-18.1l-15.666-9.049Z" transform="translate(-7678.895 3421.394)"/>
    <g id="Grupo_3840" data-name="Grupo 3840" transform="translate(-2571.011 3696.251)">
      <path id="Caminho_6741" data-name="Caminho 6741" class="cls-3" d="M5114.968,293.763a.818.818,0,0,0-.818.818v.01a.817.817,0,1,0,.818-.828Z" transform="translate(-5114.149 -290.694)"/>
      <path id="Caminho_6742" data-name="Caminho 6742" class="cls-3" d="M5114.968,298.128a.818.818,0,0,0-.818.818v.01a.817.817,0,1,0,.818-.828Z" transform="translate(-5114.149 -291.99)"/>
      <path id="Caminho_6743" data-name="Caminho 6743" class="cls-3" d="M5114.968,289.4a.817.817,0,0,0-.818.818v.01a.817.817,0,1,0,.818-.827Z" transform="translate(-5114.149 -289.398)"/>
    </g>
    <g id="Grupo_3841" data-name="Grupo 3841" transform="translate(-2587.479 3707.135)">
      <path id="Caminho_6744" data-name="Caminho 6744" class="cls-3" d="M5158.155,335.435a.82.82,0,1,0,.816.823v-.01A.812.812,0,0,0,5158.155,335.435Z" transform="translate(-5157.337 -313.952)"/>
      <path id="Caminho_6745" data-name="Caminho 6745" class="cls-3" d="M5158.155,326.7a.82.82,0,1,0,.816.823v-.01A.813.813,0,0,0,5158.155,326.7Z" transform="translate(-5157.337 -311.359)"/>
      <path id="Caminho_6746" data-name="Caminho 6746" class="cls-3" d="M5158.155,331.07a.82.82,0,1,0,.816.823v-.011A.812.812,0,0,0,5158.155,331.07Z" transform="translate(-5157.337 -312.655)"/>
      <path id="Caminho_6747" data-name="Caminho 6747" class="cls-3" d="M5158.155,339.8a.82.82,0,1,0,.816.823v-.01A.813.813,0,0,0,5158.155,339.8Z" transform="translate(-5157.337 -315.248)"/>
      <path id="Caminho_6748" data-name="Caminho 6748" class="cls-3" d="M5158.155,344.166a.82.82,0,1,0,.816.822v-.01A.812.812,0,0,0,5158.155,344.166Z" transform="translate(-5157.337 -316.544)"/>
      <path id="Caminho_6749" data-name="Caminho 6749" class="cls-3" d="M5158.155,322.339a.82.82,0,1,0,.816.823v-.01A.812.812,0,0,0,5158.155,322.339Z" transform="translate(-5157.337 -310.063)"/>
      <path id="Caminho_6750" data-name="Caminho 6750" class="cls-3" d="M5158.155,304.878a.82.82,0,1,0,.816.823v-.011A.812.812,0,0,0,5158.155,304.878Z" transform="translate(-5157.337 -304.878)"/>
      <path id="Caminho_6751" data-name="Caminho 6751" class="cls-3" d="M5158.155,309.243a.82.82,0,1,0,.816.823v-.01A.813.813,0,0,0,5158.155,309.243Z" transform="translate(-5157.337 -306.174)"/>
      <path id="Caminho_6752" data-name="Caminho 6752" class="cls-3" d="M5158.155,317.974a.82.82,0,1,0,.816.823v-.011A.812.812,0,0,0,5158.155,317.974Z" transform="translate(-5157.337 -308.767)"/>
      <path id="Caminho_6753" data-name="Caminho 6753" class="cls-3" d="M5158.155,313.608a.82.82,0,1,0,.816.823v-.01A.813.813,0,0,0,5158.155,313.608Z" transform="translate(-5157.337 -307.47)"/>
    </g>
    <g id="Grupo_3842" data-name="Grupo 3842" transform="translate(-2519.599 3707.135)">
      <path id="Caminho_6754" data-name="Caminho 6754" class="cls-3" d="M5244.859,313.608a.82.82,0,1,0,.818.823v-.01A.814.814,0,0,0,5244.859,313.608Z" transform="translate(-5244.042 -307.47)"/>
      <path id="Caminho_6755" data-name="Caminho 6755" class="cls-3" d="M5244.859,304.878a.82.82,0,1,0,.818.823v-.011A.813.813,0,0,0,5244.859,304.878Z" transform="translate(-5244.042 -304.878)"/>
      <path id="Caminho_6756" data-name="Caminho 6756" class="cls-3" d="M5244.859,317.974a.82.82,0,1,0,.818.823v-.011A.813.813,0,0,0,5244.859,317.974Z" transform="translate(-5244.042 -308.767)"/>
      <path id="Caminho_6757" data-name="Caminho 6757" class="cls-3" d="M5244.859,309.243a.82.82,0,1,0,.818.823v-.01A.814.814,0,0,0,5244.859,309.243Z" transform="translate(-5244.042 -306.174)"/>
    </g>
    <g id="Grupo_3843" data-name="Grupo 3843" transform="translate(-2447.15 3695.61)">
      <path id="Caminho_6758" data-name="Caminho 6758" class="cls-3" d="M5298.16,301.583a.818.818,0,0,0-.818.818v.01a.813.813,0,0,0,.818.813.82.82,0,0,0,0-1.64Z" transform="translate(-5297.342 -292.376)"/>
      <path id="Caminho_6759" data-name="Caminho 6759" class="cls-3" d="M5298.16,288.487a.818.818,0,0,0-.818.818v.01a.813.813,0,0,0,.818.813.82.82,0,0,0,0-1.64Z" transform="translate(-5297.342 -288.487)"/>
      <path id="Caminho_6760" data-name="Caminho 6760" class="cls-3" d="M5298.16,297.218a.817.817,0,0,0-.818.817v.01a.813.813,0,0,0,.818.812.82.82,0,0,0,0-1.64Z" transform="translate(-5297.342 -291.08)"/>
      <path id="Caminho_6761" data-name="Caminho 6761" class="cls-3" d="M5298.16,292.852a.818.818,0,0,0-.818.818v.01a.813.813,0,0,0,.818.813.82.82,0,0,0,0-1.64Z" transform="translate(-5297.342 -289.783)"/>
    </g>
    <g id="Grupo_3844" data-name="Grupo 3844" transform="translate(-2691.943 3704.828)">
      <path id="Caminho_6762" data-name="Caminho 6762" class="cls-3" d="M5059.115,301.6h-.01a.814.814,0,0,0-.812.818.82.82,0,1,0,.823-.818Z" transform="translate(-4981.565 -301.597)"/>
      <path id="Caminho_6763" data-name="Caminho 6763" class="cls-3" d="M5050.384,301.6h-.01a.814.814,0,0,0-.813.818.82.82,0,1,0,.823-.818Z" transform="translate(-4978.973 -301.597)"/>
      <path id="Caminho_6764" data-name="Caminho 6764" class="cls-3" d="M5072.211,301.6h-.011a.813.813,0,0,0-.812.818.82.82,0,1,0,.823-.818Z" transform="translate(-4985.454 -301.597)"/>
      <path id="Caminho_6765" data-name="Caminho 6765" class="cls-3" d="M5067.845,301.6h-.01a.822.822,0,1,0,.01,0Z" transform="translate(-4984.158 -301.597)"/>
      <path id="Caminho_6766" data-name="Caminho 6766" class="cls-3" d="M5063.48,301.6h-.01a.814.814,0,0,0-.812.818.82.82,0,1,0,.823-.818Z" transform="translate(-4982.862 -301.597)"/>
      <path id="Caminho_6767" data-name="Caminho 6767" class="cls-3" d="M5046.019,301.6h-.009a.813.813,0,0,0-.813.818.82.82,0,1,0,.822-.818Z" transform="translate(-4977.677 -301.597)"/>
      <path id="Caminho_6768" data-name="Caminho 6768" class="cls-3" d="M5032.923,301.6h-.01a.813.813,0,0,0-.813.818.82.82,0,1,0,.823-.818Z" transform="translate(-4973.788 -301.597)"/>
      <path id="Caminho_6769" data-name="Caminho 6769" class="cls-3" d="M5037.289,301.6h-.01a.814.814,0,0,0-.813.818.82.82,0,1,0,.823-.818Z" transform="translate(-4975.084 -301.597)"/>
      <path id="Caminho_6770" data-name="Caminho 6770" class="cls-3" d="M5041.653,301.6h-.01a.814.814,0,0,0-.812.818.82.82,0,1,0,.822-.818Z" transform="translate(-4976.38 -301.597)"/>
      <path id="Caminho_6771" data-name="Caminho 6771" class="cls-3" d="M5054.749,301.6h-.01a.814.814,0,0,0-.812.818.82.82,0,1,0,.822-.818Z" transform="translate(-4980.268 -301.597)"/>
      <path id="Caminho_6772" data-name="Caminho 6772" class="cls-3" d="M5102.768,301.6h-.01a.813.813,0,0,0-.812.818.82.82,0,1,0,.822-.818Z" transform="translate(-4994.528 -301.597)"/>
      <path id="Caminho_6773" data-name="Caminho 6773" class="cls-3" d="M5098.4,301.6h-.011a.814.814,0,0,0-.812.818.82.82,0,1,0,.823-.818Z" transform="translate(-4993.232 -301.597)"/>
      <path id="Caminho_6774" data-name="Caminho 6774" class="cls-3" d="M5107.134,301.6h-.011a.814.814,0,0,0-.812.818.82.82,0,1,0,.823-.818Z" transform="translate(-4995.824 -301.597)"/>
      <path id="Caminho_6775" data-name="Caminho 6775" class="cls-3" d="M5111.5,301.6h-.01a.813.813,0,0,0-.812.818.82.82,0,1,0,.822-.818Z" transform="translate(-4997.121 -301.597)"/>
      <path id="Caminho_6776" data-name="Caminho 6776" class="cls-3" d="M5115.863,301.6h-.009a.824.824,0,1,0,.009,0Z" transform="translate(-4998.417 -301.597)"/>
      <path id="Caminho_6777" data-name="Caminho 6777" class="cls-3" d="M5094.037,301.6h-.01a.813.813,0,0,0-.812.818.82.82,0,1,0,.822-.818Z" transform="translate(-4991.935 -301.597)"/>
      <path id="Caminho_6778" data-name="Caminho 6778" class="cls-3" d="M5085.307,301.6h-.011a.812.812,0,0,0-.811.818.82.82,0,1,0,.822-.818Z" transform="translate(-4989.344 -301.597)"/>
      <path id="Caminho_6779" data-name="Caminho 6779" class="cls-3" d="M5076.575,301.6h-.009a.814.814,0,0,0-.812.818.82.82,0,1,0,.822-.818Z" transform="translate(-4986.751 -301.597)"/>
      <path id="Caminho_6780" data-name="Caminho 6780" class="cls-3" d="M5080.941,301.6h-.01a.814.814,0,0,0-.812.818.821.821,0,1,0,.822-.818Z" transform="translate(-4988.046 -301.597)"/>
      <path id="Caminho_6781" data-name="Caminho 6781" class="cls-3" d="M5089.673,301.6h-.011a.813.813,0,0,0-.812.818.821.821,0,1,0,.824-.818Z" transform="translate(-4990.639 -301.597)"/>
      <path id="Caminho_6782" data-name="Caminho 6782" class="cls-3" d="M4949.982,301.6h-.01a.813.813,0,0,0-.812.818.82.82,0,1,0,.822-.818Z" transform="translate(-4949.16 -301.597)"/>
      <path id="Caminho_6783" data-name="Caminho 6783" class="cls-3" d="M4976.174,301.6h-.01a.813.813,0,0,0-.812.818.82.82,0,1,0,.823-.818Z" transform="translate(-4956.937 -301.597)"/>
      <path id="Caminho_6784" data-name="Caminho 6784" class="cls-3" d="M4971.808,301.6h-.01a.813.813,0,0,0-.812.818.82.82,0,1,0,.821-.818Z" transform="translate(-4955.642 -301.597)"/>
      <path id="Caminho_6785" data-name="Caminho 6785" class="cls-3" d="M4967.443,301.6h-.01a.813.813,0,0,0-.812.818.82.82,0,1,0,.822-.818Z" transform="translate(-4954.346 -301.597)"/>
      <path id="Caminho_6786" data-name="Caminho 6786" class="cls-3" d="M4980.539,301.6h-.01a.813.813,0,0,0-.813.818.82.82,0,1,0,.823-.818Z" transform="translate(-4958.233 -301.597)"/>
      <path id="Caminho_6787" data-name="Caminho 6787" class="cls-3" d="M4963.077,301.6h-.009a.824.824,0,1,0,.009,0Z" transform="translate(-4953.048 -301.597)"/>
      <path id="Caminho_6788" data-name="Caminho 6788" class="cls-3" d="M4984.9,301.6h-.01a.822.822,0,1,0,.01,0Z" transform="translate(-4959.529 -301.597)"/>
      <path id="Caminho_6789" data-name="Caminho 6789" class="cls-3" d="M4954.348,301.6h-.01a.814.814,0,0,0-.813.818.82.82,0,1,0,.824-.818Z" transform="translate(-4950.456 -301.597)"/>
      <path id="Caminho_6790" data-name="Caminho 6790" class="cls-3" d="M5120.229,301.6h-.01a.814.814,0,0,0-.812.818.82.82,0,1,0,.822-.818Z" transform="translate(-4999.714 -301.597)"/>
      <path id="Caminho_6791" data-name="Caminho 6791" class="cls-3" d="M4958.713,301.6h-.011a.813.813,0,0,0-.812.818.82.82,0,1,0,.823-.818Z" transform="translate(-4951.752 -301.597)"/>
      <path id="Caminho_6792" data-name="Caminho 6792" class="cls-3" d="M4998,301.6h-.009a.823.823,0,1,0,.009,0Z" transform="translate(-4963.418 -301.597)"/>
      <path id="Caminho_6793" data-name="Caminho 6793" class="cls-3" d="M4989.271,301.6h-.01a.813.813,0,0,0-.812.818.82.82,0,1,0,.822-.818Z" transform="translate(-4960.827 -301.597)"/>
      <path id="Caminho_6794" data-name="Caminho 6794" class="cls-3" d="M5019.827,301.6h-.009a.823.823,0,1,0,.009,0Z" transform="translate(-4969.899 -301.597)"/>
      <path id="Caminho_6795" data-name="Caminho 6795" class="cls-3" d="M5015.462,301.6h-.01a.813.813,0,0,0-.812.818.82.82,0,1,0,.823-.818Z" transform="translate(-4968.604 -301.597)"/>
      <path id="Caminho_6796" data-name="Caminho 6796" class="cls-3" d="M5024.192,301.6h-.01a.823.823,0,1,0,.01,0Z" transform="translate(-4971.197 -301.597)"/>
      <path id="Caminho_6797" data-name="Caminho 6797" class="cls-3" d="M5011.1,301.6h-.009a.822.822,0,1,0,.009,0Z" transform="translate(-4967.307 -301.597)"/>
      <path id="Caminho_6798" data-name="Caminho 6798" class="cls-3" d="M4993.636,301.6h-.01a.822.822,0,1,0,.01,0Z" transform="translate(-4962.122 -301.597)"/>
      <path id="Caminho_6799" data-name="Caminho 6799" class="cls-3" d="M5028.559,301.6h-.011a.813.813,0,0,0-.812.818.82.82,0,1,0,.823-.818Z" transform="translate(-4972.493 -301.597)"/>
      <path id="Caminho_6800" data-name="Caminho 6800" class="cls-3" d="M5002.365,301.6h-.009a.823.823,0,1,0,.009,0Z" transform="translate(-4964.714 -301.597)"/>
      <path id="Caminho_6801" data-name="Caminho 6801" class="cls-3" d="M5006.731,301.6h-.009a.823.823,0,1,0,.009,0Z" transform="translate(-4966.012 -301.597)"/>
      <path id="Caminho_6802" data-name="Caminho 6802" class="cls-3" d="M5211.9,301.6h-.01a.813.813,0,0,0-.812.818.82.82,0,1,0,.822-.818Z" transform="translate(-5026.935 -301.597)"/>
      <path id="Caminho_6803" data-name="Caminho 6803" class="cls-3" d="M5238.093,301.6h-.011a.813.813,0,0,0-.812.818.82.82,0,1,0,.822-.818Z" transform="translate(-5034.712 -301.597)"/>
      <path id="Caminho_6804" data-name="Caminho 6804" class="cls-3" d="M5246.822,301.6h-.009a.813.813,0,0,0-.812.818.82.82,0,1,0,.822-.818Z" transform="translate(-5037.304 -301.597)"/>
      <path id="Caminho_6805" data-name="Caminho 6805" class="cls-3" d="M5242.458,301.6h-.011a.813.813,0,0,0-.812.818.82.82,0,1,0,.823-.818Z" transform="translate(-5036.007 -301.597)"/>
      <path id="Caminho_6806" data-name="Caminho 6806" class="cls-3" d="M5255.554,301.6h-.01a.812.812,0,0,0-.812.818.82.82,0,1,0,.822-.818Z" transform="translate(-5039.898 -301.597)"/>
      <path id="Caminho_6807" data-name="Caminho 6807" class="cls-3" d="M5251.189,301.6h-.01a.813.813,0,0,0-.812.818.82.82,0,1,0,.822-.818Z" transform="translate(-5038.6 -301.597)"/>
      <path id="Caminho_6808" data-name="Caminho 6808" class="cls-3" d="M5225,301.6h-.011a.813.813,0,0,0-.812.818.82.82,0,1,0,.823-.818Z" transform="translate(-5030.823 -301.597)"/>
      <path id="Caminho_6809" data-name="Caminho 6809" class="cls-3" d="M5233.727,301.6h-.01a.814.814,0,0,0-.813.818.82.82,0,1,0,.823-.818Z" transform="translate(-5033.415 -301.597)"/>
      <path id="Caminho_6810" data-name="Caminho 6810" class="cls-3" d="M5220.632,301.6h-.011a.814.814,0,0,0-.812.818.82.82,0,1,0,.823-.818Z" transform="translate(-5029.527 -301.597)"/>
      <path id="Caminho_6811" data-name="Caminho 6811" class="cls-3" d="M5229.362,301.6h-.01a.813.813,0,0,0-.812.818.82.82,0,1,0,.822-.818Z" transform="translate(-5032.119 -301.597)"/>
      <path id="Caminho_6812" data-name="Caminho 6812" class="cls-3" d="M5273.015,301.6h-.009a.822.822,0,1,0,.009,0Z" transform="translate(-5045.082 -301.597)"/>
      <path id="Caminho_6813" data-name="Caminho 6813" class="cls-3" d="M5290.477,301.6h-.01a.814.814,0,0,0-.813.818.82.82,0,1,0,.823-.818Z" transform="translate(-5050.266 -301.597)"/>
      <path id="Caminho_6814" data-name="Caminho 6814" class="cls-3" d="M5281.746,301.6h-.01a.813.813,0,0,0-.812.818.82.82,0,1,0,.822-.818Z" transform="translate(-5047.674 -301.597)"/>
      <path id="Caminho_6815" data-name="Caminho 6815" class="cls-3" d="M5286.11,301.6h-.009a.814.814,0,0,0-.812.818.82.82,0,1,0,.822-.818Z" transform="translate(-5048.97 -301.597)"/>
      <path id="Caminho_6816" data-name="Caminho 6816" class="cls-3" d="M5294.842,301.6h-.011a.813.813,0,0,0-.812.818.82.82,0,1,0,.823-.818Z" transform="translate(-5051.562 -301.597)"/>
      <path id="Caminho_6817" data-name="Caminho 6817" class="cls-3" d="M5264.284,301.6h-.009a.813.813,0,0,0-.812.818.82.82,0,1,0,.822-.818Z" transform="translate(-5042.489 -301.597)"/>
      <path id="Caminho_6818" data-name="Caminho 6818" class="cls-3" d="M5259.92,301.6h-.011a.814.814,0,0,0-.812.818.82.82,0,1,0,.824-.818Z" transform="translate(-5041.192 -301.597)"/>
      <path id="Caminho_6819" data-name="Caminho 6819" class="cls-3" d="M5268.649,301.6h-.009a.813.813,0,0,0-.812.818.821.821,0,1,0,.822-.818Z" transform="translate(-5043.786 -301.597)"/>
      <path id="Caminho_6820" data-name="Caminho 6820" class="cls-3" d="M5216.266,301.6h-.01a.814.814,0,0,0-.812.818.82.82,0,1,0,.822-.818Z" transform="translate(-5028.231 -301.597)"/>
      <path id="Caminho_6821" data-name="Caminho 6821" class="cls-3" d="M5277.381,301.6h-.01a.823.823,0,1,0,.01,0Z" transform="translate(-5046.378 -301.597)"/>
      <path id="Caminho_6822" data-name="Caminho 6822" class="cls-3" d="M5190.073,301.6h-.009a.814.814,0,0,0-.813.818.82.82,0,1,0,.822-.818Z" transform="translate(-5020.452 -301.597)"/>
      <path id="Caminho_6823" data-name="Caminho 6823" class="cls-3" d="M5155.151,301.6h-.009a.813.813,0,0,0-.813.818.82.82,0,1,0,.822-.818Z" transform="translate(-5010.083 -301.597)"/>
      <path id="Caminho_6824" data-name="Caminho 6824" class="cls-3" d="M5163.883,301.6h-.01a.822.822,0,1,0,.01,0Z" transform="translate(-5012.675 -301.597)"/>
      <path id="Caminho_6825" data-name="Caminho 6825" class="cls-3" d="M5159.518,301.6h-.01a.814.814,0,0,0-.813.818.82.82,0,1,0,.823-.818Z" transform="translate(-5011.379 -301.597)"/>
      <path id="Caminho_6826" data-name="Caminho 6826" class="cls-3" d="M5146.421,301.6h-.01a.822.822,0,1,0,.01,0Z" transform="translate(-5007.49 -301.597)"/>
      <path id="Caminho_6827" data-name="Caminho 6827" class="cls-3" d="M5150.785,301.6h-.008a.823.823,0,1,0,.008,0Z" transform="translate(-5008.786 -301.597)"/>
      <path id="Caminho_6828" data-name="Caminho 6828" class="cls-3" d="M5128.96,301.6h-.011a.814.814,0,0,0-.812.818.82.82,0,1,0,.823-.818Z" transform="translate(-5002.305 -301.597)"/>
      <path id="Caminho_6829" data-name="Caminho 6829" class="cls-3" d="M5142.056,301.6h-.01a.813.813,0,0,0-.812.818.82.82,0,1,0,.822-.818Z" transform="translate(-5006.194 -301.597)"/>
      <path id="Caminho_6830" data-name="Caminho 6830" class="cls-3" d="M5207.534,301.6h-.009a.813.813,0,0,0-.812.818.82.82,0,1,0,.822-.818Z" transform="translate(-5025.638 -301.597)"/>
      <path id="Caminho_6831" data-name="Caminho 6831" class="cls-3" d="M5137.69,301.6h-.009a.823.823,0,1,0,.009,0Z" transform="translate(-5004.898 -301.597)"/>
      <path id="Caminho_6832" data-name="Caminho 6832" class="cls-3" d="M5133.324,301.6h-.008a.823.823,0,1,0,.008,0Z" transform="translate(-5003.601 -301.597)"/>
      <path id="Caminho_6833" data-name="Caminho 6833" class="cls-3" d="M5194.44,301.6h-.011a.813.813,0,0,0-.812.818.82.82,0,1,0,.823-.818Z" transform="translate(-5021.748 -301.597)"/>
      <path id="Caminho_6834" data-name="Caminho 6834" class="cls-3" d="M5198.806,301.6h-.01a.813.813,0,0,0-.813.818.82.82,0,1,0,.823-.818Z" transform="translate(-5023.045 -301.597)"/>
      <path id="Caminho_6835" data-name="Caminho 6835" class="cls-3" d="M5124.595,301.6h-.01a.813.813,0,0,0-.812.818.82.82,0,1,0,.822-.818Z" transform="translate(-5001.01 -301.597)"/>
      <path id="Caminho_6836" data-name="Caminho 6836" class="cls-3" d="M5203.17,301.6h-.01a.814.814,0,0,0-.813.818.82.82,0,1,0,.823-.818Z" transform="translate(-5024.34 -301.597)"/>
      <path id="Caminho_6837" data-name="Caminho 6837" class="cls-3" d="M5185.709,301.6h-.01a.814.814,0,0,0-.813.818.82.82,0,1,0,.824-.818Z" transform="translate(-5019.156 -301.597)"/>
      <path id="Caminho_6838" data-name="Caminho 6838" class="cls-3" d="M5176.978,301.6h-.009a.814.814,0,0,0-.812.818.82.82,0,1,0,.822-.818Z" transform="translate(-5016.565 -301.597)"/>
      <path id="Caminho_6839" data-name="Caminho 6839" class="cls-3" d="M5172.612,301.6h-.009a.814.814,0,0,0-.812.818.82.82,0,1,0,.822-.818Z" transform="translate(-5015.267 -301.597)"/>
      <path id="Caminho_6840" data-name="Caminho 6840" class="cls-3" d="M5181.345,301.6h-.011a.813.813,0,0,0-.812.818.82.82,0,1,0,.823-.818Z" transform="translate(-5017.86 -301.597)"/>
      <path id="Caminho_6841" data-name="Caminho 6841" class="cls-3" d="M5168.248,301.6h-.01a.813.813,0,0,0-.812.818.819.819,0,1,0,.822-.818Z" transform="translate(-5013.972 -301.597)"/>
    </g>
    <g id="Grupo_4014" data-name="Grupo 4014" transform="translate(-2619.973 3782.844)">
      <g id="Grupo_3856" data-name="Grupo 3856" transform="translate(60.909 0)">
        <g id="Grupo_3854" data-name="Grupo 3854">
          <g id="Grupo_3845" data-name="Grupo 3845" transform="translate(1.437)">
            <path id="Caminho_6842" data-name="Caminho 6842" class="cls-11" d="M5175.591,409.533a1.814,1.814,0,1,0,.636,1.379A2.2,2.2,0,0,0,5175.591,409.533Z" transform="translate(-5174.955 -409.533)"/>
          </g>
          <g id="Grupo_3846" data-name="Grupo 3846" transform="translate(2.132 1.98)">
            <path id="Caminho_6843" data-name="Caminho 6843" class="cls-11" d="M5176.468,412.874a.836.836,0,1,0,1.424-.525A2.2,2.2,0,0,0,5176.468,412.874Z" transform="translate(-5175.943 -412.349)"/>
          </g>
          <g id="Grupo_3847" data-name="Grupo 3847" transform="translate(0 1.98)">
            <path id="Caminho_6844" data-name="Caminho 6844" class="cls-11" d="M5172.91,412.349a1.811,1.811,0,1,0,1.425.525A2.206,2.206,0,0,0,5172.91,412.349Z" transform="translate(-5172.91 -412.349)"/>
          </g>
          <g id="Grupo_3848" data-name="Grupo 3848" transform="translate(2.132 3.752)">
            <path id="Caminho_6845" data-name="Caminho 6845" class="cls-11" d="M5176.468,415.4a.836.836,0,1,0,1.424-.525A2.2,2.2,0,0,0,5176.468,415.4Z" transform="translate(-5175.943 -414.87)"/>
          </g>
          <g id="Grupo_3849" data-name="Grupo 3849" transform="translate(0 3.752)">
            <path id="Caminho_6846" data-name="Caminho 6846" class="cls-11" d="M5172.91,414.87a1.811,1.811,0,1,0,1.425.525A2.206,2.206,0,0,0,5172.91,414.87Z" transform="translate(-5172.91 -414.87)"/>
          </g>
          <g id="Grupo_3850" data-name="Grupo 3850" transform="translate(2.132 5.525)">
            <path id="Caminho_6847" data-name="Caminho 6847" class="cls-11" d="M5176.468,417.916a.836.836,0,1,0,1.424-.525A2.2,2.2,0,0,0,5176.468,417.916Z" transform="translate(-5175.943 -417.392)"/>
          </g>
          <g id="Grupo_3851" data-name="Grupo 3851" transform="translate(0 5.525)">
            <path id="Caminho_6848" data-name="Caminho 6848" class="cls-11" d="M5172.91,417.392a1.81,1.81,0,1,0,1.425.525A2.206,2.206,0,0,0,5172.91,417.392Z" transform="translate(-5172.91 -417.392)"/>
          </g>
          <g id="Grupo_3852" data-name="Grupo 3852" transform="translate(2.132 7.298)">
            <path id="Caminho_6849" data-name="Caminho 6849" class="cls-11" d="M5176.468,420.438a.836.836,0,1,0,1.424-.525A2.2,2.2,0,0,0,5176.468,420.438Z" transform="translate(-5175.943 -419.913)"/>
          </g>
          <g id="Grupo_3853" data-name="Grupo 3853" transform="translate(0 7.298)">
            <path id="Caminho_6850" data-name="Caminho 6850" class="cls-11" d="M5172.91,419.913a1.811,1.811,0,1,0,1.425.525A2.206,2.206,0,0,0,5172.91,419.913Z" transform="translate(-5172.91 -419.913)"/>
          </g>
        </g>
        <g id="Grupo_3855" data-name="Grupo 3855" transform="translate(1.843 1.379)">
          <rect id="Retângulo_3116" data-name="Retângulo 3116" class="cls-11" width="0.459" height="15.974"/>
        </g>
      </g>
      <g id="Grupo_3868" data-name="Grupo 3868" transform="translate(51.682 0)">
        <g id="Grupo_3866" data-name="Grupo 3866">
          <g id="Grupo_3857" data-name="Grupo 3857" transform="translate(1.437)">
            <path id="Caminho_6851" data-name="Caminho 6851" class="cls-11" d="M5162.467,409.533a1.814,1.814,0,1,0,.636,1.379A2.2,2.2,0,0,0,5162.467,409.533Z" transform="translate(-5161.831 -409.533)"/>
          </g>
          <g id="Grupo_3858" data-name="Grupo 3858" transform="translate(2.132 1.98)">
            <path id="Caminho_6852" data-name="Caminho 6852" class="cls-11" d="M5163.344,412.874a.836.836,0,1,0,1.424-.525A2.2,2.2,0,0,0,5163.344,412.874Z" transform="translate(-5162.819 -412.349)"/>
          </g>
          <g id="Grupo_3859" data-name="Grupo 3859" transform="translate(0 1.98)">
            <path id="Caminho_6853" data-name="Caminho 6853" class="cls-11" d="M5159.786,412.349a1.812,1.812,0,1,0,1.425.525A2.2,2.2,0,0,0,5159.786,412.349Z" transform="translate(-5159.786 -412.349)"/>
          </g>
          <g id="Grupo_3860" data-name="Grupo 3860" transform="translate(2.132 3.752)">
            <path id="Caminho_6854" data-name="Caminho 6854" class="cls-11" d="M5163.344,415.4a.836.836,0,1,0,1.424-.525A2.2,2.2,0,0,0,5163.344,415.4Z" transform="translate(-5162.819 -414.87)"/>
          </g>
          <g id="Grupo_3861" data-name="Grupo 3861" transform="translate(0 3.752)">
            <path id="Caminho_6855" data-name="Caminho 6855" class="cls-11" d="M5159.786,414.87a1.812,1.812,0,1,0,1.425.525A2.2,2.2,0,0,0,5159.786,414.87Z" transform="translate(-5159.786 -414.87)"/>
          </g>
          <g id="Grupo_3862" data-name="Grupo 3862" transform="translate(2.132 5.525)">
            <path id="Caminho_6856" data-name="Caminho 6856" class="cls-11" d="M5163.344,417.916a.836.836,0,1,0,1.424-.525A2.2,2.2,0,0,0,5163.344,417.916Z" transform="translate(-5162.819 -417.392)"/>
          </g>
          <g id="Grupo_3863" data-name="Grupo 3863" transform="translate(0 5.525)">
            <path id="Caminho_6857" data-name="Caminho 6857" class="cls-11" d="M5159.786,417.392a1.811,1.811,0,1,0,1.425.525A2.2,2.2,0,0,0,5159.786,417.392Z" transform="translate(-5159.786 -417.392)"/>
          </g>
          <g id="Grupo_3864" data-name="Grupo 3864" transform="translate(2.132 7.298)">
            <path id="Caminho_6858" data-name="Caminho 6858" class="cls-11" d="M5163.344,420.438a.836.836,0,1,0,1.424-.525A2.2,2.2,0,0,0,5163.344,420.438Z" transform="translate(-5162.819 -419.913)"/>
          </g>
          <g id="Grupo_3865" data-name="Grupo 3865" transform="translate(0 7.298)">
            <path id="Caminho_6859" data-name="Caminho 6859" class="cls-11" d="M5159.786,419.913a1.812,1.812,0,1,0,1.425.525A2.2,2.2,0,0,0,5159.786,419.913Z" transform="translate(-5159.786 -419.913)"/>
          </g>
        </g>
        <g id="Grupo_3867" data-name="Grupo 3867" transform="translate(1.843 1.379)">
          <rect id="Retângulo_3117" data-name="Retângulo 3117" class="cls-11" width="0.459" height="15.974"/>
        </g>
      </g>
      <g id="Grupo_3880" data-name="Grupo 3880" transform="translate(42.455 0)">
        <g id="Grupo_3878" data-name="Grupo 3878">
          <g id="Grupo_3869" data-name="Grupo 3869" transform="translate(1.437)">
            <path id="Caminho_6860" data-name="Caminho 6860" class="cls-11" d="M5149.342,409.533a1.813,1.813,0,1,0,.636,1.379A2.2,2.2,0,0,0,5149.342,409.533Z" transform="translate(-5148.706 -409.533)"/>
          </g>
          <g id="Grupo_3870" data-name="Grupo 3870" transform="translate(2.132 1.98)">
            <path id="Caminho_6861" data-name="Caminho 6861" class="cls-11" d="M5150.22,412.874a.836.836,0,1,0,1.424-.525A2.2,2.2,0,0,0,5150.22,412.874Z" transform="translate(-5149.696 -412.349)"/>
          </g>
          <g id="Grupo_3871" data-name="Grupo 3871" transform="translate(0 1.98)">
            <path id="Caminho_6862" data-name="Caminho 6862" class="cls-11" d="M5146.664,412.349a1.811,1.811,0,1,0,1.424.525A2.2,2.2,0,0,0,5146.664,412.349Z" transform="translate(-5146.664 -412.349)"/>
          </g>
          <g id="Grupo_3872" data-name="Grupo 3872" transform="translate(2.132 3.752)">
            <path id="Caminho_6863" data-name="Caminho 6863" class="cls-11" d="M5150.22,415.4a.836.836,0,1,0,1.424-.525A2.2,2.2,0,0,0,5150.22,415.4Z" transform="translate(-5149.696 -414.87)"/>
          </g>
          <g id="Grupo_3873" data-name="Grupo 3873" transform="translate(0 3.752)">
            <path id="Caminho_6864" data-name="Caminho 6864" class="cls-11" d="M5146.664,414.87a1.811,1.811,0,1,0,1.424.525A2.2,2.2,0,0,0,5146.664,414.87Z" transform="translate(-5146.664 -414.87)"/>
          </g>
          <g id="Grupo_3874" data-name="Grupo 3874" transform="translate(2.132 5.525)">
            <path id="Caminho_6865" data-name="Caminho 6865" class="cls-11" d="M5150.22,417.916a.836.836,0,1,0,1.424-.525A2.2,2.2,0,0,0,5150.22,417.916Z" transform="translate(-5149.696 -417.392)"/>
          </g>
          <g id="Grupo_3875" data-name="Grupo 3875" transform="translate(0 5.525)">
            <path id="Caminho_6866" data-name="Caminho 6866" class="cls-11" d="M5146.664,417.392a1.81,1.81,0,1,0,1.424.525A2.2,2.2,0,0,0,5146.664,417.392Z" transform="translate(-5146.664 -417.392)"/>
          </g>
          <g id="Grupo_3876" data-name="Grupo 3876" transform="translate(2.132 7.298)">
            <path id="Caminho_6867" data-name="Caminho 6867" class="cls-11" d="M5150.22,420.438a.836.836,0,1,0,1.424-.525A2.2,2.2,0,0,0,5150.22,420.438Z" transform="translate(-5149.696 -419.913)"/>
          </g>
          <g id="Grupo_3877" data-name="Grupo 3877" transform="translate(0 7.298)">
            <path id="Caminho_6868" data-name="Caminho 6868" class="cls-11" d="M5146.664,419.913a1.811,1.811,0,1,0,1.424.525A2.2,2.2,0,0,0,5146.664,419.913Z" transform="translate(-5146.664 -419.913)"/>
          </g>
        </g>
        <g id="Grupo_3879" data-name="Grupo 3879" transform="translate(1.844 1.379)">
          <rect id="Retângulo_3118" data-name="Retângulo 3118" class="cls-11" width="0.459" height="15.974"/>
        </g>
      </g>
      <g id="Grupo_3892" data-name="Grupo 3892" transform="translate(33.228 0)">
        <g id="Grupo_3890" data-name="Grupo 3890">
          <g id="Grupo_3881" data-name="Grupo 3881" transform="translate(1.438)">
            <path id="Caminho_6869" data-name="Caminho 6869" class="cls-11" d="M5136.219,409.533a1.813,1.813,0,1,0,.636,1.379A2.2,2.2,0,0,0,5136.219,409.533Z" transform="translate(-5135.583 -409.533)"/>
          </g>
          <g id="Grupo_3882" data-name="Grupo 3882" transform="translate(2.132 1.98)">
            <path id="Caminho_6870" data-name="Caminho 6870" class="cls-11" d="M5137.1,412.874a.836.836,0,1,0,1.425-.525A2.211,2.211,0,0,0,5137.1,412.874Z" transform="translate(-5136.571 -412.349)"/>
          </g>
          <g id="Grupo_3883" data-name="Grupo 3883" transform="translate(0 1.98)">
            <path id="Caminho_6871" data-name="Caminho 6871" class="cls-11" d="M5133.539,412.349a1.811,1.811,0,1,0,1.425.525A2.206,2.206,0,0,0,5133.539,412.349Z" transform="translate(-5133.539 -412.349)"/>
          </g>
          <g id="Grupo_3884" data-name="Grupo 3884" transform="translate(2.132 3.752)">
            <path id="Caminho_6872" data-name="Caminho 6872" class="cls-11" d="M5137.1,415.4a.836.836,0,1,0,1.425-.525A2.21,2.21,0,0,0,5137.1,415.4Z" transform="translate(-5136.571 -414.87)"/>
          </g>
          <g id="Grupo_3885" data-name="Grupo 3885" transform="translate(0 3.752)">
            <path id="Caminho_6873" data-name="Caminho 6873" class="cls-11" d="M5133.539,414.87a1.811,1.811,0,1,0,1.425.525A2.206,2.206,0,0,0,5133.539,414.87Z" transform="translate(-5133.539 -414.87)"/>
          </g>
          <g id="Grupo_3886" data-name="Grupo 3886" transform="translate(2.132 5.525)">
            <path id="Caminho_6874" data-name="Caminho 6874" class="cls-11" d="M5137.1,417.916a.836.836,0,1,0,1.425-.525A2.211,2.211,0,0,0,5137.1,417.916Z" transform="translate(-5136.571 -417.392)"/>
          </g>
          <g id="Grupo_3887" data-name="Grupo 3887" transform="translate(0 5.525)">
            <path id="Caminho_6875" data-name="Caminho 6875" class="cls-11" d="M5133.539,417.392a1.81,1.81,0,1,0,1.425.525A2.206,2.206,0,0,0,5133.539,417.392Z" transform="translate(-5133.539 -417.392)"/>
          </g>
          <g id="Grupo_3888" data-name="Grupo 3888" transform="translate(2.132 7.298)">
            <path id="Caminho_6876" data-name="Caminho 6876" class="cls-11" d="M5137.1,420.438a.836.836,0,1,0,1.425-.525A2.211,2.211,0,0,0,5137.1,420.438Z" transform="translate(-5136.571 -419.913)"/>
          </g>
          <g id="Grupo_3889" data-name="Grupo 3889" transform="translate(0 7.298)">
            <path id="Caminho_6877" data-name="Caminho 6877" class="cls-11" d="M5133.539,419.913a1.811,1.811,0,1,0,1.425.525A2.206,2.206,0,0,0,5133.539,419.913Z" transform="translate(-5133.539 -419.913)"/>
          </g>
        </g>
        <g id="Grupo_3891" data-name="Grupo 3891" transform="translate(1.844 1.379)">
          <rect id="Retângulo_3119" data-name="Retângulo 3119" class="cls-11" width="0.459" height="15.974"/>
        </g>
      </g>
      <g id="Grupo_3904" data-name="Grupo 3904" transform="translate(47.069 4.853)">
        <g id="Grupo_3902" data-name="Grupo 3902">
          <g id="Grupo_3893" data-name="Grupo 3893" transform="translate(1.437)">
            <path id="Caminho_6878" data-name="Caminho 6878" class="cls-11" d="M5155.9,416.435a1.812,1.812,0,1,0,.637,1.379A2.2,2.2,0,0,0,5155.9,416.435Z" transform="translate(-5155.269 -416.435)"/>
          </g>
          <g id="Grupo_3894" data-name="Grupo 3894" transform="translate(2.132 1.98)">
            <path id="Caminho_6879" data-name="Caminho 6879" class="cls-11" d="M5156.782,419.776a.836.836,0,1,0,1.424-.525A2.2,2.2,0,0,0,5156.782,419.776Z" transform="translate(-5156.257 -419.251)"/>
          </g>
          <g id="Grupo_3895" data-name="Grupo 3895" transform="translate(0 1.98)">
            <path id="Caminho_6880" data-name="Caminho 6880" class="cls-11" d="M5153.224,419.251a1.812,1.812,0,1,0,1.425.525A2.2,2.2,0,0,0,5153.224,419.251Z" transform="translate(-5153.224 -419.251)"/>
          </g>
          <g id="Grupo_3896" data-name="Grupo 3896" transform="translate(2.132 3.752)">
            <path id="Caminho_6881" data-name="Caminho 6881" class="cls-11" d="M5156.782,422.3a.836.836,0,1,0,1.424-.525A2.2,2.2,0,0,0,5156.782,422.3Z" transform="translate(-5156.257 -421.772)"/>
          </g>
          <g id="Grupo_3897" data-name="Grupo 3897" transform="translate(0 3.752)">
            <path id="Caminho_6882" data-name="Caminho 6882" class="cls-11" d="M5153.224,421.772a1.812,1.812,0,1,0,1.425.525A2.2,2.2,0,0,0,5153.224,421.772Z" transform="translate(-5153.224 -421.772)"/>
          </g>
          <g id="Grupo_3898" data-name="Grupo 3898" transform="translate(2.132 5.525)">
            <path id="Caminho_6883" data-name="Caminho 6883" class="cls-11" d="M5156.782,424.819a.836.836,0,1,0,1.424-.525A2.2,2.2,0,0,0,5156.782,424.819Z" transform="translate(-5156.257 -424.294)"/>
          </g>
          <g id="Grupo_3899" data-name="Grupo 3899" transform="translate(0 5.525)">
            <path id="Caminho_6884" data-name="Caminho 6884" class="cls-11" d="M5153.224,424.294a1.812,1.812,0,1,0,1.425.525A2.2,2.2,0,0,0,5153.224,424.294Z" transform="translate(-5153.224 -424.294)"/>
          </g>
          <g id="Grupo_3900" data-name="Grupo 3900" transform="translate(2.132 7.298)">
            <path id="Caminho_6885" data-name="Caminho 6885" class="cls-11" d="M5156.782,427.34a.836.836,0,1,0,1.424-.525A2.2,2.2,0,0,0,5156.782,427.34Z" transform="translate(-5156.257 -426.815)"/>
          </g>
          <g id="Grupo_3901" data-name="Grupo 3901" transform="translate(0 7.298)">
            <path id="Caminho_6886" data-name="Caminho 6886" class="cls-11" d="M5153.224,426.815a1.812,1.812,0,1,0,1.425.525A2.2,2.2,0,0,0,5153.224,426.815Z" transform="translate(-5153.224 -426.815)"/>
          </g>
        </g>
        <g id="Grupo_3903" data-name="Grupo 3903" transform="translate(1.843 1.379)">
          <rect id="Retângulo_3120" data-name="Retângulo 3120" class="cls-11" width="0.459" height="15.974"/>
        </g>
      </g>
      <g id="Grupo_3916" data-name="Grupo 3916" transform="translate(23.067 0)">
        <g id="Grupo_3914" data-name="Grupo 3914">
          <g id="Grupo_3905" data-name="Grupo 3905" transform="translate(1.438)">
            <path id="Caminho_6887" data-name="Caminho 6887" class="cls-11" d="M5121.766,409.533a1.813,1.813,0,1,0,.636,1.379A2.2,2.2,0,0,0,5121.766,409.533Z" transform="translate(-5121.13 -409.533)"/>
          </g>
          <g id="Grupo_3906" data-name="Grupo 3906" transform="translate(2.133 1.98)">
            <path id="Caminho_6888" data-name="Caminho 6888" class="cls-11" d="M5122.644,412.874a.836.836,0,1,0,1.424-.525A2.2,2.2,0,0,0,5122.644,412.874Z" transform="translate(-5122.119 -412.349)"/>
          </g>
          <g id="Grupo_3907" data-name="Grupo 3907" transform="translate(0 1.98)">
            <path id="Caminho_6889" data-name="Caminho 6889" class="cls-11" d="M5119.085,412.349a1.812,1.812,0,1,0,1.424.525A2.2,2.2,0,0,0,5119.085,412.349Z" transform="translate(-5119.085 -412.349)"/>
          </g>
          <g id="Grupo_3908" data-name="Grupo 3908" transform="translate(2.133 3.752)">
            <path id="Caminho_6890" data-name="Caminho 6890" class="cls-11" d="M5122.644,415.4a.836.836,0,1,0,1.424-.525A2.2,2.2,0,0,0,5122.644,415.4Z" transform="translate(-5122.119 -414.87)"/>
          </g>
          <g id="Grupo_3909" data-name="Grupo 3909" transform="translate(0 3.752)">
            <path id="Caminho_6891" data-name="Caminho 6891" class="cls-11" d="M5119.085,414.87a1.812,1.812,0,1,0,1.424.525A2.2,2.2,0,0,0,5119.085,414.87Z" transform="translate(-5119.085 -414.87)"/>
          </g>
          <g id="Grupo_3910" data-name="Grupo 3910" transform="translate(2.133 5.525)">
            <path id="Caminho_6892" data-name="Caminho 6892" class="cls-11" d="M5122.644,417.916a.836.836,0,1,0,1.424-.525A2.2,2.2,0,0,0,5122.644,417.916Z" transform="translate(-5122.119 -417.392)"/>
          </g>
          <g id="Grupo_3911" data-name="Grupo 3911" transform="translate(0 5.525)">
            <path id="Caminho_6893" data-name="Caminho 6893" class="cls-11" d="M5119.085,417.392a1.811,1.811,0,1,0,1.424.525A2.2,2.2,0,0,0,5119.085,417.392Z" transform="translate(-5119.085 -417.392)"/>
          </g>
          <g id="Grupo_3912" data-name="Grupo 3912" transform="translate(2.133 7.298)">
            <path id="Caminho_6894" data-name="Caminho 6894" class="cls-11" d="M5122.644,420.438a.836.836,0,1,0,1.424-.525A2.2,2.2,0,0,0,5122.644,420.438Z" transform="translate(-5122.119 -419.913)"/>
          </g>
          <g id="Grupo_3913" data-name="Grupo 3913" transform="translate(0 7.298)">
            <path id="Caminho_6895" data-name="Caminho 6895" class="cls-11" d="M5119.085,419.913a1.812,1.812,0,1,0,1.424.525A2.2,2.2,0,0,0,5119.085,419.913Z" transform="translate(-5119.085 -419.913)"/>
          </g>
        </g>
        <g id="Grupo_3915" data-name="Grupo 3915" transform="translate(1.844 1.379)">
          <rect id="Retângulo_3121" data-name="Retângulo 3121" class="cls-11" width="0.459" height="15.974"/>
        </g>
      </g>
      <g id="Grupo_3928" data-name="Grupo 3928" transform="translate(13.84 0)">
        <g id="Grupo_3926" data-name="Grupo 3926">
          <g id="Grupo_3917" data-name="Grupo 3917" transform="translate(1.438)">
            <path id="Caminho_6896" data-name="Caminho 6896" class="cls-11" d="M5108.642,409.533a1.814,1.814,0,1,0,.636,1.379A2.2,2.2,0,0,0,5108.642,409.533Z" transform="translate(-5108.006 -409.533)"/>
          </g>
          <g id="Grupo_3918" data-name="Grupo 3918" transform="translate(2.133 1.98)">
            <path id="Caminho_6897" data-name="Caminho 6897" class="cls-11" d="M5109.52,412.874a.836.836,0,1,0,1.424-.525A2.2,2.2,0,0,0,5109.52,412.874Z" transform="translate(-5108.995 -412.349)"/>
          </g>
          <g id="Grupo_3919" data-name="Grupo 3919" transform="translate(0 1.98)">
            <path id="Caminho_6898" data-name="Caminho 6898" class="cls-11" d="M5105.962,412.349a1.812,1.812,0,1,0,1.424.525A2.2,2.2,0,0,0,5105.962,412.349Z" transform="translate(-5105.962 -412.349)"/>
          </g>
          <g id="Grupo_3920" data-name="Grupo 3920" transform="translate(2.133 3.752)">
            <path id="Caminho_6899" data-name="Caminho 6899" class="cls-11" d="M5109.52,415.4a.836.836,0,1,0,1.424-.525A2.2,2.2,0,0,0,5109.52,415.4Z" transform="translate(-5108.995 -414.87)"/>
          </g>
          <g id="Grupo_3921" data-name="Grupo 3921" transform="translate(0 3.752)">
            <path id="Caminho_6900" data-name="Caminho 6900" class="cls-11" d="M5105.962,414.87a1.812,1.812,0,1,0,1.424.525A2.2,2.2,0,0,0,5105.962,414.87Z" transform="translate(-5105.962 -414.87)"/>
          </g>
          <g id="Grupo_3922" data-name="Grupo 3922" transform="translate(2.133 5.525)">
            <path id="Caminho_6901" data-name="Caminho 6901" class="cls-11" d="M5109.52,417.916a.836.836,0,1,0,1.424-.525A2.2,2.2,0,0,0,5109.52,417.916Z" transform="translate(-5108.995 -417.392)"/>
          </g>
          <g id="Grupo_3923" data-name="Grupo 3923" transform="translate(0 5.525)">
            <path id="Caminho_6902" data-name="Caminho 6902" class="cls-11" d="M5105.962,417.392a1.811,1.811,0,1,0,1.424.525A2.2,2.2,0,0,0,5105.962,417.392Z" transform="translate(-5105.962 -417.392)"/>
          </g>
          <g id="Grupo_3924" data-name="Grupo 3924" transform="translate(2.133 7.298)">
            <path id="Caminho_6903" data-name="Caminho 6903" class="cls-11" d="M5109.52,420.438a.836.836,0,1,0,1.424-.525A2.2,2.2,0,0,0,5109.52,420.438Z" transform="translate(-5108.995 -419.913)"/>
          </g>
          <g id="Grupo_3925" data-name="Grupo 3925" transform="translate(0 7.298)">
            <path id="Caminho_6904" data-name="Caminho 6904" class="cls-11" d="M5105.962,419.913a1.812,1.812,0,1,0,1.424.525A2.2,2.2,0,0,0,5105.962,419.913Z" transform="translate(-5105.962 -419.913)"/>
          </g>
        </g>
        <g id="Grupo_3927" data-name="Grupo 3927" transform="translate(1.844 1.379)">
          <rect id="Retângulo_3122" data-name="Retângulo 3122" class="cls-11" width="0.459" height="15.974"/>
        </g>
      </g>
      <g id="Grupo_3940" data-name="Grupo 3940" transform="translate(4.613 0)">
        <g id="Grupo_3938" data-name="Grupo 3938">
          <g id="Grupo_3929" data-name="Grupo 3929" transform="translate(1.437)">
            <path id="Caminho_6905" data-name="Caminho 6905" class="cls-11" d="M5095.519,409.533a1.815,1.815,0,1,0,.635,1.379A2.2,2.2,0,0,0,5095.519,409.533Z" transform="translate(-5094.883 -409.533)"/>
          </g>
          <g id="Grupo_3930" data-name="Grupo 3930" transform="translate(2.133 1.98)">
            <path id="Caminho_6906" data-name="Caminho 6906" class="cls-11" d="M5096.4,412.874a.836.836,0,1,0,1.425-.525A2.2,2.2,0,0,0,5096.4,412.874Z" transform="translate(-5095.872 -412.349)"/>
          </g>
          <g id="Grupo_3931" data-name="Grupo 3931" transform="translate(0 1.98)">
            <path id="Caminho_6907" data-name="Caminho 6907" class="cls-11" d="M5092.839,412.349a1.809,1.809,0,1,0,1.424.525A2.2,2.2,0,0,0,5092.839,412.349Z" transform="translate(-5092.839 -412.349)"/>
          </g>
          <g id="Grupo_3932" data-name="Grupo 3932" transform="translate(2.133 3.752)">
            <path id="Caminho_6908" data-name="Caminho 6908" class="cls-11" d="M5096.4,415.4a.836.836,0,1,0,1.425-.525A2.2,2.2,0,0,0,5096.4,415.4Z" transform="translate(-5095.872 -414.87)"/>
          </g>
          <g id="Grupo_3933" data-name="Grupo 3933" transform="translate(0 3.752)">
            <path id="Caminho_6909" data-name="Caminho 6909" class="cls-11" d="M5092.839,414.87a1.809,1.809,0,1,0,1.424.525A2.2,2.2,0,0,0,5092.839,414.87Z" transform="translate(-5092.839 -414.87)"/>
          </g>
          <g id="Grupo_3934" data-name="Grupo 3934" transform="translate(2.133 5.525)">
            <path id="Caminho_6910" data-name="Caminho 6910" class="cls-11" d="M5096.4,417.916a.836.836,0,1,0,1.425-.525A2.2,2.2,0,0,0,5096.4,417.916Z" transform="translate(-5095.872 -417.392)"/>
          </g>
          <g id="Grupo_3935" data-name="Grupo 3935" transform="translate(0 5.525)">
            <path id="Caminho_6911" data-name="Caminho 6911" class="cls-11" d="M5092.839,417.392a1.808,1.808,0,1,0,1.424.525A2.2,2.2,0,0,0,5092.839,417.392Z" transform="translate(-5092.839 -417.392)"/>
          </g>
          <g id="Grupo_3936" data-name="Grupo 3936" transform="translate(2.133 7.298)">
            <path id="Caminho_6912" data-name="Caminho 6912" class="cls-11" d="M5096.4,420.438a.836.836,0,1,0,1.425-.525A2.2,2.2,0,0,0,5096.4,420.438Z" transform="translate(-5095.872 -419.913)"/>
          </g>
          <g id="Grupo_3937" data-name="Grupo 3937" transform="translate(0 7.298)">
            <path id="Caminho_6913" data-name="Caminho 6913" class="cls-11" d="M5092.839,419.913a1.809,1.809,0,1,0,1.424.525A2.2,2.2,0,0,0,5092.839,419.913Z" transform="translate(-5092.839 -419.913)"/>
          </g>
        </g>
        <g id="Grupo_3939" data-name="Grupo 3939" transform="translate(1.843 1.379)">
          <rect id="Retângulo_3123" data-name="Retângulo 3123" class="cls-11" width="0.459" height="15.974"/>
        </g>
      </g>
      <g id="Grupo_4013" data-name="Grupo 4013" transform="translate(0 4.765)">
        <g id="Grupo_3952" data-name="Grupo 3952" transform="translate(56.296)">
          <g id="Grupo_3950" data-name="Grupo 3950">
            <g id="Grupo_3941" data-name="Grupo 3941" transform="translate(1.437)">
              <path id="Caminho_6914" data-name="Caminho 6914" class="cls-11" d="M5169.029,416.311a1.813,1.813,0,1,0,.636,1.379A2.205,2.205,0,0,0,5169.029,416.311Z" transform="translate(-5168.392 -416.311)"/>
            </g>
            <g id="Grupo_3942" data-name="Grupo 3942" transform="translate(2.132 1.98)">
              <path id="Caminho_6915" data-name="Caminho 6915" class="cls-11" d="M5169.906,419.652a.836.836,0,1,0,1.424-.525A2.2,2.2,0,0,0,5169.906,419.652Z" transform="translate(-5169.381 -419.127)"/>
            </g>
            <g id="Grupo_3943" data-name="Grupo 3943" transform="translate(0 1.98)">
              <path id="Caminho_6916" data-name="Caminho 6916" class="cls-11" d="M5166.349,419.127a1.812,1.812,0,1,0,1.423.525A2.2,2.2,0,0,0,5166.349,419.127Z" transform="translate(-5166.349 -419.127)"/>
            </g>
            <g id="Grupo_3944" data-name="Grupo 3944" transform="translate(2.132 3.753)">
              <path id="Caminho_6917" data-name="Caminho 6917" class="cls-11" d="M5169.906,422.173a.836.836,0,1,0,1.424-.524A2.2,2.2,0,0,0,5169.906,422.173Z" transform="translate(-5169.381 -421.649)"/>
            </g>
            <g id="Grupo_3945" data-name="Grupo 3945" transform="translate(0 3.753)">
              <path id="Caminho_6918" data-name="Caminho 6918" class="cls-11" d="M5166.349,421.649a1.811,1.811,0,1,0,1.423.524A2.2,2.2,0,0,0,5166.349,421.649Z" transform="translate(-5166.349 -421.649)"/>
            </g>
            <g id="Grupo_3946" data-name="Grupo 3946" transform="translate(2.132 5.525)">
              <path id="Caminho_6919" data-name="Caminho 6919" class="cls-11" d="M5169.906,424.7a.836.836,0,1,0,1.424-.525A2.2,2.2,0,0,0,5169.906,424.7Z" transform="translate(-5169.381 -424.17)"/>
            </g>
            <g id="Grupo_3947" data-name="Grupo 3947" transform="translate(0 5.525)">
              <path id="Caminho_6920" data-name="Caminho 6920" class="cls-11" d="M5166.349,424.17a1.812,1.812,0,1,0,1.423.525A2.2,2.2,0,0,0,5166.349,424.17Z" transform="translate(-5166.349 -424.17)"/>
            </g>
            <g id="Grupo_3948" data-name="Grupo 3948" transform="translate(2.132 7.298)">
              <path id="Caminho_6921" data-name="Caminho 6921" class="cls-11" d="M5169.906,427.216a.836.836,0,1,0,1.424-.525A2.2,2.2,0,0,0,5169.906,427.216Z" transform="translate(-5169.381 -426.691)"/>
            </g>
            <g id="Grupo_3949" data-name="Grupo 3949" transform="translate(0 7.298)">
              <path id="Caminho_6922" data-name="Caminho 6922" class="cls-11" d="M5166.349,426.691a1.812,1.812,0,1,0,1.423.525A2.205,2.205,0,0,0,5166.349,426.691Z" transform="translate(-5166.349 -426.691)"/>
            </g>
          </g>
          <g id="Grupo_3951" data-name="Grupo 3951" transform="translate(1.843 1.379)">
            <rect id="Retângulo_3124" data-name="Retângulo 3124" class="cls-11" width="0.459" height="15.974"/>
          </g>
        </g>
        <g id="Grupo_3964" data-name="Grupo 3964" transform="translate(37.842)">
          <g id="Grupo_3962" data-name="Grupo 3962">
            <g id="Grupo_3953" data-name="Grupo 3953" transform="translate(1.437)">
              <path id="Caminho_6923" data-name="Caminho 6923" class="cls-11" d="M5142.78,416.311a1.811,1.811,0,1,0,.637,1.379A2.206,2.206,0,0,0,5142.78,416.311Z" transform="translate(-5142.144 -416.311)"/>
            </g>
            <g id="Grupo_3954" data-name="Grupo 3954" transform="translate(2.132 1.98)">
              <path id="Caminho_6924" data-name="Caminho 6924" class="cls-11" d="M5143.658,419.652a.836.836,0,1,0,1.424-.525A2.2,2.2,0,0,0,5143.658,419.652Z" transform="translate(-5143.134 -419.127)"/>
            </g>
            <g id="Grupo_3955" data-name="Grupo 3955" transform="translate(0 1.98)">
              <path id="Caminho_6925" data-name="Caminho 6925" class="cls-11" d="M5140.1,419.127a1.812,1.812,0,1,0,1.424.525A2.206,2.206,0,0,0,5140.1,419.127Z" transform="translate(-5140.101 -419.127)"/>
            </g>
            <g id="Grupo_3956" data-name="Grupo 3956" transform="translate(2.132 3.753)">
              <path id="Caminho_6926" data-name="Caminho 6926" class="cls-11" d="M5143.658,422.173a.836.836,0,1,0,1.424-.524A2.2,2.2,0,0,0,5143.658,422.173Z" transform="translate(-5143.134 -421.649)"/>
            </g>
            <g id="Grupo_3957" data-name="Grupo 3957" transform="translate(0 3.753)">
              <path id="Caminho_6927" data-name="Caminho 6927" class="cls-11" d="M5140.1,421.649a1.811,1.811,0,1,0,1.424.524A2.206,2.206,0,0,0,5140.1,421.649Z" transform="translate(-5140.101 -421.649)"/>
            </g>
            <g id="Grupo_3958" data-name="Grupo 3958" transform="translate(2.132 5.525)">
              <path id="Caminho_6928" data-name="Caminho 6928" class="cls-11" d="M5143.658,424.7a.836.836,0,1,0,1.424-.525A2.2,2.2,0,0,0,5143.658,424.7Z" transform="translate(-5143.134 -424.17)"/>
            </g>
            <g id="Grupo_3959" data-name="Grupo 3959" transform="translate(0 5.525)">
              <path id="Caminho_6929" data-name="Caminho 6929" class="cls-11" d="M5140.1,424.17a1.812,1.812,0,1,0,1.424.525A2.205,2.205,0,0,0,5140.1,424.17Z" transform="translate(-5140.101 -424.17)"/>
            </g>
            <g id="Grupo_3960" data-name="Grupo 3960" transform="translate(2.132 7.298)">
              <path id="Caminho_6930" data-name="Caminho 6930" class="cls-11" d="M5143.658,427.216a.836.836,0,1,0,1.424-.525A2.2,2.2,0,0,0,5143.658,427.216Z" transform="translate(-5143.134 -426.691)"/>
            </g>
            <g id="Grupo_3961" data-name="Grupo 3961" transform="translate(0 7.298)">
              <path id="Caminho_6931" data-name="Caminho 6931" class="cls-11" d="M5140.1,426.691a1.812,1.812,0,1,0,1.424.525A2.207,2.207,0,0,0,5140.1,426.691Z" transform="translate(-5140.101 -426.691)"/>
            </g>
          </g>
          <g id="Grupo_3963" data-name="Grupo 3963" transform="translate(1.844 1.379)">
            <rect id="Retângulo_3125" data-name="Retângulo 3125" class="cls-11" width="0.459" height="15.974"/>
          </g>
        </g>
        <g id="Grupo_3976" data-name="Grupo 3976" transform="translate(28.615)">
          <g id="Grupo_3974" data-name="Grupo 3974">
            <g id="Grupo_3965" data-name="Grupo 3965" transform="translate(1.438)">
              <path id="Caminho_6932" data-name="Caminho 6932" class="cls-11" d="M5129.657,416.311a1.813,1.813,0,1,0,.636,1.379A2.208,2.208,0,0,0,5129.657,416.311Z" transform="translate(-5129.022 -416.311)"/>
            </g>
            <g id="Grupo_3966" data-name="Grupo 3966" transform="translate(2.132 1.98)">
              <path id="Caminho_6933" data-name="Caminho 6933" class="cls-11" d="M5130.535,419.652a.836.836,0,1,0,1.425-.525A2.207,2.207,0,0,0,5130.535,419.652Z" transform="translate(-5130.01 -419.127)"/>
            </g>
            <g id="Grupo_3967" data-name="Grupo 3967" transform="translate(0 1.98)">
              <path id="Caminho_6934" data-name="Caminho 6934" class="cls-11" d="M5126.977,419.127a1.813,1.813,0,1,0,1.425.525A2.209,2.209,0,0,0,5126.977,419.127Z" transform="translate(-5126.977 -419.127)"/>
            </g>
            <g id="Grupo_3968" data-name="Grupo 3968" transform="translate(2.132 3.753)">
              <path id="Caminho_6935" data-name="Caminho 6935" class="cls-11" d="M5130.535,422.173a.836.836,0,1,0,1.425-.524A2.207,2.207,0,0,0,5130.535,422.173Z" transform="translate(-5130.01 -421.649)"/>
            </g>
            <g id="Grupo_3969" data-name="Grupo 3969" transform="translate(0 3.753)">
              <path id="Caminho_6936" data-name="Caminho 6936" class="cls-11" d="M5126.977,421.649a1.812,1.812,0,1,0,1.425.524A2.209,2.209,0,0,0,5126.977,421.649Z" transform="translate(-5126.977 -421.649)"/>
            </g>
            <g id="Grupo_3970" data-name="Grupo 3970" transform="translate(2.132 5.525)">
              <path id="Caminho_6937" data-name="Caminho 6937" class="cls-11" d="M5130.535,424.7a.836.836,0,1,0,1.425-.525A2.207,2.207,0,0,0,5130.535,424.7Z" transform="translate(-5130.01 -424.17)"/>
            </g>
            <g id="Grupo_3971" data-name="Grupo 3971" transform="translate(0 5.525)">
              <path id="Caminho_6938" data-name="Caminho 6938" class="cls-11" d="M5126.977,424.17a1.813,1.813,0,1,0,1.425.525A2.209,2.209,0,0,0,5126.977,424.17Z" transform="translate(-5126.977 -424.17)"/>
            </g>
            <g id="Grupo_3972" data-name="Grupo 3972" transform="translate(2.132 7.298)">
              <path id="Caminho_6939" data-name="Caminho 6939" class="cls-11" d="M5130.535,427.216a.836.836,0,1,0,1.425-.525A2.207,2.207,0,0,0,5130.535,427.216Z" transform="translate(-5130.01 -426.691)"/>
            </g>
            <g id="Grupo_3973" data-name="Grupo 3973" transform="translate(0 7.298)">
              <path id="Caminho_6940" data-name="Caminho 6940" class="cls-11" d="M5126.977,426.691a1.813,1.813,0,1,0,1.425.525A2.211,2.211,0,0,0,5126.977,426.691Z" transform="translate(-5126.977 -426.691)"/>
            </g>
          </g>
          <g id="Grupo_3975" data-name="Grupo 3975" transform="translate(1.844 1.379)">
            <rect id="Retângulo_3126" data-name="Retângulo 3126" class="cls-11" width="0.459" height="15.974"/>
          </g>
        </g>
        <g id="Grupo_3988" data-name="Grupo 3988" transform="translate(18.453)">
          <g id="Grupo_3986" data-name="Grupo 3986">
            <g id="Grupo_3977" data-name="Grupo 3977" transform="translate(1.438)">
              <path id="Caminho_6941" data-name="Caminho 6941" class="cls-11" d="M5115.2,416.311a1.814,1.814,0,1,0,.636,1.379A2.207,2.207,0,0,0,5115.2,416.311Z" transform="translate(-5114.568 -416.311)"/>
            </g>
            <g id="Grupo_3978" data-name="Grupo 3978" transform="translate(2.133 1.98)">
              <path id="Caminho_6942" data-name="Caminho 6942" class="cls-11" d="M5116.082,419.652a.836.836,0,1,0,1.424-.525A2.2,2.2,0,0,0,5116.082,419.652Z" transform="translate(-5115.557 -419.127)"/>
            </g>
            <g id="Grupo_3979" data-name="Grupo 3979" transform="translate(0 1.98)">
              <path id="Caminho_6943" data-name="Caminho 6943" class="cls-11" d="M5112.523,419.127a1.813,1.813,0,1,0,1.424.525A2.2,2.2,0,0,0,5112.523,419.127Z" transform="translate(-5112.523 -419.127)"/>
            </g>
            <g id="Grupo_3980" data-name="Grupo 3980" transform="translate(2.133 3.753)">
              <path id="Caminho_6944" data-name="Caminho 6944" class="cls-11" d="M5116.082,422.173a.836.836,0,1,0,1.424-.524A2.2,2.2,0,0,0,5116.082,422.173Z" transform="translate(-5115.557 -421.649)"/>
            </g>
            <g id="Grupo_3981" data-name="Grupo 3981" transform="translate(0 3.753)">
              <path id="Caminho_6945" data-name="Caminho 6945" class="cls-11" d="M5112.523,421.649a1.812,1.812,0,1,0,1.424.524A2.2,2.2,0,0,0,5112.523,421.649Z" transform="translate(-5112.523 -421.649)"/>
            </g>
            <g id="Grupo_3982" data-name="Grupo 3982" transform="translate(2.133 5.525)">
              <path id="Caminho_6946" data-name="Caminho 6946" class="cls-11" d="M5116.082,424.7a.836.836,0,1,0,1.424-.525A2.2,2.2,0,0,0,5116.082,424.7Z" transform="translate(-5115.557 -424.17)"/>
            </g>
            <g id="Grupo_3983" data-name="Grupo 3983" transform="translate(0 5.525)">
              <path id="Caminho_6947" data-name="Caminho 6947" class="cls-11" d="M5112.523,424.17a1.813,1.813,0,1,0,1.424.525A2.2,2.2,0,0,0,5112.523,424.17Z" transform="translate(-5112.523 -424.17)"/>
            </g>
            <g id="Grupo_3984" data-name="Grupo 3984" transform="translate(2.133 7.298)">
              <path id="Caminho_6948" data-name="Caminho 6948" class="cls-11" d="M5116.082,427.216a.836.836,0,1,0,1.424-.525A2.2,2.2,0,0,0,5116.082,427.216Z" transform="translate(-5115.557 -426.691)"/>
            </g>
            <g id="Grupo_3985" data-name="Grupo 3985" transform="translate(0 7.298)">
              <path id="Caminho_6949" data-name="Caminho 6949" class="cls-11" d="M5112.523,426.691a1.813,1.813,0,1,0,1.424.525A2.2,2.2,0,0,0,5112.523,426.691Z" transform="translate(-5112.523 -426.691)"/>
            </g>
          </g>
          <g id="Grupo_3987" data-name="Grupo 3987" transform="translate(1.844 1.379)">
            <rect id="Retângulo_3127" data-name="Retângulo 3127" class="cls-11" width="0.459" height="15.974"/>
          </g>
        </g>
        <g id="Grupo_4000" data-name="Grupo 4000" transform="translate(9.227)">
          <g id="Grupo_3998" data-name="Grupo 3998">
            <g id="Grupo_3989" data-name="Grupo 3989" transform="translate(1.437)">
              <path id="Caminho_6950" data-name="Caminho 6950" class="cls-11" d="M5102.08,416.311a1.814,1.814,0,1,0,.636,1.379A2.207,2.207,0,0,0,5102.08,416.311Z" transform="translate(-5101.445 -416.311)"/>
            </g>
            <g id="Grupo_3990" data-name="Grupo 3990" transform="translate(2.132 1.98)">
              <path id="Caminho_6951" data-name="Caminho 6951" class="cls-11" d="M5102.958,419.652a.836.836,0,1,0,1.425-.525A2.2,2.2,0,0,0,5102.958,419.652Z" transform="translate(-5102.433 -419.127)"/>
            </g>
            <g id="Grupo_3991" data-name="Grupo 3991" transform="translate(0 1.98)">
              <path id="Caminho_6952" data-name="Caminho 6952" class="cls-11" d="M5099.4,419.127a1.811,1.811,0,1,0,1.425.525A2.2,2.2,0,0,0,5099.4,419.127Z" transform="translate(-5099.4 -419.127)"/>
            </g>
            <g id="Grupo_3992" data-name="Grupo 3992" transform="translate(2.132 3.753)">
              <path id="Caminho_6953" data-name="Caminho 6953" class="cls-11" d="M5102.958,422.173a.836.836,0,1,0,1.425-.524A2.2,2.2,0,0,0,5102.958,422.173Z" transform="translate(-5102.433 -421.649)"/>
            </g>
            <g id="Grupo_3993" data-name="Grupo 3993" transform="translate(0 3.753)">
              <path id="Caminho_6954" data-name="Caminho 6954" class="cls-11" d="M5099.4,421.649a1.81,1.81,0,1,0,1.425.524A2.2,2.2,0,0,0,5099.4,421.649Z" transform="translate(-5099.4 -421.649)"/>
            </g>
            <g id="Grupo_3994" data-name="Grupo 3994" transform="translate(2.132 5.525)">
              <path id="Caminho_6955" data-name="Caminho 6955" class="cls-11" d="M5102.958,424.7a.836.836,0,1,0,1.425-.525A2.2,2.2,0,0,0,5102.958,424.7Z" transform="translate(-5102.433 -424.17)"/>
            </g>
            <g id="Grupo_3995" data-name="Grupo 3995" transform="translate(0 5.525)">
              <path id="Caminho_6956" data-name="Caminho 6956" class="cls-11" d="M5099.4,424.17a1.811,1.811,0,1,0,1.425.525A2.2,2.2,0,0,0,5099.4,424.17Z" transform="translate(-5099.4 -424.17)"/>
            </g>
            <g id="Grupo_3996" data-name="Grupo 3996" transform="translate(2.132 7.298)">
              <path id="Caminho_6957" data-name="Caminho 6957" class="cls-11" d="M5102.958,427.216a.836.836,0,1,0,1.425-.525A2.2,2.2,0,0,0,5102.958,427.216Z" transform="translate(-5102.433 -426.691)"/>
            </g>
            <g id="Grupo_3997" data-name="Grupo 3997" transform="translate(0 7.298)">
              <path id="Caminho_6958" data-name="Caminho 6958" class="cls-11" d="M5099.4,426.691a1.811,1.811,0,1,0,1.425.525A2.205,2.205,0,0,0,5099.4,426.691Z" transform="translate(-5099.4 -426.691)"/>
            </g>
          </g>
          <g id="Grupo_3999" data-name="Grupo 3999" transform="translate(1.843 1.379)">
            <rect id="Retângulo_3128" data-name="Retângulo 3128" class="cls-11" width="0.459" height="15.974"/>
          </g>
        </g>
        <g id="Grupo_4012" data-name="Grupo 4012">
          <g id="Grupo_4010" data-name="Grupo 4010">
            <g id="Grupo_4001" data-name="Grupo 4001" transform="translate(1.437)">
              <path id="Caminho_6959" data-name="Caminho 6959" class="cls-11" d="M5088.958,416.311a1.813,1.813,0,1,0,.636,1.379A2.205,2.205,0,0,0,5088.958,416.311Z" transform="translate(-5088.321 -416.311)"/>
            </g>
            <g id="Grupo_4002" data-name="Grupo 4002" transform="translate(2.133 1.98)">
              <path id="Caminho_6960" data-name="Caminho 6960" class="cls-11" d="M5089.834,419.652a.836.836,0,1,0,1.424-.525A2.2,2.2,0,0,0,5089.834,419.652Z" transform="translate(-5089.31 -419.127)"/>
            </g>
            <g id="Grupo_4003" data-name="Grupo 4003" transform="translate(0 1.98)">
              <path id="Caminho_6961" data-name="Caminho 6961" class="cls-11" d="M5086.276,419.127a1.811,1.811,0,1,0,1.425.525A2.209,2.209,0,0,0,5086.276,419.127Z" transform="translate(-5086.276 -419.127)"/>
            </g>
            <g id="Grupo_4004" data-name="Grupo 4004" transform="translate(2.133 3.753)">
              <path id="Caminho_6962" data-name="Caminho 6962" class="cls-11" d="M5089.834,422.173a.836.836,0,1,0,1.424-.524A2.2,2.2,0,0,0,5089.834,422.173Z" transform="translate(-5089.31 -421.649)"/>
            </g>
            <g id="Grupo_4005" data-name="Grupo 4005" transform="translate(0 3.753)">
              <path id="Caminho_6963" data-name="Caminho 6963" class="cls-11" d="M5086.276,421.649a1.81,1.81,0,1,0,1.425.524A2.209,2.209,0,0,0,5086.276,421.649Z" transform="translate(-5086.276 -421.649)"/>
            </g>
            <g id="Grupo_4006" data-name="Grupo 4006" transform="translate(2.133 5.525)">
              <path id="Caminho_6964" data-name="Caminho 6964" class="cls-11" d="M5089.834,424.7a.836.836,0,1,0,1.424-.525A2.2,2.2,0,0,0,5089.834,424.7Z" transform="translate(-5089.31 -424.17)"/>
            </g>
            <g id="Grupo_4007" data-name="Grupo 4007" transform="translate(0 5.525)">
              <path id="Caminho_6965" data-name="Caminho 6965" class="cls-11" d="M5086.276,424.17a1.811,1.811,0,1,0,1.425.525A2.209,2.209,0,0,0,5086.276,424.17Z" transform="translate(-5086.276 -424.17)"/>
            </g>
            <g id="Grupo_4008" data-name="Grupo 4008" transform="translate(2.133 7.298)">
              <path id="Caminho_6966" data-name="Caminho 6966" class="cls-11" d="M5089.834,427.216a.836.836,0,1,0,1.424-.525A2.2,2.2,0,0,0,5089.834,427.216Z" transform="translate(-5089.31 -426.691)"/>
            </g>
            <g id="Grupo_4009" data-name="Grupo 4009" transform="translate(0 7.298)">
              <path id="Caminho_6967" data-name="Caminho 6967" class="cls-11" d="M5086.276,426.691a1.811,1.811,0,1,0,1.425.525A2.21,2.21,0,0,0,5086.276,426.691Z" transform="translate(-5086.276 -426.691)"/>
            </g>
          </g>
          <g id="Grupo_4011" data-name="Grupo 4011" transform="translate(1.843 1.379)">
            <rect id="Retângulo_3129" data-name="Retângulo 3129" class="cls-11" width="0.459" height="15.974"/>
          </g>
        </g>
      </g>
    </g>
    <g id="Grupo_4015" data-name="Grupo 4015" transform="translate(-2598.886 3747.094)">
      <path id="Caminho_6968" data-name="Caminho 6968" class="cls-12" d="M5171.6,368.58h-2.5c-1.362,0-2.81-.945-2.812-3.5,0-2.089,1.313-3.37,2.812-3.37h2.5v2.224h-1.827a1.048,1.048,0,0,0-1.1,1.19,1.077,1.077,0,0,0,1.1,1.22h1.827Z" transform="translate(-5148.588 -361.714)"/>
      <path id="Caminho_6969" data-name="Caminho 6969" class="cls-12" d="M5147.354,366.4a.994.994,0,0,0,1.143-1.107c0-.61-.26-1.1-1.143-1.1h-1.235V363.6h2.769v-1.881h-5.222v2.474h-1.417c-.882,0-1.139.494-1.139,1.1a.992.992,0,0,0,1.139,1.107h1.387v2.18h2.483V366.4Z" transform="translate(-5141.11 -361.714)"/>
      <path id="Caminho_6970" data-name="Caminho 6970" class="cls-12" d="M5158.582,368.58l1.092-4.946v4.946h2.188v-6.866h-2.316c-1.393,0-1.523.7-1.713,1.537l-.458,2.229-.456-2.229c-.19-.837-.32-1.537-1.713-1.537h-2.315v6.866h2.187v-4.946l1.093,4.946Z" transform="translate(-5144.609 -361.714)"/>
    </g>
    <g id="Grupo_4016" data-name="Grupo 4016" transform="translate(-2582.402 3676.419)">
      <path id="Caminho_6971" data-name="Caminho 6971" class="cls-12" d="M5128.439,268.054h-2.5c-1.362,0-2.811-.944-2.812-3.5,0-2.089,1.313-3.37,2.813-3.37h2.5v2.223h-1.827a1.048,1.048,0,0,0-1.1,1.19,1.076,1.076,0,0,0,1.1,1.22h1.827Z" transform="translate(-5105.424 -261.189)"/>
      <path id="Caminho_6972" data-name="Caminho 6972" class="cls-12" d="M5104.191,265.875a.994.994,0,0,0,1.142-1.107c0-.61-.26-1.1-1.142-1.1h-1.235v-.593h2.768v-1.881H5100.5v2.474h-1.416c-.884,0-1.138.494-1.138,1.1a.99.99,0,0,0,1.138,1.107h1.386v2.18h2.484v-2.18Z" transform="translate(-5097.948 -261.189)"/>
      <path id="Caminho_6973" data-name="Caminho 6973" class="cls-12" d="M5115.417,268.054l1.091-4.945v4.945h2.188v-6.865h-2.316c-1.392,0-1.522.7-1.712,1.537l-.459,2.229-.456-2.229c-.19-.837-.319-1.537-1.711-1.537h-2.317v6.865h2.188v-4.945l1.092,4.945Z" transform="translate(-5101.444 -261.189)"/>
    </g>
    <g id="Grupo_4017" data-name="Grupo 4017" transform="translate(-2458.259 3676.419)">
      <path id="Caminho_6974" data-name="Caminho 6974" class="cls-12" d="M5312.034,268.054h-2.5c-1.362,0-2.81-.944-2.812-3.5,0-2.089,1.313-3.37,2.812-3.37h2.5v2.223h-1.826a1.049,1.049,0,0,0-1.1,1.19,1.077,1.077,0,0,0,1.1,1.22h1.826Z" transform="translate(-5289.018 -261.189)"/>
      <path id="Caminho_6975" data-name="Caminho 6975" class="cls-12" d="M5287.785,265.875a.994.994,0,0,0,1.142-1.107c0-.61-.259-1.1-1.142-1.1h-1.235v-.593h2.769v-1.881H5284.1v2.474h-1.415c-.885,0-1.139.494-1.139,1.1s.254,1.107,1.139,1.107h1.385v2.18h2.483v-2.18Z" transform="translate(-5281.542 -261.189)"/>
      <path id="Caminho_6976" data-name="Caminho 6976" class="cls-12" d="M5299.011,268.054l1.092-4.945v4.945h2.188v-6.865h-2.317c-1.392,0-1.522.7-1.713,1.537l-.458,2.229-.457-2.229c-.188-.837-.318-1.537-1.711-1.537h-2.317v6.865h2.188v-4.945l1.092,4.945Z" transform="translate(-5285.039 -261.189)"/>
    </g>
    <g id="Grupo_4018" data-name="Grupo 4018" transform="translate(-2530.247 3728.049)">
      <path id="Caminho_6977" data-name="Caminho 6977" class="cls-12" d="M5259.389,341.492h-2.5c-1.363,0-2.811-.944-2.812-3.5,0-2.089,1.313-3.371,2.813-3.371h2.5v2.224h-1.827a1.049,1.049,0,0,0-1.1,1.19,1.077,1.077,0,0,0,1.1,1.22h1.827Z" transform="translate(-5236.373 -334.626)"/>
      <path id="Caminho_6978" data-name="Caminho 6978" class="cls-12" d="M5235.139,339.312c.884,0,1.144-.5,1.144-1.107s-.26-1.105-1.144-1.105h-1.234v-.593h2.768v-1.881h-5.222V337.1h-1.416c-.885,0-1.14.495-1.14,1.105s.255,1.107,1.14,1.107h1.385v2.18h2.484v-2.18Z" transform="translate(-5228.896 -334.626)"/>
      <path id="Caminho_6979" data-name="Caminho 6979" class="cls-12" d="M5246.366,341.492l1.091-4.946v4.946h2.188v-6.866h-2.316c-1.393,0-1.523.7-1.713,1.538l-.458,2.229-.457-2.229c-.188-.837-.319-1.538-1.712-1.538h-2.315v6.866h2.187v-4.946l1.091,4.946Z" transform="translate(-5232.394 -334.626)"/>
    </g>
    <g id="Grupo_4022" data-name="Grupo 4022" transform="translate(-2707.123 3679.376)">
      <g id="Grupo_4019" data-name="Grupo 4019">
        <path id="Caminho_6980" data-name="Caminho 6980" class="cls-13" d="M5054.235,265.395v.01H4988.6c7.152,39.619,8.126,86.146,3.576,98.011a12.016,12.016,0,0,1-3.576,5.233v1.113h62.625v-.013c2.467.077,5.07-2.4,6.583-6.342C5062.362,351.541,5061.386,305.014,5054.235,265.395Z" transform="translate(-4963.955 -265.395)"/>
        <path id="Caminho_6981" data-name="Caminho 6981" class="cls-14" d="M5063.273,376.163a49,49,0,0,1-1-5.267c-2.162-15.4-.174-40.141.905-52.391.451-5.123-.572-9.741-5.164-9.741-.105,0-.212.006-.319.01-3.235.1-6.567,1.758-8.048,7.615-2.637,10.432-3.283,42.554-2.338,66.241h21.23v0C5066.43,382.561,5064.421,380.636,5063.273,376.163Z" transform="translate(-4981.265 -278.273)"/>
        <path id="Caminho_6982" data-name="Caminho 6982" class="cls-15" d="M5021.9,407.181c-3.431-13.673-3.836-75.5.026-90.778,1.48-5.857,4.813-7.516,8.048-7.615v-.009h-65.312c-3.332,0-6.837,1.575-8.368,7.625-3.862,15.28-3.458,77.105-.025,90.778,1.543,6.148,3.882,9.458,8.074,9.458h65.631C5025.782,416.639,5023.443,413.329,5021.9,407.181Z" transform="translate(-4953.543 -278.277)"/>
        <path id="Caminho_6983" data-name="Caminho 6983" class="cls-14" d="M5049.383,440.535a49.953,49.953,0,0,0,.976,5.77c1.542,6.148,3.882,9.458,8.074,9.458,4.625,0,8.527-3.282,8.527-15.228Z" transform="translate(-4982.003 -317.401)"/>
      </g>
      <path id="Caminho_6984" data-name="Caminho 6984" class="cls-14" d="M5011.366,329.325a73.183,73.183,0,0,1,1.506-10.248c.117-.459.248-.884.386-1.292h-35.122c-.139.409-.27.833-.385,1.292a72.734,72.734,0,0,0-1.506,10.248Z" transform="translate(-4960.285 -280.952)"/>
      <path id="Caminho_6985" data-name="Caminho 6985" class="cls-16" d="M4975.291,391.485q.012,1.289.031,2.57h46.493q-.019-1.279-.031-2.57Z" transform="translate(-4960.002 -302.836)"/>
      <path id="Caminho_6986" data-name="Caminho 6986" class="cls-16" d="M5026.11,402.061q-.03-1.277-.057-2.57h-36.667q.027,1.293.057,2.57Z" transform="translate(-4964.187 -305.214)"/>
      <path id="Caminho_6987" data-name="Caminho 6987" class="cls-16" d="M5023.6,375.472h-42.145q-.01,1.282-.018,2.57h42.146Q5023.592,376.755,5023.6,375.472Z" transform="translate(-4961.827 -298.081)"/>
      <path id="Caminho_6988" data-name="Caminho 6988" class="cls-16" d="M5021.749,386.048q-.008-1.284-.008-2.57h-46.493q0,1.286.007,2.57Z" transform="translate(-4959.988 -300.459)"/>
      <path id="Caminho_6989" data-name="Caminho 6989" class="cls-16" d="M5024.348,418.073c-.042-.842-.08-1.7-.118-2.57h-42.145c.037.869.075,1.728.118,2.57Z" transform="translate(-4962.019 -309.968)"/>
      <path id="Caminho_6990" data-name="Caminho 6990" class="cls-16" d="M5024.981,410.067q-.045-1.273-.086-2.57h-39.877q.039,1.3.085,2.57Z" transform="translate(-4962.889 -307.591)"/>
      <path id="Caminho_6991" data-name="Caminho 6991" class="cls-16" d="M5025.175,431.516h-42.144q.1,1.331.221,2.57H5025.4Q5025.281,432.848,5025.175,431.516Z" transform="translate(-4962.3 -314.723)"/>
      <path id="Caminho_6992" data-name="Caminho 6992" class="cls-16" d="M5024.579,343.447h-42.145q-.078,1.259-.148,2.57h42.145Q5024.5,344.707,5024.579,343.447Z" transform="translate(-4962.079 -288.572)"/>
      <path id="Caminho_6993" data-name="Caminho 6993" class="cls-16" d="M5027.713,426.08q-.084-1.257-.161-2.57h-35.225c.05.877.1,1.732.16,2.57Z" transform="translate(-4965.061 -312.346)"/>
      <path id="Caminho_6994" data-name="Caminho 6994" class="cls-16" d="M5025.942,439.522H4983.8c.105.915.216,1.775.332,2.57h42.145C5026.159,441.3,5026.048,440.437,5025.942,439.522Z" transform="translate(-4962.528 -317.1)"/>
      <path id="Caminho_6995" data-name="Caminho 6995" class="cls-16" d="M5025.308,359.459h-38.79q-.038,1.274-.072,2.57h38.791Q5025.269,360.733,5025.308,359.459Z" transform="translate(-4963.314 -293.326)"/>
      <path id="Caminho_6996" data-name="Caminho 6996" class="cls-16" d="M5022.2,351.453h-46.82q-.056,1.27-.1,2.57h46.819Q5022.142,352.721,5022.2,351.453Z" transform="translate(-4959.997 -290.949)"/>
      <path id="Caminho_6997" data-name="Caminho 6997" class="cls-16" d="M5026.041,367.466H4989.43q-.025,1.277-.043,2.57H5026Q5026.017,368.744,5026.041,367.466Z" transform="translate(-4964.187 -295.704)"/>
      <path id="Caminho_6998" data-name="Caminho 6998" class="cls-16" d="M5028.723,448.382c-.065-.264-.131-.553-.195-.853h-38.936c.063.3.129.588.195.853.151.6.314,1.17.48,1.717H5029.2C5029.036,449.552,5028.874,448.984,5028.723,448.382Z" transform="translate(-4964.249 -319.478)"/>
      <path id="Caminho_6999" data-name="Caminho 6999" class="cls-4" d="M4980.387,423.51h-21.309q.075,1.315.16,2.57h21.311Q4980.463,424.823,4980.387,423.51Z" transform="translate(-4955.188 -312.346)"/>
      <path id="Caminho_7000" data-name="Caminho 7000" class="cls-4" d="M4973.068,415.5h-14.391c.038.869.076,1.728.118,2.57h14.39C4973.144,417.231,4973.1,416.372,4973.068,415.5Z" transform="translate(-4955.068 -309.968)"/>
      <path id="Caminho_7001" data-name="Caminho 7001" class="cls-4" d="M4975.044,407.5h-16.658q.039,1.3.086,2.57h16.657Q4975.083,408.794,4975.044,407.5Z" transform="translate(-4954.981 -307.591)"/>
      <path id="Caminho_7002" data-name="Caminho 7002" class="cls-4" d="M4974.012,431.516h-14.39q.106,1.331.221,2.57h14.39Q4974.118,432.848,4974.012,431.516Z" transform="translate(-4955.349 -314.723)"/>
      <path id="Caminho_7003" data-name="Caminho 7003" class="cls-4" d="M4979.219,447.529h-17.6c.064.3.129.588.2.853.151.6.312,1.17.48,1.717h17.6c-.167-.547-.329-1.114-.479-1.717C4979.348,448.117,4979.283,447.828,4979.219,447.529Z" transform="translate(-4955.941 -319.478)"/>
      <path id="Caminho_7004" data-name="Caminho 7004" class="cls-4" d="M4978.055,399.491h-19.868q.025,1.293.056,2.57h19.869Q4978.082,400.784,4978.055,399.491Z" transform="translate(-4954.923 -305.214)"/>
      <path id="Caminho_7005" data-name="Caminho 7005" class="cls-4" d="M4974.779,439.522H4960.39c.105.915.216,1.775.332,2.57h14.391C4975,441.3,4974.886,440.437,4974.779,439.522Z" transform="translate(-4955.576 -317.1)"/>
      <path id="Caminho_7006" data-name="Caminho 7006" class="cls-4" d="M4973.417,343.447h-14.391q-.078,1.259-.148,2.57h14.392Q4973.339,344.707,4973.417,343.447Z" transform="translate(-4955.127 -288.572)"/>
      <path id="Caminho_7007" data-name="Caminho 7007" class="cls-4" d="M4968.109,391.485h-10.043q.013,1.289.031,2.57h10.042Q4968.121,392.775,4968.109,391.485Z" transform="translate(-4954.887 -302.836)"/>
      <path id="Caminho_7008" data-name="Caminho 7008" class="cls-4" d="M4968.337,351.453h-9.716q-.057,1.27-.106,2.57h9.716Q4968.281,352.721,4968.337,351.453Z" transform="translate(-4955.019 -290.949)"/>
      <path id="Caminho_7009" data-name="Caminho 7009" class="cls-4" d="M4978.074,367.466H4958.15c-.017.851-.03,1.709-.044,2.57h19.924Q4978.051,368.744,4978.074,367.466Z" transform="translate(-4954.898 -295.704)"/>
      <path id="Caminho_7010" data-name="Caminho 7010" class="cls-4" d="M4976.083,359.459h-17.746q-.039,1.274-.072,2.57h17.747Q4976.045,360.733,4976.083,359.459Z" transform="translate(-4954.946 -293.326)"/>
      <path id="Caminho_7011" data-name="Caminho 7011" class="cls-4" d="M4972.44,375.472H4958.05q-.013,1.282-.017,2.57h14.39Q4972.428,376.755,4972.44,375.472Z" transform="translate(-4954.876 -298.081)"/>
      <path id="Caminho_7012" data-name="Caminho 7012" class="cls-4" d="M4968.067,383.478h-10.042q0,1.286.007,2.57h10.041Q4968.068,384.764,4968.067,383.478Z" transform="translate(-4954.875 -300.459)"/>
      <g id="Grupo_4020" data-name="Grupo 4020" class="cls-17" transform="translate(47.185 4.4)">
        <path id="Caminho_7013" data-name="Caminho 7013" class="cls-15" d="M5020.68,274.391a1.436,1.436,0,0,1,1.451-1.724,2.1,2.1,0,0,1,2,1.724,1.435,1.435,0,0,1-1.452,1.724A2.1,2.1,0,0,1,5020.68,274.391Z" transform="translate(-5020.658 -271.955)"/>
        <path id="Caminho_7014" data-name="Caminho 7014" class="cls-15" d="M5029.928,274.391a1.435,1.435,0,0,1,1.45-1.724,2.1,2.1,0,0,1,2,1.724,1.435,1.435,0,0,1-1.451,1.724A2.1,2.1,0,0,1,5029.928,274.391Z" transform="translate(-5023.405 -271.955)"/>
        <path id="Caminho_7015" data-name="Caminho 7015" class="cls-15" d="M5039.176,274.391a1.434,1.434,0,0,1,1.45-1.724,2.1,2.1,0,0,1,2,1.724,1.435,1.435,0,0,1-1.45,1.724A2.1,2.1,0,0,1,5039.176,274.391Z" transform="translate(-5026.151 -271.955)"/>
        <ellipse id="Elipse_87" data-name="Elipse 87" class="cls-15" cx="1.593" cy="1.866" rx="1.593" ry="1.866" transform="translate(18.799 2.34) rotate(-47.264)"/>
      </g>
      <g id="Grupo_4021" data-name="Grupo 4021" transform="translate(37.793 13.875)">
        <path id="Caminho_7016" data-name="Caminho 7016" class="cls-14" d="M5040.283,288.354h-.013a4.043,4.043,0,0,1-2.872-1.2,2.993,2.993,0,0,0-4.225-.013,4.076,4.076,0,0,1-5.756-.018,2.992,2.992,0,0,0-4.225-.013,4.043,4.043,0,0,1-2.868,1.183h-.013a4.037,4.037,0,0,1-2.873-1.2,2.994,2.994,0,0,0-4.226-.013,4.077,4.077,0,0,1-5.756-.018.541.541,0,0,1,.768-.763,2.993,2.993,0,0,0,4.227.013,4.076,4.076,0,0,1,5.754.018,2.966,2.966,0,0,0,2.11.881h.01a2.966,2.966,0,0,0,2.1-.868,4.074,4.074,0,0,1,5.755.018,3,3,0,0,0,4.227.013,4.076,4.076,0,0,1,5.754.018,2.968,2.968,0,0,0,2.109.882h.009a2.969,2.969,0,0,0,2.106-.868,4.075,4.075,0,0,1,5.755.018.541.541,0,0,1-.768.762,2.993,2.993,0,0,0-4.226-.013A4.04,4.04,0,0,1,5040.283,288.354Z" transform="translate(-5007.298 -285.131)"/>
      </g>
      <path id="Caminho_7017" data-name="Caminho 7017" class="cls-15" d="M4973.439,292.471l1.736,6.181a.9.9,0,0,0,1.516.387l4.485-4.593a.9.9,0,0,0-.423-1.507l-6.222-1.587A.9.9,0,0,0,4973.439,292.471Z" transform="translate(-4956.218 -276.317)"/>
    </g>
    <g id="Grupo_4023" data-name="Grupo 4023" transform="translate(-2478.295 3768.199)">
      <path id="Caminho_7018" data-name="Caminho 7018" class="cls-15" d="M5306.439,385.637a1.694,1.694,0,0,1,1.181.383,1.506,1.506,0,0,1,.422,1.169,1.81,1.81,0,0,1-.245.991,1.129,1.129,0,0,1-.76.494v.017a1.1,1.1,0,0,1,.667.3,1.256,1.256,0,0,1,.262.735c.012.112.02.235.025.367s.011.28.019.443c.01.321.027.565.048.734a.477.477,0,0,0,.22.346v.05h-1.316a.644.644,0,0,1-.118-.291,3.117,3.117,0,0,1-.034-.341l-.033-1.156a.962.962,0,0,0-.178-.557.652.652,0,0,0-.54-.2h-.649v2.548h-1.216v-6.023Zm-.523,2.632a.991.991,0,0,0,.675-.207.884.884,0,0,0,.236-.7.742.742,0,0,0-.844-.835h-.573v1.737Z" transform="translate(-5304.194 -385.637)"/>
      <path id="Caminho_7019" data-name="Caminho 7019" class="cls-15" d="M5314.233,386.633h-2.151v1.417h2.025v1h-2.025v1.62h2.236v1h-3.45v-6.023h3.366Z" transform="translate(-5306.176 -385.637)"/>
      <path id="Caminho_7020" data-name="Caminho 7020" class="cls-15" d="M5318.225,390.092h.026l.895-4.455h1.257l-1.384,6.023h-1.561l-1.382-6.023h1.3Z" transform="translate(-5307.722 -385.637)"/>
      <path id="Caminho_7021" data-name="Caminho 7021" class="cls-15" d="M5326.231,386.633h-2.151v1.417h2.025v1h-2.025v1.62h2.236v1h-3.45v-6.023h3.365Z" transform="translate(-5309.739 -385.637)"/>
      <path id="Caminho_7022" data-name="Caminho 7022" class="cls-15" d="M5331.5,389.762h.019v-4.125h1.113v6.023h-1.384l-1.484-4.218h-.018v4.218h-1.114v-6.023h1.4Z" transform="translate(-5311.453 -385.637)"/>
      <path id="Caminho_7023" data-name="Caminho 7023" class="cls-15" d="M5337.6,385.637a2.176,2.176,0,0,1,1.021.207,1.472,1.472,0,0,1,.6.59,2.636,2.636,0,0,1,.291.924,8.782,8.782,0,0,1,.076,1.207,8.422,8.422,0,0,1-.1,1.379,2.649,2.649,0,0,1-.332.966,1.473,1.473,0,0,1-.633.565,2.357,2.357,0,0,1-1,.186h-1.915v-6.023Zm-.237,5.129a1.037,1.037,0,0,0,.515-.11.749.749,0,0,0,.308-.362,2.123,2.123,0,0,0,.154-.667c.024-.275.036-.619.036-1.029q0-.515-.033-.9a2.219,2.219,0,0,0-.14-.645.8.8,0,0,0-.312-.387,1.025,1.025,0,0,0-.553-.131h-.515v4.234Z" transform="translate(-5313.522 -385.637)"/>
      <path id="Caminho_7024" data-name="Caminho 7024" class="cls-15" d="M5344.909,385.637l1.594,6.023h-1.265l-.279-1.274h-1.6l-.278,1.274h-1.266l1.6-6.023Zm-.16,3.754-.583-2.708h-.017l-.582,2.708Z" transform="translate(-5315.366 -385.637)"/>
      <path id="Caminho_7025" data-name="Caminho 7025" class="cls-15" d="M5352.9,385.637l.777,1.949.766-1.949h1.325l-1.4,2.977,1.5,3.046H5354.5l-.868-2.041-.861,2.041h-1.332l1.5-3.046-1.383-2.977Z" transform="translate(-5318.223 -385.637)"/>
      <path id="Caminho_7026" data-name="Caminho 7026" class="cls-15" d="M5360,387.965h.017l.845-2.329h1.316l-1.561,3.652v2.371h-1.215v-2.371l-1.56-3.652h1.366Z" transform="translate(-5320.126 -385.637)"/>
      <path id="Caminho_7027" data-name="Caminho 7027" class="cls-15" d="M5366.556,386.633h-2.068v-1h3.468v.92l-2.252,4.108h2.287v1h-3.654v-.885Z" transform="translate(-5322.053 -385.637)"/>
    </g>
  </g>
</svg>
